<!-- by TradingView --><svg width="56" height="56" viewBox="0 0 56 56" xmlns="http://www.w3.org/2000/svg"><path fill="#F0F3FA" d="M0 0h56v56H0z"/><path d="M17.35 20.8c0 .1-.03.2-.07.3-.1.23-.23.47-.35.7a3594.34 3594.34 0 0 1-.6 1.05l-.98 1.74.52-.01c.06 0 .12 0 .18-.02a.93.93 0 0 1 .47.06l-.28.46a10.68 10.68 0 0 1-.21.36v.02l-.12.19a16 16 0 0 0-.33.58l-.99.07-.26.52v.01l-.01.04a13.59 13.59 0 0 1-.26.5v.04h-.01l-.28.59v.1a.06.06 0 0 0 .05.04c.14.02.27 0 .38-.06a.56.56 0 0 0 .2-.1c.15-.15.3-.29.47-.42l.16-.13h.01l.1.13.17.27-.24.26c-.24.24-.49.46-.74.67l-.12.1-.1.06a13.92 13.92 0 0 0-.3.2l-.09.06a11.1 11.1 0 0 0-.36.17c-.23.1-.48.15-.75.14a.77.77 0 0 1-.4-.13c-.01-.02-.03-.02-.05-.02h.01v-.01a.65.65 0 0 1-.18-.37 1.35 1.35 0 0 1 .1-.8l.27-.6.12-.27.18-.36.27-.52v-.01l-2.72.12h-.02a161.36 161.36 0 0 1-.6.64l-1.87 1.96c-.33.34-.65.67-1.02.94a1.4 1.4 0 0 1-.29.15c-.13.06-.25.04-.4.03-.12-.04-.23-.08-.26-.23v-.17a1 1 0 0 1 .09-.23l.14-.25v-.02l.02-.01a4.47 4.47 0 0 1 2.02-1.64l.1-.13.23-.27.22-.25.44-.5v-.01a14.2 14.2 0 0 1-1.04-.03c-.19-.04-.26-.18-.2-.38a.89.89 0 0 1 .09-.19c.07-.12.19-.26.34-.42l.27-.27.02-.01.03-.02a5 5 0 0 1 .5-.42c.17-.12.32-.2.52-.25.3-.1.59-.15.89-.15.05 0 .1 0 .15.03.06.02.07.09 0 .12-.21.1-.5.16-.7.21a.79.79 0 0 0-.2.1c-.02.08.05.13.12.13l.3-.01.54-.03c.02 0 .03-.01.05-.04l1.66-1.44.3-.26 2.06-1.79.3-.26.03-.02.03-.02c.37-.3.78-.63 1.2-.88.18-.12.38-.21.59-.23h.03c.04.02.07.05.1.1.17.22.29.46.36.7Zm-4.56 3.94 1.16-.09h.01L15 22.81l.68-1.18v-.01l.07-.12a.02.02 0 0 0 0-.02.02.02 0 0 0-.03 0l-3.77 3.28a.02.02 0 0 0 0 .01v.01h.01c.28 0 .56-.03.84-.05Z" fill="#DF6D0C"/><path d="m17.35 20.8.17.35c.03.1.07.16.05.26-.02.1-.05.18-.08.26-.1.19-.2.4-.33.62a154.55 154.55 0 0 0-.6 1.08l-.06.1-.63 1.1-.52.02.98-1.74v-.01a.2.2 0 0 0 .05-.08l.55-.97c.12-.22.26-.46.35-.7a.97.97 0 0 0 .07-.28Z" fill="#2B2523"/><path d="M43.79 21.15v.23a5.15 5.15 0 0 1-.46 1.8l-.06.16-.16.28a3.72 3.72 0 0 1-.24.39l-.12.17a15.01 15.01 0 0 1-1.63 1.97 45.2 45.2 0 0 1-.7.74c-.06.14-.1.28-.11.43v.26c.01.22.1.42.23.59a.4.4 0 0 0 .06.06c.18.2.42.22.66.14.19-.07.37-.15.55-.26.27-.17.53-.35.78-.55l.33-.27.1-.1.02-.01c.05-.21.14-.43.26-.67a9.77 9.77 0 0 1 .6-1l.2-.27.15-.17c.13-.14.34-.33.51-.4.13-.06.26-.08.4-.09a37.45 37.45 0 0 1 .58 0c.1-.01.25.06.29.14.06.14 0 .25-.07.36-.13.18-.26.35-.4.51l-.14.16-.3.34a4.2 4.2 0 0 1-.77.7l-.2.2c-.15.18-.23.39-.25.62v.33c.02.05.05.08.11.07a.67.67 0 0 0 .14-.04 9.2 9.2 0 0 0 1.58-1.18l1.37-1.28.28-.27.03-.01.02-.02c.3-.27.6-.53.89-.76.1-.09.22-.17.33-.22.2-.1.3.17.33.32a2.78 2.78 0 0 1 .06.47.89.89 0 0 1-.14.35c-.1.15-.22.28-.33.38a6.6 6.6 0 0 0-1.2 1.44c-.09.16-.16.32-.22.5a.98.98 0 0 0-.04.22c-.02.2.07.32.26.34h.19c.15-.05.3-.11.46-.21.25-.14.48-.3.71-.48l.35-.27.41-.34h.01l.05.34.03.27-.14.13a80.23 80.23 0 0 1-1.49 1.42h-.01a.8.8 0 0 1-.16.13l-.12.1c-.14.1-.27.18-.4.25-.14.08-.3.15-.45.2-.28.08-.59.07-.81-.14a2.52 2.52 0 0 0-.06-.05l-.12-.18a1.56 1.56 0 0 0-.04-.08 1.15 1.15 0 0 1-.08-.5v-.1a4.85 4.85 0 0 1 .27-1v-.01h-.02a64.01 64.01 0 0 1-1.16 1.19 8.66 8.66 0 0 1-.28.22c-.22.15-.46.24-.73.22a.6.6 0 0 1-.4-.19l-.1-.11a1.2 1.2 0 0 1-.2-.43 3.34 3.34 0 0 1-.13-.63l-.69.68-.4.33a.4.4 0 0 0-.1.08l-.02.01a.3.3 0 0 0-.07.04c-.04.04-.1.07-.15.1v.01l-.2.1v.01h-.02l-.04.02c-.3.15-.61.21-.94.18-.31-.03-.57-.18-.76-.44a1.82 1.82 0 0 1-.24-.55 2.87 2.87 0 0 1-.1-.62l-1.23.98a.72.72 0 0 0-.1.08l-.02.01a2.21 2.21 0 0 0-.15.12l-.85.67-.13.22a13.95 13.95 0 0 1-1.87 2.37l-.15.13c-.14.11-.3.21-.45.28-.17.08-.33.11-.51.1-.14-.02-.22-.1-.24-.23-.05-.3.11-.65.28-.89l.09-.13.2-.26v-.01l.01-.01a13.63 13.63 0 0 1 2.14-2.04l.27-.55a41.23 41.23 0 0 0 .61-1.33 6.8 6.8 0 0 1-.89.85c-.25.21-.51.41-.79.6a62.81 62.81 0 0 0-.24.13 2.86 2.86 0 0 1-.25.11c-.27.11-.58.13-.82-.03a1.08 1.08 0 0 1-.37-.42 1.44 1.44 0 0 1-.1-.25 3.92 3.92 0 0 1-.1-.6 13.1 13.1 0 0 1-.45.31l-.23.13a2.02 2.02 0 0 1-1.04.26 5.25 5.25 0 0 1-.42.38.57.57 0 0 1-.13.09.93.93 0 0 1-.16.11l-.12.07a.7.7 0 0 1-.12.07 2.42 2.42 0 0 0-.14.07 1.84 1.84 0 0 1-.28.11l-.22.05c-.32.07-.63.04-.95-.1a1.31 1.31 0 0 1-.75-.8 2.56 2.56 0 0 1-.13-.6l-.02.01v.01l-.22.2c-.04.05-.07.1-.11.12l-.08.08-.23.22a6.97 6.97 0 0 1-.54.46l-.11.08c-.16.12-.22.17-.31.22a.81.81 0 0 0-.1.07l-.04.02a3.18 3.18 0 0 1-.5.26.9.9 0 0 1-.59 0c-.03 0-.07-.03-.1-.05l-.11-.1a.77.77 0 0 1-.11-.26l-.01-.13c-.02-.23.03-.45.1-.66a5.37 5.37 0 0 1 .38-1h-.03l-.2.17c-.02.03-.09.07-.13.1l-.1.1a2.23 2.23 0 0 1-.33.28.1.1 0 0 1-.04.02.23.23 0 0 0-.01 0 90.1 90.1 0 0 1-.68.58h-.01a5.6 5.6 0 0 1-.6.45c-.11.07-.22.12-.34.16a.36.36 0 0 1-.17 0c-.16-.03-.3-.1-.43-.19a1.5 1.5 0 0 1-.37-.42l-.1-.17a3.43 3.43 0 0 1-.2-.53l-.1.08-.02.02-1.93 1.6-.02.03a14.97 14.97 0 0 1-1.92 2.51c-.2.2-.4.37-.66.5-.16.09-.39.15-.58.1a.4.4 0 0 1-.23-.34c-.03-.28.14-.6.3-.82l.1-.12.2-.27.02-.01v-.01l.52-.56a14.83 14.83 0 0 1 1.6-1.43l.02-.04.28-.55.12-.27.1-.18.14-.3c.02-.05.08-.13.1-.22l.01-.01a4.25 4.25 0 0 0 .16-.34h-.02a12 12 0 0 1-.52.52l-.1.08a.33.33 0 0 1-.06.06.95.95 0 0 0-.1.1 1.3 1.3 0 0 1-.12.09 1.39 1.39 0 0 0-.12.1 4.96 4.96 0 0 1-.5.37c-.05.05-.11.07-.16.1l-.24.15-.23.1c-.1.05-.22.08-.34.1a.68.68 0 0 1-.5-.16c-.12-.09-.22-.21-.32-.37l-.18-.37a1.73 1.73 0 0 1-.14-.78l.04-.27c.05-.28.16-.54.31-.77a3.67 3.67 0 0 1 .95-1.01l.36-.26.03-.03a5.33 5.33 0 0 1 1.92-.92c.16-.03.32-.06.5-.06.14.01.25.04.35.1.07.03.1.1.1.19 0 .1 0 .2-.02.26a.8.8 0 0 1-.3.37 4.48 4.48 0 0 1-.45.25l-.11.07h-.02l-.18.12H20c-.01 0-.03 0-.06.03l-.16.1-.04.01a7.02 7.02 0 0 0-.45.26 4.9 4.9 0 0 0-.45.26 11.3 11.3 0 0 0-.68.4c-.18.12-.32.26-.44.43a1.15 1.15 0 0 0-.2.86l.03.04c.06.04.13.06.2.06.2 0 .38-.03.58-.1.36-.14.67-.34.94-.6l.51-.6.6-.72.41-.5a45.42 45.42 0 0 1 .3-.32c.07-.06.15-.07.23-.03l.1.07a1.08 1.08 0 0 1 .2.25h.01v.02c.05.11.09.23.11.34a.4.4 0 0 1-.01.2l-.19.4-.56 1.11-.05.1v.01l-.42.81v.01l.14-.1.01-.01a21.86 21.86 0 0 0 .62-.45l.65-.48.02-.03c.05-.24.16-.46.31-.68a4.58 4.58 0 0 1 1.37-1.24l.4-.26h.02l.01-.01a7.7 7.7 0 0 1 1.3-.65 4.17 4.17 0 0 1 1.43-.25c.26.02.55.16.7.38.06.1.08.21.08.36-.05.1-.15.18-.3.22v.01c.05.03.1.06.14.11a.73.73 0 0 1 .13.42v.11a.1.1 0 0 1 0 .04 6.14 6.14 0 0 0-.97 1.53c-.1.2-.18.4-.08.62v.01c.07.05.14.08.22.08.32.02.67-.16.93-.35a655.58 655.58 0 0 1 .78-.58 3 3 0 0 1 .85-1.8l.28-.25.02-.02a4.28 4.28 0 0 1 2.53-1.01c.16-.01.31.03.47.1.12.07.2.14.24.26.04.1.03.19 0 .27a.56.56 0 0 1-.14.15 4.44 4.44 0 0 1-.12.1c.19.07.32.2.39.38l.01.03.05.23v.1c.02.08 0 .2-.01.33-.03.14-.07.32-.12.45l-.1.3a3.98 3.98 0 0 1-.27.64l.13-.02c.13-.03.26-.08.37-.13.1-.04.2-.09.25-.14a315.65 315.65 0 0 0 .44-.41c.13-.4.36-.71.66-1l.43-.35.36-.26.02-.02c.34-.23.7-.44 1.06-.62a4.32 4.32 0 0 1 .86-.3c.22-.05.46-.1.67-.05l.1.03c.18.07.35.16.29.4l-.06.12a1.46 1.46 0 0 1-.4.38 5.95 5.95 0 0 1-.35.19l-.2.13h-.01a3.15 3.15 0 0 0-.2.1 36.98 36.98 0 0 1-.59.33c-.14.1-.19.12-.3.18a.85.85 0 0 0-.11.07h-.02a11.4 11.4 0 0 1-.74.45 1.77 1.77 0 0 0-.4.34c-.23.26-.33.56-.3.91.01.05.03.09.05.1.05.04.12.06.2.06.2 0 .39-.03.58-.1a2.84 2.84 0 0 0 1.27-.97 565.08 565.08 0 0 0 1.31-1.5c.07-.08.15-.16.23-.22.09-.07.17-.12.28-.1.04 0 .07.02.09.03l.08.05a1.3 1.3 0 0 1 .19.26l.01.03c.05.1.07.2.09.3 0 .06-.01.11-.03.16-.03.11-.08.23-.13.34a1387.35 1387.35 0 0 0-1.08 2.2l.14-.13c.01 0 .02 0 .03-.02l.62-.51.82-.67.01-.02a8.9 8.9 0 0 1 .55-1.95 7.07 7.07 0 0 1 1.09-1.77l.2-.26.34-.44a11.9 11.9 0 0 1 1.25-1.35l.3-.26.01-.01.02-.01c.18-.14.58-.44.75-.13.02.02.03.07.05.15Zm-2.47 3.23a13.05 13.05 0 0 0-.45.87l-.12.25v.03a.02.02 0 0 0 .03 0l.17-.17a9.31 9.31 0 0 0 1.4-1.8l.1-.17.06-.12a4.16 4.16 0 0 0 .33-.8l-.13.12a7.14 7.14 0 0 0-.25.23l-.12.12a3.91 3.91 0 0 1-.2.24l-.08.1a6 6 0 0 0-.74 1.1Zm-18.2 4.02c.24-.06.46-.16.67-.3l.45-.36a39.78 39.78 0 0 0 2.2-2.16.02.02 0 0 0-.01 0l-.4.12-.17.06a4.01 4.01 0 0 0-.35.12l-.12.05-.14.04a38.1 38.1 0 0 0-.58.25l-.28.13a3.82 3.82 0 0 0-.56.33 3.08 3.08 0 0 0-.74.7 1.36 1.36 0 0 0-.22.73c0 .06.02.12.07.19v.01c.04.07.1.1.17.09Zm6.57.05c.43.12.91-.24 1.2-.53-.08-.22-.16-.47-.15-.7.01-.12.03-.22.06-.31a15.69 15.69 0 0 1 .28-.76l.08-.16.14-.31v-.01a7.7 7.7 0 0 0-.72.55 17.48 17.48 0 0 0-.61.53c-.24.25-.44.58-.5.92a1.8 1.8 0 0 0 0 .39c0 .18.04.33.22.39Z" fill="#DF6D0C"/><path d="m15.02 21.15-.31.26H5L5 21.4v-.25h10.02ZM42.96 21.15l-.3.26H17.57c.02-.1-.02-.17-.05-.26h25.44ZM43.9 21.41l-.1-.03h-.01v-.23h7.2l.01.01v.24a.01.01 0 0 1-.01.01H43.9Z" fill="#B1B0B1"/><path d="M43.9 21.41c.06.06.1.14.1.22a5.35 5.35 0 0 1-1.44 3.62l-.2.26v.01a25.76 25.76 0 0 1-1.71 1.88.34.34 0 0 0-.03.08 1.5 1.5 0 0 0-.07.7.98.98 0 0 1-.24-.7v-.16a1.14 1.14 0 0 1 .11-.43 1.36 1.36 0 0 1 .2-.21 45.2 45.2 0 0 0 1.26-1.38 14.96 14.96 0 0 0 1.23-1.68l.16-.28.06-.15a6.04 6.04 0 0 0 .16-.38 5.5 5.5 0 0 0 .3-1.43l.11.03ZM15 22.82l-2.21 1.92a32.47 32.47 0 0 1-.86.04v-.01l3.78-3.28h.01a.02.02 0 0 1 .02 0v.02l-.07.12v.01l-.68 1.18Z" fill="#2B2523"/><path d="M18.94 23.2a1.03 1.03 0 0 0 .55.18h.22a1.29 1.29 0 0 0 .5-.2 3.36 3.36 0 0 0 .82-.67.6.6 0 0 1 .35-.17c.11-.02.15.07.15.16 0 .14-.03.27-.1.4l-.09.15c-.15.17-.32.33-.52.45a14.9 14.9 0 0 1-.24.14l-.14.08h-.04a1.87 1.87 0 0 1-.46.2l-.24.08c-.56.16-1.08.08-1.57-.25-.16-.1-.3-.23-.45-.38h-.02l-.14-.18a.6.6 0 0 1-.1-.15.21.21 0 0 1 .03-.22c.05-.06.1-.13.16-.18a4.64 4.64 0 0 1 .35-.3c.27.2.52.45.76.7a1.74 1.74 0 0 0 .22.16ZM36.07 23.2v.01a1.1 1.1 0 0 0 1.13.14 1.78 1.78 0 0 0 .36-.2c.19-.13.37-.28.53-.44.15-.15.3-.3.5-.31.2-.01.14.32.1.43l-.05.13c-.06.11-.14.2-.22.3a2.6 2.6 0 0 1-.53.39 3.45 3.45 0 0 0-.2.1l-.21.11h-.01a.1.1 0 0 0-.03.01 1.91 1.91 0 0 1-.23.1 2.75 2.75 0 0 1-.46.13c-.31.06-.6.05-.88-.03-.36-.12-.7-.34-.96-.62-.01-.01-.02-.02-.03-.01v-.01l-.01-.01-.18-.22a1.25 1.25 0 0 1-.05-.11.2.2 0 0 1 .02-.2l.11-.14a4.03 4.03 0 0 1 .4-.35l.16.12c.24.2.46.44.69.65l.05.03Z" fill="#DF6D0C"/><path d="M41.32 24.38v-.01l.01-.02a1.15 1.15 0 0 0 .1-.18l.08-.12.08-.13a5.5 5.5 0 0 0 .21-.3 5.93 5.93 0 0 1 .54-.68l.11-.12a7.14 7.14 0 0 1 .25-.23l.14-.12v.02a4.16 4.16 0 0 1-.4.9l-.1.16a9.33 9.33 0 0 1-1.4 1.8l-.16.17h-.03v-.02l.12-.25.01-.04a13.18 13.18 0 0 1 .44-.83ZM21.75 23.2l-.01.01-.1.25a1.9 1.9 0 0 1-.14.18c-.24.26-.55.45-.86.6-.17 0-.33.03-.5.06l-.15.04c-.23.07-.46.15-.68.25a1.92 1.92 0 0 1-.97-.34 3.15 3.15 0 0 1-.51-.45.7.7 0 0 1-.2-.34l.03-.1.02.01c.14.15.3.27.45.38.49.33 1.01.41 1.57.25a8.72 8.72 0 0 0 .5-.17 1.9 1.9 0 0 0 .22-.11h.02l.14-.08h.01l.23-.14c.2-.12.37-.28.52-.45l.1-.16a.48.48 0 0 1 .21-.04c.13 0 .11.24.1.33v.02ZM38.96 23.2c-.02.09-.05.18-.09.26a1.4 1.4 0 0 1-.3.37c-.2.18-.44.33-.71.46l-.1-.03c-.21-.05-.45 0-.67.04l-.19.05c-.18.05-.4.14-.67.26a1.8 1.8 0 0 1-.48-.18 2.79 2.79 0 0 1-.7-.54l-.15-.2a.36.36 0 0 1-.05-.23l.03-.02h.03c.27.29.6.51.96.63a1.8 1.8 0 0 0 .91.03 2.76 2.76 0 0 0 .45-.14c.07-.02.13-.05.2-.09h.05l.2-.12h.04l.16-.1c.21-.12.4-.26.54-.4.08-.08.16-.18.22-.3a.49.49 0 0 1 .2-.04c.13 0 .13.18.11.27v.01Z" fill="#2B2523"/><path d="m12.65 23.2-.3.26H5a.01.01 0 0 1 0-.01v-.24a.01.01 0 0 1 0-.01h7.64ZM17.51 23.2l.15.16-.03.1H16.5l.05-.09a.71.71 0 0 1 .1-.17h.86ZM20.17 23.2c-.16.1-.32.15-.46.17a1.2 1.2 0 0 1-.44-.02 1.02 1.02 0 0 1-.33-.15h1.23ZM34.69 23.2l.18.22v.02l-.02.02H21.64c.04-.08.07-.14.1-.25v-.01H34.7ZM37.49 23.2a1.37 1.37 0 0 1-.43.2 1.1 1.1 0 0 1-1-.2h1.43ZM41.07 23.2l-.2.26h-2c.04-.08.07-.17.09-.26h2.11ZM43.67 23.46l.06-.2.04-.06H51v.25l-.01.01h-7.32Z" fill="#B1B0B1"/><path d="m49.24 25.24.03.27c-.02.33-.32.6-.57.84a6.5 6.5 0 0 0-1.2 1.54c-.06.12-.1.24-.13.36-.2-.02-.28-.14-.26-.34a1 1 0 0 1 .04-.22 2.3 2.3 0 0 1 .27-.58l.14-.2.14-.2.24-.32c.21-.24.4-.44.63-.64.11-.1.23-.23.33-.38a.89.89 0 0 0 .11-.22.43.43 0 0 0 .03-.13l-.03-.3c.06.04.1.08.12.13.06.12.1.25.1.38l.01.01ZM21.08 24.8a.4.4 0 0 1 .2.08c.06.06.06.2.05.3-.08-.04-.16-.03-.23.03a2.26 2.26 0 0 0-.3.31l-.42.5a135.7 135.7 0 0 0-1.72 1l-.38.24c-.26.2-.45.46-.52.79a.33.33 0 0 1-.2-.06l-.03-.04v-.03c-.04-.3.02-.58.2-.83.12-.17.26-.31.44-.43a10.09 10.09 0 0 1 .9-.53 4.9 4.9 0 0 1 .5-.28l.18-.1.04-.02a4.07 4.07 0 0 1 .23-.13l.18-.12h.02l.11-.07.14-.08c.18-.09.28-.15.3-.17a.8.8 0 0 0 .3-.37ZM38.39 25.16c-.1-.02-.2.03-.28.1-.08.06-.16.13-.23.22l-.43.48a131.85 131.85 0 0 0-2.14 1.24c-.22.15-.4.35-.52.6a.96.96 0 0 0-.07.25.31.31 0 0 1-.2-.06c-.02-.01-.04-.05-.04-.1-.04-.35.06-.65.29-.91a1.8 1.8 0 0 1 .4-.34 14.47 14.47 0 0 1 .87-.52l.3-.18h.01a36.98 36.98 0 0 0 .79-.43l.2-.13.03-.02a5.78 5.78 0 0 0 .44-.26c.1-.08.2-.18.28-.3.11.04.24.11.28.21a.3.3 0 0 1 .02.15ZM32.81 24.85c.17.07.26.2.26.38l.01.01a.41.41 0 0 1-.13.24.61.61 0 0 0-.4-.38l.13-.1c.05-.04.1-.1.13-.15ZM16.68 25.24l-.15.27h-.01a25.1 25.1 0 0 0-.71 1.23l-.98.08h-.01l-.23.47a.5.5 0 0 0-.05.1l-.08.17-.26.52a.64.64 0 0 1-.38.06.06.06 0 0 1-.05-.04.25.25 0 0 1 0-.1l.28-.58v-.01l.01-.04.1-.2a13.05 13.05 0 0 0 .17-.35l.26-.51 1-.08.01-.02.31-.56a2.51 2.51 0 0 1 .12-.2v-.01l.21-.36c.08 0 .15-.02.22-.01a2.32 2.32 0 0 1 .29.06l-.07.11ZM27.73 25.25l.05.1c.02.05.02.1.02.16.01.08 0 .14-.06.18a.55.55 0 0 1-.2.1.73.73 0 0 0-.12-.37.4.4 0 0 0-.15-.11v-.01c.16-.04.26-.11.3-.22.07.04.12.1.16.17ZM45.96 25.08c.14 0 .24.06.3.16a.3.3 0 0 1 .01.18l-.04.09a6.39 6.39 0 0 1-.45.6c-.24.28-.51.6-.8.87l-.37.3c-.22.19-.4.4-.46.7a.67.67 0 0 1-.14.03c-.06 0-.1-.02-.1-.07-.02-.1-.02-.21-.01-.33.02-.23.1-.44.25-.62a2.23 2.23 0 0 1 .4-.35c.2-.16.4-.35.57-.55a27.2 27.2 0 0 0 .84-1Z" fill="#2B2523"/><path d="m8.47 25.24-.27.27H5v-.26h3.47ZM16.68 25.24h1.52l-.36.27h-1.31l.15-.27ZM24.05 25.25l-.4.26h-2.01l-.01-.01-.01-.01a1.08 1.08 0 0 0-.2-.24h2.63ZM29.56 25.25l-.28.26H27.8c0-.05 0-.1-.02-.16a.85.85 0 0 0-.05-.1h1.83ZM35.15 25.25l-.36.26h-1.83l-.01-.03a.41.41 0 0 0 .13-.24h2.07ZM39.77 25.24v.02l-.1.25h-.92l-.02-.02c-.04-.09-.1-.17-.17-.25h1.21ZM42.57 25.24h1.52l-.2.27h-1.52l.2-.27ZM47.38 25.24l-.28.27h-.87a.52.52 0 0 0 .04-.1.3.3 0 0 0 0-.17h1.11ZM49.27 25.51l-.03-.27H51l.01.02v.24h-.01l-1.72.01Z" fill="#B1B0B1"/><path d="m25.64 26.43-.56.22c-.55.24-1.06.52-1.5.93-.17.17-.31.37-.41.6l-.06.22a.18.18 0 0 1-.17-.09v-.01a.42.42 0 0 1-.07-.19c-.01-.06 0-.15.02-.26a1.36 1.36 0 0 1 .29-.58l.09-.1c.17-.2.36-.35.56-.49l.39-.23.03-.02.14-.08.28-.13h.03l.01-.01a5.96 5.96 0 0 1 .9-.36l.25-.1.17-.05a8.67 8.67 0 0 1 .42-.12v.01l-.01.03-.8.81ZM30.87 26.68c-.31.26-.53.44-.64.55-.32.31-.57.76-.54 1.22-.18-.06-.22-.21-.23-.39 0-.13 0-.26.02-.4.05-.33.25-.66.49-.9l.2-.19a17.48 17.48 0 0 1 1.13-.9c-.05.13-.1.2-.14.32l-.08.16a3.38 3.38 0 0 1-.15.38l-.06.15ZM33.01 25.74a.7.7 0 0 1 .21.4c.04.22.03.43-.02.66-.05.2-.11.41-.2.61a2.39 2.39 0 0 1-.5.15 6.76 6.76 0 0 1 .1-.24 4.03 4.03 0 0 0 .18-.4l.1-.3a2.92 2.92 0 0 0 .14-.78v-.1ZM38.4 27.87a47.66 47.66 0 0 1-.65.53l-.14.13h-.01v-.01a.99.99 0 0 0 .08-.18l.1-.2.9-1.8c.06-.12.1-.24.14-.35.02-.05.02-.1.03-.16.12.15.23.36.22.56 0 .02 0 .07-.03.14l-.15.37-.49.97ZM26.72 28.23a.33.33 0 0 1-.21-.08l-.01-.01c-.1-.21-.03-.42.07-.62.11-.21.24-.43.38-.64a41.92 41.92 0 0 1 .6-.9.1.1 0 0 0 0-.03v-.1c.12.08.19.2.2.36a1.45 1.45 0 0 1 .02.3 7.83 7.83 0 0 0-1.06 1.72ZM21.3 27.93a21.67 21.67 0 0 1-.64.46l-.13.11h-.01l.41-.82.06-.1a108.5 108.5 0 0 1 .75-1.51.4.4 0 0 0 .01-.2c.14.17.22.38.24.6l-.03.11-.1.21-.57 1.14ZM12.66 26.93l-2.22.1-.02.01-.24.25-.25.27-1.7 1.78a.1.1 0 0 0-.06.06c-.01.02-.03.04-.07.06l-.01.01-.12.14-.43.44c-.14.14-.28.27-.43.38-.17.14-.41.31-.61.33-.23.03-.55-.02-.52-.33 0-.07.01-.13.04-.19.14.01.26.03.4-.03.1-.04.2-.1.28-.15.37-.27.69-.6 1.02-.94a459.89 459.89 0 0 0 2.49-2.6l2.71-.12v.01l-.26.52ZM8.57 27.04c-.12.01-.24 0-.35-.02-.12-.02-.23-.1-.24-.22-.02-.1.02-.18.06-.28l.18.01a14.18 14.18 0 0 0 .79 0l-.44.51Z" fill="#2B2523"/><path d="m12.48 27.29-.12.27H9.93l.25-.27h2.3ZM16.58 27.29l-.04.27h-1.4l-.1-.13a.01.01 0 0 0-.01 0l-.16.13h-.41l.08-.16a.51.51 0 0 1 .05-.11h1.99ZM42.92 27.29l-.33.27h-2a.99.99 0 0 0 .03-.08.34.34 0 0 1 .03-.08.4.4 0 0 1 .1-.11h2.17ZM49.08 27.3l-.35.26h-1.04l.04-.07a20.76 20.76 0 0 1 .15-.2h1.2ZM8.35 27.29l-.23.27H5.01a.01.01 0 0 1-.01-.01v-.26h3.35ZM49.55 27.29H51a.01.01 0 0 1 0 .01v.25h-1.24l-.02-.08a.01.01 0 0 0-.01 0l-.12.09h-.02l-.03-.27Z" fill="#B1B0B1"/><path d="m36.5 28.8-.71.54-.05.02a1.7 1.7 0 0 1-.15.1h-.01a1.56 1.56 0 0 1-.86.28.7.7 0 0 1-.34-.09.62.62 0 0 0-.07-.04 2 2 0 0 1-.25-.27c-.09-.14-.15-.29-.18-.45.08.1.16.17.25.23.24.16.55.14.82.03h.04l.01-.01a2.92 2.92 0 0 0 .43-.24h.01a9.07 9.07 0 0 0 1.7-1.44v.03a1594.52 1594.52 0 0 0-.63 1.3ZM19.56 28.79c-.23.19-.48.37-.73.55l-.03.01-.02.01a.55.55 0 0 1-.14.1l-.26.15-.16.06c-.1.04-.21.06-.32.07a.63.63 0 0 1-.38-.07 9.44 9.44 0 0 1-.11-.06l-.2-.2a2.95 2.95 0 0 1-.34-.69c.09.15.19.27.3.36.15.12.32.17.51.15.12-.01.23-.04.34-.09l.23-.1.24-.14.16-.1a4.96 4.96 0 0 0 .5-.37l.12-.11c.05-.04.1-.07.11-.1a.95.95 0 0 1 .1-.09.33.33 0 0 0 .08-.06c.02-.03.06-.05.1-.08a12 12 0 0 0 .53-.52.02.02 0 0 1 0 .02 4.25 4.25 0 0 1-.17.33c-.02.09-.08.17-.1.22l-.14.3-.1.18-.12.27ZM49.75 27.56l.06.49a.03.03 0 0 1 0 .02l-1.3 1.27h-.01l-.02.02a.78.78 0 0 1-.16.14 5.25 5.25 0 0 1-.8.58c-.43.26-1.04.46-1.4-.04a.96.96 0 0 1-.18-.4v-.02l-.02-.01.02-.01.06.05c.22.21.53.22.81.13.16-.04.3-.1.45-.19a4.74 4.74 0 0 0 1.04-.78c.39-.37.77-.74 1.14-1.12l.16-.13.12-.1h.01v.01l.02.09ZM25.34 28.55l-.94.79-.07.04a.52.52 0 0 1-.12.1l-.17.13c-.1.07-.21.14-.33.2-.08.06-.24.13-.34.12a1.08 1.08 0 0 1-.72-.42 1.5 1.5 0 0 0 0-.29c.12.1.27.16.43.19h.17a1.12 1.12 0 0 0 .34-.17h.03l.15-.12a5.58 5.58 0 0 0 .42-.32h.01a89.99 89.99 0 0 0 1.16-.98l.14-.1a2.76 2.76 0 0 1 .2-.18.02.02 0 0 1 .02.02v.01a21.58 21.58 0 0 1-.17.4l-.21.58ZM45.7 28.74l-.57.6-.32.27h-.03c-.15.12-.32.2-.5.25a.8.8 0 0 1-.5-.05.67.67 0 0 1-.24-.2h-.01a1.4 1.4 0 0 1-.17-.27l-.09-.28.1.11a.6.6 0 0 0 .41.2c.27.01.51-.08.73-.23l.01-.01.03-.02h.01a9.11 9.11 0 0 0 .54-.48 64.06 64.06 0 0 0 .87-.9v.05c-.12.31-.21.63-.27.96ZM33.66 28.45a2.7 2.7 0 0 1-1.6.61l-.27.26-.01.02-.05.02v.01a.35.35 0 0 1-.1.08l-.21.16c-.18.11-.37.21-.57.3-.22.08-.42.13-.62.14-.36.01-.69-.08-1-.3a1.35 1.35 0 0 1-.35-.4v-.02c-.07-.12-.11-.24-.14-.36.15.2.33.34.56.44.32.13.63.16.95.09l.22-.05a1.84 1.84 0 0 0 .28-.11l.01-.01a2.5 2.5 0 0 1 .25-.13c.02 0 .06-.03.12-.07a.93.93 0 0 0 .17-.12.57.57 0 0 0 .12-.08 5.27 5.27 0 0 0 .44-.4 2.02 2.02 0 0 0 .76-.13 2.8 2.8 0 0 1 .26-.11l.23-.13a22.5 22.5 0 0 0 .45-.31c.02.2.06.4.1.6ZM14.47 29.34h-.02l-.01.02a.45.45 0 0 1-.08.06.6.6 0 0 0-.11.08l-.16.1-.22.13c-.36.2-.8.34-1.2.24a.56.56 0 0 1-.42-.36.87.87 0 0 1-.04-.25c.12.08.25.12.4.13a1.6 1.6 0 0 0 .8-.16h.03l.28-.15.1-.05v-.01a13.92 13.92 0 0 1 .39-.27l.12-.09c.25-.21.5-.43.74-.67l.18-.15a.02.02 0 0 1 .02 0l.27.4v.01a9.74 9.74 0 0 1-1.07 1ZM39.31 28.57l-.95.75c0 .02-.01.02-.02.02h-.01l-.01.01a15 15 0 0 1-.12.09l-.2.17a189.47 189.47 0 0 0-.93.76 15.71 15.71 0 0 1-.66 1.02l-.2.27h-.02c-.18.25-.39.51-.63.78a5 5 0 0 1-.64.62c-.26.2-.58.38-.9.36a.28.28 0 0 1-.2-.08c-.1-.1-.1-.3-.06-.43.18.01.34-.02.5-.1a2.08 2.08 0 0 0 .61-.41c.2-.17.38-.36.56-.57a13.8 13.8 0 0 0 1.44-2.02l.85-.67h.02a2.25 2.25 0 0 1 .25-.21l1.23-.98c.01.21.04.41.1.62ZM43.06 28.63c-.23.24-.48.48-.73.7l-.14.12a.24.24 0 0 0-.1.06 2.2 2.2 0 0 1-1.06.54c-.16.04-.33.04-.51.02a1.04 1.04 0 0 1-.75-.46h-.01v-.02a2.07 2.07 0 0 1-.14-.27.98.98 0 0 1-.06-.2c.2.26.45.41.76.44a1.7 1.7 0 0 0 1-.2c.1-.06.18-.11.2-.1v-.01l.15-.11a.3.3 0 0 1 .07-.04l.02-.01a.4.4 0 0 1 .1-.08c.14-.11.27-.2.4-.33a25.28 25.28 0 0 0 .7-.67c.02.22.05.42.1.62ZM28.42 28l.01.01c.02.21.06.4.12.59a22.08 22.08 0 0 1-.91.86l-.18.15h-.02c-.25.2-.51.39-.8.54-.18.1-.37.17-.58.16a.67.67 0 0 1-.4-.13c-.14-.11-.2-.3-.2-.48l.11.05a.9.9 0 0 0 .68-.03 3.14 3.14 0 0 0 .55-.32c.09-.05.15-.1.31-.22l.1-.08c.02 0 .03-.02.05-.03a6.94 6.94 0 0 0 .73-.65l.08-.08.11-.12a17.21 17.21 0 0 0 .22-.2l.02-.02ZM21.98 28.1v.02l.2.5-.85.72a.54.54 0 0 1-.13.1l-.03.02a.5.5 0 0 1-.08.08l-.02.02a.26.26 0 0 1-.06.04l-.87.74-.02.01c-.2.35-.43.7-.67 1.04l-.2.25v.02l-.36.46c-.3.36-.6.7-.94.97-.21.18-.45.32-.72.37-.1.02-.19.02-.26-.01-.19-.08-.26-.3-.22-.5.2.04.42-.02.58-.11.25-.13.45-.3.66-.5l.48-.51a13.79 13.79 0 0 0 1.46-2.03l1.93-1.6.02-.02.1-.07Z" fill="#2B2523"/><path d="M5.98 29.34v.02l-.14.25H5v-.26a.01.01 0 0 1 0-.01h.97ZM12.16 29.34c.02 0 .04 0 .05.02 0 .08.02.16.04.25H7.97l.12-.14c.05-.03.07-.05.08-.07a.1.1 0 0 1 .06-.06h3.93ZM17.16 29.34a.35.35 0 0 1 .05.07l.2.2h-3.32l.16-.11a.6.6 0 0 1 .1-.08.45.45 0 0 0 .09-.06l.01-.01h.02l2.7-.01ZM19.28 29.34c0 .02 0 .03-.02.04l-.29.23h-.6l.26-.16c.06-.02.1-.05.15-.09h.02l.03-.02h.45ZM22.52 29.34a2.22 2.22 0 0 0 .21.27h-1.72a.26.26 0 0 0 .06-.05c0-.01 0-.02.02-.02a.5.5 0 0 0 .08-.08l.03-.02c.05-.02.1-.06.13-.1h1.2ZM25.25 29.34c.02.1.06.19.11.27h-1.32l.17-.14a.51.51 0 0 0 .12-.09l.07-.04h.85ZM28.87 29.34c.01 0 .02 0 .02.02.05.08.11.17.18.25h-1.61l.18-.15a.29.29 0 0 0 .09-.07.13.13 0 0 1 .05-.05h1.1ZM34.06 29.34l.09.11.16.16h-2.9l.22-.16a.34.34 0 0 0 .1-.09l.04-.02h2.3ZM36.24 29.34a41.26 41.26 0 0 0-.3.27h-.62a1.56 1.56 0 0 0 .27-.15l.02-.01a1.74 1.74 0 0 0 .13-.09l.05-.02h.45ZM39.62 29.34l.01.01a2.06 2.06 0 0 0 .13.26H38l.2-.17h.02a14.14 14.14 0 0 0 .11-.1h1.28ZM43.36 29.34c.05.1.1.18.17.27h-1.56c.05-.03.1-.06.13-.1a.24.24 0 0 1 .09-.06l.14-.11h1.03ZM45.78 29.34l.04.08.12.18H44.8l.32-.26h.65ZM48.2 29.6a.56.56 0 0 0 .12-.1l.02-.01.14-.13.02-.01h.01l2.48-.01a.01.01 0 0 1 .01.01v.25h-2.8Z" fill="#B1B0B1"/><path d="m37.02 31.66.2-.27a2.47 2.47 0 0 1 1.02-.67c.47-.17.97-.18 1.47-.1.19.03.36.1.52.19.03.02.07.05.09.09v1.75a1.93 1.93 0 0 0-.52-.38 1.1 1.1 0 0 0-.5-.15c-.18 0-.35.01-.5.08-.25.1-.41.27-.49.52-.08.3-.08.62-.03.9.1.5.43.83.94.82a1.59 1.59 0 0 0 .38-.06V33H41v3l-.93-.23h-.03c-.36.21-.82.25-1.24.22a2.2 2.2 0 0 1-1.78-.98 2.8 2.8 0 0 1-.42-1.31 3.2 3.2 0 0 1 .42-2.04ZM49.37 31.4a4.73 4.73 0 0 1 .23.29 2.76 2.76 0 0 1 .31 2.67c-.3.71-.86 1.26-1.57 1.5-.66.23-1.4.17-2.02-.16a2.74 2.74 0 0 1-1.2-3.44 2.65 2.65 0 0 1 1.9-1.6 2.51 2.51 0 0 1 2.35.74Zm-1.85.64a.9.9 0 0 0-.7.37 1.58 1.58 0 0 0-.21 1.38c.05.15.12.3.21.41.1.12.2.21.32.28.12.06.25.1.38.1.26 0 .51-.14.7-.38.18-.24.29-.56.29-.9 0-.33-.1-.65-.3-.89a.89.89 0 0 0-.69-.37ZM43.06 32.29l.78-1.57h1.55a4359.1 4359.1 0 0 0-1.55 3.2.02.02 0 0 0-.01 0V36H42.3v-2.05a.03.03 0 0 0-.02-.03l-.01-.01-.16-.31a7165.51 7165.51 0 0 0-1.36-2.89 1479.51 1479.51 0 0 0 1.51.02l.78 1.56h.01Z" fill="#2B2523"/><path d="m17.13 31.39-.22.27H5.01v-.26a.01.01 0 0 1 0-.01h12.12ZM34.08 31.39v.01l-.2.26H19.27v-.01l.2-.26h14.62ZM37.23 31.39l-.2.27h-.82l.2-.27h.82ZM49.6 31.66l-.02-.01a4.76 4.76 0 0 0-.21-.26h1.62l.01.01v.25a.01.01 0 0 1-.01 0H49.6Z" fill="#B1B0B1"/></svg>