<!-- by TradingView --><svg xmlns="http://www.w3.org/2000/svg" width="56" height="56"><path fill="#CA252A" d="M0 0h56v56H0z"/><path fill-rule="evenodd" d="M17 14a3 3 0 00-3 3v22a3 3 0 003 3h22a3 3 0 003-3V17a3 3 0 00-3-3H17zm22 15l-7.39-11.97c-.49-.68-.94-1-1.68-1.03a2.12 2.12 0 00-1.84 1.03L16.34 36.55c-.39.7-.77 2.16.8 2.45h20.28c.66-.08 1.71-.76.56-2.78L31.26 25H28l5.63 9.7c.26.42.4 1.33-1.02 1.3H21.66c-.55.07-1.49-.22-.83-1.3l8.2-13.51v-.02c.23-.32.42-.57.77-.57.28 0 .52.21.75.59L35.53 29H39z" fill="#fff"/></svg>