<!-- by TradingView --><svg xmlns="http://www.w3.org/2000/svg" width="56" height="56" viewBox="0 0 56 56"><path fill="#FFCA08" d="M0 0h56v56H0z"/><path d="M24.66 11.76c.14-.08.28-.14.42-.2a6.83 6.83 0 0 1 5.85.2c.87.46 1.6 1.09 2.16 1.82.32.38.6.79.83 1.23v.01l9.34 18.48a6.65 6.65 0 0 1-2.9 8.96 6.7 6.7 0 0 1-9-2.88L30.5 38H25l-.59 1.36a6.52 6.52 0 0 1-8.86 2.9 6.71 6.71 0 0 1-2.84-8.94l8.61-17.58a6.65 6.65 0 0 1 3.34-3.98z" fill="#fff"/><path d="M22.1 22.18a.79.79 0 0 0-1.4.02L14.5 34.2a4.68 4.68 0 0 0 2.05 6.33 4.78 4.78 0 0 0 6.4-2.04l3.4-6.54c.36-.7.35-1.54-.04-2.23l-4.22-7.53z" fill="#060709"/><path d="M31.91 15.55a4.73 4.73 0 0 0-6.35-2.03 4.68 4.68 0 0 0-2.04 6.32l5.8 11.25-2.08 4.26c-.13.28.05.62.34.62h4.26l1.27 2.48a4.73 4.73 0 0 0 6.36 2.03 4.68 4.68 0 0 0 2.04-6.32l-9.6-18.6z" fill="#FFCA08"/></svg>