<!-- by TradingView --><svg width="56" height="56" xmlns="http://www.w3.org/2000/svg"><path fill="#F7A30F" d="M0 0h56v56H0z"/><path d="M11.626 32.517a6.513 6.513 0 010-9.21l11.681-11.682a6.513 6.513 0 019.21 0L44.2 23.307a6.513 6.513 0 010 9.21L32.518 44.2a6.513 6.513 0 01-9.21 0L11.625 32.518z" fill="#fff"/><path d="M13.1 32.1a5.798 5.798 0 010-8.2l10.8-10.8a5.798 5.798 0 018.2 0l10.8 10.8a5.798 5.798 0 010 8.2L32.1 42.9a5.798 5.798 0 01-8.2 0L13.1 32.1zm.561-7.638a5.004 5.004 0 000 7.076l10.8 10.8a5.004 5.004 0 007.077 0l10.8-10.8a5.004 5.004 0 000-7.076l-10.8-10.8a5.004 5.004 0 00-7.076 0l-10.8 10.8z" fill="#F7A30F"/><path d="M31.483 35.533c.82-.158 2.542-.397 4.686-.158-.82.158-2.542.397-4.686.158zm-7.069 0a15.963 15.963 0 00-4.686-.158c.82.158 2.542.397 4.686.158zm3.574-17.393c-1.588 1.826-3.971 4.05 0 16.52 3.971-12.47 1.589-14.694 0-16.52zm-7.838 2.71c1.867.928 5.113 3.889 6.703 13.51-6.7-7.087-7.093-11.463-6.703-13.51zm15.812.079c-1.866.928-5.112 3.89-6.703 13.511 6.7-7.087 7.093-11.463 6.703-13.511zm-20.046 4.518c2.144.397 5.798 3.43 10.246 9.213-6.2-3.845-9.636-7.12-10.246-9.213zm24.384 0c-2.145.397-5.799 3.43-10.247 9.213 6.2-3.845 9.635-7.12 10.246-9.213zm.237 4.844c-2.462-.079-6.513 2.304-10.012 4.598 3.976-.944 8.423-2.77 10.012-4.598zm-24.939 0c2.462-.079 6.513 2.304 10.011 4.598-3.975-.944-8.423-2.77-10.011-4.598zm15.646 4.845c1.51-.582 4.528-1.668 7.466-1.668-2.654 1.26-5.853 1.547-7.466 1.668zm-6.433 0c-1.509-.582-4.527-1.668-7.466-1.668 2.655 1.26 5.853 1.547 7.466 1.668z" fill="#F7A30F"/></svg>