<!-- by TradingView --><svg width="56" height="56" viewBox="0 0 56 56" xmlns="http://www.w3.org/2000/svg"><path fill="#F0F3FA" d="M0 0h56v56H0z"/><path d="M11 31H9.5L9 30H6l-.5 1H4l3.5-7 3.5 7Zm-4.25-2.5h1.5L7.5 27l-.75 1.5ZM31 31h-1.5l-.5-1h-3l-.5 1H24l3.5-7 3.5 7Zm-4.25-2.5h1.5L27.5 27l-.75 1.5ZM21 24c.67 0 2 .5 2 2.5 0 .67-.3 2-1.5 2L23 31h-1.5l-1-2h-1v2H18v-7h3Zm-1.5 3.5h1c.33 0 1-.2 1-1s-.67-1-1-1h-1v2ZM14 24c1 0 3 .7 3 3.5S15 31 14 31h-3v-7h3Zm-1.5 5.5H14c.5 0 1.5-.4 1.5-2 0-.67-.3-2-1.5-2h-1.5v4Z" fill="#1D1D1B"/><path fill-rule="evenodd" d="M48.5 29.5a2 2 0 1 0 0-4 2 2 0 0 0 0 4Zm0 1.5a3.5 3.5 0 1 0 0-7 3.5 3.5 0 0 0 0 7Z" fill="#1D1D1B"/><path d="M41 24h-1.5l2.25 4.5V31h1.5v-2.5L45.5 24H44l-1.5 3-1.5-3ZM39.5 29v-2h-3v1.5H38v.73c-.3.17-1.14.27-1.5.27a2 2 0 1 1 1.41-3.41l1.06-1.06A3.49 3.49 0 0 0 33 27.5a3.5 3.5 0 0 0 6.48 1.83l.02-.33Z" fill="#1D1D1B"/></svg>