<!-- by TradingView --><svg width="56" height="56" xmlns="http://www.w3.org/2000/svg"><path fill="#F0F3FA" d="M0 0h56v56H0z"/><circle cx="31.499" cy="33.499" r="3.499" fill="#0053A0"/><circle cx="36.497" cy="33.499" r="3.499" fill="#0053A0"/><path d="M18.417 31.485c.793.018.978.953.971 1.418h-.97c0-.353-.378-.457-.567-.465-.182-.008-.66-.019-1.113 0-.453.019-.711.395-.738.581v.907c0 .465.522.581.738.581.216.016.74.038 1.113 0 .372-.037.533-.403.566-.58h.971c.013 1.04-.574 1.472-.87 1.557-.492.023-1.667.056-2.428 0-.76-.056-1.05-.767-1.09-1.116a19.718 19.718 0 010-1.744c.032-.949.746-1.155 1.09-1.14a67.51 67.51 0 012.327 0zm1.583.516h1v3.46h-1zm.006-1.212h1.025v.685h-1.025zm1.727.685v4.04h.893v-3.02l1.383 3.02h.819l1.354-3.02v3.02h.938v-4.04h-1.518l-1.176 2.54-1.19-2.54h-1.503z" fill="#000"/><path d="M32.499 31.418c.794.033 1.004.888 1.01 1.312h-1.01c0-.295-.24-.355-.36-.348h-1.438c-.108 0-.325.112-.311.39.014.28.214.32.311.327h2.123c.257 0 .77.242.77 1.21s-.456 1.25-.685 1.271c-.644.014-2.108.033-2.807 0-.698-.032-.839-.943-.822-1.394h1.01c.028.377.286.458.411.451h1.524c.12 0 .274-.098.274-.328s-.149-.39-.274-.39c-.463.014-1.534.033-2.123 0-.589-.032-.822-.332-.822-.615v-.759c.014-.754.554-1.066.822-1.127a40.75 40.75 0 012.397 0z" fill="#fff"/><path d="M35.895 31.4h1.344l1.894 4.198h-1.207l-.38-.734h-1.979l-.36.734-1.223-.007 1.911-4.191zm.656.944l-.677 1.693h1.42l-.743-1.693z" fill="#fff"/><path d="M26.945 28.411l.85-.54.396.54-.885.577-.36-.577zm-10.604 7.377h1.347v.534h-1.347z" fill="#000"/><path d="M28.486 23c.73.024 1.123 1.135 1.142 1.68h-1c0-.24-.282-.66-1-.68-.573-.016-1 .409-1 .68v1.49c0 .51.39.83 1 .83.488 0 1-.368 1-1h1v.623c0 1.075-.855 1.367-1.178 1.372-.217.01-1.7 0-1.7 0-.84-.024-1.108-.93-1.122-1.372V24.68c.023-1.252.767-1.646 1.122-1.68h1.736zm3.045 5v-5h1.441l1.059 3.41L35.055 23h1.476v5h-1v-3l-1 3h-1l-1-3v3h-1z" fill="#000"/><path fill-rule="evenodd" d="M5.5 23L4 28h1.002l.338-1h1.398L7 28h1l-1.5-5h-1zm.5 1l-.503 2h1.007L6 24z" fill="#000"/><path d="M8 28v-5h3v.974H9.042v1.104H11v.935H9.042V28H8zm4.5-2.006L11 23h1.005L13 25l1-2h1l-1.5 2.994V28h-1v-2.006z" fill="#000"/><path fill-rule="evenodd" d="M16.5 23a1.5 1.5 0 00-1.5 1.5v2a1.5 1.5 0 001.5 1.5h1a1.5 1.5 0 001.5-1.5v-2a1.5 1.5 0 00-1.5-1.5h-1zm.5 1a1 1 0 00-1 1v1a1 1 0 102 0v-1a1 1 0 00-1-1zm32.5-1a1.5 1.5 0 00-1.5 1.5v2a1.5 1.5 0 001.5 1.5h1a1.5 1.5 0 001.5-1.5v-2a1.5 1.5 0 00-1.5-1.5h-1zm.5 1a1 1 0 00-1 1v1a1 1 0 102 0v-1a1 1 0 00-1-1z" fill="#000"/><path d="M20 28.004V23h1.382L23 26.652V23h1v5.004h-1.46L21 24.592v3.412h-1zm20.47.003v-5.003h1.381l1.618 3.651v-3.651h1v5.003h-1.46l-1.54-3.411v3.411h-1zM30 23h1v5h-1zm0-1h1v.635h-1zm7 6v-5h3v1.003h-2V25h2v1h-2v1h2v1h-3zm11-5h-3v1h1v4h1v-4h1v-1z" fill="#000"/></svg>