<!-- by TradingView --><svg xmlns="http://www.w3.org/2000/svg" width="56" height="56"><path fill="#174496" d="M0 0h56v56H0z"/><path d="M32.1 29.5a5 5 0 1110 .01 5 5 0 01-10-.02z" fill="#fff"/><path d="M41.9 29.5a5 5 0 1110 .01 5 5 0 01-10-.02z" fill="#fff"/><path d="M47.95 30h-1.87l.93-1.93.94 1.93zm.47 1l.53 1h1.45l-2.6-5h-1.5l-2.7 5h1.46l.55-1h2.8z" fill="#174496"/><path d="M16.49 27.16c.1.02.51.13.51.4V32h1v-5h-1.51v.16zM6 30l.89-1.96.8 1.97h-1.7zm-.35-3v.16c.16.03.52.13.37.44L4 32h1.07l.63-1.37h2.25L8.5 32h1.4l-2-5H5.65zm20.86 3l.91-1.96.8 1.97h-1.7zm-.34-3v.16c.16.03.52.13.38.44L24.53 32h1.06l.64-1.37h2.24l.55 1.37h1.41l-2.01-5h-2.25zm-3.37 5l2.14-5h-1l-1.58 3.67L20.85 27h-1.9v.16a.71.71 0 01.58.41L21.35 32h1.45zm-9.53 0l2.15-5H14.4l-1.58 3.67-1.5-3.67h-1.9v.16c.13 0 .25.05.35.12.1.08.19.17.24.29l1.8 4.43h1.45z" fill="#fff"/><path d="M34 28a1 1 0 011-1h4a1 1 0 011 1v.2h-1a.2.2 0 00-.2-.2h-3.3a.5.5 0 000 1H39a1 1 0 011 1v1a1 1 0 01-1 1h-4a1 1 0 01-1-1v-.7h1v.2c0 .28.22.5.5.5h3a.5.5 0 000-1H35a1 1 0 01-1-1v-1z" fill="#174496"/></svg>