<!-- by TradingView --><svg width="56" height="56" viewBox="0 0 56 56" xmlns="http://www.w3.org/2000/svg"><path fill="#162E09" d="M0 0h56v56H0z"/><path d="M27 33a5 5 0 1 1 0-10 5 5 0 0 1 0 10Zm-.22-4.33c-.1.02-.19-.03-.28-.14-.25-.33-.34-.7-.28-1.13a18.83 18.83 0 0 1 .71-2.98l.03-.02a.09.09 0 0 1 .07 0c.05.04.1.1.12.2.21.77.4 1.5.54 2.18.14.65.24 1.57-.48 1.95a.21.21 0 0 0-.1.12.49.49 0 0 0-.02.19l.02.04.03.03a.1.1 0 0 0 .08.01 8 8 0 0 1 2.15-.13l.02-.02v-.03l-.02-.02c-.57-.38-.18-1.42 0-1.94l.02-.03h.07l.02.03c.15.4.27.82.33 1.26.04.24-.06.46-.3.67l-.02.02v.03l.02.02h.03l1.38.12c.04 0 .07 0 .1-.02a.12.12 0 0 0 .05-.08 4.18 4.18 0 1 0-8.14-.09l.01.01h1.62c.02 0 .04 0 .06-.02a.1.1 0 0 0 .04-.04v-.06a.1.1 0 0 0-.04-.05c-.3-.18-.44-.45-.38-.82.07-.53.21-1.11.42-1.76.02-.05.06-.06.11-.04.03 0 .05.03.07.07.19.56.33 1.11.42 1.66.06.4-.08.72-.41.94a.09.09 0 0 0-.04.04v.05l.03.04a.1.1 0 0 0 .04.02l1.55.3a.46.46 0 0 0 .34-.08.37.37 0 0 0 .11-.12c.03-.05.04-.1.04-.16v-.13l-.01-.04a.1.1 0 0 0-.03-.04.13.13 0 0 0-.1-.02Zm.11-1.37v-.93c0-.02 0-.04.02-.05a.08.08 0 0 1 .05-.02h.06a.1.1 0 0 1 .04.01.1.1 0 0 1 .03.02l.02.04v.04c-.03.15.02.25.14.31.03.01.04.03.05.05v.06a1.63 1.63 0 0 0-.2.88c0 .02 0 .03.02.04l.03.02h.14a.1.1 0 0 1 .04.01l.03.03v.08l-.3.46a.1.1 0 0 0-.02.08c0 .02.03.05.05.06a.13.13 0 0 0 .16-.01c.35-.35.38-.87.28-1.32a30.99 30.99 0 0 0-.5-2.18h-.05l-.01.02c-.22.8-.38 1.53-.5 2.17-.09.49-.05 1.01.34 1.37l.02.01h.03l.03-.02v-.59a.3.3 0 0 0-.06-.19l-.25-.3-.01-.03v-.03l.02-.02h.23c.03 0 .04-.01.05-.03a.05.05 0 0 0 .02-.04Zm-2.37.37c.12-.07.17-.2.13-.41a.05.05 0 0 1 .02-.05h.14l.03.03.01.03-.05.5v.08l.05.06.07.06.05.08-.01.1a7.94 7.94 0 0 0-.16.36l.03.01h.03l.02-.01c.12-.11.18-.19.18-.24a3.64 3.64 0 0 0-.29-1.56.07.07 0 0 0-.08 0 .06.06 0 0 0-.02.04l-.21.88v.02l.01.02h.05Zm4.98.04-.01-.24c0-.01 0-.03-.02-.04l-.03-.01h-.04a.05.05 0 0 0-.02.04c-.03.08-.04.17-.03.26v.02h.02l.02.01h.01l.1-.03v-.01Zm-5.08.11-.01.11a1.03 1.03 0 0 0 .04.36l.05.15a.2.2 0 0 0 .07.08c.02.02.05 0 .07-.04.02-.04.03-.1.03-.18a1.22 1.22 0 0 0-.1-.46c-.03-.05-.06-.08-.09-.08-.02 0-.04.02-.06.06Zm5.08.13-.14-.01h-.04a.05.05 0 0 0-.02.03V28l.03.03.23.12h.07l.02-.04v-.03a.44.44 0 0 0-.04-.07.13.13 0 0 0-.05-.04.16.16 0 0 0-.06-.02Zm-.09.62-.07-.29a.07.07 0 0 0-.03-.04.08.08 0 0 0-.05-.01c-.02 0-.03 0-.05.02a.06.06 0 0 0-.01.04c0 .12.05.22.16.3l.02.01h.02l.01-.02v-.01Zm-6.41.62.03.04h.04c.85-.04 1.64.05 2.37.28.04 0 .1.01.14 0l.35-.07c.02 0 .03-.02.05-.03a.07.07 0 0 0 0-.1 8 8 0 0 0-2.99-.21.04.04 0 0 0 0 .04v.05Zm6.96.01c-.36.01-.7-.02-1-.08a9.03 9.03 0 0 0-5.16 1.49.1.1 0 0 0 0 .1l.01.04.4.34c.02.02.05.03.08.03s.06 0 .08-.02a8.95 8.95 0 0 1 4.5-1.86l.88.06c.1.01.17 0 .23-.03l.01-.02v-.04h-.03Zm-.5.13a8.5 8.5 0 0 0-5.06 1.93.07.07 0 0 0 0 .08l.04.02.61.31.05.01c.01 0 .03 0 .04-.02a9.4 9.4 0 0 1 2.79-1.82 6.96 6.96 0 0 1 1.59-.41v-.06l-.01-.02-.02-.01h-.03Zm-6.38.15.02.03.04.02c.58 0 1.1.07 1.58.24a.4.4 0 0 0 .3 0l.14-.07.03-.03a.06.06 0 0 0 0-.08 6.1 6.1 0 0 0-2.06-.22.09.09 0 0 0-.03.03l-.02.02v.06Zm7.16.03a1.3 1.3 0 0 0-.48 0 8.17 8.17 0 0 0-4.54 2.3v.02l.02.01.83.23h.03c.01 0 .02 0 .02-.02a7.3 7.3 0 0 1 4.14-2.48l.01-.02v-.03h-.03Zm-5.72.35a3.9 3.9 0 0 0-1.3-.2.06.06 0 0 0-.03.05l.01.04.05.03 1.1.3h.08c.03 0 .05-.02.07-.04l.05-.05a.08.08 0 0 0 .03-.03v-.04a.08.08 0 0 0-.02-.04.1.1 0 0 0-.04-.02Zm5.78-.1c-.23 0-.47.06-.73.14a7.21 7.21 0 0 0-3.31 2.25l1.03.04h.04l.03-.03a7.74 7.74 0 0 1 2.15-1.95c.18-.1.56-.26.8-.4l.02-.01v-.02l-.01-.02h-.02Zm.23.2c.05 0 .08 0 .1-.03v-.04l-.02-.01h-.02c-.05 0-.08.01-.09.02l-.01.02v.03l.02.01h.02Zm-6.43.22-.69-.27h-.01a.03.03 0 0 0-.02 0v.01l-.01.01a.12.12 0 0 0-.01.08c0 .03.02.05.04.08s.05.06.09.08c.03.03.07.05.11.06l.1.04c.09.03.18.05.26.04.08-.01.13-.05.16-.1v-.02l-.02-.01Zm3.63 1.96.8-.24a.5.5 0 0 0 .28-.21 4.92 4.92 0 0 1 1.58-1.64l-.01-.05-.02-.02-.02-.02a.07.07 0 0 0-.06 0 7.42 7.42 0 0 0-2.66 2.12l.02.04.04.02h.05Zm1.3-.5c.02.01.05 0 .1-.02l.2-.13a4.7 4.7 0 0 0 .57-.5 7.24 7.24 0 0 0 .64-.73c.02-.04.03-.08.01-.09l-.1.02a4.66 4.66 0 0 0-.77.62 7.3 7.3 0 0 0-.63.74c-.03.05-.03.08-.02.09Z" fill="#AE9F19"/><path d="M16 32v-8h1.57c1.4 0 2.43.54 2.43 2 0 .74-.32 1.48-1.1 1.74L20 32h-1.05l-1.02-4H17v4h-1Zm1-5h.5c.9 0 1.5-.1 1.5-1 0-.86-.54-1-1.43-1H17v2ZM13.02 32C11.49 32 11 30.63 11 29.33v-2.62c0-1.4.37-2.71 2-2.71 1.41 0 2 .92 2 2.23V27h-1v-.72c0-.77-.08-1.28-.98-1.28-.97 0-1.02.8-1.02 1.54v2.9c0 .75.05 1.56 1 1.56.86 0 1-.75 1-1.66V29h-.5v-.98H15c0 3.48-.5 3.98-1.98 3.98ZM5 32l1.9-8h1.2l1.9 8H8.82l-.4-2H6.6l-.43 2H5Zm1.9-3H8l-.5-3.42L6.9 29ZM47 32v-8h1v3.5h2V24h1v8h-1v-3.5h-2V32h-1ZM44 32c-1.55 0-2-1.23-2-2.6v-2.78c0-1.4.4-2.62 2-2.62 1.38 0 2 .98 2 2.26V27h-1v-.68c0-.7-.12-1.32-1-1.32-.94 0-1 .71-1 1.46v3.1c0 .75.1 1.44 1 1.44s.99-.72.99-1.42V29H46v.58c0 1.3-.54 2.42-2 2.42ZM38 32v-8h2.98v1H39v2.5h2v1h-2V31h2v1h-3ZM34.5 32v-7H33v-1h4v1h-1.5v7h-1Z" fill="#F0F3FA"/></svg>