<!-- by TradingView --><svg xmlns="http://www.w3.org/2000/svg" width="56" height="56"><path fill="#00498C" d="M0 0h56v56H0z"/><path d="M5.14 28.87c-.22.72-.84.97-1.14 1V30h2v-.14c-.48-.11-.5-.37-.46-.48l1.75-5.03c.6 1.54 1.83 4.7 1.91 5.03.09.33-.03.55-.1.62H11v-.14c-.65-.05-1.05-.68-1.18-.99L7.4 23l-2.25 5.87zm13 0c-.22.72-.84.97-1.14 1V30h2v-.14c-.48-.11-.5-.37-.46-.48l1.75-5.03c.6 1.54 1.83 4.7 1.92 5.03.08.33-.04.55-.1.62H24v-.14c-.65-.05-1.05-.68-1.18-.99L20.4 23l-2.25 5.87zm-4.51.1c-.01.62-.43.81-.64.83v.2h2.22v-.2c-.58 0-.72-.55-.72-.82v-5.42h1.67c.4 0 .73.44.84.66V23h-5.63c-.22.22-.34.9-.37 1.22.17-.36.5-.59.65-.66h1.98v5.42zM27.33 23H25v.28c.6 0 .74.33.74.5v5.56c0 .27-.37.38-.56.4V30h2.15v-.18c-.57-.03-.7-.33-.7-.47V26.5l3.02 2.97c.5.43.9.53 1.04.52H32v-.26a1.73 1.73 0 01-1.2-.4l-3.47-3.2 2.48-2.37c.29-.35.97-.54 1.28-.6V23h-1.92v.18c.26.05.19.27.12.38l-2.65 2.57v-2.48c-.02-.36.46-.4.7-.37V23zm8.03 0H33v.26c.66 0 .8.31.78.47v3.75c0 .76.79 2.52 2.93 2.52a2.68 2.68 0 002.66-2.33c0-1.16-.02-3.57 0-3.94.02-.37.43-.47.63-.47V23h-2v.26c.57 0 .72.31.72.47v3.94a2 2 0 01-2 1.8c-1.51.03-1.99-1.19-2.03-1.8 0-1.16-.02-3.57 0-3.94.01-.36.46-.47.68-.47V23zm8.77 0h-2.5v.33c.67 0 .83.32.82.48v5.35c0 .46-.61.56-.82.55V30h4.38l.36-1.38h-.25c-.02.35-.34 1.04-1.42.98-1.09-.05-1.36-.5-1.36-.72V23.8c.04-.4.54-.49.79-.48V23zm7.69 0H48v.2c.57.04.74.31.76.44 0 1.67-.02 5.1 0 5.48 0 .38-.42.53-.63.57V30h3.6l.27-1.35h-.18c-.01.4-.16.85-1.2.88-.82.02-1.06-.4-1.07-.61v-2.38h1.31c.4.04.5.4.51.58h.15l.14-1.38-.4.3h-1.71V23.5h1.4c.45 0 .57.54.57.81h.14l.16-1.31zM4 31.5a.5.5 0 01.5-.5H21v1H4.5a.5.5 0 01-.5-.5zm48 0a.5.5 0 00-.5-.5H35v1h16.5a.5.5 0 00.5-.5zm-45 3a.5.5 0 01.5-.5H20v1H7.5a.5.5 0 01-.5-.5zm42 0a.5.5 0 00-.5-.5H36v1h12.5a.5.5 0 00.5-.5zm-24.43-3.3h.2v1.15h-.2c0-.49-.61-1.15-1.26-1.08-.66.08-1.44.45-1.44 1.76 0 1.2.77 1.7 1.44 1.68.53-.01.83-.16.92-.23v-.93h-.46v-.32h1.43v.31h-.43v1.1a2.6 2.6 0 01-1.46.36c-1.67 0-2.11-1.31-2.05-1.97 0-1.64 1.4-2.01 2.05-2.03.52-.01 1.06.25 1.26.39v-.19zm3.05-.2H26v.28h.42l1.2 1.92v1.45h-.4V35h1.46v-.35h-.44V33.2L30 31h-1.32v.28h.5l-1.17 1.63-.95-1.63h.56V31z" fill="#fff"/><path fill-rule="evenodd" d="M32.72 35a2 2 0 100-4 2 2 0 100 4zm0-.21c.77 0 1.4-.8 1.4-1.78s-.63-1.78-1.4-1.78c-.77 0-1.4.8-1.4 1.78s.63 1.77 1.4 1.77z" fill="#fff"/></svg>