<!-- by TradingView --><svg width="56" height="56" viewBox="0 0 56 56" xmlns="http://www.w3.org/2000/svg"><path fill="url(#a)" d="M0 0h56v56H0z"/><path d="M33.83 41.6c-.21-1.59-.85-3.02-1.7-4.36a32.1 32.1 0 0 0-3.21-4.04c-1.24-1.38-2.61-2.63-3.9-3.97a21.6 21.6 0 0 1-3.21-4.21 12.42 12.42 0 0 1-1.58-4.25 10.43 10.43 0 0 1 1.5-7.5 16 16 0 0 0 12.23 29.58l-.13-1.24Z" fill="#fff"/><path d="M40.64 36.82a6.88 6.88 0 0 0-1.1-2.83c-.61-.94-1.34-1.79-2.08-2.62-.8-.9-1.7-1.7-2.53-2.57a14 14 0 0 1-2.08-2.73 8.04 8.04 0 0 1-1.02-2.76 6.76 6.76 0 0 1 1.37-5.4c.07.06.05.11.03.17a4.1 4.1 0 0 0-.06 2.46 6 6 0 0 0 .96 1.83c.5.71 1.1 1.34 1.68 1.98.7.75 1.45 1.45 2.17 2.17.7.71 1.46 1.38 2.1 2.16.65.8 1.17 1.69 1.54 2.67.46 1.25.44 2.53.25 3.82-.06.46-.17.9-.31 1.33A16 16 0 0 0 22.3 13.06a6.3 6.3 0 0 0 0 3.43c.29 1.05.86 1.95 1.48 2.83.77 1.1 1.7 2.07 2.6 3.05 1.07 1.16 2.23 2.23 3.34 3.35 1.1 1.1 2.26 2.12 3.24 3.32a14.46 14.46 0 0 1 2.37 4.12c.72 1.94.69 3.91.4 5.9a12.3 12.3 0 0 1-1.06 3.48c2.4-1.1 4.48-2.77 6.06-4.85l-.1-.87Z" fill="#fff"/><defs><linearGradient id="a" x1="10.42" y1="9.71" x2="68.15" y2="76.02" gradientUnits="userSpaceOnUse"><stop stop-color="#1A1E21"/><stop offset="1" stop-color="#06060A"/></linearGradient></defs></svg>