<!-- by TradingView --><svg width="56" height="56" viewBox="0 0 56 56" xmlns="http://www.w3.org/2000/svg"><path fill="#F0F3FA" d="M0 0h56v56H0z"/><path d="M27.6 15c.07.04.16.18.2.23a301.08 301.08 0 0 0 2 2.81l.15.23.07.08A647.03 647.03 0 0 0 31.9 21a.1.1 0 0 1-.01.04.55.55 0 0 1-.12.17l-.34.37-.63.68a279.7 279.7 0 0 1-2.44 2.72c-.1.1-.2.2-.28.32a.2.2 0 0 1-.08.06.08.08 0 0 1-.1-.02l-.01-.03a79.66 79.66 0 0 0-1.38-1.61c-.09-.1-.2-.2-.28-.32-.1-.13-.2-.24-.29-.33l-.12-.15-1.2-1.39c-.21-.23-.37-.4-.48-.54-.11-.14-.26-.27-.35-.4v-.02c-.01-.04 0-.08.02-.12l.24-.38a110.73 110.73 0 0 0 2.26-3.22A241.64 241.64 0 0 1 27.6 15ZM37.05 26.68a.05.05 0 0 1-.02.06l-1.7 1.52-1 .88-.92.75c-.2.17-.37.3-.56.44-.06.05-.13.05-.19-.01a371.48 371.48 0 0 1-2.06-1.82c-.45-.39-.83-.75-1.27-1.14l-.45-.45a.08.08 0 0 1-.01-.1 51.48 51.48 0 0 0 3.56-3.98l.28-.37a2.35 2.35 0 0 0 .2-.28.08.08 0 0 1 .07-.01H33l.12.13.63.77c.41.47.83.98 1.12 1.3l.53.61.47.52a17.02 17.02 0 0 0 1.17 1.18ZM27.05 26.87v.03a2.1 2.1 0 0 1-.24.2 771.53 771.53 0 0 1-3.75 3.26c-.04.03-.09.04-.13 0a2.8 2.8 0 0 1-.39-.3l-.3-.27-1.02-.9-.77-.7a53.4 53.4 0 0 1-1.69-1.53l.13-.1.03-.03.18-.24 1.7-1.9.52-.6.26-.31c.1-.14.24-.26.36-.4l.62-.74a.61.61 0 0 1 .2-.17h.03c.04 0 .07.02.1.05l.13.21.73.8.17.19c.07.1.17.18.24.27l.36.39.76.84a275.34 275.34 0 0 0 1.77 1.95ZM13.53 31.23a.02.02 0 0 1 0-.04c.1-.08.2-.13.3-.22l.41-.31 1.62-1.23c.08-.07.2-.18.3-.25l.13-.1a15.84 15.84 0 0 0 1.64-1.56c.05-.06.08-.14.14-.19a.06.06 0 0 1 .06 0 44.88 44.88 0 0 0 2.6 2.28l1.19 1.02c.1.1.24.18.31.27a.08.08 0 0 1 0 .1c-.1.11-.28.25-.41.35a53.84 53.84 0 0 1-1.32.96l-1.1.72c-.47.3-.96.6-1.46.86-.06.03-.1.04-.17 0l-.63-.4-.21-.12a50.57 50.57 0 0 0-.98-.62l-.26-.16a105.73 105.73 0 0 0-2.16-1.36ZM42.18 31.23a.01.01 0 0 1 0 .02l-.85.58a241.03 241.03 0 0 1-3.18 2.08l-.03-.01c-.12-.08-.25-.14-.4-.22-.12-.09-.22-.15-.3-.19l-1.15-.73a66.67 66.67 0 0 1-1.35-.86c-.1-.05-.16-.1-.27-.17a22.07 22.07 0 0 1-.98-.66.5.5 0 0 1-.12-.11v-.03c.28-.26.62-.5.93-.73a22.65 22.65 0 0 0 2.32-2.03c.25-.24.46-.48.66-.72.1-.13.18-.2.31-.05l.11.12c.19.2.6.58 1.25 1.16l1.29 1.15a23.15 23.15 0 0 0 1.76 1.4Z" fill="#509D4F"/><path d="M23.76 30.89v-.03c.23-.14.46-.3.69-.5a48.75 48.75 0 0 0 3.04-2.73c.1-.1.16-.13.27-.02l.64.6c.94.82 1.98 1.74 2.95 2.53a7.35 7.35 0 0 1 .53.46 26.25 26.25 0 0 1-.8.58c-.88.6-1.88 1.26-2.99 1.98-.06.04-.12.04-.18 0-.14-.13-.33-.21-.52-.33l-.62-.42a184.5 184.5 0 0 1-2.8-1.95 1.73 1.73 0 0 1-.2-.17Z" fill="#1D396D"/><path d="M37.23 34.4a.54.54 0 0 1-.15.1c-.32.15-.68.32-.98.44-1.34.58-2.04.87-3.1 1.29-.05.02-.1.01-.15-.02-.1-.07-.2-.13-.34-.17a.36.36 0 0 1-.06-.02l-.28-.15a41 41 0 0 1-1.05-.5c-.23-.1-.5-.22-.7-.33-.14-.08-.28-.12-.43-.19a2875.64 2875.64 0 0 1-1.32-.63c.34-.18.77-.46 1.44-.87.63-.39 1.26-.81 1.88-1.28.2-.15.51-.37.67-.47.14-.1.21-.12.35-.02.56.39 1.14.78 1.74 1.17l1.39.91c.11.08.32.2.5.31.15.1.28.2.45.29a1.56 1.56 0 0 1 .15.13.02.02 0 0 1 0 .02ZM27.03 34.22a.65.65 0 0 1-.15.1l-.47.24a12.97 12.97 0 0 0-.94.44c-.62.29-1.08.5-1.63.73l-.56.23c-.15.07-.33.12-.45.18-.1.04-.2.04-.3 0l-.33-.12a57.64 57.64 0 0 1-1.6-.73l-1.48-.72c-.14-.07-.28-.13-.4-.23l-.02-.01a.03.03 0 0 1 0-.03h.01l.41-.22.8-.48c.44-.27.82-.55 1.26-.84l.5-.36c.58-.43.9-.67 1.2-.86.06-.04.13-.04.2.02.96.73 1.72 1.21 2.92 2 .27.17.6.34.89.53a1.61 1.61 0 0 1 .15.12Z" fill="#509D4F"/><path d="M48 34.84a.01.01 0 0 1 0 .02 1101.76 1101.76 0 0 1-3.95 1.69c-.05.01-.09 0-.14-.01-1.2-.44-2.08-.79-2.65-1.03a25.37 25.37 0 0 1-2.33-1.14.01.01 0 0 1 0-.02l.3-.2c.36-.2.68-.38 1.06-.62l.63-.4a19.2 19.2 0 0 0 1.94-1.4h.02a66.66 66.66 0 0 0 1.47 1.02c.98.65 2.04 1.3 3.04 1.8.16.08.31.15.47.21l.14.08ZM16.78 34.31v.02a28.63 28.63 0 0 1-3.12 1.47c-.58.24-1.26.49-1.74.66a.46.46 0 0 1-.35-.01l-.64-.28-2.48-1.07-.43-.21a.03.03 0 0 1-.02-.03.03.03 0 0 1 .01-.03.54.54 0 0 1 .12-.06c.21-.08.37-.14.47-.2l.58-.32a35.01 35.01 0 0 0 3.7-2.52.04.04 0 0 1 .05 0 25.11 25.11 0 0 0 2.96 2.07c.27.17.63.34.85.48l.04.03ZM31.91 36.74v.01c-.18.03-.34.05-.52.06-.37 0-.62.02-.74.03l-1.26.11c-.69.05-1.36.06-2.02.03a24.81 24.81 0 0 1-2.96-.32v-.01h.01a.46.46 0 0 1 .1-.03c.43-.1.93-.2 1.31-.3a12.3 12.3 0 0 0 1.94-.71c.09-.04.14-.09.22-.1a28.02 28.02 0 0 0 3.6 1.15c.1.03.23.03.32.08Z" fill="#1D396D"/><path d="M20.93 36.58h-.03a12.26 12.26 0 0 1-1.85.26 18.67 18.67 0 0 1-2.54.13c-.6 0-1.13-.05-1.73-.12a3.9 3.9 0 0 1-.6-.12c.05-.03.1-.04.14-.05.84-.13 1.35-.23 1.52-.27l.75-.2c.24-.07.58-.2 1-.36.16-.06.32-.15.46-.22a.1.1 0 0 1 .08 0l.36.16c.15.08.28.12.44.19l.18.06a16.4 16.4 0 0 0 1.82.53ZM35.35 36.6a.01.01 0 0 1-.01 0v-.02h.01c.35-.12.72-.14 1.06-.24a45.5 45.5 0 0 0 1.86-.58c.18-.07.27-.09.43-.02l.84.29a33.75 33.75 0 0 0 1.59.44 4.75 4.75 0 0 1 .87.28c-.06 0-.16 0-.31.03l-.32.03-1.4.11c-.74.07-1.44.08-2.08.04-.7-.04-1.42-.1-2.11-.24-.16-.03-.29-.08-.43-.12Z" fill="#509D4F"/></svg>