<!-- by TradingView --><svg xmlns="http://www.w3.org/2000/svg" width="56" height="56"><path fill="#F0F3FA" d="M0 0h56v56H0z"/><path d="M37 28c0-2.2 1.71-4 3.85-4 1.7 0 3.13 1.14 3.65 2.74A3.84 3.84 0 0148.15 24 3.93 3.93 0 0152 28c0 2.2-1.71 4-3.85 4a3.87 3.87 0 01-3.65-2.74A3.84 3.84 0 0140.85 32 3.92 3.92 0 0137 28z" fill="#001689"/><path d="M43 28.75c0-.42-.07-.7-.2-.88-.15-.22-.35-.29-.83-.32-.25-.02-.44-.02-.51-.02h-.9l-.4-.01c-.15-.04-.21-.15-.21-.32 0-.22.08-.3.32-.33.15-.02.58-.04.88-.04.66 0 .75.15.75.5h.96c0-.68-.1-1.05-.43-1.2-.24-.11-.5-.13-1.43-.13-.62 0-.9.02-1.2.07-.6.1-.8.41-.8 1.2 0 .61.13.93.47 1.06.16.07.45.1.9.1h.9c.4 0 .42 0 .49.02.2.02.3.13.3.33 0 .35-.13.39-1.28.39-.24 0-.51-.02-.6-.05-.15-.05-.18-.15-.2-.45H39v.26c0 .57.18.85.54.97.23.08.57.1 1.28.1.7 0 .96-.02 1.36-.07.59-.06.82-.38.82-1.18zM50.43 30l-1.66-4h-1.23l-1.7 4h1.05l.28-.66h1.97l.3.66h1z" fill="#fff"/><path d="M48.81 28.37h-1.3l.65-1.51.65 1.5z" fill="#001689"/><path d="M4 30l2.24-4h1.58L10 30H8.68l-.4-.71H5.74l-.38.71H4zm3.02-3.11l-.85 1.58h1.7l-.85-1.58zM24 30l2.24-4h1.58L30 30h-1.32l-.4-.71h-2.53l-.38.71H24zm3.02-3.11l-.84 1.58h1.68l-.84-1.58zM11.56 30v-4h1.23v1.5h.58l1.68-1.5h1.68l-2.27 1.99 2.5 2.01h-1.75l-1.84-1.54h-.58V30h-1.23zm10.17-4c1.12 0 1.3.97 1.24 1.42h-1.12c0-.32-.33-.45-.5-.47H19.8a.6.6 0 00-.6.47c0 .06-.04.55 0 1.07.03.53.56.54.6.54h1.55c.42-.02.51-.36.5-.54h1.12c.21 1.24-.74 1.52-1.24 1.5h-2.26c-1.22.02-1.48-.88-1.47-1.33a51.41 51.41 0 010-1.44c.01-.96.93-1.22 1.47-1.22h2.26zM31 26v4h1.14v-2.97L34.51 30h1.91v-4h-1.1v3.01L32.9 26H31zm-11.25 4.63h1.5v.75h-1.5z"/></svg>