<!-- by TradingView --><svg width="56" height="56" xmlns="http://www.w3.org/2000/svg"><path fill="#0B488B" d="M0 0h56v56H0z"/><circle cx="28" cy="28" r="16" fill="#fff"/><path fill-rule="evenodd" d="M18 19a3 3 0 00-3 3 1 1 0 001 1h7a1 1 0 110 2h-6.602a3 3 0 00-2.976 3.372l.421 3.372A6 6 0 0019.797 37H26a2 2 0 002-2V21a2 2 0 00-2-2h-8zm1 9a1 1 0 00-1 1v2a3 3 0 106 0v-2a1 1 0 00-1-1h-4zm19 9a3 3 0 003-3 1 1 0 00-1-1h-7a1 1 0 110-2h6.602a3 3 0 002.976-3.372l-.421-3.372A6 6 0 0036.203 19H30a2 2 0 00-2 2v14a2 2 0 002 2h8zm-1-9a1 1 0 001-1v-2a3 3 0 10-6 0v2a1 1 0 001 1h4z" fill="#0B488B"/></svg>