<!-- by TradingView --><svg width="56" height="56" viewBox="0 0 56 56" xmlns="http://www.w3.org/2000/svg"><path fill="#F0F3FA" d="M0 0h56v56H0z"/><path d="M52 34H17V21h35v13Zm-28-8a3 3 0 1 0 2 5.23V32h1v-3a3 3 0 0 0-3-3Zm4-3v9h1v-2.33L30.75 32H32l-2.25-3L32 26h-1.25L29 28.33V23h-1Zm8 0c-.67 0-2 .4-2 2v1h-1v1h1v5h1v-5h1v-1h-1v-1c0-.33.2-1 1-1v-1Zm4 3a3 3 0 1 0 2.83 4h-1.1a2 2 0 0 1-3.67-.5h4.4c.29 0 .54-.21.54-.5a3 3 0 0 0-3-3Zm6.5 0a2.5 2.5 0 0 0-2.5 2.5V32h1v-3.5c0-.76.6-1.5 1.5-1.5s1.5.74 1.5 1.5V32h1v-3.5c0-1.24-1-2.5-2.5-2.5ZM24 27a2 2 0 1 1 0 4 2 2 0 0 1 0-4Zm16 0a2 2 0 0 1 1.94 1.5h-3.88A2 2 0 0 1 40 27Z" fill="#040707"/><path d="M17 34H4V21h13v13Zm-1.5-5.5c-.33 1.33-1.7 4-4.5 4v.5c1.5 0 4.5-.9 4.5-4.5ZM5 28c0 1.5.9 4.5 4.5 4.5-1.33-.33-4-1.7-4-4.5H5Zm9.5.5c-.17 1-1.1 3-3.5 3v.5c1.17 0 3.5-.7 3.5-3.5ZM6 28c0 1.17.7 3.5 3.5 3.5-1-.17-3-1.1-3-3.5H6Zm7.5.5c-.4 1.2-1.83 1.83-2.5 2v.5c1.6 0 2.33-1.67 2.5-2.5ZM7 28c0 1.6 1.67 2.33 2.5 2.5-1.2-.4-1.83-1.83-2-2.5H7Zm3.5-2a1.5 1.5 0 1 0 1 2.62V29h.5v-1.5c0-.83-.67-1.5-1.5-1.5Zm0 .5a1 1 0 1 1 0 2 1 1 0 0 1 0-2Zm1-1.5c1.2.4 1.83 1.83 2 2.5h.5c0-1.6-1.67-2.33-2.5-2.5Zm0-1c1 .17 3 1.1 3 3.5h.5c0-1.17-.7-3.5-3.5-3.5Zm0-1c1.33.33 4 1.7 4 4.5h.5c0-1.5-.9-4.5-4.5-4.5Zm-1-1C9 22 6 22.9 6 26.5c.33-1.33 1.7-4 4.5-4V22Zm0 1c-1.17 0-3.5.7-3.5 3.5.17-1 1.1-3 3.5-3V23Zm0 1c-1.6 0-2.33 1.67-2.5 2.5.4-1.2 1.83-1.83 2.5-2V24Z" fill="#CD171F"/></svg>