<!-- by TradingView --><svg width="56" height="56" viewBox="0 0 56 56" xmlns="http://www.w3.org/2000/svg"><path fill="#C80B0F" d="M0 0h56v56H0z"/><path d="M16.13 19.3a13.98 13.98 0 0 1 8.96-5.58 32 32 0 0 1 2.8-.31c.03 0 .06-.02.08-.04a.12.12 0 0 0 .03-.08v-2.22c0-.05-.03-.07-.08-.07-5.45.17-9.61 2.34-12.48 6.49-1.8 2.6-2.6 5.39-2.41 8.38.04.6.1.61.2.01.41-2.31 1.37-4.5 2.9-6.58Zm.1 6.67a12.12 12.12 0 0 1 11.67-9.6c.07 0 .1-.03.1-.1v-1.95c0-.07-.03-.1-.1-.1-4.4.05-7.72 1.7-9.97 4.97a10.5 10.5 0 0 0-1.9 6.76c.02.46.09.47.2.02Zm2.23-.13c.46-5.2 4.12-8.69 9.44-8.52.07 0 .1.04.1.1v1.22c0 .06-.03.09-.09.1-4.77.3-7.87 2.74-9.28 7.29-.05.17-.11.17-.17 0v-.2Zm23.87-.66a13.5 13.5 0 0 0-5.46-8.7 15.45 15.45 0 0 0-6.48-2.8c-.59-.1-.59-.18.01-.21 2.95-.17 5.7.61 8.25 2.36 4.08 2.79 6.2 6.82 6.35 12.1 0 .04-.02.07-.07.07h-2.19a.12.12 0 0 1-.12-.11 30.6 30.6 0 0 0-.3-2.7ZM30.3 16.57c-.45-.1-.44-.17.01-.2 2.41-.14 4.62.48 6.64 1.86 3.2 2.19 4.82 5.41 4.86 9.67 0 .07-.03.1-.1.1h-1.91c-.07 0-.1-.03-.1-.1-.2-5.74-3.96-10.06-9.4-11.33Zm.01 2.16c5.15.43 8.62 3.98 8.48 9.17 0 .07-.04.1-.11.1h-1.2c-.06 0-.1-.03-.1-.08-.32-4.66-2.74-7.67-7.26-9.03-.17-.05-.17-.1 0-.16h.2ZM30 31.52l.01.04c0 .08.03.2.07.28.05.11.13.16.25.16h1.49c.05 0 .1-.01.12-.04.04-.04.07-.08.07-.13v-4.7c-.13-4.02-5.46-5.55-7.94-2.54a4.3 4.3 0 0 0-.97 3.73c.65 3.26 3.94 4.47 6.76 3.16a.11.11 0 0 1 .1 0 .1.1 0 0 1 .04.04Zm-.6-5.91a2.63 2.63 0 1 1-3.72 3.72 2.63 2.63 0 0 1 3.72-3.72Zm-15.72 5.2a13.55 13.55 0 0 0 5.46 8.71 15.4 15.4 0 0 0 6.47 2.8c.59.11.58.18-.02.21-2.93.18-5.68-.6-8.23-2.35-4.07-2.79-6.19-6.82-6.35-12.1 0-.06.02-.08.07-.08h2.18a.12.12 0 0 1 .12.11c.11 1.35.21 2.26.3 2.7Zm11.95 8.83c.45-.03.46-.1.01-.2-5.43-1.28-9.17-5.6-9.36-11.34 0-.06-.03-.1-.1-.1h-1.9c-.07 0-.1.03-.1.1.03 4.25 1.64 7.48 4.83 9.67 2.01 1.38 4.22 2 6.62 1.87Zm.09-2.34c-5.16-.42-8.66-3.98-8.53-9.2 0-.07.04-.1.1-.1h1.22c.05 0 .08.03.09.08.34 4.68 2.78 7.7 7.3 9.05.18.05.18.1 0 .17h-.18Zm2.4 1.5c5.37.14 9.05-3.36 9.5-8.56v-.18c-.07-.18-.13-.18-.18 0-1.4 4.55-4.52 7-9.35 7.33-.05 0-.08.03-.08.09v1.21c0 .07.04.11.1.12Zm11.87-8.47c-.03-.46-.1-.46-.2-.02a12.05 12.05 0 0 1-11.68 9.4c-.06 0-.1.03-.1.1v1.91c0 .07.03.1.1.1 4.38-.03 7.7-1.65 9.95-4.85a10.2 10.2 0 0 0 1.93-6.64Zm-9.08 12a14 14 0 0 0 8.97-5.47c1.52-2.04 2.49-4.2 2.9-6.48.1-.59.17-.58.2.02.19 2.94-.62 5.7-2.42 8.24-2.88 4.08-7.04 6.2-12.48 6.36-.05 0-.07-.02-.07-.07v-2.19c0-.03.01-.05.03-.08a.12.12 0 0 1 .08-.03c1.4-.12 2.33-.22 2.8-.3Z" fill="#FFFEFE"/></svg>