<!-- by TradingView --><svg xmlns="http://www.w3.org/2000/svg" width="56" height="56"><path fill="#EC1C24" d="M0 0h56v56H0z"/><path d="M21 29.23v.36c0 .21.12.4.33.41h3.2c.2 0 .47-.2.47-.4v-.2c0-.21-.27-.4-.48-.4h-3.18A1.33 1.33 0 0120 27.6v-.2c0-.78.54-1.4 1.34-1.4h3.2c.72 0 1.47.64 1.46 1.4v.35h-1v-.35c0-.2-.26-.4-.47-.4h-3.19c-.2 0-.34.2-.34.4v.2c0 .2.13.4.34.4l3.2-.01c.72.02 1.46.65 1.46 1.4v.2c0 .77-.74 1.4-1.47 1.41h-3.19A1.33 1.33 0 0120 29.6v-.37h1zm22.5-1.73v-.7h1v.7H47v1h-2.5v1.1c0 .38.23.4.43.4h.66c.3 0 .41-.06.41-.37V29h1v.56c0 .22-.02.43-.05.64-.13.6-.5.79-1.16.8h-1.2c-.55-.02-1.09-.4-1.09-1.26V28.5h-.78v-1h.78zm-2.41 1H40c-.31 0-.5.18-.51.42V31h-1v-3.57h1v.29a.65.65 0 01.5-.22h1c.78 0 1.48.52 1.5 1.57v.5h-1v-.65a.41.41 0 00-.41-.42zM34.4 30h2.18a.4.4 0 00.4-.39v-.73c0-.2-.2-.38-.4-.38H34.4c-.21 0-.4.18-.4.38v.73c0 .2.19.4.4.39zm-1.4-.39v-.73c0-.74.67-1.38 1.4-1.38h2.2c.72 0 1.4.63 1.4 1.38v.73c0 .75-.67 1.4-1.4 1.39h-2.2c-.73 0-1.4-.64-1.4-1.39zm-.5 1.9c0 .78-.62 1.49-1.42 1.49h-1.66c-.38 0-.74-.16-1-.44a1.52 1.52 0 01-.42-1.05v-.19l1 .01v.18c0 .23.17.49.42.49h1.66c.24 0 .42-.24.42-.49v-.57c-.14.05-.25.06-.4.06h-1.73c-.76 0-1.37-.56-1.37-1.3v-.73c0-.75.6-1.47 1.37-1.47h1.43c.25 0 .58.1.7.21v-.17h1v3.97zm-3.13-3.01c-.22 0-.37.24-.37.47v.6c0 .23.16.43.37.43h1.74c.21 0 .39-.2.39-.42v-.61c0-.23-.19-.47-.4-.47h-1.73zM26.5 26h1v1h-1v-1zm0 1.5h1V31h-1v-3.5zm24.2 1.34c.12 0 .18.02.3.07v-.27c0-.14-.1-.24-.35-.24h-1.56c-.1 0-.42 0-.42.17v.08l-.85.02v-.03c0-.7.2-1.1 1.04-1.14h1.79c.73 0 1.35.4 1.35 1.14V31h-1v-.09a.86.86 0 01-.4.09h-1.97a1 1 0 01-1.02-.98v-.2a1 1 0 011.02-.98h2.07zm-2.24 1V30a.17.17 0 00.17.17h2.2A.17.17 0 0051 30v-.16a.17.17 0 00-.18-.17h-2.19a.17.17 0 00-.12.05.17.17 0 00-.05.12zM12.74 26h1.67v2h.79l2.62-2h1.98l-3.17 2.44 3.3 2.56h-2.17l-2.6-2h-.75v2h-1.67v-5zM6.9 29h2.21L8 27.16 6.9 29zm0-3h2.14L12 31h-1.83l-.6-1H6.42l-.57 1H4l2.9-5z" fill="#fff"/></svg>