<!-- by TradingView --><svg width="56" height="56" viewBox="0 0 56 56" xmlns="http://www.w3.org/2000/svg"><path fill="#F0F3FA" d="M0 0h56v56H0z"/><path d="M28 23.76V10.09c.13-.16.2-.1.35.18l.23.45A10533.64 10533.64 0 0 0 47 40.9a.11.11 0 0 1-.12.1.11.11 0 0 1-.07-.03c-5.49-4.64-13.34-6.54-20.4-6.14-.16 0-.28-.02-.36-.07a.12.12 0 0 1-.05-.12.12.12 0 0 1 .09-.1l7.06-1.93a.1.1 0 0 0 .06-.06.1.1 0 0 0 0-.08L28 23.76Z" fill="#0F6280"/><path d="m28 23.76-6.75 11.43a.54.54 0 0 1-.36.25A26.83 26.83 0 0 0 9.07 40.9a.06.06 0 0 1-.07-.06c0-.02 0-.04.02-.05L28 10.1v13.67Z" fill="#9CC738"/></svg>