<!-- by TradingView --><svg width="56" height="56" xmlns="http://www.w3.org/2000/svg"><path fill="#F0F3FA" d="M0 0h56v56H0z"/><path d="M39.7 31.817l-4.7-7.44v11.771c.008 1.137-.684 2.421-2.247 2.426-1.311.01-2.27-.986-2.281-2.509 0-.312.165-.762.258-1.042l3.956-11.175L32.898 21l-6.713 11.057a7.63 7.63 0 00-1.184 4.215c.02 4.107 3.592 7.752 8.023 7.728 4.431-.024 7.999-3.724 7.976-7.812a7.82 7.82 0 00-1.303-4.371" fill="#E31837"/><path d="M16.311 24.187L21 31.58V19.856c-.01-1.138.733-2.388 2.293-2.396 1.31-.007 2.222.954 2.232 2.478 0 .31-.162.761-.26 1.041l-3.951 11.175L23.102 35l6.71-11.058a7.802 7.802 0 001.191-4.244c-.027-4.097-3.606-7.714-8.027-7.698-4.42.016-7.992 3.735-7.972 7.812a7.778 7.778 0 001.307 4.375z" fill="#F78E1E"/></svg>