<!-- by TradingView --><svg xmlns="http://www.w3.org/2000/svg" width="56" height="56"><path fill="#1674B7" d="M0 0h56v56H0z"/><path d="M11 21H4v2c1.68-1.1 3.24-1.01 3.5-1h.02c1.4 0 2.48 1.1 2.48 2.5S8.93 27 7.52 27a2.5 2.5 0 01-2.42-1.74s-.2-.85.11-1.52 1.12-1.18 1.12-1.18A3.5 3.5 0 004.5 23.9c-.28.45-.43.9-.51 1.38V28h7v-7zm-3.5 2.25a1.25 1.25 0 100 2.5 1.25 1.25 0 000-2.5zm10.48 3.27h-3.14l-.34.84-.66-.01 2.04-5.79 1.14.01L19 27.4h-.74l-.28-.87zM17.43 21h-2L13 28h1.98l.3-.86h2.26l.3.86h1.92l-2.33-7z" fill="#fff"/><path d="M16.4 23.71l.55 1.5h-1.04l.5-1.5zm.14-1.48h-.18l-1.3 3.6h2.73l-1.25-3.6zm8.16 5.16h-3.76v-5.8h.65v5.1h3.12v.7zM22.19 26v-5h-1.82v7h4.94v-2h-3.12zm8.33.52h-3.14l-.34.84-.66-.01 2.04-5.79 1.14.01 1.98 5.82h-.73l-.3-.87zM29.97 21h-2l-2.43 7h1.98l.3-.86h2.26l.3.86h1.92l-2.33-7z" fill="#fff"/><path d="M28.95 23.71l.54 1.5h-1.04l.5-1.5zm.13-1.48h-.18l-1.3 3.6h2.73l-1.25-3.6zm6.46 2.66h-1.43v2.5h-.63v-5.8h2.89c.87 0 1.57.74 1.57 1.66 0 .91-.7 1.66-1.57 1.66h-.07l1.34 2.48h-.7l-1.4-2.5zm1.65.43l-.01-.02v.02a2.23 2.23 0 001.38-2.09c0-1.23-.95-2.23-2.13-2.23h-3.62v7h1.88v-2.52h.46l1.4 2.52h2.04l-1.4-2.68z" fill="#fff"/><path d="M36.41 23.6h-1.72v-.71h1.72c.19 0 .34.16.34.36 0 .2-.15.34-.34.34zm.03-1.3h-2.31v1.88h2.31c.5 0 .9-.4.9-.93s-.4-.95-.9-.95zm7.82 5.08h-.78l-2.03-2.62h-.88v2.62h-.65V21.6h.66v2.46h.9l2-2.46h.77L42 24.4l2.26 2.98zM45.51 21h-2.34l-2 2.5V21h-1.83v7h1.82v-2.58L43.12 28h2.3l-2.65-3.56L45.5 21z" fill="#fff"/><path d="M48.5 27.37a2.87 2.87 0 110-5.74 2.87 2.87 0 010 5.74zm0-6.37a3.5 3.5 0 100 7 3.5 3.5 0 000-7z" fill="#fff"/><path d="M48.5 26.16a1.67 1.67 0 110-3.33 1.67 1.67 0 010 3.33zm0-3.9a2.24 2.24 0 10-.01 4.48 2.24 2.24 0 00.01-4.47zM28 30c8.26 0 15 2.7 15 6s-6.74 6-15 6-15-2.7-15-6 6.74-6 15-6zm0 .58c-8.05 0-14.61 2.43-14.61 5.42 0 2.99 6.56 5.42 14.61 5.42S42.61 39 42.61 36c0-2.99-6.56-5.42-14.61-5.42z" fill="#fff"/><path d="M23.3 34.77c-.82.07-1.76 1.7-1.6 2.25.38 1.19 1.75-1 1.8-2.02.01-.12-.05-.24-.2-.23zm.55-.32c.22-.05.63-.09.51.32-.04.15-.9 2.49-.75 2.53.08.03.2.07.34-.17.59-.78.35.55-.79.87-.2.03-.4-.13-.33-.64 0-.12-.03-.1-.05-.1-.3.4-.62.72-1.15.72-1.37-.02-.44-3.45 1.54-3.5.13 0 .4.08.52.25.07-.16.02-.25.16-.28zm-4-1.03c-1.91.44-2.67 3.93-1.06 4.15.2.03.93-.1 1.41-.54.22-.28.4-.1.1.2-1.4 1.23-3.34.95-3.3-1.06.04-1.96 1.97-3.27 3.75-3.16.52.03 1.03.3.99.73-.08.52-.86.6-.95.04-.03-.23.24-.14.09-.3-.24-.17-.65-.16-1.04-.06zm17 4.3c-.12.25-.74.17-.68 0 .69-2.12.82-2.4.8-2.58-.05-.2-.22-.03-.4.18-.16.17-.27.32-.34.32-.04 0-.07-.03-.07-.08 0-.09.12-.25.28-.48.25-.34.51-.56.85-.56.22 0 .31.16.3.36-.01.26 0 .44-.1.75.23-.41.68-1.14 1.11-1.14.3 0 .42.28.4.53-.04.55-.71.51-.73.05 0-.03-.02-.06-.06-.06-.15 0-.77.95-1.36 2.72zm-8.06 0c-.12.25-.74.17-.68 0 .69-2.12.82-2.4.79-2.58-.04-.2-.21-.03-.4.18-.15.17-.26.32-.33.32-.04 0-.07-.03-.07-.08 0-.09.12-.25.28-.48.25-.34.51-.56.85-.56.22 0 .3.16.3.36-.01.26 0 .44-.1.75.23-.41.68-1.14 1.1-1.14.3 0 .43.28.4.53-.03.55-.7.51-.72.05 0-.03-.02-.06-.07-.06-.14 0-.76.95-1.35 2.72zm-3.06 0c-.12.25-.74.17-.68 0 .69-2.12.82-2.4.8-2.58-.05-.2-.22-.03-.4.18-.16.17-.27.32-.34.32-.04 0-.07-.03-.07-.08 0-.09.12-.25.28-.48.25-.34.51-.56.85-.56.22 0 .31.16.3.36-.01.26 0 .44-.1.75.23-.41.68-1.14 1.11-1.14.3 0 .42.28.4.53-.04.55-.71.51-.73.05 0-.03-.02-.06-.06-.06-.15 0-.77.95-1.36 2.72zm5-.27c.02-.61.94-2.67.95-2.87h.68c-.24.71-.73 2.02-.87 2.71-.05.26.3.12.4-.01.2-.3.25-.36.34-.36.03 0 .1.03.1.09-.03.28-.38.87-1.2.9-.23.02-.4-.18-.4-.46zm1.58-4.22c.23 0 .34.12.32.39-.02.25-.22.52-.45.52s-.36-.12-.34-.4c.03-.27.23-.5.47-.5zm.43 3.5c.05-1.12.85-2.25 2.28-2.27.43 0 .89.32.83.78-.12.88-1.46 1.23-2.21 1.25-.13.46-.02 1.03.5 1.04.57 0 .67-.2 1.04-.52.07-.07.31-.04.2.1-.1.14-.58.85-1.6.84-.67 0-1.06-.65-1.04-1.23zm2-.81c.38-.33.65-1.23.03-1.22-.42 0-1 .94-1.09 1.5.25 0 .81-.07 1.05-.28z" fill="#fff"/></svg>