<!-- by TradingView --><svg xmlns="http://www.w3.org/2000/svg" width="56" height="56"><path fill="#6B489D" d="M0 0h56v56H0z"/><path d="M14.49 35.3c.49.4 1.23.29 1.6-.21 2.27-3.1 6.78-8.31 10.98-10.13l.53-2.01-6.89 3.53c3.18-5.04 11.2-14.76 10.6-10.58-.24 1.64-1.1 4.13-2.08 7-1.5 4.37-3.3 9.62-3.73 14.15-1.11 11.5 9.32 6.88 15-.59l-1.15-1.84c-3.2 3.46-7.46 6.18-8.8 5.45-2.06-1.12-.08-8.51 1.74-15.32 1.13-4.23 2.2-7.73 2.2-9.86 0-2.01-1.9-3.09-3.71-2.86-6.84.85-16.43 16.46-18.78 20.93 0 0 1.78 1.76 2.49 2.33z" fill="#fff"/><path d="M40.93 32.74l1 1.6c1.64-2.78 2.5-5.77 1.86-8.37-.76-3.08-3.19-5.76-8.77-5.29l-.53 1.26c6.36-2.41 10.37 3.54 7.84 8.56-.37.74-.85 1.5-1.4 2.24z" fill="#fff"/></svg>