<!-- by TradingView --><svg xmlns="http://www.w3.org/2000/svg" width="56" height="56"><path fill="#F0F3FA" d="M0 0h56v56H0z"/><path d="M23.73 16H46l-8.25 25H15.47l8.26-25z"/><path d="M23.33 15H45.6l-8.25 25H15.07l8.26-25z" fill="#E2091E"/><path d="M8.65 24.65c.83-3.39 7.8-6.23 15.7-6 7.29.21 13.75 2.98 12.95 6-.85 3.15-6.42 6-14.32 6-7.92 0-15.11-2.75-14.33-6z" fill="#F0F3FA"/><path d="M12.49 26.98l-.84.59s-2.28-1.9 0-5.11h3.05s2.73 2.73.1 5.24l-.61-.6s.49-.62.4-1.44h-2.65s.02.71.5 1.27l.05.05zm-.53-2.29h2.61s-.05-.84-.57-1.2h-1.57s-.55.75-.47 1.11v.1zm5.24-2.2l.71.86s-.85 1.7.22 2.9l2.37-1.22.53.91-3.23 1.72s-2.59-1.99-.66-5.06l.06-.1zm5.25-.41s-2.8 3.26.77 5.6l.71-.65s-1.04-.66-1.08-1.77c0 0 1.34-1.05 3.27 1.81l.82-.46s0-.72-1.13-1.95v-.16s1.1-1 .99-1.36l-.84-.63s-1.43 2.18-3.1 1.66c0 0-.32-.14.41-1.3l-.82-.79zm5.32.56h.88s1.06 2.25.16 4.84h-.9s-.98-1.99-.18-4.72l.04-.13zm-.17-1.14c0-.36.3-.65.68-.65.37 0 .68.3.68.66a.67.67 0 01-.68.66.67.67 0 01-.67-.66zm3.02.78s1.13.7 1.63 1.5c0 0 .75-1.12 1.86-1.38 0 0 2.57 2.56-.07 5.28l-.73-.63s1.24-1.46.5-2.93c0 0-1.23.45-1.07 2.14h-.77s.17-1.53-.87-2.07c0 0-1.02 1.4.78 2.93l-.75.65s-2.92-2.13-.6-5.35l.1-.14z" fill="#E2091E"/><path d="M8.07 24.5c.91-4.23 8.67-7.77 17.46-7.48 8.1.26 15.3 3.72 14.4 7.49C38.99 28.44 32.8 32 24 32S7.2 28.56 8.07 24.5zm.58.08c-.78 3.2 6.38 5.93 14.24 5.93 7.87 0 13.4-2.82 14.24-5.93.8-2.98-5.62-5.72-12.87-5.93-7.86-.23-14.8 2.58-15.61 5.93z"/><path d="M21.32 35.52c-.02-.04-.06-.1-.04-.14.03-.1.53-.4.64-.47l.43-.28c.4-.25.63-.39 1.05-.39.11 0 .35 0 .4-.15.05-.1-.06-.09-.15-.09h-1.62c-.1 0-.17 0-.2.1-.06.13.12.13.23.14.07 0 .18.01.15.1-.04.1-.28.25-.37.32l-1 .7-.4.25-.16.1-.06.03c-.05 0 0-.1.01-.13l.3-.77c.15-.4.17-.53.65-.6.08-.01.2-.02.23-.12.04-.1-.03-.12-.12-.12h-2c-.09 0-.16.02-.2.12-.04.1.1.11.17.12.4.07.3.23.16.6l-.82 2.17c-.15.4-.17.5-.64.56-.08.02-.2.05-.23.15-.04.09.02.11.12.11h2c.08 0 .16-.02.2-.11.04-.11-.08-.13-.16-.14-.4-.07-.32-.21-.18-.57l.31-.83c0-.03.05-.18.12-.18.04 0 .1.14.11.16l.55 1.07c.04.05.1.16.08.25-.06.14-.35.02-.42.21-.04.1.03.14.13.14h1.87c.1 0 .28-.01.33-.14.03-.1-.03-.11-.12-.12-.08 0-.17-.02-.22-.07-.07-.06-.16-.24-.2-.32l-.93-1.66zm4 1.33a.83.83 0 01-.18.27.95.95 0 01-.57.23c-.22 0-.3-.16-.22-.35.08-.21.3-.35.53-.45.08-.04.5-.24.57-.24.09 0-.02.24-.02.25l-.11.3zm1.42-1.2c.08-.19.14-.37-.03-.5a1.58 1.58 0 00-.8-.16c-.43 0-.92.09-1.37.32-.2.1-.6.36-.67.55-.04.1.05.14.15.14a2 2 0 00.6-.13c.21-.07.28-.15.4-.3.16-.18.4-.37.63-.37.35 0 .14.42.07.62l-.08.2-.1.06a3.28 3.28 0 01-.74.27c-.25.06-.67.2-.9.32-.29.15-.48.33-.58.58-.14.35.07.59.47.59.66 0 1.26-.48 1.34-.48.06 0 .06.12.06.14.03.2.13.28.39.28.28 0 .57-.12.84-.27.09-.05.23-.14.26-.23.02-.04 0-.08-.05-.08s-.14.05-.2.07a.28.28 0 01-.18.06c-.19 0-.05-.28-.01-.37l.5-1.3zm1.42 3.7c-.46 0-.98-.15-.79-.7a.65.65 0 01.23-.3.47.47 0 01.14-.05c.16.09.52.16.81.16.28 0 .83-.04.69.35-.15.41-.75.54-1.08.54zm.73-2.35c-.49 0-.36-.57-.24-.93.13-.36.35-.78.8-.78.49 0 .34.6.21.95-.12.34-.31.76-.77.76zm-1.44 1c.02.02.1.1.09.14-.05.12-.8.14-.99.66-.23.68.83.79 1.34.79.43 0 .9-.07 1.35-.28.43-.2.87-.51 1.02-.94.11-.31.01-.58-.25-.71a2 2 0 00-.78-.1h-.51c-.12 0-.29 0-.39-.04-.05-.02-.14-.09-.11-.15.04-.14.34-.14.42-.14h.35c.62-.02 1.47-.39 1.7-1.07.11-.3.01-.49.01-.49 0-.02.03-.02.04-.03h.24c.17 0 .2.04.27-.13.08-.23.01-.23-.2-.2h-.4c-.15 0-.2-.03-.32-.1a2.42 2.42 0 00-1.95.12c-.36.21-.66.5-.78.85-.16.44.04.77.42.92.01 0 .08.03.07.04 0 .03-.2.1-.22.1l-.3.1c-.1.03-.35.08-.4.2-.02.08.07.17.1.21l.18.25zm2.47-3.7a1 1 0 01-.58-.18c-.12-.08-.15-.14-.23-.25-.02-.02-.05-.06-.1-.06-.06 0-.1.04-.13.1-.06.18 0 .4.08.53.15.24.44.37.78.37.35 0 .74-.14 1.08-.4.13-.1.35-.33.4-.5.03-.05.02-.1-.04-.1-.05 0-.11.04-.15.06-.16.11-.26.2-.43.27-.19.08-.5.15-.68.15zm3.4.9c.03-.06.1-.21 0-.21-.15 0-.23.07-.29.1-.28.2-.7.34-1.02.4-.08.03-.3.04-.34.15-.05.1.06.1.16.1.3.04.22.17.13.42l-.34.87c-.06.14-.14.35-.24.47-.06.08-.27.09-.37.1-.09.01-.18.05-.21.13-.04.1.07.1.16.1h1.67c.09 0 .21 0 .25-.1.03-.08-.04-.12-.1-.13-.12-.02-.33-.01-.33-.1 0-.12.1-.33.16-.47l.71-1.83zm2.1.2c.08-.25.08-.25.3-.25h.33c.18 0 .23.01.3-.17.05-.16-.06-.13-.2-.13h-.35c-.17 0-.22.01-.15-.17l.16-.44c.03-.09.11-.24-.03-.24-.12 0-.23.13-.3.21-.32.33-.74.56-1.15.7-.08.03-.24.08-.28.17-.03.1.2.07.28.07.07 0 .14.02.13.09a2 2 0 01-.08.27l-.48 1.33c-.09.24-.14.52-.06.71.07.18.3.27.52.27.3 0 .68-.12.99-.32.07-.05.25-.18.28-.27.02-.05 0-.08-.05-.08-.1 0-.32.18-.54.18-.35 0-.1-.63-.01-.86l.38-1.07z" fill="#F0F3FA"/></svg>