<!-- by TradingView --><svg width="56" height="56" viewBox="0 0 56 56" xmlns="http://www.w3.org/2000/svg"><path fill="#F0F3FA" d="M0 0h56v56H0z"/><path fill-rule="evenodd" d="M27.8 38.99a153219.36 153219.36 0 0 0 19.34-5.57 5.8 5.8 0 0 0 1.75-9.94 4.15 4.15 0 0 0-1.43-.87l-19.67-5.6a.25.25 0 0 0-.14 0l-18.5 5.43c-.67.19-1.19.4-1.54.65a5.69 5.69 0 0 0-2.59 5.29c.18 1.91 1.01 3.39 2.5 4.42.3.21.7.4 1.19.54l18.94 5.65h.15ZM44.79 22.6l-6.46-1.84-10.46-2.97a.44.44 0 0 0-.25 0L10.8 22.74c-.59.17-1.03.36-1.33.56a5.44 5.44 0 0 0-2.54 4.86 5.48 5.48 0 0 0 2.45 4.43c.27.18.65.35 1.13.5 4.88 1.44 10.6 3.15 17.18 5.12h.12l16.63-4.78a8.74 8.74 0 0 0 2-.78 5.28 5.28 0 0 0 2.6-5.04 5.39 5.39 0 0 0-2.52-4.32 5.97 5.97 0 0 0-1.73-.68Z" fill="#D1BE6B"/><path d="m44.05 33.21-16.23 4.66a.22.22 0 0 1-.13 0L10.65 32.8c-.43-.13-.79-.29-1.07-.48a5.16 5.16 0 0 1-2.24-3.98c-.18-1.99.75-3.65 2.32-4.75.32-.23.78-.42 1.4-.59l16.62-4.88a.22.22 0 0 1 .13 0l17.69 5.04a5.21 5.21 0 0 1-.29 9.72l-1.16.34Z" fill="#EC1C24"/><path d="M42.85 31.22c.17-.06.16-.09-.01-.1-.73 0-1.37-.29-1.66-1.02-.08-.2-.12-.55-.14-1.09-.04-1.1-.08-2.33.03-3.5.06-.66.51-1.17 1.1-1.37 1-.34 2.45-.12 2.75 1.17.06.3.09.89.07 1.78 0 .04-.03.06-.07.06h-1.56c-.01 0-.03 0-.03-.02l-.02-.03-.02-1.6c0-.16-.1-.26-.28-.29H43c-.17 0-.26.1-.26.32v4.12c0 .2.1.3.28.3l.07-.03a.3.3 0 0 0 .2-.28V28.3c0-.04.03-.07.08-.07h1.56c.04 0 .06.02.06.07.02.6.05 1.61-.33 2.1-.27.34-.6.56-1 .67-.04 0-.06.03-.06.08v.84a.1.1 0 0 1-.02.06.1.1 0 0 1-.05.03l-1.53.53c-.04.02-.06 0-.06-.04v-.98c0-.04.02-.06.05-.08l.86-.3ZM17 29.48c0 .04.02.07.07.07h.86c.05 0 .07.01.07.06v1.32c0 .05-.02.07-.07.07h-2.6c-.05 0-.08-.03-.08-.09v-6.85c0-.04.02-.06.06-.06h1.63c.04 0 .06.02.06.07v5.4ZM19.64 24h1.83c.05 0 .07.02.07.07v1.3c0 .05-.02.07-.06.07h-.9c-.04 0-.06.03-.06.07v5.46l-.01.01-.01.01h-.02a51.25 51.25 0 0 1-1.73-.02V25.5c0-.04-.02-.07-.07-.07h-.89c-.04 0-.06-.02-.06-.06v-1.31c0-.05.02-.07.07-.07h1.84ZM23.7 24h-1.66a.04.04 0 0 0-.04.04v6.92c0 .02.02.04.04.04h1.66c.02 0 .04-.02.04-.04v-6.92a.04.04 0 0 0-.04-.04ZM26.48 26.74c.05.17.07.16.07-.01v-2.66c0-.05.02-.07.07-.07h1.33c.04 0 .05.02.05.07v6.86c0 .05-.01.07-.06.07h-1.37c-.05 0-.07-.02-.09-.07l-.74-2.68c-.06-.22-.1-.22-.1.02v2.66c0 .05-.02.07-.06.07h-1.32c-.04 0-.06-.02-.06-.07v-6.87c0-.04.02-.06.06-.06h1.32a.1.1 0 0 1 .06.02.1.1 0 0 1 .03.05l.8 2.67ZM30.39 28.36h-.04c-.01 0-.02.01-.02.03v2.54c0 .05-.02.07-.06.07h-1.64c-.05 0-.07-.03-.07-.07v-6.86c0-.05.02-.07.07-.07h1.64c.04 0 .06.02.06.06v2.18c0 .22.03.22.09.01l.62-2.18c0-.05.04-.07.08-.07h1.53c.04 0 .06.02.04.07l-.93 2.95a.3.3 0 0 0 0 .17l1.01 3.77a.04.04 0 0 1 0 .03h-.01l-.02.01h-1.68c-.04 0-.07-.02-.08-.07a68.8 68.8 0 0 1-.59-2.56v-.01ZM34.7 24h-1.66a.04.04 0 0 0-.04.04v6.92c0 .02.02.04.04.04h1.66c.02 0 .04-.02.04-.04v-6.92a.04.04 0 0 0-.04-.04ZM38.03 29.59v1.36l-.01.04-.03.01h-2.72l-.03-.01-.02-.04v-6.9c0-.02 0-.03.02-.04l.03-.01h1.67l.03.01.03.06v5.43c0 .01-.02.02 0 .03l.02.01H38c.01 0 .02 0 .03.02l.01.03ZM40.27 24h-1.72a.04.04 0 0 0-.03.04v6.92c0 .02.01.04.03.04h1.72c.02 0 .03-.02.03-.04v-6.92a.04.04 0 0 0-.03-.04Z" fill="#F0F3FA"/><path fill-rule="evenodd" d="M13.78 24.01a25.34 25.34 0 0 0-1.8 0c-.04 0-.06.02-.07.06l-1.22 6.86c0 .05.01.07.06.07h1.37l.05-.02a.09.09 0 0 0 .03-.05l.2-1.12c0-.05.03-.07.07-.08a5.1 5.1 0 0 1 .81 0c.04 0 .07.03.08.07l.2 1.12.03.06.05.02h1.37c.05 0 .07-.03.06-.08l-1.24-6.85c0-.04-.02-.06-.05-.06Zm-1.14 4.6a2.84 2.84 0 0 0 .47 0c.04 0 .06-.03.06-.07a17.21 17.21 0 0 0-.3-1.87c-.02 0-.12.62-.28 1.87 0 .04.01.07.05.07Z" fill="#F0F3FA"/></svg>