<!-- by TradingView --><svg width="56" height="56" viewBox="0 0 56 56" xmlns="http://www.w3.org/2000/svg"><path fill="#F0F3FA" d="M0 0h56v56H0z"/><path d="m28.54 13.12.9.64v.02h-1.12l-.01.02-.34 1.05a.02.02 0 0 1-.03 0l-.34-1.05a.02.02 0 0 0-.01-.01h-1.12v-.02l.9-.65a.02.02 0 0 0 0-.02l-.35-1.04v-.01l.01-.01h.02l.9.64h.01l.89-.65h.02v.02l-.34 1.05a.02.02 0 0 0 0 .02ZM22.8 14.02l1.07.25a.02.02 0 0 1 .01.03l-1.03.43a.02.02 0 0 0 0 .01l.09 1.1v.01h-.01l-.01.01h-.01l-.72-.84a.02.02 0 0 0-.02 0l-1.01.42h-.02a.02.02 0 0 1 0-.02l.57-.94a.02.02 0 0 0 0-.02l-.72-.84v-.02h.02l1.07.25a.02.02 0 0 0 .02 0l.57-.95h.02v.01l.1 1.1a.02.02 0 0 0 0 .01ZM33.82 13.85l1.07-.26a.02.02 0 0 1 .02 0 .02.02 0 0 1 0 .02l-.72.84a.02.02 0 0 0 0 .02l.59.94a.02.02 0 0 1-.03.02l-1.02-.42a.02.02 0 0 0-.02 0l-.7.85a.02.02 0 0 1-.02 0h-.01v-.01l.08-1.1a.02.02 0 0 0 0-.02l-1.03-.41-.01-.01v-.02h.01l1.08-.26V14l.09-1.1v-.01h.02l.58.95h.02Z" fill="#DC2126"/><path d="M40.3 28a12.35 12.35 0 1 1-24.7 0 12.35 12.35 0 0 1 24.7 0Zm-.28 0a12.07 12.07 0 1 0-24.14 0 12.07 12.07 0 0 0 24.14 0Z" fill="#DC2126"/><path d="m17.84 17.06 1.09-.18h.01a.02.02 0 0 1 0 .03l-.78.78a.02.02 0 0 0 0 .02l.51.98v.02a.02.02 0 0 1-.02 0l-.99-.5h-.02l-.77.79a.02.02 0 0 1-.02 0v-.02l.17-1.09-.01-.02-1-.49v-.02l.01-.01 1.1-.17v-.01l.17-1.1a.02.02 0 0 1 .02-.01.02.02 0 0 1 .01 0l.5 1h.02ZM38.79 17.17l1.09.17a.02.02 0 0 1 .01.01v.02l-.99.5a.02.02 0 0 0 0 .02l.17 1.09a.02.02 0 0 1 0 .01h-.02l-.78-.78h-.02l-.98.5h-.02a.02.02 0 0 1 0-.02l.5-.98v-.02l-.8-.77v-.02h.01l.01-.01 1.09.17h.01l.5-1h.02l.01.01.18 1.1ZM29.3 16.71a.15.15 0 1 0 0-.3.15.15 0 0 0 0 .3ZM27.9 17.94h.66c.02 0 .02.01.02.03v.25H27.45c-.02 0-.03 0-.03-.03 0-.1-.02-.13.04-.22a63.56 63.56 0 0 0 .65-.97h-.6a.02.02 0 0 1-.02-.02v-.24c0-.01 0-.02.02-.02h1.04c.02 0 .03.01.03.03 0 .1.02.15-.04.23l-.65.93c-.01.02 0 .03.02.03ZM29.42 16.82l-.3-.04c-.01 0-.02 0-.02.02l-.18 1.45.02.02.3.03.02-.01.17-1.45-.01-.02ZM26.45 17.95a221.22 221.22 0 0 1-.21.06l-.05.36v.01h-.02l-.32.05-.01-.01.22-1.5c0-.02.02-.03.04-.04a3.61 3.61 0 0 1 .38-.05c.02 0 .04 0 .04.02l.66 1.37-.33.06a.02.02 0 0 1-.02 0l-.15-.34-.02-.01h-.02l-.19.02Zm-.04-.25c.07 0 .11-.02.13-.02.02 0 .02-.02.02-.03l-.24-.52-.07.56c0 .02 0 .03.03.03l.13-.02ZM30.7 18.1c0 .01 0 .01 0 0l.22-.96c0-.01 0-.02.02-.02l.28.06.01.01v.02l-.35 1.41c0 .02-.02.02-.03.02l-.3-.07a.04.04 0 0 1-.03-.04l-.29-1.13h-.01l-.24 1v.01a.02.02 0 0 1-.02 0l-.27-.05a.03.03 0 0 1-.02-.02v-.01l.36-1.4c0-.02.01-.03.02-.02l.34.07c.02 0 .03.02.04.04l.27 1.08ZM24.78 18.1l-.24.08c-.02 0-.02.02-.02.04l.17.53v.02l-.01.02-.28.08-.03-.01-.44-1.39v-.02l.3-.1s.02 0 .02.02l.16.5c0 .02.02.02.04.02a7.8 7.8 0 0 0 .48-.15c.01-.01.02-.02.01-.04l-.16-.5.01-.02.3-.1.01.01.45 1.4s0 .02-.02.02l-.27.1-.02-.01-.01-.02-.18-.54c0-.01-.01-.02-.03-.02l-.24.08ZM32.05 17.8h-.02l-.1.25v.03l.47.2c.02 0 .02 0 .01.03l-.08.2c0 .02-.02.02-.03.02l-.47-.2c-.01 0-.02 0-.03.02l-.12.29.01.02.53.22c.02 0 .02.02.02.03l-.1.21c0 .02 0 .02-.02.02l-.84-.35c-.02 0-.02-.02-.01-.04l.54-1.33c.01-.01.02-.02.04-.01l.81.33c.01 0 .02.01.01.02l-.1.23-.01.01-.5-.2ZM22.5 18.02a.15.15 0 1 0 0-.3.15.15 0 0 0 0 .3ZM22.74 18l-.27.15v.02l.69 1.3h.02l.27-.15v-.02l-.69-1.3h-.02ZM33.56 19.56a13.04 13.04 0 0 1 .93-.77l.27.2V19l-1.2.94a.04.04 0 0 1-.05 0 4.62 4.62 0 0 1-.29-.19c-.01 0-.02-.02-.01-.04l.41-1.47h.01l.29.17v.02a12.95 12.95 0 0 1-.36 1.13ZM22.42 19.95l-.12.08h-.04l-.66-.97a.03.03 0 0 0-.03 0l-.3.2-.03-.01-.13-.19v-.03a15.18 15.18 0 0 1 .95-.62l.13.19v.04l-.3.2-.01.01v.02l.66.96v.04c-.02 0-.05.03-.12.08Z" fill="#DC2126"/><path d="M37.12 28a9.17 9.17 0 1 1-18.34 0 9.17 9.17 0 0 1 18.34 0Zm-.26 0a8.9 8.9 0 1 0-17.8 0 8.9 8.9 0 0 0 17.8 0ZM35.23 19.75h-.02l-.18.2v.03l.37.34c.02 0 .02.02 0 .03l-.14.17h-.04l-.38-.33h-.03l-.2.23c-.02.01-.02.02 0 .03l.42.38c.02.01.02.02 0 .04l-.15.17h-.03l-.68-.6v-.04l.96-1.08h.04l.66.59v.02l-.16.18h-.03l-.4-.36Z" fill="#DC2126"/><path d="m20.7 20.15.39-.34h.02l.16.17a.02.02 0 0 1 0 .03l-.38.35v.02l.22.24a.02.02 0 0 0 .02 0l.43-.39h.03l.16.18a.02.02 0 0 1 0 .02l-.68.62h-.02l-1-1.08v-.02l.67-.6h.02l.16.18a.02.02 0 0 1 0 .02l-.4.37v.03l.18.2a.02.02 0 0 0 .03 0ZM19.77 21.17c.02 0 .03 0 .02-.02l-.3-.58v-.02l.23-.27.33.84c.02.06.06.11.1.16l.4.31v.04l-.2.22h-.02l-.38-.31a.4.4 0 0 0-.18-.09 44.99 44.99 0 0 1-.87-.19l.23-.27.02-.01.62.19ZM37.16 22.1l-1.09.35a.03.03 0 0 1-.03-.01l-.13-.17c-.02-.02-.02-.04 0-.05l.72-.85c.02-.02.02-.03 0-.01l-.94.6-.03-.01-.15-.23v-.02l1.23-.76c.02-.02.04-.01.05 0l.23.34v.05l-.65.76s0 .01 0 0l.97-.32c.02 0 .03 0 .04.02l.23.33v.02l-1.15.9c-.01.02-.02.02-.03 0l-.17-.24a.02.02 0 0 1 0-.02l.9-.68c.01 0 .01 0 0 0ZM14.97 22.24l.84.7v.02a.02.02 0 0 1-.01.02l-1.1-.09h-.01v.01l-.42 1.03h-.01a.02.02 0 0 1-.02 0l-.26-1.08a.02.02 0 0 0-.02-.01l-1.1-.08a.02.02 0 0 1-.01-.03l.95-.58v-.02l-.26-1.07v-.01a.02.02 0 0 1 .02-.01l.84.72a.02.02 0 0 0 .02 0l.94-.58h.01a.02.02 0 0 1 .02 0v.02l-.43 1.02a.02.02 0 0 0 0 .02ZM42.1 22.15l.95.56.01.01v.02h-.01l-1.1.09a.02.02 0 0 0-.02.01l-.25 1.08a.02.02 0 0 1-.02.01h-.01l-.42-1.03a.02.02 0 0 0-.02-.01l-1.1.1h-.01a.02.02 0 0 1 0-.02v-.01l.84-.72v-.02l-.43-1.01v-.02a.02.02 0 0 1 .02 0l.95.57h.02l.83-.72h.01a.02.02 0 0 1 .02 0v.01l-.26 1.08v.02ZM31.18 24.79c.14.4-.18.67-.56.53h-.04l-.7.89v.04c.58.81.66 1.68.25 2.59v.04a58.6 58.6 0 0 0 3.32 3.43c.07.06.1.12.12.19a1.42 1.42 0 0 1-.65 1.56.07.07 0 0 1-.05-.01l-.02-.02a113.1 113.1 0 0 0-3.22-4.53l-.18.15v.02c1.05 1.42 2.07 2.86 3.06 4.32.06.1.03.15-.06.2-.3.12-.56.19-.81.19-.06 0-.11-.03-.15-.1A50.78 50.78 0 0 0 28.84 30c-.63.24-1.26.22-1.88-.04h-.03l-3.57 4.51a.02.02 0 0 1-.02.01h-.01l-.6-.47v-.04l.85-1.08v-.02l-.15-.12a.03.03 0 0 0-.03 0l-.47.6h-.03l-1.3-1.04c-.02 0-.02-.02 0-.03l.38-.49a.02.02 0 0 1 .02 0l.56.44h.02l.23-.3v-.01l-.55-.44a.03.03 0 0 1 0-.03v-.02l.38-.48c.01-.02.03-.02.04 0l.55.43h.02l.24-.3v-.03l-.55-.43c-.02-.01-.02-.03 0-.04l.37-.48c.01-.02.03-.02.04 0l.77.6c.02.02.02.03.02.05l-.08.45c0 .02 0 .02.03.01l.42-.17h.04l.1.08v.04l-.51.64v.02l.17.13h.02l1.93-2.44v-.03a2.44 2.44 0 0 1-.19-3.28v-.04a36.01 36.01 0 0 0-2.62-2.78c.73-.05 1.37-.52 1.49-1.27 0-.02 0-.02.02 0l.13.2v.05c-.08.17-.23.4-.44.7-.04.07-.04.14.01.21a466.23 466.23 0 0 1 1.95 2.44l.2-.12v-.01l-1.91-2.42a.06.06 0 0 1 0-.08 2.6 2.6 0 0 0 .53-1.13l2.1 3.37.01.02h.02c.6-.09 1.17.02 1.7.34h.02l.68-.86v-.03a.4.4 0 0 1-.05-.48c.09-.15.23-.21.44-.19.03-.13.07-.2.14-.23.05-.02.05-.03 0-.05a1.2 1.2 0 1 1 1.05-2.08h.03c.2-.3.48-.46.81-.48.97-.06 1.45 1.05.8 1.75l.01.04a1.2 1.2 0 1 1-1.67 1.68l-.12-.2c-.02 0-.03 0-.03.02-.02.1-.08.16-.17.19-.02 0-.02.01-.02.03Zm.81-1.9c.2.16.34.51.03.66a.09.09 0 0 0-.04.03c-.2.29-.22.56-.06.82.28.45.95.4 1.17-.06a.66.66 0 0 0-.1-.75c-.13-.16-.31-.1-.48-.12-.26-.02-.24-.3-.25-.5 0-.28.3-.26.5-.28.02 0 .04 0 .05-.02a.51.51 0 1 0-.8-.63v.05c.02.2.1.5-.16.56-.2.04-.47.12-.55-.13-.05-.16-.04-.34-.22-.44a.66.66 0 0 0-.76.09c-.4.31-.28.98.22 1.14.29.1.55.01.78-.25a.09.09 0 0 0 .02-.04c.07-.34.44-.3.65-.13Zm-5.72 5.99.03.04v.04l-.13.1v.03l.1.14c.02.02.03.02.04 0l.13-.11h.01l.11.08a.01.01 0 0 1 0 .01.01.01 0 0 1 0 .01l-.11.14c-.02.01-.02.03 0 .04l.12.1c.02.02.04.02.05 0l.1-.13h.02l.1.07c.02 0 .02.01.01.02l-.08.16v.03l.16.08c.02.01.03 0 .04-.01l.07-.16h.02l.13.06v.02l-.06.16c-.01.02 0 .03.02.04l.17.04c.01 0 .03 0 .03-.02l.04-.15c0-.02.02-.02.03-.02l.12.03c.01 0 .02.02.01.03l-.03.17v.01a.02.02 0 0 0 .02.02l.2.02v-.02l.02-.17c0-.02.02-.03.03-.03l.12.01c.02 0 .03.02.03.04l-.02.15c0 .02 0 .03.03.03h.17c.02 0 .03-.01.03-.03v-.19c0-.01 0-.02.02-.02h.13v.02l.04.16c0 .02.01.03.03.03l.17-.05c.02 0 .02-.02.02-.03l-.05-.17.01-.02.13-.04.02.01.06.16c0 .02.01.03.03.02l.17-.07v-.03l-.06-.17v-.02l.11-.06H29l.1.15c0 .02.02.02.04.01l.14-.1c.02 0 .02-.02.01-.03l-.11-.14v-.03l.1-.08h.03l.12.14h.01a.03.03 0 0 0 .02 0h.01l.12-.15v-.02l-.12-.1c-.02-.02-.02-.03 0-.05l.07-.09h.03l.14.1a.02.02 0 0 0 .02 0l.12-.15c.01-.01 0-.03-.01-.04l-.15-.08v-.03l.05-.11a.02.02 0 0 1 .02-.01h.01l.15.08.04-.01.08-.17c0-.02 0-.03-.02-.04l-.15-.04c-.02 0-.03-.02-.02-.04l.03-.11c0-.02.02-.02.03-.02l.18.05.02-.01.05-.2a.02.02 0 0 0-.01-.02h-.01l-.16-.02c-.02 0-.03 0-.03-.03l.01-.12c0-.01.01-.02.03-.02l.17.02h.02v-.02l.02-.18c0-.02 0-.02-.02-.02l-.18-.02h-.02V27.58c0-.02 0-.02.02-.02h.15c.03 0 .04-.02.04-.04l-.03-.18c0-.02 0-.02-.03-.02l-.17.03h-.01l-.04-.13c0-.02 0-.02.02-.03l.16-.04a.03.03 0 0 0 .02-.04l-.05-.16c0-.02-.02-.02-.04-.02l-.17.06-.01-.01-.06-.13.01-.01.15-.07c.03 0 .04-.03.02-.05l-.09-.14c-.01-.02-.03-.03-.05-.01l-.11.08-.04-.01a2.17 2.17 0 0 1-.07-.1l.01-.04.12-.08c.02 0 .02-.03 0-.04l-.1-.14c0-.02-.03-.02-.05 0l-.11.12h-.02l-.1-.1v-.02l.11-.14v-.04l-.13-.1h-.04l-.1.14h-.03l-.1-.08c-.01 0-.02-.01-.01-.02l.1-.14c0-.02 0-.03-.02-.04l-.15-.09c-.03 0-.04 0-.05.02l-.06.14c0 .02-.01.02-.03.02l-.1-.05-.02-.01v-.02l.05-.17v-.03l-.18-.05a.02.02 0 0 0-.03.02l-.05.16c0 .02-.01.02-.03.02l-.12-.04c-.01 0-.02-.01-.01-.03l.04-.16a.02.02 0 0 0 0-.02h-.01l-.2-.03-.02.01-.02.18c0 .02-.01.02-.03.02H28c-.02 0-.02-.02-.02-.04l.02-.15c0-.03-.01-.04-.03-.04l-.19.01c-.02 0-.02.02-.02.04l.02.17a.02.02 0 0 1 0 .01h-.02l-.13.02c-.02 0-.02 0-.03-.02l-.01-.16c0-.03-.02-.03-.04-.03l-.18.05h-.01a.02.02 0 0 0 0 .02l.04.17-.01.03-.11.04c-.02 0-.03 0-.04-.02l-.05-.16h-.02l-.18.05h-.01a.03.03 0 0 0 0 .04l.07.16v.03l-.12.06h-.02l-.09-.16c0-.01-.02-.02-.04 0l-.14.1c-.02 0-.02.01-.01.03l.1.15v.02l-.1.07h-.02l-.13-.13h-.03l-.13.13v.04l.14.1v.04l-.09.1h-.02l-.14-.1c-.01-.02-.02-.01-.03 0l-.1.14c-.02.02-.02.03 0 .04l.14.1c.01 0 .01 0 0 0l-.04.13h-.02l-.18-.07c-.01 0-.03 0-.03.02l-.07.16c0 .02 0 .03.02.03l.14.05c.02 0 .03.02.03.04l-.04.1c0 .03-.01.03-.03.03l-.17-.05h-.02l-.05.2a.02.02 0 0 0 .01.02l.18.03.02.02-.02.13c0 .01 0 .02-.02.02l-.16-.02c-.02 0-.03 0-.03.02l-.02.18c0 .02 0 .03.02.03h.18l.01.01.01.14-.01.02h-.17c-.02 0-.03.02-.03.04l.02.17c0 .01.01.02.03.02l.18-.02.01.01.04.13-.01.01-.17.05c-.02 0-.03.02-.02.04l.05.15c0 .03.02.03.04.02l.17-.05h.01l.05.14-.17.09v.03l.08.16h.03l.15-.08.03.01.03.05Z" fill="#DC2126"/><path d="M23.66 21.96c-.08.06-.1.17-.02.24a1038.52 1038.52 0 0 1 .64.63c-.28.23-.69.43-1.06.34-.38-.09-.24-.57-.1-.8.32-.56.93-.92 1.57-1.04.07-.02.16 0 .27.03.35.1.3.47.18.73h-.01a9.4 9.4 0 0 1-.23-.37.62.62 0 0 0-.15-.2c-.29-.19-.84.25-1.09.44ZM18.37 21.78a.15.15 0 1 0 0-.3.15.15 0 0 0 0 .3ZM19.9 22.44l-1.22-.8h-.03l-.17.25v.03l1.23.8h.02l.17-.26v-.02Z" fill="#DC2126"/><path d="m24.44 22.65-.6-.56c-.02-.02-.02-.03 0-.04.16-.15.98-.7.9-.02-.02.23-.11.43-.27.62h-.03ZM18.77 22.92c0 .02 0 .03.02.02.2-.1.52 0 .74.05v.02l-.14.28h-.02a5.5 5.5 0 0 1-.38-.07c-.17-.04-.28.03-.32.2v.01l.5.26v.02l-.14.27-.01.01-1.28-.66c-.02 0-.02-.01-.02-.03.11-.32.37-.98.82-.76.15.07.23.2.23.38Zm-.69.22.34.17h.02v-.01l.07-.14a.27.27 0 0 0 .03-.08v-.09a.2.2 0 0 0-.04-.07.17.17 0 0 0-.06-.05l-.02-.01a.19.19 0 0 0-.16 0 .26.26 0 0 0-.12.12l-.07.13a.02.02 0 0 0 .01.03ZM37.19 23.74a25.34 25.34 0 0 1-.12-.2l-.36.06h-.01l-.01-.01-.13-.3v-.02l1.51-.2c.02 0 .03 0 .04.02a3.63 3.63 0 0 1 .17.36l-.01.05-1.14 1c0 .01 0 .01 0 0l-.15-.29v-.03l.28-.23v-.05l-.07-.16Zm.22-.12.06.12c.01.02.02.02.04 0l.43-.36-.56.09c-.02 0-.03.01-.02.03l.05.12ZM18.44 24.87c.08-.24-.15-.33-.34-.4l-.75-.24c-.02 0-.02-.02-.02-.04l.11-.27.01-.01h.02c.45.14.74.24.89.3.33.14.44.41.34.75-.11.33-.37.49-.72.4a14.66 14.66 0 0 1-.9-.31l.07-.29c0-.02.01-.02.03-.02l.74.25c.2.07.44.12.52-.12ZM37.61 25.06c-.02 0-.02.01-.02.03l.16.52c0 .02 0 .03-.02.03l-.23.07-.02-.01-.26-.86c0-.01 0-.02.02-.03l1.4-.41.02.01.08.29-.01.03-1.12.33ZM17.38 26.39l.04-.25c0-.02 0-.03-.03-.03l-.52-.08-.01-.02.05-.3v-.02h.01l1.45.22.02.03-.05.29v.01h-.03l-.56-.08c-.01 0-.02 0-.03.02l-.04.25-.04.26c0 .01.01.02.03.02l.56.09.02.01v.02l-.04.29-.03.02-1.44-.23h-.01v-.01l.04-.3c0-.02 0-.02.02-.02l.52.08c.02 0 .03 0 .03-.02l.04-.25ZM39.28 26.04a.15.15 0 1 0 0-.3.15.15 0 0 0 0 .3ZM39 25.77l-1.44.27c-.01 0-.02 0-.02.02l.06.3.02.01 1.44-.27c.01 0 .02 0 .01-.02l-.05-.3-.02-.01ZM13.75 27.65l1.05.33h.01v.03l-1.06.34a.02.02 0 0 0 0 .02v1.11h-.02l-.66-.9h-.02l-1.04.35h-.02v-.02l.65-.9a.02.02 0 0 0 0-.02l-.66-.88v-.02l.01-.01H12l1.05.34h.01l.65-.9a.02.02 0 0 1 .02 0h.01v1.12h.01ZM42.85 27.42l1.05-.35h.01a.02.02 0 0 1 0 .03l-.64.89v.02l.65.88v.01a.02.02 0 0 1-.01.02l-1.05-.34h-.02l-.64.9h-.02l-.01-.01v-1.1a.02.02 0 0 0-.01-.02l-1.05-.33a.02.02 0 0 1 0-.03l1.04-.34h.01v-1.12a.02.02 0 0 1 .01-.01h.01l.66.9h.01ZM38.6 27.2c-.02 0-.02.01 0 .02l.62.21.01.01.02.36-.82-.38a.35.35 0 0 0-.19-.03l-.5.04s-.02 0-.02-.03l-.02-.29v-.01h.02l.5-.04a.4.4 0 0 0 .19-.07 45.72 45.72 0 0 1 .75-.47l.02.36v.02l-.58.3ZM26.97 27.8a.88.88 0 0 0 1.46.66c.06-.05.07-.04.02.02a1.1 1.1 0 0 1-1.97-.68 1.1 1.1 0 0 1 1.96-.7c.05.06.05.07-.01.02-.3-.22-.6-.27-.9-.14a.88.88 0 0 0-.56.82ZM29.08 27.6l.32-.11h.02a.02.02 0 0 1 0 .02l-.2.28v.02l.2.27a.02.02 0 0 1 0 .02h-.02l-.32-.1h-.02l-.2.28a.02.02 0 0 1-.03-.01V27.92l-.33-.1v-.01a.02.02 0 0 1 0-.02v-.01l.32-.1a.02.02 0 0 0 .01-.02v-.34l.02-.01h.01l.2.28h.02ZM17.04 27.9c-.02 0-.02 0 0 .01l1.1.3v.01l.02.02.02.22c0 .02-.01.03-.03.04l-1.07.31c-.03.01-.03.01 0 .01l1.1.02c.02 0 .03 0 .03.02v.27l-.01.02-1.45-.04c-.03 0-.04 0-.04-.03v-.41c0-.02 0-.03.02-.03l.96-.29v-.01l-.98-.25c-.02 0-.03-.02-.03-.04l-.01-.4c0-.01 0-.02.02-.02l1.45-.13c.02 0 .02 0 .02.02l.01.3-.02.01-1.11.08ZM38.94 28.6l-.01-.03-.27-.01c-.02 0-.03 0-.03.02l-.03.5c0 .02 0 .03-.03.03l-.22-.02c-.02 0-.02 0-.02-.02l.03-.5c0-.02 0-.03-.02-.03l-.32-.02s-.02 0-.02.02l-.03.57-.02.02-.24-.01c-.01 0-.02-.01-.02-.03l.06-.9c0-.02.01-.03.03-.03l1.44.1c.01 0 .02 0 .02.02l-.05.88c0 .01 0 .02-.02.02l-.24-.02c-.02 0-.02 0-.02-.02l.03-.54ZM18.17 30.16c-.05-.24-.3-.21-.5-.17l-.76.17c-.02 0-.03 0-.03-.02l-.04-.3v-.01l.93-.2c.36-.05.6.13.67.47.07.34-.06.6-.41.71a14.52 14.52 0 0 1-.94.2l-.08-.28c0-.02 0-.04.02-.04l.76-.17c.2-.04.44-.12.38-.36ZM38.09 31.06c-.13.16-.28.21-.44.15-.47-.17-.24-.85-.1-1.16h.01l1.39.37a.02.02 0 0 1 .02.02c-.04.29-.17 1.05-.62.91-.13-.04-.2-.13-.23-.28 0-.02-.02-.02-.03 0Zm-.02-.53-.37-.1h-.02v.01l-.04.13a.31.31 0 0 0 0 .2c.03.05.07.1.12.1l.03.01c.05.02.1 0 .16-.03.04-.04.08-.1.1-.17l.04-.13v-.01l-.01-.01Zm.57.15-.29-.07a.03.03 0 0 0-.03 0v.02l-.03.12a.27.27 0 0 0 0 .17c.03.05.06.08.1.1h.03c.04 0 .09 0 .13-.04a.27.27 0 0 0 .08-.14l.03-.13a.03.03 0 0 0 0-.03h-.02ZM18.37 32.38c-.62.23-1.06-.26-1.09-.83 0-.01 0-.02.02-.02l.23-.04c.02 0 .03 0 .03.02 0 .38.27.7.68.54.41-.16.4-.57.15-.86v-.03l.2-.13h.03c.37.45.36 1.11-.25 1.35ZM37.26 32.1l.07-.17v-.04l-.28-.24a.02.02 0 0 1 0-.02l.13-.3h.02l1.14 1c.01 0 .02.02.01.04a3.12 3.12 0 0 1-.16.36c0 .02-.02.02-.04.02l-1.5-.18-.01-.01.12-.3.01-.02h.02l.36.05h.02l.01-.02.08-.17Zm.23.1-.05.12c0 .02 0 .03.02.03l.57.08-.45-.37-.03.01-.06.12ZM14.7 33.1l1.1-.09a.02.02 0 0 1 .01.02v.01l-.84.72v.02l.42 1.01v.01a.02.02 0 0 1-.02.01l-.94-.57h-.02l-.83.72h-.01a.02.02 0 0 1-.02 0v-.01l.26-1.08-.01-.01-.94-.57-.01-.01v-.02h.01l1.1-.1a.02.02 0 0 0 .02 0l.25-1.08a.02.02 0 0 1 .01-.01.02.02 0 0 1 .02.01l.42 1.02a.02.02 0 0 0 .02 0ZM41.94 33.16l1.1.08h.01v.03l-.94.58v.02l.26 1.07a.02.02 0 0 1-.02.02h-.01l-.84-.72h-.02l-.93.58h-.02a.02.02 0 0 1 0-.02l.41-1.02v-.02l-.84-.7a.02.02 0 0 1 0-.03h.01l1.1.08.02-.01.4-1.02a.02.02 0 0 1 .03-.01l.01.01.26 1.07v.01h.01ZM37.02 33.6c-.02-.01-.02 0-.01.01l.3.7-.01.01-.21.33h-.01l-.26-.72a.04.04 0 0 0-.04-.03l-.96-.02v-.02l.2-.3.01-.02.7.04c.01 0 .02 0 .02-.02 0-.06-.03-.17-.12-.21a8.8 8.8 0 0 1-.33-.24l.16-.25h.02l1.24.79v.02l-.16.25h-.03l-.5-.32ZM18.77 34.04h.03l.22-.14c.02 0 .02-.02.01-.03l-.27-.42v-.04l.2-.12h.03l.27.43h.03l.27-.17v-.02l-.3-.48c-.02-.02-.01-.03 0-.03l.2-.13h.03l.48.76c.02.02.01.04 0 .05l-1.21.78-.04-.01-.48-.74v-.02l.21-.14h.02l.3.47ZM36.37 35.51l-.13.15a.04.04 0 0 1-.05 0l-1.38-.63v-.01l.21-.25.01-.01h.02l.33.16h.02l.02-.01a13.65 13.65 0 0 0 .25-.32l-.2-.31a.02.02 0 0 1 0-.03l.23-.24h.02l.78 1.3v.05l-.13.15Zm-.64-.58-.08.1v.04l.52.25-.31-.48c-.01-.02-.02-.02-.04 0l-.09.1ZM19.87 34.94l-.63.2h-.01l-.23-.27v-.01l.88-.18a.35.35 0 0 0 .17-.08l.38-.33h.03l.2.23v.01l-.01.02-.37.32a.4.4 0 0 0-.12.16 45.21 45.21 0 0 1-.33.83l-.23-.28v-.02l.28-.58c.01-.02 0-.02-.01-.02ZM21.4 35.25l-.22-.2h-.03l-.99 1.07v.02l.22.2c.01.02.02.02.03 0l1-1.06v-.03ZM34.14 36.2l.64.76V37l-.22.18h-.03l-.9-1.14c-.02-.02-.02-.03 0-.04l.23-.19a.04.04 0 0 1 .05 0l1.07.45H35l-.65-.8a.02.02 0 0 1 0-.03l.21-.18a.03.03 0 0 1 .04 0l.9 1.15v.02l-.26.22a.05.05 0 0 1-.06.01l-1.03-.44ZM21.79 36.67l-.71.25h-.01l-.32-.24.73-.21.02-.02.01-.02.1-.96.3.21.01.02-.08.7.02.02c.06 0 .17-.03.22-.1a9.05 9.05 0 0 1 .25-.33l.25.18v.03l-.87 1.18h-.02l-.25-.18v-.02l.36-.5c.02-.01.01-.02-.01-.01ZM32.59 36.93l-.13-.22v-.01a.02.02 0 0 1 0-.01l.79-.45h.02l.73 1.27v.02l-.26.15a.02.02 0 0 1-.03 0l-.59-1.02h-.02l-.49.27h-.02ZM20.1 36.57a.15.15 0 1 0 0-.3.15.15 0 0 0 0 .3ZM22.78 37.1c-.1-.2.01-.52.06-.74h.02l.27.14a.02.02 0 0 1 .02.03l-.09.38c-.04.17.03.27.2.32h.01l.27-.5h.01l.28.14v.02l-.67 1.27c0 .01-.02.02-.04.01-.32-.1-.97-.38-.74-.83.07-.14.2-.22.38-.22.02 0 .02 0 .02-.02Zm.18.71.18-.33v-.02l-.01-.01-.13-.07a.26.26 0 0 0-.17-.03.2.2 0 0 0-.08.04.17.17 0 0 0-.05.06l-.01.02a.18.18 0 0 0 0 .16c.02.05.06.1.11.12l.14.07h.02ZM32.13 36.84l-.27.13a.02.02 0 0 0-.01.02l.6 1.33c0 .01.01.02.02.01l.28-.12v-.03l-.6-1.33a.02.02 0 0 0-.02 0ZM18.16 38.3l.79.78v.01a.02.02 0 0 1 0 .02h-.01l-1.1-.17a.02.02 0 0 0-.01 0l-.5 1h-.02v-.01l-.18-1.1a.02.02 0 0 0-.01 0l-1.1-.17a.02.02 0 0 1 0-.02v-.01l.98-.5h.01v-.02l-.18-1.09a.02.02 0 0 1 .02-.02h.01l.78.79h.02l.98-.5a.02.02 0 0 1 .02 0v.02l-.5.98a.02.02 0 0 0 0 .02ZM38.9 38.13l.99.49v.03l-1.1.17a.02.02 0 0 0-.01.01l-.16 1.1-.02.01h-.02l-.5-1h-.01l-1.1.18a.02.02 0 0 1-.01-.02l.79-.79v-.02l-.51-.98a.02.02 0 0 1 0-.02h.02l.98.5a.02.02 0 0 0 .02 0l.78-.79a.02.02 0 0 1 .02 0v.02l-.17 1.09a.02.02 0 0 0 .01.02ZM24.8 37.22c.33.12.48.37.38.73a14.33 14.33 0 0 1-.32.9l-.28-.08c-.02 0-.03-.02-.02-.04.1-.29.2-.53.26-.74.07-.2.12-.43-.11-.51-.24-.08-.34.14-.4.33-.08.2-.17.46-.26.75 0 .01-.02.02-.04.01l-.27-.11v-.02c.14-.45.24-.75.3-.89.15-.33.43-.44.76-.33ZM30.7 37.66c-.02.01-.03.04-.02.07l.06.22c.01.02.03.03.06.02l.13-.04c.03 0 .05 0 .06.03l.05.16c.01.03 0 .05-.03.06l-.46.15c-.01 0-.02 0-.03-.02l-.22-.7c-.01-.02 0-.03.01-.04.53-.36 1.23-.46 1.45.3.18.64-.45 1.02-1 1h-.02v-.27c.33.02.74-.14.7-.52-.05-.4-.36-.6-.73-.42ZM25.95 39.1l-.55-.11c-.01 0-.02-.02-.01-.04l.04-.21c0-.02.01-.03.03-.03l.35.07h.01l.01-.02.22-1.15a3.53 3.53 0 0 1 .31.03l.02.04-.21 1.14a.03.03 0 0 0 .02.03l.35.06.02.03-.04.22c0 .02-.02.03-.03.03l-.54-.1ZM29.87 37.59l-.3.05a.02.02 0 0 0-.01.02l.26 1.44.02.02.3-.06.02-.02-.27-1.44a.02.02 0 0 0-.02-.01ZM27.95 39.05a.43.43 0 1 0 0-.87.43.43 0 0 0 0 .87ZM24 38.96a.15.15 0 1 0 0-.3.15.15 0 0 0 0 .3ZM24.43 39.1a.15.15 0 1 0 0-.3.15.15 0 0 0 0 .3ZM31.32 39.04c-.06.02-.1.06-.1.11 0 .02-.01.03-.03.04l-.1.03c-.03 0-.04 0-.04-.02-.03-.18.06-.28.22-.33.16-.05.3-.02.37.14.01.02 0 .03-.01.04l-.11.04-.05-.01c-.04-.05-.09-.06-.15-.04ZM22.85 41.27l1.03.42v.01a.02.02 0 0 1 0 .02l-1.08.25-.01.02-.08 1.1a.02.02 0 0 1-.02.01h-.01l-.58-.94v-.01h-.02l-1.07.26H21a.02.02 0 0 1 0-.02l.71-.84v-.02l-.58-.94a.02.02 0 0 1 .02-.02l1.02.42h.02l.71-.85h.02a.02.02 0 0 1 .01.01l-.09 1.1v.01l.01.01ZM32.97 40.13h.01l.73.86h.01l1.05-.44v.01l-.58.97v.01l.74.85v.01h-.01l-1.1-.25h-.01l-.58.96h-.01l-.1-1.12v-.01l-1.1-.26v-.01l1.03-.44.01-.01-.1-1.12h.01ZM28.32 42.21h1.11v.02l-.89.65v.02l.34 1.05a.02.02 0 0 1-.02.01l-.9-.64h-.01l-.9.65a.02.02 0 0 1-.02 0v-.02l.34-1.05v-.01l-.9-.65a.02.02 0 0 1 0-.01.02.02 0 0 1 .01-.02h1.11l.34-1.06h.03l.35 1.05a.02.02 0 0 0 .01.01Z" fill="#DC2126"/><path fill-rule="evenodd" d="M28 45.01A17.01 17.01 0 1 0 28 11 17.01 17.01 0 0 0 28 45Zm0 .99a18 18 0 1 0 0-36 18 18 0 0 0 0 36Z" fill="#DC2126"/></svg>