<!-- by TradingView --><svg width="56" height="56" viewBox="0 0 56 56" xmlns="http://www.w3.org/2000/svg"><path fill="#F0F3FA" d="M0 0h56v56H0z"/><path d="M14.12 16.16c0 .72.1.78 1.45 2.42 1.34 1.65 2.93 3.45 3.94 5.62.92-1.2 1.24-1.72 2.94-3.12a30.9 30.9 0 0 1 5.15-3.09c1.98-.88 2.9-1.26 3.71-1.54.8-.28 2.19-.83 5.34-1.68A99.69 99.69 0 0 1 44.7 13c.2 0 .66.03.89.43l1.36 2.53c-.3-.29-.56-.4-1.6-.22-1.05.17-4.1.78-5.55 1.13-1.47.36-3.95.97-6 1.68-2.05.7-4.21 1.42-6.7 2.74-.83.45-3.31 1.82-4.61 3.48-.75 1-1.76 2.52-1.64 4.04.12 1.53.73 3.3 1.76 4.39 1.03 1.1 2.3 2.32 4.46 3.36a32.56 32.56 0 0 0 6.33 2.38c2.35.57 1.13.31 3.02.7 1.88.4 5.68 1.34 5.9.43-.67 1.43-1 2.25-1.06 2.4-.07.16-.2.58-.98.53-.77-.06-3.23-.16-6.36-.89a33.17 33.17 0 0 1-8.73-3.38c-1.59-1-3.33-1.89-5.54-4.9a17.3 17.3 0 0 1-3.32 3.88 34.65 34.65 0 0 1-3.27 2.55c-.36.24-1.66.91-1.35 1.45-.46-1.37-.87-2.63-.67-3.05.21-.42.33-.52 1.36-1.21.97-.75 2.77-2.08 3.78-3.35 1.07-1.2 2.14-3.43 1.98-5.11-.15-1.7-.53-2.85-1.7-4.84a26.83 26.83 0 0 0-2.8-3.57c-.96-.97-.89-1.3-.85-1.8.03-.58.94-1.86 1.3-2.62Z" fill="#C52529"/><path d="M26.14 21.83a37.93 37.93 0 0 1 3.06-1.56c.88.53 4.11 2.42 5.82 4.97.79-1.5 1.22-2.34 2.65-4.21 1.15-1.4 3.4-3.78 4.57-4.7 1.25-.26 2.53-.5 3.13-.6 1.05-.18 1.3-.08 1.61.22.04.19.07.43-.38.76-.44.33-2.3 1.77-2.8 2.19-.48.41-3 2.6-4.31 4.35-1.11 1.5-2.2 3.15-2.53 4.64a6.63 6.63 0 0 0 .22 4.22c.56 1.28 1.59 3.15 2.82 4.6 1.23 1.67 2.7 2.68 2.34 3.32-.13.56-1.55.43-3.07.17-.62-.78-3.34-3.91-3.97-5.7-.8 1-2 2.57-4.26 3.68a26.73 26.73 0 0 1-3.4-1.4c.45-.18 2.23-.93 3.24-1.7 1-.79 2.16-1.74 2.62-2.87.44-1.13.8-2.32.2-3.92a8.79 8.79 0 0 0-2.44-3.3 20.87 20.87 0 0 0-5.12-3.16ZM11.72 41.7c-.3-.54.98-1.22 1.35-1.46.2-.12.7-.49 1.34-.97.8.02 3.5-.16 4.6-.31 1.1-.14 3.85-.58 5-1 .4.27.8.51 1.2.75.81.44 1.55.82 2.22 1.13-1 .4-2.64 1-6.25 1.63-1.66.24-5.75.71-8.72.64-.5-.07-.62-.22-.74-.41Zm3.85-23.12c-1.33-1.64-1.45-1.7-1.45-2.42.12-.1.05-.32 1.4-.16.63.07 2.86.35 5.05.9 2.48.63 4.92 1.58 5.5 1.86a33.9 33.9 0 0 0-2.95 1.85 45.6 45.6 0 0 0-7.55-2.03Z" fill="#1E1D1B"/></svg>