<!-- by TradingView --><svg width="56" height="56" viewBox="0 0 56 56" xmlns="http://www.w3.org/2000/svg"><path fill="#F0F3FA" d="M0 0h56v56H0z"/><path fill-rule="evenodd" d="M28 42.84a14.84 14.84 0 1 0 0-29.68 14.84 14.84 0 0 0 0 29.68ZM28 45a17 17 0 1 0 0-34 17 17 0 0 0 0 34Z" fill="url(#a)"/><path fill-rule="evenodd" d="M28.01 42.23a14.23 14.23 0 1 0 0-28.46 14.23 14.23 0 0 0 0 28.46Zm0 .62a14.85 14.85 0 1 0 0-29.7 14.85 14.85 0 0 0 0 29.7Z" fill="#FFAD5A"/><path fill-rule="evenodd" d="M28 41.18a13.26 13.26 0 1 0 0-26.52 13.26 13.26 0 0 0 0 26.52Zm0 .93a14.19 14.19 0 1 0 0-28.37 14.19 14.19 0 0 0 0 28.37Z"/><path fill-rule="evenodd" d="M22.57 23.46c.36.96.92 1.74 1.69 2.36.2.17.19.2-.07.11a5.78 5.78 0 1 0 3.8 6.21c.02-.13.04-.13.06 0A5.8 5.8 0 0 0 38.5 34.7a5.76 5.76 0 0 0-6.65-8.75c-.38.14-.41.08-.1-.17a5.75 5.75 0 0 0 .75-7.92 5.79 5.79 0 0 0-9.94 5.61Zm3.37 3.47a5.85 5.85 0 0 1 2.08 3.76c.01.1.03.1.04 0l.04-.33a5.48 5.48 0 0 1 2.08-3.5c.17-.14.16-.16-.05-.08a5.92 5.92 0 0 1-4.15.07c-.16-.06-.17-.03-.04.08Z" fill="#150F0D"/><path d="M33.37 22.2a5.45 5.45 0 1 0-10.79-1.6 5.45 5.45 0 0 0 10.8 1.6Z" fill="url(#b)"/><path d="M27.52 32.8A5.46 5.46 0 1 0 16.97 30a5.46 5.46 0 0 0 10.55 2.81Z" fill="url(#c)"/><path d="M38.7 28.98a5.45 5.45 0 1 0-9.79 4.82 5.45 5.45 0 0 0 9.79-4.82Z" fill="url(#d)"/><path fill-rule="evenodd" d="M25.94 33.12c-.2.59-.62.91-1.23.97-.34.03-.7-.08-1.08-.34-.01-.02-.02-.01-.02 0 .1.54-.03.98-.37 1.32-.38.38-1 .51-1.5.3-.64-.3-.92-.81-.84-1.56 0-.07-.02-.08-.07-.04-.81.7-1.92.31-2.24-.68-.22-.67.2-1.45.87-1.66.1-.04.1-.07 0-.1-.97-.3-1.2-1.49-.56-2.25.6-.56 1.26-.6 1.94-.1.04.03.06.02.05-.03-.3-2.16 3.01-2.23 2.73 0 0 .05.02.06.06.03.62-.45 1.22-.46 1.8-.03a1.4 1.4 0 0 1-.43 2.4c-.08.02-.08.05 0 .07.74.26 1.06.94.89 1.7Zm-4.1-3.08-.52.3c-.04.03-.06.02-.06-.02v-.55c0-.07.03-.09.09-.05l.5.28a.02.02 0 0 1 0 .03v.01Zm1.36-.33-.52.27a.02.02 0 0 0-.01.03v.01l.48.3c.05.03.08.02.09-.05l.02-.53c0-.04-.02-.05-.06-.03Zm-2.89 1.65.53-.29c.04-.01.05 0 .05.04l-.01.53c0 .07-.04.09-.1.05l-.47-.3a.02.02 0 0 1 0-.02Zm3.86-.02-.52-.27a.02.02 0 0 0-.02 0 .02.02 0 0 0 0 .02l.02.54c0 .07.03.08.08.05l.44-.29c.03-.02.03-.04 0-.05Zm-1.5 1.39.5-.33c.04-.02.06-.01.06.03l.03.53c0 .07-.03.09-.09.06l-.5-.25a.02.02 0 0 1 0-.04Zm-.87-.03-.5-.32h-.03v.01l-.03.56c0 .06.02.08.08.05l.48-.24c.03-.02.03-.04 0-.06ZM31.65 23.15c-.21.59-.62.91-1.24.97-.33.03-.7-.08-1.07-.34h-.02c.1.54-.03.98-.38 1.32-.38.38-1 .52-1.5.3-.64-.29-.92-.81-.84-1.56.01-.07-.01-.08-.06-.04-.82.7-1.93.31-2.25-.68-.21-.67.2-1.45.88-1.66.1-.03.1-.07 0-.1-.97-.3-1.2-1.49-.57-2.25.61-.56 1.26-.6 1.95-.1.04.03.05.02.05-.03-.3-2.16 3-2.23 2.73 0 0 .05.01.07.06.03.62-.45 1.22-.46 1.8-.03a1.4 1.4 0 0 1-.43 2.4c-.08.02-.08.05 0 .08.73.25 1.06.93.89 1.69Zm-4.1-3.08-.53.3c-.04.03-.05.02-.05-.02v-.55c0-.07.02-.08.08-.05l.5.28a.02.02 0 0 1 0 .04Zm1.36-.33-.53.28v.03l.47.3c.06.03.09.02.09-.05l.02-.53c0-.04-.01-.05-.05-.03ZM26 21.39l.54-.28c.03-.02.05-.01.05.03l-.02.54c0 .06-.03.08-.09.04l-.48-.29v-.04Zm3.86-.02-.51-.27a.02.02 0 0 0-.02 0 .02.02 0 0 0-.01.02l.02.54c0 .07.03.08.09.05l.44-.28c.03-.03.03-.04 0-.06Zm-1.49 1.4.5-.34c.03-.02.05-.01.05.03l.03.53c0 .07-.02.09-.08.06l-.5-.25v-.02a.02.02 0 0 1 0-.02Zm-.88-.04-.5-.32H27a.02.02 0 0 0-.02.01l-.03.56c0 .07.03.08.09.05l.47-.24c.04-.02.04-.04 0-.06ZM37.48 33.13c-.2.59-.62.91-1.23.97-.34.03-.7-.08-1.08-.34h-.02c.1.54-.03.98-.38 1.32-.37.38-1 .51-1.49.3-.64-.3-.93-.81-.84-1.56 0-.07-.02-.08-.07-.04-.81.7-1.92.31-2.24-.68-.22-.67.2-1.45.87-1.66.1-.03.1-.07 0-.1-.97-.3-1.2-1.49-.56-2.25.6-.56 1.26-.6 1.94-.1.04.03.06.02.05-.03-.3-2.16 3.01-2.23 2.73 0 0 .05.02.06.06.03.62-.45 1.22-.46 1.8-.03a1.4 1.4 0 0 1-.43 2.4c-.08.02-.08.05 0 .08.74.25 1.06.93.89 1.69Zm-4.1-3.08-.53.3c-.03.03-.05.02-.05-.02v-.55c0-.07.03-.09.09-.05l.5.28v.02a.02.02 0 0 1 0 .02Zm1.36-.33-.52.28h-.01v.03l.47.3c.06.03.1.02.1-.05l.01-.53c0-.04-.01-.05-.05-.03Zm-2.9 1.65.54-.28c.04-.02.05-.01.05.03l-.01.53c0 .07-.04.09-.1.05l-.47-.3h-.01v-.02Zm3.87-.02-.52-.27a.02.02 0 0 0-.02 0v.01l-.01.01.03.54c0 .07.03.08.08.05l.44-.29c.03-.02.03-.04 0-.05Zm-1.5 1.39.5-.33c.04-.02.06-.01.06.03l.03.53c0 .07-.03.09-.09.06l-.5-.25v-.04Zm-.87-.03-.5-.32a.02.02 0 0 0-.04 0v.01l-.02.56c0 .06.02.08.08.05l.47-.24c.04-.02.04-.04 0-.06Z" fill="#F1A561"/><defs><linearGradient id="a" x1="28" y1="11" x2="28" y2="45" gradientUnits="userSpaceOnUse"><stop stop-color="#1175BC"/><stop offset="1" stop-color="#262758"/></linearGradient><linearGradient id="b" x1="27.98" y1="15.95" x2="27.98" y2="26.85" gradientUnits="userSpaceOnUse"><stop stop-color="#1576BC"/><stop offset="1" stop-color="#202463"/></linearGradient><linearGradient id="c" x1="22.24" y1="25.93" x2="22.24" y2="36.86" gradientUnits="userSpaceOnUse"><stop stop-color="#0D7ABB"/><stop offset="1" stop-color="#212C6C"/></linearGradient><linearGradient id="d" x1="33.8" y1="25.93" x2="33.8" y2="36.86" gradientUnits="userSpaceOnUse"><stop stop-color="#0D79BA"/><stop offset="1" stop-color="#202F6F"/></linearGradient></defs></svg>