<!-- by TradingView --><svg xmlns="http://www.w3.org/2000/svg" width="56" height="56"><path fill="#0070BA" d="M0 0h56v56H0z"/><path d="M23.2 18.58l3.73-7.8a1.31 1.31 0 112.4 0l3.74 7.8-1.64.64-2.82-6.1c-.1-.17-.22-.38-.47-.38-.25 0-.37.24-.44.38l-2.87 6.1-1.63-.64zm-4.9 13.79l-7.5-3.48c-.33-.17-.8-.51-.8-1.2 0-.63.45-1 .8-1.17l7.07-3.28.65 1.6-5.34 2.4c-.18.1-.39.21-.39.45 0 .25.24.37.39.43l5.77 2.64-.65 1.6zm26.9-3.58l-7.07 3.34-.66-1.6 5.36-2.5c.14-.06.38-.19.38-.43s-.2-.36-.38-.46l-5.13-2.3.66-1.61 6.85 3.2c.34.16.79.53.79 1.17 0 .68-.47 1.02-.8 1.19zm-21.96 9.17l3.48 7.26c.17.32.51.78 1.21.78.65 0 1.03-.44 1.2-.78l3.63-7.47-1.63-.64-2.73 5.77c-.1.18-.22.38-.47.38-.25 0-.37-.24-.43-.38l-2.63-5.56-1.63.64zm-6.36-18.82l3.2 8.72 1.4-1.3-2.36-6.31c-.06-.14-.14-.4.03-.57.18-.17.4-.11.6-.06l6.4 2.34 1.32-1.34-8.89-3.15a1.33 1.33 0 00-1.4.27c-.5.5-.4 1.05-.3 1.4zm19.2 8.72l3.2-8.72c.1-.35.2-.9-.3-1.4a1.33 1.33 0 00-1.4-.27l-8.88 3.15 1.32 1.34 6.39-2.34c.2-.06.43-.11.6.06.18.17.1.43.03.57l-2.36 6.3 1.4 1.31zm3.4 9.38l-3.2-8.72-1.4 1.3 2.36 6.3c.06.15.14.4-.04.58-.17.17-.4.11-.6.06l-6.39-2.34-1.32 1.34 8.88 3.15c.36.13.95.17 1.4-.28.5-.48.41-1.05.3-1.4zm-19.23-8.72l-3.2 8.72c-.1.34-.2.9.3 1.4.46.44 1.04.4 1.4.27l8.89-3.15-1.32-1.34-6.39 2.34c-.2.05-.43.1-.6-.06-.18-.18-.1-.43-.04-.57l2.37-6.3-1.41-1.31z" fill="#fff"/></svg>