<!-- by TradingView --><svg xmlns="http://www.w3.org/2000/svg" width="56" height="56" viewBox="0 0 56 56"><path fill="#E52027" d="M0 0h56v56H0z"/><path fill-rule="evenodd" d="M37.24 19.6c.17-.24.33-.45.47-.6H36v11h2v-.46l-.07-.03c-1.13-1.11-1.41-1.66-1.47-2.16-.05-.4.93-.84 1.43-1-1.77-1.04-2-1.85-1.78-2.3.18-.37.91-.86 1.26-1.07l-.05-.03c-.23-.16-.96-.67-.87-1.55.05-.5.31-1.06.6-1.53.06.12.13.22.2.3l-.07.1.82.4v-.24l-.01-.02-.03-.06-.03-.04a3.88 3.88 0 0 1-.32-.61l-.14.17c-.1-.1-.17-.19-.23-.27zm-.38 1.19l.24-.4.9.45v.23l-1.14-.28zm-.07.14l1.21.3v.27h-.03l-1.3-.11a1 1 0 0 1 .12-.46zm1.17.72H38v.3-.04l-1.09.05c-.1-.14-.16-.28-.2-.42l1.25.11zm-.94.46l.98-.05v.29l-.62.15a3.61 3.61 0 0 1-.36-.4zm.5.5l.48-.11v.5a4.96 4.96 0 0 1-.49-.38zm.48-3.38v.92a3.4 3.4 0 0 1-.28-.59l.28-.33zm0-.23zm.5 10.77l-.11-.05V30h-.65l-.85 3.1-.68-3.1h-1.06l.14.45c-.29-.3-.72-.55-1.33-.5-1.14.07-1.56.76-1.68 1.1v1.68c.5 1.6 2.4 1.36 3.3 1.04l-.19-.68c-1.9.47-2.34-.36-2.32-.83h2.5l.08-.6.7 2.34h.95l.85-2.93.76 2.93h.97l.52-1.7a2.07 2.07 0 0 0 3.87.6V34h1v-2.34c.22-.59.65-.79.94-.82V34h1v-1.4l.35-.37 1.16 1.71h1c.66.13 2.03.1 2.27-1.07.05-.33-.1-1.05-1.1-1.3-.22-.06-.65-.26-.65-.54 0-.36.61-.53 1.38-.17l.24-.73c-.2-.08-.69-.25-1.1-.24-.52.01-1.41.23-1.54 1.29 0 .25.17.81.97 1.05.8.24.87.6.82.75-.1.26-.6.6-1.72 0l-1.01-1.33L49.73 30h-1.2l-1.32 1.74V28h-.8v-2.95c-.01-1.92-1.1-3-2.85-3.05-1.4-.04-2.4.45-2.74.7l.4 1.23c2.77-1.28 3.22.1 3.19.94-2.58.02-3.7 1-4.02 2.03v-4.4h-2v.73l.04.03c.76.38 2.04 1.19 1.85 1.81-.14.5-1.12 1.14-1.6 1.4.24.13.7.56.7 1.22.01.66-.58 1.66-.88 2.08zm1.89-1.48V30h.73l-.14.45c.25-.26.57-.45.93-.54a2.22 2.22 0 0 1-1.52-1.62zM40.14 30h-1.57l.84 3.1.73-3.1zM38 25.84v-.28l-.56-.04c.2.14.41.25.56.32zm.45.23v-.48l.82.04c-.22.15-.49.31-.82.44zm0-.64l1.01.05c.13-.1.23-.2.31-.3-.37 0-.84-.02-1.32-.04v.3zm1.52-.5a1.1 1.1 0 0 1-.07.1c-.4 0-.92-.02-1.45-.05v-.3l1.4.03c.06.07.1.15.12.21zM38 24.18v.3h-.02a18.35 18.35 0 0 1-1.52-.17c.06-.08.16-.19.3-.3.27.06.73.12 1.2.17H38zm-1.38.67a.83.83 0 0 1-.21-.4c.15.04.35.07.57.1.3.04.64.06 1 .08H38v.32h-.03a37.32 37.32 0 0 1-1.35-.1zm1.34.25H38v.3a26.7 26.7 0 0 1-.83-.07 3.8 3.8 0 0 1-.38-.3 11.76 11.76 0 0 0 1.17.07zm.02-1.07c-.42-.05-.8-.1-1.07-.15.14-.1.3-.21.49-.32l.1.03.41.08.09.02v.34h-.02zm-.04-.5l-.34-.07c.12-.07.26-.13.4-.19v.26h-.06zm1.79 1.02c-.35 0-.81-.02-1.28-.04v-.29l1 .08c.1.08.2.16.28.25zm-.51-.42l-.77-.06v-.3l.17.02.06.01c.16.1.35.2.54.33zm-.1 3.89l-.01-.2-.67-.03v.37l.66.1.02-.24zm-.68-.38l.63.02c-.04-.14-.1-.27-.18-.38l-.45.03v.33zm0-.48c.13 0 .24-.02.34-.03a1.62 1.62 0 0 0-.34-.3v.33zm-.44-.28v.3c-.22 0-.44 0-.64-.02.24-.12.48-.22.64-.28zm-1.13.57c.07-.06.16-.11.25-.17.25.04.57.05.88.05v.27c-.4-.03-.82-.08-1.13-.15zm1.13.63v-.32c-.46-.04-.93-.1-1.25-.18a.27.27 0 0 0-.04.08l.12.16.33.09a17.28 17.28 0 0 0 .84.17zm-.21.11l.21.04v.31l-.83-.33a7.82 7.82 0 0 1-.17-.18 6.64 6.64 0 0 0 .79.16zm1.05.67l-.4-.15v-.4l.62.1a1.9 1.9 0 0 1-.22.45zm-.1.13l-.3-.12v.45c.08-.07.2-.19.3-.33zm-1.31-.5l.57.21V29a5.85 5.85 0 0 1-.57-.5zM4 29.98L7.26 19h2.35l2.89 9.88V22h1.68l.1 1.25c.2-.44.97-1.2 2.45-1.25 1.85-.06 2.26 1.86 2.27 2.99v1.85c.34-1 1.47-1.95 4-1.97.03-.84-.41-2.22-3.18-.94l-.4-1.24a4.67 4.67 0 0 1 2.73-.69c1.17.04 2.04.53 2.5 1.41v-1H26v-1.39l2-.52v1.91h1.57v.8A3.63 3.63 0 0 1 32.25 22c2.07 0 3.75 1.8 3.75 4s-1.68 4-3.75 4c-1.05 0-2-.46-2.68-1.2v1.24h-.03l.06.52c.13-.23.51-.69 1.09-.68.72 0 1.35.28 1.6 1.28V34h-.98v-2.43c0-.3-.15-.9-.77-.86-.78.05-.82.78-.82.86V34h-1.05v-1.93l-.02.15h-2.5c-.02.48.42 1.32 2.32.85l.18.7c-.88.31-2.74.55-3.27-1.01v1.13c-.1 1.6-1.08 2.08-2.08 2.11-.8.03-1.32-.22-1.47-.35l.23-.82c.09.1.46.31 1.24.31s1.04-.69 1.07-1.03V33.5c-.3.32-.71.51-1.15.51-.97 0-1.75-.92-1.75-2.06 0-1.14.78-2.07 1.75-2.07.09 0 .17 0 .26.02l-.13-.95A2.84 2.84 0 0 1 21.18 30 2.2 2.2 0 0 1 19 28.36V30h-2v-4.74c0-.6 0-1.79-1.12-1.76-1.34.03-1.37 1.36-1.38 1.7V30h-3.55l-.92-3H6.81l-.87 3L4 29.99zm24.67.82v-.67c-.17 0-.35 0-.53-.02.26.18.43.45.53.69zm-3.29.12c.15-.36.67-1 1.76-1.07h.08C26.53 29.5 26 28.8 26 27.51V24h-1.13c.08.31.13.66.13 1.05v4.68h.38v1.2zM23.83 30h.71l-.07.5c-.18-.22-.4-.4-.64-.5zm5.5-1.48A4.15 4.15 0 0 1 29 24h-1v3.43c0 .47 0 1.25 1.34 1.09zm-20.95-7.9l-1.26 4.75h2.6l-1.34-4.75zM23 26.25v1.08c-.03.34-.33 1.17-1.28 1.17-.91 0-1.03-.82-.97-1.24.05-.37.48-1 2.25-1zM45.8 30h-.53v.54c.12-.18.3-.4.53-.54zm-.9 0l-.14-1.06c-.22.3-.81.84-1.66 1 .5.18.92.54 1.17 1.01V30h.63zm-.5-2.67v-1.08c-1.77 0-2.2.64-2.25 1.01-.06.42.06 1.24.98 1.24.95 0 1.25-.83 1.28-1.17zM34 26c0 1.44-.78 2.6-1.75 2.6S30.5 27.45 30.5 26c0-1.44.78-2.61 1.75-2.61S34 24.56 34 25.99zm8.44 7.29c.56 0 1.02-.61 1.02-1.37 0-.75-.46-1.36-1.02-1.36-.57 0-1.03.61-1.03 1.36 0 .76.46 1.37 1.03 1.37zm-3.12-11.86c.59 0 1.06-.48 1.06-1.08 0-.6-.47-1.08-1.06-1.08-.58 0-1.05.48-1.05 1.08 0 .6.47 1.08 1.05 1.08zM24.41 31.6c-.11-.57-.5-.98-.95-.98-.55 0-.99.6-.99 1.32 0 .73.44 1.33.99 1.33.43 0 .8-.39.93-.91l.02-.76zm1.75-.07h1.75c0-.3-.08-.97-.8-.97-.73 0-.94.65-.95.97zm8.67.06h-1.75c.01-.32.22-.96.95-.96.72 0 .8.67.8.96z" fill="#fff"/></svg>