<!-- by TradingView --><svg xmlns="http://www.w3.org/2000/svg" width="56" height="56"><path fill="#00359D" d="M0 0h56v56H0z"/><path d="M35.76 22c-1.83 0-3.26 1.07-3.26 2.48 0 1.42 1.43 2.52 3.26 2.52 1.82 0 3.24-1.1 3.24-2.52 0-1.41-1.42-2.48-3.24-2.48zm0 4c-.87 0-1.26-.73-1.26-1.5s.46-1.5 1.26-1.5 1.24.73 1.24 1.5-.37 1.5-1.24 1.5zM26 22v5h3.62c1.35 0 2.38-1.21 2.38-2.51 0-1.3-1.03-2.49-2.38-2.49H26zm2.76 4H28v-3h.77c.66 0 1.23.6 1.23 1.5s-.58 1.5-1.24 1.5zm-7.9-4l-1.75 5h2.16l.3-1h1.6l.2 1h2.35l-1.66-5h-3.2zm1.49 1.1l.57 1.9H21.8l.55-1.9zM13 22v5h2v-2.21L16.5 27H19v-5h-2v2.23L15.55 22H13zm-5.24 0L6 27h2.17l.3-1h1.59l.2 1h2.35l-1.66-5h-3.2zm1.48 1.17L9.81 25H8.69l.55-1.83zM50 25.32V22h-2v3.09c0 .42-.25.91-.98.91-.72 0-1.02-.49-1.02-.91V22h-2v3.32c0 1.14 1.38 1.68 3.02 1.68 1.65 0 2.98-.54 2.98-1.68zM9.39 30.34l.07.22h2.01c0-.88-1.22-1.56-2.73-1.56S6 29.68 6 30.55c0 .54.47.92 1.18 1.2l1.43.36s.85.15.85.45c0 .3-.21.4-.54.4-.33 0-.53-.14-.57-.31-.03-.17-.02-.25-.02-.25l-2.3-.01c0 .93 1.22 1.61 2.73 1.61s2.84-.6 2.84-1.53c0-.72-.63-1.29-1.84-1.45 0 0-.63-.09-.88-.14-.25-.06-.48-.2-.48-.42 0-.22.22-.34.5-.34.27 0 .44.1.49.22zm4.9-2.36l-1.3-.7-1.28.7 1.29.73 1.29-.73zM14 34v-5h-2v5h2zm3.82 0c1.1 0 2.25-.18 3.18-.47V31h-3v1h1v1h-1.28c-.52 0-1.22-.66-1.22-1.43 0-.77.54-1.57 1.32-1.57.77 0 1.13.36 1.18.66h1.86c-.13-.87-1.58-1.66-3.04-1.66-1.83 0-3.32 1.05-3.32 2.46C14.5 33 16 34 17.82 34zm16.68-5v1H36v4h2v-4h1.5v-1h-5zm9.07 0h-3.2l-1.75 5h2.17l.3-1h1.6l.2 1h2.34l-1.66-5zm-1.7 1.15l.56 1.85h-1.12l.55-1.85zm-7.89 2.62s-.16-.75-.43-.92c-.27-.15-.65-.25-.65-.25.6-.18 1.08-.39 1.1-1.26.02-.87-.75-1.34-1.61-1.34H28.5v5h2v-2s.73-.05 1 .1c.26.16.44.97.5 1.21v.03l.14.66h2.07l-.23-1.23zM31.5 31h-1v-1h1c.3 0 .5.2.5.5s-.2.5-.5.5zm10-9h-2v5H44v-1h-2.5v-4zm-16.74 7c-1.83 0-3.26 1.07-3.26 2.48 0 1.42 1.43 2.52 3.26 2.52 1.82 0 3.24-1.1 3.24-2.52 0-1.41-1.42-2.48-3.24-2.48zm0 4c-.87 0-1.26-.73-1.26-1.5s.46-1.5 1.26-1.5 1.24.73 1.24 1.5-.37 1.5-1.24 1.5z" fill="#fff"/></svg>