<!-- by TradingView --><svg width="56" height="56" viewBox="0 0 56 56" xmlns="http://www.w3.org/2000/svg"><path fill="#F0F3FA" d="M0 0h56v56H0z"/><path d="M16.92 16c.06.09.12.18.17.29a655.54 655.54 0 0 0 1.8 3.7h-.01l-.02.01h-6.81l-.02-.02v-.03L13.98 16h2.94ZM30.3 16c.17 0 .34.02.5.03.87.06 1.9.4 2.15 1.23.03.1.05.3.05.56a351.43 351.43 0 0 1-.01 2.17h-3.5a.07.07 0 0 1-.02-.01c-.04-.05-.06-.1-.04-.17a2.1 2.1 0 0 0-.05-1.16c-.08-.2-.28-.24-.54-.24a797.9 797.9 0 0 1-3.26 0l-.01.03v1.53l-.01.02-.03.01H22.1a.1.1 0 0 1-.04 0 .1.1 0 0 1-.03-.02l-.02-.03-.01-.03.01-3.92h8.3ZM41.52 16l1.2 2.36a.03.03 0 0 1 0 .03v.02h-5.18v1.55c0 .01 0 .02-.02.03l-.03.01H34l-.01-.02V16h7.52Z" fill="#67AD44"/><path d="m33.03 26.96-3.88.02-2.52-3.35h-.99c-.01 0-.02 0-.03.02l-.01.03V27l-3.45-.02a.1.1 0 0 1-.07-.02c-.01-.02-.08-.09-.08-.11v-5.76a.09.09 0 0 1 .03-.06.1.1 0 0 1 .07-.03H33c.02 0 .04 0 .06.02l.02.06.02.7c0 .24-.04.44-.1.58-.39.82-1.53 1.12-2.4 1.24h-.02v.02l-.01.02v.02l2.46 3.3ZM37.5 23.63V27H34v-5.92l.03-.06a.09.09 0 0 1 .06-.02H40.99l.01.03v2.59l-.03.01H37.5ZM21.92 26.93c-.03.04-.08.06-.14.06-1.1-.02-2.2-.02-3.3 0l-1.5-3.35a.07.07 0 0 0-.06-.04h-2.96L12.42 27 9 26.98v-.06l2.66-5.88a.07.07 0 0 1 .06-.04h7.48a.1.1 0 0 1 .1.06l2.62 5.87Z" fill="#244EA1"/><path d="M47 28.24v.02c-.18.13-.36.25-.53.39-.48.36-.88.8-1.19 1.33l-.96 1.65c-.83 1.43-2.12 2.56-3.83 2.64a9.25 9.25 0 0 1-2.43-.19 4.2 4.2 0 0 0-.46 1.06c-.06.21-.08.48-.07.8a21.54 21.54 0 0 1 0 .85.08.08 0 0 0 .06.05h.04c.58-.1 1.07-.16 1.47-.18 1.28-.07 2.52 0 3.73.17a46.41 46.41 0 0 1 3.69.73.07.07 0 0 1 .02.08c-.23.6-.58 1.12-1.05 1.55a.22.22 0 0 1-.22.05c-.77-.2-1.54-.38-2.33-.54-2.05-.43-4.09-.55-6.1-.37-.78.07-1.7.2-2.75.37l-4.69.84-.68.1c-.21.03-.65.1-.93.12-1.36.09-2.6.1-3.68.04a37.01 37.01 0 0 1-1.4-.16 2.26 2.26 0 0 1-.8-.5h.01v-.01c.75.15 1.5.26 2.27.3.77.03 1.57.03 2.39 0a21 21 0 0 0 3.2-.57c1.27-.34 2.51-.68 3.73-1.03 1-.29 1.59-.42 2.84-.74a.17.17 0 0 0 .12-.1.84.84 0 0 0 .04-.26c.05-.77.08-1.45-.32-2.06a.11.11 0 0 0-.12-.05c-.32.07-.6.12-.87.15a2.66 2.66 0 0 1-2.39-.86c-.7-.75-1-1.75-1.8-2.28a5.33 5.33 0 0 1-.3-.21l.01-.02h.01c.98-.57 2-.76 3.06-.6a3.3 3.3 0 0 1 1.98 1.05 3.35 3.35 0 0 1 .8 2.34h-.03a6.43 6.43 0 0 0-2.3-2.69l.2.7a.02.02 0 0 1-.02.02h-.01c-.33-.24-.72-.41-1.17-.53a9.32 9.32 0 0 0-1.08-.22l-.01.02v.01c.65.19 1.23.47 1.75.87.24.19.42.4.71.7.15.15.2.26.32.44a.05.05 0 0 0 .06.02l.02-.02v-.04l-.15-.82v-.02l.02-.02h.04c.58.52 1.09 1.1 1.51 1.77.17.25.32.61.42.81a.03.03 0 0 0 .03.02h.01v-.02c.43-1.1 1.02-2.13 1.76-3.09.45-.57.8-.9 1.4-1.51l.02-.01a.03.03 0 0 1 .03.03 8.78 8.78 0 0 0-.22 1.76 7.91 7.91 0 0 1 3.8-3.5 21.53 21.53 0 0 1 .92-.4h-.02a7.81 7.81 0 0 0-3.8 1.44v-.02a4.32 4.32 0 0 1 .29-1.25.03.03 0 0 0-.04 0 10.73 10.73 0 0 0-3.67 4.8h-.02v-.01c0-.4-.03-.84.01-1.22a5.26 5.26 0 0 1 3.94-4.6 6.9 6.9 0 0 1 2.18-.27c1.23.04 2.41.34 3.53.9ZM20.86 29.2c0 .64-.12 1.6-.55 2.12-.41.5-.95.65-1.62.47-.48-.13-.72-.57-.68-1.07.04-.55.5-.9 1.01-.96l.72-.08a1.79 1.79 0 0 0 1.1-.5h.01v.02Z" fill="#67AD44"/><path d="M25.49 30c.7 0 1.4.04 2.06.18.77.16 1.5.54 1.91 1.26.52.9.57 2.04.57 3.06s-.05 2.17-.57 3.07a2.75 2.75 0 0 1-1.92 1.26c-.65.13-1.35.17-2.06.17-.7 0-1.4-.04-2.06-.18a2.75 2.75 0 0 1-1.91-1.26 6.2 6.2 0 0 1-.57-3.06c0-1.02.05-2.17.57-3.07a2.75 2.75 0 0 1 1.92-1.26c.65-.13 1.35-.17 2.06-.17Zm-2.3 4.5c0 .74.05 1.92.74 2.37.47.3 1 .35 1.55.35.57 0 1.1-.05 1.56-.35.7-.45.73-1.64.73-2.37 0-.74-.04-1.92-.74-2.37-.46-.3-.99-.35-1.55-.35s-1.08.05-1.55.35c-.7.45-.73 1.64-.73 2.37ZM15.7 34.41a.02.02 0 0 0 0 .02v.01h.02c.17.04.33.08.48.15.97.44.96 1.86.82 2.73-.22 1.32-1 1.66-2.18 1.68h-4.3c-.7 0-1.35-.16-1.47-.98-.05-.28-.07-.6-.07-.95v-5.2c0-.32 0-.82.14-1.15.15-.32.38-.53.7-.63.22-.08.5-.06.75-.08l.3-.01h3.46c.18 0 .49.02.9.07.84.09 1.37.57 1.56 1.43.23 1 .2 2.58-1.04 2.87a.14.14 0 0 0-.06.04Zm-4.45-.8a.04.04 0 0 0 0 .03.04.04 0 0 0 .03.01h2.06c.42 0 .72-.03.9-.08.22-.06.36-.2.4-.44a2 2 0 0 0 .02-.75.69.69 0 0 0-.19-.4.58.58 0 0 0-.4-.17h-2.32c-.3 0-.5.08-.5.41v1.4Zm0 1.73v1.54c.01.09.06.18.17.28l.04.02.3.06c.47.02 1.17.02 2.12 0 .46-.01.87-.16.9-.7.04-.5.06-1.04-.52-1.18a1.51 1.51 0 0 0-.3-.05 176.28 176.28 0 0 0-2.7 0l-.01.03ZM19 32.7c.34 0 .63-.09.97-.17a.03.03 0 0 1 .03.01v6.43a.03.03 0 0 1-.03.03 64.68 64.68 0 0 1-1.97-.03v-6.42a.03.03 0 0 1 .03-.02c.34.09.63.17.97.17Z" fill="#67AD44"/><path d="M25.86 40.02h.06c.28-.04.62-.02.85-.03.62-.02 1.16-.06 1.62-.11.53-.07 1.5-.2 2.37-.35 2.33-.41 3.2-.58 4.76-.79.7-.09 1.54-.15 2.5-.18.99-.03 1.99.04 3 .2 1.22.2 2.36.46 3.4.77a7.15 7.15 0 0 0 .54.14v.01c-.06.06-.13.12-.22.18-.45.27-.92.49-1.43.65a.23.23 0 0 1-.14 0 21.41 21.41 0 0 0-6.4-1.05c-.27.02-.53 0-.82 0l-1.87.1c-1.4.13-2.72.28-3.98.44-.7.1-1.69.14-2.6.19-1.06.06-2.1.03-3.16.03a2.84 2.84 0 0 1-1.2-.27c.9.07 1.81.09 2.72.07Z" fill="#99C984"/><path d="M24.76 40.46H25.93a.91.91 0 0 1 .17-.03c1.19 0 2.36-.05 3.5-.16l1.21-.1a51.05 51.05 0 0 1 3.97-.35c.3-.03.8-.01 1.1-.02a19.94 19.94 0 0 1 6.34 1.02v.02h-.02a8.81 8.81 0 0 1-4.3-.22 21.73 21.73 0 0 0-2.84-.32c-.28 0-.54-.03-.87-.03-1.21 0-2.15.03-2.82.08-.77.05-1.35.1-2.13.13a61.43 61.43 0 0 1-4.11.09c-.12 0-.25-.03-.37-.05l-.02-.01a.03.03 0 0 1 0-.04h.02Z" fill="#CCE5C0"/></svg>