<!-- by TradingView --><svg width="56" height="56" viewBox="0 0 56 56" xmlns="http://www.w3.org/2000/svg"><path fill="#F0F3FA" d="M0 0h56v56H0z"/><path d="M46.56 22.03c-1.7.68-3.23.46-4.56-.67a4.68 4.68 0 0 1 1.68-2.71c1.27-1 3.52-.98 3.78.99.1.83-.19 1.63-.9 2.39Zm-2.68-.29c.06.05.14.08.24.07.1 0 .2-.03.33-.08.12-.06.25-.13.38-.23a2.75 2.75 0 0 0 .84-1.15c.08-.26.06-.46-.05-.56a.33.33 0 0 0-.24-.08c-.1 0-.2.04-.33.09a2.75 2.75 0 0 0-1.23 1.38c-.07.26-.05.46.06.56Z" fill="#2B4583"/><path d="M42 21.36a4.17 4.17 0 0 0 4.56.67c-.67 1.2-1.78 1.71-3.33 1.56a5.02 5.02 0 0 1-1.68-.67 18.62 18.62 0 0 0-8.79-2.44.33.33 0 0 0-.3.18c-.37.71-.44 1.2-1.34 1.4a.2.2 0 0 1-.22-.25c.17-.5.38-.87.9-1.12a5.3 5.3 0 0 1 1.23-.48c3.09-.36 5.95.21 8.59 1.73.07.04.13.03.16-.05l.04-.1a.17.17 0 0 0-.06-.2c-1.6-1.05-3.4-2-5.24-2-.2 0-.2-.05-.05-.15a3.3 3.3 0 0 1 2.78-.39c.97.27 1.89 1.04 2.75 2.3ZM32.32 20c.1.17.06.26-.13.28-.67.07-1.17-.27-1.5-1-.05-.1-.02-.16.07-.18.59-.13 1.11.17 1.56.9ZM29.07 19.51c-.1-.16-.05-.25.14-.28.65-.06 1.15.27 1.48 1 .05.08.02.14-.08.16-.57.13-1.09-.16-1.54-.88ZM28 20.3c.42.31.87.42 1 .24s-.1-.57-.52-.88c-.43-.3-.87-.41-1-.23-.13.17.1.57.52.87ZM26.96 21.47c.49-.05.86-.33.83-.63-.04-.3-.46-.5-.94-.45-.5.05-.86.33-.83.63.03.3.45.5.94.45ZM30.32 21.77c.37-.36.53-.79.37-.95-.16-.17-.6 0-.96.35-.37.36-.53.79-.37.95.16.16.59 0 .96-.35ZM28.67 21.9c.37-.37.54-.8.38-.95-.15-.16-.58 0-.95.37s-.54.79-.38.95c.15.15.58-.01.95-.38Z" fill="#CF7B49"/><path d="M43.23 23.59c-.54 1.85-1.05 3.45-1.57 5.25a4.98 4.98 0 0 0 .01 2.87.15.15 0 0 1-.15.13h-1.49a.22.22 0 0 1-.2-.15l-.07-.18c-.04-.1-.1-.12-.2-.06-1.13.76-3.3.86-3.71-.78-.73-2.85 1.17-5.72 4.22-5.69h.68c.1-.01.15-.06.17-.14l.63-1.92c.53.33 1.1.55 1.68.67Zm-3.53 5.48a20.99 20.99 0 0 1 .65-2.4.14.14 0 0 0-.13-.12 2.2 2.2 0 0 0-2.28 1.32c-.43.88-.49 1.63-.16 2.25.05.08.1.13.19.17.96.4 1.66-.27 1.73-1.22ZM32.37 31.54c-.04-.1-.1-.12-.2-.07a3.2 3.2 0 0 1-2.04.51c-2.27-.27-2.1-3.02-1.37-4.58 1.17-2.49 4-2.83 6.35-1.98.04.01.08.04.1.08.01.04.02.08 0 .12-.16.59-.46 1.56-.9 2.93a5.32 5.32 0 0 0-.05 3.19.11.11 0 0 1-.06.08.1.1 0 0 1-.05.01h-1.47a.26.26 0 0 1-.26-.18l-.05-.11Zm-.08-2.47a20 20 0 0 1 .65-2.38.14.14 0 0 0-.07-.1 2.19 2.19 0 0 0-2.33 1.3c-.44.86-.49 1.61-.16 2.23.04.08.1.13.19.17.95.4 1.66-.28 1.72-1.22ZM8.9 31.47a3.2 3.2 0 0 1-2.04.51c-2.27-.26-2.1-3.02-1.37-4.58 1.17-2.49 4-2.83 6.35-1.98a.17.17 0 0 1 .1.2c-.16.58-.46 1.56-.9 2.93a5.32 5.32 0 0 0-.05 3.19.11.11 0 0 1-.06.08.11.11 0 0 1-.05.01H9.41a.26.26 0 0 1-.26-.18l-.05-.11c-.04-.1-.1-.12-.2-.07Zm.12-2.4a20.93 20.93 0 0 1 .65-2.38.14.14 0 0 0-.13-.12 2.2 2.2 0 0 0-2.28 1.31c-.43.88-.48 1.63-.15 2.24.04.08.1.14.19.17.95.4 1.66-.27 1.72-1.22ZM15.28 26.7a.2.2 0 0 0-.17.15l-1.45 5.05c-.02.07-.06.1-.12.1H11.8a.07.07 0 0 1-.06-.03.08.08 0 0 1-.01-.07l1.8-6.3a.22.22 0 0 1 .15-.16 7.96 7.96 0 0 1 3.67-.36c.17.02.23.11.18.28l-.35 1.2c-.04.17-.15.23-.31.18a3.3 3.3 0 0 0-1.6-.04ZM21.2 26.64c-.53-.13-.87.07-1.02.6l-1.31 4.67c-.02.06-.06.09-.13.09h-1.7a.08.08 0 0 1-.06-.03.08.08 0 0 1-.01-.08l1.8-6.28a.24.24 0 0 1 .15-.16c1.2-.43 2.4-.53 3.57-.3.42.1.8.1 1.15.04a6.97 6.97 0 0 1 2.03-.16c1.54.29 2.1 1.25 1.68 2.9-.36 1.37-.73 2.7-1.13 4-.01.04-.04.07-.09.07H24.4c-.04 0-.06-.03-.05-.08l1.16-4.24c.16-.58-.03-.92-.58-1.03h-.03c-.54-.14-.88.05-1.03.58l-1.26 4.5c-.05.18-.17.27-.36.27h-1.37a.19.19 0 0 1-.18-.24l1.12-4.07c.16-.58-.03-.93-.58-1.04h-.03ZM47.14 31.54c-.03-.1-.1-.12-.2-.06-.7.41-1.38.58-2.04.5-2.27-.27-2.1-3.02-1.37-4.58 1.18-2.5 4.01-2.83 6.36-1.98.04.01.07.04.1.08.01.04.02.08 0 .12-.16.59-.46 1.56-.9 2.93a5.31 5.31 0 0 0-.06 3.2.11.11 0 0 1-.06.07.1.1 0 0 1-.04.01h-1.48a.26.26 0 0 1-.26-.18l-.05-.1Zm-.06-2.47a20.8 20.8 0 0 1 .65-2.38.14.14 0 0 0-.07-.1 2.2 2.2 0 0 0-2.34 1.3c-.44.87-.49 1.61-.16 2.23.04.08.1.14.19.17.95.4 1.66-.27 1.73-1.22Z" fill="#2B4583"/><path d="M24.94 38c-.02 0-.03 0-.05-.02a.06.06 0 0 1-.02-.05v-1.87c0-.28.02-.55.06-.75.04-.2.1-.31.15-.31h.07c.05 0 .1.11.15.31.04.2.06.47.06.75v1.87c0 .02 0 .04-.02.05a.08.08 0 0 1-.06.02h-.34ZM21.82 36.72h-.62c-.15 0-.2-.07-.15-.2l.04-.1a.22.22 0 0 1 .09-.1.23.23 0 0 1 .12-.04h.99c.1 0 .17.05.2.15.03.07.03.35.01.84 0 .28-.1.46-.3.53-3.28 1.18-3.87-3.3-.37-2.75a.49.49 0 0 1 .32.2l.2.28c0 .09-.04.12-.1.1-1.53-.48-2.28-.16-2.24.94.04 1.33 2.3 1.33 2.02.3-.03-.1-.1-.15-.21-.15ZM27.85 35.16c0-.04.02-.08.05-.11a.17.17 0 0 1 .12-.05h1.12a1.74 1.74 0 0 1 1.13.42c.15.13.27.3.35.47.08.17.12.36.12.55v.11c0 .38-.17.75-.47 1.02-.3.27-.7.43-1.12.43h-1.12a.17.17 0 0 1-.12-.05.16.16 0 0 1-.05-.11v-2.68Zm.48.41.02 1.9c0 .04.02.07.04.1.03.02.06.03.1.03h.65a1.16 1.16 0 0 0 .78-.32 1.05 1.05 0 0 0 .31-.75v-.06c0-.28-.12-.54-.33-.74-.2-.2-.5-.3-.79-.3l-.64.01a.14.14 0 0 0-.1.04.13.13 0 0 0-.04.1ZM34.13 35c.07 0 .14.01.2.03.08.03.14.08.17.15l1.07 2.62v.1a.12.12 0 0 1-.07.05l-.1.04a.2.2 0 0 1-.14 0 .19.19 0 0 1-.1-.1l-.2-.5c-.04-.1-.11-.14-.21-.14a78.49 78.49 0 0 0-1.27 0c-.1 0-.17.03-.21.12l-.21.5a.19.19 0 0 1-.1.1.2.2 0 0 1-.15 0l-.1-.04a.12.12 0 0 1-.06-.06.11.11 0 0 1 0-.09l1.11-2.6a.25.25 0 0 1 .17-.15.68.68 0 0 1 .2-.03Zm-.13.7-.47 1.04a.13.13 0 0 0 .01.12l.05.05.07.01h1.03l.03-.03v-.06l-.45-1.12c-.09-.2-.18-.2-.27 0Z" fill="#CF7B49"/></svg>