<!-- by TradingView --><svg xmlns="http://www.w3.org/2000/svg" width="56" height="56"><path fill="#C5B16A" d="M0 0h56v56H0z"/><path fill-rule="evenodd" d="M26.65 13.33l.77-1.24-.76-1.2-.77 1.24.76 1.2zm1.94-1.24l.77 1.24.75-1.2-.77-1.25-.75 1.21zm1.36 2.18L42.26 34h1.36L30.7 13.08l-.74 1.19zm-.6.96L41 34h-1.4l-11-17.56.75-1.21zm-1.37 2.19L38.28 34h-20.6l8.76-14.11 1.54-2.47zm3.3-5.28L44.8 34h1.42L32.06 10.89l-.78 1.25zM45.4 35l1.24 2h-2.62l1.24 2h-2.55l1.25 2H12.1l1.24-2h-2.66l1.24-2H9.37l1.24-2H8L23.93 9l1.38 2.2L26.66 9 28 11.15 29.34 9l1.36 2.2L32.07 9 48 35h-2.59zm-1.17 0h-1.36l.62 1h1.36l-.62-1zm-2.62 0h-1.4l.62 1h1.4l-.62-1zm-2.72 0H17.06l-.62 1h23.08l-.62-1zm-24.56 0h1.49l-.62 1h-1.5l.63-1zm-2.57 0h1.4l-.63 1h-1.38l.61-1zm-.56-1l13.51-21.87-.78-1.24L9.78 34h1.43zm12.21-11.16L16.45 34h-1.49l11.67-18.76.76 1.23-.8 1.28-3.17 5.09zm2.62-8.59L13.78 34H12.4l12.92-20.91.73 1.16zm1.2.02l.76-1.24.77 1.23-.77 1.23-.77-1.22zM14.58 37l-.62 1h-1.5l.62-1h1.5zm27.5 1l-.62-1h1.4l.61 1H42.1zm-27.57 1l-.63 1h28.28l-.62-1H14.52zm1.3-2l-.62 1h25.56l-.62-1H15.82z" fill="#fff"/></svg>