<!-- by TradingView --><svg width="56" height="56" viewBox="0 0 56 56" xmlns="http://www.w3.org/2000/svg"><path fill="#F0F3FA" d="M0 0h56v56H0z"/><path d="M43.83 20.53c-.15.3-.03.64.27.78.3.14.65.02.8-.28a.58.58 0 0 0-.27-.78.6.6 0 0 0-.8.28ZM16.5 26.35l-.01.03v.02c.56.7 1.17 1.48 1.81 2.22.18.21.38.42.58.6.1.1.22.2.33.27.3.2.63.3 1 .3.03 0 .06.03.07.07v.05c-.02.06-.07.09-.12.09-.72 0-1.17 0-1.54-.02a1.61 1.61 0 0 1-.94-.39 4.75 4.75 0 0 1-.66-.7c-.48-.63-1.01-1.4-1.42-1.96-.07-.08-.14-.13-.24-.13h-.55c-.1-.01-.21-.02-.35-.01-.05 0-.07.02-.07.07v.75a230.6 230.6 0 0 0 .02.98v.25c.03.3.03.45.1.66.05.16.18.23.35.26.17.02.33.04.49.04.2 0 .17.19-.01.2a8.8 8.8 0 0 1-1.12-.02H14c-.14 0-.5-.02-.74 0H13l-.18.02h-1.86l-.22-.02a10.6 10.6 0 0 1-.92-.03c-.02 0-.04-.01-.05-.03-.03-.04-.01-.1.04-.12.06 0 .1 0 .14-.04.1-.09.05-.17 0-.3a820.9 820.9 0 0 1-.82-2.12.08.08 0 0 0-.04-.02H6.76a.07.07 0 0 0-.07.05L6.07 29l-.08.3a.76.76 0 0 0-.02.25c.02.1.08.18.19.22.12.04.32.03.44.03.06 0 .1.03.09.1-.01.06-.04.09-.1.1a2.98 2.98 0 0 1-.56-.02h-.28c-.15-.01-.49-.02-.73 0l-.36.01a5.2 5.2 0 0 1-.58 0c-.05 0-.07-.03-.08-.08v-.04c0-.05.02-.07.07-.07.2 0 .41 0 .6-.08.36-.15.52-.57.66-.9a8324.07 8324.07 0 0 0 2.65-6.58c.03-.07.1-.23.2-.24.12-.02.18.1.23.2l.14.33.59 1.45a572.19 572.19 0 0 0 1.95 4.8c.07.17.17.34.28.52.12.2.3.38.54.45.2.05.4.05.63.05l.24-.03c.2-.04.26-.2.3-.37a3.37 3.37 0 0 0 .07-.78v-1.16l.02-.18v-2.73l-.01-.2v-.98l-.01-.2c-.02-.29 0-.58-.34-.69a1.2 1.2 0 0 0-.35-.05c-.09 0-.18 0-.27-.02-.05 0-.08-.04-.07-.1 0-.05.04-.08.1-.08h.84l.36.02a11.03 11.03 0 0 0 1.07-.01l.38-.01h.68l.43.03c.33.04.63.13.92.27.34.17.6.43.76.8.34.73.16 1.58-.34 2.21-.23.3-.5.56-.82.81Zm-1.8-3.62c-.04 0-.1 0-.18.02-.05 0-.08.02-.1.06a.24.24 0 0 0-.03.12v3.05c0 .09.01.2.1.22.3.08.64.11 1 .1.15-.02.28-.05.38-.1.37-.2.58-.6.67-1 .06-.25.07-.52.05-.82-.05-.8-.46-1.45-1.3-1.64a1.63 1.63 0 0 0-.42-.02h-.17Zm-7.76 4a.04.04 0 0 0 .02.05h.02l1.9.01a.04.04 0 0 0 .03-.02.04.04 0 0 0 0-.03l-.94-2.57-.01-.02a.04.04 0 0 0-.05 0l-.01.02-.96 2.56ZM34.72 24.86a4.3 4.3 0 0 0-.59 4.54c0 .16.07.27.23.32.16.06.34.08.55.08.04 0 .08 0 .1.04.07.08-.04.15-.12.15a4.15 4.15 0 0 1-.68 0l-.28-.02c-.13 0-.43-.01-.65.01L33 30h-.42c-.06 0-.1-.04-.1-.1 0-.05.02-.08.08-.09.28-.01.54.01.67-.28.07-.14.11-.3.14-.48.11-.82.46-3.1 1.04-6.82 0-.07.06-.2.15-.22.05 0 .1 0 .12.03.05.06.1.12.14.2l.14.3a111162.53 111162.53 0 0 0 2.7 5.53c.02.03.03.03.05 0l.01-.06 2.75-5.74c.04-.08.11-.25.23-.26.06 0 .11.02.14.09l.06.18a2110.1 2110.1 0 0 0 1.04 6.9c.04.16.12.35.27.46a2.1 2.1 0 0 0 .83.17h.07l.02.02a.1.1 0 0 1 .02.1l-.02.02a.33.33 0 0 1-.15.06 5.61 5.61 0 0 1-.8-.01l-.32-.01h-.32l-.12-.02c-.2 0-.4 0-.64-.02-.08 0-.27-.03-.3-.1-.05-.12.14-.11.17-.21.03-.12.02-.2 0-.37l-.61-4.44c-.02-.1-.04-.1-.07 0l-.04.06-2.14 4.43-.25.5c-.04.07-.1.16-.17.18h-.02c-.13-.06-.22-.25-.3-.39-.42-.8-.82-1.59-1.2-2.35l-.12-.27a1481.21 1481.21 0 0 0-1.01-2.12ZM22 22.75h-.52l-.24.01-.29.01-.39.01-.5.03c-.23.02-.44.08-.57.27-.09.12-.15.26-.2.41-.03.1-.16.11-.2 0a.35.35 0 0 1 0-.15c.05-.3.12-.69.22-1.15.01-.07.05-.22.15-.19.08.03.25.11.4.12.36.04.69.06 1.07.06a8691.48 8691.48 0 0 0 4.5-.02c.2-.02.37-.05.53-.08h.08l.02.02c.04.13.03.33.02.49l-.01.4-.01.42c0 .07 0 .14-.03.2-.02.06-.04.08-.09.07-.11 0-.1-.2-.12-.33-.05-.53-.93-.58-1.3-.58h-.25c-.2-.02-.35 0-.56-.02a2.64 2.64 0 0 0-.39 0v.01a11873.83 11873.83 0 0 1 0 5.73c.02.1 0 .2.02.3.01.16.01.38.05.58a.6.6 0 0 0 .08.2c.12.18.28.19.51.21l.35.02c.04 0 .12.01.13.07.03.13-.16.13-.24.13a6.7 6.7 0 0 1-.82-.01l-.43-.02c-.15 0-.57-.01-.86.01l-.38.01a7.44 7.44 0 0 1-.56-.02c-.05-.04-.06-.08-.03-.13.02-.04.08-.04.12-.04.14 0 .28-.02.42-.05.17-.04.24-.27.26-.42l.06-.64v-5.94ZM46.63 28.98c0-.26.02-.52.04-.77 0-.1 0-.4.1-.43.09-.03.14.03.14.12.02.71.36 1.36 1.1 1.54.75.18 1.6-.07 1.82-.87.03-.1.03-.24.02-.4-.06-.6-.47-1.04-.95-1.4l-.71-.56a5.17 5.17 0 0 1-.74-.71 2.35 2.35 0 0 1-.6-1.61c0-1.12.97-1.77 2-1.87.2-.02.36-.02.5-.02a5.47 5.47 0 0 1 1.38.23l.02.02v.13l-.02.5-.01.25v.49c0 .03-.02.17-.06.2-.08.05-.16 0-.16-.08a1.28 1.28 0 0 0-.93-1.2c-.6-.16-1.43-.01-1.65.67-.1.3-.05.6.12.9l.22.26c.1.1.23.24.41.39l.6.45c.35.26.67.53.95.82.48.5.75 1.11.73 1.81a2.03 2.03 0 0 1-.75 1.58 2.76 2.76 0 0 1-1.85.58h-.15a3.56 3.56 0 0 1-1.48-.32c-.13-.07-.1-.38-.1-.48l.01-.22ZM29.02 26.04l-.02.08v2.29l.01.2c.02.31.05.62.4.73.21.08.47.09.77.09.36 0 .7 0 1.03-.12.34-.15.42-.53.48-.86l.03-.04c.06-.08.15-.03.16.06v.08c-.01.36-.05.72-.11 1.1-.03.17-.09.34-.3.35h-1.13c-.86 0-1.71-.05-2.57-.05h-.21c-.1.02-.19.01-.29.02h-.3c-.09 0-.17-.02-.16-.13 0-.06.1-.07.14-.07.66.02.71-.43.72-1l.02-.32v-.44l.01-.17v-4.17c0-.3 0-.62-.04-.92-.04-.38-.37-.46-.7-.46-.08 0-.16 0-.24-.02-.06 0-.08-.04-.06-.1 0-.05.04-.08.1-.08l1.48.02h2.6c.05 0 .2-.01.46-.05l.27-.06a.06.06 0 0 1 .06.04v.02c0 .12-.04.25-.05.38-.03.25-.05.53-.06.84a1.14 1.14 0 0 1-.05.28l-.01.01c-.05.03-.16.03-.16-.06-.02-.3-.03-.63-.4-.74a2.32 2.32 0 0 0-.78-.1c-.36.01-.71-.04-1.07-.02l-.02.01a.4.4 0 0 0-.03.15v2.54l.02.1c0 .02.02.04.04.04a670.84 670.84 0 0 1 1.5-.01c.24-.02.55 0 .72-.24a.22.22 0 0 1 .09-.06h.02c.06 0 .09.05.08.12-.05.33-.08.57-.08.72l-.05.8c0 .07-.03.1-.1.11-.06 0-.09-.02-.1-.08l-.02-.3c-.05-.42-.4-.5-.76-.5h-.27c-.35-.03-.7-.02-1.05-.02a.01.01 0 0 0-.02 0Z"/><path d="M45.14 22.38a.55.55 0 0 0-.08.19c-.03.17-.05.32-.05.46l-.01.13v5.18c0 .1 0 .18.02.25v.33c.03.3-.01.75.38.82.2.04.4.05.63.05.04 0 .1.02.12.08.02.13-.16.13-.23.13a7.67 7.67 0 0 1-.84-.01l-.41-.02h-.57l-.5.02h-.19a5 5 0 0 1-.43 0c-.08 0-.17-.02-.15-.14 0-.02.02-.04.05-.05H43c.12 0 .24-.02.36-.05.16-.03.24-.16.27-.32.03-.16.04-.32.05-.47l.02-.76.01-.16v-4.65l-.01-.16c0-.18 0-.36-.02-.55a.88.88 0 0 0-.05-.16c-.09-.26-.32-.3-.56-.31-.05 0-.11 0-.19-.02-.05 0-.08-.04-.08-.1 0-.06.08-.08.12-.09l.73.01.34.01h.68l.52-.01h.57c.03 0 .07 0 .11.04l.02.02c0 .07-.02.11-.1.12-.18.03-.54.01-.65.2Z"/><path d="M27.23 34.72c-.02-.07-.02-.11-.1-.11a603.37 603.37 0 0 1-1.25 0 213.15 213.15 0 0 0-.4 1.02c-.02.11-.02.2.1.25.06.02.17.01.24.02.03 0 .04.01.04.03v.03c0 .03-.01.04-.04.04h-.44c-.21-.02-.47 0-.63 0h-.31c-.03 0-.05-.02-.04-.05 0-.03.02-.05.05-.05.2-.01.36-.02.48-.17l.13-.21a848.12 848.12 0 0 0 1.54-3.64c.05-.06.11-.09.16-.01l.15.3 1.23 2.93c.1.24.2.47.36.64.14.15.28.14.47.16.01 0 .03 0 .04.02v.03c0 .03-.01.05-.05.05h-1.07l-.3-.01c-.03 0-.04 0-.06-.03a.03.03 0 0 1 0-.03.04.04 0 0 1 .01-.02c.09-.03.15-.04.1-.15l-.4-1.04ZM26 34.29v.02a.03.03 0 0 0 .03 0l1.01.01h.02v-.02l-.5-1.32v-.01h-.04L26 34.3ZM19.37 34v.69l.01.75.04.26c.02.09.07.15.17.17l.35.03c.04 0 .05.02.05.05 0 .03-.02.05-.05.05H18.2c-.02 0-.03-.02-.04-.03v-.05l.02-.01.02-.01.2-.01c.1-.01.16-.06.19-.16.05-.22.06-.46.05-.7v-.19l.01-1.79-.01-.57c0-.16-.04-.32-.23-.35a2.15 2.15 0 0 0-.29-.02c-.03 0-.05-.02-.04-.05.01-.04.03-.06.07-.06.22 0 .44.02.64.01.07 0 .18.02.28.01h.3c.1 0 .26-.03.4-.02.04 0 .06.02.07.04v.02a.04.04 0 0 1 0 .03l-.03.01-.2.02c-.18.02-.22.13-.24.28a1 1 0 0 0 0 .13c0 .36-.02.77-.01 1.1l.01.03.05.02h2.1c.02 0 .04-.02.04-.04v-1.21c-.01-.16-.07-.28-.26-.3a3.25 3.25 0 0 0-.3-.04.03.03 0 0 1 0-.03c.01-.04.03-.06.07-.06.22 0 .42.02.66.01l.16.01h.2c.1 0 .23 0 .36-.02h.28l.02.02.02.03c0 .04-.03.05-.07.05-.16.02-.3.02-.38.14a.6.6 0 0 0-.03.25v2.8c0 .15.01.28.03.4.02.11.1.17.2.19l.34.02c.03 0 .04.02.04.05 0 .03-.02.05-.06.05h-.37c-.2 0-.51-.02-.77 0h-.56c-.03 0-.05-.02-.06-.05 0-.03 0-.05.04-.05.08 0 .31 0 .36-.1a2 2 0 0 0 .08-.56v-.36a49.4 49.4 0 0 0-.02-.9h-2.17V34ZM31.2 35.83c.04-.02.07-.09.08-.14.03-.15.05-.28.05-.36v-.74a78.03 78.03 0 0 0 0-2.09c0-.17-.03-.33-.22-.37a1.68 1.68 0 0 0-.27-.03c-.02 0-.04 0-.04-.03v-.02c.01-.03.03-.04.06-.05l.35.01a7.53 7.53 0 0 0 1.34 0c.02 0 .03 0 .03.03v.03c0 .03 0 .04-.03.04-.11 0-.2 0-.3.02-.1.02-.16.1-.17.2l-.02.12-.02.51v1.78l.02.22c0 .15 0 .3.03.45.02.12.1.2.22.24.09.02.18.03.29.03.1 0 .2.02.32.01a9 9 0 0 0 .24-.01c.33-.03.43-.22.5-.5 0-.02.02-.03.05-.03h.01s.02 0 .02.02l.01.02c0 .25-.02.46-.07.64-.02.06-.04.14-.12.15-.17.02-.34.02-.51.01-.5-.03-1-.03-1.5-.03-.22 0-.44.02-.65.01-.04 0-.05-.02-.05-.05 0-.03.03-.05.07-.05.12 0 .2 0 .28-.04ZM36.33 35.88c.1-.01.16-.06.18-.16l.03-.23.02-.44v-2.4l-.02-.26c0-.05-.03-.17-.08-.2-.1-.08-.25-.08-.36-.09-.02 0-.04-.01-.04-.03l.02-.05a.06.06 0 0 1 .04-.01h.43c.3 0 .6.02.9 0a.7.7 0 0 1 .27.01l.02.01v.02a.03.03 0 0 1 0 .03.06.06 0 0 1-.05.03c-.16.01-.3 0-.38.13a.67.67 0 0 0-.04.26v.37a971.23 971.23 0 0 0 0 2.2l.01.46c.02.16.02.31.21.34.1.02.21.03.35.03.04 0 .05.02.05.05 0 .01 0 .02-.02.03a81.7 81.7 0 0 1-1.74.02c-.03 0-.05-.02-.05-.05 0-.03 0-.05.04-.05.07 0 .14 0 .2-.02ZM15.24 33.87l.3.28v.04l-.08.07a.03.03 0 0 1-.02.01h-.02a19.2 19.2 0 0 0-.29-.28.19.19 0 0 0-.14-.06h-.2a15934.78 15934.78 0 0 1-10.75-.02c-.03 0-.04-.01-.04-.04v-.04c0-.03.01-.04.04-.04l.6-.01h10.31c.13 0 .15-.04.24-.13l.23-.22h.04l.07.07c.02.02.02.03 0 .04l-.3.29a.03.03 0 0 0 0 .04ZM40.76 33.84l-.3-.3c-.02-.02-.02-.03 0-.05l.05-.06c.02-.02.04-.02.06 0l.32.31c.01.02.03.02.04.02l.19.01a9074.73 9074.73 0 0 1 10.83 0l.04.02.01.04v.04c0 .03-.01.04-.04.04h-.62a5006.49 5006.49 0 0 1-10.36 0 .13.13 0 0 0-.1.05l-.32.31h-.04l-.07-.07v-.04l.31-.3v-.02Z" fill="#FDC300"/></svg>