<!-- by TradingView --><svg width="56" height="56" viewBox="0 0 56 56" xmlns="http://www.w3.org/2000/svg"><path fill="#F0F3FA" d="M0 0h56v56H0z"/><path fill-rule="evenodd" d="M14.08 22.3c-.26.55-.64.81-.9 1.36l-.83 1.47c-.67 1.08-2.26 3.1-2.26 3.1-1.43 1.37-2.84 3.53-5 4.39.05-2.07 1.43-3.57 2.72-5.12 2.22-2.03 3.68-4.1 6.27-5.2Zm12.06 8.79c.93-3.44 2-4.92 3.37-7.24.39-.04.84.13.91.45 0 .11-.02.22.1.28-1.65 2-3.43 6.14-2.79 5.76.44-.26.7-.57 1.04-.95 1.77-2.02 2.28-2.82 3.7-4.96.12.04.45 0 .45 0 1.24.9-.2 1.86-.6 2.74-.7 1.57-1.54 2.59-1.8 4.17l.08.1c3.65-3.2 5.08-5.84 5.48-6.02.33-.28.48-.62.55-1 .24-.28.47-.14.72 0 .28.15.24.48.37.72-.7 1.28-.9 2.44-1.39 3.7-.42 1.1 1.27-.7 1.27-.7 1.13-1.21 2.54-2.32 3.55-3.84.43.1 1.04.15 1.36.64.4.65-.01 1.33-.4 1.92-.2.91-.65 1.8-.81 2.72a28.5 28.5 0 0 1 4.07-3.08s2.6-1.8 4-1.28c.54.12.33.71.63 1-.51 2.07-1.44 3.96-2.36 5.85.06.58-.34.97-.45 1.47-.3.59-1.04 1.87-1.1 1.82-.02.24-.3.38-.26.64-.12-.05-.1-.17-.1-.27 0 0-.03-.19 0-.27 0 0 .21-1.14.28-1.65.15-.2.3-.53.18-.73 0 0 .35-.85.27-.82.08-.37.9-1.9 1-2.38l1.36-3.57c-.33-.23-.66.07-1 .1-1.03.35-2.1.84-2.9 1.55-.42.02-3.78 3.38-5.18 4.75-.6.2-.8-.35-1-.73.56-1.38 1.37-3.96 2.05-5.3l-1.92 2.07c-1.36 1.59-2.36 2.53-3.72 3.87-.51.13-.72.17-.82-.64-.17-.96.68-3.05.98-3.84l-1.28 1.54A12.54 12.54 0 0 1 30.6 33c-.64.12-.96-.13-1.27-.64-.28-.97.26-1.87.51-2.72 0 0-.51 1.02-1.95 2.63-.26.3-1.11.5-1.56.1a.74.74 0 0 1-.23-.32c-1.98 1.03-4.43.71-6.15 1.77-.52.09-.74-.35-.9-.73v-.18c2.6-1.56 4.35-4.07 6.24-6.4l1.65-2.56c.51-.5.3-1.13-.12-1.18-1.7-.25-2.65.42-5.43.31-.27-.1-.6-.24-.7-.57-.06-.2-.25-.46-.07-.64.72.33 1.75.25 2.54.17 1.65 0 4.36-1.06 5.24.83.06 1.47-1.15 2.36-1.73 3.55-1.4 1.8-2.65 3.73-4.18 5.4.23.02.65-.04.92-.19.52-.09 2.49-.5 2.73-.53Zm-10.7-9.99c.25.16.51.59.28.92-1.61 2.82-3.36 5.85-4.59 8.84l.44-.28a42.96 42.96 0 0 0 4.22-5.06c.28-.5.77-1.5 1.2-2 .37.06.84.2.91.64-.71 1.8-1.57 3.7-2.09 5.08.28-.28.53-.71.8-1.06 1.83-2.33 1.7-2.21 4-3.97.2-.15.41-.29.7-.4.9-.32 1.7-.02 2.4.5.34.38.57.81.72 1.27-.06.25.16.85-.18 1.1-.77-.07-.53-1.05-1.09-1.46-.25-.3-.54-.51-.9-.55-1.45.3-2.88 1.9-4.28 3.56-.62.74-.88 1.23-1.44 2.02l-2.1 2.92c-.42.27-.9-.05-1.08-.46-.11-1.81 1.45-3.3 2.03-4.93.02-.09-1.35 1.77-2.2 2.65L10.9 32.9c-.35.05-.67.29-1 0-.8-.7-.22-1.69 0-2.47.04-.15.28-.5.1-.46-1.5 1.44-2.84 3.63-5 3.66-.62 0-.9-.68-1-1.28.04-1.45.9-2.64 1.55-3.75a24.37 24.37 0 0 1 4.62-4.88 15.9 15.9 0 0 1 3.54-2.34c.32-.4.97.03 1.28-.37.17-.05.45.1.45.1Z" fill="#E11F26"/></svg>