<!-- by TradingView --><svg width="56" height="56" viewBox="0 0 56 56" xmlns="http://www.w3.org/2000/svg"><path fill="#F0F3FA" d="M0 0h56v56H0z"/><path d="m27.52 18.55-7.14 7.15a1.47 1.47 0 1 1-2.08-2.1l8.16-8.17c.29-.29.67-.43 1.06-.43.38 0 .76.14 1.05.43l8.17 8.18a1.48 1.48 0 0 1-2.09 2.09l-7.13-7.15ZM6.2 35H6v-8h44v8H6.2Zm.2-.38h43.2v-7.24H6.4v7.24Z" fill="#0078B6"/><path d="M47.25 32.5c-.44.31-1.06.5-1.75.5-.7 0-1.32-.2-1.76-.5-.53-.39-.8-.89-.8-1.5s.28-1.1.81-1.49A3.03 3.03 0 0 1 45.5 29a3 3 0 0 1 1.74.51 1.78 1.78 0 0 1 0 2.99Zm-.48-2.57a2.27 2.27 0 0 0-1.27-.36c-1.1 0-1.87.6-1.87 1.43 0 .82.73 1.43 1.87 1.43 1.14 0 1.86-.59 1.86-1.43 0-.44-.2-.8-.6-1.07ZM35.29 33c-.7 0-1.32-.2-1.76-.5-.53-.39-.8-.89-.8-1.5s.27-1.1.81-1.49a3.07 3.07 0 0 1 1.8-.51c.9 0 1.59.29 2.17.91l-.62.3c-.4-.41-.92-.64-1.6-.64-.5 0-.95.14-1.27.36-.4.27-.6.63-.6 1.07 0 .84.74 1.43 1.87 1.43.86 0 1.47-.35 1.72-.98h-1.86v-.56h2.69v.05c0 1.23-1 2.06-2.55 2.06ZM40.71 31.42V33H40v-1.58L37.63 29h.89l1.84 1.87L42.19 29h.89l-2.37 2.42ZM7 28h24v6H7v-6Z" fill="#0078B6"/><path d="m12.11 32.19.46.81h1.18l-2.33-4h-1.06l-2.33 4H9.2l.46-.81h2.45Zm-1.22-2.1.68 1.18h-1.36l.68-1.17ZM25.6 29v4h4.57v-1h-3.51v-.6h2.33v-.92h-2.33V30h3.36v-1H25.6ZM16.3 33c-.52 0-.99-.05-1.4-.15-.4-.1-.77-.26-1.08-.47l-.16-.11.6-.69.14.08a3.98 3.98 0 0 0 1.91.48c.45 0 .78-.05 1-.15.23-.1.26-.2.26-.29 0-.07-.02-.12-.06-.15a.68.68 0 0 0-.28-.11 3.62 3.62 0 0 0-.54-.07l-.79-.05a10.3 10.3 0 0 1-.82-.08 2.5 2.5 0 0 1-.63-.17 1 1 0 0 1-.43-.32.87.87 0 0 1-.14-.52c0-.39.2-.7.61-.92.37-.2.9-.31 1.6-.31.88 0 1.64.18 2.25.54l.2.12-.66.64-.13-.06a4.27 4.27 0 0 0-1.72-.37c-.38 0-.67.04-.86.11-.2.08-.2.15-.2.18 0 .02 0 .1.21.16.1.03.2.06.33.07l.43.03.51.03c.19 0 .39.03.59.05.53.06.93.17 1.2.35.29.19.44.46.44.81 0 .44-.22.78-.65 1.01-.4.22-.98.33-1.72.33ZM20.97 32.87a4.15 4.15 0 0 0 2.39-.07c.39-.14.74-.37 1.05-.68l.17-.17-.92-.44-.1.1c-.2.18-.41.31-.65.39a2.8 2.8 0 0 1-.87.12c-.28 0-.52-.03-.74-.09-.21-.05-.39-.13-.54-.23-.14-.1-.24-.22-.32-.35a.94.94 0 0 1 0-.89c.08-.13.19-.25.33-.35.14-.1.32-.18.53-.24a2.97 2.97 0 0 1 1.6.03c.24.08.46.2.65.38l.09.08.98-.3-.18-.2a2.72 2.72 0 0 0-1.05-.72A3.85 3.85 0 0 0 22 29c-.35 0-.7.04-1.01.13-.32.08-.6.2-.84.36-.6.39-.89.88-.89 1.5 0 .63.3 1.14.88 1.52.24.15.52.28.84.36Z" fill="#fff"/></svg>