<!-- by TradingView --><svg width="56" height="56" viewBox="0 0 56 56" xmlns="http://www.w3.org/2000/svg"><path fill="#F0F3FA" d="M0 0h56v56H0z"/><rect x="24" y="12" width="8" height="3" rx="1.5" fill="#E41F26"/><rect x="23" y="15.5" width="10" height="3" rx="1.5" fill="#E41F26"/><rect x="15" y="33.5" width="11" height="3" rx="1.5" fill="#E41F26"/><rect x="30" y="33.5" width="11" height="3" rx="1.5" fill="#E41F26"/><rect x="13" y="36.87" width="10" height="3.13" rx="1.56" fill="#E41F26"/><rect x="33" y="36.87" width="10" height="3.13" rx="1.56" fill="#E41F26"/><rect x="21" y="19" width="14" height="3" rx="1.5" fill="#E41F26"/><rect x="8" y="26" width="30" height="3" rx="1.5" fill="#ADB1B2"/><rect x="16" y="30" width="30" height="3" rx="1.5" fill="#ADB1B2"/><rect x="19" y="22.5" width="7" height="3" rx="1.5" fill="#E41F26"/><rect x="30" y="22.5" width="7" height="3" rx="1.5" fill="#E41F26"/></svg>