<!-- by TradingView --><svg width="56" height="56" xmlns="http://www.w3.org/2000/svg"><path fill="#F93441" d="M0 0h56v56H0z"/><path d="M14.5 36.683c0 .207-.08.317-.261.317h-.976c-.175 0-.263-.104-.263-.315v-5.367c0-.21.083-.316.263-.316h.973c.176 0 .264.1.264.316v5.365zm1.5-.003v-.857c0-.215.085-.324.26-.324h4.19c.076 0 .114-.025.13-.088a.152.152 0 00-.093-.185c-.097-.039-3.39-1.17-3.53-1.227-.688-.282-.947-.814-.947-1.466 0-.825.456-1.532 1.515-1.532h4.217c.18 0 .258.1.258.311l-.003.865c0 .217-.082.323-.255.323h-4.17c-.084 0-.125.02-.137.078-.014.06-.01.143.09.18.126.048 2.887.982 3.395 1.183.783.308 1.077.75 1.077 1.58 0 .991-.56 1.46-1.523 1.475-.363.006-4.211 0-4.211 0-.184.001-.263-.084-.263-.316zm20 0v-.857c0-.215-.085-.324-.26-.324h-4.19c-.076 0-.114-.025-.13-.088a.152.152 0 01.093-.185c.097-.039 3.39-1.17 3.53-1.227.688-.282.947-.814.947-1.466 0-.825-.456-1.532-1.515-1.532h-4.217c-.18 0-.258.1-.258.311l.003.865c0 .217.082.323.255.323h4.17c.084 0 .125.02.137.078.014.06.01.143-.09.18-.126.048-2.887.982-3.395 1.183-.783.308-1.077.75-1.077 1.58 0 .991.56 1.46 1.523 1.475.363.006 4.211 0 4.211 0 .184.001.263-.084.263-.316zM46.23 22c.217 0 .324.098.324.314v3.284c0 .564.219.883 1.01.908h.892c.79-.025.988-.344.989-.908v-3.284c0-.213.08-.314.31-.314l.924.002c.223 0 .321.102.321.315v3.684c0 .988-.169 1.957-2.1 1.989-.953.016-.904.01-1.858 0C45.22 27.969 45 26.947 45 26v-3.684c0-.21.097-.313.32-.313l.91-.001zm-22 9c.217 0 .324.097.324.313v3.284c0 .563.219.883 1.01.908h.892c.79-.025.988-.345.989-.908v-3.284c0-.213.08-.314.31-.314l.924.002c.223 0 .321.102.321.315V35c0 .989-.169 1.957-2.1 1.989-.953.016-.904.01-1.858 0C23.22 36.968 23 35.946 23 34.999v-3.684c0-.21.097-.313.32-.313l.91-.001zm14 0c.217 0 .324.097.324.313v3.284c0 .563.219.883 1.01.908h.892c.79-.025.988-.345.989-.908v-3.284c0-.213.08-.314.31-.314l.924.002c.223 0 .321.102.321.315V35c0 .989-.169 1.957-2.1 1.989-.953.016-.904.01-1.858 0C37.22 36.968 37 35.946 37 34.999v-3.684c0-.21.097-.313.32-.313l.91-.001z" fill="#fff"/><path d="M44 26.792a.298.298 0 00-.304-.299l-.24.007h-.893c-.79-.026-1.009-.345-1.009-.908v-3.278c0-.216-.107-.313-.323-.313h-.912c-.222 0-.319.103-.319.313v3.68c0 .945.22 1.966 2.042 1.987.664.007.453.018.453.018.404-.004.808-.006 1.213-.014a.298.298 0 00.292-.299v-.894z" fill="#fff"/><path fill-rule="evenodd" d="M34.5 22a1.5 1.5 0 00-1.5 1.5v3a1.5 1.5 0 001.5 1.5h3a1.5 1.5 0 001.5-1.5v-3a1.5 1.5 0 00-1.5-1.5h-3zm.8 1.5a.8.8 0 00-.8.8v1.4a.8.8 0 00.8.8h1.4a.8.8 0 00.8-.8v-1.4a.8.8 0 00-.8-.8h-1.4zM30.5 22h-4.2a.3.3 0 00-.3.3v5.4a.3.3 0 00.3.3h4.2a1.5 1.5 0 001.5-1.5v-3a1.5 1.5 0 00-1.5-1.5zm-.8 1.5h-1.9a.3.3 0 00-.3.3v2.4a.3.3 0 00.3.3h1.9a.8.8 0 00.8-.8v-1.4a.8.8 0 00-.8-.8zm-9.146 4.186c0 .215-.107.312-.323.312h-.912c-.222 0-.319-.103-.319-.313v-3.68c0-.945.22-1.966 2.042-1.987.664-.007 1.453-.018 1.453-.018s-.258.007.405.018c1.931.032 2.1.999 2.1 1.986v3.678c0 .213-.098.315-.32.315l-.925.002c-.23 0-.31-.1-.31-.313V26h-2.89l-.001 1.686zm0-3.186h2.89v-.093c0-.563-.198-.882-.988-.907h-.893c-.79.025-1.009.344-1.009.907v.093zm-14 3.186c0 .215-.107.312-.323.312H5.32c-.223 0-.32-.103-.32-.313v-3.68c0-.945.22-1.966 2.042-1.987.664-.007 1.453-.018 1.453-.018s-.258.007.405.018c1.931.032 2.1.999 2.1 1.986v3.678c0 .213-.098.315-.32.315L9.754 28c-.23 0-.31-.1-.31-.313V26h-2.89l-.001 1.686zm0-3.186h2.89v-.093c0-.563-.198-.882-.988-.907h-.893c-.79.025-1.009.344-1.009.907v.093z" fill="#fff"/><path d="M13.055 22a1 1 0 01.744.331l2.701 3.006V22.3a.3.3 0 01.3-.3h.9a.3.3 0 01.3.3v5.4a.3.3 0 01-.3.3h-.76a1 1 0 01-.737-.325L13.5 24.72v2.98a.3.3 0 01-.3.3h-.9a.3.3 0 01-.3-.3v-5.4a.3.3 0 01.3-.3h.755z" fill="#fff"/></svg>