<!-- by TradingView --><svg width="56" height="56" viewBox="0 0 56 56" xmlns="http://www.w3.org/2000/svg"><path fill="#F0F3FA" d="M0 0h56v56H0z"/><path d="M28 45a16.5 16.5 0 0 1-9.69-3h19.37c-2.77 1.96-6.03 3-9.68 3Zm13.47-27.36a16.97 16.97 0 0 1-3.4 24.06l3.56-17.67-.07-.03h-2.93c-.05 0-.11.05-.14.09a9.15 9.15 0 0 1-2.38 1.94 16.24 16.24 0 0 1-6.8 1.87c-1.3.09-2.58.04-3.86-.13-1.6-.21-3.15-.61-4.63-1.28a9.97 9.97 0 0 1-3.3-2.42c-.03-.05-.12-.07-.2-.07H14.4c1.2 5.88 2.38 11.85 3.57 17.72a16.97 16.97 0 0 1-3.54-23.94c.33 1.75.66 3.3 1 5.06.02.13.06.16.2.16h2.12c.2 0 .35.05.47.22.12.17.27.51.41.67l.03-.02-1.53-8.02-1.2.18A16.95 16.95 0 0 1 28 11c4.45 0 8.5 1.7 11.52 4.5l-.66-.07-.24 1.17 1.45.1-.82 6.3h.93c.14 0 .18-.05.2-.17l.97-4.63.12-.56Zm-7.77-1.01.07-1.1-3.03-.08-.78 11.48h.17c.92-.11 1.81-.3 2.7-.53.17-.05.22-.13.23-.3l.14-2.2.28-4.08.22-3.2Zm-8.59 10.2v-.18c0-.94-.02-1.88-.03-2.81L25 15.12c0-.23 0-.22-.23-.23l-1.55-.09-.9-.04v.1l.34 2.96c.16 1.35.3 2.7.47 4.05l.5 4.35c.03.3.03.3.31.36l1.18.25Zm4.36-3.18.28-4.15.3-4.48c0-.14.04-.18.18-.18h1v-.64h-3.01c-.15 4.27-.3 8.55-.43 12.81h1.36c.03 0 .09-.09.1-.13l.22-3.23Zm-2.4 3.38.38-11.23H25.7l.12 11.12 1.24.11Zm-4.17-.72v-.14c-.1-.77-.18-1.54-.27-2.32l-.5-4.38-.45-3.79-.17-1.57h-.16c-.04 0-.07.02-.1.03l-1.92.16-.86.08.2 1.74 1.84-.19c.05.37.1.7.13 1.05l.47 3.91.56 4.72c.02.2.08.3.27.36.32.1.63.22.96.34Zm11.5-.6.45-3.51.64-4.88.13-.93.79.05.23-2.02-3.02-.13-.08.65h.99l-.76 11.14.47-.18c.1-.03.14-.08.16-.2ZM38.53 23l.75-5.75-3.03-.22-1.1 8.45.09-.04a8.47 8.47 0 0 0 2.68-2.33c.07-.09.14-.12.25-.11h.36Zm-18.15 2.22.57.31-1.07-8.93-1.85.2.04.2 1.28 6.76c.06.31.07.67.24.92.17.24.51.37.79.54ZM18.98 31h1.1l2.04 5H21l-.45-1.18H18.5L18.08 36h-1.1l2-5Zm-.16 3h1.4l-.7-1.78-.7 1.78Zm3.46-2.46.98-.58V32H24v.72h-.74v1.83c0 .3.01.48.02.53.02.05.05.09.1.12.04.04.1.05.16.05.09 0 .22-.03.4-.1l.07.77c-.22.1-.48.15-.77.15-.18 0-.34-.03-.48-.1a.7.7 0 0 1-.31-.22.91.91 0 0 1-.14-.39 4.77 4.77 0 0 1-.03-.69v-1.95h-.45V32h.45v-.46Zm3.29 2.26c.45-.08.77-.16.95-.24v-.29c0-.37-.15-.52-.67-.52a.7.7 0 0 0-.4.1.72.72 0 0 0-.24.37l-.9-.17c.1-.35.28-.62.52-.8.25-.16.61-.25 1.1-.25 1.17 0 1.55.47 1.55 1.62v1.14A2.21 2.21 0 0 0 27.7 36h-.98l-.09-.3-.03-.12c-.17.16-.35.28-.54.36-.2.08-.4.13-.61.13-.39 0-.69-.1-.9-.32-.23-.2-.34-.47-.34-.78 0-.21.05-.4.15-.56.1-.17.24-.3.43-.38.18-.09.44-.16.78-.23Zm.95.6v-.2c-.13.04-.33.1-.6.15a1.8 1.8 0 0 0-.53.17.4.4 0 0 0-.2.35c0 .13.06.25.16.35.1.1.23.15.39.15.18 0 .35-.05.5-.17.13-.09.2-.2.24-.33.03-.08.04-.24.04-.47ZM28 31h1v2.14L31.16 31h1.4l-1.93 1.86L32.66 36h-1.34l-1.4-2.42-.92.85V36h-1v-5Zm7.48 1.54c.32.36.47.92.45 1.68h-2.45c0 .51.18 1.11.8 1.11.3 0 .52-.16.62-.53l.98.17c-.25.71-.8 1.1-1.61 1.1-1.26 0-1.8-.95-1.8-2.11 0-.61.16-1.1.48-1.44.32-.35.73-.53 1.22-.53.55 0 .99.19 1.3.55Zm-1.99 1.07h1.47c0-.28-.08-.5-.22-.64a.67.67 0 0 0-.51-.23c-.21 0-.39.08-.53.24a.9.9 0 0 0-.2.63Zm4.85 2.23-.23.65c-.09.21-.17.38-.25.5-.07.1-.16.2-.26.27s-.23.13-.38.17a2.6 2.6 0 0 1-1.06 0l-.08-.77c.15.03.29.04.41.04.23 0 .4-.06.51-.2.1-.13.2-.3.25-.5l-1.4-4h1.03l.9 2.9.86-2.9h1.01l-1.3 3.84Z" fill="#9A8543"/></svg>