<!-- by TradingView --><svg width="56" height="56" viewBox="0 0 56 56" xmlns="http://www.w3.org/2000/svg"><path fill="#F0F3FA" d="M0 0h56v56H0z"/><path d="M27 20a860.7 860.7 0 0 1 5.98.02l.02.04v3.3a.09.09 0 0 1-.09.08H29.1a.1.1 0 0 0-.1.06.1.1 0 0 0 0 .04v12.38c0 .02 0 .04-.02.05a344.16 344.16 0 0 1-3.96 0c-.02 0-.02-.03-.02-.05V23.54l-.04-.07a.1.1 0 0 0-.07-.03h-3.8c-.02 0-.05 0-.06-.02a.09.09 0 0 1-.03-.06v-3.3s0-.02.02-.03A876.25 876.25 0 0 1 27 20Z" fill="#6E6F72"/><path d="M11.7 36H8.09a.08.08 0 0 1-.07-.03.07.07 0 0 1 0-.07l6.22-15.84.03-.04.05-.01h3.63a.08.08 0 0 1 .06.03.07.07 0 0 1 .01.07l-6.23 15.84-.03.04a.08.08 0 0 1-.04 0Z" fill="#E37738"/><path d="M22.6 36h-3.7a.06.06 0 0 1-.02-.04l-3.25-8.27v-.04l1.83-4.67.02-.02a.06.06 0 0 1 .07 0l.02.02 5.1 12.94v.03a.06.06 0 0 1-.04.04l-.02.01ZM41.15 20c1.29 0 2.37.28 3.27.86a5.09 5.09 0 0 1 1.23 7.88 5.69 5.69 0 0 1-2.93 1.7c-.62.14-1.54.2-2.76.18l-.88-.01a.1.1 0 0 0-.06.02l-.02.03V35.93c0 .02-.02.04-.03.05a.08.08 0 0 1-.05.02h-3.8a.12.12 0 0 1-.09-.03.1.1 0 0 1-.03-.07V20.13a.1.1 0 0 1 .04-.08.13.13 0 0 1 .08-.04l6.03-.01Zm-2.1 3.44a.07.07 0 0 0-.04.04v.03L39 27.1c0 .02 0 .04.02.06l.06.02h2.1a1.8 1.8 0 0 0 1.68-1.12c.1-.23.14-.46.14-.7v-.08a1.84 1.84 0 0 0-1.82-1.83h-2.13Z" fill="#6E6F72"/></svg>