<!-- by TradingView --><svg width="56" height="56" viewBox="0 0 56 56" xmlns="http://www.w3.org/2000/svg"><path fill="#F0F3FA" d="M0 0h56v56H0z"/><path d="m28 11 .63.01A24.72 24.72 0 0 1 47 19.96h-.01A27.88 27.88 0 0 0 40.9 16 29.82 29.82 0 0 0 28 13.1c-4.46 0-8.88.97-12.9 2.9A27.87 27.87 0 0 0 9 19.97v-.01A24.72 24.72 0 0 1 28 11Z" fill="#C3A572"/><path d="M26.22 31.58c.23-.01.42-.15.42-.38a3231.72 3231.72 0 0 0-.02-9.2h-3.77c-.24 0-.4.02-.58.12-.17.09-.2.25-.21.42v.01H21.62l-.01-.01v-3.06H22.05a.02.02 0 0 1 .02.01v.01c0 .19.06.34.24.43.13.07.25.07.35.07h10.71c.1 0 .2 0 .33-.05.21-.1.25-.25.27-.46l.02-.01H34.39v3.07H33.96c0-.23-.07-.38-.3-.47a.94.94 0 0 0-.35-.07 3952.65 3952.65 0 0 1-3.93 0v9.15c0 .33.22.4.51.42h.01V32H26.2V31.59h.01ZM12.63 31.6v.4H9.22V31.59a.7.7 0 0 0 .44-.24c.15-.2.3-.44.45-.74l4.27-8.52.4-.78c.15-.26.27-.64-.08-.79a2.25 2.25 0 0 0-.3-.11v-.4l.02-.01H18.45a.02.02 0 0 1 .01.02v.4h-.01l-.25.09c-.15.06-.23.15-.24.3 0 .17.04.34.13.51l5.26 9.78c.06.12.2.22.34.3a5.63 5.63 0 0 0 .4.2v.4H19.84V31.59h.01a.7.7 0 0 0 .29-.11c.1-.08.1-.22.06-.35a1.66 1.66 0 0 0-.13-.33c-.05-.1-.36-.72-.94-1.79h-5.85l-.88 1.64a2.02 2.02 0 0 0-.24.7c.03.2.27.24.44.23a.02.02 0 0 1 .01 0v.01l.01.01Zm3.63-8.47h-.01L14 27.33v.01h4.24v-.01l-1.99-4.2ZM35.3 31.58a.02.02 0 0 1 .02 0V32h-3.4a.02.02 0 0 1-.01-.01v-.4h.01a.7.7 0 0 0 .43-.24c.15-.2.3-.44.45-.74l4.27-8.52c.15-.31.25-.48.41-.78.14-.26.26-.64-.08-.79a2.25 2.25 0 0 0-.3-.11v-.4l.01-.01h4.04a.02.02 0 0 1 0 .02v.4l-.26.09c-.15.06-.22.15-.23.3-.01.17.03.34.12.51l5.26 9.78c.07.12.2.22.34.3a5.63 5.63 0 0 0 .4.2v.4H42.55V31.59a.7.7 0 0 0 .3-.11c.1-.08.09-.22.05-.35a1.66 1.66 0 0 0-.13-.33c-.05-.1-.36-.73-.94-1.8H35.97l-.86 1.65a2.02 2.02 0 0 0-.24.7c.02.2.27.24.43.23Zm3.65-8.45h-.01l-2.24 4.2.01.01h4.24v-.01l-2-4.2Z" fill="#011689"/><path d="M17 35a394.76 394.76 0 0 1 2 .02V35.72h-1.52V42a39.32 39.32 0 0 1-.96 0v-6.26h-1.5l-.01-.01-.01-.02V35.01h.02L17 35ZM23.06 35h.92a.03.03 0 0 1 .01 0v5.47c0 .15-.04.34-.12.55-.31.8-1.22 1.05-2.2.96-.78-.06-1.3-.38-1.53-.93a1.74 1.74 0 0 1-.14-.7 1344.62 1344.62 0 0 1 .01-5.35H21v5.38c0 .57.34.96 1.13.9.68-.03.87-.44.87-.9v-5.36l.04-.01.02-.01ZM28 38.44l.15.04c.51.16.84.69.85 1.21v1.79c0 .18.04.35.1.5V42h-.98l-.01-.02c-.07-.21-.1-.44-.1-.69v-1.56c0-.2-.05-.36-.14-.5-.16-.27-.48-.37-.84-.38H26V42H25l-.01-.01V35l.01-.01H27c.64 0 1.36.1 1.71.59.33.45.27.96.27 1.52 0 .1-.01.23-.04.37-.1.45-.38.8-.93.94v.02Zm-2-.32h1.03c.43-.01.78-.18.9-.53.04-.11.06-.22.06-.34v-.67c0-.36-.14-.72-.62-.82-.1-.03-.19-.04-.27-.04h-1.12l.02.01v2.4ZM35.46 42H32v-.71l2.35-5.55v-.01l-.02-.01H32.11V35h3.35l.01.01v.68l-2.33 5.57v.01l.01.01h2.31l.01.01v.7l-.01.01ZM40 37.33l-1.15 4.66-.01.01h-.76L37 37.32V42h-.99l-.01-.01V35l.01-.01h1.3v.01l1.18 5.53h.01l1.17-5.53.02-.01h1.3l.01.02v6.97l-.01.01H40v-4.67ZM30.99 35H30l-.01.01v.98l.01.01H31l.01-.01v-.98l-.01-.01ZM30.98 37h-.96l-.02.01V42l.02.01h.96l.02-.01V37l-.02-.01Z" fill="#C3A572"/></svg>