<!-- by TradingView --><svg xmlns="http://www.w3.org/2000/svg" width="56" height="56"><path fill="#F0F3FA" d="M0 0h56v56H0z"/><path fill-rule="evenodd" d="M18.62 39.88c.11.34.12.95-.26 1.07-.47.16-1.34 2.6 2 2.5 2.96-.08 2.5-2.27 2.27-3.34a5.86 5.86 0 01-.06-.35c-.1-.16-.33-.48-.53-.48-.25 0-2.92.33-3.42.6zm1.62.99c.22 0 .4-.15.4-.34 0-.18-.18-.33-.4-.33-.23 0-.41.15-.41.33 0 .19.18.34.4.34zM18.42 42c.14-.7.75-.53 1.04-.36v.83c-.4.14-1.18.24-1.04-.47zm1.45.77V41.7c.12-.16.45-.4.78 0 .06.27.23.8.47.8-.01-.4 0-1.2.2-1.31.24-.15 1.01-.07 1 .62-.03.69-1.11 1.48-2.45.96z"/><path fill-rule="evenodd" d="M41.5 29.27a8 8 0 00-.87 3.95 7.17 7.17 0 01-.89-2.18l-2.02 2-1.3 7.36a4.65 4.65 0 000 1.49c.63.92 1.2 2.74-1.67 2.57-3.46-.2-2.34-2.28-2.19-2.55l.01-.02c.07-.14.63-2.42-.44-1.98-.86.35-.77 1.46-.61 1.98.14.13.41.57.37 1.2-.04.8-.77 1.86-2.57 1.9-1.8.05-2.81-.74-2.9-1.76-.08-.81.78-1.8 1.22-2.18.32-.76.14-1.53 0-1.81l-.4-.8-.58-7.22c-.05-.6-.67-.55-.98-.46-.73.17-2.23 1.23-2.37 4.07-.14 2.84 2.83 4.46 4.33 4.92-.4.65-1.96 1.14-2.77.93-5.64-1.42-6.12-8.18-5.77-11.4-2.31 1.32-3.58 1.27-3.93 1.08 2.27-1.74 2.95-3.93 3-4.8-.5-.33-.67-1.17-.69-1.55-.8.28-2.13-.98-1.67-1.6.37-.51.34-1.67.29-2.18-.23-.69-.56-2.22 0-2.87.55-.64.77-1.75.8-2.23.14-2.84 3.94-4.16 5.29-3.97 1.22.18 1.5.15 2.32.06.54-.06 1.3-.14 2.73-.21 3.58-.17 5.13 2.52 5.25 3.26.11.75.8 2.46 3.23 3.55 1.94.87 3.58 2.26 4.21 3.27 2.02 3.2 2.6 6.18 1.56 8.18zM22.44 13c-.56-.24-1.72-.51-1.86.31.04.18.46.36 1.86-.3zm-4.81 3.8c-.07-.62-.05-2 .55-2.56.74-.7 1.13-.39 1.15-.27V14c.04.1.1.29-.76 1.3-.51.6-.57.98-.6 1.2-.04.21-.05.3-.34.3zm-.84 2.43c.08-.6.67-.93.96-1.03-.33.79-.2 1.4-.02 2.35l.02.1c.15.8-.07 1-.2 1-.29-.56-.84-1.83-.76-2.42zm9.24-6c.5-.07 1.64 0 2.15.88.52.88.62 2 .61 2.44-.15-.32-.57-1.01-1.08-1.26-.5-.25-.75-.9-.82-1.18-.04-.16-.26-.55-.86-.88zm3.91.1a2.36 2.36 0 00-1.62-.85c-.28.12-.12.3 0 .39.4.15 1.26.64 1.62 1.35.45.9.79 1.28.9 1.07.12-.21-.11-1.09-.9-1.96zm3.33 7.4a10.1 10.1 0 01-1.04-3.42c-1.19 1.35-.98 2.38-.72 2.73.24.32.72 1.09.72 1.65 0 .54-.08.58-.93 1.02l-.97.51c-1.4.77-1.34 1.67-1.13 2.03-.14-.24.06-.83 1.92-1.3 2.34-.57 2.85-1.31 2.81-1.83a3.61 3.61 0 00-.66-1.38zm-16.62.34zm-.02.04c.02.08.14.28.5.73.53.62.34.92.19 1-1.06-.08-.9-1.16-.69-1.73zm1.39.52c.1-.08.37-.17.68.16.32.32.93.9 1.2 1.14.02.13.03.41-.16.52-.19.11-.5-.04-.63-.13l-1.1-1.2c-.09-.1-.23-.32 0-.49zm7.68-.23c-.72.15-.92 1.23-.94 1.74.57.1.86-.41.94-.68.75.05 1.1-.31 1.2-.5h-.6c0-.17.4-.45.6-.56-.1-.07-.48-.16-1.2 0zm2.6-.91c-.27.02-.9.2-1.21.75v1.83c-.17.35-.4 1.14 0 1.47.4.33.38-.23.31-.54 0-.22.07-.7.35-.93.29-.24.03-.73-.13-.95v-.76c.23-.12.68-.45.68-.87zm-9.83 6a7.04 7.04 0 01-2.29 3.44c1.08 0 2.78-.93 2.86-1.69.06-.6-.36-1.41-.57-1.74zm6.72 3.63c.22-.7.63-2.41.57-3.54-.01-.2.04-.62.37-.66.33-.05.39.42.37.66.04.9-.17 2.86-1.3 3.54zm2.84-2.28c.9.91 1.89.8 2.26.62-.4 0-1.68-1.6-2.26-2.4 0-.9-.35-1.11-.53-1.11-.8-.02-.86.5-.86.77s.25.97 1.39 2.12zm4.93.14c.23.2.58.86.1 1.8v3.27H34c-.2-.51-.52-1.65-.18-2.1l.2-.25a3.52 3.52 0 00.94-2.72h-.43c.09.55.03 1.8-.92 2.42v-.62c.2-.56.33-1.7-.65-1.8zm4.84 3.1c-.52.46-.51 1.27-.44 1.62l2.42-2.72.59 1.1.22-3.67c.04-.45.01-1.36-.34-1.39-.36-.03-.46.6-.47.91-.26 2.67-1.3 3.57-1.95 4.14l-.03.02zm-17.57.31c.16 0 .3-.08.3-.2 0-.1-.14-.2-.3-.2-.17 0-.3.1-.3.2 0 .12.13.2.3.2zm.3 2.02c0 .11-.14.2-.3.2-.17 0-.3-.09-.3-.2 0-.1.13-.2.3-.2.16 0 .3.1.3.2zm-.19 1.41c.23 0 .41-.09.41-.2 0-.1-.18-.2-.4-.2-.24 0-.42.1-.42.2 0 .11.18.2.41.2zm.7.8c0 .1-.18.19-.4.19-.23 0-.41-.09-.41-.2 0-.1.18-.2.4-.2.23 0 .42.1.42.2zm0 1.08c.23 0 .42-.08.42-.2 0-.1-.19-.2-.41-.2-.23 0-.41.1-.41.2 0 .12.18.2.4.2zm.83.78c0 .1-.19.2-.41.2-.23 0-.41-.1-.41-.2 0-.11.18-.2.4-.2.23 0 .42.09.42.2zm.11.98c.23 0 .41-.1.41-.2 0-.11-.18-.2-.4-.2-.23 0-.42.09-.42.2 0 .1.19.2.41.2zm1.12.49c0 .1-.18.2-.4.2-.23 0-.41-.1-.41-.2 0-.11.18-.2.4-.2.23 0 .41.09.41.2zm11.35 2.85c.23 0 .41-.1.41-.2 0-.11-.18-.2-.4-.2-.23 0-.42.09-.42.2 0 .1.19.2.41.2zm2.1 1.22c0 .2-.08.37-.19.37-.1 0-.18-.16-.18-.37 0-.2.08-.38.18-.38.1 0 .19.17.19.38zm-13.04-3.24c.23 0 .41-.09.41-.2 0-.1-.18-.2-.4-.2-.23 0-.42.1-.42.2 0 .11.19.2.41.2zm5.5.25c-.27 0-.8.23-.74 1.2.25.16.74.15.74-1.2zm.18 1.67c-.33-.03-1.03.02-1.2.4.26.09.87.13 1.2-.4zm-2.26 2.09c.02-.4.5-.65.72-.72.3.24.84.8.57 1.15-.34.44-1.33.06-1.3-.43zm2.75.8c-.33.1-1 .1-.97-.6.03-.68.4-.64.59-.54.06.1.23.48.38 1.14zm.23-1.08c-.04.64.68.65 1.05.57.11-.6-.14-.97-.28-1.08-.24-.1-.72-.14-.77.5zm4.28.33c-.06-.44-.31-1.31-.8-1.28-.63.03-.61.73-.5.9.1.15.65.54 1.3.38zm.9-1.2c.53-.04.64.78.63 1.2-.4.11-1.19.27-1.24 0-.07-.33-.04-1.14.62-1.2zm-1.22-2.06c-.15-.03-.44-.02-.46.32-.03.43.53-.13.46-.32z"/><path d="M27.4 39.67s-5.1-1.75-3.9-6.25c0 0 5.6-.28 15.83.5.2.04.45.16.68.39.31.32.56.85.46 1.69a7.21 7.21 0 01-1.04 2.73c-.2.34-.34.59-.36.73v1.68a56.55 56.55 0 00-11.67-1.47z" fill="#F0F3FA"/><path fill-rule="evenodd" d="M23.65 33.6a4.34 4.34 0 001.48 4.49 7.63 7.63 0 002.28 1.38h.03l.56.01c.62-.01 1.42-.08 2.34-.15l1.9-.15c1.57-.1 3.32-.17 5.07-.07-.38-.48-.58-1.25-.4-2.45.19-1.4.74-2.14 1.39-2.47.1-.06.22-.1.33-.14-4.78-.35-8.5-.46-11.05-.48a98.12 98.12 0 00-3.93.04zm16.25.87a1.8 1.8 0 00-1.43.05c-.5.26-1 .88-1.2 2.2-.2 1.5.2 2.16.65 2.43l1.02.1a1.99 1.99 0 01.16-.32c-.24-.01-.5-.08-.75-.23-.4-.25-.7-.7-.75-1.45a2.7 2.7 0 01.74-2.07c.21-.21.43-.37.61-.45a.83.83 0 01.26-.08h.15c.05.03.11.06.14.14.1.22.72 1.61-.47 2.8l-.08.07-.1-.02c-.26-.05-.54-.36-.44-.98l.37.06c-.04.25 0 .39.05.46l.02.04c.8-.88.49-1.85.35-2.19a1.82 1.82 0 00-.58.4c-.36.38-.7.98-.64 1.8.04.64.3.98.57 1.15.26.16.55.2.77.18.36-.63.83-1.52.96-2.59.1-.75-.12-1.22-.38-1.5zm-2.09 5.05c.36.18.75.2 1.07.17v1.2a57.1 57.1 0 00-7.9-1.23l1.3-.1a37.6 37.6 0 015.53-.04zm-9.81.34c4 .08 9.13.93 11.02 1.46l.24.07v-1.92c.01-.03.03-.1.1-.21l.2-.37.04-.07a7.4 7.4 0 001.06-2.8c.11-.89-.16-1.48-.52-1.85a1.6 1.6 0 00-.77-.44h-.02c-5.12-.4-9.09-.52-11.77-.54a98.87 98.87 0 00-4.02.04h-.06l-.15.01-.03.14a4.72 4.72 0 001.56 4.99 8.01 8.01 0 002.44 1.47h.02l.06-.17-.06.17.02.01h.03c.18.01.39.02.6.01z"/><path d="M13.9 38.03l.67-2.8.72-.08 1.27 2.61-.8.14-.17-.44-.8.08-.05.49h-.83zm1.12-1.94l-.19.97.58-.07-.39-.9zM30 37.47v-2.7h.81v.94l.7-.93h.9l-.9 1.2 1.03 1.47-.97.02-.76-1.07v1.07H30zm-13.07.21L16.7 35l.8-.06.09.93.61-1 .9-.07-.8 1.27 1.16 1.39-.97.09-.85-1 .1 1.06-.81.07zm9.78-2.88h-2.43v.87h.8v1.78h.83v-1.78h.8v-.88zm2.69 0h-2.15v2.65h2.14v-.7h-1.3v-.35h1.3v-.7h-1.3v-.21h1.3v-.7z"/><path fill-rule="evenodd" d="M14.64 33.63c1.5-.3 3.33-.37 4.62-.33h.15l.03.15v.01l.01.03a9.8 9.8 0 00.14.6c.1.38.26.92.47 1.49.2.57.47 1.18.8 1.71.32.54.69 1 1.11 1.29l.03.02.39.54.21.3h-.37c-2.9 0-5.64 1.56-6.63 2.33l-.2.15-.1-.22a4.6 4.6 0 01-.29-1.3 9.9 9.9 0 01-.06-.99 3.2 3.2 0 01-2-1.09 5.13 5.13 0 01-.94-2.7c-.07-.57.25-1 .73-1.31a5.73 5.73 0 011.9-.68zm.7 5.8a6.58 6.58 0 00.23 1.89 12.6 12.6 0 016.3-2.25l-.1-.14-6.44.5zm6.04-.85l-6.23.48a2.88 2.88 0 01-1.9-.98 4.76 4.76 0 01-.86-2.5c-.05-.38.14-.69.56-.96a5.37 5.37 0 011.77-.62c1.4-.29 3.11-.36 4.38-.33v.03a14.98 14.98 0 001.43 3.79c.24.4.52.79.85 1.1z"/></svg>