<!-- by TradingView --><svg xmlns="http://www.w3.org/2000/svg" width="56" height="56"><path fill="#F0F3FA" d="M0 0h56v56H0z"/><path d="M11.76 40c-.67 0-1.01-.83-.55-1.32l5-4.59c.2-.22.03-.6-.27-.56l-1.96.26a.78.78 0 01-.79-1.06l7.14-18.16c.24-.64.85-1.07 1.52-1.07.66 0 1.26.41 1.51 1.04l3.5 8.08c.2.49.2 1.03.02 1.51L20.8 40h-9.05z" fill="url(#azcwzjmyy)"/><path d="M15.32 32.97c-.89.54-2.5.73-2.13-.24l7.14-18.16c.24-.64.85-1.07 1.52-1.07.66 0 1.26.41 1.51 1.04l3.5 8.08c.2.49.2 1.03.01 1.51l-.9 2.37-10.65 6.47z" fill="url(#bzcwzjmyy)"/><path d="M23.55 13.11a.37.37 0 01.26-.11h8.7c1.09 0 2.06.65 2.5 1.67l9.92 24.08a.9.9 0 01-.8 1.25H36.1c-.73 0-1.4-.45-1.7-1.13l-1.4-3.4a.68.68 0 01.16-.75l5.99-6.33c.14-.14.05-.39-.15-.39h-8.47a.87.87 0 01-.8-.54l-5.41-13.07c-.2-.46-.47-.69-.66-.84-.2-.17-.3-.25-.11-.44z" fill="url(#czcwzjmyy)"/><path d="M23.81 13c-.22 0-.48.24-.28.44l.22.18c.18.16.4.38.57.77l4.32 10.5 8.66-4.64-2.3-5.58A2.71 2.71 0 0032.52 13h-8.7z" fill="url(#dzcwzjmyy)"/><defs><linearGradient id="azcwzjmyy" x1="23.81" y1="28.9" x2="18.78" y2="39.9" gradientUnits="userSpaceOnUse"><stop stop-color="#D76E69"/><stop offset="1" stop-color="#E93223"/></linearGradient><linearGradient id="bzcwzjmyy" x1="20.07" y1="13.5" x2="13.96" y2="32.54" gradientUnits="userSpaceOnUse"><stop stop-color="#B22619"/><stop offset="1" stop-color="#E03323"/></linearGradient><linearGradient id="czcwzjmyy" x1="36.29" y1="22.26" x2="39.27" y2="39.97" gradientUnits="userSpaceOnUse"><stop stop-color="#CBC6BE"/><stop offset="1" stop-color="#877D6D"/></linearGradient><linearGradient id="dzcwzjmyy" x1="30.37" y1="13" x2="30.37" y2="24.88" gradientUnits="userSpaceOnUse"><stop stop-color="#C1BAAE"/><stop offset="1" stop-color="#ADA699"/></linearGradient></defs></svg>