<!-- by TradingView --><svg xmlns="http://www.w3.org/2000/svg" width="56" height="56"><path fill="#F0F3FA" d="M0 0h56v56H0z"/><path d="M23 28l-1 3-1-3h-2l2 5h2l2-5h-2zm2.43 5h1.9v-1.62h.07l.85 1.62h2.32l-1.55-1.94c.78-.26 1.06-.59 1.06-1.3 0-1.3-1.06-1.76-2.26-1.76h-2.4v5zm1.9-3.63h.21c.28 0 .64.06.64.39 0 .39-.36.45-.7.45h-.15v-.84zm9.23 3.2c.64.3 1.41.43 2.12.43 1.13 0 2.32-.56 2.32-1.69 0-.8-.56-1.24-1.4-1.37-.22-.05-.85-.08-.85-.37 0-.2.21-.25.42-.25.43 0 .78.18 1.13.37l.56-1.25A4.28 4.28 0 0039.1 28c-1.2 0-2.32.7-2.32 1.82 0 .75.63 1.18 1.4 1.3.24.05.85 0 .85.32 0 .19-.28.31-.5.31-.49 0-.9-.25-1.26-.5l-.07-.06-.64 1.37zM41.15 28L43 30.86V33h2v-2.14L46.85 28H44.6l-.57 1.3h-.07L43.4 28h-2.26zm7.25 4h1.16l.4 1H52l-2-5h-2l-2 5h2.12l.28-1zm.21-1l.35-1.37h.07L49.4 31h-.78z"/><path d="M32.82 32h1.16l.4 1h2.04l-2-5h-2l-2 5h2.12l.28-1zm.21-1l.36-1.38h.07L33.8 31h-.78zm-19.7-3h5.24l.2.53h-5.24l-.2-.53zm.34.73h5.24l.2.53h-5.23l-.21-.53zm.27.79h5.25l.2.52h-5.24l-.2-.52zm.28.72h5.31l.2.53h-5.3l-.21-.53zm.34.79h5.25l.2.46h-5.24l-.2-.46zm.28.72h5.24l.2.53h-5.23l-.2-.53zm.35.73h5.24l.2.52H15.4l-.2-.52z"/><path d="M17 27.5L13.66 19H9.57L4 33h4.02l.9-2h5.21l-1.17-3H9.92l1.7-4.72 1.45 4.22H17z" fill="#E20A17"/></svg>