<!-- by TradingView --><svg width="56" height="56" xmlns="http://www.w3.org/2000/svg"><path fill="#0F642B" d="M0 0h56v56H0z"/><path d="M52 32.5c0 1.38-10.521 2.5-23.5 2.5S5 33.88 5 32.5c0-.582 1.868-1.117 5-1.542v.384c-2.522.285-4 .6-4 .872 0 .71 10.074 1.286 22.5 1.286S51 32.924 51 32.214c0-.337-2.276-.741-6-1.072v-.422c4.321.453 7 1.083 7 1.78zm-13-2.237c-1.272-.068-2.61-.124-4-.166v.495c1.395.04 2.733.091 4 .152v-.481zM29 30v.5h-.5c-4.625 0-8.925.14-12.5.35v-.467C19.62 30.14 23.906 30 28.5 30h.5z" fill="#DAA022"/><path d="M14.248 28.404l-1.62-3.428-1.6 3.428h3.22zM8.205 32v-.253c.36-.04.629-.178.807-.41.182-.232.492-.864.93-1.894L12.86 23h.274l3.486 7.51c.232.528.417.856.554.984.141.123.376.207.704.253V32h-3.562v-.253c.41-.036.675-.08.793-.13.119-.055.178-.184.178-.39 0-.068-.023-.189-.068-.362a3.94 3.94 0 00-.192-.547L14.447 29h-3.665c-.364.916-.583 1.448-.656 1.653-.068.2-.103.36-.103.479 0 .237.096.4.287.492.119.055.342.096.67.123V32H8.205zm12.269-9v.26c-.351.004-.59.027-.718.068-.223.073-.335.221-.335.445 0 .113.039.273.116.478.082.205.233.55.451 1.032l2.188 4.611 1.99-5.014c.086-.232.152-.428.197-.588.046-.16.069-.29.069-.39 0-.268-.116-.45-.349-.547-.137-.054-.362-.086-.677-.095V23h2.864v.24c-.296.04-.514.12-.656.239-.214.177-.426.535-.635 1.073l-3.097 7.612h-.212l-3.452-7.434c-.292-.652-.527-1.058-.704-1.217-.174-.16-.429-.251-.766-.274V23h3.726zm8.379 4.372c0 1.472.289 2.561.868 3.268.579.701 1.29 1.052 2.133 1.052.825 0 1.529-.341 2.112-1.025.588-.688.882-1.787.882-3.295 0-1.527-.297-2.63-.889-3.308-.592-.68-1.294-1.02-2.105-1.02-.839 0-1.55.354-2.133 1.06-.579.702-.868 1.791-.868 3.268zm-1.586 0c0-1.495.47-2.693 1.408-3.596.861-.825 1.92-1.237 3.179-1.237 1.262 0 2.324.415 3.185 1.244.934.898 1.401 2.094 1.401 3.59 0 1.517-.483 2.724-1.449 3.622-.866.802-1.911 1.203-3.137 1.203-1.313 0-2.402-.444-3.268-1.333-.88-.907-1.32-2.071-1.32-3.493zM40 30.92c0 .228.055.378.164.451.114.073.401.11.752.11 1.094 0 1.994-.217 2.7-.65 1.085-.665 1.627-1.802 1.627-3.411 0-1.436-.446-2.253-1.34-2.978-.765-.62-1.78-.93-3.042-.93-.314 0-.583.035-.697.103-.11.069-.164.219-.164.451v6.854zm-2.597.827c.51-.055.843-.146.998-.273.154-.133.232-.463.232-.992v-5.964c0-.51-.075-.839-.226-.985-.15-.146-.485-.237-1.004-.273V23h3.773c1.271 0 2.347.21 3.227.629 1.585.752 2.378 1.834 2.378 3.77a4.74 4.74 0 01-.43 1.99 4.053 4.053 0 01-1.285 1.592 4.33 4.33 0 01-1.135.622c-.716.265-1.595.397-2.639.397h-3.89v-.253z" fill="#fff"/></svg>