<!-- by TradingView --><svg width="56" height="56" viewBox="0 0 56 56" xmlns="http://www.w3.org/2000/svg"><path fill="#18468C" d="M0 0h56v56H0z"/><path d="m28.5 18.78 5.05 12.42c.07.18.03.22-.13.13a34.02 34.02 0 0 0-7.99-3.27 49.3 49.3 0 0 0-16.35-1.54c-.02 0-.04.01-.04.04-.05.23-.05.46-.01.67 0 .02.01.03.03.03a33.8 33.8 0 0 1 28.2 13.66c.05.05.1.08.16.08h5.46c.11 0 .14-.05.1-.15L31.32 12.13a.2.2 0 0 0-.19-.13H25.7a.22.22 0 0 0-.2.14l-5.49 13.6a.07.07 0 0 0 .06.1c1.62.11 3.27.36 4.95.74l.1-.01a.14.14 0 0 0 .06-.08l3.2-7.7c.04-.12.08-.12.13 0Zm-5.45 16-3.91-.3a.05.05 0 0 1-.05-.03l-.93-3.82a.05.05 0 0 0-.08-.03l-.02.02-1.48 3.65a.05.05 0 0 1-.05.03l-3.91-.3a.05.05 0 0 0-.05.04.05.05 0 0 0 .01.06l3 2.54a.05.05 0 0 1 .01.06l-1.48 3.64v.03a.05.05 0 0 0 .04.04h.03l3.34-2.08a.05.05 0 0 1 .06 0l2.99 2.54a.05.05 0 0 0 .08-.05L19.72 37a.05.05 0 0 1 .02-.06l3.33-2.07a.05.05 0 0 0 .03-.06.05.05 0 0 0-.05-.04Z" fill="#F8AC00"/></svg>