<!-- by TradingView --><svg xmlns="http://www.w3.org/2000/svg" width="56" height="56"><path fill="#F0F3FA" d="M0 0h56v56H0z"/><path fill-rule="evenodd" d="M8 21.93a7.12 7.12 0 002.8-2.49c.65-1.2 1.8-1.5 2.3-1.5a6.08 6.08 0 011.12-3.73 4.47 4.47 0 00.96-3.21c.7.31 2.1 1.56 2.1 4.1v4.34c.62.54 1.68 2 1.57 3.63-.13 2.02.26 4.83.72 6.11.27-.74.93-2.37 1.42-2.95.04-.19-.05-.72-.66-1.35-.61-.62-.05-3.43.3-4.76-.26-.76-.38-2.32 1.33-2.49 2.14-.2 1.33 2.13.87 2.49-.46.36-.51 2.12 0 2.95.05-.93.63-2.74 2.55-2.54 2.4.26 2.09 3.53.81 4.35.2.4.61 1.38.61 2.13 1.45-.5 4.75-1.09 6.42.57.41.5 1.48 1.38 2.5.88a6.44 6.44 0 018 2.38c.32.49 1.63 1.45 4.28 1.45-.03.5-.94 1.78-4.28 2.9-4.18 1.4-5.91 3.32-6.83 4.61-.73 1.04-2.75 1.23-3.67 1.2l.61-1.61c-3.3 1.07-10.94 2.27-14.98-1.5-4.03-3.77-3.41-10.24-2.6-13 .12-.89.08-2.77-1.07-3.27a6 6 0 01-3.71 1.45A5.72 5.72 0 018 21.93zm3.11-1.52c.76-.88 1.56-1.8 2.78-2.18a9.8 9.8 0 011.04-3.44c.76-1.56.91-2.13.9-2.22.32.44.9 2.47.63 7.14.58.53 1.74 1.85 1.65 2.86-.1 1.25-.57 9.94 4.97 11.1.9.03 2.95.32 3.9 1.2.42.39.73.78 1 1.12.47.62.82 1.07 1.5 1.07.83 0 1.8-1.32 2.17-1.98-.01-.29-.32-.8-1.42-.54l-1.5-1.97 2-2.09c.34-.45.7-1.58-.5-2.46-.18-.16-.74-.38-1.5 0-.75.39-1.48.9-1.76 1.1-.28.14-1.16.34-2.44 0-.33.34-.69 1.16.55 1.76 1.55.75 3.45 2.6 4.55 4.39l.74.24-1.13.8c-.63-1-2.33-3.05-4.16-3.26-2.29-.27-4.52-.91-4.73-2.97a3.61 3.61 0 011.47-3.2 1.7 1.7 0 00-.47-1.99c-.8-.68-.34-3.53 0-4.86-.18-.44-.33-1.37.47-1.6.43-.04 1.07.24.24 1.6-.33 1.26-.55 3.95 1.15 4.57l.64-.59c-.2-.88-.15-2.62 1.7-2.51.57.17 1.37.96 0 2.78-.3.07-.9.3-.81.61.04.14.17.26.35.41.33.3.8.7.96 1.57-.02.48.03 1.47.43 1.55a7.56 7.56 0 013.89-1.23c.58-.03 2.07.3 3.3 1.93.24.23 1.14.55 2.83 0a5.7 5.7 0 016.18 1.76c.28.37.47 1.15-1.03 1.39-1.88.3-1.1.76-.15 1.08.75.25 2.69.31 3.57.31-2.02.47-6.84 2.39-9.96 6.3-.24.14-.65.18-.36-.8l.36-.98c-1.4.44-4.82 1.33-7.38 1.35-3.2.03-11.12-.42-11.2-10.12.03-.93.15-3.19.49-4.81.42-2.03-1.3-4.05-1.94-4.2a5.12 5.12 0 01-5.51 1.5 7.68 7.68 0 001.54-1.5zm18.01 8.36c-1.65 1.27-3.08 1.5-3.6 1.45.82.1 1.98 1.23 2.45 1.77a6.6 6.6 0 002.1-2.1c.3-1.33-.5-1.3-.95-1.12zm15.73 4.06H43l.69-.77 1.16.77z" fill="#87633A"/></svg>