<!-- by TradingView --><svg xmlns="http://www.w3.org/2000/svg" width="56" height="56"><path fill="#F0F3FA" d="M0 0h56v56H0z"/><path d="M8 39l20-29 16 24H18.68l1.43-2h20.14L28.01 13.72 10.4 39H8zm3.62 0h2.46L28 19l6.62 10H22.25l-1.43 2h17.56L27.99 15.5 11.62 39z" fill="#DE002A"/><path fill-rule="evenodd" d="M16.9 39l1.42-4h1.35l1.42 4h-1.3l-.22-.51h-1.25l-.14.51H16.9zm1.71-1.4l.37-1.28.38 1.28h-.75zM35.93 39l1.42-4h1.35l1.42 4h-1.3l-.22-.51h-1.25l-.14.51h-1.28zm1.71-1.4l.37-1.28.38 1.28h-.75z" fill="#DE002A"/><path d="M22.42 35h-1.47l1.47 2.46V39h1.38v-1.54L25.26 35H23.8l-.7 1.27-.68-1.27zm6.74 0h-3.27v4h3.27v-1h-2.02v-.5h1.7v-1h-1.7V36h2.02v-1zm5.04 2h1.53v1H34.2zm-3.12-2H29.8v4h1.27v-2.1l1.36 2.1h1.23v-4h-1.23v2.07L31.08 35zm11.22 0c1.21 0 1.6.8 1.63 1.2h-1.19c0-.11-.17-.33-.43-.33-.35 0-.44.14-.44.24 0 .2.15.27 1.18.52.82.2.95.79.95 1.08 0 .44-.38 1.3-1.64 1.29-1.25 0-1.7-.86-1.77-1.3h1.15c.07.21.3.42.62.42.2 0 .45-.05.45-.25 0-.26-.5-.36-.88-.45-1.08-.27-1.26-.83-1.26-1.18 0-.5.43-1.25 1.64-1.24z" fill="#DE002A"/></svg>