<!-- by TradingView --><svg xmlns="http://www.w3.org/2000/svg" width="56" height="56" viewBox="0 0 56 56"><path fill="#F0F3FA" d="M0 0h56v56H0z"/><path d="M28.07 29.19 38.9 16.61a4.54 4.54 0 0 1 6.54-.41 4.86 4.86 0 0 1 .4 6.72l-14.1 16.4a4.78 4.78 0 0 1-7.27.02l-14.29-16.4a4.86 4.86 0 0 1 .36-6.72 4.54 4.54 0 0 1 6.54.36l11 12.61Z" fill="#8B8A8D"/><path d="m42.42 26.9-3.17 3.68-6.28-7.08 3.84-4.46 5.6 7.86Z" fill="#444144"/><path d="M28.07 26.81 38.9 39.39a4.54 4.54 0 0 0 6.54.41 4.86 4.86 0 0 0 .4-6.72l-14.1-16.4a4.78 4.78 0 0 0-7.27-.02l-14.29 16.4a4.86 4.86 0 0 0 .36 6.72 4.54 4.54 0 0 0 6.54-.36l11-12.61Z" fill="#E11D1B"/><path d="m27.05 27.98-4.98-8.56-3.9 4.47 5.42 7.38a.1.1 0 0 0 .13.03l.95-.58 2.38-2.74Z" fill="#731D1A"/><path d="M28 29.1V41a4.79 4.79 0 0 1-3.53-1.66l-14.29-16.4a4.86 4.86 0 0 1 .36-6.72 4.54 4.54 0 0 1 6.54.36L28 29.11Z" fill="#8B8A8D"/></svg>