<!-- by TradingView --><svg width="56" height="56" viewBox="0 0 56 56" xmlns="http://www.w3.org/2000/svg"><path fill="#F0F3FA" d="M0 0h56v56H0z"/><path d="M17.56 32.52c-.04.05-.03.07.02.07h6.35a.07.07 0 0 1 .05.02.07.07 0 0 1 .02.05v1.28c0 .01 0 .02-.02.03l-.21.03h-8.71c-.05 0-.07-.03-.07-.08v-1.1c0-.04.02-.08.05-.12l6.42-7.28a.02.02 0 0 0 0-.03H15.08a.09.09 0 0 1-.08-.06l-.01-.04v-1.23c0-.04.03-.06.06-.06h9.87c.05 0 .07-.03.07-.07v-3.84c0-.06.03-.09.1-.09h1.83a.06.06 0 0 1 .07.06v3.87a.07.07 0 0 0 .07.07h3.86c.05 0 .07.02.07.07v1.26c0 .05-.03.07-.07.07h-3.86c-.04 0-.07.02-.07.07v5.12c0 .45.05.8.13 1 .33.9 1.39.98 2.28.95a4.69 4.69 0 0 0 1.5-.33.1.1 0 0 1 .07.05l.02.05v1.33a.08.08 0 0 1-.07.08c-1.56.36-4 .58-5.16-.68a2.68 2.68 0 0 1-.75-1.81C25 30.7 25 28.84 25 25.48c0-.05-.02-.08-.07-.08h-1.02c-.05 0-.09.02-.12.06l-6.23 7.06ZM48.89 24h2.43l.02.01.02.02a.04.04 0 0 1-.01.04l-4.86 4.04-.01.01a.04.04 0 0 0 0 .05l5.5 5.76.02.02a.04.04 0 0 1-.02.04l-.02.01h-2.55l-.02-.01-4.5-4.82a.3.3 0 0 0-.08-.01h-.03l-.76.65a.04.04 0 0 0-.02.03v4.15h-1.96a.04.04 0 0 1-.03 0 .04.04 0 0 1-.01-.03V20.04a.04.04 0 0 1 .01-.03.04.04 0 0 1 .03-.01h1.93a.04.04 0 0 1 .02.01.04.04 0 0 1 .01.03v8.07l.01.03.02.01a.04.04 0 0 0 .04 0l4.8-4.14h.02Z" fill="#D43238"/><path d="M13 33.13c0-.05-.03-.07-.07-.04-.98.55-2.15.84-3.18.9-1.5.07-2.98-.07-4.14-.9-1.45-1.04-1.69-2.77-1.6-4.42.01-.04.03-.06.07-.06h8.88l.05-.02a.05.05 0 0 0 .01-.04c-.02-2.73-2.93-3.33-5.39-3.1a8.62 8.62 0 0 0-3.55 1.13l-.04-.01A.07.07 0 0 1 4 26.5v-1.64l.02-.05a52.21 52.21 0 0 1 1.66-.5c2.45-.58 6.37-.52 8.18 1.47A4.2 4.2 0 0 1 15 28.54v5.38c0 .04-.03.08-.07.08h-1.85c-.05 0-.08-.04-.08-.1v-.77Zm-.66-1.54c.39-.4.61-.9.67-1.49 0-.04-.01-.1-.06-.1h-6.7c-.05 0-.16.07-.16.12.06 1.58 1 2.39 2.55 2.53 1.33.11 2.8-.12 3.7-1.06ZM32.5 29.29c.06 1.74.95 2.77 2.68 3.16a8.39 8.39 0 0 0 5.73-1.06.07.07 0 0 1 .07.04l.02.03v1.62c0 .04-.03.07-.07.09-.82.26-1.68.5-2.15.6-2.92.62-7.46.17-8.22-3.45-.67-3.15 1.12-5.78 4.37-6.24 2.76-.38 5.85.55 6.03 3.78a19.4 19.4 0 0 1 0 1.35.07.07 0 0 1-.04.02h-8.36a.06.06 0 0 0-.05.06Zm.67-2.87c-.37.4-.59.93-.64 1.52 0 .04 0 .06.05.06h6.33c.05 0 .08-.02.08-.08-.06-1.58-.97-2.42-2.46-2.56-1.27-.11-2.49.11-3.36 1.06Z" fill="#D43238"/></svg>