<!-- by TradingView --><svg width="56" height="56" xmlns="http://www.w3.org/2000/svg"><path fill="#F60" d="M0 0h56v56H0z"/><path fill-rule="evenodd" d="M7.948 23c-1.305.058-3.92 1.18-3.948 5.206-.027 4.026 2.62 4.87 3.948 4.789.826.023 2.52-.286 2.682-1.707.062-.197-.102-1.023-1.249-2.75-.106-.128-.32-.474-.32-.837 0-.362.214-.754.32-.905.287-.453.857-1.511.844-2.124C10.208 23.905 9.432 23 7.948 23zm-.189 1.428c-.924.041-2.778.843-2.797 3.717-.02 2.874 1.857 3.476 2.797 3.418.586.017 1.786-.204 1.901-1.218.025-.216-.092-.766-.794-1.96a4.547 4.547 0 00-.038-.064c-.087-.142-.189-.308-.189-.533 0-.192.094-.43.166-.611.024-.062.047-.118.061-.163.056-.17.14-.342.223-.514.145-.3.29-.6.284-.879-.012-.547-.562-1.193-1.614-1.193zM16.055 23c.844-.012 2.614 1.253 2.945 6.408v2.98c0 .215-.058.581-.472.61-.413.029-.528-.3-.528-.61v-2.98c-.006-.131-.073-.398-.32-.413-.249-.014-2.494-.006-3.315 0-.155.024-.338.14-.365.413 0 0-.011 2.202 0 2.98-.006.203-.086.61-.48.61-.392 0-.493-.23-.512-.665-.014-.316-.006-2.063 0-2.925.034-2.016 1.016-6.38 3.047-6.408zm-.022 1c.482 0 1.44.987 1.788 3.294.043.244-.054.726-.788.705H15.15c-.239.013-.713-.11-.694-.705.024-.743.565-3.294 1.577-3.294zm24.023-1c.843-.012 2.613 1.253 2.944 6.408v2.98c0 .215-.059.581-.472.61-.413.029-.528-.3-.528-.61v-2.98c-.006-.131-.073-.398-.32-.413-.249-.014-2.494-.006-3.315 0-.155.024-.337.14-.365.413 0 0-.011 2.202 0 2.98-.006.203-.086.61-.48.61-.392 0-.493-.23-.512-.665-.014-.316-.006-2.063 0-2.925.034-2.016 1.015-6.38 3.047-6.408zm-.023 1c.482 0 1.44.987 1.788 3.294.043.244-.054.726-.788.705H39.15c-.239.013-.712-.11-.694-.705.024-.743.565-3.294 1.577-3.294z" fill="#fff"/><path d="M21 27.939C21.04 23.793 23.36 23 24.662 23c1.666 0 2.655 1.252 2.391 1.774-.099.195-.49.245-.808 0-.247-.191-.66-.704-1.583-.774C23.507 23.913 22 25.052 22 27.939s1.078 4.08 2.661 4.061c1.583-.019 2.103-1.696 2.301-2.235.159-.431-.176-.742-.363-.765h-2.531c-.116-.012-.353.01-.38-.435-.026-.445.242-.542.38-.565.56-.058 2.885 0 2.885 0 .963.14 1.083.965 1.04 1.4-.495 3.391-2.92 3.6-3.513 3.6-.462 0-3.529.121-3.48-5.061zm9-.582c.221-3.439 2.992-4.397 4.317-4.356 1.36 0 1.683.413 1.683.653 0 .296-.163.58-.612.468a4.464 4.464 0 00-1.07-.122C31.913 24 31 26.404 31 27.18c0 .621.608.79.834.82h2.075c.221 0 .408.175.408.514 0 .338-.256.486-.408.486h-2.244c-.49.028-.623.514-.634.72v2.434c.006.34.038.846-.496.846-.544 0-.535-.564-.535-.846v-4.797zm15-1.969c.058-1.968 2.005-2.411 2.903-2.387 1.443 0 2.132 1.154 2.296 1.73.072.159.142.511-.164.657-.306.146-.585-.076-.693-.292-.379-.758-1.144-1.096-1.439-1.096-.568-.036-1.816.338-1.903 1.388-.087 1.05 1.766 1.842 2.622 2.37.91.438 2.378 1.31 2.378 2.586 0 1.385-1.29 2.102-2 2.272v.956c0 .165-.144.413-.48.428-.334.015-.526-.264-.52-.428v-.956c-1.913-.401-2.684-1.452-2.866-1.67-.145-.176-.188-.51-.049-.698.14-.188.561-.329.915.096.547.656 1.411 1.275 2.395 1.184.984-.09 1.605-.407 1.605-1.184 0-.475-.749-1.166-2.917-2.187-1.734-.816-2.156-2.186-2.083-2.77z" fill="#fff"/></svg>