<!-- by TradingView --><svg width="56" height="56" viewBox="0 0 56 56" xmlns="http://www.w3.org/2000/svg"><path fill="#F0F3FA" d="M0 0h56v56H0z"/><path d="M43 43H25.55l-1.33-.14c-.06 0-.09-.03-.07-.08 0-.06.03-.09.08-.08 3.16.19 6.64-1.29 7.36-4.64.9-4.16-2.25-6.83-6.13-7.05-.06 0-.08-.04-.07-.1.02-.05.06-.09.12-.1 3.1-.76 5.4-3.05 4.6-6.31-.64-2.58-3.34-3.37-5.7-3.49-.52-.02-4.29-.03-11.3-.02a.12.12 0 0 1-.1-.12V13.1a.1.1 0 0 1 .02-.07.1.1 0 0 1 .07-.03h23.82a.1.1 0 0 1 .1.05.11.11 0 0 1 0 .11l-2.85 5.68a.43.43 0 0 0 0 .4l2.78 5.57c.06.13.16.2.3.2h5.54c.14 0 .2.06.2.2L43 43Z" fill="#1E2863"/><path d="m40.5 15 2.09.01c.13 0 .23.06.3.17A229 229 0 0 1 45 19a229 229 0 0 1-2.11 3.82.32.32 0 0 1-.3.17 97.63 97.63 0 0 1-4.18 0 .33.33 0 0 1-.3-.17A230.6 230.6 0 0 1 36 19a230.6 230.6 0 0 1 2.11-3.82c.06-.1.16-.16.3-.17L40.5 15Z" fill="#F26522"/><path d="M13 22.11a.1.1 0 0 1 .04-.08.13.13 0 0 1 .08-.03h.96c.26 0 .5.04.74.1.23.08.44.18.62.32.18.13.32.28.41.46.1.17.15.35.15.54v17.16c0 .38-.2.74-.56 1a2.3 2.3 0 0 1-1.36.42h-.96a.13.13 0 0 1-.08-.03.1.1 0 0 1-.04-.08V22.1ZM20 22.22c0-.06.04-.11.08-.15.04-.05.1-.07.16-.07h1.98c.92 0 1.8.4 2.46 1.08a3.75 3.75 0 0 1 1.01 2.58v1.69a3.81 3.81 0 0 1-1.02 2.58A3.48 3.48 0 0 1 22.2 31h-1.98a.22.22 0 0 1-.16-.07.22.22 0 0 1-.06-.16v-8.55ZM26.92 35.96c.38 3.13-.48 6.31-4.64 6.02-1.46-.1-2.2-.83-2.23-2.18-.06-3.07-.06-5.59-.03-7.55 0-.14.08-.2.23-.21a21.3 21.3 0 0 1 3.04.01c2.17.5 3.38 1.8 3.63 3.91Z" fill="#1E2863"/></svg>