<!-- by TradingView --><svg xmlns="http://www.w3.org/2000/svg" width="56" height="56" viewBox="0 0 56 56"><path fill="#F0F3FA" d="M0 0h56v56H0z"/><path fill-rule="evenodd" d="M14 14h28v28H14V14zm5.1 2h9.02c-1.28 1.5-3.8 6.24-3.69 11.9.13 5.92 2.51 10.53 3.69 12.1h-9.01a23.83 23.83 0 0 1-3.65-12.1c-.22-5.33 2.34-10.15 3.65-11.9zm-.1 1h1v1h-1v-1zm-1 5h-1v1h1v-1zm-2 5.5h1v1h-1v-1zm8 0h-1v1h1v-1zM23 33h1v1h-1v-1zm-5 0h-1v1h1v-1zm1 5h1v1h-1v-1zm7 0h-1v1h1v-1zm-3-16h1v1h-1v-1zm3-5h-1v1h1v-1zm14 15c0 2.83-1.2 5.32-3 6.74V38h-1v1h.65c-.94.64-2 1-3.15 1a5.55 5.55 0 0 1-3.15-1H31v-1h-1v.74c-1.8-1.43-3-3.91-3-6.74s1.2-5.32 3-6.74V26h1v-1h-.65c.93-.64 2-1 3.15-1 1.14 0 2.22.36 3.15 1H36v1h1v-.74c1.8 1.42 3 3.9 3 6.74zm-3 0c0 2.2-1.57 4-3.5 4S30 34.2 30 32s1.57-4 3.5-4 3.5 1.8 3.5 4zm-3-6h-1v1h1v-1zm0 11v1h-1v-1h1zm-5-5.5h-1v1h1v-1zm9 0h1v1h-1v-1z" fill="#010080"/></svg>