<!-- by TradingView --><svg width="56" height="56" viewBox="0 0 56 56" xmlns="http://www.w3.org/2000/svg"><path fill="url(#a)" d="M0 0h56v56H0z"/><path d="M42 23h5.01v.27h-.25c-.76 0-.76.51-.76 1.49v4.78c0 1.43-.1 2.73 1.58 2.73 2.05 0 2.42-1.83 2.42-3.53v-3.98c0-1-.32-1.5-1.36-1.5V23H52v.27h-.2c-.92 0-1.17.69-1.17 1.49v3.7c0 2.57-.78 4.54-3.7 4.54C44.7 33 43 31.81 43 29.54v-4.78c0-1.03 0-1.5-1-1.5V23ZM37.1 23c.3 0 .6.03.9.1v.56a2.46 2.46 0 0 0-.78-.13c-.5 0-.9.13-1.19.39-.29.25-.43.54-.43.88 0 .2.05.4.15.56.14.22.37.44.69.66.23.15.76.43 1.6.82a7.11 7.11 0 0 1 2.36 1.56 2.67 2.67 0 0 1-.38 3.74 3.6 3.6 0 0 1-2.47.86 4.4 4.4 0 0 1-.55-.04v-.5c.17.03.34.05.51.05.55 0 .99-.15 1.31-.43.33-.29.5-.62.5-1 0-.23-.07-.45-.2-.66a2.03 2.03 0 0 0-.56-.6c-.26-.2-.71-.44-1.36-.75-.9-.42-1.56-.79-1.96-1.09-.4-.3-.7-.63-.92-1a2.54 2.54 0 0 1 .56-3.17c.59-.54 1.32-.81 2.21-.81Zm-2.83 6.38a4.11 4.11 0 0 0 1.25 2.33c.15.14.32.25.48.35v.65l-.4-.15c-.23-.09-.42-.14-.58-.14a.74.74 0 0 0-.4.14 1 1 0 0 0-.35.43H34v-3.6h.27Zm6.11-3.2h-.3a3.2 3.2 0 0 0-1.05-1.92l-.03-.02v-.76c.27.12.46.18.57.18a.4.4 0 0 0 .3-.12c.08-.07.15-.25.21-.54h.22l.08 3.19ZM33 29.49 32.63 33H24v-.27h.32c.68 0 .68-.63.68-1.44V24.7c0-1.08 0-1.44-1-1.44V23h5.18v.27h-.42c-.76 0-.76.63-.76 1.44v6.37c0 1.1 0 1.36 1 1.36h.8c.53 0 .96-.1 1.3-.28.34-.19.64-.48.89-.89.25-.4.5-1 .72-1.78H33Z" fill="#F0F3FA"/><path d="M19.8 30.21h-3.32l-.4.95c-.13.32-.2.59-.2.8 0 .27.12.47.33.6.12.08.43.13.92.17V33H14v-.27c.34-.05.62-.2.83-.43.22-.24.49-.74.8-1.48L19.02 23h.13l3.4 8.03c.32.77.59 1.24.8 1.44.15.15.37.24.66.26V33h-4.56v-.27h.2c.36 0 .61-.05.76-.16a.4.4 0 0 0 .16-.33.92.92 0 0 0-.05-.27c0-.04-.07-.22-.2-.54l-.5-1.22Zm-.23-.53-1.4-3.38-1.45 3.38h2.85ZM10.24 27.7c1.35.32 2.76.94 2.76 2.54C13 32.5 10.68 33 8.96 33H4v-.27c1 0 1-.4 1-1.49v-6.48c0-1.08 0-1.49-1-1.49V23h4.68c1.66 0 3.87.4 3.87 2.51 0 1.3-1.2 1.9-2.3 2.19ZM8 27.5c.68 0 .8-.08 1.13-.24.65-.31.87-.86.87-1.75 0-1.51-.66-1.96-2-1.95v3.94Zm0 .57v3.58c0 .53-.12.8.4.8 1.22 0 1.6-1 1.6-2.2 0-.83.09-1.64-.72-1.96-.37-.15-.55-.22-1.28-.22Z" fill="#F0F3FA"/><defs><linearGradient id="a" x1="10.42" y1="9.71" x2="68.15" y2="76.02" gradientUnits="userSpaceOnUse"><stop stop-color="#1A1E21"/><stop offset="1" stop-color="#06060A"/></linearGradient></defs></svg>