<!-- by TradingView --><svg width="56" height="56" viewBox="0 0 56 56" xmlns="http://www.w3.org/2000/svg"><path fill="#F0F3FA" d="M0 0h56v56H0z"/><path d="M28.75 17.95c.03.04.07.08.12.1a.38.38 0 0 0-.18.02.26.26 0 0 0-.13.1l-.18.3a.31.31 0 0 0 0 .32 5.15 5.15 0 0 1 .25.47h.04l.19-.05a1.53 1.53 0 0 1 .38-.08l.01.01c.1.57.24 1.1.53 1.59.17.28.37.27.63.11l.32.27-.39.55-2.19-1.3a.12.12 0 0 0-.12 0l-3.57 1.97c.13-.19.24-.34.34-.45l.43-.45c.27-.26.55-.5.86-.71.06-.05.08-.09.08-.16v-.75c0-.08-.03-.2-.01-.27.02-.1 0-.17 0-.29v-.02a.1.1 0 0 0-.09-.01.34.34 0 0 0-.11-.08l.71-.34a.51.51 0 0 1 .09-.05.3.3 0 0 1 .1-.02 8.19 8.19 0 0 0 .35-.19c.18-.11.38-.18.58-.27h.06l.2.23a.3.3 0 0 1 .06.22l.01.05.04.03h.01c.03.02.05.01.06-.02v-.32l.04-.17c0-.05.05-.1.09-.11l.4-.23Z" fill="#E9B60C"/><path d="m28.87 18.06.97.5.65.32.18.12c-.09.1-.2.17-.34.22-.04-.02-.08-.01-.12.03a.14.14 0 0 0-.04.1l-.01.2a34.13 34.13 0 0 1 0 1.06l.04.05.21.18c-.26.16-.46.17-.63-.11a4.26 4.26 0 0 1-.54-1.6h-.01c-.13 0-.25.03-.37.08l-.2.05a.05.05 0 0 1-.05-.03 5.13 5.13 0 0 0-.23-.44.31.31 0 0 1 0-.33l.18-.29c.04-.05.08-.09.13-.1a.38.38 0 0 1 .18-.01Z" fill="#E4B758"/><path d="m30.33 19.22-.11.04a.04.04 0 0 0-.03.04v.02l.02.01 2.56 1.42 3.08 1.77 1.76 1c.07.04.11.1.15.16l.02.08c-.18.04-.34.09-.48.15-.4.17-.56.55-.46.95.1.4.45.52.83.64.01 0 .02 0 .02.02V26.93l-.1 2.77-.01.3a.46.46 0 0 1-.01-.09c0 .01 0 .02-.02.02 0 0-.02 0-.02.02-.14.24-.3.47-.47.7a3.64 3.64 0 0 1-.58.56h-.04l-.68-.3a.08.08 0 0 1-.03-.02l-.05-.06c.03-.33.05-.77.07-1.31.01-.26.03-.6.07-1.03.02-.17.03-.33.03-.5 0-.37.03-.6.06-1.1l.02-.62c0-.22.02-.44.05-.66.1.04.21.1.31.16.11.07.22.1.31.16.03.03.04.02.04-.02-.1-.4-.22-.76-.4-1.11-.07-.15-.16-.42-.3-.57a.04.04 0 0 0-.04-.01h-.01l-.01.02-.1.3a.41.41 0 0 1-.16.24l-3.38-2c.02-.01.03-.04.03-.07 0-.01 0-.02-.02-.03a.23.23 0 0 0-.05-.04 2.57 2.57 0 0 1-.3-.31c-.18-.28-.33-.4-.65-.75l-.52-.47-.31-.27-.22-.18a.15.15 0 0 1-.05-.12l.01-1 .02-.2c0-.03 0-.06.03-.1.04-.03.08-.04.12-.02ZM25.23 21.43l-.72.31c-.38.18-.68.41-.91.7-.08.1-.18.28-.3.53l-2.45 1.34-.42-.25-.02.01-.11.24-.01.02h-.02a2.7 2.7 0 0 0-1.55.7 1.9 1.9 0 0 0-.36 2l.3.71c.13.33.3.78.47 1.37l-.16.05a.03.03 0 0 0-.02.03c-.02.09 0 .18.05.27.07.15.18.39.3.56.18.27.33.51.57.7h.02l.02-.07.18 2.22-.55.29-.23-.1a.04.04 0 0 1-.02-.02l-.15-.32-.13-.77a.23.23 0 0 0-.06-.14c-.14-.12-.3-.11-.47-.07-.01 0-.02 0-.02-.02l-.05-.12v-.18c.06.1.15.12.28.06a22.85 22.85 0 0 0-.1-.89l-.1-.38-.07-.29a1.29 1.29 0 0 0-.1-.32l.1.1.05.09.05.37.01.01-.06-.38a.5.5 0 0 0-.26-.3.03.03 0 0 1-.02-.03l-.17-1.65-.01-.02a23.61 23.61 0 0 1-.06-1.12c0-.13-.03-.32-.05-.59-.02-.22 0-.44-.03-.68a14.66 14.66 0 0 1-.08-.96v.06h.02c.27-.31.47-.66.63-1.03l.2-.15c.02 0 0-.02-.02-.05.05 0 .1-.01.17-.05.37-.22.98-.55 1.81-1l2.87-1.57.2-.1 2.05-1.1.3-.16c.03-.01.05-.03.06-.07a.1.1 0 0 1 .07 0l.02.03-.01.29c-.02.07 0 .2 0 .27v.75c.01.07-.01.11-.07.16-.3.22-.6.45-.86.7Z" fill="#BE7D39"/><path d="m11.02 19.37 3.61 2.41.4.27c.32.2.54.38.8.54l.38.28c.17.13.42.28.6.42.2.15.4.29.62.43.04.03.06.07.07.12.04.2.06.38.07.56.01.22.06.5.08.66.03.14.03.26.04.43a14.94 14.94 0 0 0 .1.72c0 .21.05.41.1.66l.02.27.03.26a5.17 5.17 0 0 0 .08.41 7.16 7.16 0 0 1-2.44 1.92l-.44-.3h-.03l-.3.23v.05l1.13.85-.59.7v.02l1.68 1.28.05.43c.17.79.87.96 1.58.79.05.01.07.04.08.09v.2l.04.5c0 .23.03.44.06.65.03.14.05.34.08.58l.07.58c-.52.8-1.2 1.41-2.05 1.87l-3.2-2.6a.37.37 0 0 1-.13-.16 1.44 1.44 0 0 1-.04-.28c-.01-.15-.06-.3-.07-.44 0-.08-.02-.18-.04-.28-.02-.1-.07-.27-.07-.41-.01-.18-.1-.4-.11-.62 0-.09-.01-.14-.02-.17a3.47 3.47 0 0 1-.08-.42 11.5 11.5 0 0 0-.05-.3c-.03-.14-.07-.28-.07-.42l-.01-.11-.1-.53-.06-.42-.04-.27c-.02-.1-.07-.25-.07-.36 0-.1-.03-.23-.06-.36a3.89 3.89 0 0 1-.06-.36 3.12 3.12 0 0 0-.11-.53v-.02l.01-.01a.02.02 0 0 1 .02 0l1.02.77h.02l.61-.66v-.02l-.68-.52v-.02c.09-.1.2-.17.3-.23.02 0 .02 0 .02-.02v-.02l-1.6-1.2a.07.07 0 0 1-.03-.05c-.04-.17-.07-.28-.08-.42-.01-.25-.1-.48-.11-.74 0-.1-.03-.26-.08-.45-.03-.1-.01-.2-.04-.32l-.08-.38c-.02-.1 0-.2-.02-.3l-.09-.4c-.01-.08 0-.17-.02-.24-.02-.15-.1-.43-.1-.64-.01-.15-.07-.28-.07-.44 0-.2-.1-.47-.11-.7-.01-.22-.1-.46-.11-.7 0-.07-.02-.18-.05-.32a3.25 3.25 0 0 1-.06-.37c-.02-.2-.09-.38-.1-.57 0-.07 0-.16-.02-.24l-.1-.42a.34.34 0 0 1 .02-.19ZM44.98 19.62l-.1.5c-.02.11 0 .24-.03.36-.03.18-.08.42-.1.64 0 .08 0 .15-.02.2-.04.2-.06.35-.07.48a12.02 12.02 0 0 0-.1.74l-.03.26c-.05.28-.1.45-.1.7 0 .14-.06.32-.07.48 0 .15-.03.34-.08.56-.03.14 0 .28-.04.44-.02.1-.08.36-.09.54 0 .06 0 .18-.02.26-.05.2-.08.38-.09.53 0 .12-.02.23-.03.31-.05.25-.08.35-.08.53 0 .07 0 .24-.07.29l-3.04 2.08a21.8 21.8 0 0 1-3.17-.22l.06-.91.08-.68c.02-.21 0-.42.03-.65a7.25 7.25 0 0 0 .07-.94c.36-.14.59-.25.7-.32.46-.31.67-.75.63-1.3-.04-.46-.26-.8-.55-1.14l.2-.13 2.22-1.34a1303.77 1303.77 0 0 0 3.79-2.26c.05-.03.08-.04.1-.01Z" fill="#A19FA2"/><path d="M30.73 21.11c.25.22.43.37.52.47.32.34.47.47.66.74a2.57 2.57 0 0 0 .29.32c.02 0 .04.02.05.04l.02.03c0 .03 0 .06-.03.06l-1.9-1.1.39-.56ZM25.23 21.43l-.43.45c-.1.11-.21.26-.34.45l-1.16.64c.11-.25.22-.42.3-.53.23-.29.53-.52.9-.7.32-.14.56-.25.73-.31Z" fill="#E4B758"/><path d="M44.98 19.62c-.02-.03-.05-.02-.1 0l-.05.04-3.74 2.23-2.22 1.34-.2.13-.17.11-.17.11a6.79 6.79 0 0 1-.32.15l-.25-.05a.37.37 0 0 0-.15-.16l-1.76-1-3.08-1.77-2.56-1.42a.04.04 0 0 1-.02-.03.04.04 0 0 1 .01-.03.04.04 0 0 1 .02 0l.1-.05a.97.97 0 0 0 .35-.22h.02l.02-.01a.16.16 0 0 0 .04-.01 109.8 109.8 0 0 1 1.15-.65l.34-.2.44-.24a180.62 180.62 0 0 1 1.79-1.02l.56-.31a24.82 24.82 0 0 0 .7-.4l1.18-.67c.08-.04.12-.05.2 0a124.98 124.98 0 0 0 2.62 1.36 368.92 368.92 0 0 1 5.24 2.7c.04.01.04.04 0 .07Z" fill="url(#a)"/><path d="M38.67 23.36c.29.33.51.68.55 1.13.04.56-.17 1-.63 1.31a4.3 4.3 0 0 1-.71.35c0 .3-.02.6-.06.91-.03.23-.01.44-.03.65l-.08.68c-.04-.2-.06-.35-.04-.46.03-.17.06-.33.05-.51l-.03-.5v-1.04l.01-.11c.05-.3.03-.52.03-.78-.01-.28.03-.57.04-.86a1.02 1.02 0 0 0 .03-.33 2.05 2.05 0 0 0 0 .17v-.02c0-.01-.02-.02-.03 0h-.03l.01-.01.02-.02.01-.05a.03.03 0 0 0 .02-.02c0-.04 0-.07-.02-.1l-.02-.07.25.05h.03l.3-.15c.1-.06.21-.16.33-.22Z" fill="#D2D2D4"/><path d="M37.77 24.13c-.27.05-.54.12-.55.43-.02.33.23.42.48.55l.02.02c.02.24-.01.45-.02.64v.11l-.01-.36-.02-.02c-.38-.12-.73-.24-.83-.64-.1-.4.06-.78.46-.95.14-.06.3-.11.48-.15l.02.09v.01l-.02.01-.02.05v.02l-.02.01h.03c.01-.02.02-.01.02 0v.02c.01.03.01.03.01 0a2.05 2.05 0 0 1 0-.18c.01.12 0 .23-.03.34Z" fill="#F3E486"/><path d="m20.84 24.3-.93.54c-.57.13-1.04.42-1.22.98-.11.35-.08.8.1 1.13.13.24.3.48.49.73.04.06.1.1.17.04v.21c-.04.13-.03.28-.06.4-.02.16-.03.33-.03.51 0 .04 0 .09-.03.15 0 .02-.01.02-.02.03l-.18.09a14.44 14.44 0 0 0-.77-2.09 1.9 1.9 0 0 1 .36-2 2.7 2.7 0 0 1 1.57-.7l.12-.25h.02l.41.24Z" fill="#E4B758"/><path d="M37.77 24.13c-.02.29-.05.58-.04.86 0 .26.02.49-.03.78 0-.2.04-.4.02-.64l-.02-.02c-.25-.13-.5-.22-.48-.55 0-.3.28-.38.55-.43Z" fill="#E7D6B9"/><path d="M35.98 25.61c0-.19.01-.38.05-.57l-.41-.26a.41.41 0 0 0 .16-.23 50.74 50.74 0 0 1 .12-.33h.04c.14.16.23.43.3.58.18.35.3.71.4 1.11 0 .04 0 .05-.04.02-.1-.07-.2-.09-.31-.16-.1-.06-.2-.12-.31-.16Z" fill="#E4B758"/><path d="m32.24 22.77-1.9-1.1-2.19-1.31a.12.12 0 0 0-.12 0l-3.57 1.97-1.16.64-2.45 1.34-.94.53c-.11.07-.24.13-.37.19a.12.12 0 0 0-.07.06l5.9 3.93v-.13s.01-.02.03-.02h.03c.03 0 .03 0 .01-.03l-.52-.54v-.03l.02.01.55.48a.14.14 0 0 0 .17.01l.43-.26c.45-.25.92-.29 1.42-.12a10.54 10.54 0 0 1 .55.23c.2-.14.34-.23.4-.29l.4-.36.22-.18.33-.28v.01c-.1.14-.24.28-.36.4a6 6 0 0 0-.1.1c.2.22.34.48.44.78.02.05.05.1.09.12l.13.02c.1 0 .15.03.18.1a48.7 48.7 0 0 0 1.27-.84l.19-.12c.3-.2.6-.4.9-.58l2.74-1.76.23-.15a16.75 16.75 0 0 1 .81-.5c.06 0 .09-.02.1-.05l-.41-.26-3.38-2Z" fill="url(#b)"/><path d="M19.91 24.84c-.11.07-.24.13-.37.19a.12.12 0 0 0-.06.06c-.03 0-.03.02-.03.05 0 .16.03.32.05.48-.35.34-.42.96.05 1.24h.03a.16.16 0 0 0 .01-.12l.02.16c-.04.01-.07.05-.08.11l-.02.25-.03.23c0 .08-.02.16-.03.23-.06.07-.13.02-.17-.04a5.3 5.3 0 0 1-.5-.73 1.5 1.5 0 0 1-.09-1.13c.19-.56.65-.85 1.22-.98Z" fill="#F3E486"/><path d="M35.98 25.61c-.03.22-.04.44-.05.66l-.02.62c-.03.5-.05.73-.06 1.1 0 .17-.01.33-.03.5-.04.42-.06.77-.07 1.03a24.44 24.44 0 0 1-.11 1.93l-.02.55-.08 1.03c0 .05-.02.09-.04.11a.7.7 0 0 1-.14.1l-1.37.97-2.82 1.97-1.88 1.31-.73-.27c-.42-.15-.77-.34-.9-.8-.03-.1-.09-.34-.1-.47a60.3 60.3 0 0 1-.06-2.49c-.2.22-.34.37-.41.48-.3.4-.48.68-.72.94-.32.33-.66.54-1.14.84-.3.18-.61.37-.92.54l-2.62-1.91-.21-.17-1.32-.97c-.04-.03-.06-.09-.06-.18l-.01-.16-.18-2.22a9.43 9.43 0 0 1-.06-.72 9.42 9.42 0 0 0-.05-.6 25.5 25.5 0 0 0-.17-2.1c0-.1 0-.22-.02-.33l-.02-.16a4.6 4.6 0 0 1-.09-1.12 6.25 6.25 0 0 1-.05-.48c0-.03 0-.05.02-.05l4.02 2.68 1.87 1.25.08.07-.2.58c-.12.34-.12.7 0 1.04.06.14.15.32.27.52l-.91 1.07h.02l.95-.97c.22.02.42.07.63.11.16.04.33.06.48.05.37-.04.52-.07.75-.07l.1 1.69h.02a30.93 30.93 0 0 1 .1-1.44h.02l.53.8c.14.22.34.5.48.75 0 .01 0 .01 0 0-.13-.27-.29-.52-.41-.75l-.43-.8a1.97 1.97 0 0 1-.15-.36c.06-.08.12-.17.17-.28a11.11 11.11 0 0 0 .37-.91c.05-.05.1-.1.18-.15.2-.15.4-.3.62-.43l.76-.5 1.06-.71c.12-.09.28-.17.4-.25.3-.2.6-.4.9-.58l2.74-1.76c.26-.17.66-.44 1.01-.64h.03c.06 0 .09-.03.1-.06-.04.2-.05.38-.05.57Z" fill="#A19FA2"/><path d="m19.5 25.62.02.45c0 .12.02.34.07.67 0 .05 0 .08-.02.11h-.02c-.48-.27-.4-.89-.05-1.23Z" fill="#D2D2D4"/><path d="M19.6 26.9c.02.11.03.23.03.34a25.06 25.06 0 0 1 .17 2.1l.05.6c0 .23.03.47.06.7 0 .04 0 .06-.02.07h-.02c-.25-.18-.39-.42-.57-.7-.12-.16-.23-.4-.3-.55a.43.43 0 0 1-.05-.27c0-.01 0-.02.02-.03l.16-.05.18-.1c.01 0 .02 0 .02-.02a.46.46 0 0 0 .03-.15c0-.18 0-.35.03-.5.03-.13.02-.28.06-.4v-.22a5.74 5.74 0 0 1 .06-.46l.02-.25c.01-.06.04-.1.08-.11Z" fill="#E9B60C"/><path d="m37.7 26.93.02.49c.01.18-.02.34-.05.5-.02.12 0 .28.04.47l-.06.9c0 .15-.02.28-.07.4l.11-2.76Z" fill="#C0BEC1"/><path d="m29.8 29.03-.77.51a11.93 11.93 0 0 0-.8.58l-.01.02c0 .04-.02.08-.05.11-.01-.02 0-.05.03-.1v-.01c-.22.29-.29.62-.43.91a.98.98 0 0 0-.1.3h.02c0-.04 0-.08.02-.12.02-.03.02-.03.01 0l-.03.08c.02.1.08.21.15.36l.43.8c.12.23.28.48.4.74l.01.01c0 .01 0 .01 0 0-.14-.25-.34-.53-.48-.74a103.15 103.15 0 0 0-.55-.8h-.01l-.01.08a31.1 31.1 0 0 0-.09 1.36v-.01l-.11-1.7a.27.27 0 0 0-.1-.26c-.05-.04-.1-.05-.15-.03-.2.08-.38.12-.56.1-.34-.01-.6-.04-.86-.06l-.03.01-.16.16-.95.97h-.02l.9-1.07a.83.83 0 0 0 .18-.25v-.03a.52.52 0 0 0-.08-.16 1.66 1.66 0 0 1-.15-1.08 2 2 0 0 0 .03.68c.04.19.14.38.21.57h.03v-.02l-.14-.49a2.4 2.4 0 0 1-.08-.51c-.01-.23.08-.41.1-.56v-.04h-.02l-.03.02c.03-.02.05-.05.06-.08 0-.02 0-.05-.03-.08a.82.82 0 0 0-.14-.11l-.08-.07.01-.13s.01-.02.03-.02h.03c.03 0 .03 0 .01-.03l-.52-.54v-.03l.02.01.55.48a.14.14 0 0 0 .17.01l.43-.26c.45-.25.92-.29 1.42-.12a10.65 10.65 0 0 1 .55.23c.2-.14.34-.23.4-.29.2-.19.44-.38.62-.54l.33-.28v.01c-.12.18-.33.36-.46.48v.03c.2.21.34.47.44.77.02.05.05.1.09.12l.13.02c.1 0 .15.03.18.1Z" fill="#fff"/><path d="m18.47 29.79-.04-.08a.48.48 0 0 0-.22-.18l-.02.01v.16c.05.27.08.51.1.73a5.96 5.96 0 0 0 .12.99v.12c-.1.02-.2.06-.28.11l-2.56-1.92a7.16 7.16 0 0 0 2.45-1.92l.17 1.65v.02h.02a.5.5 0 0 1 .26.3Z" fill="#908E91"/><path d="M13.87 28.46v.02l-.01.02c-.12.06-.22.14-.31.23v.02l.68.52v.02l-.6.66h-.03l-1.02-.77a.02.02 0 0 0-.02 0l-.01.03c0-.04 0-.08.04-.1a16.39 16.39 0 0 1 1.1-.6c.05-.05.1-.06.16-.03l.02-.02Z" fill="#C0BEC1"/><path d="m43.53 29.33-.05.02-.01.02-.01.03a.7.7 0 0 1-.13.09 62.57 62.57 0 0 1-1.4.98l-.98.69c-.3.1-.64.07-.94 0a2.59 2.59 0 0 1-.96-.41l.24-.17c.42.28.87.38 1.37.29.5-.1.93-.51 1.1-.96.15-.36.26-.73.35-1.1.01-.03.05-.1.12-.18 0-.01.01-.02.03-.01.03 0 .07.02.1.04l.33.2c.3.15.56.32.84.47Z" fill="#D2D2D4"/><path d="M25.55 29.36c-.2.46-.28 1.01.05 1.43.04.05.06.1.08.16v.03c-.04.1-.1.18-.17.25-.12-.2-.21-.38-.26-.52-.13-.35-.13-.7 0-1.04.06-.2.12-.39.2-.58l.13.11.03.08c0 .03-.03.06-.06.08Z" fill="#C0BEC1"/><path d="m40.82 29.52-1.53 1.06-.24.17-.15.12-.07.06v.02c.17.24.51.42.8.53.19.08.38.1.58.16.02 0 .02.01 0 .02l-.26.2c-.1-.08-.21-.14-.34-.2l-.3-.11c-.24-.13-.47-.33-.71-.44h-.05a10.1 10.1 0 0 0-1.05.69l-.02-.01v-.04c.02-.49.09-1.13.1-1.75v-.3c.05-.13.07-.26.07-.4.65.08 1.07.14 1.26.15.63.05 1.26.08 1.91.07Z" fill="#908E91"/><path d="M25.6 30.8c-.33-.43-.26-.98-.05-1.44 0 0 .02 0 .03-.02h.02v.04c-.03.15-.11.33-.1.56.01.21.04.38.08.51a37.66 37.66 0 0 1 .14.5l-.02.01h-.01c-.07-.2-.17-.38-.21-.57a2 2 0 0 1-.03-.68c-.07.4-.03.71.15 1.08Z" fill="#D2D2D4"/><path d="M43.2 32.17c-.42-.64-.84-1.14-1.27-1.7a63.26 63.26 0 0 0 1.55-1.12l.05-.02a.16.16 0 0 1 .05-.02h.02a.02.02 0 0 1 0 .02c-.03.13-.05.26-.06.4 0 .13-.02.24-.03.33-.04.22-.08.38-.09.58 0 .2-.05.4-.08.6-.03.14-.02.26-.04.4l-.1.53Z" fill="#908E91"/><path d="m15.57 29.73 2.56 1.92.07.06a.89.89 0 0 1-.56.14c-.01 0-.02 0-.03-.02l-1.67-1.27-1.12-.85c-.02-.01-.02-.03 0-.05l.3-.23h.02l.43.3Z" fill="#7A6F6B"/><path d="m18.43 29.7-.12-.1c.05.1.09.21.11.32l.06.3c.04.1.08.25.1.37a22.83 22.83 0 0 1 .11.89c-.13.06-.22.04-.28-.06l-.07-.5-.05-.49a6.99 6.99 0 0 0-.1-.73v-.16h.02c.09.03.16.09.22.17Z" fill="#6A482C"/><path d="M37.58 30c-.01.62-.08 1.26-.1 1.75a26.5 26.5 0 0 0-.83-.41.03.03 0 0 0-.02.02c0 .25 0 .57-.05.84a1.56 1.56 0 0 1-.34.84.05.05 0 0 0 .02.05 141.55 141.55 0 0 0 1.02.65.4.4 0 0 0-.02.19l-.01.06c0 .02-.01.02-.02.02-.67-.2-1.22-.44-1.87-.77a.7.7 0 0 0 .14-.1c.02-.02.03-.06.04-.11l.08-1.03.01-.55c0-.2.02-.42.05-.62l.05.06s.01.02.03.02l.67.3a.08.08 0 0 0 .09-.02c.19-.16.38-.33.54-.54a6.86 6.86 0 0 0 .5-.74h.01V30Z" fill="#8C5B2F"/><path d="m28.17 30.25-.05.14c-.05.15-.14.36-.26.64-.05.1-.1.2-.17.28a.6.6 0 0 0 .03-.08c0-.03 0-.03 0 0a.35.35 0 0 0-.03.13h-.01v-.01c0-.1.04-.2.09-.3.14-.29.21-.62.42-.91h.01v.01c-.03.05-.04.08-.03.1Z" fill="#D2D2D4"/><path d="M41.92 30.47c.44.56.86 1.06 1.29 1.7l-.01.26-.1.51-.01.34c-.04.18-.06.33-.06.46 0 .08-.02.19-.04.3-.04.18-.06.34-.07.47 0 .22-.04.38-.08.61a2.7 2.7 0 0 0-.03.3c0 .09-.02.31-.1.37a885.01 885.01 0 0 1-5.84 4.48l-.03.02h-.02v-.05c.02-.18.04-.36.04-.52a7.57 7.57 0 0 1 .11-1.17v-.46l-.01-.03a19.29 19.29 0 0 0-1.69-.7l-.03.39-.09 1.43c-.03.3-.01.6-.04.87l-.08.96v.5a.06.06 0 0 1-.03.04l-5.37 4c-.28-.04-.5-.09-.66-.12a3.72 3.72 0 0 1-1.25-.58c-.03-.72-.03-1.53-.04-2.22a2.96 2.96 0 0 0-.03-.25l-.64.84c-.5.64-1.16 1.19-1.9 1.66l-1.47-1.16.8-.31a3.15 3.15 0 0 0 1.52-1.33c.45-.76.58-1.58.56-2.45l.18.13.9.73c.03.01.03.03.03.05a13.7 13.7 0 0 0 .07 1.2l.01-.01.04-1.15a.11.11 0 0 1 .04-.09l.8-.59.95-.7v-.02c-.1 0-.16.02-.2.04a33.24 33.24 0 0 1-.93.56c-.02 0-.04 0-.06-.02a203.39 203.39 0 0 0-2.48-1.87c.12 0 .25.03.4.07.1.03.24.03.38.02l.93.68h.04l.9-.61.13-.01.6-.03c.25-.03.47 0 .7-.05.18-.04.34-.06.5-.07.17-.02.35-.08.54-.1l.2-.05c.18-.04.34-.08.5-.16.2-.1.45-.3.63-.4.15-.07.23-.15.38-.25h.13l.02-.01 1.17-.8.89-.6c.26.39.5.54.9.77 1.48.86 1.28.55 1.26.27-.05-.54 0-1.4.2-2.76l2.68-1.94.27-.2v-.02c-.2-.05-.4-.08-.6-.16a1.9 1.9 0 0 1-.8-.53v-.02l.08-.06c.15.1.34.22.55.32.3.16.6.24.93.24a.4.4 0 0 0 .19-.04c.13-.06.26-.14.38-.23l.97-.7Z" fill="#A19FA2"/><path d="m15.94 30.56 1.67 1.27.03.02c.2.01.39-.03.56-.14l.14.1c.07.05.1.03.09-.04l-.02-.17.05.12c0 .01 0 .02.02.02.17-.04.33-.05.47.07.03.03.05.08.06.14a20.3 20.3 0 0 1 .14 1c0 .1-.01.16-.04.2a1.7 1.7 0 0 1-.6.5l-.1-.06c.09-.04.2-.11.37-.22.25-.18.3-.38.22-.66-.06-.22-.15-.46-.37-.56-.2-.1-.43-.13-.71-.1-.44.05-.44.4-.64.69l-.25-.18-1.68-1.28v-.03l.59-.69Z" fill="#95857D"/><path d="M39.05 30.75c.3.2.6.35.96.42.3.06.64.09.94-.01-.12.1-.25.17-.38.23a.4.4 0 0 1-.19.04c-.32 0-.63-.08-.93-.24-.21-.1-.4-.21-.55-.32l.15-.12Z" fill="#C0BEC1"/><path d="m39.95 31.86-2.63 1.86-.04.02a11.24 11.24 0 0 0-1.04-.66.05.05 0 0 1 0-.06c.22-.25.28-.5.34-.82.05-.27.05-.59.05-.84a.03.03 0 0 1 .01-.02.03.03 0 0 1 .03 0 27.25 27.25 0 0 1 .85.45 10.1 10.1 0 0 1 1.08-.69c.24.12.47.32.71.45l.3.12c.13.05.24.11.34.19Z" fill="#7A6F6B"/><path d="M27.43 31.42c-.23 0-.38.03-.75.07-.15.01-.32-.01-.48-.05-.21-.04-.4-.1-.63-.11l.16-.16.03-.01.86.07c.18 0 .36-.03.56-.11.05-.02.1-.01.15.03.08.07.12.16.1.27Z" fill="#D2D2D4"/><path d="m18.4 31.6.02.17c.01.07-.01.09-.08.04l-.14-.1-.07-.06a.82.82 0 0 1 .27-.11v.06Z" fill="#A19FA2"/><path d="m18.42 33.6-1.14-.86c.2-.3.2-.64.64-.7.28-.02.51.01.7.1.22.11.31.35.38.57.08.28.03.48-.23.66l-.35.22Z" fill="#AEA39E"/><path d="m17.03 32.56.25.18 1.14.85.09.07.15.12c-.71.17-1.4 0-1.58-.79a2.92 2.92 0 0 1-.05-.43Z" fill="#D2D2D4"/><path d="m19.54 33.16-.16.16c-.05.05-.04.06.02.03a54.76 54.76 0 0 0 .7-.32c0 .1.02.15.06.18l1.32.97c-.61.26-1.19.56-1.6 1.09-.09.1-.2.27-.32.5l-.51 1.08c0 .01 0 0 0 0l-.06-.47-.07-.58a8.69 8.69 0 0 0-.07-.58c-.04-.2-.06-.42-.07-.64a6 6 0 0 0-.04-.5v-.21c0-.05-.03-.08-.08-.1l-.15-.11c.24-.13.44-.3.6-.51.03-.04.04-.1.04-.2l-.01-.23.15.32c0 .02 0 .02.02.03l.23.09Z" fill="#957053"/><path d="m20.08 32.87.02.16c-.05 0-.1 0-.14.03l-.1.07-.46.22c-.06.03-.07.02-.02-.03l.16-.16.54-.29Z" fill="#6A482C"/><path d="M35.36 33.24a10.98 10.98 0 0 0 1.89.75v-.06.26a55.23 55.23 0 0 1-.1 1.25c0 .12 0 .25-.02.37-.7-.36-1.35-.68-2.09-.88l-1.06-.72 1.38-.97Z" fill="#957053"/><path d="M29.29 37.5a6.8 6.8 0 0 1-.64.44l-.13.1-.9.62h-.03l-.94-.68-2.34-1.72c.31-.17.62-.36.92-.54.48-.3.82-.5 1.14-.84.24-.26.42-.53.72-.94a5.22 5.22 0 0 1 .43-.47c0 .86.02 1.74.05 2.48 0 .13.06.36.1.47.12.46.47.65.9.8l.72.27Z" fill="#908E91"/><path d="m21.69 34.35-.3.17-.88.56v.01a.02.02 0 0 0 0 .02v.01l.05.02-.07.02-.02.03v.27l-.01.02c-.32.42-.51.9-.58 1.43 0 .07-.05.35-.13.84-.06.38-.23.7-.52.95l-.01-.32c0-.07 0-.14.03-.22.1-.34.15-.67.18-.98.04-.58.08-1.05.13-1.4.13-.24.23-.4.32-.51.42-.53 1-.83 1.6-1.1l.2.18Z" fill="#AEA39E"/><path d="m33.98 34.2 1.06.73.34.23a.02.02 0 0 1 .01.02v.02l-.48.33-.89.6a.86.86 0 0 0-.15-.15 16.86 16.86 0 0 1-.56-.4.1.1 0 0 0-.1 0c-.26.13-.42.22-.64.3-.37.15-.7.25-1.02.32a.73.73 0 0 1-.38-.02l2.81-1.97Z" fill="#8C5B2F"/><path d="m21.69 34.35 2.62 1.91 2.34 1.72c-.14.01-.27 0-.39-.02a2.58 2.58 0 0 0-.43-.08l-2.07-1.55-1.1-.83-.96-.72a1.6 1.6 0 0 1-.3-.26l.29-.17Z" fill="#6A482C"/><path d="M21.4 34.52c.1.12.2.2.3.26l.42 1.06v.01a.03.03 0 0 0 .03.01h.02c.16-.11.36-.21.5-.36l1.1.83-.8.57a1.45 1.45 0 0 0-.12-.08.8.8 0 0 1-.08-.06.8.8 0 0 0-.1-.06c-.39-.25-.85-.62-1.2-.88l-.91-.68-.04-.02a.02.02 0 0 1-.02-.03h.01l.89-.57Z" fill="#8C5B2F"/><path d="m21.7 34.78.97.72c-.14.15-.34.25-.5.36a.03.03 0 0 1-.03 0h-.02v-.02l-.42-1.06Z" fill="#BE7D39"/><path d="M37.13 35.81a11.04 11.04 0 0 0-.06 1.04l-.02.16a10.7 10.7 0 0 1-1.25-.58c-.4-.23-.63-.52-.9-.9l.49-.33a.02.02 0 0 0 0-.04l-.35-.23c.75.2 1.4.52 2.09.88Z" fill="#95857D"/><path d="m34.02 36.12-1.16.8h-.13l-.03.01c-.15.1-.23.18-.37.25-.2.1-.43.3-.63.4a2.58 2.58 0 0 1-.7.2c-.2.03-.37.1-.56.1-.15.02-.31.04-.48.08-.24.04-.46.02-.7.05-.2.02-.41.03-.61.03h-.13a35.31 35.31 0 0 0 .26-.2c.18-.1.34-.22.5-.35l1.89-1.31c.14.04.27.05.38.02.31-.07.65-.17 1.02-.31.23-.09.38-.18.65-.32a.1.1 0 0 1 .1 0l.1.06.45.35c.06.04.1.1.15.14Z" fill="#6A482C"/><path d="m19.23 38.7.04.5c.04.26.07.52.07.78 0 .07.02.13.04.2v.02h-.01a.03.03 0 0 1-.02 0h-.01l-2.4-1.95a5.39 5.39 0 0 0 2.05-1.87l.05.47h.01l.51-1.08c-.05.36-.1.83-.13 1.4-.03.32-.09.65-.19 1a.69.69 0 0 0-.02.21l.01.32Z" fill="#908E91"/><path d="m20.85 39.36-.23.14-.28.16-.96.51a18.62 18.62 0 0 0-.21-1.54c.64-.54.5-2.29 1.33-3.52 0-.01 0-.01 0 0 .24 1.14.2 3.09.35 4.25Z" fill="#D2D2D4"/><path d="m23.76 36.33 2.07 1.55h-.06c-.34-.08-.7-.15-1.02-.26a6.56 6.56 0 0 1-.64-.27l-.48-.28a.11.11 0 0 0-.07-.01l-.33.02h-.04l-.23-.18.8-.57Z" fill="#957053"/><path d="M36.98 38.41c-.24-.03-.47-.1-.68-.2-.35-.17-.7-.32-1.06-.46l.03-.38a19.37 19.37 0 0 1 1.7.72v.32Z" fill="#C0BEC1"/><path d="M24.12 37.35c.2.1.42.19.63.27.32.1.68.18 1.02.26h.1v.03a203.38 203.38 0 0 1 2.48 1.85.12.12 0 0 0 .13 0l.87-.54c.03-.02.1-.03.19-.04.01 0 .02 0 0 .01l-.94.71a.34.34 0 0 0-.34.02c-.21.13-.4.26-.6.34h-.04a8.75 8.75 0 0 0-.51-.34.94.94 0 0 0-.41-.16l-.18-.13-2.7-2.05v-.02l.3-.2ZM36.98 38.41v.14a33.95 33.95 0 0 0-.12 1.17c0 .16-.02.34-.04.52a317.43 317.43 0 0 1-1.67-1.06l.09-1.43c.36.14.71.3 1.06.46.21.1.44.17.68.2Z" fill="#D2D2D4"/><path d="M17.83 23.92 11 19.45l8.27-4.19 6.79 3.92-8.24 4.74Z" fill="url(#c)"/><path d="m28.4 11-6.87 3.36 6.5 4 7.1-4L28.41 11Z" fill="url(#d)"/><path d="M35.12 14.35v2.18l-4.34 2.5-2.1-1.05 6.44-3.63Z" fill="url(#e)"/><path d="M21.53 16.6v-2.26l6.52 4.02-1.92.88-4.6-2.64Z" fill="url(#f)"/><path d="m21.01 41.59-.5-6.42 7.34 5.28V47L21 41.59Z" fill="url(#g)"/><path d="m34.96 41.62.4-6.41-7.51 5.24V47l7.11-5.38Z" fill="url(#h)"/><defs><linearGradient id="a" x1="37.6" y1="15.45" x2="37.6" y2="23.74" gradientUnits="userSpaceOnUse"><stop offset=".55" stop-color="#C0BEC1"/><stop offset="1" stop-color="#EDEDED"/></linearGradient><linearGradient id="b" x1="27.75" y1="20.34" x2="27.75" y2="29.03" gradientUnits="userSpaceOnUse"><stop offset=".52" stop-color="#C0BEC1"/><stop offset="1" stop-color="#E0E0E0"/></linearGradient><linearGradient id="c" x1="18.54" y1="15.26" x2="18.54" y2="23.92" gradientUnits="userSpaceOnUse"><stop stop-color="#C0BEC1"/><stop offset=".52" stop-color="#CACACC"/><stop offset=".8" stop-color="#ECECEC"/></linearGradient><linearGradient id="d" x1="28.33" y1="11" x2="28.33" y2="18.36" gradientUnits="userSpaceOnUse"><stop stop-color="#C0BEC1"/><stop offset=".55" stop-color="#CCCCCE"/><stop offset=".83" stop-color="#fff"/></linearGradient><linearGradient id="e" x1="28.75" y1="18.57" x2="35.5" y2="14.29" gradientUnits="userSpaceOnUse"><stop stop-color="#959397"/><stop offset=".53" stop-color="#F3F3F3"/><stop offset="1" stop-color="#C6C4C5"/></linearGradient><linearGradient id="f" x1="21.01" y1="15.4" x2="26.89" y2="18.92" gradientUnits="userSpaceOnUse"><stop stop-color="#E0E0E0"/><stop offset=".36" stop-color="#BAB4B6"/><stop offset=".7" stop-color="#897E7C"/><stop offset="1" stop-color="#A79991"/></linearGradient><linearGradient id="g" x1="20.52" y1="38.1" x2="27.6" y2="45.88" gradientUnits="userSpaceOnUse"><stop stop-color="#A2A0A3"/><stop offset=".49" stop-color="#B5B3B6"/><stop offset="1" stop-color="#8C8A8D"/></linearGradient><linearGradient id="h" x1="35.35" y1="37.9" x2="28.05" y2="44.41" gradientUnits="userSpaceOnUse"><stop stop-color="#9E9C9F"/><stop offset=".58" stop-color="#B3B1B4"/><stop offset="1" stop-color="#9A989B"/></linearGradient></defs></svg>