<!-- by TradingView --><svg xmlns="http://www.w3.org/2000/svg" width="56" height="56" viewBox="0 0 56 56"><path fill="#38466D" d="M0 0h56v56H0z"/><path fill-rule="evenodd" d="M27.68 47 9 17h38L27.68 47Zm.17-3.02L16.15 25h23.79l-12.1 18.98ZM15.5 18v.21c.2.05.5.21.5.43v3.81l-.06.07c-.1.11-.25.27-.44.27V23h2.92c.36-.09 1.08-.5 1.08-1.5 0-.99-.64-1.17-.96-1.13.27-.16.8-.62.8-1.15 0-.65-.49-1.22-.92-1.22H15.5Zm1.5.39v1.84c.44 0 1.31-.18 1.31-.9 0-.73-.87-.93-1.31-.94Zm0 2.17v2c.47 0 1.42-.2 1.42-.99 0-.78-.95-1-1.42-1Zm3.02 2.12L21.96 18h.38l1.86 4.68h.22V23h-1.76v-.21h.26l-.49-1.29h-1.21l-.42 1.18h.35V23h-1.42v-.32h.29ZM21.39 21h.85l-.44-1.15-.4 1.15Zm12.75-3-1.86 4.68H32V23h1.37v-.32h-.34l.38-1.11h1.2l.46 1.22h-.26V23h1.69v-.32h-.2L34.5 18h-.37Zm.27 3h-.81l.39-1.15.42 1.15Zm-6.81-1.5h-.23c0-.78-.85-1.14-1.04-1.14-.19 0-.6.1-.6.59 0 .39.53.75.79.89 1.3.86 1.52 1.5 1.47 1.72 0 1.08-.81 1.43-1.22 1.47v.63c0 .56-.65.67-.97.66v-.3c.43 0 .45-.66.4-1-.1 0-.48-.17-.66-.25V23H25v-1.82h.25c0 1.2.92 1.59 1.08 1.59.17 0 .84-.11.84-.67 0-.44-.67-.92-1-1.1-.4-.18-1.17-.75-1.17-1.6 0-1.05.81-1.4 1.33-1.4.42 0 .86.31 1.04.47V18h.23v1.5Zm11.77 0h.23V18h-.23v.47c-.18-.16-.62-.47-1.04-.47-.52 0-1.33.35-1.33 1.4 0 .85.78 1.42 1.17 1.6.33.18 1 .66 1 1.1 0 .56-.67.67-.84.67-.16 0-1.08-.4-1.08-1.59H37V23h.54v-.23c.18.08.56.26.66.26.05.33.03 1-.4 1v.29c.32.01.97-.1.97-.66v-.63c.41-.04 1.22-.39 1.22-1.47.05-.22-.18-.86-1.47-1.72-.26-.14-.78-.5-.78-.89 0-.48.4-.59.6-.59.18 0 1.03.36 1.03 1.15ZM30 18.44v4.14h-.42V23h1.84v-.43H31v-4.14h.32c.42 0 .77.43.77.97h.34V18h-4v1.4h.36c0-.54.35-.97.77-.97H30Z" fill="#fff"/><path fill-rule="evenodd" d="M19.06 12.72a.36.36 0 1 0 0-.72.36.36 0 0 0 0 .72Zm-.5.62c.22-.04.71-.17.97-.34v2.65l.42.35h-1.3l.35-.4v-2.26h-.43Zm-2.01.65a.48.48 0 0 1-.33-.37.36.36 0 0 0-.36-.27c-.32 0-.76.26-.76.98s.33 1.16.76 1.16c.35 0 .88-.52 1.1-.78-.09.42-.42 1.27-.95 1.27.08.08.24.3.24.58 0 .36-.4.54-.9.54.16-.1.48-.33.48-.54 0-.2-.26-.2-.4-.17l.17-.39c-.33-.05-.97-.42-.97-1.53 0-1.38 1.13-1.47 1.23-1.47.1 0 .88.05 1 .65.02.27-.17.34-.31.34Zm4.54-.59.9-.39v.45a.7.7 0 0 1 .62-.42c.38 0 .7.27.82.64.06-.36.35-.64.7-.64.48 0 .87.44.87.98v1.64l.37.34h-1.18l.4-.34V14c0-.33-.24-.6-.54-.6-.3 0-.55.27-.55.6v1.67l.35.33h-1.18l.4-.34V14c0-.33-.24-.6-.54-.6-.29 0-.52.25-.54.56v1.66l.38.4h-1.25l.4-.4V13.4h-.43ZM31 13l-1 .39h.46v2.22l-.42.39h1.35l-.39-.39v-1.78a.6.6 0 0 1 .57-.45c.33 0 .6.28.6.61v1.64l-.45.34H33l-.4-.34v-1.62a.97.97 0 0 0-.95-.98.76.76 0 0 0-.65.38V13Zm-1.77 1.19h-1.96c0 .66.32 1.33.9 1.33.45 0 .97-.45 1.16-.68-.14.4-.6 1.17-1.33 1.17-.92 0-1.17-1.24-1.17-1.5S26.98 13 28 13c.81 0 1.15.79 1.23 1.19Zm-.6-.25h-1.37c.08-.23.33-.67.7-.67.37 0 .6.44.66.67ZM34.65 12c0 .75-.33 1-.77 1v.39h.55v1.88c0 .24.12.73.6.73.46 0 .76-.47.85-.7-.12.1-.4.33-.6.33-.2 0-.25-.18-.26-.26v-1.98h.75V13h-.75v-1h-.37ZM40 14.5c0 .83-.6 1.5-1.35 1.5-.74 0-1.35-.67-1.35-1.5s.6-1.5 1.35-1.5c.75 0 1.35.67 1.35 1.5Zm-.51 0c0 .68-.38 1.23-.84 1.23-.46 0-.84-.55-.84-1.23 0-.68.38-1.23.84-1.23.46 0 .84.55.84 1.23Z" fill="#fff"/></svg>