<!-- by TradingView --><svg xmlns="http://www.w3.org/2000/svg" width="56" height="56" viewBox="0 0 56 56"><path fill="url(#aockflfwh)" d="M0 0h56v56H0z"/><path d="M19 9v23.1C19 38.14 23.94 43 30.01 43 36.07 43 41 38.14 41 32.13c0-5.96-4.85-10.8-10.86-10.87h-.55l-2.74.17 1.11 2.36 1.72-.14h.43c4.7.06 8.69 3.84 8.69 8.48 0 4.68-4.06 8.47-8.79 8.47-4.74 0-9.01-3.8-9.01-8.5V9h-2zm3 2.2h2V32.1c0 2.7 3.27 4.9 6.01 4.9 2.73 0 4.94-2.19 4.94-4.88a4.9 4.9 0 0 0-4.88-4.88h-.27l-1.8.11-1.07-1.91 1.58-.5 1.2-.1h.39a7.31 7.31 0 0 1 7.27 7.28c0 4.02-3.3 7.28-7.36 7.28-4.07 0-8.01-3.27-8.01-7.3V11.19z" fill="#fff"/><defs><linearGradient id="aockflfwh" x1="28" y1="0" x2="28" y2="56" gradientUnits="userSpaceOnUse"><stop stop-color="#9E0428"/><stop offset="1" stop-color="#800114"/></linearGradient></defs></svg>