<!-- by TradingView --><svg width="56" height="56" viewBox="0 0 56 56" xmlns="http://www.w3.org/2000/svg"><path fill="#0887BE" d="M0 0h56v56H0z"/><path d="M20 22H9v4h11v-4ZM19 27H9v4h10v-4ZM20 32H9v4h11v-4ZM47 22H36v4h11v-4ZM46 27H36v4h10v-4ZM47 32H36v4h11v-4ZM28 29h6v3.94c0 1.69-1.44 3.06-3.22 3.06h-5.55A3.15 3.15 0 0 1 22 32.94v-7.88c0-1.69 1.44-3.06 3.23-3.06h5.55A3.15 3.15 0 0 1 34 25.06V27h-4v-1.63c0-.22-.2-.37-.44-.37h-3.14c-.24 0-.42.15-.42.37v7.16c0 .22.18.47.42.47h3.14c.24 0 .44-.25.44-.47V31.5h-2V29ZM40.45 15H42v5h-1.55v-5ZM33 20v-3.69h-1.38V15h4.25v1.31h-1.36v3.7H33Zm-10.35 0 1.67-5h1.54l1.67 5h-1.5l-.18-.66h-1.51l-.19.66h-1.5Zm1.96-1.71h.96l-.47-1.73-.49 1.73ZM14 20v-5h1.94c.42 0 .72.01.92.03.19.03.35.06.49.12.24.1.42.24.55.44.13.2.2.45.2.73 0 .23-.05.43-.15.6-.1.17-.24.3-.43.41.25.1.44.24.56.43.12.2.18.44.18.74s-.06.56-.18.77a1.2 1.2 0 0 1-.5.51c-.16.08-.33.14-.52.17-.2.04-.52.05-.96.05H14Zm1.48-3h.62c.21 0 .36-.04.44-.1.09-.07.14-.18.14-.34 0-.16-.05-.27-.14-.34-.1-.05-.3-.09-.64-.09h-.43V17Zm0 1.83h.7c.23 0 .4-.03.5-.1.1-.08.15-.2.15-.36 0-.17-.05-.29-.15-.36-.1-.07-.27-.1-.51-.1h-.7v.92ZM23.98 41.48c-.3.38-.7.52-1.07.52-1.2 0-1.91-.88-1.91-1.98S21.71 38 22.9 38c.8 0 1.56.48 1.65 1.35h-.82c-.1-.43-.41-.64-.82-.64-.77 0-1.06.64-1.06 1.3 0 .68.29 1.29 1.06 1.29.56 0 .87-.3.92-.83h-.86v-.62h1.64v2.06h-.55l-.09-.43ZM27.51 40.44 26.04 38h1l.93 1.58.92-1.58h.98l-1.48 2.46V42h-.88v-1.56ZM33.04 38c1.2 0 1.9.88 1.9 2.01 0 1.14-.7 1.99-1.9 1.99s-1.9-.88-1.9-1.99c0-1.1.7-2.01 1.9-2.01Zm0 3.3c.77 0 1.05-.65 1.05-1.29 0-.66-.28-1.3-1.05-1.3s-1.06.64-1.06 1.3c0 .67.3 1.28 1.06 1.28Z" fill="#fff"/></svg>