<!-- by TradingView --><svg width="56" height="56" xmlns="http://www.w3.org/2000/svg"><path fill="url(#paint0_linear)" d="M0 0h56v56H0z"/><path d="M28.267 24h3.092c-.576.386-.409.883-.26 1.362.337 1.078.65 2.163 1.042 3.25.139-.538.279-1.076.416-1.614.093-.366.156-.741.279-1.096.236-.685.116-1.307-.442-1.902H42v2.78S41.5 25 40.5 25v6.566c0 .607.14 1.018.688 1.434.21-.4.468-.718.572-1.097.72-2.62 2.057-7.94 2.057-7.94l2.683 7.412 1.067-1.296c.19.884.327 1.63 1.247 2.066.917.434 1.963-.12 1.54-1.225-.502-1.312-1.651-1.511-2.702-2.215-.923-.619-1.322-1.75-1.056-2.811.274-1.1 1.065-1.804 2.218-1.963 1.463-.202 2.518.721 2.518.721l-1.055 1.9c-.15-.88-.674-1.718-1.604-1.9-.665-.129-1.172.497-.882 1.105.15.314.415.615.704.81 1.723 1.159 3.788 2.008 3.22 4.596-.238 1.08-1.052 1.816-2.22 2.016-.591.1-1.169.084-1.738-.123a1.274 1.274 0 00-.425-.056c-.999-.005-2.002 0-3.123 0 .671-.44.563-1.264.371-1.81L44.5 31h-1.753s-.108.297-.147.495c-.1.505-.156 1.061.4 1.505h-5.279c.465-.388.779-.662.779-1.422V25c-.824.01-1.07.362-1.5 1.78v-2.645c-.51 0-.999.446-1 .822 0 0-.015 4.632 0 6.787.004.531.294.935.834 1.256h-3.688c.651-.422.872-1.07.854-1.845-.04-1.788-.013-3.898-.012-5.687 0-.32-.065-.61-.372-.853-.745 2.755-1.937 8.382-1.937 8.382h-.065c-.272-.83-.547-1.659-.816-2.49-.516-1.593-1.05-3.377-1.564-4.971-.19-.588-.425-1.168-.967-1.536zm15.927 6l-.734-2.1-.531 2.1h1.265zm-32.896 3.012H8.36c.252-.464.096-.876-.103-1.28C7.937 31.08 7 29.706 7 29.706v2.456c0 .364.713.839.713.839H4.507s.5-1.015.493-1.564a256.843 256.843 0 010-5.909c.008-.633-.636-1.526-.636-1.526h3.434S7 25 7 25.666v1.616c.45-.63 1.16-1.53 1.586-2.175.232-.351.087-.728-.096-1.107h2.115c-.95.79-1.46 1.925-2.144 2.887-.112.157-.11.282-.024.452.743 1.463 1.47 3.269 2.222 4.729.166.322.406.605.639.944zm12.94.482c-1.67-.863-3.102-2.1-4.238-3.59v1.4c0 .696.245 1.309.594 1.696h-3.078c.32-.365.484-1 .484-1.663v-.995c.018-1.388 0-4.207 0-4.207.008-.74-.038-1.477-.547-2.135 0 0 2.333-.023 3.429 0 1.17.025 2.045.678 2.435 1.72.67 1.791-1.248 3.318-1.248 3.318.59 1.508 1.16 3.17 2.169 4.456zM20 28.329c0 .52.402.627.761.49.655-.25.818-1.212.864-1.819.056-.727-.062-1.912-.79-2.285-.377-.193-.849-.209-.835.262v3.352zM11.183 24h5.304c-.009 0 0 2.5 0 2.5s-1.75-1.83-2.487-1.83v3.35c.816.244 1.488.05 2.181-.561v1.826c-.644-.51-1.133-.632-2.181-.445v3.38c1.277 0 2.487-1.921 2.487-1.921V33H14.1c-.614 0-2.62.009-2.614 0 .31-.464.513-1 .513-1.604v-5.691c.01-.668-.243-1.172-.817-1.705zM36 21.99c0 .557-.442 1.006-.998 1.01A.996.996 0 0134 22a.975.975 0 01.993-1 .992.992 0 011.007.99zm14 13a1.011 1.011 0 01-.996 1.01.996.996 0 01-1.004-.998.978.978 0 01.99-1.002.996.996 0 011.01.99z" fill="#fff"/><path d="M29.165 26h-.867v.8s-.343.264-.918.2c-1.043-.116-2.53-1.454-2.53-1.454-.49.906-.09 2.44.951 2.454.39.005.871.004 1.2.003a.35.35 0 00.38.346v.302A.35.35 0 0027 29h-1.2c-.951 0-1.411 1.471-.949 2.433 0 0 1.408-1.201 2.43-1.433.673-.152 1.463.212 1.463.212V31h.803c-.464 1.206-1.729 2.007-2.983 2.121-.927.084-1.649-.29-2.21-1.06A1.92 1.92 0 0124 31.045v-5.03c0-1.016.747-2.224 2.037-2.24C27.636 23.756 29 25 29.165 26z" fill="#fff"/><path d="M27.629 29.023a.25.25 0 11-.5 0 .25.25 0 01.5 0zm.005-1.041a.25.25 0 11-.5 0 .25.25 0 01.5 0z" fill="#fff"/><defs><linearGradient id="paint0_linear" x1="10.418" y1="9.712" x2="68.147" y2="76.017" gradientUnits="userSpaceOnUse"><stop stop-color="#1A1E21"/><stop offset="1" stop-color="#06060A"/></linearGradient></defs></svg>