<!-- by TradingView --><svg width="56" height="56" viewBox="0 0 56 56" xmlns="http://www.w3.org/2000/svg"><path fill="#F0F3FA" d="M0 0h56v56H0z"/><path d="M16.84 12.03c1.97-.08 4 0 6.1.25 4.64.57 7.14 4.29 7.36 8.38a7.95 7.95 0 0 1-1.73 5.49c-.04.06-.1.1-.17.13a.5.5 0 0 1-.23.04l-1.3-.1a.1.1 0 0 0-.09.04.07.07 0 0 0 .05.08c5.73 1.41 7.44 7.6 5.47 12.24a9 9 0 0 1-6.44 5.07c-.84.2-2.34.33-4.51.35h-6.74c-.03 0-.07-.02-.1-.04a.21.21 0 0 1-.08-.07.19.19 0 0 1 0-.2c2.8-4.55 3.45-9.8 3.12-14.95l.01-.1a.23.23 0 0 1 .07-.08.26.26 0 0 1 .2-.06l2.4.47a.16.16 0 0 0 .13-.04.14.14 0 0 0 .03-.05l.01-.07-1.43-8.01a.18.18 0 0 1 .05-.15.2.2 0 0 1 .15-.07l2.26-.13-4.73-8.18a.15.15 0 0 1 0-.16.17.17 0 0 1 .06-.05.18.18 0 0 1 .08-.03Z" fill="url(#a)"/><path d="M32.16 12c4.71.11 7.63 2.47 8.74 6.8a8.5 8.5 0 0 1-.46 5.7c-.5 1.27-1.09 1.88-1.75 1.82l-.93-.11a.1.1 0 0 0-.1.05.1.1 0 0 0-.01.03l.01.07a.1.1 0 0 0 .07.04c1.39.27 2.46.75 3.22 1.47 2.94 2.76 3.76 6.17 2.44 10.21-1.65 4-4.99 5.79-9.53 5.92H28.6l-.04-.04a.07.07 0 0 1-.02-.03v-.05l.02-.03c4.47-2.76 6.2-6.53 5.21-11.3-.46-2.25-1.82-4.19-4.06-5.81a.26.26 0 0 1-.1-.16.24.24 0 0 1 .03-.18A10 10 0 0 0 31.3 21c-.07-.55-.16-1.12-.27-1.7a9.58 9.58 0 0 0-5.36-7.12v-.05c0-.02 0-.03.02-.04.02-.01.04-.1.05-.1h6.42Z" fill="url(#b)"/><path d="m15.76 12.25.02.02 4.56 7.33a.2.2 0 0 1 0 .2.21.21 0 0 1-.08.08.24.24 0 0 1-.11.02h-1.8c-.03 0-.07 0-.1.02a.23.23 0 0 0-.07.06.2.2 0 0 0-.05.17l1.4 7.84-.01.05c0 .02-.02.04-.04.05a.14.14 0 0 1-.11.03l-2.45-.48a.17.17 0 0 0-.15.05.14.14 0 0 0-.03.07v.07c.14.35.16 2.19.05 5.52-.11 3.55-1.1 6.9-2.96 10.06a.75.75 0 0 1-.24.27.1.1 0 0 1-.1 0 .08.08 0 0 1-.03-.05v-.05a21.16 21.16 0 0 0-.49-16.63c-.32-.73-.67-1.31-.95-1.87a.15.15 0 0 1 .01-.16.18.18 0 0 1 .07-.06.2.2 0 0 1 .1-.01l3.1.31.1-.01a.24.24 0 0 0 .1-.06.22.22 0 0 0 .06-.19l-1.34-7.47a.28.28 0 0 1 .06-.22.3.3 0 0 1 .09-.08.33.33 0 0 1 .11-.04l2.07-.32a.4.4 0 0 0 .15-.05.36.36 0 0 0 .11-.1.34.34 0 0 0 .05-.29 53.52 53.52 0 0 1-1.15-4.06.05.05 0 0 1 .05-.02Z" fill="url(#c)"/><defs><linearGradient id="a" x1="37.93" y1="14.51" x2="17.68" y2="43.03" gradientUnits="userSpaceOnUse"><stop stop-color="#76B729"/><stop offset=".48" stop-color="#55893C"/><stop offset="1" stop-color="#3F693E"/></linearGradient><linearGradient id="b" x1="37.93" y1="14.51" x2="17.68" y2="43.03" gradientUnits="userSpaceOnUse"><stop stop-color="#76B729"/><stop offset=".48" stop-color="#55893C"/><stop offset="1" stop-color="#3F693E"/></linearGradient><linearGradient id="c" x1="37.93" y1="14.51" x2="17.68" y2="43.03" gradientUnits="userSpaceOnUse"><stop stop-color="#76B729"/><stop offset=".48" stop-color="#55893C"/><stop offset="1" stop-color="#3F693E"/></linearGradient></defs></svg>