<!-- by TradingView --><svg xmlns="http://www.w3.org/2000/svg" width="56" height="56"><path fill="#2B4F95" d="M0 0h56v56H0z"/><path fill-rule="evenodd" d="M11.86 23H4v9h8.03c1.06 0 3.42-.72 3.38-2.25-.03-1.53-2.08-2.28-3.1-2.46.94-.05 2.78-.57 2.68-2.07-.1-1.5-2.03-2.22-3.13-2.22zM8 24h1.5a1.5 1.5 0 010 3H8v-3zm1.98 4H8v3h1.98a1.5 1.5 0 000-3z" fill="#fff"/><path d="M28.1 30.95L24.36 25h3.99l2.17 3.4 2.1-3.4h1.57l-4.87 7.87A2.96 2.96 0 0127.06 34c-.77.01-2.26-.2-2.26-1.13 0-.65.7-.77 1.1-.5.32.6.88.5 1.16.5 1.48-.25 1.31-1.39 1.04-1.92z" fill="#fff"/><path fill-rule="evenodd" d="M35.26 27.4c-.37-.05-.86-.3-.62-1.01.3-.9 2.13-1.46 4.45-1.38 1.2 0 3.71.44 3.91 1.73v4.21h.72L47.88 26h-3.7v-1H52v1.14L47.88 31H52v1H40.44a2 2 0 01-.32-.3 2.89 2.89 0 00-.52-.45 5 5 0 01-2.57.75c-1.01 0-3.06-.47-3.03-1.92.03-1.44 1.18-1.84 2.5-2.05 1.31-.2 2.83-.7 2.83-1.3 0-.59-.5-.86-1.4-.92a3.45 3.45 0 00-1.85.58c.17.34 0 1-.82 1zm3.94.77v1.91c-.05.27-.29.82-.85.83-.7.02-.8-.7-.78-1.15.02-.44.49-1.2 1.63-1.6zm-14.2.29c-.03-1.11-.9-3.36-4.16-3.46-4.06-.11-4.84 2.54-4.84 3.46 0 .91.09 3.45 5.08 3.54 1.1-.02 3.42-.52 3.92-2.36h-1.52c-.08.48-.55 1.31-1.77 1.36-1.52.06-2.71-.81-2.71-2.54h6zm-6-.96v.5h3v-.5a1.5 1.5 0 00-3 0z" fill="#fff"/></svg>