<!-- by TradingView --><svg xmlns="http://www.w3.org/2000/svg" width="56" height="56"><path fill="#EA0016" d="M0 0h56v56H0z"/><path fill-rule="evenodd" d="M43 28a15 15 0 11-30 0 15 15 0 0130 0zm2 0a17 17 0 11-34 0 17 17 0 0134 0zM33 18h2c3.33 2.2 5 6.01 5 10s-2.05 7.8-5.38 10H33v-5H23v5h-2c-3.13-2.07-5-6.33-5-10s1.87-7.93 5-10h2v5h10v-5zM18 28c0 2.99.77 5.56 3 7.54V20.53C18.77 22.5 18 25 18 28zm17 4.49v3.05c2.2-1.98 3-4.58 3-7.54s-.78-5.5-2.99-7.47L35 23.48v9zM23 31h10v-6H23v6z" fill="#fff"/></svg>