<!-- by TradingView --><svg width="56" height="56" viewBox="0 0 56 56" xmlns="http://www.w3.org/2000/svg"><path fill="url(#a)" d="M0 0h56v56H0z"/><path d="M10.18 25.2c3.24-2.28 7.8-.71 8.68 3.11.72 3.1-1.38 6.48-4.77 6.66-.82.04-1.37.04-1.65-.01a5.49 5.49 0 0 1-4.17-3.75A9.84 9.84 0 0 1 8 28.7v-7.62c0-.05.03-.07.07-.07h1.85c.05 0 .08.03.08.08v4.02c0 .14.06.17.18.1Zm6.75 4.4c0-.9-.36-1.76-1-2.4a3.43 3.43 0 0 0-5.83 2.4c0 .89.36 1.75 1 2.38a3.43 3.43 0 0 0 5.83-2.39ZM22.9 21h-1.8a.1.1 0 0 0-.1.1v1.8c0 .06.04.1.1.1h1.8a.1.1 0 0 0 .1-.1v-1.8a.1.1 0 0 0-.1-.1ZM42.53 24c2.32 0 4.55 1.5 5.25 3.77.14.44.21 1.15.22 2.12v5c0 .07-.06.11-.14.11H46.1a.12.12 0 0 1-.1-.07V29.4c-.01-1.83-1.65-3.32-3.48-3.33-1.83 0-3.5 1.48-3.52 3.3v5.48l-.03.04a.12.12 0 0 1-.11.08l-1.74-.02c-.08 0-.12-.03-.12-.11v-5a8 8 0 0 1 .25-2.12A5.55 5.55 0 0 1 42.53 24ZM22.91 24H21.1a.09.09 0 0 0-.09.09v10.82c0 .05.04.09.09.09h1.82c.05 0 .09-.04.09-.09V24.09a.09.09 0 0 0-.09-.09ZM27.22 30.74c1 2.4 3.71 2.94 5.5 1.08a.25.25 0 0 1 .18-.08h2.16l.03.01.02.02a.07.07 0 0 1 0 .07c-1.16 2.35-3.01 3.4-5.55 3.12a4.78 4.78 0 0 1-3.53-2.16c-2.49-3.57-.21-8.58 4.01-8.8 3.43-.17 5.96 2.92 5.47 6.42-.01.04-.03.07-.06.1a.16.16 0 0 1-.1.04h-8.02c-.12 0-.16.06-.11.18Zm3.08-2.28a573.73 573.73 0 0 0 3.03-.02.1.1 0 0 0 .04-.08 3.25 3.25 0 0 0-6.15-.01c0 .02 0 .03.02.05l.03.03h.04l2.99.03Z" fill="#fff"/><defs><linearGradient id="a" x1="10.42" y1="9.71" x2="68.15" y2="76.02" gradientUnits="userSpaceOnUse"><stop stop-color="#1A1E21"/><stop offset="1" stop-color="#06060A"/></linearGradient></defs></svg>