<!-- by TradingView --><svg width="56" height="56" viewBox="0 0 56 56" xmlns="http://www.w3.org/2000/svg"><path fill="#F0F3FA" d="M0 0h56v56H0z"/><path d="m27 23.7-.01-.02-.03-.01h-1.88a.08.08 0 0 1-.05-.02l-.02-.02v-1.56l.01-.05a.07.07 0 0 1 .05-.02h3.86c.02 0 .04 0 .05.02l.02.04v3.47c0 .03 0 .05-.02.08a.19.19 0 0 1-.05.06c-2.03 1.54-5.36 1.93-7.43.16a4.37 4.37 0 0 1-.42-6.17c.81-.92 1.9-1.46 3.26-1.62a5.8 5.8 0 0 1 4.29 1.13.1.1 0 0 1-.02.13l-1.24 1.32-.02.02a.08.08 0 0 1-.08-.01c-1.63-1.36-4.02-1.1-4.9.87-.29.66-.22 1.7.16 2.36.89 1.53 2.82 1.71 4.4.91.03 0 .04-.02.05-.04a.1.1 0 0 0 .02-.05v-.98ZM14.35 22.32l.46.22c.99.46 1.35 1.52 1.12 2.52-.34 1.53-2.03 1.96-3.5 1.94a783.62 783.62 0 0 0-4.41-.02.06.06 0 0 1-.02-.04v-8.89l.01-.03.04-.02h4.2c1.61 0 3.29.63 3.23 2.45-.03.77-.4 1.37-1.14 1.8-.04.02-.04.05 0 .07ZM10 20.02v1.55l.03.06.03.01 2.13-.01c.49 0 1.2-.27 1.2-.86s-.71-.77-1.2-.77h-2.14c-.02 0-.05-.03-.05.01Zm0 3.31v1.62c0 .01 0 .02.02.03l.02.02h2.65c.52 0 1.22-.29 1.22-.83 0-.23-.13-.45-.35-.61a1.5 1.5 0 0 0-.86-.26H10.02l-.02.03ZM18.96 18h-1.92a.04.04 0 0 0-.04.04v8.92c0 .02.02.04.04.04h1.92c.02 0 .04-.02.04-.04v-8.92a.04.04 0 0 0-.04-.04ZM14.68 31.75c-1.37-1.37-3.6-1.33-4.44.58-.62 1.44 0 3.29 1.57 3.78 1.04.33 2.15-.1 2.9-.87a.09.09 0 0 1 .1-.01l.02.01 1.14 1.14c.04.04.04.08 0 .12a4.55 4.55 0 0 1-3.6 1.5A4.38 4.38 0 0 1 8 33.32c.13-3.08 2.9-4.85 5.8-4.18a4.42 4.42 0 0 1 2.14 1.21v.04l-1.18 1.36-.02.01a.05.05 0 0 1-.04 0l-.02-.01ZM45.97 35.43c0-.48-.43-.67-.83-.8-.75-.27-2-.46-2.96-.99-1.01-.56-1.26-1.77-.95-2.77.34-1.1 1.45-1.75 2.62-1.85a5.57 5.57 0 0 1 3.86 1.1v.04l-.97 1.34a.1.1 0 0 1-.11.04.1.1 0 0 1-.04-.01c-.8-.53-1.8-.96-2.78-.76-.3.06-.6.26-.65.58-.1.58.35.83.86.98 1.4.42 3.6.66 3.92 2.36.25 1.27-.28 2.45-1.53 2.97-1.86.76-4.11.16-5.6-1.02a.1.1 0 0 1-.03-.1.1.1 0 0 1 .01-.04l1.12-1.24.03-.02a.08.08 0 0 1 .09.01c.83.71 2.07 1.19 3.16.97.52-.11.78-.37.78-.79ZM20.9 32.58a523.26 523.26 0 0 0 2.08-.02.06.06 0 0 0 .02-.05v-3.47l.01-.03.04-.01h1.88c.05 0 .07.02.07.07v8.86c0 .05-.02.07-.07.07h-1.88a.05.05 0 0 1-.03-.01l-.02-.02V34.5c0-.02 0-.04-.02-.05a425.54 425.54 0 0 0-3.96 0 .06.06 0 0 0-.02.05v3.48l-.01.02a.05.05 0 0 1-.03.01h-1.9c-.04 0-.06-.02-.06-.07v-8.86c0-.05.02-.07.07-.07h1.89l.03.01.01.03v3.47l.02.05.05.02h1.84ZM28.06 36h4.88c.02 0 .03 0 .04.02l.02.04v1.88c0 .02 0 .03-.02.04a.06.06 0 0 1-.04.02h-6.88c-.02 0-.03 0-.04-.02a.06.06 0 0 1-.02-.04v-8.88c0-.02 0-.03.02-.04a.06.06 0 0 1 .04-.02h6.88c.02 0 .04 0 .05.02l.01.04v1.88l-.01.04a.06.06 0 0 1-.05.02h-4.86l-.04.01-.04.04v1.47c0 .02.03.03.04.04l.04.02h4.2c.01 0 .03 0 .04.02l.02.04v1.66c0 .02 0 .03-.02.04a.06.06 0 0 1-.04.02h-4.22c-.02 0-.03 0-.04.02a.06.06 0 0 0-.02.04v1.52c0 .02 0 .03.02.05l.04.01ZM35.95 38h-1.89c-.02 0-.03 0-.04-.02a.06.06 0 0 1-.02-.04v-8.88c0-.02 0-.03.02-.04a.06.06 0 0 1 .04-.02h6.88c.01 0 .03 0 .04.02l.02.04v1.88l-.02.04a.06.06 0 0 1-.04.02h-4.87c-.02 0-.03 0-.04.02-.01 0-.03.02-.03.04v1.6l.03.03c0 .02.02.02.04.02h4.27c.01 0 .03 0 .04.02l.02.04v1.72l-.02.04a.06.06 0 0 1-.04.02h-4.27l-.04.01c-.02.02-.03.03-.03.05v3.33l-.01.04a.06.06 0 0 1-.04.02Z" fill="#211F21"/></svg>