<!-- by TradingView --><svg width="56" height="56" viewBox="0 0 56 56" xmlns="http://www.w3.org/2000/svg"><path fill="#F0F3FA" d="M0 0h56v56H0z"/><path d="m42.51 29-.06-.07a1.24 1.24 0 0 0-.15-.46l-4.6-8.2a1.9 1.9 0 0 0-.74-.71c-.3-.18-.64-.24-1-.2-.83.08-1.23.64-1.67 1.43L30 28.45a2.27 2.27 0 0 0-.2.54.02.02 0 0 1-.03 0h-.01a2.5 2.5 0 0 1-.18-2.63 2543.95 2543.95 0 0 1 3.58-6.4l-.01-.03c-.48-.9-.9-1.65-1.28-2.27a2.24 2.24 0 0 0-1.84-1.19 2.3 2.3 0 0 0-2.08 1.22l-5.57 9.93a3.08 3.08 0 0 0-.3.77l-.02.01a.03.03 0 0 1-.03 0 3 3 0 0 1-.38-2.87c.08-.22.3-.65.67-1.3a4675.14 4675.14 0 0 0 3.45-6.18v-.03c-.46-.84-.83-1.5-1.11-1.97-1.14-1.88-3.4-1.8-4.48.12l-6.16 10.98c-.1.18-.22.49-.37.92-.02-.03-.05-.04-.1-.03.02 0 .03-.02.03-.04a3.4 3.4 0 0 1-.58-1.45v-.88c.08-.54.23-1 .45-1.39L20 12.6c.6-1.07 1.53-1.7 2.76-1.57.93.1 1.68.73 2.14 1.56a716.36 716.36 0 0 1 1.98 3.49h.02l.01-.02c.43-.8.75-1.36.97-1.7.83-1.31 2.5-1.6 3.63-.54.23.2.44.48.63.81a645.57 645.57 0 0 1 2 3.55h.02l.02-.02c.44-.86 1-1.48 1.97-1.48.77 0 1.38.45 1.76 1.12l4.74 8.46c.47.85.51 1.97-.14 2.75Z" fill="#123F74"/><path d="m42.33 28.88.06.06c.57.82.74 1.68.51 2.59-.09.35-.36.9-.8 1.67l-6.22 10.48A2.76 2.76 0 0 1 33.94 45h-.8a2.77 2.77 0 0 1-1.96-1.33 296.79 296.79 0 0 1-2.07-3.45.03.03 0 0 0-.03.01c-.46.8-.76 1.3-.9 1.52a2.44 2.44 0 0 1-4.21.02 216.46 216.46 0 0 1-2.1-3.53.05.05 0 0 0-.08.03c-.31.65-.81 1.18-1.5 1.34-.47.1-.9.05-1.31-.17-.34-.17-.66-.49-.98-.95l-4.66-7.94a2.4 2.4 0 0 1-.34-1.38c.03-.43.18-.81.45-1.14.04 0 .07 0 .09.03.03.16.08.32.17.46l4.55 7.7c.11.17.28.35.5.53.89.7 2.12.37 2.67-.56l4.52-7.61a2.1 2.1 0 0 0 .24-.57h.04c.5.6.57 1.37.34 2.1-.05.16-.17.4-.36.71a13175.44 13175.44 0 0 0-3.38 5.73v.03c.38.62.76 1.26 1.14 1.92.56.94 1.43 1.5 2.52 1.3a2.38 2.38 0 0 0 1.55-1.11l5.49-9.27a3.67 3.67 0 0 0 .4-.86.03.03 0 0 1 .02.01c.75.91.74 2.2.15 3.19a3163.91 3163.91 0 0 1-3.89 6.59l.01.03 1.07 1.8c1.13 1.84 3.44 1.77 4.52-.05l6.1-10.32c.15-.23.28-.54.42-.93Z" fill="#7E8082"/></svg>