<!-- by TradingView --><svg xmlns="http://www.w3.org/2000/svg" width="56" height="56"><path fill="#EE1D23" d="M0 0h56v56H0z"/><path fill-rule="evenodd" d="M15 15h26v7.67C40.16 20.6 37.42 20 35.67 20H28v.47c2-.05 2 .99 2 1.6v11.88c-.05 1.52-1.24 1.67-2 1.62V36h8.2a8.3 8.3 0 004.8-1.5V41H15v-5h4.68c3.64 0 9.32-1.54 9.32-8.03 0-6.4-5.77-7.97-9.32-7.97H15v-5zm26 14.04v-3.52c-.39.81-1.24 1.65-2.93 2.08.75.16 1.97.63 2.93 1.44zM13 43V13h30v30H13zm5.8-21.96c2.37-.26 7.12.77 7.2 6.98.08 6.22-4.67 7.22-7.05 6.94-.38-.04-.95-.23-.95-1v-12.2c-.02-.23.16-.65.8-.72zm14.2.66V27h.48c1.91.02 4.5.05 4.52-2.94.02-3.1-3.21-3.07-4.15-3.06h-.12c-.57 0-.73.43-.73.7zm0 6.3v6.18c0 .3.2.8.88.8h.14c1.13.02 5 .06 4.98-3.55-.02-3.5-3.13-3.46-5.43-3.43H33z" fill="#fff"/></svg>