<!-- by TradingView --><svg width="56" height="56" viewBox="0 0 56 56" xmlns="http://www.w3.org/2000/svg"><path fill="#3DBCC8" d="M0 0h56v56H0z"/><path d="M16.5 18c-.73 0-1.41.18-2.02.48V14H12v8.7a4.5 4.5 0 1 0 4.5-4.7Zm0 6.52a2.03 2.03 0 1 1 0-4.05 2.03 2.03 0 0 1 0 4.05ZM23.98 18c-.7 0-1.25.58-1.25 1.29L22.59 27h2.77l-.14-7.71c0-.71-.55-1.29-1.24-1.29ZM31.5 18c-2.48 0-4.5 2-4.5 4.45V27h2.53v-4.55c0-1.08.88-1.95 1.97-1.95 1.09 0 1.97.87 1.97 1.95V27H36v-4.55A4.48 4.48 0 0 0 31.5 18ZM23.98 17.27c.93 0 1.68-.73 1.68-1.63 0-.9-.75-1.64-1.68-1.64-.93 0-1.69.73-1.69 1.64 0 .9.76 1.63 1.69 1.63ZM24.5 33c-.73 0-1.41.18-2.02.48V29H20v8.7a4.5 4.5 0 1 0 4.5-4.7Zm0 6.52a2.03 2.03 0 1 1 0-4.05 2.03 2.03 0 0 1 0 4.05ZM31.98 33c-.7 0-1.25.58-1.25 1.29L30.59 42h2.77l-.14-7.71c0-.71-.55-1.29-1.24-1.29ZM39.5 33c-2.48 0-4.5 2-4.5 4.45V42h2.53v-4.55c0-1.08.88-1.95 1.97-1.95 1.09 0 1.97.87 1.97 1.95V42H44v-4.55A4.48 4.48 0 0 0 39.5 33ZM31.98 32.27c.93 0 1.68-.73 1.68-1.63 0-.9-.75-1.64-1.68-1.64-.93 0-1.69.73-1.69 1.64 0 .9.76 1.63 1.69 1.63Z" fill="#fff"/></svg>