<!-- by TradingView --><svg width="56" height="56" viewBox="0 0 56 56" xmlns="http://www.w3.org/2000/svg"><path fill="#F0F3FA" d="M0 0h56v56H0z"/><path d="M8.51 27v-7H7.24c-.07.54-.82.81-1.24.85v1.26c.4-.03.9-.13 1.24-.38V27H8.5ZM16 23.5c0-1.96-1.55-3.5-3.5-3.5A3.47 3.47 0 0 0 9 23.5c0 1.96 1.55 3.5 3.5 3.5s3.5-1.54 3.5-3.5Zm-3.5 2.26a2.21 2.21 0 0 1-2.24-2.26c0-1.27.98-2.26 2.24-2.26 1.26 0 2.24.99 2.24 2.26 0 1.27-.98 2.26-2.24 2.26ZM20.5 20a3.47 3.47 0 0 0-3.5 3.5c0 1.96 1.55 3.5 3.5 3.5s3.5-1.54 3.5-3.5-1.55-3.5-3.5-3.5Zm0 5.76a2.21 2.21 0 0 1-2.24-2.26c0-1.27.98-2.26 2.24-2.26 1.26 0 2.24.99 2.24 2.26 0 1.27-.98 2.26-2.24 2.26ZM32 23.5c0-1.96-1.55-3.5-3.5-3.5a3.47 3.47 0 0 0-3.5 3.5c0 1.96 1.55 3.5 3.5 3.5s3.5-1.54 3.5-3.5Zm-3.5 2.26a2.21 2.21 0 0 1-2.24-2.26c0-1.27.98-2.26 2.24-2.26 1.26 0 2.24.99 2.24 2.26 0 1.27-.98 2.26-2.24 2.26ZM15.42 29a2.55 2.55 0 0 0-2.6 2.5c0 1.39 1.17 2.5 2.6 2.5.57 0 1.12-.27 1.27-.6v.6H18v-2.5c0-1.39-1.15-2.5-2.58-2.5Zm0 3.77c-.74 0-1.3-.55-1.3-1.27s.56-1.27 1.3-1.27c.75 0 1.28.55 1.28 1.27s-.53 1.27-1.27 1.27ZM24.28 29H23v5h1.28v-5ZM29.28 29H28v5h1.28v-5ZM41.28 27H40v7h1.28v-7ZM44.47 29a2.52 2.52 0 0 0-2.53 2.5c0 1.39 1.14 2.5 2.53 2.5.56 0 1.1-.27 1.25-.6v.6H47v-2.5c0-1.39-1.13-2.5-2.53-2.5Zm.01 3.77c-.72 0-1.27-.55-1.27-1.27s.54-1.27 1.27-1.27 1.25.55 1.25 1.27-.52 1.27-1.25 1.27ZM12 31.5V29h-1.26v2.5c0 .73-.53 1.3-1.24 1.3s-1.24-.57-1.24-1.3V29H7v2.5a2.54 2.54 0 0 0 2.5 2.57c.44 0 .85-.11 1.2-.31a1.23 1.23 0 0 1-2.29.31H7.08A2.52 2.52 0 0 0 9.5 36c1.38 0 2.5-1.15 2.5-2.58V31.5M47.71 31.54V34H49v-2.46c0-.73.27-1.29 1-1.29V29c-1.4 0-2.29 1.13-2.29 2.54ZM25 31.54V34h1.28v-2.46c0-.73.54-1.29 1.27-1.29V29A2.55 2.55 0 0 0 25 31.54M36.43 29c-.77 0-1.46.33-1.93.85a2.58 2.58 0 0 0-4.5 1.69V34h1.3v-2.46c0-.73.54-1.28 1.27-1.29.74 0 1.28.56 1.28 1.29V34h1.3v-2.46c0-.73.54-1.28 1.28-1.29.73 0 1.27.56 1.27 1.29V34H39v-2.46c0-1.41-1.16-2.54-2.57-2.54M21 27.5h-1.27V29H18v1.25h1.73v1.3A2.5 2.5 0 0 0 22.27 34v-1.2c-.72 0-1.27-.55-1.27-1.25v-1.3h1.68V29H21v-1.5Z" fill="#17138E"/></svg>