<!-- by TradingView --><svg width="56" height="56" xmlns="http://www.w3.org/2000/svg"><path fill="#0056A5" d="M0 0h56v56H0z"/><path d="M41.592 19h4.103C46.965 19 48 20.104 48 21.355V36.73c0 1.25-1.035 2.27-2.305 2.27h-35.39C9.035 39 8 37.981 8 36.73V21.356C8 20.105 9.035 19 10.305 19h7.418l20.8-3.96c1.197-.229 2.353.55 2.57 1.731.216 1.182.5 2.229.5 2.229z" fill="#fff"/><path d="M10.305 20h35.39c.671 0 1.305.515 1.305 1.176V33H9V21.176c0-.66.634-1.176 1.305-1.176zM47 34v2.73c0 .662-.634 1.27-1.305 1.27h-35.39C9.634 38 9 37.392 9 36.73V34h38z" fill="#0056A5"/><path d="M42.245 29.117l-26.513 5.07a1.1 1.1 0 01-1.295-.873l-2.023-11.07a1.124 1.124 0 01.9-1.291l25.417-4.865a1.101 1.101 0 011.294.872l2.22 12.157z" fill="#ED1C29"/><path d="M18.76 27.052c.318.305.483.78.482 1.303-.003 1.467-1.186 2.648-2.62 2.645l-2.362-.006c-.535 0-.857-.38-.856-.988 0-.043 0-.102.01-.155l.659-5.766c.062-.618.547-1.086 1.102-1.085l1.696.004c1.303.003 2.149.794 2.146 1.994 0 .31-.062.63-.183.918-.152.368-.274.511-.638.799.293.124.413.193.564.337zM15.425 29h1.18c.375 0 .688-.127.689-.494 0-.364-.215-.51-.508-.51l-1.19.004-.17 1zm.36-3h.656c.373 0 .677-.215.677-.552 0-.331-.22-.449-.512-.45l-.667-.001L15.785 26zm5.238 5c-.485-.001-.857-.475-.855-1.05l.467-3.914c.062-.602.517-1.037 1.072-1.036.465.001.857.474.856 1.05l-.468 3.924c-.072.591-.526 1.027-1.072 1.026zm7.702-2c.414.001.827.469.826.986 0 .501-.507 1.015-1.042 1.014l-4.387-.01c-.524-.002-.887-.343-.886-.866 0-.266.112-.533.284-.767L27.057 25h-2.245c-.414 0-.813-.473-.812-.995.001-.497.492-1.006 1.018-1.005l3.991.01c.515 0 .888.37.887.881 0 .235-.122.533-.345.794L25.984 29h2.74zm2.74 2c-.484-.001-.857-.475-.855-1.05l.468-3.914c.061-.602.517-1.037 1.072-1.036.465.001.857.474.856 1.05l-.468 3.924c-.072.591-.527 1.027-1.073 1.026zm4.111-.955c-.132.55-.567.928-1.072.927-.474-.002-.837-.382-.835-.865 0-.134.01-.26.04-.379l1.557-5.6c.173-.659.75-1.13 1.395-1.129.616.002 1.03.382 1.14 1.005l.567 3.528 1.39-3.523c.244-.623.749-1 1.345-1 .672.002 1.12.455 1.159 1.136l.24 5.603c-.002.723-.457 1.24-1.073 1.24-.525-.002-.867-.372-.876-.932l-.032-3.818-1.573 3.954c-.213.56-.507.809-.941.808-.504-.001-.756-.251-.846-.812l-.648-3.959-.937 3.816zM22.674 23.91c-.001.512-.385.924-.86.922-.474 0-.862-.414-.86-.925 0-.512.39-.924.865-.922.474 0 .856.414.855.925zm10.471 0c-.001.512-.385.924-.86.922-.48 0-.862-.414-.861-.925.001-.512.386-.924.865-.922.475 0 .857.414.856.925zM18.181 34.954v1.658c0 .11-.012.191-.037.243a.244.244 0 01-.099.104.272.272 0 01-.286 0 .258.258 0 01-.1-.104.592.592 0 01-.037-.243v-1.658h-.279a.468.468 0 01-.207-.035.211.211 0 01-.09-.092.274.274 0 01.001-.266.22.22 0 01.089-.09.46.46 0 01.207-.036h1.104a.48.48 0 01.21.035.213.213 0 01.09.091.272.272 0 010 .267.212.212 0 01-.09.091.465.465 0 01-.21.035h-.266zm1.301.05a.914.914 0 01.648.304c.16.18.24.412.24.694 0 .28-.08.511-.24.694a.867.867 0 01-.324.233.841.841 0 01-.695-.01.888.888 0 01-.3-.223 1.012 1.012 0 01-.24-.69c0-.288.08-.521.24-.699a.869.869 0 01.671-.303zm-.023.518c-.104 0-.193.053-.265.158a.55.55 0 00-.089.322c0 .129.03.237.09.323.07.104.16.156.268.156.096 0 .18-.04.252-.119a.504.504 0 00.125-.359.513.513 0 00-.125-.362.333.333 0 00-.256-.119zm1.56-.296a.65.65 0 01.186-.156.688.688 0 01.794.148c.194.197.292.453.292.766 0 .289-.081.533-.243.734a.72.72 0 01-.842.23.836.836 0 01-.17-.112v.539a.565.565 0 01-.035.232.24.24 0 01-.095.1.26.26 0 01-.367-.1.565.565 0 01-.036-.232v-2.03c0-.098.02-.176.062-.236a.226.226 0 01.196-.094c.058 0 .108.015.15.046a.401.401 0 01.108.165zm.36.296a.298.298 0 00-.241.117.553.553 0 00-.116.363.55.55 0 00.116.362.301.301 0 00.245.117c.11 0 .2-.048.265-.142a.566.566 0 00.105-.337.559.559 0 00-.105-.338.315.315 0 00-.268-.142zm1.715.023v1.07a.58.58 0 01-.036.234.241.241 0 01-.095.1.256.256 0 01-.272-.001.249.249 0 01-.095-.099.57.57 0 01-.036-.234v-1.07c-.134.001-.224-.026-.27-.083a.258.258 0 01-.062-.168c0-.075.026-.138.08-.188.044-.043.128-.065.252-.065v-.285c0-.105.012-.182.036-.231a.26.26 0 01.367-.1.24.24 0 01.095.1c.024.05.036.126.036.23v.286h.1c.091 0 .16.011.203.034a.212.212 0 01.087.088.262.262 0 010 .26.211.211 0 01-.087.089.473.473 0 01-.203.033h-.1zm1.65 1.222a.722.722 0 01-.16.16.524.524 0 01-.284.073.76.76 0 01-.53-.213c-.211-.194-.317-.459-.317-.795 0-.298.093-.544.28-.737a.765.765 0 01.562-.252c.117 0 .22.029.308.086.038.026.087.07.146.134a.362.362 0 01.1-.152.267.267 0 01.166-.056c.07 0 .13.026.184.078a.28.28 0 01.082.207v1.36a.35.35 0 01-.082.245.242.242 0 01-.188.083c-.124 0-.214-.073-.267-.22zm-.392-1.245a.32.32 0 00-.265.134.562.562 0 00-.1.346c0 .14.033.255.1.344.068.09.16.135.272.135.098 0 .183-.04.253-.12a.53.53 0 00.117-.361.518.518 0 00-.114-.357.338.338 0 00-.263-.12zm1.682-.312a.766.766 0 01.208-.153.729.729 0 01.288-.053.66.66 0 01.464.168.53.53 0 01.164.252c.02.072.03.165.03.282v.91a.571.571 0 01-.035.233.236.236 0 01-.094.1.261.261 0 01-.137.04.261.261 0 01-.137-.04.24.24 0 01-.095-.1.571.571 0 01-.035-.233v-.78a.379.379 0 00-.077-.25.281.281 0 00-.226-.105.28.28 0 00-.23.112.35.35 0 00-.074.22v.803a.58.58 0 01-.036.233.24.24 0 01-.095.1.261.261 0 01-.367-.1.571.571 0 01-.036-.233v-1.273a.35.35 0 01.075-.24.252.252 0 01.197-.088.24.24 0 01.167.061c.03.026.057.07.08.134zm2.854.258l-.182 1.19a.59.59 0 01-.073.234.247.247 0 01-.218.108.278.278 0 01-.277-.29 1 1 0 01.016-.144l.29-1.837a.384.384 0 01.108-.233.383.383 0 01.266-.099c.088 0 .165.025.23.074a.337.337 0 01.119.174l.41 1.3.377-1.243a.437.437 0 01.152-.229.375.375 0 01.468.02.346.346 0 01.118.21l.313 1.858a.988.988 0 01.018.15.28.28 0 01-.28.289.254.254 0 01-.22-.108.556.556 0 01-.074-.233l-.188-1.191-.344 1.189a1.85 1.85 0 01-.061.18.276.276 0 01-.054.083.29.29 0 01-.214.08.292.292 0 01-.196-.067c-.047-.037-.085-.106-.116-.208l-.388-1.257zm3.453 1.3a.726.726 0 01-.16.16.524.524 0 01-.284.072.76.76 0 01-.53-.213c-.211-.194-.317-.459-.317-.795 0-.298.093-.544.28-.737a.765.765 0 01.562-.252c.117 0 .22.029.308.086.038.026.087.07.146.134a.363.363 0 01.1-.152.267.267 0 01.166-.056c.07 0 .13.026.184.078a.28.28 0 01.082.207v1.36a.351.351 0 01-.082.245.242.242 0 01-.187.083c-.125 0-.215-.073-.268-.22zm-.392-1.246a.321.321 0 00-.265.134.563.563 0 00-.1.346c0 .14.033.255.1.344.069.09.16.135.272.135.098 0 .183-.04.253-.12a.53.53 0 00.117-.361.518.518 0 00-.114-.357.339.339 0 00-.263-.12zm1.696-.309a.988.988 0 01.171-.149.381.381 0 01.2-.06.26.26 0 01.198.09.28.28 0 01.074.198c0 .067-.021.12-.064.157a.645.645 0 01-.208.098.9.9 0 00-.286.14.209.209 0 00-.07.095.394.394 0 00-.015.135v.699a.58.58 0 01-.036.233.24.24 0 01-.095.1.261.261 0 01-.367-.1.571.571 0 01-.036-.233v-1.282c0-.098.022-.173.066-.225a.252.252 0 01.201-.094c.12 0 .209.066.267.198zm1.233.837v.566a.58.58 0 01-.036.233.24.24 0 01-.095.1.261.261 0 01-.367-.1.571.571 0 01-.036-.233v-2.063a.56.56 0 01.036-.232.241.241 0 01.095-.1.26.26 0 01.367.1c.024.05.036.127.036.232v1.12l.493-.524c.091-.097.173-.145.246-.145.073 0 .135.027.186.08a.264.264 0 01.018.354 1.16 1.16 0 01-.086.092l-.336.333.47.604c.078.099.117.18.117.246a.27.27 0 01-.272.275.26.26 0 01-.18-.08 1.002 1.002 0 01-.083-.099l-.573-.76zm1.662.135a.52.52 0 00.163.249c.07.054.156.08.261.08a.595.595 0 00.23-.047l.212-.106a.27.27 0 01.123-.028c.062 0 .114.029.157.087a.232.232 0 01.053.14c0 .106-.071.2-.215.286a1.126 1.126 0 01-.587.154c-.326 0-.583-.118-.771-.354a.957.957 0 01-.203-.615c0-.325.1-.584.301-.778a.86.86 0 01.617-.25c.208 0 .393.067.554.2.156.13.26.305.31.527.019.08.027.158.027.237 0 .145-.077.218-.233.218h-1zm.705-.379a.667.667 0 00-.079-.202.307.307 0 00-.271-.146c-.1 0-.185.038-.255.113a.644.644 0 00-.12.236h.725zm1.323-.26v1.07a.58.58 0 01-.036.233.241.241 0 01-.095.1.256.256 0 01-.272-.001.249.249 0 01-.095-.099.57.57 0 01-.036-.234v-1.07c-.134.001-.224-.026-.27-.083a.258.258 0 01-.063-.168c0-.075.027-.138.08-.188.044-.043.129-.065.253-.065v-.285c0-.105.012-.182.036-.231a.24.24 0 01.094-.1.26.26 0 01.273 0 .24.24 0 01.095.1c.024.05.036.126.036.23v.286h.1c.091 0 .159.011.203.034a.212.212 0 01.087.088.262.262 0 010 .26.21.21 0 01-.087.089.473.473 0 01-.203.033h-.1z" fill="#fff"/></svg>