<!-- by TradingView --><svg width="56" height="56" xmlns="http://www.w3.org/2000/svg"><path fill="#F0F3FA" d="M0 0h56v56H0z"/><path d="M32.42 13.082c1.4.14 2.752.026 3.97-.92.574 1.381 2.264 4.265 4.932 5.85-1.369 1.107-3.489 4.198-1.916 8.522 1.45 3.988 2.619 8.458.712 12.118-1.335 2.566-3.856 3.88-6.319 4.93-.381.163-.762.32-1.136.473-.83.341-1.628.67-2.337 1.024-.977.488-1.804 1.033-2.326 1.746-.522-.713-1.349-1.258-2.326-1.746-.71-.354-1.508-.683-2.337-1.024-.374-.154-.755-.31-1.136-.473-2.463-1.05-4.984-2.364-6.32-4.93-1.905-3.66-.737-8.13.713-12.118 1.572-4.324-.547-7.415-1.916-8.522 2.668-1.585 4.358-4.469 4.931-5.85 1.219.946 2.571 1.06 3.972.92a25.567 25.567 0 001.88-.284l.315-.056c.74-.128 1.482-.247 2.224-.282.742.035 1.485.154 2.224.282l.316.056c.633.111 1.262.223 1.88.284z" fill="#fff" stroke="#000" stroke-width=".2"/><path d="M32 12.932a33.721 33.721 0 01-1.442-.232c-.844-.15-1.701-.3-2.558-.34-.857.04-1.714.19-2.558.34-.486.085-.967.17-1.442.232v31.505c1.742.728 3.254 1.444 4 2.563.746-1.12 2.258-1.835 4-2.563V12.932zm4 29.719c1.698-.916 3.251-2.117 4.207-3.953 1.929-3.703.742-8.213-.707-12.198-1.6-4.4.667-7.5 2-8.5-2.8-1.6-4.544-4.667-5.067-6a4.595 4.595 0 01-.433.316v30.335zM19.567 12c.142.117.287.222.433.316v30.335c-1.698-.916-3.251-2.117-4.207-3.953-1.929-3.703-.742-8.213.707-12.198 1.6-4.4-.667-7.5-2-8.5 2.8-1.6 4.544-4.667 5.067-6z" fill="#000"/><path d="M31.957 21.5c.253 0 .253-.332.253-.742l.017-4.917c0-.22-.27-.341-.27-.341h1.8s-.334.16-.334.34l-.017 2.014 1.591-2.043c.124-.114 0-.311 0-.311h.89s-.234.18-.348.31l-1.474 1.928s.788-.035.893.262c.433 1.225.397 3.422 1.042 2.9 0 0-.352.616-.742.622-.443.007-.61-.45-.734-1.022 0 0-.395-1.59-.486-1.879-.08-.255-.446-.09-.446-.09l-.186.197v2.03c0 .409-.01.724.352.742h-1.8z" fill="#1D0D00"/><path d="M19.9 21.418c.284 0 .33-.416.33-.85v-4.296c0-.443.079-.826-.33-.854h2.015c1.256 0 1.765.698 1.765 1.43 0 .652-.7 1.152-.7 1.152s.7.29.9 1c.164.585.217 1.474-.38 1.963-.374.303-.871.455-1.492.455H19.9zm1.33-3.492c.845 0 1.377-.334 1.377-1.038 0-.888-.533-1.262-1.377-1.245v2.283zm0 2.673c.002.156 0 .498 0 .498.946.086 1.7-.442 1.7-1.283 0-1.174-.806-1.639-1.7-1.62V20.6zm2.157 21.393h-1.73v-.407h.442l-.005-3.085H21.5l1.428-1.076c0 1.357.012 4.146.012 4.146l.447.015v.407z" fill="#000"/><path d="M31.497 39.944c-.023.673-.18 1.222-.471 1.645-.597.87-1.8.77-2.336-.115-.284-.467-.415-1.024-.392-1.67.03-.862.28-1.518.752-1.968.245-.236.531-.348 1.06-.33.296.01.543.114.743.31.21.21.374.507.489.89.119.382.17.795.155 1.238zm-1.535-2.16c-1.105.06-.785 4.02-.14 4.043 1.108.038.944-4.085.14-4.042z" fill="#fff"/><path d="M35.5 40.56c0 .41-.174.755-.522 1.032-.348.272-.785.408-1.31.408-.366 0-.653-.074-.861-.221a.71.71 0 01-.307-.61c0-.166.048-.302.144-.408.1-.106.228-.16.384-.16.296 0 .444.144.444.43 0 .221-.142.376-.424.464-.1.032-.15.069-.15.11 0 .051.06.104.182.16a.93.93 0 00.372.083c.318 0 .565-.113.744-.34.178-.226.267-.542.267-.948 0-.392-.107-.671-.32-.837a.808.808 0 00-.508-.166h-.091a1.314 1.314 0 01-.15.006c-.053 0-.079-.018-.079-.055 0-.032.009-.053.026-.062.022-.01.098-.026.229-.049.178-.032.326-.143.443-.332a1.22 1.22 0 00.183-.664c0-.254-.072-.46-.216-.617a.715.715 0 00-.56-.242.734.734 0 00-.392.104c-.113.07-.17.15-.17.242 0 .042.029.067.086.077.33.064.495.216.495.456 0 .12-.035.22-.104.298a.36.36 0 01-.274.11.457.457 0 01-.359-.145.569.569 0 01-.13-.394.86.86 0 01.345-.713c.23-.185.53-.277.9-.277.426 0 .77.097 1.03.29.262.19.392.44.392.748 0 .245-.1.464-.3.658-.196.194-.456.328-.782.401l.006.035c.313.005.596.088.848.25.326.207.489.5.489.878z" fill="#000"/><path fill-rule="evenodd" d="M26.298 41.931c.86-.409 1.152-1.564 1.152-2.508 0-.957-.392-1.973-1.442-1.973-.848 0-1.408.766-1.408 1.584 0 .772.495 1.35 1.263 1.35.272 0 .533-.105.784-.316l-.001.008c-.011.123-.035.397-.073.624-.03.19-.085.352-.187.514-.265.421-.69.66-.973.301a.45.45 0 10-.713-.365c0 .799.984 1.073 1.598.781zm-.264-4.148c-.688 0-.89 2.217-.034 2.217 1.115 0 .885-2.217.034-2.217z" fill="#fff"/><path d="M30.113 15.5H27l-.1.35s.933-.096 1.021-.046c.145.082.218.25.218.504v4.387s-.39.251-.809.397c-.312.109-.734.124-.976-.092-.184-.164-.214-.396-.137-.616.032-.092.067-.168.067-.168.088.104.2.168.325.168.276 0 .5-.314.5-.7 0-.387-.333-.734-.609-.734-1.145 0-1.349 1.454-.669 2.15.221.224.563.5 1.17.5.51 0 2.452-.737 2.452-.737v-4.378c0-.393.177-.944.66-.985z" fill="#fff"/><path d="M24.5 23c.947.778 2.334.194 3.5.14 1.167.054 2.554.638 3.5-.14.203.518.882 1.711 1.97 2.333-.518.39-1.4 1.595-.777 3.306.563 1.55 1.025 3.303.275 4.744-1.053 2.022-4.19 2.061-4.968 3.228-.778-1.167-3.915-1.206-4.967-3.228-.75-1.44-.289-3.194.275-4.744.622-1.711-.26-2.917-.778-3.306 1.089-.622 1.767-1.814 1.97-2.333z" fill="#F25040"/><path fill-rule="evenodd" d="M24.5 23c-.031.08-.073.175-.127.282-.264.53-.8 1.34-1.575 1.882a3.91 3.91 0 01-.268.17c.072.054.152.124.234.21.502.526 1.079 1.623.544 3.095-.564 1.55-1.025 3.303-.275 4.744.607 1.167 1.91 1.674 3.052 2.118.695.27 1.33.517 1.714.876.078.073.146.15.201.234.056-.083.123-.161.202-.234.383-.359 1.019-.606 1.713-.876 1.142-.444 2.445-.951 3.053-2.118.75-1.44.288-3.194-.275-4.744-.535-1.472.042-2.57.544-3.095.081-.086.16-.156.233-.21a3.513 3.513 0 01-.267-.17c-.777-.541-1.311-1.352-1.576-1.882A3.523 3.523 0 0131.5 23a1.636 1.636 0 01-.254.172c-.648.355-1.452.223-2.241.095A8.969 8.969 0 0028 23.14c-.323.015-.662.07-1.004.127-.79.128-1.593.26-2.242-.095A1.645 1.645 0 0124.5 23zm.127.445c-.28.552-.822 1.365-1.61 1.931.556.608 1.142 1.8.573 3.365-.567 1.559-.974 3.192-.291 4.503.47.904 1.418 1.386 2.433 1.795.148.06.299.119.45.178.346.134.69.268.99.41.305.145.598.313.828.528.23-.215.523-.383.828-.527.3-.143.644-.277.99-.411.151-.06.302-.118.45-.178 1.015-.409 1.963-.89 2.434-1.795.682-1.31.276-2.944-.291-4.503-.57-1.564.016-2.757.572-3.365-.788-.566-1.33-1.38-1.61-1.931-.494.264-1.046.283-1.567.236a12.242 12.242 0 01-.85-.118l-.098-.016A8.008 8.008 0 0028 23.44a8.007 8.007 0 00-.858.107l-.098.016c-.275.045-.565.092-.85.118-.52.047-1.073.028-1.567-.236z" fill="#fff"/><path d="M28.912 26.341l-.764-.007-.243.724-.23-.729-.763-.007.622-.443-.229-.729.614.455.622-.443-.243.724.614.455zM28 32.5a2.75 2.75 0 002.023-4.613 3.5 3.5 0 11-4.008-.04A2.75 2.75 0 0028 32.5z" fill="#fff"/></svg>