<!-- by TradingView --><svg xmlns="http://www.w3.org/2000/svg" width="56" height="56"><path fill="#F0F3FA" d="M0 0h56v56H0z"/><path d="M11 15h34v26H11z"/><path fill="#BF0506" d="M11 15h3v26h-3z"/><path d="M42 34H13.5v-1H42v1z" fill="#BF0506"/><path fill-rule="evenodd" d="M18.85 17h-2.44v.33c.5 0 .59.38.59.57.02 4.09.04 12.28 0 12.38-.04.1-.4.3-.59.37v.33c.37 0 .98-.13 1.24-.2 0 .1.26.28 1.2.2 1.18-.1 2.07-1.18 2.15-3.93.06-2.2-.96-3.55-1.48-3.95.65-.88.89-1.64.86-3.15-.04-2.26-1.04-2.9-1.53-2.95zm-.85.93v4.8c0 .32.43.33.63.32.38 0 .92-.64.92-2.54 0-2.34-.64-2.89-1.07-2.89-.34 0-.47.2-.48.3zm.01 5.76c.65-.13 1.96.4 1.99 3.6 0 .97-.05 2.85-1.1 2.98-.94.11-.91-1-.9-1.82l.01-.3v-4.46z" fill="#fff"/><path d="M24 17h-2v.3c.43 0 .5.5.5.76 0 3.89.02 11.74 0 12.04-.02.3-.32.47-.5.52V31h2v-.38c-.38.02-.48-.34-.5-.52V18.06c.02-.5.33-.71.5-.76V17zm8.48 0H30.5v.3c.42 0 .5.5.5.76V30.1c-.02.3-.33.47-.5.52V31h1.98v-.38c-.38.02-.46-.34-.48-.52V18.06c.02-.5.3-.71.48-.76V17zM42 17h-2v.3c.43 0 .5.5.5.76V30.1c-.02.3-.32.47-.5.52V31h2v-.38c-.38.02-.48-.34-.5-.52V18.06c.02-.5.33-.71.5-.76V17zm-14.43 0h-2.1v.3c.42 0 .52.5.53.76V30.1c-.02.3-.35.47-.53.52V31h3.7l.35-3h-.34s0 1.27-.4 1.77c-.33.44-1.3.11-1.3.11-.44-.2-.46-.83-.48-1.02v-10.8c.02-.5.4-.71.57-.76V17z" fill="#fff"/><ellipse cx="23" cy="16.04" rx=".69" ry=".58" fill="#fff"/><ellipse cx="31.53" cy="16.12" rx=".69" ry=".58" fill="#fff"/><ellipse cx="41" cy="16.04" rx=".69" ry=".58" fill="#fff"/><path d="M37.18 17c.8 0 1.55.4 1.82.6V21h-.26c.08-1.03-.1-3-1.56-3-1.83 0-2.18 2.37-2.18 6.08 0 3.9 1.2 5.92 2.41 5.92.97 0 1.29-.75 1.33-1.16V27H39v3.2c-.32.44-.94.77-1.59.8-.65.03-3.44-.58-3.41-6.92.03-6.33 2.18-7.08 3.18-7.08zm-19.8 19h-.77v.18H17l.83.94v.67l-.26.2h.91l-.29-.2v-.67l.88-.94h.29V36h-.6l-.71.85-.66-.85z" fill="#fff"/><path fill-rule="evenodd" d="M21.84 36l-1.13 1.8h-.29v.2h.86v-.2h-.23l.3-.5h.96l.28.5h-.19v.2h.88v-.2h-.3L21.84 36zm-.04.56l-.35.58h.71l-.36-.58z" fill="#fff"/><path d="M27.12 36h-2.41v.35h.23v-.15h.8v1.6l-.16.2h.67l-.18-.2v-1.6h.83v.15h.22V36zm2.58 0h-.88v.18h.27v1.63h-.27V38h.87v-.2h-.25v-1.62h.25V36zm7.24 0h-.88v.18h.27v1.63h-.27V38h.88v-.2h-.26v-1.62h.26V36z" fill="#fff"/><path fill-rule="evenodd" d="M32 36h1.35c.15.02.46.15.46.54s-.3.53-.46.56l1.15.9h-.47L33 37.2h-.43v.59l.24.21H32l.23-.21V36.2H32V36zm.55.22h.6c.1.01.31.1.32.38 0 .27-.21.35-.33.36h-.59v-.74z" fill="#fff"/><path d="M38.44 37.8v.2h.8v-.2h-.2l.13-1.11.8 1.2h.3l.96-1.27.24 1.38H42v-.2h-.25l-.28-1.8h-.24l-1.04 1.49L39.17 36h-.24l-.2 1.8h-.29z" fill="#fff"/></svg>