<!-- by TradingView --><svg xmlns="http://www.w3.org/2000/svg" width="56" height="56"><path fill="#F0F3FA" d="M0 0h56v56H0z"/><path d="M22 26h-4v1h1.5v3h1v-3H22v-1zm18 0h-4v1h1.5v3h1v-3H40v-1zm-35 .5c0-.28.22-.5.5-.5h2.6a.9.9 0 01.4.1.9.9 0 01.4-.1h2.6c.28 0 .5.22.5.5V30h-1v-2.7a.3.3 0 00-.3-.3H9.3a.3.3 0 00-.3.3V30H8v-2.7a.3.3 0 00-.3-.3H6.3a.3.3 0 00-.3.3V30H5v-3.5zm23 0c0-.28.22-.5.5-.5h2.6a.9.9 0 01.4.1.9.9 0 01.4-.1h2.6c.28 0 .5.22.5.5V30h-1v-2.7a.3.3 0 00-.3-.3h-1.4a.3.3 0 00-.3.3V30h-1v-2.7a.3.3 0 00-.3-.3h-1.4a.3.3 0 00-.3.3V30h-1v-3.5zm-15 .1c0-.33.27-.6.6-.6H17v1h-2.8a.2.2 0 00-.2.2v1.6c0 .11.09.2.2.2H17v1h-3.4a.6.6 0 01-.6-.6v-2.8zm4 .9h-2.5v1H17v-1zm6-.9c0-.33.27-.6.6-.6H27v1h-2.8a.2.2 0 00-.2.2v1.6c0 .11.09.2.2.2H27v1h-3.4a.6.6 0 01-.6-.6v-2.8zm4 .9h-2.5v1H27v-1zM42 26h-1v3.4c0 .33.27.6.6.6h2.8a.6.6 0 00.6-.6V26h-1v3h-2v-3zm4 0h1v4h-1v-4zm3.4 0H47v1h2v.5h-1.5v1l1.4 1.5h1.4l-1.4-1.5h.5a.6.6 0 00.6-.6v-1.3a.6.6 0 00-.6-.6z"/></svg>