<!-- by TradingView --><svg xmlns="http://www.w3.org/2000/svg" width="56" height="56" viewBox="0 0 56 56"><path fill="#F0F3FA" d="M0 0h56v56H0z"/><path d="M38.5 26.19l-.06.81H36c0-.6-.58-1-1.17-1h-1.16a1 1 0 0 0 0 2h2.2c1.14 0 2.13.92 2.13 2.06v.33c0 2-1.68 3.61-3.67 3.61h-2.77a2.06 2.06 0 0 1-2.06-2.06V31h2.44v.06c0 .57.46.94 1.03.94h1.34c.57 0 1.02-.36 1.02-.93 0-.75-.63-1.07-1.38-1.07h-1.5c-1.32 0-2.67-1.51-2.38-2.8l.1-.4a3.6 3.6 0 0 1 3.5-2.8h2.77c1.19 0 2.13 1 2.06 2.19z" fill="#2E3192"/><path fill-rule="evenodd" d="M7 34l2.07-10h5.89c1.53 0 2.2 1.44 2 2.59a2.56 2.56 0 0 1-2.18 2.11 2.32 2.32 0 0 1 1.18 2.87l-.23.66A2.67 2.67 0 0 1 13.2 34H7zm4.23-8h2c.63 0 1.09.63.92 1.26a.96.96 0 0 1-.92.74h-2.52l.52-2zm-.73 4h2c.63 0 1.09.63.92 1.26a.96.96 0 0 1-.92.74H9.98l.52-2z" fill="#2E3192"/><path d="M18.06 24L16 34h2.48L20 26.45l.83 7.55h2.15l4.26-7.55L25.46 34h2.67L30 24h-4.16l-3.3 6.34L22.1 24h-4.04z" fill="#2E3192"/><path d="M45.82 27.2c.38.47.68.98.9 1.54.68 1.43.24 4.9-6.87 7.26C43.57 35.48 51 33.21 51 28.25c0-1.37-1.29-2.73-3.5-3.94v.19a3 3 0 0 1-1.68 2.7zm-4.3-3.07a3 3 0 0 1 .95-1.84c-8.55-2.57-22.12-3.47-34.05-.1 8.72-1.16 24.64-1.78 33.1 1.94z" fill="#00AEEF"/><circle cx="44.5" cy="24.5" r="2.5" fill="url(#aro2xiiqz)"/><defs><linearGradient id="aro2xiiqz" x1="46.27" y1="22.44" x2="43.52" y2="25.57" gradientUnits="userSpaceOnUse"><stop stop-color="#FDE9DF"/><stop offset="1" stop-color="#ED1C24"/></linearGradient></defs></svg>