<!-- by TradingView --><svg width="56" height="56" viewBox="0 0 56 56" xmlns="http://www.w3.org/2000/svg"><path fill="#F0F3FA" d="M0 0h56v56H0z"/><path d="M47.08 27.28c0-2.25-.7-3-.7-3 1.16-.16 2.73-1.12 2.73-2.66 0 0 1.89 1.4 1.89 4.56 0 6.9-9.92 8.82-9.92 8.82s6-2.84 6-7.72Z" fill="#00AEEF"/><path fill-rule="evenodd" d="M9.39 22 7 33h6.59c1.95 0 3.41-1.34 3.41-3.78 0-1.72-1.54-2.03-1.54-2.03s1.68 0 2.08-2.44c.27-1.6-.4-2.75-2.43-2.75H9.4Zm2.64 2-.45 2h1.83c.76 0 1.05-.33 1.18-.8.13-.55 0-1.2-.76-1.2h-1.8Zm-1.51 7 .64-3h1.78c.63 0 1.06.59 1.06 1.42 0 .87-.63 1.58-1.55 1.58h-1.93ZM17 33l2.19-11h3.89l.66 7.12L27.27 22h4.23l-2.19 11h-2.97l1.69-7.53L24.16 33h-2.03l-.86-7.53-1.6 7.53H17Zm19.95-9c.6 0 1.05.27 1.05.58 0 .1-.03.2-.06.3l-.03.12h2.94l.12-.51s.6-2.49-3.7-2.49c-2.83 0-4.42.3-5.1 2.66A4.88 4.88 0 0 0 32 25.9c0 1.56 1.01 2.29 2.69 2.51l1.56.24c1.06.15 1.23.35 1.06 1.17-.16.8-.76 1.17-1.72 1.17-.9 0-1.59-.22-1.59-.84 0-.12.02-.22.06-.37l.06-.29h-2.85s-.27.66-.27 1.25c0 1.22 1.02 2.25 2.4 2.25h1.1a146.2 146.2 0 0 1 1.94 0h.51c2.11 0 3.04-1.41 3.4-3.17.5-2.55-.7-3.24-2.04-3.4-.3-.03-.55-.07-.85-.12l-.5-.1-.59-.08c-.86-.12-1.37-.2-1.37-.69a1 1 0 0 1 .02-.18c.2-1 .48-1.26 1.93-1.26Z" fill="#2E3192"/><path d="M31.6 35h-4.37L27 36h1.52l-1.25 5h1.53l1.18-5h1.4l.23-1Zm3.58 6 1.54-6h1.42l-1.24 5H39l-.29 1h-3.53Zm-2.98-6-1.5 6h3.51l.32-1h-2.14l.38-1.5h1.86l.2-1h-1.81l.4-1.5h1.9l.28-1h-3.4Z"/><path d="M27.06 16C35.18 16 43 17.66 43 17.66c-.63.64-.92 1.4-1 2.34a46.96 46.96 0 0 0-16.25-3C18.36 17 10 18.42 10 18.42S17.88 16 27.06 16Z" fill="#00AEEF"/><path d="M48 20.5a2.5 2.5 0 1 1-5 0 2.5 2.5 0 0 1 5 0Z" fill="url(#allrsill1)"/><circle opacity=".8" cx="46.45" cy="19.58" fill="#fff" r=".56"/><circle opacity=".2" cx="46.08" cy="19.95" fill="#fff" r="1.43"/><circle opacity=".2" cx="46.2" cy="19.83" r="1.18" fill="#fff"/><circle opacity=".2" cx="46.37" cy="19.66" fill="#fff" r=".85"/><circle opacity=".2" cx="45.8" cy="20.2" fill="#fff" r="1.8"/><defs><linearGradient id="allrsill1" x1="43.79" y1="23" x2="47.75" y2="18.2" gradientUnits="userSpaceOnUse"><stop offset=".2" stop-color="#EE1C24"/><stop offset=".43" stop-color="#EF4332"/><stop offset="1" stop-color="#FAB9A1"/></linearGradient></defs></svg>