<!-- by TradingView --><svg xmlns="http://www.w3.org/2000/svg" width="56" height="56" viewBox="0 0 56 56"><path fill="#F0F3FA" d="M0 0h56v56H0z"/><path fill-rule="evenodd" d="M19 28.62c0 2.06.32 3.85.84 5.4-1.75.6-3.05 1.34-3.86 1.95a13.54 13.54 0 0 1 0-16.93c.88.69 2.38 1.55 4.44 2.16A19.45 19.45 0 0 0 19 28.62zm-2.39 8.09c.69-.54 1.9-1.23 3.57-1.78 1.23 3 3.21 4.94 4.9 6.01a13.23 13.23 0 0 1-8.47-4.23zM26 34c-1.84.01-3.46.26-4.83.63A11.74 11.74 0 0 0 26 40.29V34zm0-1c-1.97.01-3.7.3-5.18.7-.49-1.44-.8-3.14-.8-5.1 0-2.77.58-5.16 1.4-7.14 1.34.32 2.87.52 4.58.53v11zm1 1v6.3a12.27 12.27 0 0 0 4.7-5.56 18.96 18.96 0 0 0-4.7-.74zm0-1V21.98c1.7-.07 3.23-.34 4.54-.7.83 2 1.38 4.4 1.38 7.18 0 2.07-.33 3.86-.87 5.38A19.5 19.5 0 0 0 27 33zm0-12.03c1.55-.07 2.93-.3 4.13-.62A16.3 16.3 0 0 0 27 14.9v6.07zm-1-5.74a15.4 15.4 0 0 0-4.17 5.33c1.21.26 2.6.43 4.17.43v-5.76zm2.1 25.63a13.51 13.51 0 0 0 4.62-5.78c1.5.55 2.55 1.21 3.13 1.7a13.1 13.1 0 0 1-7.75 4.08zm4.97-6.68c1.56.59 2.71 1.3 3.42 1.87a13.62 13.62 0 0 0 0-17.12c-.8.62-2.12 1.4-3.92 2.02.86 2.1 1.43 4.61 1.43 7.5 0 2.2-.36 4.1-.93 5.73zm2.78-15.99c-.66.54-1.92 1.27-3.67 1.85a17.43 17.43 0 0 0-4.5-5.98c3.2.35 6.06 1.87 8.17 4.13zM20.8 20.32a12.06 12.06 0 0 1-4.2-2.02 13.19 13.19 0 0 1 9.33-4.3c-1.44.95-3.6 3.08-5.13 6.32zM26.3 42H26a14.4 14.4 0 0 1-14-14.5c0-8 6.4-14.5 14.3-14.5 7.89 0 14.29 6.5 14.29 14.5S34.19 42 26.29 42z" fill="#FEA31D"/><path d="M29.93 26.7a62.57 62.57 0 0 1-16.92-2.36c5 2.78 13.11 3.6 16.54 3.67 4.52.1 13.57-.7 13.57-4.67 0-3.99-4.46-5.15-7.36-5.27 5.64 1.39 5.39 4.17 5.3 4.8-.11.85-1.6 3.82-11.13 3.82zM26.65 37.65c-1.86-.15-7.36-.5-9.87-.66 6.67 1.02 16.01 3.06 21 3.06 1 0 10.22-.08 10.22-5.18 0-4.07-7.44-6.4-7.44-6.4l-.1 1c3.64 1.91 5.63 2.87 5.18 5.4-.27 1.51-3.15 3.25-7.86 3.49-4.7.23-8.8-.52-11.13-.7z"/></svg>