<!-- by TradingView --><svg width="56" height="56" viewBox="0 0 56 56" xmlns="http://www.w3.org/2000/svg"><path fill="#F0F3FA" d="M0 0h56v56H0z"/><path d="M18.66 19.01 9 27.61l8.84 8.74 7.02-6.24A3.42 3.42 0 0 0 26 27.72a3.22 3.22 0 0 0-1-2.43L18.66 19Z" fill="#003F80"/><path d="M30.5 31.65a3.52 3.52 0 0 0-4.98-.13l-6.47 6.13L28 47l8.95-8.56-6.45-6.8Z" fill="#5BA9DF"/><path d="m33.24 23.51-2.15 2.02a3.58 3.58 0 0 0-.83 3.9c.18.43.45.83.78 1.16l6.46 6.7 9.5-8.86-9-9.35-4.76 4.43Z" fill="#6C6D70"/><path d="m21.3 13 6.69 6.33L34.47 13H40l-9.07 8.71-.16.15a4 4 0 0 1-5.41.2L16 13h5.3Z" fill="#383B3C"/></svg>