<!-- by TradingView --><svg width="56" height="56" viewBox="0 0 56 56" xmlns="http://www.w3.org/2000/svg"><path fill="#F0F3FA" d="M0 0h56v56H0z"/><path d="M28.2 8a2.68 2.68 0 0 1 2.45 2.73 7 7 0 0 1-.11 1 94.7 94.7 0 0 1-.57 3.09 435.3 435.3 0 0 1-1.65 7.9h-.63a361.6 361.6 0 0 1-1.92-9.28c-.18-.92-.3-1.7-.4-2.33A2.7 2.7 0 0 1 27.82 8h.38Z" fill="#3CA235"/><path d="m27.63 22.72-.68.06a61.8 61.8 0 0 0-2.19-2.4c-.85-.9-1.89-1.73-2.68-2.36-.09-.07-.2-.18-.34-.32-.23-.25-.33-.7-.33-.98 0-.78.28-1.38.84-1.82a2.09 2.09 0 0 1 2.28-.18c.46.24.8.63 1 1.16a230.23 230.23 0 0 1 2.1 6.84ZM29.07 22.78l-.7-.05a275.32 275.32 0 0 1 1.97-6.47c.16-.47.3-.78.44-.95.38-.48.87-.77 1.48-.83a2.14 2.14 0 0 1 2.1 3.08c-.09.14-.24.3-.45.46-.73.6-1.54 1.2-2.25 1.93-.89.91-1.75 1.86-2.6 2.83Z" fill="#30712F"/><path d="M27.69 22.72h.63c0 .02.02.02.05 0l.7.06.69.1a5.99 5.99 0 0 1 4.87 4.45c.16.59.24 1.23.26 1.94a4.98 4.98 0 0 1-.07.88c-.97.02-1.93.12-2.9.29a19.28 19.28 0 0 0-3.39.94 18.37 18.37 0 0 0-7.42-1.89c-.03-2.27.83-4.46 2.77-5.68a6.99 6.99 0 0 1 3.07-1.03l.68-.06h.06Z" fill="#E0AD6E"/><path d="M28.5 46h-.92A14.19 14.19 0 0 1 14 32.45v-.17c.27-.1.79-.3 1.56-.56a16.57 16.57 0 0 1 12.98.75l1.19-.4a16.43 16.43 0 0 1 8.35-.32A33.9 33.9 0 0 1 42 33.02a14.32 14.32 0 0 1-4.4 9.13A13.85 13.85 0 0 1 28.5 46Z" fill="#30712F"/><path d="M16.85 32.13a15.75 15.75 0 0 1 8.69.02 16.12 16.12 0 0 1 10.4 9.44 12.55 12.55 0 0 1-2.98 1.81l-.2-.52a17 17 0 0 0-6.41-7.96 16.4 16.4 0 0 0-9.5-2.8ZM39.92 33.12c-2.82-.17-5.5.34-8.06 1.52h-.06a16.39 16.39 0 0 0-2.35-1.67l.01-.01a15.98 15.98 0 0 1 10.62.16h-.16Z" fill="#DDDC05"/><path d="M31.81 42.56a18.78 18.78 0 0 1 .44 1.15v.01l-.02.01a12.38 12.38 0 0 1-3.22.69l-.02-.03c-.6-1.9-1.5-3.66-2.7-5.25a16.71 16.71 0 0 0-9.31-6.2c-.13-.02-.12-.04 0-.04 3.12-.02 6.1.81 8.7 2.49a16.21 16.21 0 0 1 6.13 7.17Z" fill="#93C123"/><path d="M20.27 36.25c-1.04-1-2.24-1.85-3.5-2.55-.03-.02-.03-.03.02-.03h.06a15.7 15.7 0 0 1 7.3 4.13 16.61 16.61 0 0 1 4.06 6.58c.02.05 0 .08-.06.09a11.83 11.83 0 0 1-3.12-.36.08.08 0 0 1-.04-.03 17.1 17.1 0 0 0-4.72-7.83Z" fill="#3CA235"/><path d="M33.84 36.63a.02.02 0 0 1-.03 0 15.6 15.6 0 0 0-1.33-1.42.04.04 0 0 1 .02-.03 15.92 15.92 0 0 1 7-1.32c.14 0 .3 0 .45.03.07.02.07.03 0 .04l-.2.04c-2.1.49-4.07 1.37-5.9 2.66Z" fill="#93C123"/><path d="M15.87 34.07c.02.03.05.04.09.04.03.04.05.05.08.04.05 0 .1.03.13.07l.07.04.08.05c.03.02.06.04.1.04l.04.03.3.16c.02.04.06.06.1.07.06.01.1.04.15.08.02.03.04.04.07.04l.03.02c.02.03.04.04.07.04.06.07.13.11.22.14l.02.01c.03.05.08.07.12.09a.3.3 0 0 0 .15.1 18.14 18.14 0 0 1 1.93 1.52l1 1 .33.4.06.06a.1.1 0 0 1 .04.05c.04.08.1.15.18.2.03.03.04.05.04.07.06.1.12.19.2.26.05.1.12.17.2.24l.57.83c0 .07.04.13.1.18l.35.57c.03.1.08.18.15.26l.13.25a.93.93 0 0 0 .16.32c.03.1.08.2.14.3l.22.46.03.08c0 .07.03.13.08.18l.03.09.12.29.16.43.18.57c.02.05 0 .07-.05.05l-1.1-.42-.5-.25c-.12-.04-.27-.1-.37-.18a3.43 3.43 0 0 1-.52-.3l-.07-.1-.23-.67a.2.2 0 0 0-.05-.13l-.32-.8a.18.18 0 0 0-.06-.1v-.01c0-.04 0-.06-.02-.06l-.2-.41c0-.05 0-.08-.04-.1v-.01c0-.05-.02-.08-.05-.1a.59.59 0 0 0-.1-.21l-.02-.04a.25.25 0 0 0-.07-.12.26.26 0 0 0-.04-.08.37.37 0 0 0-.08-.14.18.18 0 0 0-.05-.1.38.38 0 0 0-.07-.13.14.14 0 0 0-.03-.07.14.14 0 0 1-.06-.08.23.23 0 0 0-.06-.1c0-.02 0-.03-.02-.04a.64.64 0 0 0-.13-.22l-.03-.06a.28.28 0 0 0-.07-.1l-.01-.02-.27-.42h-.01a.12.12 0 0 1-.03-.05.57.57 0 0 0-.12-.17l-.28-.4v-.02l-.37-.46-.3-.39-.2-.2a.2.2 0 0 0-.07-.1.2.2 0 0 0-.05-.07l-1.04-1.07-.37-.32a.66.66 0 0 0-.24-.2l-.08-.07a.67.67 0 0 0-.2-.18.08.08 0 0 0-.07-.04.55.55 0 0 0-.18-.16.19.19 0 0 1-.05-.07v-.21l.07-.01c.01.02.03.03.06.04Z" fill="#319636"/><path d="m16.75 34.54-.3-.16c.12.04.22.09.3.16ZM16.24 34.7a.84.84 0 0 1-.2-.18c.08.05.14.1.2.18ZM35.63 36.4a15.74 15.74 0 0 1 4.3-1.7c.17-.04.18-.02.03.07a16.83 16.83 0 0 0-4.68 3.83l-.91-1.3a.18.18 0 0 1-.02-.03V37.2c.33-.24.75-.5 1.28-.8ZM19.62 36.64h-.05c-.58-.54-1.2-1.04-1.85-1.5.68.44 1.31.94 1.9 1.5Z" fill="#3CA235"/><path d="M16.6 36.06c0 .02.02.04.05.05l.43.43c0 .02.01.04.04.06 0 .02.02.04.04.05l.44.48.52.65.03.03.2.27.21.29.11.15c0 .03.01.05.04.06 0 .02 0 .04.02.05.02.04.05.08.09.11v.02l.1.15c.02 0 .02.02.03.03 0 .05.03.1.08.13l.01.02.16.26c-.01.01 0 .02.02.03l.2.34.02.05c0 .04.03.07.06.1 0 .02 0 .04.02.05 0 .03.03.06.05.08l.01.03.06.12.12.21c0 .05.03.08.05.11 0 .03.02.06.04.08l.02.03c0 .04.02.07.05.1 0 .05.02.08.05.1l.16.38c0 .03.01.04.03.05.01.07.04.12.08.17l.04.11c0 .04.02.08.04.1 0 .03.01.05.03.07.01.03.01.05 0 .07 0 .01-.02.02-.04 0-.16-.08-.3-.2-.44-.33l-1.25-1.25a.34.34 0 0 0-.1-.14l-.24-.28c0-.03-.02-.05-.04-.06l-.3-.39c.02 0 0-.02-.03-.05a.44.44 0 0 0-.12-.15l-.01-.04c-.03-.06-.06-.1-.1-.12l-.03-.07-.1-.14-.19-.3-.01-.02-.2-.34a.13.13 0 0 0-.04-.06c0-.04-.01-.07-.04-.07v-.01a.19.19 0 0 0-.05-.11l-.04-.06c0-.03-.01-.06-.04-.08a.18.18 0 0 0-.05-.1l-.23-.48c0-.03 0-.05-.04-.07l-.18-.45a.1.1 0 0 0-.03-.06l-.07-.18a.16.16 0 0 0-.03-.1.2.2 0 0 0-.03-.07l-.02-.07-.04-.09c0-.05-.01-.1-.05-.14 0-.05 0-.08-.03-.1a.2.2 0 0 1-.02-.07c.03 0 .06 0 .07.02.13.14.27.26.4.36ZM39.8 36.08l-.04.08-.07.2-.02.06-.13.31-.02.05-.06.14a.25.25 0 0 0-.05.1c0 .02 0 .03-.02.04l-.06.13-.07.15a.15.15 0 0 0-.04.06l-.01.05-.03.05-.16.31a.19.19 0 0 0-.04.08l-.01.03-.05.07-.02.04a.16.16 0 0 0-.05.08l-.01.02-.05.1a.23.23 0 0 0-.05.08.15.15 0 0 0-.03.06.64.64 0 0 0-.12.2c-.03.01-.04.04-.06.08l-.17.27-.08.1-.7.93c-.02 0-.04.01-.05.04l-.2.26a18.78 18.78 0 0 0-.6.62l-.14.11h-.06l-.5-1.09a.12.12 0 0 0-.04-.06l-.02-.03a.27.27 0 0 0-.08-.14.16.16 0 0 0-.05-.1v-.02a.26.26 0 0 0-.05-.09l-.06-.11v-.05l.38-.45a.2.2 0 0 0 .1-.11 29.93 29.93 0 0 1 3.42-2.89c.1-.07.18-.09.26-.14a.01.01 0 0 1 .02.02l-.12.36Z" fill="#319636"/><path d="m20.62 37.65-1-1a14.08 14.08 0 0 1 1 1ZM19.67 38.64l-.28-.42.28.42ZM17.78 39.04a.36.36 0 0 1-.1-.12c.04.02.08.06.1.12ZM19.87 41.4c-.44-.39-.86-.8-1.25-1.25l1.25 1.25ZM23.11 41.32a.93.93 0 0 1-.14-.3c.06.1.11.19.14.3ZM23.6 42.36a.26.26 0 0 1-.08-.18c.04.05.07.11.07.18Z" fill="#3CA235"/></svg>