<!-- by TradingView --><svg xmlns="http://www.w3.org/2000/svg" width="56" height="56"><path fill="#003982" d="M0 0h56v56H0z"/><path fill-rule="evenodd" d="M10 21.28c.24-.71 1.8-2.16 6.07-2.28 1.6.01 4.69.4 4.92 2.28.12.92-.6 2.96-4.36 4.4-.13.04-.4.17-.4.36 0 .19.37.27.57.28 1.97.2 6.19 1.07 7.26 2.87-.04-.6-.03-2.04.31-2.97-.34-.9-.56-2.76 1.31-2.95.1-.03.32-.1.39-.24.08-.15.5-.27.8-.13.25.1.45.33.52.43.02.1.11.33.27.38.57.37 1.73 1.74 1.8 4.3.08-.01.23.02.24.12 0 .1-.22.49-.33.67 0 .1.02.4.1.7.38-.9 2.03-2.97 5.54-4.14 0-.52.17-1.65.8-2.1.63-.44 1.5-.5 1.87-.49.54.02 1.63.22 1.69.84.05.63-1.51 1.17-2.3 1.36-.33.1-.98.45-.93 1.18.06.9.31 1.64 2.22 2.82 1.52.95 2.07 1.52 2.15 1.68-.11-1.22.34-4.4 3.05-7.3h.66c.17-.07.58-.2.86-.2.34 0 .78.26 1.02.64l-.7.7c-.02-.23-.1-.7-.32-.7-.28 0-.55.3-.7.55l-.14.17c-.48.64-2.1 2.75-2.98 6.03-.03.2.02.58.47.58.57 0 3.65-3.6 4-5.86 0-.23.2-.68 1-.66.2.04.59.28.48.93-.14.82-.36 5.87 2.6 5.8.28 0 1.05-.12 1.84-.68.08-.05.26-.13.33 0s-.06.25-.14.3c-.39.3-1.39.93-2.3.95-1.12.03-2.7-.8-3.42-3.8-.05-.21-.2-.62-.38-.63-.85 1.37-2.84 4.15-4 4.3a1.2 1.2 0 01-.9-.34c0 .87-.69 2.62-3.51 2.67-.46 0-1.6-.25-2.44-1.22-.3.09-1.06.28-1.76.29-.9 0-3.64-.17-4.38-3.25-.33.76-1.33 2.31-2.71 2.39-.36.01-1.14-.16-1.44-.94-.37 1.53-3.29 4.6-12.01 4.63-1.74 0-5.9-.48-8.51-2.5-.04-.05-.13-.16-.04-.25.07-.07.27.05.44.18.89.68 3.8 1.76 8.37 1.56 4.93-.21 11-2.6 10.97-4.9-.05-2.3-5.46-3.37-9.03-3.12-.3.02-.81.07-.88.49l-.85 4.85c-.03.14-.13.43-.25.46-.13.02-.1-.37-.08-.57l.38-4.7c0-.12-.08-.32-.44-.2l-2.38.84c-.27.11-.82.18-.84-.47v-.6c0-.13.12-.45.57-.63.45-.19 2.03-.68 2.76-.91.12-.04.37-.18.4-.44l.05-.38c.11-.99.4-3.42.49-3.83.08-.4.25-.42.32-.38.07 0 .22.1.23.44.02.41.01 2.33-.1 3.82-.02.15.02.35.4.25 1.94-.5 5.83-1.95 5.87-3.73 0-.5-.69-1.47-3.4-1.43-3.39.06-6.02 1.4-6.58 1.84l-.47-.41zm16.93 2.66c.43 0 1.42.95 1.56 3.37.07 1.14-1.13 4.1-2.7 4.1-.44 0-1.05-.2-1.05-1.97.02-.59.18-1.98.61-2.9a6.31 6.31 0 002.1-.9c.07-.08.14-.22-.1-.19-.23.12-.8.35-1.21.38-.4.02-.5-.24-.5-.38.05-.44.57-1.5 1.29-1.5zm11 .35c-.36.13-.68.14-.72.02-.04-.11.21-.31.56-.44.36-.12.68-.13.72-.02.04.12-.21.32-.57.44zm-5.82 2.87c1.03.38 3.2 1.5 3.59 2.9.04.11.03.37-.36.52-.38.15-.48.61-.48.83-.17.09-.66.28-1.23.28-.72 0-3.68-.28-3.9-1.57-.18-1.03 1.5-2.42 2.38-2.96zm2.9-1.48c-.78.25-1.83.82-2.26 1.07 2.36 1.4 3.79 3.06 3.8 3.95 0 .71-.55 1.38-.83 1.62.34.43 1.08.56 1.4.57 2.11 0 2.81-1 2.81-1.7 0-.53-.89-1.21-1.36-1.49-.5-.3-1.67-1.1-2.45-1.81a3.85 3.85 0 01-1.1-2.21zm-3.3.96c-.67-.31-2-1.18-1.98-2.2.02-1.28 1.65-2.49 3.09-2.5 1.15-.01 1.12 1.27.96 1.92h-.2c-.1-.33-.42-.88-.97-.76-.65.14-1.77.98-1.77 1.66 0 .59.45 1.13 1.3 1.4l-.43.48z" fill="#fff"/></svg>