<!-- by TradingView --><svg xmlns="http://www.w3.org/2000/svg" width="56" height="56"><path fill="#CE142B" d="M0 0h56v56H0z"/><path fill-rule="evenodd" d="M16.5 21a1.5 1.5 0 100-3 1.5 1.5 0 000 3zm-9.38 1C5.95 22 5 22.95 5 24.12v8.5A2.38 2.38 0 007.38 35H10a4 4 0 001.78-7.58A3 3 0 0010 22H7.12zm1.28 2.65a.4.4 0 00-.4.4v1.17c0 .22.18.4.4.4h.86a.98.98 0 100-1.97H8.4zm.13 4.61c-.3 0-.53.24-.53.54v1.67c0 .3.24.53.53.53h1.1a1.37 1.37 0 000-2.74h-1.1zM52 28.5c0 3.59-2.69 6.5-6 6.5s-6-2.91-6-6.5 2.69-6.5 6-6.5 6 2.91 6 6.5zm-3 0c0 1.93-1.34 3.5-3 3.5s-3-1.57-3-3.5 1.34-3.5 3-3.5 3 1.57 3 3.5zm-34-5a1.5 1.5 0 013 0v10a1.5 1.5 0 01-3 0v-10zm6.06-1.44A1.5 1.5 0 0020 23.5v10a1.5 1.5 0 003 0v-3.47l3.3 4.37a1.52 1.52 0 002.42-1.83l-2.5-3.32A3.74 3.74 0 0024.94 22h-3.51c-.13 0-.25.02-.37.06zM23 25.22v1.83c0 .25.2.45.45.45h.73a1.36 1.36 0 000-2.73h-.73c-.25 0-.45.2-.45.45zm7-1.72a1.5 1.5 0 013 0v3.6l3.76-4.5a1.52 1.52 0 012.33 1.94l-3.08 3.69 3.56 4.27a1.52 1.52 0 11-2.33 1.94L33 29.36v4.14a1.5 1.5 0 01-3 0v-10z" fill="#fff"/></svg>