<!-- by TradingView --><svg xmlns="http://www.w3.org/2000/svg" width="56" height="56"><path fill="#F0F3FA" d="M0 0h56v56H0z"/><ellipse cx="28" cy="28" rx="22" ry="11" fill="#0072B1"/><path d="M33.92 26a1 1 0 01-1 1H31v-2h1.92a1 1 0 011 1zM28 23v10h3v-3.5h2.07c.85.2.97 2.44.93 3.5h3v-1.97c0-1.02-.77-2.11-1.22-2.61A3 3 0 0034 23h-6z"/><path fill-rule="evenodd" d="M23.92 26a1 1 0 01-1 1H21v-2h1.93a1 1 0 011 1zM18 24.73V23h5.5a3 3 0 012.46 4.72A3 3 0 0124 33h-6v-8.27zM21 29v2h2.5a1 1 0 100-2H21z"/></svg>