<!-- by TradingView --><svg width="56" height="56" viewBox="0 0 56 56" xmlns="http://www.w3.org/2000/svg"><path fill="#F0F3FA" d="M0 0h56v56H0z"/><path d="m24.28 20.05.52 3.93c-.23.8-.33 1.65-.3 2.57a14.12 14.12 0 0 0-4.54.03c-.25.05-.51.07-.78.09-.28.02-.54.04-.78.08.07-.71.23-1.35.47-1.9 1.03-2.4 2.83-4 5.41-4.8Z" fill="#BE302B"/><path d="M38 29.2a26.3 26.3 0 0 1-.1-1.67 5.66 5.66 0 0 0-.17-1.14c-.09-.38-.15-.76-.19-1.14.44-2.73.95-9.15-1.51-11.13a2.92 2.92 0 0 0-4.16.43c-.95 1.17-1.12 2.38-1.33 3.85-.4 2.9-.33 6.2 1.18 8.77l.02 2.24c-.75.11-1.33-.2-1.9-.44-.51-.22-.6-.11-.27.32l.72.9c.42.5.78 1.31 1.09 2.43a3.74 3.74 0 0 1-1.3 2.37c-1.3 1.03-2.65 1.04-4.04.03-.26-.18-.24.29-.3 0a13.83 13.83 0 0 0-1.47-6.2c-.42-.56-.74-.88-.98-.95-1.67-.52-3.3-.18-4.13 1.38a6.23 6.23 0 0 0-.7 1.78c-.24 1.51-.35 3-.33 4.45.04 2 .2 3.91 1.17 5.6.62 1.08 1.6 1.57 2.94 1.48a3.4 3.4 0 0 0 2.12-1.2c.66-1.01 1.06-2.38 1.2-4.11 1.31.02 2.62.03 3.94.02.26 0 .46-.03.6-.09.32-.12.74-.38 1.06-.34.23.02.49-.28.5 0a9.08 9.08 0 0 1-4.8 6.17 11.58 11.58 0 0 1-5.61.98c-3.86-.1-7.37-2.04-8.67-5.67a9.17 9.17 0 0 1-.07-6.2c.9-2.69 2.87-4.48 5.89-5.37.24-.04.5-.06.78-.08.27-.02.53-.04.78-.09 1.5-.25 3.01-.26 4.54-.03l1.75.53c.48.14.54.04.2-.31-1.81-1.84-2.18-4.39-2.17-6.72.2-1.06.34-1.74.44-2.04a7.95 7.95 0 0 1 3.46-4.44c3.39-2.1 8.67-2.1 12.04.07 3.02 1.94 4.26 5.59 3.62 9.04-.6 3.18-2.66 5.42-5.85 6.52Z" fill="#010101"/><path d="M37.54 25.25c.46 1.35.56 2.98.46 3.95a8.78 8.78 0 0 1-1.95 4.78 8.77 8.77 0 0 1-6.55 3.3c-1.32 0-2.63 0-3.94-.03-3.6-1.06-5.36-2.3-7.1-6.22.08-.47.31-1.07.7-1.79.83-1.55 2.46-1.9 4.13-1.37.24.07.56.39.98.94l.21 2.33c.1 1.05.75 3.3 1.56 3.88 1.4 1 2.74 1 4.03-.03a3.74 3.74 0 0 0 1.3-2.37c.33-1 .45-2.06.38-3.21l-.03-2.24c.1-1.87-.45-3.79-1.4-5.53 0-.15 0-1.17.08-1.97a8.64 8.64 0 0 1 5.77 3.23c.54.67.95 1.55 1.37 2.35Z" fill="#BE302B"/></svg>