<!-- by TradingView --><svg xmlns="http://www.w3.org/2000/svg" width="56" height="56" viewBox="0 0 56 56"><path fill="#F0F3FA" d="M0 0h56v56H0z"/><path d="M19.81 15.71L12.62 27.6a3.14 3.14 0 0 1-.16-3.52l7.15-11.7a2.94 2.94 0 0 1 4.95-.03l2.26 3.63 1.04-1.7a2.57 2.57 0 0 1 4.31-.03l2.43 3.78.03-.07c.6-1.67 2.97-1.9 3.9-.36l5.22 8.63c.42.7.3 1.58-.3 2.15l-5.27-8.33a1.98 1.98 0 0 0-3.35.06l-4.85 8.27a1.45 1.45 0 0 1-.47-1.97l4.04-6.73-1.54-2.43a2.35 2.35 0 0 0-3.96.05l-6.34 10.6a2.5 2.5 0 0 1-.3-3l4.34-7.07-1.36-2.15a2.72 2.72 0 0 0-4.58.04z" fill="#F78F1E"/><path d="M36.19 40.29l7.19-11.88c.77 1.04.83 2.42.16 3.52l-7.15 11.7a2.94 2.94 0 0 1-4.95.03l-2.26-3.63-1.04 1.7a2.57 2.57 0 0 1-4.31.03l-2.43-3.78-.03.07c-.6 1.67-2.97 1.9-3.9.36l-5.22-8.63c-.42-.7-.3-1.58.3-2.15l5.27 8.33a1.98 1.98 0 0 0 3.35-.06l4.85-8.27c.67.44.87 1.3.47 1.97l-4.04 6.73 1.54 2.43a2.35 2.35 0 0 0 3.96-.05l6.34-10.6c.77.84.88 2.05.3 3l-4.34 7.07 1.36 2.15a2.72 2.72 0 0 0 4.58-.04z" fill="#7E7F83"/></svg>