<!-- by TradingView --><svg width="56" height="56" xmlns="http://www.w3.org/2000/svg"><path fill="#00548F" d="M0 0h56v56H0z"/><path d="M16.493 26v-1H23v1h-3v6h-1v-6h-2.507z" fill="#fff"/><path d="M9.271 25.838l7.15-1.884 1.918 7.037-1.017.268L14.682 25H13.39l-2.713 5.983-1.407-5.145zm7.406 5.593l-5.484 1.444-.398-1.444h.979l.624-1.43h3.21l.624 1.43h.445zm-2.674-5.253L15.298 29H12.7l1.304-2.822z" fill="#F19140"/><path d="M7.053 31c.401 0 .947-.355.947-1s-.486-1-.947-1H5v2h2.053zm0-3c.512 0 .947-.342.947-1 0-.604-.486-1-.947-1H5v2h2.053zM4 25.006h3.053c1.4 0 1.948 1.08 1.717 2.42a1.87 1.87 0 01-.792 1.077C8.552 28.83 9 29.25 9 30c0 1.352-.846 2-2.1 2H4v-6.994zm20 6.99h1V25h-1v6.995zM26 31h2.308c.537 0 1.684.008 1.684-.96s-.989-1.08-1.52-1.04h-.194c-1.223 0-2.317-.602-2.269-1.905 0-1.556 1.144-2.09 2.55-2.09H31V26h-2.248c-.566 0-1.784.137-1.752 1.095.032.957 1.226.905 1.752.905 1.603 0 2.248.805 2.248 2 0 1.525-1.037 2-2.394 2H26v-1zm19-6l1.31.006-3.1 3.451L46.18 32H45l-3.14-3.543L45 25zm-5 7h1v-7h-1v7zm-4.5-7c1.91-.017 3.483 1.36 3.5 3.429.017 2.068-1.543 3.571-3.5 3.571-1.91.014-3.479-1.503-3.5-3.571C31.979 26.36 33.547 25 35.5 25zm0 .998c-1.456.04-2.512 1.234-2.5 2.43.012 1.197.945 2.56 2.5 2.572 1.555.012 2.5-1.335 2.5-2.571 0-1.236-1.044-2.47-2.5-2.43zM52 31v1h-5v-7h5v1h-4v2h4v1h-4v2h4zm-18-7h1v-1h-1v1zm2 0h1v-1h-1v1z" fill="#fff"/></svg>