<!-- by TradingView --><svg xmlns="http://www.w3.org/2000/svg" width="56" height="56"><path fill="#F0F3FA" d="M0 0h56v56H0z"/><path d="M20 25.5V24h8v1.5h-3V32h-2v-6.5h-3z" fill="#2C4A91"/><path d="M10.63 25.23L19.6 23l2.41 8.33-1.28.32-3.26-7.3H15.5l-3.11 6.98-1.76-6.1zM19.66 32l-6.63 1.57L12.6 32h1.58l.78-1.88h3.08L18.8 32h.85zm-3.17-5.85l1.15 2.63h-2.3l1.15-2.63z" fill="#F99338"/><path d="M8.13 30.53c.58 0 1.17-.14 1.17-.85 0-.66-.56-.9-1.13-.9H6v1.75h2.13zm0-3.22c.58 0 1.17-.17 1.17-.88 0-.66-.56-1-1.13-1H6v1.88h2.13zM4 24h4.64c1.3 0 2.7.78 2.7 2.26 0 .74-.43 1.46-1.1 1.79.73.35 1.1.94 1.1 1.76 0 1.64-1.46 2.19-2.8 2.19H4v-8zm25 8h2v-8h-2v8zm18-2l2-6h3v8h-2v-6l-2 6h-2l-2-6v6h-2v-8h3l2 6zm-10.28.5H38V32h-2.38c-2.24-.03-3.62-1.9-3.62-4 0-2.08 1.38-3.97 3.62-4H38v1.5h-1.28c-1.38.02-2.72.52-2.72 2.5 0 1.99 1.34 2.48 2.72 2.5zM35 34h2v-1.5h-2V34zm4-2h2v-8h-2v8zm0-8.5h2V22h-2v1.5z" fill="#2C4A91"/></svg>