<!-- by TradingView --><svg xmlns="http://www.w3.org/2000/svg" width="56" height="56"><path fill="#497F2F" d="M0 0h56v56H0z"/><path d="M12 21.3L22 12h17a1 1 0 110 2H22v-.76l-10 9.14V21.3zM39 27H22l-10 4.72v1.09l10-4.62V29h17a1 1 0 100-2zM22.08 42H39a1 1 0 110 2H22v-1H12v-1h10.08zM42 15H22l-10 8.57v1.09l10-8.46v.8h20a1 1 0 100-2zm-20 9h20a1 1 0 110 2H22v-.81L12 30.8v-1.16L22 24zm20 6H22l-10 3.6v1.12l10-3.5V32h20a1 1 0 100-2zm-20 9h20a1 1 0 110 2H22v-.87l-10 .72v-1.11l10-.75V39zm21-21H22l-10 7.51v1.17l10-7.46V20h21a1 1 0 100-2zM12 36.74l10-2.53V35h21a1 1 0 100-2H22l-10 2.6v1.14zM43 21H22l-10 6.66v1.11l10-6.5V23h21a1 1 0 100-2zM22 36h21a1 1 0 110 2H22v-.8l-10 1.55v-1.08L22 36z" fill="#fff"/></svg>