<!-- by TradingView --><svg width="56" height="56" viewBox="0 0 56 56" xmlns="http://www.w3.org/2000/svg"><path fill="#D2A999" d="M0 0h56v56H0z"/><path d="m13 40-4-3.9v-5.2l4-3.9v13ZM17.5 44 15 42.08v-16.6L20 21v20.44L17.5 44ZM26 36.71 22 40V19.6l4-4.6v21.71ZM28 14.56v3.19L31 15l9.03 5.94-.57 4.06h-1.27l-.69-3.42-4 1.92 1.47 4.47-3.8 5.75-.64-.64 2.54-5.1L28.63 23H28v4.33l3.17 1.92-2.54 4.47L31 35l6-7.03L35 25l1.23-.86 1.4 2.86h2.53l1.77-4.78 2.54.64L47 17l-3.17 3.94-3.16-1.27L31 12l-3 2.56Z" fill="#FFFFFD"/></svg>