<!-- by TradingView --><svg width="56" height="56" viewBox="0 0 56 56" xmlns="http://www.w3.org/2000/svg"><path fill="#F0F3FA" d="M0 0h56v56H0z"/><path d="M39.82 18.27c-.74.19-.85 1.22-.07 1.47 1.3.41 3.32.66 4.75 1.55 1.79 1.12 1.93 3.5.68 5.05-1.35 1.67-3.7 1.78-5.65 1.6-2.43-.25-3.83-1.45-4.1-3.85a.15.15 0 0 1 .03-.12.15.15 0 0 1 .1-.05l3.13-.15c.1 0 .15.04.17.14.23 1.34 1.03 1.93 2.42 1.77.46-.05 1.04-.36 1.15-.86.32-1.38-1.51-1.65-2.61-1.88-2.26-.48-4.8-1.87-3.73-4.67.94-2.44 4.57-2.52 6.68-2.04a3.4 3.4 0 0 1 2.82 3.1c.02.1-.03.16-.13.16l-3.07.15c-.09.01-.15-.03-.17-.12-.34-1.16-1.14-1.58-2.4-1.25ZM18.7 21.67c1.87.72 2.5 2.1 1.9 4.13-.59 1.96-2.65 2.16-4.58 2.2h-5.88c-.08 0-.14-.05-.14-.14V16.18c0-.1.06-.18.15-.18h7.17c2.98.12 4.21 4.1 1.37 5.52-.11.05-.11.1 0 .15Zm-5.05-3.06.02 1.97a.15.15 0 0 0 .05.1.13.13 0 0 0 .1.04l1.74-.02c.31 0 .6-.12.83-.32a1 1 0 0 0 .33-.75v-.16a.95.95 0 0 0-.1-.4 1.05 1.05 0 0 0-.26-.34c-.1-.1-.24-.17-.38-.22a1.3 1.3 0 0 0-.45-.07l-1.75.02-.05.01a.14.14 0 0 0-.07.08l-.01.06Zm0 4.49.02 2.22c0 .02 0 .04.02.06a.1.1 0 0 0 .07.03l2.06-.01c.18 0 .36-.04.52-.1.17-.05.32-.14.45-.24.13-.1.23-.23.3-.37.07-.13.1-.28.1-.43v-.17c0-.3-.15-.58-.41-.79-.26-.2-.61-.3-.98-.3h-2.09a.1.1 0 0 0-.05.06.1.1 0 0 0-.01.04ZM28.25 24.42a.1.1 0 0 0 .04-.01 2745.78 2745.78 0 0 0 2.5-8.3l.06-.08a.14.14 0 0 1 .08-.03h3.56c0 .02.02.02.03.03a.08.08 0 0 1 0 .08l-4.26 11.77a.17.17 0 0 1-.06.07c-.02.02-.05.05-.09.05H26.4c-.03 0-.06-.02-.09-.04a.17.17 0 0 1-.06-.08l-4.3-11.75a.08.08 0 0 1 .03-.1l.04-.03h3.52c.03 0 .06.02.08.04.03.02.04.04.05.07a2714.95 2714.95 0 0 0 2.54 8.3.1.1 0 0 0 .05 0ZM11.92 32.54c.04 1.16 1.28 1.8 1.97.62.04-.07.1-.1.2-.1l1.47.11a.14.14 0 0 1 .1.06.13.13 0 0 1 .03.1c-.33 1.13-1.22 1.58-2.4 1.66-1.82.11-3.2-.5-3.27-2.39-.07-1.88 1.26-2.6 3.08-2.6 1.18 0 2.11.39 2.52 1.48a.13.13 0 0 1-.06.15.14.14 0 0 1-.05.03l-1.47.2a.2.2 0 0 1-.2-.08c-.78-1.14-1.96-.4-1.92.76ZM18.98 30.64l.29-.36a.46.46 0 0 1 .19-.15c.44-.18.92-.17 1.43.02.1.04.13.1.1.19l-.47 1.12a.15.15 0 0 1-.05.06.16.16 0 0 1-.07.03h-.18a.7.7 0 0 0-.8.03.57.57 0 0 0-.17.21c-.38.86-.25 2.25-.25 3.13 0 .04-.04.08-.08.08h-1.85c-.05 0-.07-.02-.07-.07v-4.8c0-.1.04-.13.13-.13h1.54c.11 0 .17.05.17.15v.45c0 .15.04.16.14.04ZM25.05 34.43l-.4.22c-.84.5-2.54.53-3.15-.31-.57-.78-.09-1.81.91-2.01.97-.2 1.8-.39 2.5-.56a.2.2 0 0 0 .1-.06.16.16 0 0 0 .03-.1c0-.24-.09-.38-.26-.44-.55-.19-1.02-.06-1.43.4a.26.26 0 0 1-.23.08l-1.44-.14a.25.25 0 0 1-.1-.03.22.22 0 0 1-.07-.06.2.2 0 0 1-.02-.18c.57-1.43 2.48-1.3 3.9-1.16 1.33.13 1.58.92 1.6 2.03 0 .86-.1 1.89.21 2.74.04.1 0 .15-.11.15h-1.55a.22.22 0 0 1-.22-.16l-.11-.35c-.03-.07-.08-.1-.16-.06Zm-.12-1.75c-.56.1-1.12.24-1.48.5a.43.43 0 0 0-.13.14.38.38 0 0 0 0 .35c.02.06.06.1.11.15.25.19.52.23.84.12.58-.2.85-.59.8-1.16-.01-.08-.06-.11-.14-.1ZM29.85 30.63c0 .18.05.2.17.07.95-1.07 2.84-1 2.95.83.03.51.04 1.65.02 3.4 0 .05-.02.07-.07.07h-1.84a.08.08 0 0 1-.06-.02.08.08 0 0 1-.02-.06V32a.5.5 0 0 0-.47-.5c-.47 0-.53.24-.53.7v2.6c0 .04-.04.14-.07.17a.15.15 0 0 1-.1.04H28.1a.11.11 0 0 1-.1-.11l-.01-4.75c0-.1.04-.14.13-.14h1.6c.08 0 .12.04.12.12v.51ZM36.04 33.3l.15.23c.16.26.4.38.73.37.38-.02.66-.12.84-.3.03-.02.08-.03.15-.03h1.68l.06.01.05.04a.1.1 0 0 1 0 .12c-.64 1.1-1.66 1.27-2.97 1.26-1.48-.01-2.36-.65-2.66-1.91a2.52 2.52 0 0 1 .15-1.64c.59-1.3 1.84-1.54 3.3-1.42 1.67.13 2.43 1.34 2.32 2.84 0 .09-.06.13-.15.13h-3.43c-.3 0-.38.06-.22.3Zm.05-1.3h1.7c.03 0 .05 0 .06-.02a.07.07 0 0 0 .03-.05v-.05c0-.46-.48-.8-.91-.8h-.04a.95.95 0 0 0-.35.06c-.29.11-.57.42-.57.74v.05c0 .02 0 .03.02.05l.06.02ZM44.16 33.39a.32.32 0 0 0-.1-.13.35.35 0 0 0-.14-.06l-1.95-.4c-1.45-.4-1.42-2.25.03-2.66a6.92 6.92 0 0 1 1.98-.13c.86.04 1.44.43 1.75 1.18a.07.07 0 0 1-.01.06.08.08 0 0 1-.06.04l-1.46.11c-.15.01-.28-.07-.41-.25a.4.4 0 0 0-.2-.15c-.38-.12-.68-.09-.9.12a.3.3 0 0 0-.09.32c.01.05.05.1.1.14.04.04.1.06.16.07l1.77.3c.98.21 1.65 1.12 1.13 2.03-.63 1.1-1.99 1.07-3.23.98-.9-.07-1.5-.47-1.8-1.2a.16.16 0 0 1 0-.16.18.18 0 0 1 .07-.06.19.19 0 0 1 .08-.02l1.54-.07c.04 0 .1 0 .13.03.04.02.08.05.1.1.23.4.61.52 1.15.38.36-.1.48-.29.36-.57Z" fill="#10347E"/><path d="M45.9 38H10.1c-.05 0-.1.06-.1.12v2.76c0 .06.05.12.1.12h35.8c.05 0 .1-.06.1-.12v-2.76c0-.06-.05-.12-.1-.12Z" fill="#F6931D"/></svg>