<!-- by TradingView --><svg width="56" height="56" viewBox="0 0 56 56" xmlns="http://www.w3.org/2000/svg"><path fill="#F0F3FA" d="M0 0h56v56H0z"/><path d="M13 23.85a5.23 5.23 0 0 0-7.6 2.23 4.9 4.9 0 0 0 .46 4.7 5.26 5.26 0 0 0 7.9.76 4.96 4.96 0 0 0 1.12-5.44 5.03 5.03 0 0 0-1.89-2.25Z" fill="#E4001B"/><path d="M14.03 32H49.5c.4 0 .78-.15 1.06-.42s.44-.64.44-1.03v-5.1c0-.39-.16-.76-.44-1.03A1.51 1.51 0 0 0 49.5 24H14.03l.12.1a5.45 5.45 0 0 1 .7 6.96 5.5 5.5 0 0 1-.82.94Z" fill="#E4001B"/><path d="M10.15 25.6a.8.8 0 0 0 .76-.5.78.78 0 0 0-.18-.86.83.83 0 0 0-.9-.18.82.82 0 0 0-.37.3.79.79 0 0 0 .1 1.01.82.82 0 0 0 .59.24ZM10.79 26H9.5a.86.86 0 0 0-.73.31.8.8 0 0 0-.14.76l1.21 4.49c.16.59.43.59.59 0l1.21-4.49a.8.8 0 0 0-.14-.76.84.84 0 0 0-.72-.3M20.38 26c-.36-.02-.7.08-1.02.26l.72-2.6a.12.12 0 0 0-.12-.14h-.84c-.02 0-.04 0-.06.02a.1.1 0 0 0-.03.05l-1.75 6.26a.11.11 0 0 0 .03.1l.04.03.05.02h.84l.06-.02a.1.1 0 0 0 .03-.05l.1-.25a1.18 1.18 0 0 0 .91.31c.51 0 1-.2 1.37-.57a2.94 2.94 0 0 0 .93-2.12 1.84 1.84 0 0 0-.18-.69c-.1-.2-.26-.36-.46-.47-.19-.11-.4-.16-.62-.15Zm.1 1.95c-.08.3-.23.56-.45.77-.2.2-.45.3-.72.3-.1.01-.2-.01-.28-.06a.5.5 0 0 1-.2-.21.94.94 0 0 1-.05-.72c.08-.29.24-.55.46-.75.19-.2.44-.31.7-.32.1 0 .2.01.3.06a.5.5 0 0 1 .2.22c.1.22.12.48.04.71M26.07 26.17a.12.12 0 0 0-.09-.05h-.83c-.02 0-.04 0-.05.02a.1.1 0 0 0-.04.05l-.04.14a1.28 1.28 0 0 0-.94-.33c-.5.01-.99.21-1.35.57-.4.36-.69.83-.83 1.36a2 2 0 0 0 .07 1.42 1.1 1.1 0 0 0 1.1.64c.36.01.7-.08 1.02-.26a.11.11 0 0 0 .02.1.12.12 0 0 0 .09.05h.83c.02 0 .04 0 .06-.02a.1.1 0 0 0 .03-.05l.98-3.54a.12.12 0 0 0-.03-.1m-1.4 1.79c-.07.3-.24.58-.46.79-.2.18-.45.28-.71.28a.53.53 0 0 1-.52-.26.95.95 0 0 1-.03-.74c.08-.3.24-.57.47-.77.2-.18.45-.29.71-.29a.52.52 0 0 1 .5.26.94.94 0 0 1 .04.73M30.04 26.14v-.01a.11.11 0 0 0-.02-.08.12.12 0 0 0-.09-.05h-.85a.09.09 0 0 0-.09.07l-.53 1.88c-.18.63-.47.94-.89.94a.37.37 0 0 1-.3-.1c-.08-.1-.13-.3 0-.76l.53-1.89a.11.11 0 0 0-.02-.1.12.12 0 0 0-.1-.04h-.84a.09.09 0 0 0-.1.07l-.57 2.04c-.16.56-.12 1 .1 1.28.22.27.6.41 1.13.41.2 0 .4-.02.59-.06l-.63 2.34a.12.12 0 0 0 .06.13l.05.01h.85a.1.1 0 0 0 .09-.06l1.6-5.86.03-.16ZM34.86 23.61a.12.12 0 0 0-.09-.05h-.85l-.05.02a.1.1 0 0 0-.04.05l-.76 2.7a1.25 1.25 0 0 0-.93-.3c-.5 0-.98.2-1.34.55-.4.36-.69.83-.83 1.36-.16.46-.13.97.07 1.41a1.11 1.11 0 0 0 1.11.64c.35.01.7-.08 1-.26v.17c0 .02.02.04.03.05a.12.12 0 0 0 .09.05h.85l.05-.02a.1.1 0 0 0 .04-.05l1.67-6.22v-.05a.11.11 0 0 0-.02-.05Zm-2.13 4.35c-.08.3-.24.57-.46.78-.2.18-.44.29-.7.3a.52.52 0 0 1-.51-.27.92.92 0 0 1-.04-.72c.08-.3.25-.56.48-.76.19-.19.44-.3.7-.3.1-.01.2.01.28.06.09.05.16.12.2.2a.9.9 0 0 1 .05.71ZM37.8 26.58a1.45 1.45 0 0 0-1.27-.57c-.56 0-1.1.19-1.52.55-.44.35-.76.85-.9 1.4a1.7 1.7 0 0 0 .15 1.45 1.45 1.45 0 0 0 1.26.59c.55 0 1.09-.2 1.51-.55.44-.36.76-.86.9-1.42a1.7 1.7 0 0 0-.14-1.45m-.91 1.38c-.08.29-.24.55-.46.76-.19.2-.44.3-.7.3a.53.53 0 0 1-.52-.25.93.93 0 0 1-.04-.72c.08-.3.25-.57.47-.78.2-.19.46-.3.72-.3.1 0 .2.01.29.06a.5.5 0 0 1 .2.21c.1.23.12.49.04.72M40.88 26c-.35 0-.69.1-.98.28v-.06a.12.12 0 0 0-.02-.05.12.12 0 0 0-.04-.03.11.11 0 0 0-.05-.01h-.85l-.06.01a.1.1 0 0 0-.03.06l-.98 3.65a.12.12 0 0 0 .06.14l.05.01h.85c.02 0 .04 0 .06-.02a.1.1 0 0 0 .03-.05l.5-1.85c.2-.78.53-1.17.97-1.17.05 0 .1 0 .15.02.04.02.09.05.12.09.08.1.13.33-.02.9l-.51 1.93v.05c0 .02 0 .04.02.05 0 .02.02.03.04.04l.05.01h.84c.02 0 .04 0 .05-.02a.1.1 0 0 0 .04-.05l.6-2.23c.16-.63.14-1.07-.08-1.36a.99.99 0 0 0-.37-.27.94.94 0 0 0-.44-.07M45.46 28.2a.1.1 0 0 0 .06-.03.1.1 0 0 0 .03-.05l.03-.11c.17-.6.15-1.1-.07-1.45-.22-.37-.6-.56-1.16-.56-.53 0-1.04.2-1.44.55a2.9 2.9 0 0 0-.86 1.44 1.75 1.75 0 0 0 .11 1.43 1.34 1.34 0 0 0 1.21.57 2.2 2.2 0 0 0 1.98-1.2.12.12 0 0 0-.1-.12l-.77-.13a.1.1 0 0 0-.06 0 .1.1 0 0 0-.04.05.96.96 0 0 1-.35.4.92.92 0 0 1-.5.16.37.37 0 0 1-.25-.05.39.39 0 0 1-.16-.2 1.21 1.21 0 0 1 0-.71h2.34Zm-1.79-1.15a.85.85 0 0 1 .6-.27c.07 0 .15 0 .22.04.08.04.13.1.17.17.08.16.1.33.05.5h-1.36c.08-.17.19-.32.32-.44M48.9 26.1a.85.85 0 0 0-.43-.1c-.33 0-.65.1-.93.28a.13.13 0 0 0-.02-.11.12.12 0 0 0-.1-.05h-.84c-.02 0-.04 0-.06.02a.1.1 0 0 0-.03.05l-.97 3.66a.12.12 0 0 0 .06.14l.05.01h.85c.02 0 .04 0 .05-.02a.1.1 0 0 0 .04-.05l.44-1.65c.23-.86.6-1.28 1.16-1.28.11 0 .22.03.31.1a.11.11 0 0 0 .1.03l.03-.02a.1.1 0 0 0 .03-.04l.32-.81v-.09a.12.12 0 0 0-.05-.06M35.92 25.84a.48.48 0 0 0 .34-.14.49.49 0 0 0 .13-.5.4.4 0 0 0-.1-.14.44.44 0 0 0-.32-.13.5.5 0 0 0-.33.14c-.1.08-.15.2-.16.32a.42.42 0 0 0 .12.32.44.44 0 0 0 .32.13M37.12 25.84a.48.48 0 0 0 .34-.14.48.48 0 0 0 .13-.5.4.4 0 0 0-.1-.14.44.44 0 0 0-.32-.13.5.5 0 0 0-.34.14c-.09.08-.14.2-.15.32a.41.41 0 0 0 .12.32.44.44 0 0 0 .32.13" fill="#F0F3FA"/></svg>