<!-- by TradingView --><svg width="56" height="56" viewBox="0 0 56 56" xmlns="http://www.w3.org/2000/svg"><path fill="#F0F3FA" d="M0 0h56v56H0z"/><path d="M29.57 27h-8.98c0 6.1-.85 12.15-2.55 18h14.08a64.09 64.09 0 0 1-2.55-18ZM35.22 28H30.4a68.5 68.5 0 0 0 2.53 17h5.6a43.77 43.77 0 0 1-3.3-17" fill="#294780"/><path d="M20.99 12.4a1.27 1.27 0 0 1-.77 1.16 1.22 1.22 0 0 1-1.34-.27 1.26 1.26 0 0 1 .87-2.15c.33 0 .64.14.87.37.23.24.36.56.37.89ZM37.1 12.75a1.27 1.27 0 0 1-.76 1.16 1.22 1.22 0 0 1-1.34-.27 1.26 1.26 0 0 1 .87-2.14c.33 0 .64.13.87.37.23.23.37.55.37.88ZM31.38 24.74a1.27 1.27 0 0 1-.76 1.16 1.22 1.22 0 0 1-1.35-.27 1.26 1.26 0 0 1 .88-2.15c.33 0 .64.14.87.37.23.24.36.56.36.89ZM27.8 9c.2.15.42.29.64.4.32.26.61.56.85.9a2.76 2.76 0 0 1 .21 2.31c-.31 1.16-.82 2.22-1.06 3.39 0-.04-.74-.54-.79-.59a3.1 3.1 0 0 1-1.03-1.72c-.16-.73-.1-1.5.18-2.2.43-.8.77-1.62 1-2.49M26.08 23.43s-.42-1.7.1-2.67a4.86 4.86 0 0 1 2.24-1.77c.3-.15.57-.35.8-.6.15.42.24.87.25 1.32-.02.62.02 1.2-.5 1.65-.53.44-1.33.74-1.82 1.1-.38.3-.73.62-1.07.97M35.26 21.11s.12-.35.14-.37c.1-.29.16-.58.2-.89a2.38 2.38 0 0 0-.66-2.12c-.57-.44-1.2-.83-1.8-1.24l-.67-.44a3.71 3.71 0 0 1-.39-.25s-.42 1.9-.1 2.62c.2.38.5.7.85.92.84.58 1.64 1.15 2.43 1.77M23.88 20.24l.14-.37c.1-.29.17-.58.21-.88a2.38 2.38 0 0 0-.66-2.13c-.58-.44-1.2-.83-1.8-1.24l-.68-.44a3.68 3.68 0 0 1-.38-.25s-.42 1.9-.09 2.62c.2.38.5.7.86.92l2.4 1.77M18 20.33h-.41a2.3 2.3 0 0 1-1.02-.33 2.95 2.95 0 0 1-1.15-1.42 6.6 6.6 0 0 1-.25-1.65c0-.1-.03-1.18-.17-1.18.59.03 1.16.2 1.67.47 1.26.77.91 2.3 1.17 3.51l.16.6M38 20.33h.41c.36-.03.71-.14 1.02-.33.52-.34.92-.84 1.15-1.42a6.6 6.6 0 0 0 .25-1.65c0-.1.03-1.18.17-1.18a3.9 3.9 0 0 0-1.67.47c-1.26.77-.91 2.3-1.17 3.51l-.16.6M33.9 24.97c1.05.13 2.13.05 3.16-.23.48-.15.9-.48 1.16-.92.26-.36.4-.8.39-1.24-1.45 0-3.09-.32-4.17.87-.09.09-.86 1.5-.54 1.52ZM22.09 24.97a8.25 8.25 0 0 1-3.16-.23 2.1 2.1 0 0 1-1.17-.92c-.25-.36-.39-.8-.38-1.24 1.44 0 3.08-.32 4.16.87.07.09.86 1.5.55 1.52Z" fill="#A2E20D"/></svg>