<!-- by TradingView --><svg xmlns="http://www.w3.org/2000/svg" width="56" height="56"><path fill="#F0F3FA" d="M0 0h56v56H0z"/><path fill-rule="evenodd" d="M26 13.45a4.54 4.54 0 016.32 2.48l1.89-.64a6.57 6.57 0 00-9.11-3.59 6.3 6.3 0 00-2.52 9.1 4.45 4.45 0 01-4.26 6.37A4.45 4.45 0 0114 22.75a4.46 4.46 0 015.14-4.37l.28-1.94a6.44 6.44 0 00-7.42 6.3c0 3.4 2.71 6.18 6.13 6.37v.01a4.6 4.6 0 01.64 0 4.43 4.43 0 014.2 4.68 4.46 4.46 0 01-4.76 4.12 4.43 4.43 0 01-4.2-4.68c.07-1 .46-1.9 1.08-2.6l-1.52-1.27a6.29 6.29 0 00-1.55 3.75 6.4 6.4 0 006.06 6.76 6.5 6.5 0 006.43-3.98 4.57 4.57 0 015.6-1.21 4.37 4.37 0 011.95 5.94 4.54 4.54 0 01-8.05-.1l-1.8.85a6.57 6.57 0 0011.64.15 6.27 6.27 0 00-.77-6.96 4.4 4.4 0 012.36-4.97 4.54 4.54 0 016.04 1.96 4.37 4.37 0 01-2 5.92c-.92.45-1.9.57-2.84.4l-.36 1.92a6.6 6.6 0 004.1-.57 6.3 6.3 0 002.88-8.55 6.51 6.51 0 00-5.71-3.5v-.02c-.85 0-1.7-.21-2.47-.7a4.36 4.36 0 01-1.38-6.08 4.56 4.56 0 016.22-1.35 4.36 4.36 0 011 6.6l1.51 1.27a6.3 6.3 0 00-1.44-9.52 6.58 6.58 0 00-9.4 2.72 4.54 4.54 0 01-7.53-.73A4.37 4.37 0 0126 13.45zm-1.04 19.58a6.61 6.61 0 016.03-.09 6.35 6.35 0 013.04-4.8l-.02-.01a6.34 6.34 0 01-3-5.08c-1.97.98-4.2.88-6.02-.07a6.34 6.34 0 01-3.03 5.17 6.36 6.36 0 013 4.88z" fill="#DA262E"/></svg>