<!-- by TradingView --><svg width="56" height="56" xmlns="http://www.w3.org/2000/svg"><path fill="#00ADEF" d="M0 0h56v56H0z"/><path d="M7.626 25H13v1H7.626C7.076 26 6 26.39 6 28c0 1.61 1.24 2 1.626 2H13v1H7.626c-.855 0-2.61-.738-2.626-2.99C4.984 25.76 6.71 25 7.626 25zm-.627 7H13v1H6.999zM44 32h6v1h-6zm-30-7h8v1.003h-8zm0 2.496h6v1h-6zM14 30h10v1.001H14z" fill="#fff"/><path d="M23 25v5.253h1v-2.761l2.32 3.515h.436L29 27.492v3.515h1V26h3v5.007h1V26h3v-1h-8l-2.5 4.11L24 25h-1zm16 0l-2.138 6.04h1.14l1.498-4.097 1.51 4.097h8.27c.564-.014 1.699-.29 1.72-1.762.021-1.473-1.139-1.768-1.72-1.778h-4.128c-.45 0-.651-.378-.651-.758 0-.381.23-.742.651-.742H50v-1h-5.148c-.48 0-1.322.488-1.343 1.742-.022 1.253.863 1.758 1.343 1.758h4.48c.431 0 .668.36.668.777a.732.732 0 01-.72.723h-7.522L40 25h-1z" fill="#fff"/></svg>