<!-- by TradingView --><svg width="56" height="56" viewBox="0 0 56 56" xmlns="http://www.w3.org/2000/svg"><path fill="#E30713" d="M0 0h56v56H0z"/><path d="M15.5 21.6c-.93-1.46-2.78 1.23-3.2 1.95a11.45 11.45 0 0 0-1.55 6.41c.05 1.01.57 2.28 1.62 2.72 1.37.56 3.5-.42 4.44-1.33.43-.4.73-.7.9-.9.72-.78 1.01-.66.9.38-.02.13-.17.34-.44.61l-.52.55a9.13 9.13 0 0 1-4.75 2.78c-5.83 1.34-8-3.51-6.38-7.96 1.4-3.86 5.19-6.5 9.47-6.8 1.54-.1 3.8.53 3.95 2.21.18 1.83-2.25 2.65-3.5 1.32-.28-.31-.45-.76-.6-1.18-.11-.29-.21-.56-.34-.76Zm7.76 8.96c-.18 1.24.14 2.6 1.58 2.88 1.55.31 2.96-.8 4.05-1.89a.34.34 0 0 1 .21-.1c.09 0 .17.01.25.05l.07.09c.08.12.08.23 0 .35a6.9 6.9 0 0 1-3.62 2.74c-2.26.74-5.06.24-6-2.01-.77-1.81.06-4.2 1.4-5.66 1.91-2.06 5.63-3.98 8.57-2.47.8.4 1.19 1.08 1.17 2.02-.08 3.23-4.93 3.64-7.49 3.83-.11 0-.18.07-.2.17Zm.37-.98c2.24-.26 3.57-1.38 3.99-3.38.08-.4.04-.75-.11-1.08a.66.66 0 0 0-.34-.32.73.73 0 0 0-.48-.03c-1.84.48-2.92 3.08-3.25 4.62-.03.14.03.2.19.19Zm13.26-3.92c-.12.15-.17.13-.14-.06.16-.95-.25-1.45-1.21-1.5-1.83-.1-3.29.34-3.63 2.06v.08l.05.06.08.04.08-.01.98-.3c.04-.01.1-.02.14 0 .04 0 .09.03.12.06.04.03.06.07.07.11v.13l-2.97 8.07a.4.4 0 0 0 .05.38c.04.06.1.1.16.13.06.04.24.09.3.1l2.1-.01c.87-.03 1.24-.3 1.54-1.07a60.48 60.48 0 0 1 2.46-5.77c.43-.84 1.03-1.98 1.94-2.32a.55.55 0 0 1 .48.05c.07.05.13.11.17.18.03.07.05.15.05.23a7.63 7.63 0 0 1-.31 1.77c-.42 1.46-1.13 3.86-1.96 6.58a.25.25 0 0 0 0 .13c0 .04.02.08.05.11a.3.3 0 0 0 .1.08l.14.03h2.3c.15 0 .31-.04.45-.13.13-.08.23-.2.29-.34l.2-.5c.85-2.12 3.47-8.64 5.28-7.9.11.05.2.14.26.25.05.1.05.23 0 .34-1 2.43-1.62 3.98-1.87 4.66-.5 1.34-1.28 3.56 1.22 3.62 1 .02 2.51-.35 2.67-1.4a.25.25 0 0 0-.08-.24.7.7 0 0 0-.45-.2.42.42 0 0 1-.17-.04.38.38 0 0 1-.13-.11.33.33 0 0 1-.05-.31l2.06-5.64c.09-.25.16-.55.23-.9.34-1.88-.79-2.04-2.42-2.15a4.54 4.54 0 0 0-4.28 1.9c-.22.3-.32.28-.29-.1.03-.45-.06-.85-.29-1.2-.46-.74-2.74-.64-3.43-.53-1.2.18-1.65.73-2.34 1.58Z" fill="#fff"/></svg>