<!-- by TradingView --><svg xmlns="http://www.w3.org/2000/svg" width="56" height="56"><path fill="#F0F3FA" d="M0 0h56v56H0z"/><path d="M19.72 27.55a7.5 7.5 0 11-.46-5.3c-.7.73-2.4 2-3.4 1.3a4 4 0 10.03 3.84c.36-.8 2.19-1.16 3.83.16z" fill="url(#apflrjkog)"/><path d="M19.7 27.53C14.76 31.01 9 32.14 9 32.14a7.5 7.5 0 01-1.6-1.13l2.17-2.85a3.92 3.92 0 006.5-1.03c.6-.6 2.18-.74 3.62.4z" fill="url(#bpflrjkog)"/><path d="M9.63 28.21L7.5 31.1a7.49 7.49 0 01-2.1-8.05l10.77-4L14.29 22a3.94 3.94 0 00-4.66 6.22z" fill="url(#cpflrjkog)"/><path fill-rule="evenodd" d="M43.5 33a7.5 7.5 0 100-15 7.5 7.5 0 000 15zm0-3.5a4 4 0 100-8 4 4 0 000 8z" fill="url(#dpflrjkog)"/><path fill-rule="evenodd" d="M43.5 33c.87 0 1.71-.15 2.5-.42 0 0 2.81-6.57 3.84-11.1a7.54 7.54 0 00-1.51-1.72l-9.78 11.38A7.47 7.47 0 0043.5 33zm-.05-3.5a3.99 3.99 0 002.6-7.08l-5.21 6.06a4.1 4.1 0 002.61 1.02z" fill="url(#epflrjkog)"/><path fill-rule="evenodd" d="M27.98 33a7.5 7.5 0 007.26-5.64c-1.37-.94-2.9-.92-3.62-.19a4 4 0 01-4.6 2.11l4.87-4.94c.66-.65 1.93-1.94 2.57-2.61A7.5 7.5 0 1027.98 33zm1.76-11.2a3.99 3.99 0 00-5.7 3.61c0 .55.1 1.07.3 1.54l5.4-5.16zm-5.29 5.4a4 4 0 00.57.84l-.57-.84z" fill="url(#fpflrjkog)"/><path d="M24.44 32.07l.56-5.73-.54.52a4.95 4.95 0 01-.22-2.36c.18-1.33 1.31-2.24 1.31-2.24l.36-3.94a7.52 7.52 0 00-5.43 7.18c0 2.83 1.6 5.3 3.96 6.57z" fill="url(#gpflrjkog)"/><path d="M24.47 32.09l4.71-9.77L25 26.39l-.53 5.7z" fill="url(#hpflrjkog)"/><path d="M22.12 39l1.89-3.5h-.57l-1.5 2.78-1.5-2.78h-.56l1.88 3.5h.36zm-7.47-3.47H18v.5h-2.85v.99H17v.5h-1.85v.98H18v.5h-3.35v-3.47zm11.79 0h3.35v.5h-2.85v.99h1.85v.5h-1.85v.98h2.85v.5h-3.35v-3.47zm9.68 0V39h-.42l-2.8-2.7V39h-.5v-3.48h.41l2.81 2.72v-2.71h.5zm6.3 0h-4.27v.5h1.89V39h.5v-2.98h1.88v-.5z" fill="#5F6062"/><defs><linearGradient id="apflrjkog" x1="19.7" y1="25.1" x2="7.1" y2="21.36" gradientUnits="userSpaceOnUse"><stop stop-color="#F57619"/><stop offset=".46" stop-color="#F99A0F"/><stop offset="1" stop-color="#FEC701"/></linearGradient><linearGradient id="bpflrjkog" x1="18.34" y1="26.68" x2="8.67" y2="32.13" gradientUnits="userSpaceOnUse"><stop stop-color="#F57A18"/><stop offset="1" stop-color="#FFD100"/></linearGradient><linearGradient id="cpflrjkog" x1="15.72" y1="19.47" x2="5.37" y2="27.71" gradientUnits="userSpaceOnUse"><stop stop-color="#FFD100"/><stop offset="1" stop-color="#F57619"/></linearGradient><linearGradient id="dpflrjkog" x1="49.76" y1="19.88" x2="37.15" y2="28.95" gradientUnits="userSpaceOnUse"><stop stop-color="#F57619"/><stop offset="1" stop-color="#FFD100"/></linearGradient><linearGradient id="epflrjkog" x1="44.19" y1="27.66" x2="45.18" y2="33" gradientUnits="userSpaceOnUse"><stop stop-color="#FFD100"/><stop offset="1" stop-color="#F78A13"/></linearGradient><linearGradient id="fpflrjkog" x1="35.48" y1="25.5" x2="20.48" y2="25.5" gradientUnits="userSpaceOnUse"><stop stop-color="#F57619"/><stop offset="1" stop-color="#FFD100"/></linearGradient><linearGradient id="gpflrjkog" x1="23.19" y1="18.32" x2="23.19" y2="32.08" gradientUnits="userSpaceOnUse"><stop stop-color="#FFD100"/><stop offset="1" stop-color="#F57619"/></linearGradient><linearGradient id="hpflrjkog" x1="28.22" y1="23.16" x2="24.58" y2="31.68" gradientUnits="userSpaceOnUse"><stop stop-color="#F99D0E"/><stop offset="1" stop-color="#FFD100"/></linearGradient></defs></svg>