<!-- by TradingView --><svg width="56" height="56" viewBox="0 0 56 56" xmlns="http://www.w3.org/2000/svg"><path fill="#F0F3FA" d="M0 0h56v56H0z"/><path d="M36.11 20.02c-4.16-3.3-9.64-2.9-14.18-.71-3.14 1.5-4.97 3.82-6.62 6.86-1 1.82-1.45 3.68-1.37 5.6.03.67.11 1.73.25 3.17a.6.6 0 0 1-.03.27.54.54 0 0 1-.15.2c-.07.07-.2.05-.37-.08-.3-.21-.5-.5-.61-.85-2.17-6.72-.95-13.59 4.09-18.54 4.94-4.86 12.2-6.13 18.75-3.83A13.69 13.69 0 0 1 41 15.3c0 .02 0 .04-.02.05L36.33 20a.16.16 0 0 1-.1.05.16.16 0 0 1-.12-.03Z" fill="#07468D"/><path d="M21.9 34.8a11.2 11.2 0 0 0 8.71 3.14 9.47 9.47 0 0 0 5.16-1.9.28.28 0 0 1 .35.01c1.52 1.3 2.73 2.79 4.16 4.33a.59.59 0 0 1-.06.86 17.93 17.93 0 0 1-9.08 3.67c-3.55.39-6.69-.46-9.41-2.54-2.94-2.24-3.97-6-3.5-9.73.1-.76.24-1.36.43-1.8.2-.43.38-.43.54.03a9.95 9.95 0 0 0 2.7 3.94Z" fill="#90C900"/></svg>