<!-- by TradingView --><svg xmlns="http://www.w3.org/2000/svg" width="56" height="56"><path fill="#F0F3FA" d="M0 0h56v56H0z"/><path fill-rule="evenodd" d="M25.94 21h4.12l1.44 1.5v7.64l-1.3 1.36h-1.02L28 31.03l-1.1.47h-1.03l-1.37-1.36V22.5l1.44-1.5zm6.4 9.14l1.84.86h4.2l10.79-9.43-14.99-.07-1.84 1.06v7.59zm-8.68-7.58l-1.77-1.06-15 .07L17.7 31h4.2l1.77-.85v-7.59zM22.1 20.5l1.62 1.28L25.57 20h4.93l1.77 1.78 1.7-1.28H52L38.82 32.03h-4.86l-1.76-1.07-1.48 1.54h-5.37l-1.47-1.54-1.77 1.07h-4.86L4 20.5h18.11zm4.2 1.07h3.46L31 22.84v2.92h-2.56V24h-.8v4h.8v-1.52H31v3.3L29.91 31h-.73L28 30.32l-1.1.68h-.74L25 29.77v-6.93l1.3-1.27z" fill="#0070BA"/><path d="M34.18 28.9h5.97l-1.99 1.7h-3.98v-1.7zm0-2.35h8.62l-1.99 1.7h-6.63v-1.7zm0-2.35h11.27l-1.92 1.7h-9.35v-1.7zm0-2.35h14l-2 1.7h-12v-1.7zM21.9 30.6h-3.98l-1.98-1.7h5.96v1.7zm0-2.34h-6.63l-1.98-1.71h8.61v1.7zm0-2.35h-9.35l-1.91-1.71H21.9v1.7zm0-2.35h-12l-1.99-1.7H21.9v1.7zM46 32.47h1V32h-1v.47zM46 39h1v-6h-1v6zm-7-2.5h3.25c.36 0 .75.2.75.75 0 .63-.39.75-.82.75H39v-1.5zm0-2.5h3.03c.36 0 .97.18.97.73 0 .63-.6.77-.97.77H39V34zm2.94 5c1.4 0 2.06-.38 2.06-1.63 0-.86-.3-1.4-1-1.4v-.23c.74-.24 1-.64 1-1.26 0-.96-.73-1.48-1.75-1.48H38v6h3.94zM36 39v-1h-4v-1.5h4v-1h-4V34h4v-1h-5v6h5zm-14 0v-1h-4v-1.5h4v-1h-4V34h4v-1h-5v6h5zm2-6v6h5v-1h-4v-5h-1zm-11.03 5h-2.64C9.1 38 9 36.95 9 35.93c0-1.1.34-1.93 1.33-1.93h2.64c.44 0 .96.37 1.03 1h1.18c.08-1.73-1.73-2-3.34-2C9.75 33 8 33.13 8 35.62V37c.15 1.72 1.43 2 2.89 2h2.33c1.67-.08 2.03-.89 2.03-2H14c0 .57-.44 1-1.03 1zm-2.08 2h1.53v-.47h-1.53V40z" fill="#7FCBD4"/><path d="M32.34 29.9v-1.36l1.84.36v1.7l-1.84-.7zm0-1.93v-1.35l1.84-.07v1.7l-1.84-.28zm0-1.78v-1.35l1.84-.64v1.7l-1.84.3zm1.84-4.34v1.7l-1.84.8v-1.36l1.84-1.14zM23.66 29.9l-1.77.72V28.9l1.77-.36v1.35zm0-1.92l-1.77.29v-1.71l1.77.07v1.35zm0-1.78l-1.77-.28V24.2l1.77.64v1.35zm-1.77-4.34L23.66 23v1.35l-1.77-.78v-1.71z" fill="#7FCBD4"/></svg>