<!-- by TradingView --><svg width="56" height="56" viewBox="0 0 56 56" xmlns="http://www.w3.org/2000/svg"><path fill="#F0F3FA" d="M0 0h56v56H0z"/><path d="M32 28c0 7.18-5.8 13-12.94 13A13.07 13.07 0 0 1 6 28c0-7.18 5.92-13 13.06-13C26.21 15 32 20.82 32 28Z" fill="#F0C500"/><circle cx="28" cy="28" fill="#92D708" r="13"/><path d="M23.52 40.2A13 13 0 0 0 32 28a13 13 0 0 0-8.48-12.2 13 13 0 0 0 0 24.4Z" fill="#91A900"/><circle cx="37" cy="28" fill="#0099D0" r="13"/><path d="M32.5 40.2a13 13 0 0 0 0-24.4 13 13 0 0 0 0 24.4Z" fill="#017E08"/><path d="M28 18.61a12.96 12.96 0 0 0 0 18.78A13 13 0 0 0 32 28a13 13 0 0 0-4-9.39Z" fill="#025E02"/><path d="M22 22v12h2v-4.94L25 34h2V22h-2v5.31L24.04 22H22Z" fill="#F0F3FA"/><path fill-rule="evenodd" d="M16 24.4v6.97c0 1.57 1.1 2.6 2.47 2.63 1.39.02 2.53-1.04 2.53-2.63V24.4c0-1.47-1.25-2.41-2.53-2.39-1.27.02-2.47.95-2.47 2.4Zm2.5-.4c-.28 0-.5.24-.5.53v6.94c0 .3.22.53.5.53s.5-.24.5-.53v-6.94c0-.3-.22-.53-.5-.53Z" fill="#F0F3FA"/><path d="M33 25.03h-2s0-.87-.6-.87c-.39 0-.4.6-.4.87 0 .52.5 1.37 1.31 2.11A4.52 4.52 0 0 1 33 30.47c0 1.75-.25 3.53-2.6 3.53-1.47 0-2.4-1.1-2.4-2.38V30h2v.97c0 .84.22 1.03.5 1.03.46 0 .5-.38.5-1.38 0-1.5-1.38-2.4-1.87-2.88a3.82 3.82 0 0 1-1.08-3.22c.24-1.45 1.12-2.52 2.36-2.52 2.82 0 2.59 3.03 2.59 3.03ZM45 25.03h-2s0-.87-.6-.87c-.39 0-.4.6-.4.87 0 .52.49 1.37 1.3 2.11a4.52 4.52 0 0 1 1.7 3.33c0 1.75-.25 3.53-2.6 3.53-1.47 0-2.4-1.1-2.4-2.38V30h2v.97c0 .84.21 1.03.5 1.03.46 0 .5-.38.5-1.38 0-1.5-1.38-2.4-1.88-2.88a3.82 3.82 0 0 1-1.08-3.22C40.3 23.07 41.17 22 42.4 22c2.83 0 2.6 3.03 2.6 3.03ZM15 27h-2v-2.47s-.07-.53-.5-.53-.5.53-.5.53v6.78s0 .69.5.69.5-.7.5-.7V29h2v2.39A2.44 2.44 0 0 1 12.48 34C11.3 34 10 33.19 10 31v-6.47A2.47 2.47 0 0 1 12.48 22c1.4 0 2.52.66 2.52 2.53V27ZM36 22h-2v9.34c0 1.68 1 2.66 2.57 2.66 1.56 0 2.43-1.05 2.43-2.46V22h-2v8.97c0 .57 0 1.03-.5 1.03s-.5-.46-.5-1.02V22Z" fill="#F0F3FA"/></svg>