<!-- by TradingView --><svg xmlns="http://www.w3.org/2000/svg" width="56" height="56"><path fill="#F0F3FA" d="M0 0h56v56H0z"/><path d="M11.54 31.58c-.4.2-1.26.42-2.36.42C6.77 32 5 30.57 5 28.06 5 25.85 6.63 24 9.43 24c1.12 0 1.84.24 2.14.39l-.27.98c-.44-.2-1.1-.37-1.82-.37C7.32 25 6 26.13 6 28.05 6 29.78 7.21 31 9.4 31a4.8 4.8 0 001.92-.35l.22.93zm9.74-1.2c.5.32 1.25.62 2.02.62 1.07 0 1.7-.53 1.7-1.3 0-.73-.42-1-1.58-1.38-1.44-.45-2.18-1.1-2.18-2.2 0-1.22 1.03-2.12 2.6-2.12.86 0 1.48.19 1.86.4l-.3 1a3.2 3.2 0 00-1.6-.4c-1.13 0-1.54.6-1.54 1.12 0 .7.49.96 1.63 1.34 1.4.47 2.11 1.07 2.11 2.3 0 1.13-.8 2.24-2.8 2.24-.8 0-1.74-.3-2.2-.62l.28-1zm25.02.07c.5.31 1.2.55 1.97.55 1.08 0 1.73-.53 1.73-1.3 0-.72-.43-1-1.6-1.37-1.47-.46-2.22-1.1-2.22-2.21 0-1.22 1.05-2.12 2.63-2.12.87 0 1.5.2 1.88.4l-.3 1a3.2 3.2 0 00-1.6-.4c-1.16 0-1.57.6-1.57 1.12 0 .7.49.96 1.65 1.34 1.42.47 2.13 1.07 2.13 2.3 0 1.13-.82 2.24-2.82 2.24-.81 0-1.7-.24-2.18-.56l.3-1zm-11.47-2a74.7 74.7 0 01-.13-3.57h-.03c-.3.94-.64 1.97-1.07 3.13L32.13 32h-.8L30 28.05a38.6 38.6 0 01-.95-3.17h-.02c-.04 1.02-.09 2.42-.17 3.65L28.63 32h-.97l.55-8h1.35l1.42 3.92c.33.96.6 1.87.81 2.69h.03c.21-.78.51-1.7.88-2.69L34.2 24h1.35l.45 8h-.98l-.19-3.55zM45 28c0 2.57-1.84 4-4.06 4A3.86 3.86 0 0137 28c0-2.41 1.68-4 4-4 2.39 0 4 1.76 4 4zm-7 0c0 1.67 1.22 3 3 3 1.8 0 3-1.17 3-3 0-1.57-1.1-3-3-3s-3 1.27-3 3z" fill="#899FB3"/><circle cx="16" cy="28" fill="url(#an1hnj30i)" r="4"/><path d="M12.85 25.82c.08-.06.1-.13.16-.2.04-.05.14-.2.2-.15 0 .02-.03.08-.01.1.07.07.05.1.09.11.08.01.08-.19.11-.24.05-.08.05-.16.1-.24.08-.15.23-.28.35-.41.05-.06.14-.18.23-.16-.12.19-.23.12-.1.27.04.04-.03.08-.02.11.01.07.12-.17.12-.18.1-.12.25-.17.37-.24l.23-.14c.06-.04.15-.07.21-.1l.2-.1c.03-.02.22-.05.2-.1-.02-.03-.23 0-.27 0l-.21.03a4 4 0 00-2.26 1.8.5.5 0 00-.04.11l.34-.27z" fill="url(#bn1hnj30i)"/><path d="M19.76 26.65a4 4 0 00-3.8-2.65c-.05.02-.1.07-.07.12.02.03.12.02.14.05.06.08-.09.05-.07.1-.04.02-.12.05-.06.1.03.02.07.01.1.02.2.03-.16.22-.05.35.1.12-.14.06-.15.07-.02-.05-.12-.01-.14.03-.05.09-.25.17-.35.17-.05 0-.08-.05-.14-.04a.88.88 0 00-.16.08c-.05.04-.03.1-.06.15-.02.04-.07.08-.1.11-.06 0-.22-.01-.24.05.06 0 .1.16 0 .22-.05-.05-.18.1-.26.03-.06.05-.08.14-.09.22-.04.28.22.13.05.28-.16.15-.64.79-.6 1.06.02.06.05.06.02.13-.1.3.06.42.25.73.02.03.12.13.16.14.05 0 .16-.02.16-.1.18-.04.23.04.38-.08s.28-.2.37 0c.08.16.1.04.25 0 .1-.02.17.1.18.2 0 .06-.04.12-.04.18 0 .08.1.17.16.21.19.15.15.1.24.26.04.07.06.18.07.27 0 .1-.11.16-.14.25-.02.05-.01.1 0 .15.01.04.1.06.14.08.1.04.14.1.26.12.17.03 0 .03 0 .12.08.03-.08.1-.02.17.03.02.08 0 .1.03.04.04.05.13.08.17.12.01.16.19.16.28.06 0 .12.02.11.09.06 0 .05-.06.07-.1a.22.22 0 01.14-.14c.1-.03.2-.1.32-.15.04-.02.08-.03.1-.08.04-.05 0-.22-.05-.23.02-.08.23-.1.3-.17.03-.05.04-.08.02-.12l-.06-.12c-.04-.03-.1-.02-.1-.07-.02-.07.06-.07.1-.08.14-.04.15-.15.2-.24.05-.08.09-.13.07-.24-.02-.12-.02-.21-.15-.25-.03-.06-.13-.1-.14-.16-.04-.01-.21.02-.14-.08.1-.12.15-.1.23-.24.06-.12.23-.2.23-.35-.07 0 0-.06 0-.1.1-.01.04-.08.07-.14.06-.1.2-.16.2-.3l-.01-.02c0-.07.05-.13.07-.2.01-.06.06-.17.02-.23-.2-.03-.01-.63-.08-.57.01-.16-.32-.2.1-.28.04-.01.12-.05.1.04.06 0 .17.02.2.06-.01.13.37.01.34.16.05.02 0 .04.02.08.05.14.27.2.27.36 0 .03-.02.06 0 .09.01.04.04.02.07.04.07.05.03.11.1.15.47 0 .17-.48.55-.24z" fill="url(#cn1hnj30i)"/><path d="M13.3 30.78a1.56 1.56 0 00-.2-.35c-.06-.06-.12-.2-.01-.26.07-.03.1-.02.05-.12-.03-.07-.05-.08-.11-.12-.26-.18-.03-.6-.06-.84-.03-.3-.54-.23-.6-.6-.02-.08.04-.22-.06-.28-.04-.03-.1.01-.14-.02-.04-.03-.03-.12-.03-.16.03-.18-.06-.44-.1-.62a4 4 0 001.54 3.79h.08c-.13-.13-.28-.24-.36-.42z" fill="url(#dn1hnj30i)"/><defs><linearGradient id="an1hnj30i" x1="12.7" y1="22.72" x2="19.2" y2="31.47" gradientUnits="userSpaceOnUse"><stop offset=".19" stop-color="#BAD8E4"/><stop offset=".55" stop-color="#fff" stop-opacity=".34"/><stop offset=".73" stop-color="#fff" stop-opacity=".4"/><stop offset=".98" stop-color="#6A8EA3"/></linearGradient><linearGradient id="bn1hnj30i" x1="13.47" y1="24.14" x2="15.55" y2="27.19" gradientUnits="userSpaceOnUse"><stop offset=".21" stop-color="#344F75"/><stop offset=".37" stop-color="#93B1DF"/></linearGradient><linearGradient id="cn1hnj30i" x1="16.7" y1="24" x2="17.3" y2="30.57" gradientUnits="userSpaceOnUse"><stop offset=".02" stop-color="#344F75"/><stop offset=".13" stop-color="#6581BE"/><stop offset=".29" stop-color="#849BC8"/><stop offset=".47" stop-color="#94B3D4"/><stop offset=".62" stop-color="#9ABCD9"/><stop offset=".83" stop-color="#728BC2"/></linearGradient><linearGradient id="dn1hnj30i" x1="11.35" y1="26.76" x2="13.51" y2="31.41" gradientUnits="userSpaceOnUse"><stop offset=".15" stop-color="#344F75"/><stop offset=".32" stop-color="#4C688C"/><stop offset=".93" stop-color="#728BC2"/></linearGradient></defs></svg>