<!-- by TradingView --><svg xmlns="http://www.w3.org/2000/svg" width="56" height="56"><path fill="#F0F3FA" d="M0 0h56v56H0z"/><path d="M25 24h1v1h-1v-1z" fill="#0060A9"/><path fill-rule="evenodd" d="M19.5 26.59c-.33.44-.5 1.26-.5 2 0 .78.17 1.4.5 1.84.34.44.8.57 1.35.57.5 0 .83-.12 1.15-.52V31h1v-7h-1.01v2.44c-.3-.34-.66-.43-1.13-.43-.57 0-1.03.14-1.36.58zm1.6.35c-.85 0-1 1.01-1 1.65 0 .63.15 1.48 1 1.48a.9.9 0 00.9-.9v-1.33a.9.9 0 00-.9-.9z" fill="#0060A9"/><path d="M11 27.74c.25-.55.77-.73 1.3-.48l.7-.92c-.16-.26-.59-.34-.85-.34-.45 0-.9.13-1.15.57V26h-1v5h1v-3.26zm3.5 3.03a2.28 2.28 0 01-1.31-2.16c0-1.3.76-2.62 2.13-2.6 1.83 0 2.18 1.39 2.18 2.99h-3.15c0 .33.2.7.5.9.51.37 1.54.12 1.93-.37l.62.7c-.59.83-1.98.96-2.9.54zm.82-3.82c-.51 0-.9.57-.97 1.05h1.95c0-.57-.35-1.05-.98-1.05zM25.99 31h-1l.01-5h.99v5zM29 26v-1h-1v1h-.5v1h.5v2.64c.02.9.39 1.36 1.28 1.36.26 0 .47-.05.72-.12v-.97c-.1.02-.18.03-.33.03-.24 0-.67-.04-.67-.49V27h1v-1h-1zm11.31 4.81c-.84-.37-1.31-1.3-1.31-2.22 0-1.25.76-2.6 2.14-2.59 1.82 0 2.17 1.42 2.17 2.96l-3.15-.02c0 .32.2.7.5.9.52.35 1.55.11 1.93-.36l.62.67c-.58.8-1.98 1.07-2.9.66zm.83-3.83c-.52 0-.9.55-.98 1.02h1.96c0-.55-.35-1.02-.98-1.02zm-34 3.08c-.86 0-1.14-.8-1.14-1.5v-.27c0-.72.29-1.32 1.15-1.32.2 0 .64.12.73.32l.93-.59a1.67 1.67 0 00-.2-.2 2.1 2.1 0 00-1.44-.5c-.68 0-1.2.22-1.59.64a2.4 2.4 0 00-.58 1.7v.23c0 .73.2 1.4.59 1.82.4.41.9.61 1.59.61.36 0 .71-.06 1.01-.2.28-.13.5-.31.66-.54l-.92-.56c-.09.23-.55.36-.78.36zM51 26v-1h-1v1h-.5v1h.5v2.65c.02.9.39 1.35 1.28 1.35.26 0 .47-.04.72-.12v-.96c-.1.02-.18.03-.33.03-.24 0-.67-.04-.67-.5V27h1v-1h-1z" fill="#0060A9"/><path d="M36.02 29.35l.92-3.35h1.18l-1.36 5h-1.2l-1-3.24L33.55 31h-1.19L31 26h1.16l.9 3.35.98-3.35h1.03l.95 3.35z" fill="#E03A3E"/><path d="M47.17 29.58c0 .26-.25.44-.74.44-.62 0-1.24-.58-1.24-.58l-.69.65c.43.6 1.15.91 1.9.91.95 0 2-.46 2-1.47 0-.99-.94-1.34-1.8-1.51-.64-.14-.88-.3-.88-.58 0-.3.25-.52.67-.52.4 0 .83.36.83.36s.49-.22.94-.5c-.37-.57-1.09-.78-1.76-.78-.94 0-1.9.53-1.9 1.5 0 .74.56 1.22 1.7 1.46.68.15.97.3.97.62z" fill="#0060A9"/></svg>