<!-- by TradingView --><svg width="56" height="56" viewBox="0 0 56 56" xmlns="http://www.w3.org/2000/svg"><path fill="#F0F3FA" d="M0 0h56v56H0z"/><path d="M24.3 10.13c-.06 0-.09.02-.09.1.02.4.07.96.16 1.7l-.19-.04c0-.03.02-.04.03-.05.08-.2.06-.28-.05-.24l-.14-1.42a.16.16 0 0 1 .05-.14.15.15 0 0 1 .14-.04c.03 0 .05.05.08.13Z" fill="#030305"/><path d="m24.3 10.13.12.2 4.26 9.07c-1.16.31-2.34.57-3.53.77l-.65-6.72-.13-1.51c-.09-.75-.14-1.32-.16-1.7 0-.09.03-.12.08-.1Z" fill="#fff"/><path d="m25.43 11.89.96 1.53.14.22 4.26 6.9.43 2.1c.04.2.1.2.18.02l.13-.27c.41-.78 1.23-2.3 2.46-4.55.05-.09.03-.18-.05-.27l.31-.25c.07-.05.1-.04.07.05l-1.06 4.57a.08.08 0 0 0 .01.08l.03.02.04.01 7.6.61.24.01 1.84.16 1.93.16.02.01a.06.06 0 0 1 .03.04v.02a.31.31 0 0 1-.2.2c-.46.2-.93.4-1.38.63a.28.28 0 0 0-.1-.07.1.1 0 0 0-.08 0l-1.26.56c0 .1-.04.18-.11.23l-6.35 2.81a.08.08 0 0 0-.05.06.08.08 0 0 0 .03.07l4.98 4.41a.1.1 0 0 1 .04.09c0 .04-.04.07-.1.09a.2.2 0 0 1-.13 0l-5.83-2.25c-.1-.04-.16 0-.14.11l1.54 8.98.15.58.02.4a117.93 117.93 0 0 0 .45 2.46c0 .18.02.39.07.63.1.57.23 1.3.37 2.21a.47.47 0 0 1-.11-.2l-5.75-20.38a3.4 3.4 0 0 0-.25-.64.06.06 0 0 0-.06 0s-.02 0-.02.02a752.6 752.6 0 0 0-1.4 2.2c-.07.1-.1.23-.16.32a.11.11 0 0 1-.08.05.8.8 0 0 0-.39.17 95.27 95.27 0 0 1-2.99 2.25v.04a.03.03 0 0 0 .03.02h.02l.36-.27a.05.05 0 0 1 .05-.01l.05.02c.03 0 .03.03.01.05-.24.29-.52.58-.68.9-.05.1-.1.25-.17.46-.64 2.02-1.18 3.77-1.6 5.26a.18.18 0 0 0 0 .1v.02a.02.02 0 0 0 .02 0h.01a18.27 18.27 0 0 1 1.12-1.75c.9-.78 1.8-1.64 2.46-2.63.18-.27.34-.55.48-.85.35-.78.7-1.56 1.02-2.35l.03.04-.5 2.55.01.08c1.84 3.25 3.65 6.42 5.43 9.53l.04.15c-.16.05-.27.02-.34-.09-.15-.31-.36-.7-.63-1.19l-3.85-6.8a26.97 26.97 0 0 0-.75-1.23.08.08 0 0 0-.1.01l-4.6 5.02c-.05.06-.1.07-.17.04a.07.07 0 0 1-.03-.03v-.05l2.06-6.7c.01-.05 0-.08-.07-.08l-10.7-.32c-.1-.17-.24-.26-.4-.26-.72-.02-1.44-.03-2.17-.03a.54.54 0 0 0-.45.23c-.5 0-.98-.02-1.48-.04a152.8 152.8 0 0 0-2.07-.1c-.2-.06-.2-.13 0-.22l.2-.06.03.05a199.7 199.7 0 0 1 3.27.09c.16 0 .34-.05.48-.04.6.03 1.2.03 1.8 0 .28 0 .54-.06.78-.14.85-.3 1.64-.65 2.36-1.04.28-.15.53-.38.75-.7.18-.23.48-.18.7-.3l.27-.06c.38-.06.77-.16 1.14-.25l3.81-.78.24-.04c.06-.01.14-.03.24-.07.1-.03.2-.04.31-.04l.1-.01c.03-.03.12-.05.25-.08a409.65 409.65 0 0 1 5.86-1.22c.03 0 .06 0 .08.03L32.45 26c.07.21.18.48.34.79a199.33 199.33 0 0 0 1.43 2.77h.07a.02.02 0 0 0 .02 0 .02.02 0 0 0 0-.02c-.46-.97-.99-2.02-1.58-3.16a.23.23 0 0 1-.03-.16c0-.05.02-.04.04 0 0 .03.03.07.08.1 1.47 1.13 2.97 2.25 4.53 3.37.45.32 1.02.8 1.57 1.16.02.01.03 0 .03-.02l.01-.03v-.02l-3.8-2.87a108.27 108.27 0 0 0-2.31-1.7c-.04-.02 0-.04.1-.05l1.19.61.5.25.4.2c.06.03.1.02.14-.04l.83-1.39c.22-.37.46-.63.77-1.02.24-.3.74-.74 1.51-1.34a18.45 18.45 0 0 0-1.23.01c-.13.01-.26.04-.39.08-.5.01-1.01.01-1.48.06-.67.08-1.21.06-2.01.13-.83.07-1.64.1-2.42.08L28.98 20l-.3-.6-4.26-9.05 1 1.55Z" fill="#030305"/><path d="M24.21 11.84a.43.43 0 0 1-.05-.24c.11-.04.13.04.05.24Z" fill="#5A5A5A"/><path d="M41.18 22.67h-.23c-.3-.58-.62-1.12-.99-1.63a17.94 17.94 0 0 0-6.33-5.49 16.72 16.72 0 0 0-7.1-1.91l-.14-.22c.66.02 1.13.04 1.4.08 3.06.43 5.82 1.54 8.29 3.35a17.93 17.93 0 0 1 5.1 5.82Z" fill="#BF6102"/><path d="m24.5 13.45.65 6.72.08.8c-.03.13-.01.2.1.29l2.35 1.73a2.03 2.03 0 0 1 .27.24l-.02.02h-.02c-.13-.1-.27-.2-.4-.27a918.8 918.8 0 0 0-6.72-3.4l-.75-.35a6.66 6.66 0 0 1-.83-.46l5.81 2.32h.02a.03.03 0 0 0 .02-.02c-.2-2.33-.41-4.65-.64-6.98 0-.08-.04-.2-.1-.38v-.2c.07-.06.13-.08.18-.06Z" fill="#030305"/><path d="m24.33 13.51-.01.2c-1.86.2-3.56.76-5.12 1.7a10.8 10.8 0 0 0-4.03 4.29c.26-.75.68-1.45 1.29-2.13a11.2 11.2 0 0 1 5.84-3.69c.66-.17 1.34-.3 2.03-.37Z" fill="#BF6102"/><path d="M33.94 17.57c.08.1.1.18.05.27a317.1 317.1 0 0 0-2.6 4.82c-.07.18-.13.18-.17-.01l-.43-2.12 3.15-2.96Z" fill="#A0A0A0"/><path d="M18.91 18.7c.07.11.14.21.24.3l4.68 4.17c.03.02.07.04.11.04l3.73.06c.09 0 .1.02.02.06-.16.1-.42.07-.63.11-.99.19-1.99.4-3 .63-.35.08-.65.2-.9.38-.3.18-.46.29-.5.3a58.35 58.35 0 0 1-2.1 1.05c-.25.12-.5.21-.77.28-.15.03-.3.1-.44.1-.21.01-.37.11-.59.13a7 7 0 0 0-.68.15c-.78.2-1.68.34-2.28.47-2.28.5-4.57.96-6.87 1.4.78-.31 1.56-.59 2.35-.83.05-.02.1-.05.13-.1l2.73-.9 9.35-3.22a.03.03 0 0 0 .03-.03.04.04 0 0 0-.01-.03A457.14 457.14 0 0 0 18.8 19c-.13-.12-.37-.32-.3-.46.02-.03.05-.04.08-.02l.32.18Z" fill="#030305"/><path d="M19.2 18.77c.27.17.55.32.84.46l.75.34a918.8 918.8 0 0 1 6.71 3.4c.14.08.28.19.41.28h.02l.02-.02a2.02 2.02 0 0 0-.27-.24l-2.35-1.73c-.11-.09-.12-.16-.1-.29 1.28-.17 2.52-.57 3.75-.97l1.78 3.8a32.38 32.38 0 0 0-1.47-.36c-.14-.06-.3-.03-.45-.08a1.63 1.63 0 0 0-.33-.08.83.83 0 0 1-.42-.12h-.03a.03.03 0 0 0-.01.03v.04c0 .02 0 .04.03.05.18.1.4.15.62.17a.4.4 0 0 1 .2.1c.02.01.02.03-.02.03-.9.05-1.82 0-2.53.25a16 16 0 0 0-2.42 1.09 3.54 3.54 0 0 1-1.16.38.06.06 0 0 0-.01.04v.06c0 .02.01.03.03.03.2-.02.4-.06.6-.11a.55.55 0 0 1 .35.02l-3.8.78a.3.3 0 0 1-.15-.04c.27-.07.52-.16.77-.28l.63-.3 1.48-.74.48-.31c.26-.17.56-.3.9-.38a76.8 76.8 0 0 1 3.01-.63c.2-.04.47-.02.63-.1.07-.05.07-.07-.02-.07l-3.73-.06a.17.17 0 0 1-.1-.04 860.79 860.79 0 0 1-4.7-4.17c-.09-.09-.16-.19-.23-.3.12-.02.22 0 .3.07Z" fill="#7B7B7B"/><path d="m28.68 19.4.3.6c-1.23.4-2.47.8-3.75.97l-.08-.8c1.19-.2 2.37-.46 3.53-.77ZM30.76 23.8c.78 0 1.59-.02 2.42-.09.8-.07 1.34-.05 2-.13.48-.05 1-.05 1.5-.06l.38.06c-.3.17-.61.22-.82.51-.6.89-1.24 1.76-1.9 2.61a.09.09 0 0 1-.08.04.3.3 0 0 0-.12.03l-1.2-.6c-.15-.1-.32-.16-.5-.17l-1.62-2.09a.07.07 0 0 0-.08-.03l-.59.12a409.65 409.65 0 0 0-5.53 1.18.17.17 0 0 1-.09.01c-.11 0-.22.01-.31.04-.1.04-.18.06-.24.07-.08 0-.16.02-.24.04a.55.55 0 0 0-.35-.02c-.2.05-.4.09-.6.11-.02 0-.03 0-.03-.03v-.06a.06.06 0 0 1 .05-.06c.44-.07.81-.2 1.12-.36.78-.44 1.59-.8 2.42-1.1.7-.24 1.63-.19 2.53-.24.04 0 .04-.02.01-.04a.4.4 0 0 0-.19-.1 1.8 1.8 0 0 1-.62-.16.06.06 0 0 1-.03-.05v-.04a.03.03 0 0 1 .03-.03h.01c.13.08.27.12.42.12.05 0 .16.03.33.08.15.05.31.02.45.08.06.03.16.05.3.07l.28.05.9.23Z" fill="#A0A0A0"/><path d="M34.63 27.02c.2-.16.32-.29.4-.4l.88-1.32c.33-.5.81-.96 1.14-1.37.12-.14.12-.26.01-.35l-.39-.06c.13-.04.26-.07.4-.07.4-.03.82-.04 1.21-.04a9.88 9.88 0 0 0-1.5 1.36c-.31.4-.55.65-.76 1.02l-.84 1.39c-.03.06-.08.07-.15.04l-.4-.2Z" fill="#5A5A5A"/><path d="m34.63 27.02-.49-.25a.3.3 0 0 1 .13-.03.1.1 0 0 0 .07-.04c.66-.85 1.3-1.72 1.9-2.6.2-.3.52-.35.82-.52.11.1.11.2 0 .35-.34.4-.82.88-1.15 1.37l-.89 1.32c-.07.11-.2.24-.39.4ZM36.92 45.26l.06.31c-.07-.01-.14-.08-.2-.19-.7-1.22-1.21-2.1-1.52-2.67-.02-.03-.04-.03-.08 0l.01-.05a12.52 12.52 0 0 0-1.14-2.16c-.03-.05-.05-.07-.07-.05-.03 0-.06-.01-.08-.04a.43.43 0 0 0-.04-.15c-1.78-3.1-3.6-6.28-5.43-9.53a.12.12 0 0 1-.01-.08l.5-2.55.29-1.22-.01-.02-.02-.03c-.01-.04-.02-.04-.03 0v.05a.18.18 0 0 0-.03-.08.04.04 0 0 0-.06 0 110.96 110.96 0 0 0-3.55 6.01c-.02.04-.01.05.02.03.12-.06.24-.15.38-.27.37-.33.69-.66.96-.98.12-.15.29-.26.52-.33a13.8 13.8 0 0 1-2.46 2.63c-.03.03-.1.1-.18.23a18.27 18.27 0 0 0-.96 1.52h-.01v-.01a.18.18 0 0 1 0-.1 205.09 205.09 0 0 1 1.77-5.73c.16-.32.44-.61.68-.9.02-.02.02-.04-.01-.05l-.05-.02h-.05l-.37.28a.03.03 0 0 1-.03 0v-.09c1.07-.76 2.06-1.5 2.98-2.22a.8.8 0 0 1 .39-.17c.03 0 .06-.02.08-.05.07-.09.09-.22.15-.32a787.04 787.04 0 0 1 1.43-2.22.06.06 0 0 1 .06 0l.02.02c.1.2.17.4.23.62l5.75 20.39c.02.07.06.14.11.2Z" fill="#7B7B7B"/><path d="M41.98 24.38c.26.69.47 1.38.63 2.1.98 4.15-.13 8.6-3.47 11.42-.5.43-1.1.84-1.8 1.25a5.84 5.84 0 0 1-1.2.5.07.07 0 0 1-.04-.04l.02-.04c.8-.31 1.53-.7 2.2-1.18 4.47-3.2 5.47-8.84 3.55-13.78a.27.27 0 0 0 .11-.23Z" fill="#BF6102"/><path d="M32.95 26.16c-.1.01-.14.03-.1.05l.4.27 1.91 1.43a444.05 444.05 0 0 0 3.8 2.9v.02c-.01.03-.02.03-.04.02-.55-.36-1.12-.84-1.57-1.16a158.58 158.58 0 0 1-4.53-3.37c-.05-.03-.08-.07-.08-.1-.02-.04-.03-.05-.04 0-.01.05 0 .1.03.16a82.89 82.89 0 0 1 1.56 3.18h-.07A6.37 6.37 0 0 1 32.45 26c.18.01.34.06.5.16ZM19.8 26.08a.3.3 0 0 0 .13.04c-.37.1-.76.2-1.14.25-.13.02-.22.05-.26.07-.23.11-.53.06-.7.3-.23.3-.48.54-.76.69-.72.39-1.51.73-2.36 1.04-.24.08-.5.13-.78.15-.6.02-1.2.02-1.8-.01-.14-.01-.32.04-.48.04a199.7 199.7 0 0 0-3.27-.1.1.1 0 0 1-.04-.04c.21-.1.4-.17.6-.17 2.3-.45 4.58-.92 6.86-1.4.6-.14 1.5-.28 2.28-.48.38-.1.6-.14.68-.15.22-.02.38-.12.59-.12.14 0 .29-.08.44-.11Z" fill="#5A5A5A"/><path d="m29.14 26.88-.25 1.18c-.33.79-.67 1.57-1.02 2.35-.14.3-.3.58-.48.85-.23.07-.4.18-.52.33-.27.32-.59.65-.96.98-.14.12-.26.21-.38.27-.03.02-.04 0-.02-.03a111.08 111.08 0 0 1 3.59-6.02.04.04 0 0 1 .02.01l.02.08Z" fill="#A0A0A0"/><path d="M28.92 28.1a.13.13 0 0 1-.03-.04l.25-1.18.01-.05c.01-.04.02-.04.03 0 0 .02.01.03.02.03v.02l-.28 1.22Z" fill="#5A5A5A"/><path d="m41.18 22.67 1.84.16c-.15-.07-.24-.14-.28-.22a20.58 20.58 0 0 0-9.52-8.9 19.42 19.42 0 0 0-7.8-1.82l.97 1.53c.66.02 1.13.04 1.4.08 3.06.42 5.82 1.54 8.29 3.35a17.92 17.92 0 0 1 5.1 5.82Z" fill="url(#a)"/><path d="m24.37 11.94-.19-.05-.05.03a.2.2 0 0 1-.08.02c-4.4.35-8.32 2.38-10.71 6.1a13.24 13.24 0 0 0-1.98 8.74l.05.62 2.73-.9c-.32-2.37.02-4.64 1.03-6.8.26-.75.68-1.45 1.29-2.13a11.2 11.2 0 0 1 5.84-3.69c.66-.17 1.34-.3 2.03-.37.06-.06.12-.08.17-.06l-.13-1.51Z" fill="url(#b)"/><path d="M43.42 23.97v-.08a.28.28 0 0 0-.1-.07.1.1 0 0 0-.08 0l-1.26.56c.26.69.47 1.38.63 2.1.98 4.15-.13 8.6-3.47 11.42-.5.43-1.1.84-1.8 1.25a5.83 5.83 0 0 1-1.2.5.07.07 0 0 1-.04-.04l.02-.04a.29.29 0 0 0-.1 0l.01.4a117.93 117.93 0 0 0 .45 2.45c.73-.3 1.31-.6 1.77-.85 5.4-3.13 7.47-9.08 6.01-14.99-.2-.8-.46-1.6-.8-2.44l-.04-.17Z" fill="url(#c)"/><path d="M14.72 28.99c.3 1.04.72 2.02 1.27 2.95a18.07 18.07 0 0 0 9.4 7.78 15.08 15.08 0 0 0 8.17.6c.07.12.18.14.34.09.02.03.05.04.08.04l.64 1.15a8.37 8.37 0 0 0 .57 1.06l-.01.05-.07.03-.01.1.01.08c.17.33.38.71.65 1.16.02.03.02.06 0 .08-.23-.43-.45-.8-.65-1.09-.06-.08-.15-.11-.26-.08-1.06.24-2.15.4-3.27.47a21.94 21.94 0 0 1-2.55-.06l-.55-.07a20.46 20.46 0 0 1-15.9-12c-.18-.4-.47-1.2-.88-2.4a.54.54 0 0 1 .45-.23c.72 0 1.45.01 2.17.03.16 0 .3.09.4.26Z" fill="url(#d)"/><path d="m36.99 45.57.04.32a.1.1 0 0 1-.1.11.1.1 0 0 1-.06-.01c-.09-.05-.14-.11-.15-.18l-.92-1.6-.04-.05c.02-.02.02-.05 0-.08-.26-.45-.48-.83-.65-1.16a.13.13 0 0 1-.01-.09l.01-.09.07-.03c.04-.03.07-.03.08 0l1.52 2.67c.06.11.13.18.2.2Z" fill="#030305"/><defs><linearGradient id="a" x1="39.7" y1="18.11" x2="13.75" y2="35.01" gradientUnits="userSpaceOnUse"><stop offset=".08" stop-color="#D8B46F"/><stop offset=".63" stop-color="#D4B57E"/></linearGradient><linearGradient id="b" x1="39.7" y1="18.11" x2="13.75" y2="35.01" gradientUnits="userSpaceOnUse"><stop offset=".08" stop-color="#D8B46F"/><stop offset=".63" stop-color="#D4B57E"/><stop offset=".83" stop-color="#C09454"/></linearGradient><linearGradient id="c" x1="39.7" y1="18.11" x2="13.75" y2="35.01" gradientUnits="userSpaceOnUse"><stop offset=".08" stop-color="#D8B46F"/><stop offset=".63" stop-color="#D4B57E"/></linearGradient><linearGradient id="d" x1="39.7" y1="18.11" x2="13.75" y2="35.01" gradientUnits="userSpaceOnUse"><stop offset=".08" stop-color="#D8B46F"/><stop offset=".63" stop-color="#D4B57E"/><stop offset=".83" stop-color="#C09454"/></linearGradient></defs></svg>