<!-- by TradingView --><svg width="56" height="56" viewBox="0 0 56 56" xmlns="http://www.w3.org/2000/svg"><path fill="#F0F3FA" d="M0 0h56v56H0z"/><path d="M49.68 25.7h.68a.6.6 0 0 1 .45.2c.13.13.19.28.19.46V31h-1.32v-5.3Zm0-1.7h.68c.18 0 .32.07.45.2s.19.28.19.47V25h-1.32v-1ZM48 24h.63c.18 0 .33.07.46.2s.19.28.19.47V25H48v-1Zm-.6 9v-1h.25c.22 0 .35-.07.35-.26V25.7h.64a.6.6 0 0 1 .46.2c.12.13.18.28.18.46v5.38c0 .44-.12.76-.37.96-.25.2-.67.3-1.25.3h-.25ZM45 31h1.32v-2.8c0-.38.09-.66.27-.85.18-.18.32-.35.69-.35h.43v-1.3h-.19a2.9 2.9 0 0 0-1.7.55c-.25.21-.46.49-.6.83-.14.34-.22.82-.22 1.32V31Zm-3.62-3.25h1.93c-.03-.35-.12-.6-.27-.77-.16-.18-.4-.27-.7-.27-.28 0-.51.09-.68.27a1.1 1.1 0 0 0-.28.77Zm2.26 1.51h.94c-.13.55-.4.96-.8 1.24-.39.3-.88.45-1.47.45-.72 0-1.28-.24-1.68-.72-.4-.47-.61-1.13-.61-2 0-.82.2-1.47.58-1.93.4-.48.96-.71 1.68-.71.76 0 1.35.23 1.76.7.4.46.6 1.13.6 1.98V28.48l-.01.13h-3.27c0 .4.1.7.28.9.16.2.41.3.74.3a1.08 1.08 0 0 0 .65-.2l.1-.1a.55.55 0 0 1 .15-.16c.1-.05.21-.09.36-.09ZM40 31h-.73a.62.62 0 0 1-.64-.66v-2.78c0-.52-.31-.86-.84-.86-.47 0-.79.44-.79.86V31h-1.33v-3.17c0-1.27.82-2.18 2.12-2.25 1.37 0 2.21.87 2.21 2.25V31Zm-9.34 0v-6.31c0-.2.07-.36.2-.5.13-.13.3-.19.48-.19h3.98v1H32v2h2.45v.32c0 .2-.07.36-.2.49a.66.66 0 0 1-.48.19H32v2h3.33v1h-4.67Zm-18.54 0-1.92-7h1.38l1.12 4.9.94-4.9h1.44l.93 4.9 1-4.2c.08-.33.3-.7.66-.7h.84l-1.86 7H15.4l-1.04-5.25L13.34 31h-1.22Zm-2.2-2.45a2.55 2.55 0 0 1-.85 1.82c-.51.42-1.2.64-2.04.64-.99 0-1.73-.3-2.26-.91-.51-.58-.77-1.44-.77-2.57 0-1.16.27-2.03.8-2.62.54-.6 1.32-.91 2.34-.91.83 0 1.5.21 1.99.64.46.41.73 1 .8 1.75H9.1a.66.66 0 0 1-.64-.4c-.09-.17-.2-.32-.33-.45a1.6 1.6 0 0 0-1-.3c-.58 0-1.03.2-1.35.58-.3.4-.45.96-.45 1.7 0 .73.15 1.29.45 1.67.3.4.73.6 1.3.6.41 0 .74-.1 1.01-.3.24-.2.41-.5.52-.94h1.3Zm18.57.7c.04.1 0 .18-.1.18H26.6a.3.3 0 0 1-.26-.19l-.3-.7c-.04-.1.01-.19.1-.19h1.8c.09 0 .2.08.25.18l.29.71Zm-4.83 0c.04.1 0 .18-.1.18h-1.78a.31.31 0 0 1-.26-.19l-.3-.7c-.04-.1 0-.19.1-.19h1.78c.1 0 .22.08.26.18l.3.71Zm2.46 0-.3-.72c-.04-.1-.15-.18-.25-.18h-1.78c-.1 0-.15.08-.1.18l.3.71c.04.1.15.19.25.19h1.78c.1-.01.15-.09.1-.19Zm1.77-1.44c.04.1 0 .19-.1.19H26a.3.3 0 0 1-.25-.19l-.29-.62c-.04-.1 0-.19.1-.19h1.78c.1 0 .21.08.26.19l.28.62Zm-4.83 0c.05.1 0 .19-.1.19h-1.78a.31.31 0 0 1-.25-.19l-.29-.62c-.04-.1 0-.19.1-.19h1.78c.1 0 .21.08.26.19l.28.62Zm-.57-1.36c.04.1 0 .19-.1.19H20.6a.31.31 0 0 1-.26-.19l-.3-.7c-.04-.1 0-.2.1-.2h1.78c.1 0 .21.09.26.2l.3.7Zm3.03 1.36-.28-.62a.3.3 0 0 0-.26-.19h-1.77c-.1 0-.15.08-.1.19l.28.62c.04.1.15.19.26.19h1.77c.1 0 .14-.08.1-.19Zm1.8-1.36c.04.1 0 .19-.1.19h-1.78a.3.3 0 0 1-.26-.19l-.3-.7c-.04-.1 0-.2.1-.2h1.78c.1 0 .21.09.26.2l.3.7Zm-2.38 0-.3-.7c-.04-.1-.15-.2-.26-.2h-1.77c-.1 0-.15.09-.1.2l.3.7c.04.1.15.19.25.19h1.78c.1 0 .14-.08.1-.19Z" fill="#2C8FD5"/></svg>