<!-- by TradingView --><svg xmlns="http://www.w3.org/2000/svg" width="56" height="56"><path fill="#F0F3FA" d="M0 0h56v56H0z"/><path d="M13.5 27.5c0 2.11-1.7 3.5-3.79 3.5H7v-7h2.64c2.09 0 3.86 1.4 3.86 3.5zM9.67 22H5v11h4.62c3.41 0 5.88-2.22 5.88-5.5S13.05 22 9.67 22zm16.35 7h-3.57l1.79-4.41L26.02 29zm1.58 4h2.72l-4.98-11h-2.1l-4.83 11h2.27l.87-2h5.2l.85 2zM49 24h2v-2h-2v2zm0 9h2v-8h-2v8zm-6.17-7.83a4.64 4.64 0 00-3.05-1.2 3.72 3.72 0 00-3.83 3.68c0 2.08 1.69 3.7 3.84 3.7a4.4 4.4 0 002.21-.67V29.5h-1V28h3v3.92a7.63 7.63 0 01-4.33 1.41c-3.34 0-5.95-2.5-5.95-5.68 0-3.22 2.6-5.65 6.06-5.65 1.57 0 3.2.59 4.33 1.56l.12.1-1.26 1.63-.14-.12z"/></svg>