<!-- by TradingView --><svg width="56" height="56" viewBox="0 0 56 56" xmlns="http://www.w3.org/2000/svg"><path fill="#F0F3FA" d="M0 0h56v56H0z"/><path d="M6 20h10.78c3.43 0 6.22 3.04 6.22 6.73v.54c0 3.71-2.81 6.73-6.22 6.73H6V20Zm5 4v6h3c1.76 0 3-1.1 3-3s-1.24-3-3-3h-3Z" fill="#181B1E"/><path fill-rule="evenodd" d="M35 21h10.83A4.3 4.3 0 0 1 50 25.4c0 2.42-1.87 4.6-4.17 4.6H40v5h-5V21Zm5 3h3.5c.86 0 1.5.6 1.5 1.5s-.64 1.5-1.5 1.5H40v-3Z" fill="#181B1E"/><path d="m18 37 7.88-9.76L35.98 40 40 35 28 20 16 34l2 3Z" fill="#E31E26"/><path d="m24 34 5 .95V40l-5-.95V34Z" fill="#E31E26"/></svg>