<!-- by TradingView --><svg xmlns="http://www.w3.org/2000/svg" width="56" height="56"><path fill="#D9232F" d="M0 0h56v56H0z"/><path d="M32.95 30h-2.9l-.88 2H28l3.59-7.5L35 32h-1.2l-.84-2zm-.39-1l-.97-2.27L30.52 29h2.04zM4 25v7h1.45c.73 0 1.31-.05 1.7-.19a3.38 3.38 0 002.35-3.29 3.4 3.4 0 00-2.3-3.3A5.4 5.4 0 005.5 25H4zm3.66 5.36C6.93 31 5.91 31 5 31v-5h.07c.88 0 1.94 0 2.61.62.51.5.82 1.1.82 1.88 0 .78-.3 1.39-.84 1.86zM24 25h-1.5v7h1.45c.73 0 1.31-.05 1.7-.19A3.38 3.38 0 0028 28.52a3.4 3.4 0 00-2.3-3.3A5.4 5.4 0 0024 25zm2.16 5.36c-.73.64-1.75.64-2.66.64v-5h.07c.88 0 1.94 0 2.61.62.51.5.82 1.1.82 1.88 0 .78-.3 1.39-.84 1.86zM11.38 30h2.9l.86 2h1.2l-3.42-7.5L9.33 32h1.17l.88-2zm1.54-3.27L13.9 29h-2.05l1.07-2.27zM19.45 29l2.2 3h-1.33l-2.04-3H18v3h-1v-7h1.45c.95 0 1.43.16 1.87.52.46.4.68.85.68 1.48 0 .5-.12.96-.41 1.34a1.8 1.8 0 01-1.14.66zM18 28h.45c1.02 0 1.55-.3 1.55-1 0-.62-.5-1-1.52-1H18v2zm23 1.72L36 25v7h1v-4.56L42 32v-7h-1v4.72zM47 26h-3v2h3v1h-3v2h3v1h-4v-7h4v1zm2 5v-5.98L48 25v7h4v-1h-3z" fill="#fff"/></svg>