<!-- by TradingView --><svg width="56" height="56" viewBox="0 0 56 56" xmlns="http://www.w3.org/2000/svg"><path fill="#F0F3FA" d="M0 0h56v56H0z"/><path d="m39.45 28.33.55.46c.07.06.15.08.24.07 2.36-.16 4.57.31 6.64 1.42.1.06.14.14.11.25a8.94 8.94 0 0 1-1.61 3.16 12.66 12.66 0 0 1-4.32 3.87c-.63.35-1.14.88-1.72 1.31-1.63 1-3.13 1.28-4.51.87-.2-.58-.93-.83-2.2-.76a.53.53 0 0 1-.27-.05.95.95 0 0 0-.3-.08c-.09-.01-.16.03-.2.12-.85 2.02-2.65 3.23-4.62 3.94a.31.31 0 0 0-.19.17.48.48 0 0 0 .05.47l.01 2.3c0 .1-.04.15-.13.15h-1.64a.15.15 0 0 1-.15-.15v-2.62c.1-.15.12-.29.07-.42-.03-.08-.13-.16-.28-.22a6.66 6.66 0 0 1-3.96-4.85l-.16-.9a.22.22 0 0 0-.16-.19c-.7-.2-1.4-.37-2.1-.54-.46-.11-1.1-.49-1.8-.43a7.29 7.29 0 0 1-4.09-3.16 5.77 5.77 0 0 1-.68-3.08c.09-.36.07-.66-.2-.93A13.81 13.81 0 0 1 9 24.44a.1.1 0 0 1 .07-.1c2-.78 4.05-.94 6.16-.5.22.04.4.04.55-.02.18-.08.34-.19.48-.34a5.4 5.4 0 0 1 2.52-.3c.21.12.4.17.55.15.1 0 .13-.06.08-.15-1.53-2.74-2.1-6.97-.53-9.85a.11.11 0 0 1 .06-.05.1.1 0 0 1 .08 0c1.75.79 3.32 1.84 4.7 3.16a.2.2 0 0 0 .23.04c.11-.05.18-.17.21-.36A10.32 10.32 0 0 1 30 12.36c.76-.18 1.23-.49 2.13-.3 3.61.72 6.2 2.65 7.77 5.79 1.53 3.03.53 7.05-1.44 9.7-.06.08-.05.15.03.2l.97.58Z" fill="#BF9C60"/><path d="M37.75 27.95a5.96 5.96 0 0 1 4.05 5.72 5.93 5.93 0 0 1-1.2 3.54 6.04 6.04 0 0 1-3.87 2.2c-.35.03-.69.09-1 .17a.65.65 0 0 1-.74-.34.67.67 0 0 1-.08-.28c-.04-.85.28-2.18-.53-2.9a.25.25 0 0 0-.15-.07c-.05 0-.1 0-.15.03a27.98 27.98 0 0 0-3.9 2.85.18.18 0 0 1-.17-.05 21.7 21.7 0 0 1-.59-3.72 11.81 11.81 0 0 0-.68-3.02.19.19 0 0 0-.25-.01c-1.85 1.5-2.48 3.76-4.35 5.82a.13.13 0 0 1-.1.04.13.13 0 0 1-.1-.05l-3.13-4.23a.36.36 0 0 0-.23-.14c-.97-.18-1.38.81-1.75 1.6a.4.4 0 0 1-.34.22 5.3 5.3 0 0 1-3.52-1.02c-2.24-1.62-2.9-3.75-2.4-6.41.37-1.97 2.06-3.01 3.68-3.9 2.27-1.22 4.83.42 7.15 1.58a.6.6 0 0 0 .21.06.1.1 0 0 0 .08-.04.1.1 0 0 0 .02-.09 14.99 14.99 0 0 1-.57-5.84c.31-3.02 2.85-5.38 5.6-6.48 1.26-.5 2.37-.7 3.35-.62 3.85.33 7.97 4.08 8.1 8.15a10.39 10.39 0 0 1-2.48 7.16v.03l.02.02.02.02Z" fill="#fff"/></svg>