<!-- by TradingView --><svg xmlns="http://www.w3.org/2000/svg" width="56" height="56"><path fill="url(#ay3v2pjo4)" d="M0 0h56v56H0z"/><path fill-rule="evenodd" d="M47.5 25H44v7h3.5a3.5 3.5 0 100-7zm0 1H45v5h2.5a2.5 2.5 0 000-5zm-39-1H5v7h3.5a3.5 3.5 0 000-7zm0 1H6v5h2.5a2.5 2.5 0 000-5z" fill="#fff"/><path d="M13 25h5v1h-4v2h4v1h-4v2h4v1h-5v-7z" fill="#fff"/><path fill-rule="evenodd" d="M19 25h2.26c.83 0 2.24.5 2.24 1.83 0 .77-.2 1.3-1.19 1.74.23.24.77.87 1.27 1.65L24.82 32H23.8l-.38-.55c-.67-1.01-1.62-2.41-2.15-2.45H20v3h-1v-7zm1 1h1.4c.36 0 1.1.27 1.1 1 0 .77-.7 1-1.1 1H20v-2z" fill="#fff"/><path fill="#fff" d="M25 25h1v7h-1z"/><circle cx="25.5" cy="23.5" r=".75" fill="#fff"/><path d="M27 25h1v7h-1v-7zm6 0h1v7h-1v-5.58L30.52 29 28 26.42V25l2.52 2.58L33 25z" fill="#fff"/><path fill-rule="evenodd" d="M39 32c2.2 0 4-1.57 4-3.5S41.2 25 39 25s-4 1.57-4 3.5 1.8 3.5 4 3.5zm0-1c1.65 0 3-1.12 3-2.5S40.65 26 39 26c-1.66 0-3 1.12-3 2.5s1.34 2.5 3 2.5z" fill="#fff"/><defs><linearGradient id="ay3v2pjo4" x1="10.42" y1="9.71" x2="68.15" y2="76.02" gradientUnits="userSpaceOnUse"><stop stop-color="#1A1E21"/><stop offset="1" stop-color="#06060A"/></linearGradient></defs></svg>