<!-- by TradingView --><svg xmlns="http://www.w3.org/2000/svg" width="56" height="56"><path fill="url(#aua4dm0cu)" d="M0 0h56v56H0z"/><path fill-rule="evenodd" d="M4 33V23h6.08s4.32.3 5.5 3.34c0 0 1.37 3.37-1.52 5.38 0 0-1.08.95-3.8 1.28H4zm3-.17v-9.59s1.39-.1 2.28-.03c0 0 3.4.41 3.7 3.58.25 2.79-.44 5.51-3.25 6.05H7zM18 33V23h10v2h-.26s-.87-1.5-3.7-1.74H21v4.63h1.58s1.66-.08 2.17-1.89H25v4h-.28s-.34-1.77-2.35-1.84H21v4.57h2.78s3.32-.12 4-2.73H28v3H18zm11.55-3h.2s.53 2.22 3.43 2.76c0 0 2.29.33 3.8-.62 0 0 .66-.44.8-1.1 0 0-.01-1-1.34-1.37l-1.92-.49s-3.1-.82-3.53-1.25c0 0-1.61-.82-.93-2.85 0 0 .62-1.7 4.02-1.92 0 0 3.04-.23 4.56.87V26h-.22s-.63-2.26-3-2.6c0 0-2.93-.37-3.93 1.01 0 0-.47.83.74 1.36 0 0 .5.22 3.2.83 0 0 2.59.47 3.7 1.46 0 0 .96.87.34 2.57 0 0-.5 1.27-2.6 1.95 0 0-1.11.62-4.12.35 0 0-2.71-.25-3.2-.48V30zm10.66 3l5.54-10h.45L52 33h-2.99l-2.17-3.81H42.5l-2 3.81h-.29zm6.46-4.05h-4l1.96-3.48 2.04 3.48z" fill="#fff"/><defs><linearGradient id="aua4dm0cu" x1="10.42" y1="9.71" x2="68.15" y2="76.02" gradientUnits="userSpaceOnUse"><stop stop-color="#1A1E21"/><stop offset="1" stop-color="#06060A"/></linearGradient></defs></svg>