<!-- by TradingView --><svg xmlns="http://www.w3.org/2000/svg" width="56" height="56"><path fill="#0095D7" d="M0 0h56v56H0z"/><path d="M5 34l1.35-8h2.3c.68 0 1.27.18 1.78.54.5.36.86.84 1.07 1.46.18.54.24 1.3.17 1.93l-.04.33a4.62 4.62 0 01-.7 1.9 4.02 4.02 0 01-1.42 1.35 3.9 3.9 0 01-1.88.5H5zm2.94-6.54l-.85 5.1h.54c.63 0 1.13-.24 1.51-.73.38-.49.61-1.23.68-2.23l.01-.18c.03-.57-.06-1.2-.27-1.5-.2-.29-.5-.44-.91-.46h-.7zm8.55 3.23H14.2l-.33 1.86h2.87l-.25 1.46h-4.7l1.45-8h4.5l-.25 1.45h-2.66l-.4 1.83h2.3l-.24 1.4zm10.03.31l-.47 3h-1.83l1.35-8 2.81.01c.87 0 1.55.24 2.05.73.5.48.72 1.1.66 1.88-.13 1.61-1.85 2.4-3.29 2.4L26.51 31zm.25-1.45l1.1.01c.76-.02 1.46-.56 1.37-1.36-.06-.44-.35-.7-.8-.73h-1.28l-.4 2.08zm8.72 1.14h-2.02l-.32 1.86h2.6l-.26 1.46h-4.43l1.43-8h4.25l-.25 1.46h-2.41l-.37 1.82h2.02l-.24 1.4zm6.2 3.1a3.81 3.81 0 01-1.65.32 2.57 2.57 0 01-1.93-.79c-.47-.5-.72-1.2-.77-2.06-.03-.59.03-1.22.19-1.9.16-.69.42-1.28.78-1.78.36-.51.78-.9 1.27-1.14a3.3 3.3 0 011.6-.37 2.8 2.8 0 012.03.77l-.72 1.54c-.33-.5-.8-.76-1.41-.78-.97-.03-1.56.66-1.77 2.2-.1.7-.14 1.19-.14 1.49 0 1.06 1.04 1.37 2.02 1.06.45-.15.74-.35.74-.35l-.24 1.78zm-19.74-1.9c.08-.42-.14-.76-.65-.99l-.88-.39c-1.24-.58-1.82-1.38-1.76-2.4.02-.45.17-.86.45-1.22.64-.85 1.75-1.15 2.74-1.14.95.02 2.15.45 2.15.45l-.21 1.59s-.74-.26-1.08-.36a4.27 4.27 0 00-1-.17c-.52-.01-1.14.27-1.23.87-.07.38.2.69.8.93.6.24 1.03.45 1.3.63.86.54 1.26 1.27 1.2 2.19a2.32 2.32 0 01-.43 1.25c-.26.36-.62.64-1.09.84a3.8 3.8 0 01-1.56.28 3.8 3.8 0 01-2.05-.7 3.51 3.51 0 01-.65-.48c0-.02 1-1.21 1-1.21s.52.46 1.12.69c.55.2 1.16.18 1.45-.03a.94.94 0 00.38-.63z" fill="#fff"/><path d="M32.5 23c8-1.5 14.17 3 16.5 5-1.87-2.4-6.66-6.36-12.19-7.13-1.45-.2-2.86-.16-4.31 0-6.1.66-13.04 2.93-22 1.63 6 2 14.44 1.92 22 .5zM43 18c1.46-2.19 6-.33 8 1-10-2.8-6.3 3.5-3.3 7-1.7-1.5-6.3-5.6-4.7-8z" fill="#682F90"/><path d="M45 20c0-1.22 2-1.6 3.5-1.1-4 0-2.33 4.43-1 6.6-.83-1.33-2.5-3-2.5-5.5zm-9 3c-2.91 0-8 1.5-15.5 1.5 0 0 7.7.84 14.5.12.9-.1 1.78-.23 2.69-.23 4.09.02 6.83 2.03 6.81 2.11-1 3.5-1.06 7.5-1 7.5.05 0 .37-2.81 1.94-4.6.38-.44.86-.88 1.42-1.07A1.68 1.68 0 0149 29.5v-1C46.5 26 41.14 23 36 23z" fill="#fff"/></svg>