<!-- by TradingView --><svg width="56" height="56" xmlns="http://www.w3.org/2000/svg"><path fill="#FFC358" d="M0 0h56v56H0z"/><path d="M30.043 17.082c.776-.235 1.277.114 1.354.341.377.755.097 1.216-.162 1.39l-.751.398c-7.313 3.745-14.97 9.826-14.97 13.75 0 1.914 1.248 1.752 1.43 1.59.144-.13.596-.26.804-.308l1.397-.438c1.451-.169 6.114-2.47 8.524-3.66.838-.415 1.403-.694 1.467-.702.246-.033.263.08.23.275-.026.156-.734.746-1.085 1.022-1.406.714-2.152 1.887-2.35 2.384-.383.384-1.275 1.206-1.774 1.427-.5.22-.537.427-.493.502.368.1 1.04-.04 1.33-.123 5.213-1.448 15.639-7.085 16.45-10.227.65-2.513-.915-3.347-1.779-3.45-2.174-.462-6.623-1.41-7.023-1.509-.4-.098-.488-.35-.478-.463h-.001c.179-.281.638-.47.9-.538 1.582-.192 4.848-.577 5.253-.577.405 0 1.025.384 1.284.576 3.643 2.151 4.45 4.84 4.398 5.915-.39 7.91-17.006 12.75-19.808 13.249-2.242.4-5.163-.474-6.344-.96-.869.422-3.339 1.405-6.265 1.958-2.927.553-3.606-1.536-3.58-2.65.934.523 2.075.372 2.53.23l4.397-1.535c-1.059-1.874-1.09-3.316-.973-3.802.311-7.066 14.964-13.724 16.088-14.065zm-3.128 7.264a1.514 1.514 0 00-1.13.31l-1.039.842c-.38.297-1.63 1.628-1.649 3.072-.019 1.445 1.02 1.92 2.039 1.83 1.019-.092 2.89-.494 4.892-3.274l1.372-1.793c.229-.305.203-.707 0-.841-.157-.103-.464.018-.797.366-.334.347-3.225 3.017-4.54 3.365-.089.023-.192.067-.298.112-.23.097-.476.2-.63.126-.286-.14.303-.53.65-.75.691-.402 1.9-1.387 1.816-2.213-.086-.841-.285-1.006-.686-1.152z" fill="#000"/></svg>