<!-- by TradingView --><svg width="56" height="56" xmlns="http://www.w3.org/2000/svg"><path fill="#FB1742" d="M0 0h56v56H0z"/><path d="M32.663 28.8c1.988 2.6 5.567 3 8.15 1.2l.796 1.2c-3.181 2-7.555 1.401-9.94-1.6l.994-.8zm1.988-1.2c1.392 1.2 3.38 1.4 4.77.4l.796 1c-2.187 1.4-4.97 1-6.56-.8l.994-.6zm4.175-.6c-.994.6-2.187.6-2.982-.2.795-.6 2.187-.6 2.982.2zm-8.946 2.2c.199.2.199.4.397.6 2.585 4 7.952 5 11.928 2.4l.795 1c-4.573 3-10.736 1.8-13.718-2.8-1.391-2-1.988-4.6-1.59-6.8L29.48 11l6.56 9.6c1.193 1.8.597 4-.993 5.2l-5.168 3.4zm4.374-4.4c1.193-.8 1.59-2.4.795-3.4l-4.771-7.2-1.392 9.6c-.2 1.4 0 3 .597 4.4l4.77-3.4zm-8.747 9c1.391 2.8.596 6.2-1.988 8l.596 1c3.38-2 4.175-6.4 2.386-9.8l-.994.8zm-2.187 1.4c.795 1.6.397 3.6-1.193 4.6l.596 1c2.187-1.4 2.783-4.2 1.789-6.4l-1.192.8zm-1.79 3.6c.795-.6 1.193-1.8.795-3-.993.8-1.192 2-.795 3zm5.368-7.4c0 .2.199.2.398.4 2.584 4 1.59 9.4-2.386 12.2l.597 1c4.572-3.2 5.765-9.2 2.783-13.8-1.392-2.2-3.58-3.6-5.964-4L10 24l6.56 9.8c1.194 1.8 3.579 2.2 5.17 1l5.168-3.4zm-.994-1l-4.771 3.4c-1.193.8-2.783.4-3.578-.6L12.982 26l9.145 2.4c1.391.2 2.783 1 3.777 2z" fill="#fff"/></svg>