<!-- by TradingView --><svg xmlns="http://www.w3.org/2000/svg" width="56" height="56"><path fill="#B30647" d="M0 0h56v56H0z"/><path d="M27 10v6.3l5.31 6.75a2 2 0 10-.17-1.8l-1.32-1.68a4 4 0 11-.18 4.6L25 17v-4.42l-2 1V12.2l4-2.2zm-.79 14.4a4 4 0 11-.08-4.9L32 27v5.12a7 7 0 110 9.8v2.09h-3v-2.25l1-.58V27.69l-3.29-4.2v.01l-2.09-2.67a1.97 1.97 0 00-.09-.12l-.03-.04a2 2 0 10.38 2.02l1.33 1.7zM24 26.45v5.64a7 7 0 100 9.8V44h3v-2.25l-1-.58v-3.93a7.18 7.18 0 000-.48v-9.3l1.73-.77-1.16-1.44L24 26.46zM19.03 32A5.02 5.02 0 0124 36.28v1.44A5.02 5.02 0 0114 37c0-2.76 2.25-5 5.03-5zM37 32a5 5 0 00-5 4.97v.05A5 5 0 1037 32zm-8-14v-8l4 2.08v1.31l-2-.95v4.34L29 18z" fill="#fff"/></svg>