<!-- by TradingView --><svg width="56" height="56" viewBox="0 0 56 56" xmlns="http://www.w3.org/2000/svg"><path fill="#F0F3FA" d="M0 0h56v56H0z"/><path d="M43 28a15 15 0 1 1-30 0 15 15 0 0 1 30 0Z" fill="#FCECD8"/><path fill-rule="evenodd" d="M19.93 24.28a4.54 4.54 0 0 0-1.5-.28 2658.39 2658.39 0 0 0-3.43.02V32l.03.01h3.1c.64 0 1.3-.09 1.9-.34 1.13-.48 1.74-1.54 1.9-2.82.07-.52.09-1.02.05-1.52a4.41 4.41 0 0 0-.28-1.3 2.95 2.95 0 0 0-1.77-1.74Zm-1.49 1.64a5.24 5.24 0 0 0-1.05-.03v4.21c0 .02 0 .02.02.02.7.02 1.51.01 1.92-.75.11-.22.19-.46.23-.74.05-.4.06-.83.01-1.28-.07-.8-.38-1.3-1.13-1.43Z" fill="#B12735"/><path d="M32 24.04V32l-.03.01H30v-3.64c0-.2.01-.62.07-1.27l.02-.2h-.02l-.06.26-1.2 4.83-.02.02h-1.55c-.02 0-.04-.01-.04-.03l-1.26-5.07h-.01c.04.49.05.95.07 1.46V32h-1.99l-.01-.02V24h2.75l.03.01 1.2 4.9c.01.02.02.02.03 0l.8-3.28.41-1.62V24h.01l.02-.01h2.71l.03.01.01.03Z" fill="url(#a)"/><path d="M39.53 24.29a4.45 4.45 0 0 0-1.19-.26 8.18 8.18 0 0 0-.62-.03 15199.07 15199.07 0 0 0-3.71 0l-.01.03v7.96l.03.01h2.39a.02.02 0 0 0 0-.02v-2.74c0-.02.01-.03.02-.03.4-.01.76 0 1.1.02.2.02.37.07.55.17.17.13.27.32.3.54.03.23.04.43.04.62 0 .38.01.7.04.98.02.18.04.32.07.44l.03.02h2.4l.02-.01.01-.02v-.2c0-.02-.01-.03-.03-.03-.2 0-.21-.34-.22-.51L40.74 30c0-.22-.04-.46-.1-.7-.15-.61-.51-.85-1.05-1.05a.08.08 0 0 1-.04-.02v-.02c.71-.22 1.1-.85 1.17-1.63.06-.59-.02-1.33-.4-1.77-.2-.24-.47-.41-.8-.53Zm-2 1.59c.3 0 .55.08.75.23.17.18.24.41.21.7-.05.54-.51.59-.91.63l-.1.01h-1.05a.02.02 0 0 1 0-.02v-1.55h1.1Z" fill="url(#b)"/><path fill-rule="evenodd" d="M28 43.92a15.92 15.92 0 1 0 0-31.84 15.92 15.92 0 0 0 0 31.84ZM28 45a17 17 0 1 0 0-34 17 17 0 0 0 0 34Z" fill="#B12735"/><defs><linearGradient id="a" x1="31.23" y1="24.9" x2="24.41" y2="29.33" gradientUnits="userSpaceOnUse"><stop stop-color="#DA433D"/><stop offset="1" stop-color="#AF2635"/></linearGradient><linearGradient id="b" x1="35.35" y1="24.9" x2="40.22" y2="31.62" gradientUnits="userSpaceOnUse"><stop stop-color="#D7413C"/><stop offset="1" stop-color="#B92D36"/></linearGradient></defs></svg>