<!-- by TradingView --><svg width="56" height="56" xmlns="http://www.w3.org/2000/svg"><path fill="url(#paint0_linear)" d="M0 0h56v56H0z"/><path d="M16 28.459C16 26.565 17.565 25 19.459 25 21.435 25 23 26.565 23 28.459A3.515 3.515 0 0119.459 32C17.565 32 16 30.436 16 28.459z" fill="#DB1F2C"/><path d="M20 24V13h-3v8.17c-2.933 1.065-5 3.818-5 7.193C12 32.626 15.467 36 19.733 36H20v-3h-.547C16.875 33 15 30.938 15 28.451 15 25.877 16.889 24 19.467 24H20z" fill="#fff"/><path d="M13 19.05c-3.182 2.077-5 5.599-5 9.572C8 34.943 13.09 40 19.454 40H20v-3h-.546C14.727 37 11 33.408 11 28.622c0-3.522 1.91-6.592 5-7.856V13h-3v6.05zm10 19.88v-4.86h.806c.603 0 .789.62.789 2.272 0 2.041-.086 2.589-1.09 2.589H23zM24.007 40c.2 0 .502 0 .702-.195.903-.583.903-2.236.903-3.597 0-1.166-.1-1.944-.3-2.43-.302-.584-.803-.778-1.105-.778H22v7h2.007zm4.996 0v-1H27v-2h2v-1h-2v-2h2.003v-.998H26V40h3.003zm1.657-.002v-6.316l1.01 6.316h.642l1.01-6.316v6.316h.917v-6.996h-1.56l-.459 3.206c-.091.486-.183.972-.183 1.652-.092-.583-.092-1.069-.184-1.652l-.55-3.206h-1.56v6.996h.918zM35 40h1v-6.696h-1V40zm0-7h1v-.998h-1V33zm5.11 2.212c0-.645 0-2.21-1.56-2.21-1.009 0-1.55.644-1.55 1.75 0 .368.083.736.266 1.012.459.737 1.01 1.013 1.56 1.566.275.184.367.46.367.829 0 .552-.183.828-.55.828-.55 0-.642-.46-.642-1.105v-.368h-1.01v.46c0 1.197.459 2.026 1.652 2.026.917 0 1.56-.645 1.56-1.934 0-.552-.092-1.013-.46-1.381-.275-.368-.825-.829-1.192-1.105-.275-.276-.55-.46-.55-.92 0-.461.275-.645.55-.645.55 0 .55.644.55 1.197h1.01zm1.678 4.786L42.104 38h.962l.3 1.998h.965l-1.053-6.996h-1.315l-1.14 6.996h.965zm.789-6.219L43.015 37h-.79l.352-3.22zm2.946 7.986c.184.093.367.186.459.186.589.12 1.162-.037 1.187-.676 0-.486-.305-.719-.82-.719l.275-.584-.367.026-.367.837.092.093c.275-.16.642-.024.642.266 0 .254-.184.385-.367.385-.184 0-.367-.093-.55-.186l-.184.372z" fill="#fff"/><path d="M47.817 35.212c0-.645.091-2.21-1.468-2.21-1.01 0-1.56.644-1.56 1.75 0 .368.091.736.275 1.012.367.737 1.01 1.013 1.56 1.566.183.184.367.46.367.829 0 .552-.184.828-.643.828-.458 0-.55-.439-.55-1.105v-.368h-1.01v.46c0 1.197.46 2.026 1.56 2.026 1.01 0 1.652-.645 1.652-1.934 0-.552-.092-1.013-.459-1.381-.275-.368-.825-.829-1.192-1.105-.276-.276-.55-.46-.55-.92 0-.461.183-.645.55-.645.55 0 .55.644.55 1.197h.918z" fill="#fff"/><defs><linearGradient id="paint0_linear" x1="10.418" y1="9.712" x2="68.147" y2="76.017" gradientUnits="userSpaceOnUse"><stop stop-color="#1A1E21"/><stop offset="1" stop-color="#06060A"/></linearGradient></defs></svg>