<!-- by TradingView --><svg xmlns="http://www.w3.org/2000/svg" width="56" height="56" viewBox="0 0 56 56"><path fill="#F0F3FA" d="M0 0h56v56H0z"/><path d="M14.5 23.25a1.25 1.25 0 1 1-2.5 0 1.25 1.25 0 0 1 2.5 0zm0 1.75v7H12v-7h2.5zM11 23H8.5v5.5a1 1 0 1 1-.5-.87v-2.59a3.5 3.5 0 0 0-4 3.45 3.5 3.5 0 0 0 3.51 3.48A3.5 3.5 0 0 0 10.98 29H11v-.12a3.5 3.5 0 0 0 0-.77V23zm15.5 9c.17 0 .34-.01.5-.04v-2.61a1 1 0 0 1-1.5-.86 1 1 0 0 1 .99-1.01 1 1 0 0 1 .99 1.12v3.37h2.5V28.9l.02-.39a3.5 3.5 0 1 0-3.5 3.5zM16 28a3 3 0 0 1 6 0v4h-2.5v-3.97a.51.51 0 0 0-.5-.53c-.28 0-.5.24-.5.53V32H16v-4zm15 .13a3.13 3.13 0 0 1 5.01-2.5 3.13 3.13 0 0 1 5.01 2.5V32H38.5v-3.93c0-.32-.28-.57-.62-.57-.3 0-.56.2-.62.46V32h-2.5v-3.93c0-.32-.29-.57-.63-.57-.35 0-.63.25-.63.57V32H31v-3.87zm11.75-3.63a1.25 1.25 0 1 0 0-2.5 1.25 1.25 0 0 0 0 2.5zM45 23h2.5v9H45v-9zm2.5 4.68L49.05 25h3.03l-1.55 2.68H47.5zm5 4.32h-2.97l-1.99-4.32h2.97L52.5 32zM44 32v-7h-2.5v7H44z" fill="#E3010F"/></svg>