<!-- by TradingView --><svg width="56" height="56" xmlns="http://www.w3.org/2000/svg"><path fill="url(#paint0_linear)" d="M0 0h56v56H0z"/><path d="M14.985 22.187c-.365-3.438-3.739-3.182-3.739-3.182L9 19v1h1v5H9v.995l2.616.005c1.35-.024 2.093-.675 2.093-.675 1.525-1.162 1.276-3.138 1.276-3.138zm-1.897 2.403S12.676 25 11 25v-5s2.425-.38 2.916 1.87c0 0 .448 1.64-.828 2.72z" fill="#fff"/><path d="M19.302 19.01c1.596-.12 2.777.888 3.21 1.658 1.334 2.364-.268 4.869-2.402 5.278a3.45 3.45 0 01-2.247-.371c-.687-.392-1.253-.93-1.568-1.696-1.027-2.504.786-4.703 3.007-4.87zM19.5 25a2.5 2.5 0 100-5 2.5 2.5 0 000 5zm23.802-5.99c1.596-.121 2.777.888 3.21 1.657 1.334 2.365-.268 4.87-2.403 5.279-.846.162-1.706-.065-2.245-.372-.688-.39-1.254-.929-1.569-1.696-1.027-2.503.786-4.702 3.007-4.869zM43.5 25a2.5 2.5 0 100-5 2.5 2.5 0 000 5z" fill="#fff"/><path d="M35.93 38.177c-1.667-1.218-4.277-.324-4.277-.324l-5.35 1.593s-2.37.712-3.801 1.129c-.613.178-1.07.291-1.07.291-2.11.409-2.715-.875-2.715-.875-.718-1.303.424-2.142.424-2.142 1.288-.799 2.006.162 2.006.162.29.419.15.909.15.909l1.787-.556c-1.198-1.516-.574-2.734-.574-2.734 1.492 2.112 3.294 1.799 3.294 1.799 2.45-.177 2.865-2.719 2.865-2.719.374.925.978 1.592.978 1.592.973 1.188 2.575 1.041 2.575 1.041 1.408-.106 2.066-1.37 2.066-1.37.968-1.652.115-3.37.115-3.37-1.318-2.654-4.452-2.532-4.452-2.532l-.708-1.684c.27-1.39 1.322-1.506 1.322-1.506.47-.07.395.162.395.162-.52.556-.315 1.31-.315 1.31.52 1.44 1.927.924 1.927.924 1.397-.506 1.043-1.885 1.043-1.885-.465-1.612-2.096-1.532-2.096-1.532-1.857.122-2.496 1.961-2.496 1.961l-1.036-2.653c1.038-.708 1.515-1.233 1.515-1.233 1.328-1.44.874-3.129.874-3.129-.405-2.021-1.832-1.799-1.832-1.799-1.842.126-2.99 2.254-2.99 2.254-.693 1.405-.648 2.618-.648 2.618a7.895 7.895 0 00.344 2.32c-1.572 1.076-2.48 2.062-2.48 2.062-1.602 1.49-1.398 3.71-1.398 3.71.07 1.89.794 3.098.794 3.098-.34.627-.494 1.865-.494 1.865-1.208-.506-2.306.116-2.306.116-1.861 1.072-1.243 3.129-1.243 3.129.435 1.723 2.007 2.37 2.007 2.37 1.651.743 3.323.136 3.323.136l3.09-.94 4.82-1.42c2.102-.687 2.8-.738 2.8-.738 2.366-.339 2.596 1.036 2.596 1.036.215.93-.879 1.507-.879 1.507-1.082.535-1.722.166-1.722.166-.549-.364-.359-.687-.359-.687a.774.774 0 00-.005-.44c-.254-.576-.868-.369-.868-.369-1.028.334-.53 1.334-.53 1.334.515.93 1.982.865 1.982.865 2.695-.147 2.95-2.143 2.95-2.143.314-1.648-1.398-2.679-1.398-2.679zm-1.735-4.763s.417 1.652-.87 1.973c0 0-.934.359-1.677-1.23l-1.524-3.589s3.4.028 4.071 2.846zm-5.906.407s.32.697-.419 1.329c0 0-.858.621-1.822-.394 0 0-.783-.769-1.402-2.629 0 0 1.233-.975 2.395-1.248l1.248 2.942zm-1.272-12.888s.065-.915.674-1.304c0 0 .524-.42.898.419 0 0 .52.875.539 2.356 0 0 .05 1.238-.674 1.824l-.64.455s-.837-1.704-.797-3.75zm-1.632 5.72s.296.832.63 1.699a56.37 56.37 0 00.852 2.062c-.938.233-2.425 1.228-2.425 1.228-.325-.642-.535-1.536-.535-1.536-.679-2.353 1.478-3.452 1.478-3.452z" fill="#fff"/><path d="M35.502 26a3.5 3.5 0 003.163-2h-1.163a2.5 2.5 0 110-3h.79v-2h-1.048v.463A3.5 3.5 0 1035.502 26z" fill="#fff"/><defs><linearGradient id="paint0_linear" x1="10.418" y1="9.712" x2="68.147" y2="76.017" gradientUnits="userSpaceOnUse"><stop stop-color="#1A1E21"/><stop offset="1" stop-color="#06060A"/></linearGradient></defs></svg>