<!-- by TradingView --><svg width="56" height="56" viewBox="0 0 56 56" xmlns="http://www.w3.org/2000/svg"><path fill="#F0F3FA" d="M0 0h56v56H0z"/><path d="M33.22 20.89a4.36 4.36 0 0 0-4.13 3.62c-.06.3-.09 1.12-.1 2.43l.01 8.03c0 .02 0 .03-.02.03h-.95l-.02-.01v-9.91a5.29 5.29 0 0 1 4.6-5.01c.31-.05.76-.07 1.35-.07.03 0 .04.02.04.04v.81l-.01.02h-.02l-.02.01h-.73Z" fill="#085AB1"/><path d="M30.4 26.4c0 .02 0 .03.02.04l.03.02h3.48a.07.07 0 0 1 .05.02.07.07 0 0 1 .02.05v.75c0 .04-.02.07-.07.07h-3.46c-.04 0-.07.02-.07.07v7.56l-.01.02h-.84c-.03 0-.04-.01-.04-.04V25.8c0-.73.06-1.26.18-1.6.66-1.78 2.41-2.65 4.29-2.47.01 0 .02 0 .02.02v.81a.03.03 0 0 1-.01.03.04.04 0 0 1-.03 0c-1.5-.08-2.8.43-3.37 1.77-.23.57-.2 1.4-.19 2.04Z" fill="#085AB1"/><path d="m32.2 24.93-.01.02a.04.04 0 0 0 .02.04h1.7c.06 0 .08.03.08.1v.84c0 .04-.02.07-.06.07h-2.88c-.03 0-.04-.02-.05-.05-.05-1.23.47-2.05 1.56-2.44.3-.1.71-.15 1.27-.13.11 0 .17.07.17.19v.66c0 .13-.06.18-.19.17-.6-.09-1.25 0-1.62.53ZM51 24v.96c0 .04-.05.1-.09.1-1.82.08-3.21 1.1-3.76 3.13a9.2 9.2 0 0 0-.15 2.14v4.63l-.01.03-.03.01h-.91l-.03-.01-.01-.03V30.7a12.9 12.9 0 0 1 .14-2.48 5.31 5.31 0 0 1 2.34-3.54A4.38 4.38 0 0 1 51 24Z" fill="#085AB1"/><path d="M51 26v.9c0-.02 0 .01 0 0-.42.05-.7.1-.85.15-.85.3-1.3.8-1.57 1.66-.1.32-.15.87-.14 1.55v4.71c0 .02-.01.03-.03.03h-.85l-.02-.01v-.03l-.03-4.22c0-1.1.07-1.86.2-2.3a3.34 3.34 0 0 1 3.3-2.45Z" fill="#085AB1"/><path d="M51 27.63v.77c0 .04-.05.09-.08.1-.75.03-.92.47-.92 1.3a802.25 802.25 0 0 1-.02 5.19l-.02.01h-.91c-.03 0-.05-.01-.05-.04v-5c0-.5.06-.89.15-1.15.25-.64.74-1.04 1.5-1.18a.72.72 0 0 1 .35 0ZM31.95 35h-.9l-.04-.01-.01-.03v-6.92a.04.04 0 0 1 .01-.03h.02l.02-.01h2.9a.05.05 0 0 1 .04.01v.02l.01.01v.93c0 .03-.04.03-.06.03h-1.9l-.03.02-.01.03v5.9c0 .02 0 .03-.02.04l-.03.01ZM10 25.02v-.89a5.63 5.63 0 0 0-4.35 1.46c-1.8 1.64-2.25 5.05-.73 7.1a5.72 5.72 0 0 0 8.98.27 4.89 4.89 0 0 0 1.1-3.64v-8.3c0-.01 0-.02-.03-.02h-.94l-.02.01-.01.03V30c0 1.49-.9 2.87-2.17 3.52a5.52 5.52 0 0 1-4.72 0c-1.89-.85-2.7-3.33-2.08-5.4.65-2.2 2.9-3.29 4.97-3.11Z" fill="#085AB1"/><path d="M10 25.8a3.87 3.87 0 0 0-3.48 1.44 4.2 4.2 0 0 0-.14 4.8 3.99 3.99 0 0 0 6.16.31c.63-.71.95-1.61.95-2.7v-8.62l-.01-.02-.03-.01h-.87c-.02 0-.03.01-.03.03v8.49c0 .55-.04.95-.14 1.22a3.02 3.02 0 0 1-4.6 1.48c-2-1.36-1.5-4.55.66-5.35.5-.18 1-.24 1.53-.17v-.9Z" fill="#085AB1"/><path d="M10 27.5c-.52-.07-1 .01-1.46.24-1.6.83-1.65 3.27-.06 4.14 1.32.73 3.06.07 3.43-1.47.05-.23.09-.84.09-1.83v-7.55l-.01-.02-.02-.01h-.94c-.02 0-.03.01-.03.03v8.41c0 .27-.02.47-.03.6-.16 1.43-1.98 1.7-2.64.51-.28-.5-.18-1.36.21-1.73.43-.4.92-.54 1.46-.41v-.9ZM41.95 30.75v.07l.03.02H42l1.36-.57a.02.02 0 0 1 .02.01l.3.77a.05.05 0 0 1-.03.06 5.75 5.75 0 0 1-3.62.69.07.07 0 0 1-.03-.07l.02-.03 4.1-5.04c.02-.03.02-.06 0-.1-1.96-1.87-4.72-2.29-6.9-.65-2.83 2.11-2.14 6.22.92 7.61 1.97.9 4.3.68 6.22-.25.03-.01.06 0 .07.03l.27.7a.1.1 0 0 1 0 .09.1.1 0 0 1-.05.05c-1.4.65-2.82.93-4.27.84-2.31-.14-4.51-1.25-5.43-3.53a5.38 5.38 0 0 1 3.64-7.23 6.3 6.3 0 0 1 6.67 2.3c.02.02.03.05.03.08s-.01.05-.03.08l-3.32 4.07Z" fill="#085AB1"/><path d="m43.92 31.8.25.67c.02.03.02.06 0 .1a.13.13 0 0 1-.06.06c-1.77.93-4.14 1.22-5.91.14a3.77 3.77 0 0 1-1.9-3.82c.09-1.04.66-1.98 1.48-2.56 1.8-1.28 3.8-1.05 5.5.3.02.02.02.03 0 .05l-.52.64c-.02.02-.03.02-.05.01-1.62-1.26-3.4-1.3-4.86.14a2.7 2.7 0 0 0-.7 2.06c.18 2.18 2.17 3.1 4.07 2.94 1-.08 1.85-.34 2.57-.77.06-.03.1-.02.13.05Z" fill="#085AB1"/><path fill-rule="evenodd" d="M42.2 28.05c.05-.06.05-.1 0-.15-.93-.71-2.18-1.06-3.2-.42-.88.56-1.5 1.8-.96 2.82.28.54.7.94 1.27 1.21a.08.08 0 0 0 .1-.02l2.8-3.44Zm-3 2.27 1.67-2.05c.03-.04.03-.07-.02-.09-.74-.27-1.33-.12-1.79.45-.48.6-.46 1.17.09 1.69a.04.04 0 0 0 .03.01.04.04 0 0 0 .03-.01ZM27 29.49c0-3-2.51-5.5-5.5-5.49-3 0-5.5 2.51-5.5 5.51s2.51 5.5 5.5 5.49c3 0 5.5-2.51 5.5-5.51Zm-1 .02c0-2.51-2-4.5-4.5-4.51a4.48 4.48 0 0 0-4.5 4.5c0 2.5 2 4.5 4.5 4.5 2.48 0 4.5-1.98 4.5-4.49Z" fill="#085AB1"/><path fill-rule="evenodd" d="M25.22 31.03a4.05 4.05 0 0 0-3.73-5.57 4.01 4.01 0 0 0-4.01 4.06 4.04 4.04 0 0 0 5.57 3.7 4.02 4.02 0 0 0 2.17-2.19Zm-1.51.65a3.03 3.03 0 0 0-1-5 3.2 3.2 0 0 0-3.42.65 3.03 3.03 0 0 0 1 5 3.2 3.2 0 0 0 3.42-.65Z" fill="#085AB1"/><path d="M23.27 31.26a2.5 2.5 0 1 0-3.55-3.52 2.5 2.5 0 0 0 3.55 3.52Zm-.2-1.75c0 .83-.7 1.5-1.58 1.5-.87-.01-1.57-.69-1.56-1.52 0-.83.7-1.5 1.58-1.49.87 0 1.57.68 1.56 1.51Z" fill="#085AB1"/></svg>