<!-- by TradingView --><svg width="56" height="56" viewBox="0 0 56 56" xmlns="http://www.w3.org/2000/svg"><path fill="url(#a)" d="M0 0h56v56H0z"/><path d="M18.97 31.03c-.77.91-1.54.97-2.82.97h-10c-.02 0-.04 0-.06-.02a.14.14 0 0 1-.07-.07L6 31.86v-7.71a.13.13 0 0 1 .04-.1.14.14 0 0 1 .05-.03l.05-.02h9.7c1.09-.02 2.12-.02 2.87.68 1.68 1.56 1.67 4.57.26 6.35ZM8 26.17v3.65c0 .05.02.1.06.13.03.03.08.05.13.05h8.36c.94 0 1.45-.55 1.45-1.45v-.8c0-.9-.5-1.75-1.44-1.75H8.19c-.05 0-.1 0-.13.04-.03.03-.06.08-.06.13ZM28.98 24l5.82.03a.16.16 0 0 1 .16.16l.03 2.56.01 5.14c0 .03-.01.06-.03.08a.12.12 0 0 1-.09.03H21.12a.12.12 0 0 1-.09-.03.12.12 0 0 1-.03-.09V24.2c0-.04.02-.08.05-.11a.17.17 0 0 1 .12-.05l7.8-.03ZM23 30.06c0 .05.03.1.06.13a.2.2 0 0 0 .13.05c.1 0 .56-.04 1.38-.15.95-.12 1.92-.18 3.42-.18 1.51 0 2.5.07 3.44.18.82.11 1.28.16 1.38.15a.2.2 0 0 0 .13-.05.19.19 0 0 0 .06-.12v-4.13a.19.19 0 0 0-.06-.12.2.2 0 0 0-.13-.05c-.1-.01-.55.04-1.37.14-.95.12-1.94.18-3.45.18-1.5 0-2.47-.06-3.42-.18-.82-.1-1.28-.16-1.38-.15a.2.2 0 0 0-.13.06.2.2 0 0 0-.06.12v4.12ZM49.83 24c.04 0 .09.04.12.07a.2.2 0 0 1 .05.12V26H36.24c-.03 0-.07 0-.1-.02a.23.23 0 0 1-.07-.06.29.29 0 0 1-.07-.19v-1.5c0-.06.02-.12.06-.16a.2.2 0 0 1 .14-.07h13.63ZM38.16 29s-.15.07-.16.2v2.66a.14.14 0 0 1-.08.13.14.14 0 0 1-.06.01h-1.72a.14.14 0 0 1-.1-.04.14.14 0 0 1-.04-.1V27h13.9c.03 0 .06.02.07.04.02.01.03.04.03.06v1.82c0 .02 0 .04-.02.06a.08.08 0 0 1-.06.02H38.16Z" fill="#FCF5FB"/><defs><linearGradient id="a" x1="49.9" y1="9.08" x2="9" y2="50.41" gradientUnits="userSpaceOnUse"><stop stop-color="#2312F7"/><stop offset="1" stop-color="#ED0189"/></linearGradient></defs></svg>