<!-- by TradingView --><svg xmlns="http://www.w3.org/2000/svg" width="56" height="56" viewBox="0 0 56 56"><path fill="#F0F3FA" d="M0 0h56v56H0z"/><path d="M11 27H7.4a.4.4 0 0 0-.4.4v.2c0 .22.18.4.4.4h3.2c.77 0 1.4.63 1.4 1.4v.2c0 .77-.63 1.4-1.4 1.4H6a1 1 0 0 1 1-1H6h4.6a.4.4 0 0 0 .4-.4v-.2a.4.4 0 0 0-.4-.4H7.4A1.4 1.4 0 0 1 6 27.6v-.2c0-.77.63-1.4 1.4-1.4H12a1 1 0 0 1-1 1zM36.6 26H32v5h1v-4h3.6c.22 0 .4.18.4.4v2.2a.4.4 0 0 1-.4.4h-3.14c0 .5.34.9.8 1h2.34c.77 0 1.4-.63 1.4-1.4v-2.2c0-.77-.63-1.4-1.4-1.4zM29.6 26H25a1 1 0 0 0 1 1h3.6c.22 0 .4.18.4.4v.6h-3.6c-.77 0-1.4.63-1.4 1.4v.2c0 .77.63 1.4 1.4 1.4H31h-1a1 1 0 0 0-1-1h-2.6a.4.4 0 0 1-.4-.4v-.2c0-.22.18-.4.4-.4H30v1a1 1 0 0 0 1 1v-3.6c0-.77-.63-1.4-1.4-1.4zM14.4 26c-.77 0-1.4.63-1.4 1.4v2.2c0 .77.63 1.4 1.4 1.4h4.55a1 1 0 0 1-.95-1h-3.6a.4.4 0 0 1-.4-.4v-2.2c0-.22.18-.4.4-.4h3.2c.22 0 .4.18.4.4v.2a.4.4 0 0 1-.4.4h-2.1a1 1 0 0 0-1 1h3.1c.77 0 1.4-.63 1.4-1.4v-.2c0-.77-.63-1.4-1.4-1.4h-3.2zM40.4 26c-.77 0-1.4.63-1.4 1.4v2.2c0 .77.63 1.4 1.4 1.4h4.55a1 1 0 0 1-.95-1h-3.6a.4.4 0 0 1-.4-.4v-2.2c0-.22.18-.4.4-.4h3.2c.22 0 .4.18.4.4v.2a.4.4 0 0 1-.4.4h-2.1a1 1 0 0 0-1 1h3.1c.77 0 1.4-.63 1.4-1.4v-.2c0-.77-.63-1.4-1.4-1.4h-3.2zM21.4 26c-.77 0-1.4.63-1.4 1.4V31h1v-3.6c0-.22.18-.4.4-.4H24a1 1 0 0 1 1-1h-3.6zM47.4 26c-.77 0-1.4.63-1.4 1.4V31h1v-3.6c0-.22.18-.4.4-.4H50a1 1 0 0 1 1-1h-3.6z" fill="#0C0C48"/><path d="M37.26 21H45l7 4h-7l-5.87-3.35L33.26 25h-3l7-4z" fill="#D90C0C"/></svg>