<!-- by TradingView --><svg width="56" height="56" viewBox="0 0 56 56" xmlns="http://www.w3.org/2000/svg"><path fill="#F0F3FA" d="M0 0h56v56H0z"/><path d="M34.97 23.55 23.62 11 19 14.6c1.82 2.29 5.12 7.14 5.85 11.67L29 25.21v-.82l.44.65 5.53-1.5Z" fill="#0660BA"/><path d="M22.59 45 19 41l.03-.04c1.35-1.81 4.88-6.55 5.82-10.96l6.65 5.5-8.91 9.5Z" fill="#0098FF"/><path d="m24.85 30 6.65 5.5L39 28l-4.03-4.45-5.53 1.49 3.35 3.35-3.79 4v-7.18l-4.15 1.06c.1.58.15 1.16.15 1.73 0 .68 0 1-.15 2Z" fill="#5CC5FF"/></svg>