<!-- by TradingView --><svg xmlns="http://www.w3.org/2000/svg" width="56" height="56"><path fill="#BCA347" d="M0 0h56v56H0z"/><path d="M20.05 20.17c0-6.95 8.23-7.67 12-6.95-2.24.55-6.63 2.7-6.54 6.95.09 4.25 4.87 5.99 7.8 6.4 3.96.54 9.95 2.02 10.12 8.13.17 6.11-6.68 7.97-10.13 7.8 4.2-2.92 4.43-5.7 4.54-7.06l.01-.17c.12-1.3-1.06-5.94-8.02-7.4-9.02-1.92-9.78-5.72-9.78-7.7zm21.17 6.36c1-.32 2.9-1.82 2.77-5.51-.15-4.61-3.83-7.02-8.02-7.02-4.18 0-8.07 2.06-8.07 6.37 0 3.45 3.53 4.94 5.75 5.1a4.08 4.08 0 01-1.4-2.8c-.07-2 1.6-3.62 4.53-3.67 2.93-.05 5.5 2.77 4.44 7.53zm-26.44 2.94c-1 .32-2.9 1.82-2.77 5.51.15 4.61 3.83 7.02 8.02 7.02 4.18 0 8.07-2.06 8.07-6.37 0-3.45-3.53-4.94-5.75-5.1a4.08 4.08 0 011.4 2.8c.07 2-1.6 3.62-4.53 3.67-2.93.05-5.5-2.77-4.44-7.53zm7.95-15.7c-3.78-.72-10.16 1.83-10.16 7.53 0 1.98.51 5.93 9.54 7.84 6.95 1.47 7.95 4.53 7.95 7.04 0 3.07-2.83 5.27-6.22 6.68 4.74.67 11.99-.98 11.83-6.68-.13-4.88-4.35-6.27-8.03-7.48l-1.77-.6c-2.77-1.02-7.76-3.19-7.84-6.8-.08-3.61 2.46-6.99 4.7-7.54z" fill="#fff"/></svg>