<!-- by TradingView --><svg width="56" height="56" viewBox="0 0 56 56" xmlns="http://www.w3.org/2000/svg"><path fill="#F0F3FA" d="M0 0h56v56H0z"/><path d="M40.07 34.04h-.04l-.03.01c-2.69 3.05-6.7 4.66-10.74 4.91-4.83.3-9.82-1.26-13.06-4.91a.08.08 0 0 0-.1-.02 12.7 12.7 0 0 1-4.06 1.4c-1.9.32-4.07 0-5.7-1.07-2.33-1.54-2.9-4.32-1.8-6.85 1.56-3.52 4.7-5.9 8.33-6.98 1.77-.52 3.45-.62 5.05-.3.04.02.07 0 .1-.01a16.25 16.25 0 0 1 7.38-3.02c4.54-.67 9.18.34 12.88 3.1.03.02.06.03.1.02a9.46 9.46 0 0 1 2.83-.11c4.31.59 8.32 3.18 10.19 7.2a5.7 5.7 0 0 1-.25 5.54 6.28 6.28 0 0 1-4.41 2.53c-2.35.3-4.63-.32-6.67-1.44Z" fill="#E30613"/><path d="M28.04 18.1c4.26-.03 8.48 1.65 10.93 5.27v.04c0 .01 0 .02-.02 0-2.54-3.43-6.79-4.87-10.91-4.84-4.13.02-8.35 1.51-10.85 4.97-.01.02-.02.02-.02 0l-.01-.03v-.01c2.41-3.65 6.62-5.38 10.88-5.4Z" fill="#fff"/><path d="M32.45 21.69c.21 2.09.36 3.92.53 6.22.03.35-.08.6-.32.74-.48.26-1.16.17-1.46-.3a1.21 1.21 0 0 1-.14-.57c-.16-2.82-.28-4.89-.39-6.2-.02-.28.02-.46.26-.58.4-.2 1-.16 1.35.17.09.09.15.26.17.52ZM16.97 21.28c.02 0 .02.01.01.02l-.02.02a7.49 7.49 0 0 0-2.45.04c-3.23.59-6.37 2.49-7.82 5.52-.43.9-.66 1.86-.51 2.83.5 3.21 4.28 4.1 6.95 3.56a11.25 11.25 0 0 0 2.04-.6v.01a9.7 9.7 0 0 1-3.89 1.12c-1.81.12-4.1-.51-5.15-2.16-1.26-1.96-.6-4.18.68-6.01 2.12-3.02 6.5-5.15 10.16-4.35ZM39.48 21.36c.02-.03.06-.05.13-.06a9.12 9.12 0 0 1 4.76.65c2.55.99 4.71 2.86 5.81 5.42.89 2.06.39 4.33-1.54 5.56-2.39 1.53-5.5.95-7.84-.34v-.02c0-.01 0-.02.02 0 1.8.78 3.73 1.09 5.64.57 2.38-.64 3.91-2.54 3.33-5.1a6.88 6.88 0 0 0-1.2-2.47 10.81 10.81 0 0 0-8.84-4.24.86.86 0 0 0-.25.05c-.02.01-.03 0-.02-.02Z" fill="#fff"/><path d="m12.66 24.94.41-2.04c.12-.62.73-.9 1.3-.83.28.04.39.2.34.48-.3 1.66-.55 3.2-.75 4.62-.05.35-.23.74-.55 1.19-.87 1.21-2.7 2.26-4.23 1.76-1.3-.42-1.59-1.53-1.08-2.7.7-1.57 2.8-2.79 4.5-2.44.03.01.05 0 .06-.04ZM22.25 25.74c-.03.54-.07 1.35-.1 2.45-.03.83-1.46 1.17-1.84.43-.06-.1-.08-.3-.06-.55l.1-1.77c.04-.51.1-.87.2-1.09.15-.33.39-.62.72-.87a46.9 46.9 0 0 1 2.15-1.56c.38-.25 1.24-.34 1.45.19.13.33-.05.56-.33.76-.67.49-1.34.98-2 1.49-.2.15-.28.25-.3.52ZM27.57 28.78c-1.31.02-2.86-.73-2.86-2.25a200.46 200.46 0 0 1 .04-2.46c.2-.82 1.83-.88 1.84.09l.02 2.4c0 .11.07.23.2.35.22.21.46.31.74.31.27 0 .51-.12.73-.33.12-.13.18-.25.18-.36l-.06-2.4c-.02-.97 1.61-.97 1.83-.16a339.19 339.19 0 0 1 .13 2.46c.04 1.52-1.47 2.32-2.79 2.35ZM16.15 27.38c.23.75 1.33.47 1.65-.05.06-.12.1-.32.13-.6.06-.77.13-1.5.21-2.16.1-.79 1.9-1.07 1.78 0-.04.32-.08.86-.12 1.6a4.9 4.9 0 0 1-.22 1.33c-.4 1.02-1.51 1.7-2.57 1.86-1.07.17-2.31-.22-2.6-1.38-.06-.2-.06-.49 0-.9l.28-1.97c.1-.63.8-.95 1.36-.8.27.06.38.24.35.53l-.26 2.4c-.01.04 0 .1.01.14ZM34.9 25.96c-.16.12-.14.32.04.47 1.38 1.1 2.18 1.74 2.4 1.93.26.22.36.65.13.98-.2.29-.7.33-1.03.22-.13-.05-.3-.15-.5-.31-1.08-.88-1.84-1.5-2.29-1.85-.73-.58-.96-1.54-.42-2.24.27-.35.86-.7 1.18-.96.4-.3.75-.36 1.17-.21.47.16.9.75.36 1.16l-1.04.8Z" fill="#fff"/><path d="M41.63 29.11h-.01c-.5.12-.91.18-1.25.16-1.76-.1-4.04-1.38-3.97-3.44.04-.97.88-1.58 1.8-1.8a4.3 4.3 0 0 1 4.51 2.17c.12.24.23.62.32 1.12l.32 1.8c.07.4-.02.66-.28.79-.6.28-1.27-.2-1.44-.8ZM45.6 26.09c-.34-.1-.76.08-.66.51.3 1.35.47 2.18.52 2.49.03.17-.09.4-.24.5-.4.26-1.01-.02-1.27-.38a1.7 1.7 0 0 1-.22-.65c-.1-.58-.25-1.34-.44-2.28-.06-.31 0-.62.18-.92.31-.52 1.06-.69 1.64-.6 1.05.17 2.04.82 2.6 1.74.13.23.26.6.39 1.1l.43 1.8c.05.24.05.42-.02.53-.3.52-1.06.14-1.32-.24-.1-.13-.18-.36-.25-.7l-.42-1.87c-.14-.56-.38-.88-.91-1.03Z" fill="#fff"/><path d="M39.23 27.7c.91.4 1.88.18 2.16-.48.28-.66-.24-1.5-1.16-1.9-.91-.39-1.88-.17-2.16.49-.27.66.24 1.5 1.16 1.9ZM11.53 28.52c.82-.52 1.2-1.4.83-1.96-.35-.56-1.3-.6-2.12-.08-.81.52-1.19 1.4-.83 1.97.35.56 1.3.6 2.12.07Z" fill="#E30613"/><path d="M28.2 36.55c-1.81.01-3.6-.3-5.35-.94-2.92-1.08-5.3-3.1-6.4-6.08l.01-.02a9.06 9.06 0 0 0 3.44 3.92 15.16 15.16 0 0 0 8.9 2.2c2.66-.11 5.4-.83 7.65-2.31a9.06 9.06 0 0 0 3.39-3.98l.01.03c-1.07 3-3.42 5.05-6.32 6.16-1.75.67-3.52 1-5.33 1.02Z" fill="#fff"/></svg>