<!-- by TradingView --><svg width="56" height="56" xmlns="http://www.w3.org/2000/svg"><path fill="#D22031" d="M0 0h56v56H0z"/><path d="M16.144 27.383s-1.033 3.094-1.205 3.487c-.171.394-.344.968-1.204.957-.768-.01-.375-.933-.23-1.35.377-1.081.896-2.527 1.147-3.207.088-.236.426-1.078 1.263-.956.646.094.229 1.069.229 1.069zM19.183 19l-1.88 5.1s-3.097-.506-5.678.676C9.577 25.713 8.01 27.833 8 29.352c-.011 1.84.86 4.275 5.105 4.613 4.243.337 6.422-1.856 6.422-1.856L24 19h-4.817zm16.097 5l-5.362 15h-5.073l2.065-5.391s-2.284.951-4.029-.117c-1.288-.788-1.457-1.628-1.515-2.387-.058-.76.4-1.986.4-1.986l1.864-5.12h4.96l-2.02 5.954s-.76 1.193.462 1.168c.782-.016 1.022-.988 1.022-.988L30.204 24h5.076zm7.518 3.29s-1.008 3.155-1.176 3.557c-.168.401-.336.985-1.176.974-.75-.009-.366-.951-.224-1.376a244.27 244.27 0 011.12-3.27c.085-.241.415-1.1 1.232-.975.632.096.224 1.09.224 1.09zm.858-3.176c-3.202-.413-5.532.27-7.557 2.495-2.14 2.35-1.291 7.086 3.75 7.373 5.038.286 7.792-2.824 8.119-5.163.28-2.008-1.294-4.314-4.312-4.705z" fill="#fff"/></svg>