<!-- by TradingView --><svg xmlns="http://www.w3.org/2000/svg" width="56" height="56"><path fill="#F28123" d="M0 0h56v56H0z"/><path fill-rule="evenodd" d="M27 45a1 1 0 102 0v-3.04c3.1-.21 5.93-1.44 8.14-3.36l2.15 2.15a1 1 0 101.42-1.42l-2.15-2.14a13.94 13.94 0 003.4-8.19H45a1 1 0 100-2h-3.04a13.94 13.94 0 00-3.37-8.16l2.14-2.13a1 1 0 00-1.42-1.42l-2.13 2.14a13.94 13.94 0 00-8.18-3.4V11a1 1 0 10-2 0v3.04a13.94 13.94 0 00-8.19 3.4l-2.14-2.15a1 1 0 00-1.42 1.42l2.15 2.15A13.94 13.94 0 0014.04 27H11a1 1 0 100 2h3.04a13.94 13.94 0 003.39 8.18l-2.16 2.15a1 1 0 001.42 1.42l2.15-2.16A13.94 13.94 0 0027 41.96V45zm-6.05-22.6a8.96 8.96 0 00-1.9 4.6h4.05c.13-.63.37-1.21.71-1.73l-2.86-2.86zm9.78 9.79c-.52.34-1.1.58-1.73.71v4.05c1.73-.2 3.3-.87 4.6-1.9l-2.87-2.86zm4.28 1.45l-2.86-2.86c.36-.53.62-1.13.75-1.78h4.05A8.96 8.96 0 0135 33.64zm-9.8-9.8A4.97 4.97 0 0127 23.1v-4.05c-1.75.2-3.34.9-4.64 1.94l2.86 2.86zM29 19.06c1.74.2 3.33.89 4.63 1.93l-2.86 2.86A4.97 4.97 0 0029 23.1v-4.05zM23.1 29c.13.64.38 1.24.74 1.77l-2.86 2.86A8.96 8.96 0 0119.05 29h4.05zm2.16 3.18l-2.87 2.86a8.96 8.96 0 004.61 1.9V32.9a4.97 4.97 0 01-1.74-.72zm9.78-9.79l-2.86 2.87c.34.52.6 1.1.72 1.74h4.05a8.96 8.96 0 00-1.9-4.6z" fill="#fff"/></svg>