<!-- by TradingView --><svg width="56" height="56" viewBox="0 0 56 56" xmlns="http://www.w3.org/2000/svg"><path fill="#F0F3FA" d="M0 0h56v56H0z"/><path d="M40.08 23.44a10.4 10.4 0 0 0-3.33-3.24c-.05-.02-.06-.06-.05-.11.82-2.9.34-5.47-1.44-7.7-4.4-5.54-13.7-4.02-15.9 2.57a8.13 8.13 0 0 0 1.57 7.9c.03.04.08.05.12.01l2.68-1.83c.05-.03.05-.06.02-.1a5.1 5.1 0 0 1 1.57-8.02c2.77-1.44 6.43-.4 7.76 2.39A5.04 5.04 0 0 1 32 21.24v.04c0 .01 0 .03.02.04l.03.02c.36.09.78.26 1.26.52 3.32 1.77 5.36 4.58 4.88 8.33a8.28 8.28 0 0 1-5.17 6.7c-2.25.96-5.62 1.25-7.53-.5-1.8-1.66-1.05-4.38.53-5.95a.1.1 0 0 0 0-.13 2.47 2.47 0 0 1 .34-3.81 2.83 2.83 0 0 1 3.52.2c1.02.94 1.1 2.31.27 3.43-.04.05-.03.09.01.12a5.46 5.46 0 0 1 1.78 2.46c.02.07.06.08.12.03a5.48 5.48 0 0 0 1.58-6.14c-1.23-3.25-5.27-4.69-8.46-3.09a5.52 5.52 0 0 0-2.95 6.66c.02.05.01.1 0 .15l-.26.59c-1.38 3.04-.76 6.36 2.25 8.22a9.39 9.39 0 0 0 3.9 1.34c3.72.43 7.16-.66 9.82-3.1a11.24 11.24 0 0 0 3.29-11.64 8.2 8.2 0 0 0-1.15-2.3ZM19 24.64c.04-.04.05-.09.01-.14l-1.75-2.65c-.04-.05-.08-.06-.12-.01-4.74 4.73-5.55 11.78-1.64 17.23 5.94 8.28 18.96 9.27 26.5 2.27a.05.05 0 0 0 .01-.04l-.01-.03-2.2-2.22a.08.08 0 0 0-.06-.02.08.08 0 0 0-.05.02c-4.46 4.28-11.31 5.1-16.88 2.2-2.93-1.52-5.33-4.3-6.04-7.48-.74-3.3 0-6.34 2.23-9.12Z" fill="#F5821F"/></svg>