<!-- by TradingView --><svg width="56" height="56" viewBox="0 0 56 56" xmlns="http://www.w3.org/2000/svg"><path fill="#F0F3FA" d="M0 0h56v56H0z"/><path d="M45.9 28.01a.16.16 0 0 1 .1.17c-.5 8.6-7.32 15.19-15.8 14.8a14.53 14.53 0 0 1-10.9-5.44 15.24 15.24 0 0 1-3.13-6.43c-.02-.1.04-.11.1-.11h4.6c.09 0 .17 0 .25.05.07.06.13.13.16.21 2.55 6.53 10.3 9 15.85 4.59a10.52 10.52 0 0 0 2.39-2.7.16.16 0 0 0-.08-.14l-.08-.01H28.9l-.06-.02a.13.13 0 0 1-.07-.1v-.07l1.59-4.59a.33.33 0 0 1 .12-.16.32.32 0 0 1 .19-.06h15.18l.06.01Zm-33.43-8.16a15.13 15.13 0 0 1 21.66-3.89 15.41 15.41 0 0 1 5.7 8.9l-.04.06a.17.17 0 0 1-.05.05c-.03.01-.05.03-.08.03h-4.62c-.04 0-.09-.03-.13-.05a.25.25 0 0 1-.09-.1l-.54-1.14c-1.62-3.34-5.38-5.88-9.06-5.88a10.29 10.29 0 0 0-10.06 7.67.11.11 0 0 0 .06.08l.05.02h12.81l.03.04a.1.1 0 0 1 .02.05v.05l-1.6 4.5a.29.29 0 0 1-.27.18H15.25a.2.2 0 0 0-.19.14A15.99 15.99 0 0 0 23.25 42c.63.36 1.36.58 1.88.85.02 0 .03.02.04.03a.08.08 0 0 1-.03.1 14.24 14.24 0 0 1-3.84-.47A14.94 14.94 0 0 1 11 22.6c.26-.73.75-1.64 1.47-2.75Zm18.2-6.83c7.25-.33 13.54 4.7 15.26 11.8a.14.14 0 0 1-.07.17.14.14 0 0 1-.06.01h-4.9a.17.17 0 0 1-.16-.13c-1.41-5.66-4.78-9.59-10.08-11.77l-.02-.02v-.05l.03-.01ZM16.31 24.75a9.56 9.56 0 0 1 9.64-6.04c.09 0 .17.03.24.08a.1.1 0 0 1 .03.04.1.1 0 0 1 0 .05.1.1 0 0 1 0 .05 10.86 10.86 0 0 0-5.03 5.81.33.33 0 0 1-.13.16c-.05.04-.12.1-.18.1h-4.44c-.02 0-.04-.05-.06-.06a.15.15 0 0 1-.08-.12l.01-.07Z" fill="#4DA046"/></svg>