<!-- by TradingView --><svg xmlns="http://www.w3.org/2000/svg" width="56" height="56" viewBox="0 0 56 56"><path fill="#F0F3FA" d="M0 0h56v56H0z"/><path d="M17.9 14.85a22.77 22.77 0 0 0-4.07 3.92 3.27 3.27 0 0 0 2.87 1.73H24V17h-3.89a2.17 2.17 0 0 1-2.21-2.15z" fill="#73B734"/><path d="M24 16h-2.97c-.9 0-1.87-.76-2.19-1.7 2.37-1.66 4.15-1.9 5.16-2.1V16zM25 12h4v4h-4z" fill="#9FC516"/><path fill="#73B734" d="M25 17h4v3.5h-4zM30 12.5h3V15h-3z"/><path fill="#439B36" d="M34 12.5h3V15h-3z"/><path fill="#2A2C23" d="M38 18h3v2h-3zM38 22h3v2h-3zM38 26.5h3V29h-3zM38 31h2.5v2.5H38zM38 35.5h2.5V38H38zM42 22h2v2h-2zM42 27h2v2h-2zM42 31h2v2h-2z"/><path fill="#439B36" d="M25 21.5h4V25h-4z"/><path fill="#2B8C36" d="M25 26h4v3.5h-4zM30 26.5h3V29h-3zM34 26.5h3V29h-3z"/><path fill="#12672F" d="M25 30.5h4v4h-4z"/><path fill="#1D4934" d="M25 35.5h4V39h-4z"/><path fill="#2A2C23" d="M25 40h4v4h-4zM30 40h3v3h-3zM30 35.5h3V38h-3zM30 31h3v3h-3zM30 22h3v2.5h-3zM30 17.5h3V20h-3zM34 40h3v2.52h-3zM34 35.5h3V38h-3zM34 31h3v3h-3zM34 22h3v2.5h-3zM34 17.5h3V20h-3z"/><path d="M11.46 23.71c.5-1.66 1.54-3.48 2-4.19.35 1.45 2.37 1.98 3.36 1.98H24V25h-9.36a4.36 4.36 0 0 1-3.18-1.29z" fill="#439B36"/><path d="M11 29.5c0-1.79.15-3.52.23-4.43.43.45 1.72.93 3.43.93H24v3.5H11z" fill="#2B8C36"/><path d="M24 30.5H11.24c0 1.3.9 3.22 1.36 4H24v-4z" fill="#12672F"/><path d="M13.1 35.5H24V39h-8.5a13.73 13.73 0 0 1-2.4-3.5z" fill="#1D4934"/><path d="M24 40h-7.25c2.61 2.64 5.84 3.86 7.25 4v-4z" fill="#2A2C23"/></svg>