<!-- by TradingView --><svg xmlns="http://www.w3.org/2000/svg" width="56" height="56"><path fill="#1E4B42" d="M0 0h56v56H0z"/><path fill-rule="evenodd" d="M23.07 12h10.26l1 3.08 3.04.36c1.17.15 3.64 1.06 4.17 3.53s2.48 12.7 3.39 17.5c.24.9.06 2.83-2.6 3.33-2.43.46-5.05.92-6.33 1.14V44H20v-3.07c-1.42-.3-4.11-.85-5.72-1.13-2.18-.37-3.63-1.5-3.2-3.33.34-1.46 2.56-12.28 3.62-17.5a4.35 4.35 0 013.8-3.53 32.59 32.59 0 013.4-.4L23.08 12zM21 41v2h14v-2H21zm12.25-26l-.65-2h-8.84l-.69 2h10.18zm-15.31 2.45l2.6-.32-.33 1.84-1.28.26-.8 6.98h1.18l-.16 2.53h-1.22L17 35.36l1.3.3v2.15l-4.57-1.06 4.2-19.3zm3.02 20.76L22.7 17h2.78c1.69 0 2.53 1.81 2.53 2.9l.25 15.8c-.17 2.46-2.09 2.93-3.03 2.86l-4.26-.35zm2.74-2.15l.47-16.6h1.18c.57 0 .77.68.8 1.02l-.26 14.4c-.03.87-.63 1.15-.92 1.18H23.7zM31.62 17h-1.5v1.92h1.5V17zm-1.42 4l.46 17.72h2.28L31.84 21H30.2zm4.3-4l1 21.72h2.42l-.21-4.66 2.4-.68c.4-.13 1.17-.77 1-2.28-.18-1.5-1.01-7.82-1.4-10.78-.16-1.17-1.12-3.32-2.9-3.32h-2.3zm1.93 3l1.22 11.5.96-.18c.15-.05.42-.32.32-.93l-1.28-9.96a.56.56 0 00-.56-.43h-.66z" fill="#fff"/></svg>