<!-- by TradingView --><svg width="56" height="56" viewBox="0 0 56 56" xmlns="http://www.w3.org/2000/svg"><path fill="#F0F3FA" d="M0 0h56v56H0z"/><path d="M27.68 34.5c1.66.08 3.28.2 4.97.25 3.58.1 7.17-.2 10.69-.91l.05-.01.25-.06a27.42 27.42 0 0 0 8.36-3.4c-6.33 3.53-15.24 3.8-15.24 3.8-.62.05-1.26.08-1.89.1-7.3.2-14.83-1.08-22.54 2.06 5.9-1.31 8.69.97 11.8 2.62 3.76 1.99 8.98 3.56 16.03-.42 2.12-1.16 4-2.73 5.5-4.63a40.45 40.45 0 0 1-11.8 1.3c-3.8-.14-7.24-.72-11.1-.8.8-.06 3.15.02 4.92.1M18.94 28h-8.66c.32 1.45 1.57 2.3 3.3 2.3a3.78 3.78 0 0 0 2.86-1.13l1.76 1.94C17.14 32.35 15.55 33 13.5 33 9.56 33 7 30.46 7 27c0-3.49 2.6-6 6.07-6 3.35 0 5.93 2.3 5.93 6.04 0 .26-.04.68-.06.96Zm-8.66-2h5.6a2.83 2.83 0 0 0-.93-1.79 2.67 2.67 0 0 0-1.86-.66c-.68-.03-1.35.2-1.87.65s-.86 1.1-.94 1.8Z" fill="#161615"/><path d="M27.39 27c0-3.51 2.6-6 6.18-6 3.57 0 6.16 2.5 6.16 6s-2.59 6-6.16 6c-3.57 0-6.18-2.5-6.18-6Zm9.04 0c0-2.02-1.23-3.23-2.86-3.23s-2.88 1.21-2.88 3.23 1.25 3.23 2.88 3.23S36.43 29 36.43 27ZM24 22h3v2h-3v9h-3v-9h-2v-2h2v-.73C21 18.7 22.49 17 25.29 17c.86-.03 1.73.18 2.48.62l-.86 2.41a2.25 2.25 0 0 0-1.3-.4c-.97 0-1.61.51-1.61 1.64V22ZM48 21v3.17c-.27-.03-.48-.05-.73-.05-1.8 0-3.27 1.04-3.27 3.3V33h-3V21h3v1.74c.8-1.14 2.26-1.74 4-1.74" fill="#161615"/></svg>