<!-- by TradingView --><svg width="56" height="56" viewBox="0 0 56 56" xmlns="http://www.w3.org/2000/svg"><path fill="#F0F3FA" d="M0 0h56v56H0z"/><path d="m45.97 25-1.4 2.4v.01a2.2 2.2 0 0 0-.05.1 1.5 1.5 0 0 0-.06-.1l-1.4-2.4h-1L44 28.4v1.6h1v-1.62L46.91 25h-.94ZM49.5 25A2.52 2.52 0 0 0 47.05 28c.2.98.98 1.77 1.96 1.96 1.53.3 3-.9 3-2.45-.01-1.36-1.15-2.5-2.5-2.5Zm1.51 2.59c0 .82-.78 1.7-1.83 1.5a1.6 1.6 0 0 1-1.2-1.26c-.18-.95.45-1.91 1.52-1.91.94 0 1.51.85 1.51 1.67ZM40.62 26.78l-.96.78H41v1.35c-.39.23-.71.35-1.18.33-.97.03-1.86-.7-1.82-1.74 0-1 .7-1.74 1.78-1.74a1.81 1.81 0 0 1 1.26.44l.13.12.62-.56-.12-.12a2.65 2.65 0 0 0-1.9-.64 2.93 2.93 0 0 0-1.98.7c-.26.24-.47.52-.6.83-.14.3-.2.64-.19.97 0 1.45 1.19 2.5 2.82 2.5.87 0 1.64-.25 2.13-.68l.05-.04v-2.5h-1.38Z" fill="#9FACAB"/><path d="M33 25h-1v5h1v-5ZM29.32 25H27v5h1v-2h1.32c.78 0 1.68-.6 1.68-1.45 0-.9-.83-1.54-1.68-1.55Zm.69 1.55c0 .36-.38.45-.7.45H28v-1h1.32c.4 0 .69.18.69.55ZM20.87 25l-1.34 2.39h-.01L18.17 25H17.1l1.9 3.4V30h1v-1.61L21.9 25h-1.03ZM5 27.67h2v-.96H5V26h2.46v-1H4v5h3.57v-1H5v-1.33ZM14.53 27.67h2v-.96h-2V26H17v-1h-3.47v5H17v-1h-2.47v-1.33ZM10.88 28H12v.85c-.36.21-.75.32-1.18.3a1.91 1.91 0 0 1-1.3-.47c-.17-.15-.3-.34-.39-.54-.09-.2-.13-.42-.12-.64 0-.95.74-1.65 1.76-1.65a1.7 1.7 0 0 1 1.2.41l.16.16.69-.62-.16-.15a2.65 2.65 0 0 0-1.89-.65 2.92 2.92 0 0 0-1.98.7c-.26.24-.47.52-.6.83-.14.3-.2.64-.19.97 0 1.45 1.18 2.5 2.82 2.5 1.21 0 1.88-.47 2.11-.68l.07-.06V27h-1.33l-.79 1ZM23.28 25l.29.68L21.69 30h1.02l1.35-3.17.58 1.35h-.89l-.33.82H25l.41 1h1l-2.15-5h-.97Z" fill="#0060A2"/><path d="M35 24h-.5v8h.5v-8Z" fill="#9FACAB"/></svg>