<!-- by TradingView --><svg xmlns="http://www.w3.org/2000/svg" width="56" height="56" viewBox="0 0 56 56"><path fill="#F0F3FA" d="M0 0h56v56H0z"/><path d="M15.64 16.16c2.21-5.1 9.71-2.91 13.36-1.1-5.6-.45-7.48 1.71-8.17 3.53-3.67 9.78.28 19.44 3.69 25.41 2.23 3.9 2.07 3.98-.55.33-10.5-14.62-10.5-23.17-8.33-28.17z" fill="#013661"/><path d="M40.35 13.96c-2.22-5.15-9.68-2.4-13.35-.58 5.63-.45 7.44 1.33 8.13 3.16 3.7 9.82-.26 19.48-3.7 25.45-2.25 3.92-2.1 4 .53.32C42.53 27.6 42.53 19 40.36 13.96z" fill="#FA6600"/></svg>