<!-- by TradingView --><svg xmlns="http://www.w3.org/2000/svg" width="56" height="56"><path fill="#008001" d="M0 0h56v56H0z"/><path fill-rule="evenodd" d="M15 22a13 13 0 1126 0v21H28.47v.11c0 .18.07.48.52.79.37.24.94.23 1.18.2.39.14.3.27.2.32l-.37-.01c-.33-.02-.72-.04-.77.01l-.08.1c-.14.2-.43.6-.68.45-.24-.15.04-.42.2-.55-.03-.3-.5-.4-.73-.41-.78.14-1.2.7-1.32.96-.08-.52-.33-.58-.45-.55-.31.48-.48.46-.52.4-.03-.8.46-.76.87-.73h.03c.33.02.8-.32.99-.5v-.6H15V22zm13.47 17H41v-2H28.47v2zm-.93-2v2H19V22a9 9 0 1118 0v11h-8.53v-5.58c0-.51-.16-1.42-.44-1.42-.31 0-.5.89-.5 1.42V33H20v4h7.54zm.4-22.38c1.9 1.43 4.57 5.43 0 10-1.87-1.97-4.48-6.73 0-10zM35.85 23c-.12 2.28-1.6 6.87-6.56 7-.17-2.09.92-6.42 6.56-7zm-15.84 0c.12 2.28 1.6 6.87 6.56 7 .17-2.09-.92-6.42-6.56-7z" fill="#fff"/></svg>