<!-- by TradingView --><svg xmlns="http://www.w3.org/2000/svg" width="56" height="56"><path fill="url(#af4id5qul)" d="M0 0h56v56H0z"/><path d="M9.16 25l-.23 1.44h-.3c.08-.77-.4-1-.65-1H7.1c-.2-.02-.3.16-.32.25l-.33 1.92h1.02c.36-.02.58-.49.64-.71h.27l-.4 1.98h-.23c.09-.56-.15-.72-.28-.73H6.34c-.09.46-.28 1.49-.33 1.9-.05.4.24.5.39.5h.87c.54.04 1-.7 1.15-1.09h.35L8.17 31H4v-.29c.46.04.77-.23.83-.51.24-1.26.72-3.88.79-4.33.06-.46-.36-.56-.58-.55V25h4.12zm11.13 0l-.23 1.44h-.3c.07-.77-.4-1-.66-1h-.88c-.2-.02-.29.16-.3.25l-.35 1.92h1.03c.35-.02.57-.49.64-.71h.26l-.4 1.98h-.22c.08-.56-.15-.72-.28-.73h-1.14c-.08.46-.27 1.49-.32 1.9-.05.4.24.5.39.5h.86c.54.04 1-.7 1.16-1.09h.35L19.3 31h-4.17v-.29c.46.04.77-.23.82-.51.25-1.26.72-3.88.8-4.33.06-.46-.37-.56-.59-.55V25h4.13zm24.23 0l-.23 1.44h-.3c.08-.76-.4-.99-.65-1h-.88c-.2-.01-.3.16-.32.26l-.33 1.92h1.02c.36-.03.58-.5.64-.72h.27l-.4 1.98h-.23c.09-.55-.15-.72-.28-.73H41.7c-.09.46-.28 1.49-.33 1.9-.05.4.24.57.39.57H42V31h-2.64v-.28c.46.04.77-.24.83-.52.24-1.26.72-3.87.79-4.33.06-.46-.36-.55-.58-.55V25h4.12zm-29.56.28l-.1 1.43h-.3c.06-.45-.21-1.3-1.26-1.3-1.44 0-2.53 1.14-2.6 3-.06 1.86 1.23 2.14 1.7 2.16.47 0 .62-.25.67-.37.08-.3.2-.95.23-1.26.03-.32-.26-.42-.4-.42h-.5v-.35h2.64v.35c-.46 0-.66.42-.7.62l-.18 1.5c-.53.28-1.27.36-1.98.36-2.17 0-2.86-1.77-2.76-2.59.4-3.1 3.16-3.41 4.01-3.41.68 0 1.3.19 1.53.28z" fill="#fff"/><path fill-rule="evenodd" d="M23.03 25h2.45c.59 0 1.85.3 1.85 1.57 0 1.76-1.75 2.05-2.31 2.04-.5-.02-.8-.12-.86-.17l-.27 1.6c-.03.23.08.7.76.65V31h-2.68v-.3a.9.9 0 00.9-.79l.74-4.08c0-.17-.1-.5-.58-.52V25zm1.72.49c.45-.07 1.43-.01 1.42.87 0 1.1-.58 1.82-1.35 1.82-.51 0-.54-.12-.54-.22l.47-2.47zm3.52-.49h2.45c.59 0 1.88.28 1.81 1.54-.04.85-.82 1.35-1.54 1.6.07.2.78 2.11 1.49 2.72-.06.07-.98.36-1.5-.19a5.83 5.83 0 01-.9-2c-.05-.2-.1-.33-.1-.33h-.56l-.3 1.68c-.03.23.08.7.77.65v.31H27.2v-.3a.9.9 0 00.9-.78l.74-4.07c.01-.17-.09-.5-.57-.52V25zm1.71.48c.46-.07 1.44 0 1.43.85 0 1.06-.59 1.75-1.36 1.75-.5 0-.53-.12-.53-.22l.46-2.38zm4.14 4.88c1.17 1.03 3.1.8 4.29-.5 1.2-1.3 1.2-3.18.03-4.21-1.18-1.03-3.1-.81-4.3.49-1.19 1.3-1.2 3.19-.02 4.22zm1.47.23c.92.22 1.96-.75 2.33-2.17.38-1.42-.07-2.76-.98-2.99-.92-.23-1.97.74-2.34 2.16-.37 1.43.07 2.77.99 3z" fill="#fff"/><path d="M47.69 25H45.1v.36c.57 0 .64.38.6.6l-.73 4c-.11.55-.63.69-.87.68V31h2.58v-.36c-.6-.02-.61-.46-.57-.69.2-1.12.62-3.48.74-4 .12-.5.6-.6.83-.6V25zm3.22 0h-2.57v.36c.56 0 .64.38.6.6l-.74 4c-.1.55-.62.69-.86.68V31h4.1l.56-1.6h-.31s-.33.77-.76 1.02c-.35.2-1 .17-1 .17-.6-.02-.63-.4-.59-.64.2-1.12.62-3.48.74-4 .13-.5.6-.6.83-.6V25z" fill="#fff"/><ellipse cx="46.53" cy="24.29" rx=".48" ry=".51" transform="rotate(25.08 46.53 24.3)" fill="#fff"/><defs><linearGradient id="af4id5qul" x1="10.42" y1="9.71" x2="68.15" y2="76.02" gradientUnits="userSpaceOnUse"><stop stop-color="#1A1E21"/><stop offset="1" stop-color="#06060A"/></linearGradient></defs></svg>