<!-- by TradingView --><svg xmlns="http://www.w3.org/2000/svg" width="56" height="56"><path fill="#F0F3FA" d="M0 0h56v56H0z"/><path d="M21.12 15c-5.05 0-8.85 2.25-10.12 3.32 2.64 0 3.62.3 9.72 1.33 6.33 1.07 9.14-.59 9.75-1.55-1.01-1.07-4.34-3.1-9.35-3.1z" fill="#82A33E"/><path d="M21.12 36c-5.05 0-8.85 2.25-10.12 3.32 2.64 0 3.62.3 9.72 1.33 6.33 1.07 9.14-.59 9.75-1.55-1.01-1.07-4.34-3.1-9.35-3.1z" fill="#576930"/><path d="M40 22a3 3 0 10-2.9-2.24L26.7 27h-8.87a3 3 0 100 2h8.87l10.46 7.03a3 3 0 101.25-1.57l-9.63-6.47 9.44-6.57c.5.36 1.11.58 1.78.58z"/></svg>