<!-- by TradingView --><svg width="56" height="56" viewBox="0 0 56 56" xmlns="http://www.w3.org/2000/svg"><path fill="#F0F3FA" d="M0 0h56v56H0z"/><path d="M34 14.62c-5.31 2.31-9 7.43-9 13.38 0 5.95 3.7 11.07 9 13.38-2.35-3.13-3.86-7.96-3.86-13.38 0-5.42 1.51-10.25 3.86-13.38Z" fill="#CC2129"/><path d="M21.62 28c0-8.38 3.34-15.74 8.38-20-8.26 3.48-14 11.13-14 20s5.74 16.5 14 20c-5.04-4.26-8.38-11.63-8.38-20Z" fill="#CC2129"/><path d="M38 21.65c-2.94 1.05-5 3.5-5 6.34s2.06 5.3 5 6.35v-12.7Z" fill="#686765"/></svg>