<!-- by TradingView --><svg width="56" height="56" viewBox="0 0 56 56" xmlns="http://www.w3.org/2000/svg"><path fill="#F0F3FA" d="M0 0h56v56H0z"/><path d="M17.43 8c.19.03.35.08.5.17.29.16.56.36.81.6.39.37.74.76 1.07 1.17.39.5.73.96 1.02 1.4.22.33.36.56.45.88.05.18.07.5-.1.63-.25.18-.74-.44-.84-.57-.73-.98-1.32-1.79-2.04-2.65a7.9 7.9 0 0 0-.44-.5c-.1-.1-.2-.2-.34-.29a52.4 52.4 0 0 1-.5-.3c-.08-.06-.26-.18-.26-.27 0-.14.33-.25.44-.27h.23ZM23.43 12.67c-.24.87-.43 1.7-.56 2.5-.02.18-.06.3-.1.37-.09.17-.44.48-.65.28-.05-.04-.08-.11-.1-.22a2.5 2.5 0 0 1-.08-.5c0-.06 0-.17.03-.33a23.42 23.42 0 0 1 .69-2.83c.12-.29.39-.85.75-.89.47-.05.33.66.25.89l-.23.73ZM20.2 14.9a4.37 4.37 0 0 0-.73-.66c-.42-.3-.66-.47-.73-.5a.55.55 0 0 1-.25-.66c.05-.13.15-.15.3-.13.38.06.62.22.96.46.32.23.56.43.73.58.15.14.29.32.4.55.1.18.16.39.04.56-.18.26-.6-.07-.72-.2ZM23.69 15.02c.2-.36.55-.95 1.05-.87.4.07.22.75.13.97-.18.41-.3.82-.38 1.24-.08.44-.14.8-.17 1.06a.72.72 0 0 1-.21.48.82.82 0 0 1-.44.24c-.25.04-.34-.11-.4-.32a1.97 1.97 0 0 1-.03-1c.06-.39.14-.78.24-1.18.04-.2.1-.44.2-.62ZM21.34 16.03c.23.18.4.38.64.65.16.19.49.65.23.86-.09.08-.3.06-.41.03a1.72 1.72 0 0 1-.3-.12c-.15-.08-.3-.18-.46-.25l-.73-.37c-.3-.15-.62-.34-.86-.57-.2-.2-.39-.54-.3-.81.02-.09.08-.14.19-.17.34-.1.67-.02.98.12.38.19.72.4 1.02.63ZM25.13 17.2c.07-.08.15-.15.26-.21.2-.12.5-.18.63.07.1.2.11.42.08.64-.03.2-.14.39-.22.62-.21.67-.28 1.35-.36 2.08-.01.1-.05.2-.12.29-.16.2-.46.38-.75.34-.12-.02-.22-.13-.26-.22a1.9 1.9 0 0 1-.16-.69 11.16 11.16 0 0 1 .32-1.92c.1-.37.31-.71.58-1ZM23.02 18.92c.16.16.32.52.1.7-.23.16-.56.17-.82.06-.44-.18-.88-.4-1.32-.66a91.64 91.64 0 0 0-1.37-.8c.01-.26.11-.47.41-.5.22-.03.44-.02.64.03a6.93 6.93 0 0 1 1.3.49c.37.2.77.38 1.06.68ZM22.42 21.7l-.74-.47a.71.71 0 0 1-.34-.48.71.71 0 0 1 .03-.42c.03-.09.1-.14.2-.14.12 0 .22 0 .3.02.33.08.6.17.79.28.46.25.8.77.59 1.27-.08.17-.21.21-.4.13-.17-.07-.31-.13-.43-.2ZM26.67 45.82c-.05.2-.1.35-.14.46-.1.3-.41.75-.8.72-.4-.04-.3-.72-.24-.95a28.8 28.8 0 0 0 .62-3.25c.37-2.93.46-5.88.25-8.84-.28-3.9-1.28-7.7-2.34-11.44-.1-.31-.17-.7-.01-1 .03-.07.07-.1.15-.14.26-.12.5-.1.73.08.25.2.4.55.5.86a57.86 57.86 0 0 1 1.92 9.18c.51 3.6.55 7.25.06 10.85a25.48 25.48 0 0 1-.7 3.47Z" fill="#CB7035"/><path d="m30.48 37.09-1.84.24h-.01v-.02l.15-.92v-.01l2.9-.78.01-.01.02-.02.14-.37a9.06 9.06 0 0 0 .46-4.05c-.4.06-.8.15-1.21.25-1.19.3-1.78.47-2.66.62h-.02V32c-.01-.4-.13-.79-.1-1.01a2300.12 2300.12 0 0 0 3.26-.82.13.13 0 0 0 .1-.08 6.16 6.16 0 0 1 .17-.42 4.15 4.15 0 0 0-1.43-2.14c-.02-.01-.03-.02-.05-.01l-2.64.57c-.03 0-.05 0-.05-.04l-.04-.97c0-.02 0-.03.02-.04l1.04-.22a.05.05 0 0 0 .04-.03l.3-.65a.02.02 0 0 0-.01-.02l-2.15-1.68a.07.07 0 0 1-.02-.03v-.03l.1-.8v-.01h7.01a10.33 10.33 0 0 0 1-.37c.46-.21.84-.5 1.15-.87.2-.24.51-.25.73-.01l.04.09a216.19 216.19 0 0 1 .37 1.2l.67.1c.65.09 1.28.22 1.9.4.88.24 1.74.6 2.47 1.13a4.26 4.26 0 0 1 1.3 1.47l1.07.05a.03.03 0 0 1 .03.01l.3.66a.03.03 0 0 1-.01.04l-.6.47v.02a8.46 8.46 0 0 1-.58 4.35c-.4.97-.98 1.86-1.66 2.69a17.03 17.03 0 0 1-1.16 1.28V36.63l-.02.01-1.26.23c-.05 0-.1.03-.14.07a20.8 20.8 0 0 1-11.2 5.23l.1-1.07.01-.01c1.31-.3 2.55-.68 3.72-1.13a17.36 17.36 0 0 0 5.58-3.48c-.37-.1-.74-.15-1.14-.16a14.2 14.2 0 0 0-1.94.1 55.29 55.29 0 0 0-1.95.28c-.08.13-.14.22-.17.3-.39.74-.6 1.26-1.08 1.75a1 1 0 0 1-.94.25.47.47 0 0 1-.4-.4c-.07-.35-.02-.69.13-1.02a7.75 7.75 0 0 0 .19-.5Zm1.95-12.36v-.01l-2.56.04h-.01v.01l.7.95h.01l1.86-1Zm1 4.82h.01c2.91-.75 5.7-1.7 8.77-2.54a8.33 8.33 0 0 0-4.32-2.12 11.44 11.44 0 0 0-2.23-.16c-.59.53-1.2 1-1.86 1.38a278.81 278.81 0 0 0-1.66 1.02c.26.54.48.9.94 1.73.13.23.25.46.35.69Zm.39 1.54h-.01v.02c.18.93.2 1.87.09 2.82a15.68 15.68 0 0 1-.18 1.22l5.89-.24.02-.01c1.16-1.14 2.2-2.4 2.86-3.86a7.8 7.8 0 0 0 .61-2.25l-9.28 2.3ZM20.97 32.45v.01h.01l3.89-.7c.01 0 .03 0 .04.02l.5.92-.01.02-4.38 1.46v.02c.13.74.34 1.52.68 2.2a3.4 3.4 0 0 0 1.07 1.26l2.94-.8a.02.02 0 0 1 .02 0 .02.02 0 0 1 .01.03l-.18 1.38-.01.03-.03.01-1.17.4c-.02 0-.02.01-.02.03v1.12a.01.01 0 0 1 0 .01h-.02l-1.67-.35h-.04c-.56.2-1.11.41-1.62.7-.2.12-.35.25-.49.4-.05.07-.22.35-.1.42.1.06.26.07.36.08l.18.02c1.1.2 2.25.23 3.38.17a51.2 51.2 0 0 0 1.15-.05v.01l-.05.83a.01.01 0 0 1 0 .01 17.86 17.86 0 0 1-7.07-.57l-1 1.13-.03.02h-.03l-.77-.35-.02-.01v-.03l.15-1.1a.03.03 0 0 0-.02-.04 6.12 6.12 0 0 1-2.85-2.43 5.44 5.44 0 0 1-.7-1.98l-.01-.01-.75-.04c-.02 0-.04-.01-.04-.03l-.27-.94a.04.04 0 0 1 .02-.05l.89-.63a20.27 20.27 0 0 1 2.96-6.16c.04-.06.06-.1.06-.18v-1.18c0-.02 0-.03.03-.03l.94.14h.03c.48-.45.95-.87 1.42-1.28a22.4 22.4 0 0 1 3.37-2.46 11.33 11.33 0 0 1 1.41-.68h.02c.35.54.6 1.18.54 1.8-.04.5-.3.96-.64 1.37-.3.38-.7.81-.99 1.28v.01l2.48-.26h.01l.01.01.1 1.06-.01.01-.02.01-2.98.62h-.02l-.01.02-.65 3.3Zm-.7-4.59v-.93l-.85.8.85.13Zm-3.45 2.57a9.63 9.63 0 0 0-1.9 4l4.44-1.59c.01 0 .02-.01.02-.03l.33-3.21c0-.02 0-.02-.02-.02h-2.1c-.03 0-.05.02-.08.04-.23.24-.46.5-.7.8Zm4.4 7.82-1.83-3.37v-.01h-.02l-4.78 1.37-.02.01v.02a4.08 4.08 0 0 0 1.2 2.66c.16.17.32.32.49.46.16.13.26.23.4.32.45.27 1.1.15 1.58.02.28-.08.57-.16.83-.26.31-.13.61-.28.9-.46.6-.38.92-.58 1.25-.76Z" fill="#0D3B85"/></svg>