<!-- by TradingView --><svg xmlns="http://www.w3.org/2000/svg" width="56" height="56" viewBox="0 0 56 56"><path fill="#F0F3FA" d="M0 0h56v56H0z"/><path d="M24 22c-.05-1.5.88-4.62 5-5 0 3.95-3.33 4.98-5 5z" fill="#80BC04"/><path fill-rule="evenodd" d="M30 24.8v4.17a3.79 3.79 0 0 0 3.75 3.84h1.05l1.2-2.83h-1.52c-.76 0-1.48-.63-1.48-1.4v-4.06l2-.2V22l-2 .1V20h-3v2.24l-2 .1V25l2-.2zM20 20h3v13h-3V20zm-6.26 13a5.8 5.8 0 0 0 4.65-2.29l-2.07-1.97A2.93 2.93 0 0 1 13.85 30c-.61 0-1.18-.17-1.64-.45l5.36-3.38 1.42-.88v-.02H19l-.03-.02A5.75 5.75 0 0 0 13.74 22 5.62 5.62 0 0 0 8 27.5c0 3.04 2.57 5.5 5.74 5.5zM11 27.56l4.05-2.33a3.17 3.17 0 0 0-1.2-.23C12.27 25 11 26.12 11 27.5v.06zM27 23h-3v10h3V23zm20.4 7.71A5.8 5.8 0 0 1 42.73 33 5.62 5.62 0 0 1 37 27.5c0-3.04 2.57-5.5 5.74-5.5a5.75 5.75 0 0 1 5.23 3.25l.03.01-.02.01.01.02-1.42.88-5.36 3.38c.46.28 1.03.45 1.64.45 1.06 0 1.98-.5 2.47-1.26l2.07 1.97zm-3.35-5.48L40 27.56v-.06c0-1.38 1.27-2.5 2.85-2.5.43 0 .84.08 1.2.23z" fill="#EA0D43"/></svg>