<!-- by TradingView --><svg xmlns="http://www.w3.org/2000/svg" width="56" height="56"><path fill="#364575" d="M0 0h56v56H0z"/><path fill-rule="evenodd" d="M45 28a14 14 0 01-22.66 11H24v-2h-3.72c-.27-.32-.53-.66-.77-1H24v-2h-5.65c-.16-.33-.3-.66-.43-1H24v-2h-6.68c-.14-.65-.24-1.32-.28-2H39v-3H17.14c.07-.5.17-1.01.3-1.5H39v-3H18.6a14 14 0 01.9-1.5H39v-3H22.34A14 14 0 0145 28zM31 43c-3.94 0-7.52-1.52-10.2-4H11v-8h5.3a15 15 0 01-.27-2H11V17h9.8A15 15 0 1131 43zm-12.7-7c.23.34.46.68.7 1h-6v-1h5.3zm-1.45-3c.12.34.26.67.4 1H13v-1h3.85zm1.46-13H14v1.5h3.48c.25-.52.52-1.02.83-1.5zm-1.9 4.5H14V26h2.13c.07-.5.16-1 .28-1.5zM39 31H26v8h13v-2H28v-1h11v-2H28v-1h11v-2z" fill="#fff"/></svg>