<!-- by TradingView --><svg xmlns="http://www.w3.org/2000/svg" width="56" height="56"><path fill="#F0F3FA" d="M0 0h56v56H0z"/><path d="M21.5 30.9l-.5-.74c-1 .75-3 1.35-3-1.31 0 0 2.7.74 3.9-1.15.67-1.06.2-2.58-1-2.85-2.6-.6-4.42 2.04-4.34 4.37.1 3 2.94 3.82 4.94 1.69zm-3.3-2.95c0-.47.53-1.33 1.14-1.75 1.32-.92 2.1.72.96 1.46-.51.33-1.58.47-2.1.29zM37.05 32H35.5l1.15-7h1.52l-.2 1.25a3.3 3.3 0 011.75-1.32c.3-.1.63-.1.94-.03 1.41.32.94 2.03.79 3.1l-.6 4H39.2l.7-4.3c.34-2.3-1.62-1.52-2.05.3-.35 1.5-.8 4-.8 4zM23.7 32l.9-4c.46-1.82 2.5-2.56 2.25-1l-1.05 5h1.65l.85-4c.45-1.7 2.28-2.45 2.05-1l-.85 5h1.65l.85-5.7c.19-1.24-1.17-1.67-2.11-1.32-.63.22-1.2.66-1.58 1.2.07-1.18-1.21-1.54-2.12-1.2-.56.2-1.07.56-1.44 1.01l.17-.99H23.4l-1.16 7h1.46z" fill="#007DC3"/><path d="M9.8 22.35c-1.38-2.72-.58-4.5 4.64 1.31.07.07.04.19-.05.22-.05.01-.1 0-.13-.03-.9-.91-1.77-1.94-2.78-2.73-3.05-2.38-.55 2.37 1.41 4.86.1.12.07.3-.06.38a.25.25 0 01-.33-.07c-.9-1.21-2.04-2.61-2.7-3.94zm-3.75 8.92l1.64-4.43a.16.16 0 01.3.1L6.75 31.2c-.1.31 0 .65.23.87a10.73 10.73 0 007.29 2.65c.07 0 .13.06.13.14 0 .07-.05.13-.13.13-4.01.28-6.84-1.47-8.09-2.92a.8.8 0 01-.13-.8zm2.18-5.82l.23-.83a.18.18 0 01.35.06l-.06.63c-.01.12.04.24.13.3 1.9 1.41 4.87 2.17 6.35 2.42.13.02.22.15.19.28a.23.23 0 01-.25.18c-3.63-.51-6.02-2.02-6.87-2.8a.23.23 0 01-.07-.24zm1.52-2.69a.05.05 0 00-.05-.03c-.56 0-.87.15-.7.55a3 3 0 001.46 1c.06.02.1-.06.04-.1-.54-.36-.79-.61-.54-.98a.06.06 0 000-.06 11.2 11.2 0 01-.21-.38z" fill="#6BA763"/><path d="M11.37 23.3l.04.02c.7.13 1.66.34 2.56.6.02 0 .03-.02.02-.03a18.5 18.5 0 00-2.7-.9.05.05 0 00-.06.07l.14.24zm1.66 2.6a.24.24 0 01-.07-.06 116.8 116.8 0 01-.42-.62v-.27c0-.03.03-.05.06-.03.62.42 1.7.84 2.4.93l.02.04v.2c0 .01-.01.03-.03.03a5.5 5.5 0 01-2-.65c-.02-.02-.06.02-.05.05l.04.07.02.02c.34.1.6.4.6.78a.8.8 0 11-1.57-.19c0-.02.03-.03.05-.02l.18.08c.02.01.02.03.02.04v.09a.53.53 0 10.75-.49zm34.31 7.9c-1.29-1.13-3.19-5.22-.52-3.88.03.02.05.05.05.08v.17c0 .06-.06.1-.12.08-1.59-.49.01 2.56.7 3.28l.02.06v.14c0 .07-.08.11-.13.07z" fill="#6BA763"/><path d="M49 25.45c-1-.85-3.1-.96-3.5.74-.3 1.3.4 2 1 2.58.37.38.7.71.7 1.12 0 .58-.35 1-.87 1.05.1.36.31.8.56 1.2a2.18 2.18 0 001.57-1.24c.65-1.4-.22-2.32-.93-3.06-.39-.41-.73-.77-.73-1.12 0-1.44 1.8-.32 1.8-.32l.4-.95zm-3.76 5.15c.06.45.24 1 .48 1.52-.5-.12-.97-.37-1.32-.75l.4-1.16c.15.15.3.28.44.39z" fill="#007DC3"/><path d="M44.34 27.92v.22a.1.1 0 01-.16.07c-3.96-3.93-3.53-9.07 1.3-3.53a.1.1 0 01.02.06v.12a.1.1 0 01-.17.07c-1.14-1.13-2.11-1.87-2.62-1.86-.84 0-.68 1.91 1.61 4.79a.1.1 0 01.02.06zm-9.66.02v.22a.1.1 0 01-.16.07c-3.97-3.93-3.54-9.08 1.29-3.54a.1.1 0 01.02.07v.12a.1.1 0 01-.16.06c-1.14-1.12-2.12-1.86-2.63-1.86-.84.02-.68 1.92 1.62 4.8a.1.1 0 01.02.06z" fill="#6BA763"/><path d="M34.71 27.38l.31-2.38H33.5l-.06.5c.29.55.75 1.18 1.27 1.88zm-1.57-.19l-.8 4.81h1.53l.53-3.24c-.5-.52-.91-1.05-1.26-1.57zm11.22.19l.31-2.38h-1.52l-.06.5c.3.55.75 1.18 1.27 1.88zm-1.56-.19L42 32h1.52l.53-3.24c-.49-.52-.91-1.05-1.26-1.57z" fill="#007DC3"/></svg>