<!-- by TradingView --><svg width="56" height="56" viewBox="0 0 56 56" xmlns="http://www.w3.org/2000/svg"><path fill="#F0F3FA" d="M0 0h56v56H0z"/><path d="M26.04 25a2.58 2.58 0 0 1 2.13-.97c1.74 0 3.02 1.18 3.02 2.95 0 1.78-1.27 2.96-3.02 2.96-.85 0-1.6-.31-2.09-.94v3H25v-8h1.04v1Zm-11-.05c.44-.59 1.17-.92 2.09-.92.91 0 1.69.35 2.09 1.08a2.7 2.7 0 0 1 2.12-1.07h.2c1.46 0 2.46.8 2.46 2.51V30h-1.1v-3.32c0-1.14-.56-1.7-1.55-1.7-1.09 0-1.8.66-1.8 1.93V30h-1.1v-3.33c0-1.14-.56-1.7-1.55-1.7-1.1 0-1.8.66-1.8 1.93V30H14v-6h1.05v.94ZM10.03 24A2.84 2.84 0 0 1 13 26.7v.33l-.01.32H8.09c.14 1.03.99 1.72 2.18 1.72.7 0 1.3-.23 1.74-.71l.6.69c-.54.62-1.37.95-2.37.95C8.3 30 7 28.73 7 27c0-1.75 1.28-3 3.02-3Zm24.52 0c1.57 0 2.46.77 2.46 2.37V30h-.99v-.87c-.34.53-.98.84-1.88.84-1.3 0-2.13-.7-2.13-1.72 0-.94.6-1.71 2.31-1.71h1.65v-.21c0-.9-.51-1.41-1.54-1.41-.68 0-1.38.24-1.82.62l-.44-.79c.6-.49 1.46-.75 2.38-.75Zm5.64 3.77c.31 0 .6.1.85.32.23.22.35.48.35.79 0 .32-.12.6-.34.8-.24.21-.52.32-.86.32h-.12A1.16 1.16 0 0 1 39 28.87c0-.29.12-.54.35-.77.24-.22.51-.33.83-.33Zm4.3 0c.33 0 .62.1.86.32.23.22.35.48.35.79 0 .32-.11.6-.34.8-.23.21-.52.32-.86.32h-.12a1.16 1.16 0 0 1-.72-.33 1.08 1.08 0 0 1-.34-.8c0-.29.12-.54.35-.77.24-.22.51-.33.83-.33Zm4.32 0c.32 0 .6.1.85.32.23.22.35.48.35.79 0 .32-.11.6-.34.8-.23.21-.52.32-.86.32h-.12a1.15 1.15 0 0 1-1.06-1.13c0-.29.12-.54.35-.77.24-.22.51-.33.83-.33Zm-14.45-.47c-1.03 0-1.32.4-1.32.9 0 .58.49.95 1.27.95s1.4-.37 1.66-1.04v-.81h-1.6Zm-6.27-2.35c-1.14 0-2.01.8-2.01 2.03 0 1.24.86 2.05 2 2.05 1.16 0 2.03-.81 2.03-2.05 0-1.22-.88-2.03-2.02-2.03Zm-18.06-.05c-1.04 0-1.82.69-1.93 1.69h3.86a1.87 1.87 0 0 0-1.93-1.7Zm30.16-.9c.31 0 .6.1.85.32.23.22.35.48.35.79 0 .32-.12.6-.34.8-.24.22-.52.32-.86.32h-.12A1.16 1.16 0 0 1 39 25.1c0-.3.12-.55.35-.77.24-.23.51-.34.83-.34Zm4.3 0c.33 0 .62.1.86.32.23.22.35.48.35.79 0 .32-.11.6-.34.8-.23.22-.52.32-.86.32h-.12a1.16 1.16 0 0 1-.72-.33 1.08 1.08 0 0 1-.34-.8c0-.28.12-.54.35-.76.24-.23.51-.34.83-.34Zm4.32 0c.32 0 .6.1.85.32.23.22.35.48.35.79 0 .32-.11.6-.34.8-.23.22-.52.32-.86.32h-.12a1.15 1.15 0 0 1-1.06-1.12c0-.3.12-.55.35-.77.24-.23.51-.34.83-.34Z" fill="#66B333"/></svg>