<!-- by TradingView --><svg width="56" height="56" viewBox="0 0 56 56" xmlns="http://www.w3.org/2000/svg"><path fill="#F0F3FA" d="M0 0h56v56H0z"/><path d="M33 18c0 5-7.5 7.5-9 8l-.21.07c-1.75.57-6.79 2.2-6.79 8.43 0 1.47.35 4.13 1.25 6.19A16 16 0 0 1 28 12c3.6 0 5 2.5 5 6Z" fill="url(#a)"/><path d="M35.17 13.7C37.42 15.62 38 18.5 38 21c0 4-2 7-7.5 9S22 35.5 22 39c0 3.43 3.08 5 6 5a16 16 0 0 0 7.17-30.3Z" fill="url(#b)"/><defs><linearGradient id="a" x1="17" y1="16.5" x2="23.5" y2="24" gradientUnits="userSpaceOnUse"><stop stop-color="#AEEF00"/><stop offset="1" stop-color="#124A00"/></linearGradient><linearGradient id="b" x1="28.5" y1="30" x2="38" y2="39" gradientUnits="userSpaceOnUse"><stop stop-color="#94D400"/><stop offset=".64" stop-color="#1C5707"/><stop offset="1" stop-color="#041C02"/></linearGradient></defs></svg>