<!-- by TradingView --><svg width="56" height="56" viewBox="0 0 56 56" xmlns="http://www.w3.org/2000/svg"><path fill="#F0F3FA" d="M0 0h56v56H0z"/><path d="m18.39 43.86 5.2-1.75c.92-.31 1.39-.84 1.39-1.58l.02-6.75c0-.74-.46-.95-1.39-.64l-5.2 1.75c-.92.31-1.39.84-1.39 1.58L17 43.22c0 .74.46.95 1.39.64Z" fill="#D3BC00"/><path d="M24 12.28v6.45c0 .85.38 1.27 1.14 1.27h5.73c.75 0 1.13-.43 1.13-1.28v-6.45c0-.85-.38-1.27-1.14-1.27h-5.73c-.75 0-1.13.43-1.13 1.28Z" fill="#72B0C0"/><path d="M11.88 22.17a5 5 0 1 1 8.24 5.66 5 5 0 0 1-8.24-5.66Z" fill="#FFCB00"/><path d="M36 22.98v5.57c0 .3.16.45.46.45h5.57C44 29 45 28 45 26.01v-5.57c0-.3-.16-.45-.46-.45h-5.57C37 20 36 21 36 22.99Z" fill="#927CA5"/><path d="m39.77 40.16-1.6-2.98-1.6-2.99a1.69 1.69 0 0 0-1.5-.93c-.63 0-1.19.32-1.51.9l-1.66 2.93-1.65 2.94a1.87 1.87 0 0 0-.02 1.83c.31.58 1.04 1.13 1.67 1.14h6.33c.64 0 1.2-.43 1.52-1.01.33-.58.33-1.25.02-1.83Z" fill="#F07C00"/></svg>