<!-- by TradingView --><svg width="56" height="56" viewBox="0 0 56 56" xmlns="http://www.w3.org/2000/svg"><path fill="#F0F3FA" d="M0 0h56v56H0z"/><path d="M6.18 28c.48-2.73 1.96-5.1 4.04-6.73 1.6-2.1 3.95-3.6 6.65-4.1a10.8 10.8 0 0 0-8.6 2.13 11.03 11.03 0 0 0-2.1 8.7Z" fill="#F99D1C"/><path d="M16.87 17.18c2.69.49 5.04 1.98 6.65 4.09 2.07 1.63 3.55 4 4.04 6.73a11.14 11.14 0 0 0-2.1-8.7 10.73 10.73 0 0 0-8.6-2.12Z" fill="#AA55A1"/><path d="M10.22 21.27a10.73 10.73 0 0 1 13.3 0 10.83 10.83 0 0 0-6.65-4.1c-2.7.5-5.04 2-6.65 4.1Z" fill="#FFCE7B"/><path d="M16.87 38.82c-2.7-.5-5.04-1.99-6.65-4.09-2.08-1.63-3.56-4-4.04-6.73a11.13 11.13 0 0 0 2.1 8.7 10.73 10.73 0 0 0 8.59 2.12Z" fill="#00AEEF"/><path d="M10.22 21.27c-2.08 1.63-3.56 4-4.04 6.73.48 2.73 1.96 5.1 4.04 6.73a11.04 11.04 0 0 1 0-13.46Z" fill="#C7EAFB"/><path d="M27.56 28a11.02 11.02 0 0 1-4.04 6.73 10.84 10.84 0 0 1-6.65 4.1 10.76 10.76 0 0 0 8.59-2.13 11.03 11.03 0 0 0 2.1-8.7" fill="#8DC63F"/><path d="M10.22 34.73c1.6 2.1 3.95 3.6 6.65 4.09 2.69-.5 5.04-1.99 6.65-4.09a10.74 10.74 0 0 1-13.3 0Z" fill="#C6DE89"/><path d="M23.52 34.73c2.07-1.63 3.55-4 4.04-6.73a11.02 11.02 0 0 0-4.04-6.73 11.04 11.04 0 0 1 0 13.46Z" fill="#D3B6D7"/><path d="M17.47 24h1.03c.26 0 .42.23.43.5l.03.37c.4-.36.76-.87 1.94-.87 1.33 0 2.1.87 2.1 2.09v5.38c0 .28-.1.53-.36.53h-1.18c-.26 0-.46-.25-.46-.53V26.6c0-.56-.07-.83-.7-.83-.72 0-1 .45-1.3.7v5c0 .28-.08.53-.33.53h-1.2c-.26 0-.47-.25-.47-.53V24.5c0-.27.2-.5.47-.5ZM16 26.29v1.8c0 .25-.1.36-.33.36H12v1.15c0 .55.13.86.99.86.85 0 1-.31 1-.86v-.08c0-.26.1-.52.36-.52h1.25c.25 0 .4.26.4.52v.18c0 1.4-.9 2.3-3.03 2.3S10 31.1 10 29.7v-3.41c0-1.39.86-2.29 2.99-2.29 2.11 0 3.01.9 3.01 2.29Zm-4 .1V27h2v-.6c0-.55-.2-.86-1.01-.86-.83 0-.99.31-.99.86ZM29.9 24.11c.17 0 .22.09.24.29l.02.43a3.05 3.05 0 0 1 2.08-.83c1.21 0 1.76.76 1.76 1.92v3.4c0 1.15-.55 1.91-1.76 1.91a3.09 3.09 0 0 1-2.05-.79v3.3c0 .17-.07.26-.23.26h-.72c-.18 0-.24-.09-.24-.27V24.4c0-.2.06-.28.24-.28h.66Zm2.91 2.02c0-.5-.2-.91-.92-.91-.81 0-1.43.49-1.7.73v3.35c.27.22.89.72 1.7.72.71 0 .92-.43.92-.92v-2.97ZM35.15 25.85c0-1.1.67-1.85 2.43-1.85 1.8 0 2.42.75 2.42 1.85v4.77c0 .19-.06.27-.23.27h-.67c-.18 0-.23-.08-.24-.27l-.03-.4a3.1 3.1 0 0 1-2.02.78c-1.2 0-1.81-.77-1.81-1.65v-.66c0-.89.59-1.65 1.78-1.65h2.03v-1.06c0-.56-.27-.93-1.25-.93-.97 0-1.27.33-1.27.9v.1c0 .2-.06.27-.24.27h-.67c-.16 0-.23-.08-.23-.27v-.2Zm3.66 3.37v-1.17h-1.77c-.64 0-.85.3-.85.83v.27c0 .54.28.77.93.77.78 0 1.4-.45 1.69-.7ZM44.24 24c-.94 0-1.67.6-2.02.97l-.04-.6c-.01-.17-.06-.26-.25-.26h-.68c-.19 0-.25.08-.25.27v6.34c0 .2.06.28.25.28H42c.17 0 .23-.08.23-.28v-4.65c.3-.28 1.04-.82 2.01-.89.17-.01.26-.08.26-.28v-.64c0-.18-.09-.26-.26-.26ZM45.15 25.85c0-1.1.67-1.85 2.43-1.85 1.8 0 2.42.75 2.42 1.85v4.77c0 .19-.06.27-.23.27h-.67c-.18 0-.23-.08-.24-.27l-.03-.4a3.1 3.1 0 0 1-2.02.78c-1.2 0-1.81-.77-1.81-1.65v-.66c0-.89.59-1.65 1.78-1.65h2.03v-1.06c0-.56-.27-.93-1.25-.93-.97 0-1.27.33-1.27.9v.1c0 .2-.06.27-.24.27h-.67c-.16 0-.23-.08-.23-.27v-.2Zm3.66 3.37v-1.17h-1.77c-.64 0-.85.3-.85.83v.27c0 .54.28.77.93.77.78 0 1.4-.45 1.69-.7Z" fill="#AA55A1"/></svg>