<!-- by TradingView --><svg width="56" height="56" viewBox="0 0 56 56" xmlns="http://www.w3.org/2000/svg"><path fill="#F0F3FA" d="M0 0h56v56H0z"/><path d="M26.41 45.7c.2.14.47.34.58.5l.1.15-.07.16a.76.76 0 0 1-.12.16l-.02.02-.03.05a.53.53 0 0 1-.18.16l-.16.1-.2-.15a8.18 8.18 0 0 0-3.63-1.88 16.4 16.4 0 0 0-5.58-.38c-.63.07-1 .11-1.6-.38-.29-.25-.53-.87-.72-1.35l-.13-.3-1.38-3.26c-.16-.35-.26-.7-.27-1.05 0-.36.1-.71.36-1.08.44-.56.86-.6 1.38-.65a2.9 2.9 0 0 0 1.86-.79 6.16 6.16 0 0 0 1.72-2.76c.42-1.28.57-2.72.5-3.97a8.86 8.86 0 0 0-1.34-4.18c-.66-1-1.54-1.69-2.58-1.8-.1-.02-.2-.02-.28-.02a1.63 1.63 0 0 1-1.48-1.05c-.13-.32-.18-.7-.1-1.1.09-.36.88-1.76 1.36-2.59.57-1 1.16-2 1.7-3.02l.3-.51c.18-.28.5-.54.87-.65.3-.1.67-.1 1.04.04.28.12.43.28.61.45.72.69 1.79.94 2.66.35.45-.3.8-.74 1-1.25.04-.12.08-.23.1-.36.06-.35.02-.73.12-1.08.1-.33.3-.68.62-.93.25-.2.57-.34.94-.3h8.3c.36-.02.68.1.94.3.3.25.51.6.61.93.13.47.06.97.23 1.44.2.5.53.96.99 1.25.87.53 1.96.38 2.66-.35.18-.17.35-.33.62-.45.36-.16.72-.15 1.03-.04.38.11.69.37.87.65.6.97 1.12 2 1.68 3l.3.53c.48.83 1.28 2.23 1.37 2.59a1.82 1.82 0 0 1-.82 1.95c-.33.18-.64.15-.99.22a5.3 5.3 0 0 0-1.93 1.54c-.48.68-.8 1.6-.97 3v.02c-.4 2.05-1.59 1.96-.96.01.07-1.16.26-2.03.61-2.76.37-.75.88-1.35 1.57-2 .76-.72 1.29-.76 1.74-.8.22-.03.42-.05.6-.2a.72.72 0 0 0 .17-.24c.04-.1.07-.22.07-.33 0-.9-1.36-2.63-1.75-3.3-.48-.83-.96-1.68-1.4-2.52-.05-.07-.07-.13-.12-.17a.7.7 0 0 0-.37-.25c-.28-.06-.58.15-.75.36-.35.32-.61.57-1.27.76a2.96 2.96 0 0 1-2.74-.54 3.61 3.61 0 0 1-1.32-2.56l-.01-.16c-.03-.52-.2-.79-.69-.88h-8.27a1.3 1.3 0 0 0-.36.1.42.42 0 0 0-.18.17c-.24.37-.17 1.02-.28 1.44-.2.76-.63 1.43-1.2 1.9-.73.57-1.66.83-2.75.53-.65-.19-.92-.44-1.27-.76-.22-.18-.4-.44-.74-.36a.72.72 0 0 0-.5.42c-.83 1.59-1.71 3.16-2.64 4.7-.22.39-.5.85-.5 1.12 0 .11.03.23.07.33.04.12.11.2.17.25.18.16.37.17.63.19 1.83.12 3.21 1.57 3.99 3.2.57 1.22.9 2.61.96 3.89.07 1.47-.1 2.86-.5 4.06a7.46 7.46 0 0 1-1.82 3.1 4.44 4.44 0 0 1-1.41.97c-.54.24-.93.26-1.24.29-.22.01-.39.03-.54.13-.24.17-.31.36-.31.56 0 .24.11.5.2.73l.33.8.35.83a44.31 44.31 0 0 0 .81 1.96c.17.42.35.87.56 1.02.18.13.35.1.59.07l.18-.01c1.63-.16 3.53-.12 5.32.26 1.5.32 2.92.87 4.02 1.73l.11.07Z" fill="#CBA960"/><path d="M29.46 42.86c-.1-.03-1.72-.08-2.02-.1-.63-.06-1.25-.15-1.79-.29-1.84-.49-1.38-1.22-1.33-2.47-.2.06-.19.14-.27.33-.07.15-.1.28-.15.41-.32.94-.55 1.9.84 2.12 1.05.17 2.98.15 4.17.12.15 0 .44.04.56-.04l-.01-.08Z" fill="#CBA960"/><path d="M37 33.86c.39-.13.99-.36 1.33-.09.62.5-.3 1.95-.6 2.44-.41.71-.88 1.45-1.36 2.05-1.15 1.42-.07 1.79-.15 2.5a1 1 0 0 1-.82.88c-4.4.74 1.33-6.14 1.6-7.78Zm-16.99 4c-.43.02-.84.08-1.23.18-.43.12-.81.23-.9.67-.13.55.16.81.63.87.96.1 2.29.7 3.23.5.94-.24.72-.03 1.08-1.02.14-.36.28-1.9.25-.02.9.02 1.63-.21 2.58-.08 1.49.2 3.32 1.4 4.6 2.23.27.18.56.4.85.52.15-.14.25-.4.35-.6.08-.16.23-.46.28-.63l.94.04c0-.37.06-.72.13-1.08l-.88-.24c-.04-.35.11-.62-.2-.64-.48-.01-1.51.06-1.87-.1l-2.56-.98a7.29 7.29 0 0 0-3.76-.28c-.7.15-.98.64-.73.16.64-1.35 1.08-2.38 1.83-3.69.78-1.26.6-3.22 4.63-3.28 1.55-.01 3.22-.06 4.75.03.4.03.62.1.9.3.64.46.28 1.05.06 1.8-.4 1.33.99.54.34 1.95-.99 2.26-.88 2.95-2.3 4.8-.24.37-.2 1.23-.14 1.7.12 1.03 1.1.76 2.13.98.44.13.4-.02.83-.06a.9.9 0 0 0 .8-.71c.06-.3.02-.61-.1-.89-.44-1.07-.56-1.13.18-2.12l1.3-1.71c.82-1.03.9-1.67 1.12-1.9 1.3-1.36.4-3.43.01-5.7-.13-.72-.64-1.28-1.07-1.82l-.8-.89c-.23-.26-.42-.26-.84-.26-.16-.7-2.27-1.38-3-1.78-.65-.37-1.17-.86-1.5-.15a4.05 4.05 0 0 0-.4 2.03c.1-.11.24-.39.35-.53.43-.61.72-1 1.64-.79.71.16 1.78.73 2.18 1.27.52.69-.5 3.65-1.22 3.65h-5.1l-1.7-.01c-.86-.01-1.28-.07-1.84-.75-.22-.28-.12-.27-.47-.38a1.17 1.17 0 0 1-.65-1.69c.12-.21.26-.3.37-.48.18-.26.52-.8.71-1.01.46.06.77.6.97.99.1.17.14.27.38.3-.25-1.15.95 1.02.97.9-.84-.03-.6.64-.16.84-.02-.2 2.35.63 2.85-.67.18-.5.36-1.17.5-1.7.3-1.18.5-2.65-.04-3.77-.56-1.16-1.9-1.4-3-.96-1 .4-1.5 1.4-1.58 2.78-.18-.03-.25.01-.36.11-.64.6-.92 1.03-1.38 1.85-.22.42-.54.6-.96.88-.58.4-.23.93-.26 1.42-1.09-.22-1.55 1.83-1.34 2.41-.82.37-1.18 3.98-1.32 4.92-.32 2.3-.42 1.43-.99 2.15a.68.68 0 0 1-.07.15Zm.24 1.08a4.3 4.3 0 0 1 .28-1.25c.17-.33.22-.24.32-.46.39-.84.58-3.2.97-4.38.13-.4.3-.74.52-1.03.86-1.08 2.57.39 2.07 1.56-.11.26-.51.6-.72.8-1.04 1.02-.6 2.75-1.66 3.67-.6.54-.18 1.28-.23 1.9-.45.1-1.58-.24-1.55-.8Z" fill="#CBA960"/></svg>