<!-- by TradingView --><svg width="56" height="56" viewBox="0 0 56 56" xmlns="http://www.w3.org/2000/svg"><path fill="#F0F3FA" d="M0 0h56v56H0z"/><path d="M30.36 13.05c.06.12.16.28.3.48.15.22.24.38.27.48.11.33.09.85-.11 1.16-.2.3-.39.54-.5.83-.27.64-.27 1.3-.02 1.98.13.34.53.75.64 1.1.1.35.08.84-.13 1.15-.3.48-.55.78-.65 1.32-.1.59-.03 1.14.22 1.64.15.3.43.59.54.9.12.37.1.73-.04 1.08-.08.19-.27.41-.39.6a2.4 2.4 0 0 0-.37 1.2c0 .02-.01.03-.03.03h-1.05C29 27 29 27 29 26.97V13.04l.01-.03h1.27c.04 0 .06 0 .08.04ZM31.25 22.49a1.6 1.6 0 0 1-.02-.83c.03-.11.12-.27.26-.47.17-.26.27-.4.38-.6.36-.7.3-1.7-.13-2.35-.2-.3-.44-.57-.51-.88-.07-.3-.06-.6.05-.89.03-.1.15-.27.34-.53.64-.86.65-2.03.03-2.9-.02-.03-.01-.04.02-.04h1.83c.03 0 .04.01.05.03.1.16.2.33.33.5a1.4 1.4 0 0 1 .1 1.73l-.25.36a2.45 2.45 0 0 0-.07 2.65c.13.22.4.52.5.79.1.3.1.62-.01.95-.11.33-.5.71-.64 1.05-.26.65-.27 1.3-.02 1.92.1.28.29.52.47.78.29.4.34.86.18 1.33-.06.18-.2.34-.33.52-.3.4-.47.86-.5 1.36 0 .02 0 .03-.03.03h-2.06c-.02 0-.03-.01-.03-.03.02-.24.1-.45.23-.63.2-.28.34-.49.42-.63.43-.81.33-1.85-.22-2.6-.1-.13-.32-.42-.37-.62ZM34.47 22.49a1.6 1.6 0 0 1-.01-.83c.03-.11.11-.27.25-.47.18-.26.28-.4.39-.6.35-.7.3-1.7-.13-2.35-.2-.3-.44-.57-.52-.88-.07-.3-.05-.6.05-.89.04-.1.15-.27.35-.53.64-.85.65-2.03.03-2.9-.02-.03-.01-.04.01-.04h1.84c.03 0 .04.01.05.03.1.17.2.33.33.5a1.4 1.4 0 0 1 .1 1.73l-.25.37a2.45 2.45 0 0 0-.07 2.64c.13.22.4.52.5.8.1.3.1.61-.02.94-.1.33-.5.71-.63 1.05-.27.65-.27 1.3-.03 1.92.11.28.3.52.48.78.29.4.34.86.18 1.33-.06.18-.2.35-.33.52-.3.4-.47.86-.5 1.36 0 .02-.01.03-.03.03h-2.07c-.02 0-.02 0-.02-.03.02-.24.1-.45.22-.63.2-.28.35-.49.42-.63.44-.81.34-1.85-.21-2.6-.1-.13-.32-.42-.38-.62ZM37.7 22.49a1.6 1.6 0 0 1-.01-.83c.02-.11.1-.27.25-.47.18-.26.28-.4.38-.6.36-.7.3-1.7-.13-2.35-.2-.3-.44-.57-.51-.88-.07-.3-.05-.6.05-.89.03-.1.15-.27.35-.53.63-.86.64-2.03.02-2.9-.01-.03 0-.04.02-.04h1.84c.02 0 .04.01.05.03l.32.5c.16.2.25.37.29.5.13.42.07.85-.18 1.22l-.26.38a2.45 2.45 0 0 0-.06 2.64c.13.22.4.52.49.8.1.3.1.61 0 .94-.12.33-.51.71-.65 1.05-.26.65-.27 1.3-.02 1.92.1.28.3.52.48.78.28.4.34.86.17 1.33-.06.18-.2.34-.33.52-.3.4-.47.86-.5 1.36 0 .02 0 .03-.02.03h-2.07c-.02 0-.03-.01-.03-.03.02-.24.1-.45.23-.63.2-.28.34-.49.42-.63.44-.81.34-1.85-.21-2.6-.1-.13-.32-.42-.38-.62ZM41.74 13.97a2.25 2.25 0 0 0-.42-.96H43V26.97c0 .02 0 .03-.03.03H40.9a.03.03 0 0 1-.03-.03c.03-.42.24-.63.5-1a2.59 2.59 0 0 0 .33-2.07 2.02 2.02 0 0 0-.22-.52c-.14-.25-.46-.59-.55-.88-.09-.3-.08-.61.02-.93.06-.22.26-.43.43-.68a2.48 2.48 0 0 0 .12-2.54c-.06-.1-.21-.33-.47-.68a.94.94 0 0 1-.14-.43c-.04-.35-.02-.65.18-.95l.32-.48c.37-.55.46-1.2.35-1.84Z" fill="#DC6928"/><path d="M13.8 13.8a6.76 6.76 0 0 0-.8.9v-1.68l.01-.01h.01L14.7 13c.03 0 .03 0 0 .02-.32.24-.6.5-.9.79ZM26.97 13.06l.02.01a.06.06 0 0 1 .01.04v1.76c0 .07-.02.08-.06.02a7.77 7.77 0 0 0-1.8-1.89h1.82v.04l.01.02ZM18.86 13.6a6.2 6.2 0 0 0-5.28 6.6 5.64 5.64 0 0 0 2.13 4 5.37 5.37 0 0 0 7.82-1.1c.72-1.1.96-2.3.73-3.63a4.48 4.48 0 0 0-5.2-3.69 4 4 0 0 0-2.32 1.29 3.76 3.76 0 0 0-.97 2.83 3.45 3.45 0 0 0 2.96 3.3c.7.08 1.34-.04 1.93-.36.37-.2.68-.46.93-.79.7-.9.8-2.22.1-3.21a2.28 2.28 0 0 0-2.28-.91c-.45.08-.93.38-1.2.77a1.73 1.73 0 0 0-.21 1.49c.25.65.7.94 1.37.87a.85.85 0 0 0 .6-.34c.38-.45-.5-.65-.78-.58h-.05c-.14-.07-.23-.16-.26-.28-.14-.58.42-1.04.94-1.03.34 0 .63.1.86.32.51.48.67 1.06.47 1.73a2.1 2.1 0 0 1-2.6 1.32 2.6 2.6 0 0 1-1.8-1.93c-.1-.4-.1-.81 0-1.22a3.23 3.23 0 0 1 4.31-2.18 3.74 3.74 0 0 1 2.34 3.86c-.1.84-.4 1.57-.92 2.18a4.38 4.38 0 0 1-6.35.39 4.83 4.83 0 0 1-1.6-4.32 5.34 5.34 0 0 1 4.41-4.46c.18-.04.34-.02.51-.06l.21-.02a5.89 5.89 0 0 1 5.84 7.08 6.44 6.44 0 0 1-7.21 5.1 6.98 6.98 0 0 1-5.22-3.73.56.56 0 0 1-.07-.27v-5.97c0-.08.04-.2.08-.27a7.64 7.64 0 0 1 3.37-3.34c.05-.02.1-.02.15-.02a21698.3 21698.3 0 0 1 6.65.02 8.03 8.03 0 0 1 3.68 3.63c.05.09.07.2.07.34l-.01 6.6c0 .1-.05.18-.02.3v.05l-.07.2c-.56 1.07-1.3 1.99-2.24 2.75-.11.1-.22.1-.35.09a130.94 130.94 0 0 0-2.18-.02 7.25 7.25 0 0 0 4.32-7.76 6.8 6.8 0 0 0-2.11-3.96 6.8 6.8 0 0 0-5.48-1.67ZM13.15 24.69c.77.96 1.72 1.7 2.84 2.23.06.03.13.05.2.06l.02.01V27h-3.18c-.02 0-.03-.01-.03-.03V24.5c0-.03 0-.03.02 0l.13.19ZM26.98 25.9l.01.01v1.06c0 .02 0 .03-.02.03h-.98v-.01a7.22 7.22 0 0 0 .98-1.13l.01.03Z" fill="#76AFDA"/><path d="M30.44 30.1c-.62.1-1.01.55-1.4 1.05-.03.04-.04.03-.04 0v-2.12c0-.02.01-.03.03-.03H43l.01.01v2.53h-.01a.02.02 0 0 1-.03 0 1.6 1.6 0 0 1-.24-.2c-.49-.6-.87-1.15-1.65-1.26a1.77 1.77 0 0 0-1.44.44c-.19.17-.41.42-.67.76-.33.42-.87.48-1.23.07l-.4-.48c-.42-.53-.96-.85-1.66-.8-.8.05-1.24.6-1.73 1.22-.34.43-.9.46-1.26.02-.33-.4-.52-.66-.82-.89-.42-.31-.9-.42-1.42-.33Z" fill="#1B7ABE"/><path d="M14.15 29a102.15 102.15 0 0 1 1.03.02 20.58 20.58 0 0 0-1.03 1.02A20.35 20.35 0 0 0 13.13 29h1.02ZM15 30.7l1.83-1.7H19.13l.01.01v.02l-2.96 2.74a.02.02 0 0 1-.02.01h-.01L15 30.71v-.02ZM23.08 29.02l-4.95 4.75a.01.01 0 0 1-.02 0l-1.13-1.09a.02.02 0 0 1 0-.03l3.66-3.5c.1-.1.2-.15.32-.15a188.07 188.07 0 0 0 2.12.02ZM20.1 35.77l-1.16-1.13a.02.02 0 0 1-.01-.01v-.01L24.7 29l.01-.01h2.32l.01.01a.02.02 0 0 1 0 .02l-6.91 6.74a.02.02 0 0 1-.02 0ZM21.1 38.41l-.95.95h-.02L13 32.16v-1.92a.02.02 0 0 1 0-.02.02.02 0 0 1 .03 0l8.05 8.16v.03ZM21.87 37.58l-.95-.96v-.03l6.04-6.2a.02.02 0 0 1 .04 0v1.96l-5.1 5.23a.02.02 0 0 1-.03 0Z" fill="#8C765E"/><path d="M33.57 32.63c.72-.1 1.1-.62 1.54-1.14.29-.35.64-.54 1.06-.3.11.06.23.17.36.34.4.5.8.98 1.46 1.09a1.8 1.8 0 0 0 1.72-.63l.53-.63a.71.71 0 0 1 .85-.22c.29.1.6.57.77.79.3.35.67.58 1.11.7.02 0 .03.02.03.04v2.03l-.01.01h-.02c-.14-.1-.24-.2-.32-.3-.46-.58-.89-1.1-1.67-1.18-.96-.09-1.48.5-2.02 1.21a1 1 0 0 1-.45.32c-.62.16-.88-.39-1.25-.8-.16-.18-.3-.32-.43-.4a1.77 1.77 0 0 0-1.89-.12c-.38.23-.6.52-.92.9-.3.38-.6.57-1.06.37a.96.96 0 0 1-.35-.31l-.36-.45c-.5-.62-1.3-.9-2.04-.63a2.64 2.64 0 0 0-1.18 1H29L29 34.3v-1.8l.02-.02c.5-.25.84-.7 1.16-1.1.3-.38.83-.42 1.17-.05.24.27.45.56.73.82.41.4.94.55 1.5.47Z" fill="#1B7ABE"/><path d="M13.23 34c1.15 1.18 3.18 3.24 6.08 6.16.02.02.02.04 0 .05l-.9.93h-.05l-5.33-5.4A179.23 179.23 0 0 1 13 33.8c0-.02 0-.02.03 0l.19.2Zm-.1-.05v-.01a.09.09 0 0 0-.02-.03h-.01v.02a.09.09 0 0 0 .03.02ZM20.05 43H18.2a.02.02 0 0 1 0-.02v-.01L26.97 34H27a.02.02 0 0 1 .01.01v1.89L20.07 43l-.02.01Z" fill="#8C765E"/><path d="M33.57 35.93c.72-.1 1.1-.62 1.54-1.14.29-.35.63-.55 1.06-.3.11.05.23.17.36.34.4.5.8.98 1.46 1.09a1.8 1.8 0 0 0 1.72-.64l.53-.62a.71.71 0 0 1 .85-.22c.29.1.6.57.77.78.3.36.67.6 1.11.7.02.01.03.02.03.04V38h-.01l-.01.01c-.15-.1-.25-.2-.33-.3-.46-.59-.89-1.1-1.67-1.18-.96-.09-1.48.5-2.02 1.2a1 1 0 0 1-.45.33c-.62.15-.88-.4-1.25-.8-.16-.19-.3-.32-.43-.41a1.77 1.77 0 0 0-1.89-.1c-.38.21-.6.5-.92.9-.3.37-.6.56-1.06.36a.96.96 0 0 1-.35-.31l-.36-.45c-.5-.62-1.3-.9-2.04-.63a2.64 2.64 0 0 0-1.18 1H29a.02.02 0 0 1-.01-.01v-1.79a.03.03 0 0 1 .02-.03c.5-.25.84-.7 1.16-1.1.3-.38.83-.42 1.17-.05.24.27.45.56.73.82.41.39.93.55 1.5.47Z" fill="#1B7ABE"/><path d="m13.03 37.37 4.52 4.57a.05.05 0 0 1 0 .06l-.91.92h-.04l-3.48-3.53a.38.38 0 0 1-.12-.27v-1.74c0-.03.01-.03.03-.01Z" fill="#8C765E"/><path d="M33.57 38.91c.72-.1 1.1-.61 1.54-1.14.29-.34.63-.54 1.06-.3.11.06.23.18.36.34.4.51.8.99 1.46 1.1a1.8 1.8 0 0 0 1.72-.64l.53-.62a.71.71 0 0 1 .85-.23c.29.1.6.58.77.8.3.34.67.58 1.11.7.02 0 .03 0 .03.03v2.03a.02.02 0 0 1-.01.02h-.02c-.14-.1-.24-.2-.32-.3-.46-.59-.89-1.11-1.67-1.18-.96-.1-1.48.5-2.02 1.2a1 1 0 0 1-.45.33c-.63.15-.88-.4-1.25-.8-.16-.19-.3-.32-.43-.41a1.77 1.77 0 0 0-1.89-.11c-.38.22-.6.51-.92.9-.3.37-.6.57-1.06.37a.96.96 0 0 1-.35-.32l-.36-.45c-.5-.61-1.3-.9-2.04-.63a2.63 2.63 0 0 0-1.18 1.01H29l-.01-.02v-1.8l.02-.01c.5-.25.84-.7 1.16-1.1.3-.39.83-.42 1.17-.05.24.26.45.56.73.82.4.39.93.54 1.5.46Z" fill="#1B7ABE"/><path d="M25.28 41.24a14382.17 14382.17 0 0 0-1.72 1.74.2.2 0 0 1-.08.02h-1.77c-.03 0-.03-.01-.02-.03.03-.03.08-.05.1-.08a3374.04 3374.04 0 0 0 5.1-5.24c.03-.03.05-.08.08-.1.02-.02.03-.02.03 0v1.83a.22.22 0 0 1-.06.15l-1.66 1.7Z" fill="#8C765E"/><path d="M39.08 42c.43-.22.66-.53 1-.93.17-.2.3-.33.4-.38.19-.1.4-.1.65 0 .11.03.24.15.38.34.25.3.48.56.7.76.17.15.42.27.76.36.02 0 .03.02.03.04v.8H29.04c-.03 0-.04 0-.04-.03v-.9c0-.01 0-.03.03-.04.3-.16.56-.38.8-.67.2-.25.46-.65.8-.72.3-.06.56.04.78.3.42.5.66.85 1.14 1.09.21.1.45.15.7.15.96.02 1.4-.6 1.96-1.28.08-.1.24-.21.37-.25.33-.09.6 0 .83.28l.52.62a1.79 1.79 0 0 0 2.15.46Z" fill="#1B7ABE"/><path d="M14.03 41.95A35.6 35.6 0 0 0 15.06 43a150.45 150.45 0 0 1-2.06-.01 169.73 169.73 0 0 1 .03-2.09c.1.12.43.47 1 1.05ZM27 42.99h-.01a140.62 140.62 0 0 1-1.78-.02l.9-.92a31.72 31.72 0 0 0 .88-.94 148.38 148.38 0 0 1 0 1.88Z" fill="#8C765E"/></svg>