<!-- by TradingView --><svg width="56" height="56" viewBox="0 0 56 56" xmlns="http://www.w3.org/2000/svg"><path fill="#F0F3FA" d="M0 0h56v56H0z"/><path d="M14.45 19 6 27.78 14.87 37H24v-5h-7.59l-2.37-2.5H24v-4h-9.96L16.4 23H24v-4h-9.55Z" fill="#E86408"/><path fill-rule="evenodd" d="M16.41 23H24v-4h-9.55L6 27.78 14.87 37H24v-5h-7.59l-2.37-2.5H24v-4h-9.96L16.4 23Zm7.09 3H12.87l3.33-3.5h7.3v-3h-8.83l-7.98 8.28 8.4 8.72h8.41v-4h-7.3L12.87 29H23.5v-3Z"/><path d="M26 37V19h22v11H36v7H26Zm17-14h-6v3h6v-3Z" fill="#894618"/><path fill-rule="evenodd" d="M35.5 29.5h12v-10h-21v17h9v-7ZM36 37H26V19h22v11H36v7Zm.5-14.5h7v4h-7v-4Zm6.5.5v3h-6v-3h6Z"/></svg>