<!-- by TradingView --><svg width="56" height="56" viewBox="0 0 56 56" xmlns="http://www.w3.org/2000/svg"><path fill="#E0E3EB" d="M0 0h56v56H0z"/><path d="M42 41.19c0 1.56-.7 3.81-3.53 3.81-4.15 0-11.24-4.66-17.27-12.12C16 26.45 13 19.56 13 15.68c0-1.4.58-2.55 1.54-3.1a4.64 4.64 0 0 1 2.47-.58c3.4 0 7.47 3.09 11.68 7.53l2.12 3.45C26.82 17.7 23 15 19.87 15c-2.4 0-3.87 1-3.87 3.34 0 3.36 2.1 9.44 5.97 14.22C26.5 38.18 33.28 42 37 42c1.67 0 3-.98 3-2.81 0-2.18-.88-5.47-3.4-9.19 2.8 3.11 5.4 7.31 5.4 11.19Z" fill="#AE3543"/><path d="M30.06 22H37v-3h-9.61l2.67 3Zm-4.65-3H20v3h8.3l-2.9-3h.01ZM20 26h17v3H20zM20 33h17v3H20z" fill="#231F20"/></svg>