<!-- by TradingView --><svg xmlns="http://www.w3.org/2000/svg" width="56" height="56"><path fill="#448E44" d="M0 0h56v56H0z"/><path d="M44 22h-4v7.5a6 6 0 0012 0V22h-4v7.5a2 2 0 11-4 0V22zm-18 4v-4h-1a5 5 0 00-5 5v8h4v-7a2 2 0 012-2zm2.05-.48c0-2.33 2.32-4.02 4.7-4.02 2.62 0 4.75 1.5 4.75 2v3.15a8.25 8.25 0 00-4-1.45c-1 0-1.4 1.2-.4 1.7 1.64.82 4.4 1.93 4.4 4.1 0 2.73-1.84 4.5-4.75 4.5-2.62 0-4.7-2-4.75-2v-3.3c2 1.5 3.93 1.8 4.5 1.8 1 0 1.4-1.2.4-1.7-2.14-1.07-4.84-1.87-4.84-4.78z" fill="#fff"/><path fill-rule="evenodd" d="M15.18 29c1.58 0 2.95-1.28 2.42-2.76a7.08 7.08 0 00-6.6-4.7A7 7 0 1017.85 30h-4.33c-.5.98-1.46 1.5-2.52 1.5-1.38 0-2.8-1-2.8-2.5h6.97zM11 25c-1.52 0-2.75 1.24-2.75 2h5.5c0-.76-1.23-2-2.75-2z" fill="#fff"/></svg>