<!-- by TradingView --><svg xmlns="http://www.w3.org/2000/svg" width="56" height="56" viewBox="0 0 56 56"><path fill="#F0F3FA" d="M0 0h56v56H0z"/><path d="M14 27.91c0 .29-.02.8-.07 1.09H7.11c.21 1.08.88 1.4 1.88 1.4a1.81 1.81 0 0 0 1.66-.88h3.15A4.85 4.85 0 0 1 8.99 33 4.87 4.87 0 0 1 4 28c0-2.87 2.11-5 4.99-5A4.82 4.82 0 0 1 14 27.91ZM7.17 27h3.71a1.82 1.82 0 0 0-1.9-1.46c-.91 0-1.55.54-1.8 1.46ZM19 33c-2.47 0-3.97-.97-4-3h3c0 .45.47.62 1.06.62.46 0 .89-.24.89-.72 0-.54-.7-.7-1.56-.85-1.4-.24-3.27-.67-3.27-2.95 0-1.89 1.55-3.1 3.87-3.1 2.32 0 3.8 1.1 3.83 3H19.9c0-.6-.38-.7-.95-.7-.5 0-.84.25-.84.69 0 .53.69.65 1.54.81h.02l.1.02c1.42.27 3.23.6 3.23 2.94 0 1.96-1.6 3.24-4 3.24Zm33-7v-3h-.85c-1.1 0-1.89.32-2.54 1.09l-.5-1.09H46v10h3v-5.34c0-1.2.64-1.66 1.77-1.66H52Zm-21.04 3c-.2.54-1.08 1.01-1.61 1.08l-.36.03a2.12 2.12 0 0 1-2.09-2.25 2.14 2.14 0 0 1 2.31-2.02c.65.07 1.48.53 1.73 1.16h3.02c-.34-2.5-2.28-4-4.87-4-2.97 0-5.09 2.07-5.09 4.98 0 2.9 2.13 5.02 5.08 5.02 2.59 0 4.56-1.45 4.92-4h-3.04ZM45 33V23h-2.3l-.3 1a4.13 4.13 0 0 0-2.75-1A4.43 4.43 0 0 0 35 27h3.12c.27-.7 1.18-1.17 1.89-1.17a2.05 2.05 0 0 1 2.05 2.16 2.16 2.16 0 0 1-.56 1.52c-.38.4-.91.63-1.45.62-.68 0-1.7-.46-1.94-1.13H35c.35 2.66 2.17 4 4.65 4 .98.01 1.93-.34 2.7-.98l.27.98H45Z" fill="#EB2024"/></svg>