<!-- by TradingView --><svg xmlns="http://www.w3.org/2000/svg" width="56" height="56"><path fill="url(#a3xy5na4r)" d="M0 0h56v56H0z"/><path d="M46 25.7v6.1c0 1.68 1.5 3.25 3.5 3.25.12 0 .28-.01.5-.04l.65-1.97c-.2.02-.4.04-.63.04-.64 0-1.15-.2-1.5-.6-.35-.37-.5-.89-.52-1.42V26h2v-2h-2v-2.96l-2 .85v.98c.18 0 .37.03.57.06l.49.08L46 25.7zM4.4 29.8a5.56 5.56 0 002.9 4.64c1.55.86 3.24.94 4.92.38.72-.24 1.29-.51 1.72-.82l-.68-1.85-.29.2c-.83.52-1.87.88-2.9.9a3.69 3.69 0 01-2.87-1.12A3.97 3.97 0 016.56 28c.51-1.35 1.7-2.46 3.37-2.42.75.03 1.44.3 2.04.8l.45.36-4.47 2.57.78 1.35 6.05-3.6a5.85 5.85 0 00-1.66-2.16 4.72 4.72 0 00-5.74-.35A6.21 6.21 0 004.4 29.8zm30.4-5.7c2.96-.02 5.24 2.82 5.16 5.75-.05 2.75-2.4 5.34-5.17 5.31a5 5 0 01-4.31-2.82 6.1 6.1 0 010-5.37 4.82 4.82 0 014.31-2.86zm1.8 2.4a3.03 3.03 0 00-3.52.02 3.85 3.85 0 00-1.66 3.12c0 1.83 1.31 3.71 3.37 3.71a3.6 3.6 0 003.54-3.53 3.94 3.94 0 00-1.73-3.32z" fill="#fff"/><path d="M40.01 35.01v-2.35c.46-.86.73-1.82.75-2.8a6.65 6.65 0 00-.75-3.2v-2.55l2-.58v3l.72-.97c.45-.6.93-1.13 1.52-1.48a3.03 3.03 0 011.7-.41l-.9 2.25a1.7 1.7 0 00-1.01.1c-.4.14-.71.4-.89.54-.6.51-.87 1.22-1 1.91-.1.57-.11 1.19-.13 1.71v4.83H40zm-9.98-1.84l-.5-.72a4.06 4.06 0 01-4.9-.25c-1.65-1.42-1.49-3.82-.04-5.27a3.84 3.84 0 015.03-.4L30.77 25a5.98 5.98 0 00-8.74 1.8 5.73 5.73 0 00-.68 1.89c.22.2.42.43.59.69a4.4 4.4 0 01.43 3.6 6 6 0 008.31 1.13l-.31-.46a6.36 6.36 0 01-.34-.48z" fill="#fff"/><path d="M15.4 32.32l-.88.96.3.8c.87.59 1.98.9 3.03.9 1.3 0 2.6-.55 3.37-1.55.38-.5.56-1.03.56-1.61 0-.84-.18-1.5-.51-2-.33-.51-.83-.9-1.52-1.17l-.54-.13-.23-.05c-.33-.07-.71-.16-1.07-.27a3.7 3.7 0 01-1-.46c-.29-.2-.55-.5-.55-.93a1.48 1.48 0 011.03-1.48c.55-.19 1.2-.1 1.73.15a4.89 4.89 0 01.96.61l1.22-1.07a4.57 4.57 0 00-3.38-1.52c-1.46 0-2.65.74-3.2 1.92.4.52.71 1.08.93 1.68l.1.31-1.16.7c.14.33.35.64.62.9.48.49 1.04.7 1.68.87l.52.12c.5.11 1.05.24 1.56.46.26.1.47.26.62.5.14.22.2.48.19.76a1.4 1.4 0 01-.76 1.29 2.5 2.5 0 01-1.44.17 5.08 5.08 0 01-1.45-.42 3.84 3.84 0 01-.73-.44z" fill="#fff"/><defs><linearGradient id="a3xy5na4r" x1="0" y1="28" x2="56" y2="28" gradientUnits="userSpaceOnUse"><stop stop-color="#440A7E"/><stop offset="1" stop-color="#A285BF"/></linearGradient></defs></svg>