<!-- by TradingView --><svg width="56" height="56" viewBox="0 0 56 56" xmlns="http://www.w3.org/2000/svg"><path fill="#F0F3FA" d="M0 0h56v56H0z"/><path d="M28.83 44.79c-.5.23-.98.27-1.42.12a3.37 3.37 0 0 1-1.04-.8c-8.3-8.31-13.08-13.08-14.32-14.31-.6-.6-.94-1-.98-1.24a2 2 0 0 1 .05-1.23c.12-.25.4-.6.84-1.03l14.53-14.54c.4-.4.73-.64.99-.7.45-.1.83-.08 1.14.06.25.1.58.36.98.76a4094.1 4094.1 0 0 1 14.9 14.91c.49.5.62 1.1.4 1.82a.12.12 0 0 1-.13.1l-.05-.02-.62-.3a.1.1 0 0 1-.04-.05.09.09 0 0 1 0-.06c.11-.35.07-.63-.14-.85L28.68 12.2c-.28-.28-.58-.38-.89-.29-.2.06-.45.25-.76.56A8497.9 8497.9 0 0 1 12.1 27.41c-.22.2-.27.52-.18.93.01.05.04.09.07.12a140 140 0 0 0 2.24 2.27 1605.91 1605.91 0 0 1 6.85 6.85c3.29 3.32 5.42 5.44 6.4 6.37.12.12.35.17.67.15a.37.37 0 0 1 .28.11l.43.43.03.04a.09.09 0 0 1-.05.1Z" fill="#FF3117"/><path d="M27.08 42.65v.03l-.03.02a.05.05 0 0 1-.06-.01L12.55 28.26a.37.37 0 0 1-.08-.4c.02-.07.12-.18.28-.35 1.82-1.79 6.8-6.76 14.92-14.9.22-.22.46-.18.74.1 2.34 2.36 5.62 5.64 9.84 9.83a1052.05 1052.05 0 0 1 5 5.04.05.05 0 0 1-.01.04l-.03.01c-.37-.02-.75.1-1.12.38a2.5 2.5 0 0 0-.8.95.12.12 0 0 1-.15 0A1 1 0 0 0 40 28.8a.17.17 0 0 0-.05.03l-.3.32a.25.25 0 0 1-.42-.08.26.26 0 0 1 0-.17c.15-.54.04-.97-.35-1.27-.48-.37-.93-.3-1.36.23a4.56 4.56 0 0 0-.15.13c-.46.33-.7.67-.73 1.01a.14.14 0 0 1-.07.12l-.22.07-.24.1c-.46.21-.79.57-.98 1.06a.13.13 0 0 1-.15.09.13.13 0 0 1-.06-.03c-.52-.43-1.02-.41-1.5.06-.05.05-.1.14-.17.26l-.1.17a.27.27 0 0 1-.14.1c-.42.14-.67.5-.73 1.08a.18.18 0 0 1-.14.16c-.4.08-.66.33-.8.74a.3.3 0 0 1-.14.17l-.45.26a695.02 695.02 0 0 1-1.22 1.2c-.54.54-.62 1.01-.23 1.43a34.5 34.5 0 0 0 2.42 2.42.07.07 0 0 1-.02.05l-.72.74a.12.12 0 0 1-.07.03h-.07c-.4-.2-.77-.13-1.12.21l-.04.04c-.44.42-.64.82-.59 1.2a3.53 3.53 0 0 0 .35.68v.02l-.02.02h-.03c-.08-.01-.2-.07-.34-.16-.36-.22-.68-.25-.98-.1a3.25 3.25 0 0 0-.8.77c-.14.16-.2.39-.19.69Z" fill="#FF3117"/><path d="M24.34 23.78c.23-.33.48-.62.74-.85 1.08-.95 2.79-.94 5.12.03a.05.05 0 0 0 .06-.01.05.05 0 0 0 0-.06l-.87-2.02a.07.07 0 0 1 0-.07.07.07 0 0 1 .07-.03c.67.12 1.24.41 1.72.87a2.5 2.5 0 0 1 .7 1.48.06.06 0 0 0 .07.03c.78-.2 1.41-.26 1.91-.17a2.84 2.84 0 0 1 1.63.95v.02l-.01.02h-.02l-2.84.59-.02.01a.04.04 0 0 0 0 .06l.51.22c.45.2.84.52 1.18.95a3.73 3.73 0 0 1 .74 2.89.07.07 0 0 1-.06.02l-.03-.01-2.31-2.3a.05.05 0 0 0-.07 0l-.01.03c.01 1.84-.6 3.1-1.86 3.77a.05.05 0 0 1-.07-.04l-.24-3.33a.07.07 0 0 0-.03-.05.06.06 0 0 0-.06 0c-.29.18-.38.37-.3.56a.13.13 0 0 1-.01.14l-.61.63a.13.13 0 0 0-.03.13c.03.09 0 .2-.09.33a4.8 4.8 0 0 1-.5.65.07.07 0 0 0 0 .06l.03.02.16.07a.07.07 0 0 1 .04.05.07.07 0 0 1-.02.06 16.19 16.19 0 0 0-.43.62c-.15.2-.2.37-.16.5a.15.15 0 0 1-.02.12l-.27.43-.01.03-.4 1.45v.06c0 .02.02.03.04.04l.05.03a.1.1 0 0 1 .06.1.1.1 0 0 1-.01.04l-.43.9a.1.1 0 0 0 .08.15 3.76 3.76 0 0 1 .14.04.08.08 0 0 1 .03.06v.04l-.6 1.26a.1.1 0 0 1-.08.06h-1.5a.18.18 0 0 1-.16-.12l-.2-.54a11.23 11.23 0 0 0-1.17-3.9 4.22 4.22 0 0 0-.6-.9.15.15 0 0 1-.03-.15c.05-.16 0-.27-.19-.33a.05.05 0 0 0-.06.02v.02l-.24 2.19a.08.08 0 0 1-.05.06.08.08 0 0 1-.07 0c-.8-.46-1.21-1.28-1.22-2.47a.07.07 0 0 0-.04-.06.07.07 0 0 0-.08.01l-1.45 1.5a.1.1 0 0 1-.16-.07c-.02-.46.07-.93.27-1.4.15-.34.34-.6.58-.8a2.94 2.94 0 0 1 .88-.5.03.03 0 0 0 0-.03h-.01l-1.96-.48a.04.04 0 0 1-.02-.03.03.03 0 0 1 0-.03c.6-.55 1.29-.74 2.07-.57a15.7 15.7 0 0 0 .41.07.08.08 0 0 0 .04-.05 2.11 2.11 0 0 1 1.69-1.6.06.06 0 0 1 .04.05v.03l-.61 1.3a.1.1 0 0 0 .06.14 4.35 4.35 0 0 1 2.53-.44.14.14 0 0 0 .14-.07c.53-.89 1.47-1.5 2.82-1.83l.03-.01a.04.04 0 0 0-.03-.06l-4.28-.48-.03-.01a.06.06 0 0 1-.02-.06v-.03Z" fill="#F0F3FA"/><path d="M25.95 33.94v-.2a.49.49 0 0 0-.04-.18 19.4 19.4 0 0 0-1.12-3.14 1.87 1.87 0 0 0-.17-.3 1.22 1.22 0 0 1-.26-.64.1.1 0 0 0-.08-.1l-.25-.07a.07.07 0 0 1-.03-.02.07.07 0 0 1-.02-.04v-.19a.09.09 0 0 1 .12-.04l2.37 1.13a.07.07 0 0 0 .1-.04v-.04c-.27-1.23-1.05-1.99-2.34-2.26a.04.04 0 0 1-.03-.04.04.04 0 0 1 .04-.04l.9-.07a.08.08 0 0 1 .07.02.08.08 0 0 1 .03.06v.05a.1.1 0 0 0 .09.05.1.1 0 0 0 .04 0c0-.02.02-.02.04-.03.4-.2.73-.32 1.02-.33a10.31 10.31 0 0 0 .78-.08.06.06 0 0 0 0-.09l-.18-.18a.1.1 0 0 1 0-.13.1.1 0 0 1 .03-.03l1.95-.87a.04.04 0 0 1 .05 0l.01.02v.03l-.08.34c0 .03-.02.05-.04.07a.12.12 0 0 1-.08.03h-.14a.1.1 0 0 0-.07.02 64.99 64.99 0 0 1-.3.92c-.02.17-.12.23-.31.18a.09.09 0 0 0-.1.08c-.06.5-.2.89-.45 1.16a.36.36 0 0 0-.08.16l-.17.68-.03.07-.2.28a.37.37 0 0 0-.07.14l-.17.72a.53.53 0 0 1-.14.26l-.08.07a.3.3 0 0 0-.08.21c0 .42-.06.78-.18 1.1a.95.95 0 0 0-.05.42c0 .44-.07.75-.21.92a.05.05 0 0 1-.1-.04Z" fill="#FF3117"/><path d="M38.69 28.36c.01.04.01.1 0 .14l-.11.3c-.1.26.1.61.63 1.06l.3.27a.43.43 0 0 1-.04.6l-.03.02a.4.4 0 0 1-.55-.01c-.57-.58-1.06-1.06-1.46-1.44-.26-.25-.2-.5.21-.75.2-.12.36-.27.49-.45a.23.23 0 0 1 .32-.06c.13.09.2.2.24.32ZM44.64 29.43c.23.44.18.87-.14 1.3-.3.38-.68.62-1.15.7h-.11a.28.28 0 0 1-.11-.06.33.33 0 0 1-.1-.22c-.02-.17.18-.34.59-.5l.22-.1a.44.44 0 0 0 .23-.44.23.23 0 0 0-.12-.18.22.22 0 0 0-.2 0l-.8.42a.75.75 0 0 1-.79-.02.73.73 0 0 1-.37-.7c.01-.32.11-.57.29-.76.45-.5.83-.7 1.12-.59a.25.25 0 0 1 .16.2.26.26 0 0 1-.1.25l-.67.46a.21.21 0 0 0-.1.15.22.22 0 0 0 .05.16v.01a.25.25 0 0 0 .33.07l.22-.13c.67-.39 1.16-.44 1.46-.14l.1.12ZM40.6 29.96c.2-.13.27-.36.17-.51-.1-.15-.34-.17-.53-.04-.2.12-.27.35-.17.5.1.16.34.18.53.05ZM42.96 31.62l-1.5-1.5a.38.38 0 0 0-.55 0l-.05.05a.4.4 0 0 0 0 .55l1.51 1.5c.16.15.4.15.55 0l.04-.05a.4.4 0 0 0 0-.55ZM35.9 30.22c.44-.59 1.02-.7 1.71-.32.4.21.43.48.1.8l-.25.23c-.3.26-.47.46-.53.6a.18.18 0 0 0 .04.22c.27.22.53.2.8-.05a.3.3 0 0 0 .08-.15l.13-.55a.2.2 0 0 1 .08-.12.3.3 0 0 1 .35-.01c.12.07.17.18.16.33-.03.37-.2.7-.5 1-.3.26-.62.38-1 .34a1.53 1.53 0 0 1-.9-.42 1.56 1.56 0 0 1-.51-.88c-.07-.37 0-.7.24-1.02Zm1 .14c-.2-.02-.36.02-.47.13-.11.11-.16.27-.15.48a.17.17 0 0 0 .09.14.17.17 0 0 0 .15 0c.13-.05.24-.12.31-.2.08-.06.15-.17.21-.3a.17.17 0 0 0-.06-.22.17.17 0 0 0-.07-.03ZM36.66 33l-2.19-2.18a.38.38 0 0 0-.54 0l-.04.05a.4.4 0 0 0 0 .55l2.2 2.18c.14.15.38.15.53 0l.04-.05a.4.4 0 0 0 0-.55ZM40.86 31.23l-.1.3c-.11.28.1.65.65 1.12l.3.28a.44.44 0 0 1-.04.6l-.03.03a.4.4 0 0 1-.57 0l-1.5-1.5c-.28-.26-.21-.52.2-.78.21-.12.38-.28.52-.47a.24.24 0 0 1 .33-.06c.13.1.22.2.25.33v.15ZM33.5 32.18c.18-.14.23-.38.11-.52-.11-.15-.35-.16-.52-.01-.18.14-.23.37-.12.52.12.14.35.15.53 0ZM35.83 33.85l-1.52-1.51a.37.37 0 0 0-.53 0l-.06.07a.38.38 0 0 0 0 .53l1.53 1.52c.15.14.38.14.53 0l.06-.07a.38.38 0 0 0 0-.54ZM33.27 33.05a.2.2 0 0 1 .18.05.2.2 0 0 1 .06.16l-.01.06c-.04.27 0 .46.09.58.2.27.42.48.64.63.06.04.14.07.21.08.13.01.26.02.38.01a.36.36 0 0 1 .27.1.34.34 0 0 1 .1.27c-.01.08-.07.16-.16.25-.3.28-.6.38-.85.27a2.06 2.06 0 0 1-.66-.55c-.41-.47-.78-.68-1.08-.64-.03 0-.07 0-.1-.02a.2.2 0 0 1-.07-.05.21.21 0 0 1-.04-.19c.04-.2-.03-.4-.22-.58a.32.32 0 0 1-.07-.36.32.32 0 0 1 .07-.1l.1-.12a.32.32 0 0 1 .47 0l.17.17a.18.18 0 0 0 .17.05l.35-.07ZM38.75 32.4c.32-.15.64-.08.94.2a27.57 27.57 0 0 1 1.28 1.33c.02.03.02.07.02.1a.26.26 0 0 1-.12.2l-.38.27a.3.3 0 0 0-.1.1c-.35.67-.74.95-1.18.86a.77.77 0 0 1-.57-.43.92.92 0 0 1-.02-.73c.1-.26.25-.53.46-.8a.4.4 0 0 0 .07-.12.35.35 0 0 0 .01-.13.27.27 0 0 0-.03-.12.22.22 0 0 0-.08-.08c-.2-.11-.39-.05-.57.18-.03.04-.06.18-.08.44 0 .03-.01.05-.03.08-.08.18-.2.28-.34.3h-.09a.23.23 0 0 1-.14-.11.25.25 0 0 1-.03-.09c-.05-.29.04-.58.27-.87.2-.26.43-.45.71-.58Zm1.2 1.64c-.09-.26-.24-.34-.46-.24a.23.23 0 0 0-.1.1l-.11.22-.07.25c0 .05 0 .1.02.14.1.22.26.26.5.12a.49.49 0 0 0 .23-.25.5.5 0 0 0 0-.34ZM33.87 35.95a.26.26 0 0 1 .07.3 32.36 32.36 0 0 1-1.54 1.57c-.16.14-.34.11-.53-.07-.7-.67-1.38-1.33-2.02-1.99-.2-.2-.2-.4.01-.59a326 326 0 0 0 1.3-1.3.3.3 0 0 1 .42 0l.05.06a.2.2 0 0 1 0 .28l-.8.78a.44.44 0 0 0-.1.48l.1.15.03.03a.39.39 0 0 0 .54 0l.68-.68a.3.3 0 0 1 .43-.01.26.26 0 0 1 .1.2.27.27 0 0 1-.08.2l-.67.68a.48.48 0 0 0 0 .67l.1.09a.47.47 0 0 0 .66 0l.84-.84a.3.3 0 0 1 .4 0ZM36.56 38.12a.3.3 0 0 1-.03.45l-.02.02a.34.34 0 0 1-.47-.02l-1.46-1.5a.27.27 0 0 1 .03-.4l.34-.27c.06-.04.1-.1.15-.16.27-.4.58-.68.94-.81.08-.04.16-.1.2-.18l.13-.23c.3-.57.64-.84 1-.79.24.03.73.45 1.48 1.26l.15.16a.33.33 0 0 1 .06.37.33.33 0 0 1-.08.1l-.01.02a.35.35 0 0 1-.51-.06c-.63-.85-1.13-1.19-1.51-1.01-.5.23-.28.78.65 1.64l.2.2a.29.29 0 0 1 .04.36.29.29 0 0 1-.1.1l-.08.04a.3.3 0 0 1-.37-.06 9.06 9.06 0 0 1-.12-.13c-.7-.8-1.2-1.1-1.5-.92-.2.11-.27.3-.22.59.01.1.13.25.34.46l.77.77ZM34.57 37.35v.15l-.12.3c-.1.27.11.64.65 1.1.16.14.26.24.3.29a.44.44 0 0 1-.03.6l-.03.04a.4.4 0 0 1-.57-.01l-1.51-1.5c-.28-.26-.2-.52.22-.78.2-.12.37-.28.5-.46a.24.24 0 0 1 .34-.06c.13.09.21.2.25.33ZM31.5 43.62a.56.56 0 0 1-.19.13.18.18 0 0 1-.14 0c-.41-.21-.98-.53-1.7-.98-.17-.1-.32-.14-.46-.12a.2.2 0 0 0-.16.13.2.2 0 0 0 .05.21l1.41 1.4a.3.3 0 0 1 .01.41l-.02.03a.28.28 0 0 1-.31.08.28.28 0 0 1-.1-.07l-2.14-2.2a.22.22 0 0 1 0-.3l.46-.47a.4.4 0 0 1 .5-.06c.56.36 1.07.65 1.51.88.2.1.34.11.42.04.07-.07.06-.22-.04-.43-.22-.45-.5-.96-.85-1.53a.41.41 0 0 1 .06-.5l.46-.46a.21.21 0 0 1 .3 0l2.16 2.18a.28.28 0 0 1-.01.41l-.03.03a.29.29 0 0 1-.4-.02l-1.38-1.44a.2.2 0 0 0-.34.11c-.02.14.02.3.12.47a22.8 22.8 0 0 1 .96 1.8l-.01.07a.57.57 0 0 1-.13.2ZM32.5 38.7c.31-.15.62-.08.93.2a27.08 27.08 0 0 1 1.27 1.32.26.26 0 0 1-.1.3l-.39.27a.3.3 0 0 0-.1.1c-.34.66-.74.95-1.18.85a.77.77 0 0 1-.56-.42.91.91 0 0 1-.01-.73c.09-.26.24-.52.46-.8a.4.4 0 0 0 .06-.12.35.35 0 0 0 .02-.13.27.27 0 0 0-.04-.12.22.22 0 0 0-.08-.08c-.2-.1-.38-.05-.57.18a1.4 1.4 0 0 0-.08.44c0 .02 0 .05-.02.08-.08.17-.2.28-.34.3a.22.22 0 0 1-.17-.05.25.25 0 0 1-.1-.15c-.04-.29.05-.58.28-.87.2-.26.43-.45.71-.58Zm.86 1.33a.2.2 0 0 0-.14.06c-.23.23-.31.48-.26.72l.05.09c.02.03.06.05.1.06.03.02.07.03.11.03l.14-.01c.22-.06.33-.26.32-.58a.39.39 0 0 0-.16-.32.25.25 0 0 0-.16-.05Z" fill="#141211"/></svg>