<!-- by TradingView --><svg width="56" height="56" viewBox="0 0 56 56" xmlns="http://www.w3.org/2000/svg"><path fill="#F0F3FA" d="M0 0h56v56H0z"/><path d="M22.16 19c2.66.1 5.24.56 7.77 1.36 2.24.7 4.24 1.77 6 3.2a10.26 10.26 0 0 1 1.38 1.35v.01h-.02v.02h-.01a12.7 12.7 0 0 0-4.16-2.18A32.44 32.44 0 0 0 21 21.66c-3.2.27-6.29 1.06-9.27 2.35a17.35 17.35 0 0 0-7.54 6.07c-.04.06-.09.07-.14.02a.14.14 0 0 1-.03-.05.13.13 0 0 1 0-.1c.74-2.7 2.53-4.83 4.62-6.5A20.76 20.76 0 0 1 20.44 19h1.72Z" fill="url(#a)"/><path d="M10.44 28.14a.23.23 0 0 0-.13.03.3.3 0 0 0-.1.11.4.4 0 0 0-.02.31c.2.6.67.38.96.02.05-.06.11-.1.18-.1h1.06l.07.02.05.06a.22.22 0 0 1 .03.16c-.37 1.67-3.94 1.81-3.91-.47.02-1.35.8-2.07 1.82-2.24 1.02-.18 2.67.2 2.24 1.97-.02.08-.06.13-.14.13h-2.11Zm.08-.6.79-.06.03-.01.03-.03.02-.03v-.08a.44.44 0 0 0-.15-.3.41.41 0 0 0-.3-.1h-.11a.44.44 0 0 0-.3.16.46.46 0 0 0-.1.32v.04c0 .03.01.05.03.07.01.02.04.03.06.03ZM19.47 26.5c.28-.23.63-.4 1.08-.5h.05a.1.1 0 0 1 .05.04l.02.06v.06l-.2 1.03c-.02.12-.08.18-.17.2-.62.08-1.02.09-1.2 1.05-.1.54-.17.94-.2 1.2-.02.24-.12.36-.32.36H17.4c-.19 0-.26-.12-.21-.35l.67-3.47c.02-.12.08-.18.17-.18h1.24c.08 0 .12.06.12.17l-.02.25c0 .11.04.14.11.08ZM24.82 27.53c.04.25.03.52-.04.78s-.2.5-.36.73a2.39 2.39 0 0 1-2.23.94 1.99 1.99 0 0 1-.75-.27 1.78 1.78 0 0 1-.78-2.02c.07-.26.2-.5.36-.73a2.39 2.39 0 0 1 2.23-.94c.27.04.52.14.75.27a1.78 1.78 0 0 1 .82 1.24ZM22.5 28.8c.04.02.1.01.15 0 .05-.03.1-.08.16-.14.06-.06.1-.14.15-.23a1.74 1.74 0 0 0 .18-.92c-.02-.18-.09-.3-.18-.34a.19.19 0 0 0-.15 0 .48.48 0 0 0-.16.14c-.06.06-.11.14-.16.23a1.75 1.75 0 0 0-.17.92c.02.18.09.3.18.34ZM26.46 29.6l-.26 1.27c-.02.09-.06.13-.13.13h-1.42a.1.1 0 0 1-.05-.01.12.12 0 0 1-.04-.04.16.16 0 0 1-.02-.12l.95-4.69a.2.2 0 0 1 .06-.1.14.14 0 0 1 .1-.04h1.1c.1 0 .15.06.18.17.01.03.02.16.05.2.03.05.07.06.12.02.61-.45 1.21-.51 1.8-.19.82.45.46 2.2.02 2.82-.63.87-1.41 1.04-2.35.52-.05-.04-.1-.02-.1.06Zm.54-.91c.05.02.1.02.16 0a.46.46 0 0 0 .18-.11.95.95 0 0 0 .15-.21 1.43 1.43 0 0 0 .17-.87.62.62 0 0 0-.07-.22.28.28 0 0 0-.13-.12.23.23 0 0 0-.16 0 .46.46 0 0 0-.18.11.94.94 0 0 0-.16.21 1.43 1.43 0 0 0-.16.87c.01.09.04.16.07.22.04.06.08.1.13.12ZM33.82 27.53c.08.52-.07 1.06-.4 1.51-.35.46-.85.78-1.41.9-.56.13-1.13.04-1.58-.23a1.75 1.75 0 0 1-.83-1.24c-.08-.52.07-1.06.41-1.51.34-.46.85-.78 1.4-.9a2.13 2.13 0 0 1 1.58.23c.46.28.75.73.83 1.24Zm-2.37 1.27c.09.05.2 0 .32-.11a1.6 1.6 0 0 0 .37-1.14c-.01-.19-.07-.32-.17-.36-.09-.04-.2 0-.32.12s-.22.3-.3.52c-.06.21-.1.44-.08.62.02.18.08.31.18.35ZM41.55 28.14a.23.23 0 0 0-.13.04.3.3 0 0 0-.1.1.4.4 0 0 0-.02.31c.2.59.67.38.96.01a.23.23 0 0 1 .18-.09h1.06c.02 0 .04 0 .06.02l.06.05a.22.22 0 0 1 .03.16c-.37 1.68-3.94 1.83-3.91-.46.02-1.35.8-2.07 1.82-2.24 1.02-.18 2.66.19 2.24 1.96-.02.09-.07.13-.14.13h-2.11Zm0-.6.95-.07h.02v-.02l.01-.01v-.04a.53.53 0 0 0-.15-.35.42.42 0 0 0-.33-.12h-.1a.42.42 0 0 0-.18.06.48.48 0 0 0-.14.12.54.54 0 0 0-.12.38v.03l.02.01v.01h.02ZM46.05 26.42c0 .11.04.14.11.08.28-.23.64-.4 1.08-.5h.05a.1.1 0 0 1 .05.04l.02.06v.06l-.2 1.03c-.01.12-.07.18-.17.2-.62.08-1.02.09-1.2 1.05-.1.54-.16.93-.19 1.2-.02.24-.13.36-.32.36h-1.2c-.18 0-.25-.12-.2-.35l.64-3.47c.02-.12.08-.18.17-.18h1.23c.09 0 .13.06.13.16v.26ZM14.68 28.42v.13c0 .04.02.08.04.12.02.03.05.06.08.07.03.02.07.02.1.02l.05-.01c.19-.04.3-.17.35-.41l.43-2.28c0-.04.03-.06.06-.06h1.56c.04 0 .06.03.05.08-.2.97-.31 1.62-.35 1.94-.13 1-.62 1.63-1.47 1.87-.75.2-2.73.29-2.6-1.29.02-.2.16-1.04.44-2.5.01-.07.04-.1.1-.1h1.55l.02.03.02.04v.04l-.43 2.3ZM37.75 28.22l.72-1.9c.03-.1.09-.18.16-.23a.37.37 0 0 1 .23-.09h1.03c.14 0 .17.06.12.19l-1.63 3.69c-.04.08-.1.12-.17.12h-1.3c-.03 0-.05 0-.06-.02a.15.15 0 0 1-.05-.04.2.2 0 0 1-.03-.06 25.23 25.23 0 0 0-.02-1.65c-.02-.35-.08-.37-.2-.05l-.6 1.71c-.02.07-.06.11-.11.11h-1.29a.15.15 0 0 1-.11-.06.25.25 0 0 1-.06-.14l-.35-3.68c0-.07.02-.12.08-.12h1.28c.1 0 .14.07.14.2v1.98c0 .15.02.15.07.02l.68-1.95c.06-.16.16-.25.3-.25h.87c.23 0 .34.15.31.45l-.12 1.73c-.02.27.02.28.11.04Z" fill="#2A292B"/><path d="M39.29 30.45h-.4c-.06 0-.11.06-.1.13v.16c0 .07.05.12.11.12h.4c.06 0 .11-.06.11-.13v-.16c0-.07-.06-.13-.12-.12ZM41.06 30.44h-.35c-.1.01-.16.09-.16.19v.06c0 .1.07.17.16.17h.36c.09-.01.16-.09.16-.19v-.05c0-.1-.08-.18-.17-.18ZM29.17 31.78h-.12l-1.07.03c-.05 0-.08.04-.07.1v.07c.01.06.04.09.1.08l.87-.15c.07.02.15.05.22.1a.88.88 0 0 1-.4.34 1.2 1.2 0 0 1-1.24-.15.67.67 0 0 1-.2-.3.56.56 0 0 1 .02-.35.72.72 0 0 1 .22-.3c.1-.09.22-.15.35-.2a1.26 1.26 0 0 1 .8.02c.13.05.24.12.33.2a.6.6 0 0 1 .2.51Zm-.75-.2.04-.01a.1.1 0 0 0 .03-.04.1.1 0 0 0 0-.1c-.09-.11-.21-.14-.38-.08-.2.08-.21.16-.03.23h.34ZM35.06 31.77h-.13l-1.06.03c-.06 0-.09.04-.08.1v.07c.01.06.05.09.1.08l.87-.15c.08.02.15.05.22.1a.88.88 0 0 1-.4.34 1.2 1.2 0 0 1-1.23-.15.67.67 0 0 1-.2-.3.56.56 0 0 1 .01-.35.72.72 0 0 1 .23-.3c.1-.09.2-.15.34-.2a1.25 1.25 0 0 1 .8.02c.13.05.24.12.33.2a.6.6 0 0 1 .2.51Zm-.76-.2.04-.01a.1.1 0 0 0 .03-.04.1.1 0 0 0 0-.1c-.09-.11-.21-.14-.38-.08-.2.08-.2.16-.03.24h.34ZM31.33 31.37c-.43.03-.52.52-.54.9-.01.1-.06.14-.15.14h-.38c-.12 0-.16-.06-.13-.18l.22-1.02c.02-.08.07-.13.14-.14.13-.02.27-.01.43.03.07.02.13.02.2 0 .28-.1.54-.1.8 0 .08.03.16.1.2.2.05.08.06.2.04.3l-.15.66c-.02.1-.08.14-.17.14h-.37c-.12 0-.16-.06-.12-.18.1-.3.14-.53.12-.73-.02-.09-.06-.13-.14-.12ZM36.98 31.1l.45-.06h.02l.03.02a.08.08 0 0 1 .02.06v.25a.1.1 0 0 1-.03.07.08.08 0 0 1-.06.02c-.58-.08-.62.34-.68.82-.02.08-.06.12-.13.12h-.47a.1.1 0 0 1-.05-.01.12.12 0 0 1-.04-.04.13.13 0 0 1-.01-.12c.14-.34.22-.67.24-1 0-.08.04-.13.12-.15a.76.76 0 0 1 .39 0 .5.5 0 0 0 .2.02ZM38.13 32.71c.33-.49.5-.98.49-1.48 0-.1.04-.16.14-.16h.44c.1 0 .13.05.1.14l-.3 1.35c-.02.1-.08.2-.15.26a.4.4 0 0 1-.27.1h-.36c-.16 0-.19-.07-.1-.2ZM40.26 32.34a.06.06 0 0 1-.04-.03.07.07 0 0 1 0-.05l.2-.99.06-.12a.32.32 0 0 1 .08-.08.26.26 0 0 1 .1-.05h.1l.1.02.09.05a.3.3 0 0 1 .07.1l.04.11-.01.13-.22 1v.01l-.02.02-.02.01h-.03l-.5-.13Z" fill="#5B6158"/><path d="M36.33 36.94c-2.85.2-5.75-.07-8.68-.8a19.67 19.67 0 0 1-7.77-3.8c-.3-.24-.64-.58-1.04-1.03-.03-.05-.03-.08.03-.1.02-.02.04-.01.06 0a11.5 11.5 0 0 0 3.4 1.86c4.13 1.44 8.68 1.66 13 1.28 5.93-.63 12.7-2.9 16.44-8.3.22-.32.28-.29.2.1-.5 2.14-2.04 4.12-3.6 5.54a19.8 19.8 0 0 1-12.04 5.25Z" fill="url(#b)"/><defs><linearGradient id="a" x1="4" y1="24.57" x2="37.31" y2="24.57" gradientUnits="userSpaceOnUse"><stop stop-color="#0093D7"/><stop offset="1" stop-color="#006AAB"/></linearGradient><linearGradient id="b" x1="18.82" y1="31.42" x2="52" y2="31.42" gradientUnits="userSpaceOnUse"><stop stop-color="#8EB93A"/><stop offset="1" stop-color="#27773A"/></linearGradient></defs></svg>