<!-- by TradingView --><svg width="56" height="56" viewBox="0 0 56 56" xmlns="http://www.w3.org/2000/svg"><path fill="#F0F3FA" d="M0 0h56v56H0z"/><circle cx="27.98" cy="27" r="3.2" fill="#FFEC00"/><path d="M7 37c1.14-3.37 10.13-6 21.04-6 10.77 0 19.62 2.7 20.96 6-2.86-2.37-11.12-4-20.9-4-9.98 0-18.4 1.56-21.1 4Z" fill="#009A9D"/><path d="M10 23h-.92c-1.42 0-2.46.44-3.11 1.26A4.26 4.26 0 0 0 5 27c0 .98.32 1.95.97 2.73.66.82 1.7 1.27 3.11 1.27H10v-1.6H8.9c-.7 0-1.22-.19-1.57-.55-.33-.3-.55-.68-.63-1.1H10v-1.5H6.7c.08-.42.3-.81.63-1.12.35-.35.87-.52 1.56-.53H10V23ZM44 23h-.92c-1.42 0-2.46.44-3.11 1.26A4.26 4.26 0 0 0 39 27c0 .98.32 1.95.97 2.73.66.82 1.7 1.27 3.11 1.27H44v-1.6h-1.11c-.69 0-1.2-.19-1.56-.55-.33-.3-.55-.68-.63-1.1H44v-1.5h-3.3c.08-.42.3-.81.63-1.12.35-.35.87-.52 1.56-.53h1.1V23ZM15.4 23v5.08c.01.67-.5 1.32-1.2 1.32-.73 0-1.2-.64-1.2-1.32V23h-1.6v5.55c0 .62.28 1.22.73 1.67.45.5 1.14.78 2.08.78.94 0 1.64-.28 2.1-.78.43-.46.7-1.05.69-1.67V23h-1.6ZM19.6 31v-5.5c-.03-.5.38-.9.88-.9.52 0 .92.39.92.9 0 .36-.23.73-.5.86-.27.15-.59.18-.9.18V28h1.03c.4 0 .37.25.37.63V31H23v-2.13c0-.84-.26-1.48-1.07-1.79.7-.3 1.07-.85 1.07-1.74A2.34 2.34 0 0 0 20.62 23c-.77 0-1.58.23-2.06.86A2.86 2.86 0 0 0 18 25.6V31h1.6ZM28 23c-2.23 0-4 1.74-4 4a4 4 0 1 0 8 0c0-2.26-1.77-4-4-4Zm0 1.6c1.34 0 2.4 1 2.4 2.4s-1.1 2.4-2.4 2.4a2.4 2.4 0 0 1 0-4.8ZM34.6 31v-5.22c.02-.73.41-1.17 1.1-1.18.68.01 1 .48 1 1.1 0 1.03-.94 1.3-1.7 1.3v1.6h.7a2.67 2.67 0 0 0 2.7-2.71c.04-1.62-1.07-2.88-2.7-2.89a2.58 2.58 0 0 0-2.7 2.68V31h1.6ZM46.6 31v-5.68l2.18 4.52c.25.54.65 1.16 1.32 1.16.63 0 .9-.53.9-1.12V23h-1.6v5.1l-1.91-3.97c-.22-.58-.7-1.13-1.38-1.13-.62 0-1.11.51-1.1 1.13V31h1.59Z" fill="#004B9A"/></svg>