<!-- by TradingView --><svg width="56" height="56" viewBox="0 0 56 56" xmlns="http://www.w3.org/2000/svg"><path fill="#F0F3FA" d="M0 0h56v56H0z"/><path d="M40.5 27.97A12.46 12.46 0 0 0 28.52 16h-1.04A12.64 12.64 0 0 0 15.5 28.15v1.07a12.63 12.63 0 0 0 4.76 9.42l.43.34v-1.33c-.52-.43-1-.93-1.45-1.46a12.23 12.23 0 0 1-2.7-7.19l5.46-.01c.02 1.15.15 2.93.32 4.01h1.06a34.54 34.54 0 0 1-.38-4h7v-1h-1.48V17.12c1.07.26 2.13 1.34 2.97 3.07.68 1.37 1.16 3 1.44 4.81H34a18 18 0 0 0-1.57-5.28 8.86 8.86 0 0 0-1.53-2.28A11.39 11.39 0 0 1 39.45 28H37v1h2.45a12.47 12.47 0 0 1-2.69 7.21c-.45.53-.93 1.03-1.45 1.46V39l.43-.34.7-.6c.12-.1.21-.22.32-.31 2.2-2.18 3.6-5.38 3.74-8.7v-1.08ZM25.12 17.42a9.75 9.75 0 0 0-1.53 2.28C22.47 21.97 22.07 24.8 22 28h-5.45c.22-5.18 3.79-9.33 8.55-10.6l.02.02ZM23 28c.06-3.03.48-5.69 1.52-7.81.85-1.7 1.91-2.79 2.98-3.07V28H23Z" fill="url(#a)"/><path d="m31.37 39.11-.3.1c-.04 0-.1.03-.16.03-.26.08-.54.13-.8.17-.08 0-.14.02-.21.04v1.07c.03 0 .09 0 .13-.02h.07c.44-.07.85-.17 1.27-.28l.2-.06v-1.09h-.03c-.06 0-.12.04-.17.06v-.02Z" fill="#4575A8"/><path d="M44 27.91C44 19.13 36.82 12 28 12a16 16 0 0 0-16 15.91c0 6.09 2.2 9.25 5.7 12.16-2.1.5-4.02 1.16-5.7 1.93h31.57a30.28 30.28 0 0 0-5.36-1.86C42.96 37.42 44 32.83 44 27.9v.02Zm-12-1.85v13.03l-2-.11V30h-4v8.96c-.57.02-1.43.07-1.98.12V34H20v5.52c-.55.09-.46.15-.99.27a14.84 14.84 0 0 1-5.95-11.88 14.97 14.97 0 0 1 29.94 0c0 6.65-2.43 9.23-6.09 11.93-.5-.11-.4-.2-.91-.3V26h-4v.06Z" fill="url(#b)"/><defs><linearGradient id="a" x1="28" y1="16" x2="28" y2="38.98" gradientUnits="userSpaceOnUse"><stop stop-color="#B6BFCB"/><stop offset="1" stop-color="#8493A6"/></linearGradient><linearGradient id="b" x1="27.99" y1="14.46" x2="27.99" y2="42.34" gradientUnits="userSpaceOnUse"><stop stop-color="#4886FF"/><stop offset="1" stop-color="#255BC4"/></linearGradient></defs></svg>