<!-- by TradingView --><svg width="56" height="56" viewBox="0 0 56 56" xmlns="http://www.w3.org/2000/svg"><path fill="#F0F3FA" d="M0 0h56v56H0z"/><path d="M30.46 22H30v12h.46V22Z" fill="#BF8548"/><path d="M17 34h-3v-5.1L11.04 22h3.29l1.08 3.7h.04l1.1-3.7h3.27L17 28.9V34ZM4 34V22h6v3H7v1.5h3v2.84H7V31h3v3H4ZM23.46 27h4.52l.01.58c.09 2.93-.78 6.42-4.32 6.42-3.32 0-4.67-2.99-4.67-5.94 0-2.91 1.3-6.06 4.64-6.06a4.44 4.44 0 0 1 4.09 2.86L24.59 26c-.02-.28-.1-.54-.25-.77-.18-.28-.4-.42-.67-.42-.97 0-1.43 1.18-1.36 3.54.02.83.07 1.41.16 1.74.17.75.54 1.12 1.07 1.12.4 0 .7-.2.9-.59.15-.3.23-.66.22-1.07h-1.2V27Z" fill="#5A311F"/><path d="M52 28.01c-.06 1.3-.1 2.6-.57 3.84-.14.4-.34.8-.6 1.14-1.06 1.35-3.38 1.34-4.44 0a4.34 4.34 0 0 1-.84-1.97c-.4-2.2-.44-4.4.14-6.57.12-.45.35-.9.6-1.3.98-1.54 3.65-1.53 4.65 0 .48.73.72 1.51.83 2.33.1.84.15 1.69.23 2.53Zm-5.48.34c.03.45.08 1.28.17 2.1.08.67.24 1.33.66 1.9.64.88 1.91.89 2.52 0 .24-.34.41-.73.5-1.12.45-2.04.41-4.1.08-6.15-.08-.51-.24-1-.56-1.44a1.55 1.55 0 0 0-2.54 0c-.2.28-.34.6-.44.92-.35 1.12-.36 2.27-.4 3.79ZM38 24.18l-1.15.41-.07-.2c-.17-.3-.3-.65-.53-.92a1.35 1.35 0 0 0-2.03 0c-.38.42-.56.9-.65 1.41-.12.64-.22 1.29-.25 1.93-.08 1.49-.1 2.98.25 4.45.09.38.25.76.46 1.11.27.46.74.67 1.34.62.6-.05.97-.35 1.12-.82.14-.46.22-.95.26-1.43.04-.6 0-.9.02-1.5 0-.2-.08-.24-.28-.24H35v-1h2.91l.05.1c-.02 1.17 0 2.05-.07 3.22a4.1 4.1 0 0 1-.43 1.44c-.37.77-1.08 1.17-2.04 1.23-1 .07-1.82-.23-2.38-.99a4.55 4.55 0 0 1-.79-2.03c-.33-2.06-.37-4.13.1-6.18.13-.55.37-1.1.66-1.6.91-1.51 3.42-1.66 4.46-.02.2.32.35.66.53 1ZM42 34h-1.23V29.02c0-.17-.03-.34-.1-.49-.76-2.08-1.54-4.15-2.31-6.22l-.1-.3h1.15c.07.01.16.13.18.21l1.45 4.2.37 1.09c.06-.15.1-.24.12-.33l1.64-4.92c.07-.2.16-.27.39-.26.3.02.6 0 .95 0l-.76 2.07-1.67 4.53c-.05.15-.08.3-.08.46V34Z" fill="#BF8548"/></svg>