<!-- by TradingView --><svg width="56" height="56" viewBox="0 0 56 56" xmlns="http://www.w3.org/2000/svg"><path fill="#F0F3FA" d="M0 0h56v56H0z"/><path d="M27.94 16.32c-1-.36-2.47-3.98 0-5.32a3.4 3.4 0 0 1 0 5.32Zm0 6.78c-1-.36-2.48-3.98 0-5.32a3.4 3.4 0 0 1 0 5.32Zm-2.17-4.31c-1.06-.07-3.44-3.16-1.43-5.12a3.4 3.4 0 0 1 1.43 5.12Zm-.2 4.77c-1.05.18-4.09-2.26-2.58-4.65 1.06 0 3.67 1.73 2.57 4.65Zm-3.19-5.82c-1.04.18-4.08-2.26-2.58-4.64 1.07-.01 3.68 1.72 2.58 4.64Zm-.78 3.35c-.98.42-4.5-1.23-3.58-3.91 1.03-.26 3.97.8 3.58 3.9Zm2.15 4.35c-.83.66-4.65 0-4.47-2.82a3.34 3.34 0 0 1 4.47 2.82Zm-5.61-3.64c-.8.72-4.65.3-4.64-2.53.9-.59 4.02-.53 4.64 2.53Zm.94 3.47c-.59.9-4.42 1.45-5.12-1.29a3.33 3.33 0 0 1 5.12 1.29Zm-2.8 2.5c-.36 1.01-3.95 2.5-5.28 0a3.33 3.33 0 0 1 5.27 0Zm6.8 0c-.35 1.01-3.93 2.5-5.26 0a3.33 3.33 0 0 1 5.27 0Zm7.15-8.98c1.06-.07 3.44-3.16 1.43-5.12a3.4 3.4 0 0 0-1.43 5.12Zm.2 4.77c1.05.18 4.08-2.26 2.58-4.65-1.06 0-3.67 1.73-2.58 4.65Zm3.19-5.82c1.04.18 4.08-2.26 2.57-4.64-1.06-.01-3.67 1.72-2.57 4.64Zm.78 3.35c.98.42 4.49-1.23 3.58-3.91-1.03-.26-3.97.8-3.58 3.9Zm-2.16 4.35c.84.66 4.66 0 4.48-2.82a3.34 3.34 0 0 0-4.48 2.82Zm5.62-3.64c.8.72 4.64.3 4.64-2.53a3.34 3.34 0 0 0-4.64 2.53Zm-.94 3.47c.59.9 4.42 1.45 5.11-1.29a3.33 3.33 0 0 0-5.11 1.29Zm2.8 2.5c.36 1.01 3.95 2.5 5.28 0a3.33 3.33 0 0 0-5.27 0Zm-6.81 0c.36 1.01 3.94 2.5 5.27 0a3.33 3.33 0 0 0-5.27 0Z" fill="#B5191D"/><path d="M44.4 30.65c-11.44.85-21.92 8.1-25.69 11.62.25.19.87.62 1.4.86 3.9-3.46 14.05-10.6 24.1-11.44l.2-1.04Zm-33.13.02.17.92c1.73.09 6.87 1.03 13.55 4.15l1.47-.86c-2.7-1.3-9.51-3.95-15.19-4.2Zm.6 2.53.4 1.1c2.3.54 7.47 1.96 9.8 3.3.06 0 .92-.6 1.35-.92-2.15-1.01-7.47-3.13-11.55-3.48Zm2 4.23-.73-1.23c1.7.1 5.74 1.68 7.54 2.45l-1.24.94-5.56-2.16Zm1.71 2.2c.45.48 1.44 1.46 1.77 1.66.06 0 .54-.44.78-.66l-2.55-1Zm5.96 4.15c.46.18 1.46.55 1.78.62 3.14-2.64 11.55-8.35 20.06-9.98l.4-1.3c-9.8 1.6-18.93 7.78-22.24 10.66Zm6 1.22a16.5 16.5 0 0 1-2.14-.18c6.67-5.4 14.23-8 17.17-8.62-.22.4-.73 1.18-.95 1.52C35.79 39.4 29.8 43.27 27.54 45Zm3-.2a16.47 16.47 0 0 0 9.14-4.73c-2.28.51-7.04 3.37-9.13 4.73Z" fill="#8D7149"/></svg>