<!-- by TradingView --><svg width="56" height="56" xmlns="http://www.w3.org/2000/svg"><path fill="#F0F3FA" d="M0 0h56v56H0z"/><path d="M27.997 44C36.813 44 44 36.814 44 28c0-8.809-7.187-16-16.003-16C19.188 12 12 19.191 12 28c0 8.814 7.187 16 15.997 16z" fill="#000"/><path d="M27.998 43C36.262 43 43 36.256 43 27.996S36.262 13 27.998 13C19.738 13 13 19.738 13 27.997 13 36.257 19.738 43 27.998 43z" fill="#F0F3FA"/><path d="M27.997 38.542c5.808 0 10.543-4.74 10.543-10.541 0-5.802-4.735-10.536-10.543-10.536-5.802 0-10.537 4.734-10.537 10.536 0 5.801 4.735 10.54 10.537 10.54z" fill="#000"/><path d="M19.113 23.327c1.653-3.127 4.909-5.286 8.661-5.37-1.112 1.493-2.492 2.833-4.075 3.806a11.103 11.103 0 01-3.058 1.306c-.506.129-1.012.208-1.528.258zm7.435 14.618c-4.849-.71-8.597-4.903-8.597-9.945 0-1.38.283-2.7.79-3.9.015.237.03.476.054.709.248 2.471 1.152 5.002 2.527 7.31 1.345 2.243 3.142 4.273 5.226 5.826zM37.26 24.1c.506 1.2.789 2.52.789 3.9 0 5.042-3.748 9.236-8.597 9.945 2.084-1.553 3.881-3.583 5.226-5.826 1.395-2.337 2.304-4.908 2.537-7.41.02-.203.034-.406.044-.61zm-9.039-6.144c3.758.085 7.014 2.244 8.666 5.37a10.143 10.143 0 01-1.28-.198 10.954 10.954 0 01-3.306-1.365c-1.583-.973-2.963-2.313-4.08-3.807z" fill="#E1001D"/><path d="M19.557 23.708H36.54c-4.378-.95-6.829-3.343-8.543-5.662-1.671 2.273-4.42 4.883-8.44 5.662zM22.845 29h-2.79a19.45 19.45 0 001.47 2.995c1.4 2.342 3.296 4.447 5.505 6.005.143.015.282.025.426.035.08-.482.04-2.705.025-2.81a.782.782 0 00-.313-.228 1.474 1.474 0 00-.456-.069 2.13 2.13 0 00-.457.045c-.139.024-.283.07-.456.129-.16.05-.288.099-.427.099-.15 0-.288-.055-.447-.209a1.278 1.278 0 01-.084-.079c-.12-.12-.239-.238-.373-.238a1.41 1.41 0 01-.446-.055.939.939 0 01-.363-.203c-.233-.224-.233-.536-.228-.79 0-.108 0-.198-.02-.238-.03-.064-.134-.144-.263-.218a3.848 3.848 0 00-.422-.218.854.854 0 01-.447-.467 1.635 1.635 0 01-.094-.625 1.131 1.131 0 00-.01-.263c-.01-.065-.025-.12-.054-.15l-.005-.004c-.07-.08-.144-.164-.199-.268a.804.804 0 01-.099-.392c0-.134.04-.248.104-.333a.391.391 0 01.298-.163c.248-.01.491.228.645.387.015.01.025.024.04.034.07.075.154.154.238.219a.77.77 0 00.253.129c.169.04.303.035.417.03h.02c.204-.005.353.02.477.099.124.074.213.194.302.382.1.198.18.198.323.198.05-.004.1-.004.159 0 .322.016.402.164.531.407.02.04.04.08.064.114.05.09.095.16.145.219.044.05.084.084.119.11.054.029.104.039.163.054.1.02.214.045.393.159.109.07.183.168.238.282.05.11.08.229.104.348.055.238.094.451.179.61.08.154.203.273.431.358 0-.025.006-.05.006-.085.04-.744.054-1.216.014-1.528-.03-.283-.109-.427-.258-.526a66.607 66.607 0 00-1.37-.923 13.584 13.584 0 00-1.141-.67 1.842 1.842 0 00-.174-.025c-.07-.005-.129-.005-.189-.01h-.06c-.292-.005-.565-.015-.868-.224a1.05 1.05 0 01-.377-.426.564.564 0 01.01-.482c.015-.03.03-.05.04-.07.03-.059.044-.084-.005-.133a1.05 1.05 0 01-.219-.283c-.01-.015-.02-.022-.025-.042zm4.021 0h-2.621c.064.085.159.092.258.117.1.02.204.044.313.109.084.05.164.119.228.208.065.09.114.204.144.338l.02.11c.02.108.035.183.169.287.496.367.977.68 1.414.968.313.198.6.387.854.57l-.005-.004c.005 0 .01.005.015.005a.939.939 0 00-.01-.199 3.728 3.728 0 00-.055-.268c-.372-.447-.605-.754-.744-1.017a1.372 1.372 0 01-.164-.814.662.662 0 01.12-.338c.014-.03.039-.047.064-.072zm5.251 0H29.07c-.044.055-.089.097-.133.141.099.115.168.224.218.333.07.144.094.278.094.412-.005.278-.129.521-.302.74a3.363 3.363 0 01-.532.53 1.38 1.38 0 000 .522c.005 0 .01.005.015.01h.015c.005 0 .005 0 .01-.005h.005l.308-.174c.61-.343 1.34-.75 2.05-1.266a.455.455 0 00.134-.158.633.633 0 00.034-.229.757.757 0 01.105-.362.826.826 0 01.278-.278c.129-.075.273-.075.412-.07.119 0 .233.005.283-.07.02-.024.034-.046.054-.076zm-3.638 9.04c.163-.01.327-.02.491-.04 2.209-1.558 4.105-3.663 5.505-6.005A19.44 19.44 0 0035.944 29h-2.477c-.024.055-.054.092-.084.136a2.04 2.04 0 01-.174.224c-.099.119-.104.283-.104.441 0 .308 0 .61-.491.805a2.244 2.244 0 01-.427.119c-.124.024-.239.024-.392.03-.11.004-.214.01-.308.024a.642.642 0 00-.263.095c-.184.109-.397.233-.626.362-.64.367-1.41.814-1.767 1.126-.139.12-.228.258-.283.532-.054.292-.064.74-.044 1.468.005.09.005.12.005.12.01.004.064-.025.129-.055.12-.06.258-.159.367-.258.1-.09.169-.169.179-.209l.025-.139c.064-.312.158-.784.412-.947.124-.085.258-.105.397-.125a.997.997 0 00.253-.054c.034-.01.07-.1.11-.203.093-.249.207-.551.615-.566.05-.005.099-.005.149-.005.188 0 .342 0 .446-.209.095-.188.174-.302.288-.377.114-.08.253-.1.457-.094h.054c.15.005.442.015.596-.02a.3.3 0 00.203-.13c.03-.034.06-.069.105-.113l.06-.06c.128-.134.237-.248.47-.243.08.005.174.015.259.06.1.054.169.149.169.317a.83.83 0 01-.095.328 1.42 1.42 0 01-.213.327l-.005.005a.53.53 0 00-.085.209c-.03.124-.05.263-.044.357.005.214-.005.407-.065.576a.703.703 0 01-.417.426c-.084.04-.178.07-.263.1-.178.06-.352.119-.417.213-.025.035-.034.154-.05.288-.024.258-.049.566-.252.705a.809.809 0 01-.368.129c-.134.02-.278.02-.437.02a.428.428 0 00-.213.079c-.104.07-.203.179-.278.268-.298.362-.54.253-.844.12-.07-.03-.139-.06-.213-.09-.114-.035-.233-.075-.362-.1a1.499 1.499 0 00-.358-.04c-.189 0-.352.016-.491.06a.764.764 0 00-.328.214c-.03.188-.025 1.761-.02 2.089.005.233.015.466.045.705z" fill="#00417F"/><path d="M37.041 24H18.96c.02 1.703.377 3.043 1.008 4.755h2.819v-.02c0-.05 0-.099.01-.144a.492.492 0 01.178-.312c.09-.07.199-.1.318-.1a.988.988 0 01.471.12c.105.06.2.143.274.263.044.074.074.134.099.193h2.755a1.943 1.943 0 01-.229-.412 1.5 1.5 0 01-.119-.695.736.736 0 01.134-.372c.06-.09.144-.178.248-.263l-.015-.074c-.104-.437-.238-1.008.571-1.539.015-.298.055-.526.15-.705a.856.856 0 01.5-.432h.08c.243.09.417.243.521.467.1.198.134.451.114.754.695.67.447 1.197.308 1.48.09.094.169.203.228.322.09.174.14.357.15.496.014.239-.06.502-.175.74a1.99 1.99 0 01-.123.233h3.017c.02-.03.04-.064.06-.099a.784.784 0 01.243-.263.683.683 0 01.313-.1.864.864 0 01.253.026c.1.024.193.07.268.133a.414.414 0 01.134.278v.025h2.511c.63-1.712.988-3.052 1.008-4.755z" fill="#FFED00"/><path d="M28.23 38.045c-.079.005-.153.005-.233.005-.094 0-.188 0-.278-.005.01-.114.015-.343.02-.457.01-.278.01-.596.01-.878 0-.05.005-.095.005-.14 0-.257 0-.555-.005-.818a3.861 3.861 0 00-.044-.606l-.025-.05a.986.986 0 00-.427-.317 1.593 1.593 0 00-.541-.084 2.288 2.288 0 00-.501.044 4.64 4.64 0 00-.487.14c-.139.044-.253.089-.352.084-.09 0-.179-.035-.288-.14l-.075-.074c-.154-.154-.312-.307-.546-.307a1.23 1.23 0 01-.372-.045.648.648 0 01-.273-.154c-.159-.149-.154-.407-.154-.61 0-.139 0-.258-.04-.348-.054-.109-.193-.218-.352-.317a4.23 4.23 0 00-.452-.229.607.607 0 01-.322-.342 1.315 1.315 0 01-.075-.531c0-.1 0-.208-.014-.303a.464.464 0 00-.125-.283l.005.005c-.06-.07-.124-.139-.168-.223a.588.588 0 01-.07-.278.3.3 0 01.06-.188c.034-.045.08-.075.119-.075.144-.005.342.189.471.318.015.015.025.024.035.04.08.079.169.163.268.237a.88.88 0 00.342.17c.2.044.348.039.472.039h.02c.159-.005.268.01.347.06.08.05.144.138.219.287.164.333.293.333.536.328h.144c.189.01.243.114.332.288.02.034.04.07.07.119.055.099.114.183.169.248a.67.67 0 00.178.164c.09.05.16.064.234.08.08.019.174.039.317.128a.46.46 0 01.15.184c.039.089.069.193.089.292.054.264.094.482.198.675.104.204.268.363.561.467.144.054.218.03.273-.06.04-.06.04-.129.044-.233.04-.754.06-1.235.02-1.568-.044-.362-.153-.551-.362-.69-.461-.318-.938-.64-1.38-.923a12.22 12.22 0 00-1.176-.695l-.03-.01a2.64 2.64 0 00-.412-.04h-.064c-.253-.01-.497-.014-.74-.183a.84.84 0 01-.293-.323.327.327 0 01.005-.288l.03-.064c.094-.169.139-.243-.05-.417a.753.753 0 01-.168-.218.439.439 0 01-.06-.204c0-.034.005-.07.01-.099.01-.08.045-.134.09-.164a.295.295 0 01.178-.054.891.891 0 01.352.09c.07.039.14.098.19.183.054.089.079.159.103.223.03.064.05.124.095.188.114.18.258.214.417.249.079.02.163.034.243.084.06.035.114.08.154.144.05.064.084.144.109.253.005.03.01.065.02.094.025.164.044.278.258.437.491.367.983.685 1.43.973.307.203.595.387.843.565.04.025.075.045.11.055.039.01.079.01.118 0a.163.163 0 00.1-.074c.015-.02.02-.04.03-.06a.86.86 0 000-.337c-.015-.12-.03-.263-.085-.373-.367-.441-.6-.74-.73-.992a1.164 1.164 0 01-.138-.685c.01-.08.03-.159.079-.228.09-.13.228-.199.362-.278-.198-.204-.367-.402-.476-.67a1.32 1.32 0 01-.105-.586.543.543 0 01.095-.258 1.3 1.3 0 01.317-.302c-.05-.229-.124-.452-.114-.685.01-.422.303-.68.64-.894.005-.238.015-.51.12-.73a.636.636 0 01.337-.302.718.718 0 01.352.333c.11.233.1.496.08.749.233.213.457.471.466.809.005.238-.114.432-.203.645.134.104.228.203.308.357.07.144.114.298.124.412.01.194-.055.412-.154.62a2.044 2.044 0 01-.546.705c.134.134.263.268.343.447a.71.71 0 01.07.308c-.006.218-.105.421-.25.6a3.5 3.5 0 01-.53.521c-.075.12-.075.273-.075.412 0 .12.01.238.035.327.005.02.015.045.03.06a.22.22 0 00.114.1c.055.02.114.03.174.014a.188.188 0 00.064-.03c.14-.08.224-.124.308-.173.615-.343 1.36-.76 2.075-1.28a.569.569 0 00.208-.259.9.9 0 00.06-.312.5.5 0 01.07-.248.59.59 0 01.188-.194c.074-.045.189-.04.293-.04.189.005.367.01.486-.174.045-.069.08-.129.12-.203.034-.064.079-.139.129-.223a.58.58 0 01.168-.189.393.393 0 01.204-.06.563.563 0 01.183.015.42.42 0 01.164.08.15.15 0 01.055.119c.004.02 0 .045-.005.07a.5.5 0 01-.095.193c-.04.065-.099.134-.154.199-.158.188-.158.392-.158.595 0 .229 0 .452-.343.58a1.836 1.836 0 01-.382.115c-.104.015-.214.02-.357.025-.12.005-.229.005-.343.025a.945.945 0 00-.348.124c-.163.099-.382.223-.615.362-.65.372-1.435.824-1.812 1.151-.174.16-.293.328-.352.665-.06.313-.075.775-.05 1.524.005.213.07.308.179.337.094.025.183-.02.292-.074.14-.07.298-.179.422-.293.13-.114.229-.238.249-.327.01-.06.02-.1.03-.15.054-.272.133-.684.307-.798.08-.05.189-.065.303-.085.1-.014.198-.03.303-.07.129-.044.183-.183.243-.337.07-.183.154-.407.407-.417.05-.005.1-.005.139-.005.273 0 .491 0 .66-.337.075-.149.13-.238.199-.288h.005c.07-.044.163-.054.322-.054.015 0 .03.005.055.005.159.005.466.014.655-.03.189-.04.243-.105.333-.209.02-.03.05-.06.084-.094l.064-.065c.09-.094.164-.173.298-.168.05 0 .11.005.15.025.024.014.044.05.044.114 0 .06-.025.139-.07.228-.044.1-.11.199-.173.268l.004-.005a.73.73 0 00-.148.318 1.97 1.97 0 00-.055.421c.005.19 0 .358-.045.492a.498.498 0 01-.293.293 1.6 1.6 0 01-.243.09c-.213.073-.422.143-.53.302-.065.089-.08.233-.095.402-.02.208-.04.451-.154.53a.608.608 0 01-.268.09c-.114.02-.248.02-.402.02a.61.61 0 00-.343.119 1.554 1.554 0 00-.332.313c-.184.223-.353.148-.566.054a2.961 2.961 0 00-.62-.204 1.903 1.903 0 00-.968.025c-.174.06-.323.154-.457.308l-.025.05c-.044.193-.04.72-.035 1.19v.244c0 .233 0 .496.006.74 0 .08.005.158.005.233.005.12.015.353.025.472z" fill="#39A642"/><path d="M28.256 26.064a1.799 1.799 0 00-.219.422c-.015.05-.034.105-.045.154 0 .01-.005.02-.01.035a1.677 1.677 0 00-.03.228c-.02.358.07.66.16.958a3.697 3.697 0 01.168.735.767.767 0 00.234-.204c.034-.05.074-.089.129-.05.054.04.03.095-.01.145a.762.762 0 01-.343.273c.005.173-.005.362-.03.536-.03.178-.084.342-.163.466-.04.055-.1.1-.15.06-.059-.045-.014-.1.02-.154.065-.1.11-.243.14-.397.024-.159.03-.323.03-.477a.507.507 0 01-.214-.034.463.463 0 01-.203-.16.457.457 0 01-.105-.327c.005-.054.025-.104.09-.09.07.01.064.055.06.115a.35.35 0 00.069.209c.04.044.089.084.149.109a.34.34 0 00.144.02c-.005-.02-.005-.045-.01-.065-.025-.238-.09-.452-.154-.665-.095-.313-.189-.625-.169-1.008.005-.074.015-.139.025-.208a.604.604 0 01-.095-.1.451.451 0 01-.079-.183c-.01-.04-.015-.094.055-.11.064-.014.084.036.094.075.015.065.03.095.055.124a.07.07 0 00.014.02 1.968 1.968 0 01.263-.536c.02-.035.065-.064.115-.03.044.03.04.08.015.114zm4.521 6.159c-.56.675-1.062.928-1.504 1.157-.357.183-.675.347-.963.71-.03.04-.099.05-.139.014-.04-.034-.044-.099-.015-.134.313-.397.65-.57 1.028-.764.427-.219.903-.467 1.444-1.112.03-.035.095-.044.14-.01a.1.1 0 01.009.14zm-9.351-.317c.541.67 1.018.918 1.444 1.141.373.199.705.373 1.013.77.03.04.04.099-.015.139-.05.03-.11.02-.139-.02-.278-.363-.596-.531-.948-.715-.442-.233-.943-.491-1.509-1.191a.107.107 0 01.015-.139.1.1 0 01.139.015zm16.25 4.454l.328.23-.21.297-.327-.228.209-.298zm.417-.595l.328.229-.209.298-.328-.229.209-.298z" fill="#000"/><path d="M39.478 36.924l-.218.307-1.355-.948c-.234-.164-.402-.322-.502-.471a.825.825 0 01-.139-.527c.01-.198.095-.411.254-.64.154-.218.317-.372.491-.457a.779.779 0 01.536-.07c.189.04.402.15.65.324l1.355.948-.213.307-1.355-.948c-.204-.139-.367-.228-.491-.258a.528.528 0 00-.358.04.808.808 0 00-.318.283c-.158.228-.218.427-.183.6.035.17.198.353.491.561l1.355.949zm2.675-6.441l.398.065-.06.364-.393-.065.055-.364zm.114-.719l.399.065-.06.363-.394-.065.055-.363z" fill="#000"/><path d="M42.248 31.057l-.06.378-1.633-.259a1.994 1.994 0 01-.66-.203.85.85 0 01-.352-.412c-.08-.189-.094-.417-.055-.685.045-.268.124-.476.243-.63a.778.778 0 01.452-.298c.184-.045.427-.045.725.005l1.633.258-.06.372-1.628-.258c-.248-.04-.432-.044-.556-.015a.533.533 0 00-.307.189.848.848 0 00-.16.397c-.044.273-.01.481.095.615.11.14.338.234.69.288l1.633.258zm-2.611-4.347l2.859-.1.015.373-2.522.089.045 1.41-.337.01-.06-1.782zm2.655-1.499l.09.367-1.603.398c-.279.069-.512.094-.69.074a.86.86 0 01-.487-.243c-.144-.14-.248-.343-.313-.61a1.298 1.298 0 01-.024-.67.748.748 0 01.297-.453c.154-.114.378-.208.67-.282l1.604-.398.094.368-1.603.397c-.243.06-.412.129-.516.199a.533.533 0 00-.209.297.837.837 0 00.01.427c.064.268.174.447.328.531.148.085.397.085.75-.005l1.602-.397zm-4.352-3.409l2.526-1.346.179.333-1.251.67 1.92.586.239.451-1.588-.51-.913 1.905-.234-.441.8-1.584-.621-.198-.879.466-.178-.332zm-9.878-6.442l.362-.005a.76.76 0 00.09.358.66.66 0 00.273.243c.124.064.268.104.431.114.144.01.273 0 .388-.035a.533.533 0 00.258-.159.42.42 0 00.1-.243.362.362 0 00-.066-.238.54.54 0 00-.243-.184 4.265 4.265 0 00-.496-.178 2.717 2.717 0 01-.54-.214.837.837 0 01-.289-.288.706.706 0 01.08-.76.747.747 0 01.377-.257c.159-.055.337-.075.53-.065.21.015.393.065.552.144.159.08.273.189.352.328.08.139.114.293.11.457l-.363.005c-.01-.184-.064-.323-.174-.422-.104-.105-.268-.16-.486-.174-.229-.015-.397.015-.506.09a.383.383 0 00-.179.292.307.307 0 00.094.258c.065.075.253.154.556.243.298.095.507.17.616.229a.84.84 0 01.347.317.694.694 0 01.095.412.795.795 0 01-.164.422.852.852 0 01-.397.288c-.169.064-.353.09-.556.075-.258-.02-.472-.07-.64-.16a.956.956 0 01-.388-.367 1.003 1.003 0 01-.124-.526zm-3.464 1.435l-.646-2.79 2.015-.466.075.327-1.643.382.194.854 1.543-.357.075.327-1.54.358.22.948 1.712-.392.074.327-2.08.482zm-.77.075c.124-.234.159-.507.104-.825l-.387.065c.05.243.035.447-.05.62a.798.798 0 01-.416.387.962.962 0 01-.502.075.773.773 0 01-.466-.238 1.744 1.744 0 01-.358-.536 1.702 1.702 0 01-.139-.541.816.816 0 01.11-.517.942.942 0 01.441-.367c.174-.08.338-.1.492-.064.154.04.302.134.446.297l.308-.228a1.132 1.132 0 00-.625-.397 1.153 1.153 0 00-.75.094 1.444 1.444 0 00-.56.437 1.2 1.2 0 00-.239.66c-.015.253.04.511.159.784.114.249.263.462.451.64.19.174.398.284.626.318.168.026.349.008.545-.052l.03.345a.857.857 0 01.194-.064c.04-.005.075 0 .095.01.02.01.034.03.044.05.07.143-.144.277-.228.312-.035.015-.09.04-.169.07l-.005.188a2.16 2.16 0 00.343-.119c.173-.074.288-.169.342-.273.055-.104.065-.204.025-.293a.245.245 0 00-.154-.134c-.074-.03-.164-.025-.308.02l-.014-.184.024-.01a1.15 1.15 0 00.591-.53zm-3.931 2.635l-1.762-2.254.298-.233.724.928 1.172-.918-.725-.928.303-.233 1.762 2.258-.303.233-.829-1.062-1.171.913.829 1.063-.298.233zm.62 18.445l.909-.68-.363 1.087.879.66h-1.097l-.328 1.003-.327-1.002h-1.092l.873-.66-.357-1.087.903.68zm9.684 1.911l-.08-.303 1.674-.416.064.248a3.593 3.593 0 00-.317.819c-.09.327-.14.66-.15.987-.01.233.01.482.055.74l-.327.084a3.693 3.693 0 01-.065-.77c.005-.307.05-.61.124-.912a3.45 3.45 0 01.288-.79l-1.266.313zm-5.926 2.005l-.313-.094.561-1.95-.566-.17.08-.263c.342.09.526.1.744-.163l.234.064-.74 2.576zm11.212-3.916l-.913-.68.363 1.087-.879.66h1.097l.332 1.003.328-1.002h1.092l-.873-.66.352-1.087-.899.68zm-16.434-2.332l-2.348 1.643-1.106-1.584.278-.193.888 1.276.73-.512-.775-1.097.278-.198.77 1.102 1.067-.745.218.308zm-2.78-6.844l-2.864-.099.075-2.06.337.01-.06 1.683.874.035.06-1.579.332.005-.054 1.584.973.034.064-1.752.338.01-.075 2.13zm.457 2.696l-2.824.446-.065-.382 1.986-1.837-2.219.353-.054-.358 2.824-.451.06.387-1.986 1.836 2.224-.352.054.357zm1.018 2.292l-2.616 1.161-.839-1.89.308-.135.685 1.544.804-.357-.645-1.445.307-.139.646 1.45.888-.397-.715-1.609.308-.134.869 1.951zm10.344 7.33c-.025-.317-.015-.57.035-.77a.92.92 0 01.248-.466.733.733 0 01.466-.199.8.8 0 01.383.055.698.698 0 01.288.223c.079.105.143.229.198.383.055.148.094.357.114.62.03.313.02.566-.03.765a.92.92 0 01-.248.466.732.732 0 01-.466.199.722.722 0 01-.63-.224c-.194-.203-.313-.556-.358-1.052zm.337-.03c.04.437.115.72.229.854.114.139.248.199.397.183.149-.01.268-.094.357-.248.09-.154.114-.446.08-.883-.04-.437-.114-.725-.229-.859-.119-.134-.248-.193-.402-.178a.414.414 0 00-.342.218c-.1.174-.13.476-.09.913zm-2.744.492l.312.01c.01.148.045.258.114.337.065.074.16.12.273.134a.527.527 0 00.477-.198c.06-.07.114-.169.164-.293.044-.13.08-.258.094-.392 0-.015.005-.035.005-.065a.724.724 0 01-.293.219.708.708 0 01-.377.05.75.75 0 01-.531-.303c-.13-.18-.179-.398-.15-.656.036-.273.14-.476.319-.62a.801.801 0 01.625-.174c.174.02.323.09.457.199a.88.88 0 01.273.436c.054.18.06.432.02.755-.04.337-.11.605-.209.794a.954.954 0 01-.382.417.84.84 0 01-.531.094.755.755 0 01-.487-.233.75.75 0 01-.173-.511zm1.469-1.008c.024-.184-.005-.338-.095-.462a.485.485 0 00-.337-.208.507.507 0 00-.397.134.65.65 0 00-.218.437.561.561 0 00.104.426c.089.12.208.19.357.209a.49.49 0 00.387-.114.619.619 0 00.199-.422zM18.1 21.668l-1.534-2.656.259-.317 2.963.888-.273.338-.884-.288-.754.933.476.79-.253.312zm-.392-1.385l.61-.754s-1.245-.417-1.394-.482c.119.144.784 1.236.784 1.236zm-.605 3.36l-2.527-1.345.501-.948a1.4 1.4 0 01.323-.422.69.69 0 01.382-.149.715.715 0 01.387.075.66.66 0 01.258.253.7.7 0 01.09.387.762.762 0 01.417-.229.696.696 0 01.451.08.816.816 0 01.427.56.916.916 0 01-.024.343c-.03.124-.09.268-.174.432l-.511.963zm-.125-.496l.338-.626c.055-.109.094-.188.11-.233a.68.68 0 00.034-.233.425.425 0 00-.075-.204.462.462 0 00-.188-.159.48.48 0 00-.283-.059.41.41 0 00-.253.124 1.28 1.28 0 00-.238.348l-.308.58.864.462zm-1.166-.62l.293-.547c.08-.144.124-.258.139-.332a.373.373 0 00-.025-.258.409.409 0 00-.184-.184.474.474 0 00-.253-.06.39.39 0 00-.223.105 1.55 1.55 0 00-.238.367l-.268.506.759.402zm.581 3.746l-2.79-.645.288-1.236c.054-.248.124-.432.203-.55a.665.665 0 01.338-.249.803.803 0 01.447-.02c.198.05.352.149.456.308.105.159.15.377.124.655a.838.838 0 01.189-.189 1.94 1.94 0 01.442-.223l.868-.308-.104.462-.665.238a4.057 4.057 0 00-.447.174.865.865 0 00-.228.144c-.05.05-.09.1-.114.154a.858.858 0 00-.06.203l-.099.427 1.236.288-.084.367zm-1.475-.73l.184-.793c.04-.17.055-.303.04-.407a.404.404 0 00-.12-.254.427.427 0 00-.233-.134.42.42 0 00-.357.07c-.104.074-.184.218-.233.422l-.204.883.923.214zm20.545-6.613l2.06-1.986.878.913c.179.184.298.337.353.471.054.13.059.268.024.418a.838.838 0 01-.228.387.74.74 0 01-.506.213c-.194 0-.397-.084-.616-.253a.887.887 0 01.055.263c.005.149-.015.313-.055.491l-.213.899-.333-.343.169-.69c.044-.198.074-.352.094-.466a.824.824 0 000-.273.55.55 0 00-.064-.179c-.02-.035-.07-.09-.134-.159l-.308-.317-.913.883-.263-.273zm1.414-.84l.566.586c.12.124.228.213.318.258a.46.46 0 00.278.04.46.46 0 00.238-.124.426.426 0 00.139-.338c-.005-.134-.085-.273-.229-.427l-.63-.65-.68.655zm-3.33-1.95c.228-.417.52-.68.874-.79.352-.114.71-.07 1.062.124.228.13.407.298.53.512.125.213.18.446.17.7-.01.248-.09.5-.229.749a1.596 1.596 0 01-.53.596 1.205 1.205 0 01-.686.218 1.481 1.481 0 01-.695-.183 1.357 1.357 0 01-.536-.522 1.24 1.24 0 01-.164-.7c.015-.253.08-.486.204-.704zm.337.193c-.168.303-.218.586-.154.849.07.263.224.462.467.6a.924.924 0 00.765.075c.258-.084.476-.288.655-.61.114-.204.173-.403.193-.591a.935.935 0 00-.109-.521.911.911 0 00-.377-.373.964.964 0 00-.74-.094c-.258.065-.491.288-.7.665zm-3.271.228l.884-2.725 1.027.338a2.1 2.1 0 01.407.159.832.832 0 01.293.238c.07.09.114.199.134.333a.847.847 0 01-.04.397.877.877 0 01-.411.516c-.199.11-.492.104-.874-.02l-.7-.228-.357 1.107-.363-.114zm.824-1.31l.705.228c.233.075.412.085.536.03a.473.473 0 00.268-.317.556.556 0 00.01-.323.422.422 0 00-.178-.233 1.728 1.728 0 00-.328-.134l-.695-.224-.318.973zm7.743 16.193l2.676 1.027-.388 1.003a1.326 1.326 0 01-.268.457.667.667 0 01-.362.193.656.656 0 01-.392-.03.648.648 0 01-.288-.213.723.723 0 01-.139-.377.708.708 0 01-.382.278.66.66 0 01-.457-.025.815.815 0 01-.317-.213.709.709 0 01-.174-.288.855.855 0 01-.02-.343c.015-.129.055-.278.12-.451l.391-1.018zm.179.477l-.253.665c-.045.114-.07.193-.08.243a.62.62 0 00-.005.233c.01.07.045.13.095.194a.531.531 0 00.496.159.406.406 0 00.233-.154c.065-.075.13-.204.199-.373l.233-.615-.918-.352zm1.236.471l-.224.58a1.57 1.57 0 00-.099.348.391.391 0 00.263.413.43.43 0 00.258.024.333.333 0 00.209-.129c.054-.07.119-.199.193-.392l.209-.531-.81-.313z" fill="#000"/></svg>