<!-- by TradingView --><svg xmlns="http://www.w3.org/2000/svg" width="56" height="56"><path fill="#F0F3FA" d="M0 0h56v56H0z"/><path d="M9.1 42.27c3.97-5.6 11.82-9.45 15.25-10.67.15-.07.44-.17.43 0 0 .17-.29.33-.43.38-8.94 4.14-13.25 8.64-14.28 10.38-.17.27-.58.77-.88.6-.3-.16-.18-.53-.08-.7z" fill="#782283"/><path d="M26.09 31.3c-7.56 4.26-11.46 8.96-12.47 10.78-.15.19-.13.42 0 .47.13.04.42-.2.5-.27 6.7-5.72 12.93-6.69 15.48-7.15a34.29 34.29 0 004.71-1.23c5.8-2.37 8.82-9.09 9.22-10.02.32-.74.95-1 1.23-1.03.24-.04.51-.2-.34-.5-1.06-.37-3.29.9-4.74 2.83-1.12 1.5-1.75 1.82-2.02 1.73-1.03-.48-.76-1.84-.5-2.46.96-2.2 1.56-4.96.73-6.2-.83-1.22-3.78-1.75-7.06-.36-2.63 1.12-10 2.42-13.36 2.93-.29.12-.62.4.36.57 1.23.2 9.05.9 11.5.36 1.97-.42 2.33 1.11 2.26 1.93.13 4.4-3.61 6.91-5.5 7.62z" fill="#782283"/><path d="M30.09 18.65c.66-1.9-.7-2.4-1.47-2.43-.88 0-1.94.3-2.36.46a49.3 49.3 0 01-13.46 1.69c-1 .24-.42.6 0 .74a42.5 42.5 0 0010.8 1.32c.35-.15.83.35 0 3.5-.83 3.14-4.06 5.73-5.57 6.63-3.45 1.84-4.52 2.8-4.84 3.38-.4.73-.73 2.1.86.58 1.6-1.52 5-2.54 6.49-2.86 2.4-.49 7.57-1.76 8.97-2.91a11.23 11.23 0 002.75-3.9 4.47 4.47 0 011.38-1.54c.73-.49.65-.8.52-.89-2.24-.06-3.1 1.1-3.46 1.5-.37.4-1.2 1.24-2.08.93-.71-.25-.56-1.13-.4-1.54a65.01 65.01 0 001.87-4.66z" fill="#FCAF17"/><path d="M28.62 16.44c-.85 0-1.87.3-2.28.45h-.02a49.6 49.6 0 01-13.5 1.7 1.28 1.28 0 00-.32.12l.09.06c.08.05.18.1.27.12a42.44 42.44 0 0010.7 1.32.45.45 0 01.45.1c.14.13.22.34.25.6a10.21 10.21 0 01-3.03 7.32 15.72 15.72 0 01-3.09 2.52 30.72 30.72 0 00-3.57 2.15 4 4 0 00-1.18 1.14 3.23 3.23 0 00-.24.58 1.62 1.62 0 00-.06.26.61.61 0 000 .1.47.47 0 00.02-.01c.14-.06.4-.23.79-.6.83-.8 2.1-1.45 3.35-1.93a21.98 21.98 0 013.25-1c1.2-.24 3.08-.67 4.84-1.2a27.6 27.6 0 002.43-.82 6.48 6.48 0 001.6-.84 11.01 11.01 0 002.69-3.81v-.02a4.69 4.69 0 011.46-1.62c.35-.24.47-.4.5-.49-1 0-1.7.25-2.18.55-.43.27-.7.57-.89.79a7.8 7.8 0 01-.09.1c-.19.2-.5.53-.9.76-.38.24-.88.4-1.41.22-.46-.16-.64-.53-.68-.9a2.1 2.1 0 01.15-.93 64.86 64.86 0 001.86-4.66c.31-.89.13-1.4-.15-1.68-.3-.31-.77-.44-1.11-.45zm5.4 6.15zm-7.82-6.12a8.1 8.1 0 012.42-.47 2.1 2.1 0 011.43.58c.42.44.6 1.14.25 2.14a65.28 65.28 0 01-1.88 4.68 1.65 1.65 0 00-.1.72c.02.24.12.43.37.52.36.12.72.02 1.05-.18a3.83 3.83 0 00.88-.77c.19-.22.5-.57 1-.88.57-.35 1.38-.64 2.54-.6h.07l.05.03c.16.1.24.32.15.55-.08.22-.3.45-.67.7a4.26 4.26 0 00-1.3 1.45c-.35.84-1.38 2.8-2.81 3.98-.38.31-1 .62-1.71.9-.73.3-1.59.58-2.48.85a62.26 62.26 0 01-4.88 1.21c-.74.16-1.95.49-3.17.97-1.23.48-2.44 1.1-3.2 1.83-.4.38-.7.61-.94.7a.52.52 0 01-.37.03.38.38 0 01-.24-.28.84.84 0 010-.31 3.7 3.7 0 01.35-.99 4.4 4.4 0 011.3-1.29 31 31 0 013.61-2.17c.74-.44 1.9-1.3 3-2.44a9.8 9.8 0 002.9-6.96c-.02-.23-.08-.31-.1-.34h-.04l-.03.02h-.04c-1.56.07-5.9-.1-10.87-1.33h-.01a2.08 2.08 0 01-.36-.16.77.77 0 01-.3-.28.37.37 0 01-.04-.25.41.41 0 01.14-.23c.12-.1.32-.18.58-.24l.03-.01h.03a49.1 49.1 0 0013.39-1.68z" fill="#782283"/></svg>