<!-- by TradingView --><svg xmlns="http://www.w3.org/2000/svg" width="56" height="56"><path fill="#113D62" d="M0 0h56v56H0z"/><path d="M42.1 33.11c1.74-.61 5.23-2.39 5.25-4.54.03-2.68-4.53-5.17-11.27-7.44 4.34.65 13.19 2.88 13.85 6.6l.04-.2a3 3 0 01.03.44C50 32.41 40.15 36 28 36c-1.46 0-2.9-.05-4.28-.15 2.26-.34 4.74-1.39 5.13-3.28.18-.9-.6-2.5-5.66-4.3-6.32-2.27-8.34-3.35-8.96-5.45-1.77.58-5.88 2.33-6.08 4.99-.23 3.11 7.1 6.02 11.44 7.58C11.61 34.2 6 31.32 6 27.97c0-4.03 8.15-7.37 18.76-7.94 2.22-.09 5.12-.01 6.43.49-2.1.54-6.54 2.05-6.56 2.82-.03.77 2.84.92 4.28.9-.64.2-1.8.66-1.8 1 0 .26.65.45 1.55.71l1.13.35c3.76 1.24 11.3 4.3 12.3 6.81zm-4.97-.57c0-1.27-5.88-3.36-8.62-4.16 2.97 2.06 4.82 3.46 4.9 4.37.04.54-.5 1.11-.77 1.33 3.45-.15 4.5-1.13 4.5-1.54z" fill="#fff"/></svg>