<!-- by TradingView --><svg width="56" height="56" viewBox="0 0 56 56" xmlns="http://www.w3.org/2000/svg"><path fill="#F0F3FA" d="M0 0h56v56H0z"/><path d="M6 35.75V21.24c.04-.86.36-1.6.95-2.19A3.7 3.7 0 0 1 9.4 18h.54a3008.78 3008.78 0 0 1 4.05.02v1.53c0 .26 0 .42-.02.48a.77.77 0 0 1-.56.57 1.6 1.6 0 0 1-.33.02h-2.91c-.08 0-.17.01-.3.04a.97.97 0 0 0-.76.59c-.1.23-.12.45-.12.73v2.36c0 .02.02.03.04.03h4.23c.01 0 .02 0 .02.02v.57c0 .02 0 .02.01 0a6.43 6.43 0 0 1 5.16-2.14c2.6.1 4.86 1.7 5.89 4.06l-2.46 1.34h-.01c-.65-2.27-2.96-3.1-4.96-2.48-1.2.37-1.9 1.37-2.27 2.58a.05.05 0 0 1-.02.02l-2.98 1.6h-.01a6.56 6.56 0 0 1 .25-2.4l1.35-.52c.03-.02 0-.02-.04-.02H9v6.1c0 1.4-.9 2.53-2.3 2.64-.11.01-.35.02-.7 0Z" fill="#015294"/><path d="M18.02 36a6 6 0 0 1-2.99-.84 6.7 6.7 0 0 1-2.95-3.36l2.54-1.37a.02.02 0 0 1 .02 0v.01a3.8 3.8 0 0 0 7.33-.21s0-.01 0 0l3.01-1.4a.04.04 0 0 0 .02-.04v-5.57l2.98-.78H28v1.75a4.06 4.06 0 0 1 1.32-.96c.4-.18.8-.23 1.24-.23h1.86c.03 0 .08-.02.05-.03l-.44-.27a.03.03 0 0 1-.02-.02v-3.3h.01l2.99-.66V23h4c0-.01.01 0 0 0v1.17c.76-.82 2.23-1.18 3.34-1.18l4.1.01c1.92.02 3.55 1.39 3.56 3.36V30H42v.04l-.01.01v1.5c0 .24.01.42.03.53.08.35.28.6.6.77.25.12.52.15.8.15h6.57v.68c0 .24-.01.8-.03.9-.14.7-.7 1.25-1.4 1.39-.12.02-.3.03-.54.03h-5.75c-1.36 0-2.64-.98-3.28-2.2V36h-3.57a3.51 3.51 0 0 1-3.42-3.42l-.01-.54v-7.87L30.91 26H30c-.32 0-.6.05-.86.18a2.4 2.4 0 0 0-1.11 1.04c-.01 0-.02.02-.02.05v6.39A2.31 2.31 0 0 1 25.5 36H25l-.02-2.86a7.4 7.4 0 0 0 .04-4.3c-.16 4.16-2.75 7.16-7 7.16Zm24-8h4.8a.02.02 0 0 0 .03-.02v-.78c0-.32-.13-.63-.37-.85a1.27 1.27 0 0 0-.88-.36h-2.36c-.33 0-.64.13-.88.36-.23.22-.36.53-.36.85v.78a.02.02 0 0 0 .02.02ZM39 26.42l.63-.4V26H35c-.01 0 0 0 0 0v5.9c.04.53.36.91.87 1.04.15.04.32.06.53.06H39.08v-.01c-.05-.25-.08-.5-.08-.75v-5.82c0-.01 0 0 0 0 0-.01 0 0 0 0Z" fill="#015294"/><path d="m20.64 29.08 4.07-1.85a.02.02 0 0 1 .02 0v.01l.15.47v.03l-4.25 1.96a.05.05 0 0 0-.03.03 2.45 2.45 0 0 1-4.85-.32v-.01h-.01l-4.04 2.12h-.01c-.07-.16-.1-.33-.12-.5 0-.03 0-.05.03-.06l4.19-2.18a.03.03 0 0 0 .01-.02 2.45 2.45 0 0 1 4.84.33Z" fill="#F34127"/></svg>