<!-- by TradingView --><svg xmlns="http://www.w3.org/2000/svg" width="56" height="56"><path fill="#F0F3FA" d="M0 0h56v56H0z"/><path d="M8.96 26H4.4c-.28 0-.38.15-.4.31 0 .13.03.36.6.3.4-.03.41.35.4.52v3.53c.01.45-.09.77-.46.66-.29-.09-.46.07-.5.16-.08.2-.03.52.5.52h1.73c.26 0 .73.05.73-.34s-.43-.39-.63-.34c-.33 0-.37-.23-.38-.44v-1.54c0-.26.25-.35.37-.34h.7c.36.02.4.57.38.82-.03.18 0 .54.28.54s.29-.36.28-.54c-.1-1 0-1.57 0-1.92-.01-.36.02-.66-.28-.66-.29 0-.28.22-.28.76 0 .44-.26.54-.39.54h-.78c-.21 0-.28-.2-.28-.29v-1.2c-.02-.3.24-.37.37-.37h1.77c.47-.01.57.36.57.56.01.07.03.32 0 .76-.04.45.23.54.37.54.14-.01.38-.13.3-.54-.09-.4-.08-.98-.07-1.22.12-.62-.18-.78-.34-.78zm9.9 0h-2.64c-.28 0-.38.15-.4.32 0 .12.04.35.6.3.56-.05.59.27.58.44v3.84c.01.44-.27.55-.64.44-.29-.09-.46.07-.5.16-.08.2.1.5.5.5h2.22c.28 0 .72.07.72-.32s-.43-.39-.63-.34c-.58.16-.66-.23-.67-.44v-3.84c0-.47.47-.45.75-.38.24 0 .55-.06.55-.31s-.16-.37-.44-.37z" fill="#CE000C"/><path fill-rule="evenodd" d="M9.78 26h3c.68 0 1.9.24 1.9 1.45 0 1.22-.94 1.45-1.07 1.46.81.29.8.8.8 1.16v.73s-.03.51.28.51c.31 0 .31-.19.31-.51v-.96c0-.23.17-.36.36-.36.24 0 .33.27.33.36V31c0 .17-.1.99-1 .99-.91 0-1.18-.52-1.18-1.02s0-1.27-.18-1.5c0 0-.24-.26-.72-.26h-.79s-.33 0-.33.26v1.39c0 .21.17.6.75.44.2-.04.62-.04.62.34 0 .36-.39.35-.65.35H9.93c-.52 0-.59-.33-.52-.52.05-.1.23-.25.52-.17.37.11.58 0 .57-.44v-3.84c0-.17.02-.46-.52-.41-.56.05-.6-.18-.59-.3.01-.17.12-.33.4-.32zm2.04.65c.62-.1 1.89-.06 1.93.94.04 1-1.27 1.08-1.93 1a.37.37 0 01-.34-.38v-1.17c0-.1.06-.36.34-.39zm23.92-.64c.7.02 1.31.04 2.6 0 .91-.04 1.9.38 1.9 1.6 0 1.21-.74 1.63-1.24 1.72 0 0-.26.06-.73.06l-.87-.02s-.4 0-.4.26v1c0 .23.02.69.4.69h.07c.23 0 .53-.01.53.34 0 .35-.37.34-.62.34h-1.85c-.53 0-.57-.32-.5-.52.05-.09.17-.2.5-.16.38.04.48-.28.47-.72v-3.27c0-.17 0-.75-.41-.71-.56.05-.6-.18-.59-.3.01-.17.12-.32.39-.32l.35.01zm1.6.6c.6-.1 1.83-.06 1.87 1.05.04 1.11-1.23 1.2-1.88 1.1-.1.01-.33-.13-.33-.41v-1.3c0-.1.06-.4.33-.43z" fill="#CE000C"/><path d="M23.82 26.41c-.07.54-.03 1.42 0 1.8.01.2-.17.28-.26.29-.29.04-.37-.32-.38-.5-.02-.53-.36-1.47-1.54-1.42C20.4 26.63 20 27.88 20 29c0 1.12.46 2.34 1.64 2.36 1.26.03 1.46-1.14 1.36-1.65-.08-.4-.49-.4-.75-.35 0 0-.4.05-.42-.27-.01-.25.27-.3.42-.28.79.1 1.78.02 2.07 0 .28-.02.47.06.47.28 0 .22-.08.31-.47.32-.32 0-.3.25-.32.37v1.89c0 .1-.1.33-.34.33a.31.31 0 01-.33-.28v-.52c-.57.66-1.27.8-1.73.8-.46 0-2.58-.2-2.58-2.9 0-2.52 1.54-3.1 2.69-3.1.9 0 1.4.44 1.53.63 0-.34.04-.57.32-.56.23 0 .27.23.26.34z" fill="#CE000C"/><path fill-rule="evenodd" d="M27.5 32c1.38 0 2.5-1.34 2.5-3s-1.12-3-2.5-3-2.5 1.34-2.5 3 1.12 3 2.5 3zm0-.7c.83 0 1.5-1.03 1.5-2.3 0-1.27-.67-2.3-1.5-2.3S26 27.72 26 29c0 1.27.67 2.3 1.5 2.3z" fill="#CE000C"/><rect x="31" y="28" width="3" height="1" rx=".5" fill="#CE000C"/><path d="M39 31.65c0-.1.07-.32.34-.32h.12c.3 0 .6 0 .76-.46.14-.4 1.2-3.17 1.72-4.5a.6.6 0 01.54-.37c.33-.01.5.24.54.36l1.68 4.51a.7.7 0 00.67.46.72.72 0 01.47 0c.24.1.66.02.66-.46v-3.82c0-.17-.2-.48-.71-.38-.52.1-.67-.16-.67-.3-.02-.13.07-.37.55-.37h2.2c.16 0 .43.04.45.36.01.33-.3.34-.45.3-.15-.03-.36.02-.37.39v1.8l2.05-1.94c.07-.08.12-.24-.22-.24h-.15c-.33 0-.5 0-.55-.25-.05-.3.26-.42.45-.42h2.28c.15 0 .45.07.44.36 0 .3-.3.37-.44.37-.24-.02-.62-.01-.72.18l-1.69 1.75 1.9 2.42c.06.1.27.28.62.25.45-.05.53.27.53.35 0 .08-.2.32-.64.32H49.2c-.34 0-.43-.25-.43-.4.01-.13.14-.36.57-.27.43.08.65-.04.5-.25l-1.51-1.87-.82.72v.94c0 .16 0 .46.18.46.48 0 .64.08.64.27 0 .18-.1.4-.56.4h-4.42c-.2 0-.53 0-.53-.3 0-.34.3-.37.46-.37.31.03.36-.14.27-.46a7.3 7.3 0 00-.26-.79v-.01l-.02-.02c-.04-.06-.11-.19-.3-.19h-1.05a.32.32 0 00-.3.2c-.07.18-.24.7-.31.94-.03.13-.02.4.31.36.33-.03.51-.03.53.34.01.3-.33.3-.51.3h-2.09c-.2 0-.55 0-.55-.35zm3.5-4.7l-.6 2.1c-.02.08-.05.23.11.23h.94c.08 0 .17-.03.11-.23l-.57-2.1zm-24.78-6.28h-.37v.7l-.58-.36v.43l.58.4v.9l-.75-.42-.05-.7-.37-.22.01.68-.6-.34-.18.32.6.34-.6.33.37.21.64-.3.73.42-.69.4-.66-.3-.34.2.57.35-.56.33.18.32.57-.33v.66l.35-.2.08-.7.7-.41v.84l-.58.42v.4l.58-.32v.65h.37v-.65l.58.32v-.4l-.58-.42v-.83l.76.44.08.71.34.2.01-.66.56.33.19-.32-.56-.33.57-.35-.35-.2-.65.3-.78-.45.82-.47.64.3.37-.21-.6-.33.6-.34-.18-.32-.6.34.01-.68-.37.21-.06.71-.8.47v-.9l.58-.4V21l-.58.35v-.7z" fill="#CE000C"/></svg>