<!-- by TradingView --><svg width="56" height="56" viewBox="0 0 56 56" xmlns="http://www.w3.org/2000/svg"><path fill="#F0F3FA" d="M0 0h56v56H0z"/><path d="m51 19-2.42 8.98V28l.01.01h1.54v.02L48.53 34H4l1.6-5.97v-.02l.03-.01h1.69l.01-.03.54-1.95a.02.02 0 0 0 0-.01h-.01V26h-1.2l-.02-.01v-.02l.58-2.18.01-.01h1.22l.01-.01.01-.02c.1-.35.19-.67.25-.94.1-.41.2-.72.29-.93.83-1.96 2.5-2.78 4.42-2.78h.01l.01.02v.01l-.56 2.1-.02.04h-.03a2 2 0 0 0-.6.05c-.66.15-1.08.57-1.28 1.27a1787.54 1787.54 0 0 0-.3 1.18h1.55a.02.02 0 0 1 .02.01v.02l-.58 2.17V26l-.03.01h-1.56l-.02.03-.53 1.95V28h1.99c-.3 1.23-.13 2.59.73 3.48.9.96 2.3 1.04 3.44.68A6.35 6.35 0 0 0 19.62 28h-2.13c0 .02-.01.02-.02.03-.38.98-1.18 1.8-2.16 1.93-.78.12-1.52-.27-1.67-1.18a2.02 2.02 0 0 1 .02-.77.01.01 0 0 0-.01-.01H11.5a6.3 6.3 0 0 1 3.85-4.31c1.1-.4 2.41-.4 3.38.36.97.78 1.3 2.15 1.04 3.42-.03.19-.08.33-.12.5a.03.03 0 0 0 0 .02h.02V28H20.8l.01-.04c.1-.37.2-.74.33-1.16a4.53 4.53 0 0 1 4.57-3.25l-.63 2.33-.02.03h-.02c-.2.01-.56-.02-.82.03-.33.08-.6.27-.77.56-.08.12-.16.37-.25.74l-.2.74V28l.01.01h2.39l.02-.03.28-1.04c.09-.35.19-.63.29-.84.83-1.64 2.15-2.66 3.88-2.67a2.03 2.03 0 0 1 1.93 1.1.04.04 0 0 0 .03.02l.02-.01a3.57 3.57 0 0 1 2.95-1.08c1.35.16 2.04 1.06 2 2.54 0 .25-.05.54-.14.89l-.31 1.1V28h.01l.01.01h1.49l.03-.01.02-.03 1.19-4.4.01-.02.03-.01h2.13v.02l-1.2 4.43a.02.02 0 0 0 .02.02h2.4l.03-.01.01-.03 1.2-4.41v-.02h2.15a.02.02 0 0 1 .02 0v.03l-1.2 4.4a.03.03 0 0 0 .01.03h.01l.01.01h1.62l.04-.01.02-.04L48.83 19H51Zm-23.4 8.97a.03.03 0 0 0 .02.03h2.15l.02-.03c.13-.53.24-.87.3-1.1.07-.24.06-.47 0-.7-.22-.65-.98-.62-1.44-.37-.2.1-.36.28-.52.52-.09.14-.17.37-.26.72-.14.55-.23.84-.26.93Zm6.56 0 .29-1.03c.07-.28.1-.5.09-.65-.04-.42-.3-.64-.75-.65-.57-.01-1 .31-1.32.8a2.2 2.2 0 0 0-.24.66l-.25.88a.02.02 0 0 0 0 .02H34.15l.02-.03Zm-20.5-.02a.04.04 0 0 0 .01.04h.02l.01.01h3.76l.02-.02c.25-.73.12-1.55-.51-1.96-.57-.36-1.3-.25-1.86.07a2.96 2.96 0 0 0-1.44 1.86Zm7.16.05h-.01l-.01.02-1.07 4.02a.02.02 0 0 0 0 .02h2.17l1.08-4.03v-.01l-.01-.02h-2.15Zm4.6 0-.01.02-1.07 4.02a.02.02 0 0 0 0 .02H26.53l1.07-4.03v-.02H25.42Zm5.45 4.07h.02v-.02l1.08-4.02a.02.02 0 0 0 0-.02h-2.18l-.02.01-1.07 4.02a.02.02 0 0 0 0 .02h2.17Zm3.3-4.07h-.02v.02l-1.08 4.02a.02.02 0 0 0 0 .02H35.27l1.07-4.03v-.01a.02.02 0 0 0 0-.01h-2.17Zm8.35.04c-.2 1.08-.8 1.94-1.88 1.87-.53-.03-.78-.49-.74-1.04a3.62 3.62 0 0 1 .16-.86H37.9l-.01.01c-.53 1.65-.36 3.67 1.52 4.07.32.07.57.1.74.1a4.63 4.63 0 0 0 3.9-2.45c.29-.52.5-1.11.63-1.72V28h-2.15l-.02.03Zm4.95 4.03h.01l.01-.02 1.07-4.02v-.02H46.4l-1.08 4.03a.02.02 0 0 0 0 .02h2.15Zm-39.07 0h.01v-.02l1.08-4.01a.03.03 0 0 0 0-.02h-.01L9.47 28H7.34l-.01.01v.02l-1.08 4a.03.03 0 0 0 0 .03H8.4Z" fill="#047832"/><path d="M42 21.84c.54-.5.7-1.27.36-1.71-.35-.44-1.06-.39-1.6.12-.54.5-.7 1.27-.35 1.71.34.44 1.06.39 1.6-.12ZM45.57 21.84c.54-.5.7-1.27.35-1.71-.34-.44-1.05-.39-1.6.12-.53.5-.69 1.27-.35 1.71.35.44 1.06.39 1.6-.12Z" fill="#047832"/></svg>