<!-- by TradingView --><svg width="56" height="56" viewBox="0 0 56 56" xmlns="http://www.w3.org/2000/svg"><path fill="#F0F3FA" d="M0 0h56v56H0z"/><path d="M6.45 26.03a.09.09 0 0 0-.07.03.1.1 0 0 0-.03.07v5.73c0 .03-.01.07-.04.1a.13.13 0 0 1-.09.03H4.27c-.12 0-.2-.06-.24-.2a.81.81 0 0 1 0-.45c.02-.06.05-.1.1-.13.04-.04.09-.06.14-.05h.13c.14 0 .21-.08.21-.23.02-1.65.02-3.38 0-5.2-.02-2 .09-3.77 2.33-3.73 1.05.02 1.96.57 1.75 1.83a.62.62 0 0 1-.21.37.53.53 0 0 1-.4.12c-.55-.05-.73-.4-.54-1.03.1-.35-.01-.53-.36-.53H6.9a.53.53 0 0 0-.4.18.61.61 0 0 0-.16.42v1.67c0 .12.05.18.17.18h.72c.15 0 .23.08.23.25v.28c0 .19-.1.29-.27.29h-.74ZM24.87 22.92a.8.8 0 0 0-.28-.13.31.31 0 0 1-.23-.2.58.58 0 0 1-.03-.38.31.31 0 0 1 .1-.15c.05-.04.1-.06.16-.06h1.94a.1.1 0 0 1 .05.01l.04.03.02.04.01.06v9.6c0 .17-.07.26-.23.26h-1.21c-.14 0-.2-.08-.2-.23V23.2a.32.32 0 0 0-.14-.28ZM31.37 27.48c0 .1-.04.2-.11.28A444.66 444.66 0 0 0 27.59 32c-.02 0-.04 0-.05-.02a.1.1 0 0 1-.03-.05 11.2 11.2 0 0 0-.04-8.87.1.1 0 0 1 .03-.04.07.07 0 0 1 .05-.02 465.73 465.73 0 0 0 3.7 4.2c.08.08.12.17.12.28Z" fill="#123C87"/><path d="M31.73 27.5a11.23 11.23 0 0 0-.94-4.42.1.1 0 0 1 .03-.06.07.07 0 0 1 .06-.02 493.72 493.72 0 0 0 3.66 4.21c.08.09.11.18.11.3 0 .1-.03.19-.1.27A500.92 500.92 0 0 0 30.88 32c-.01 0-.03 0-.05-.02a.1.1 0 0 1-.03-.05 11.3 11.3 0 0 0 .92-4.43ZM11.24 31.48c-.48.4-1.06.56-1.72.51-.99-.08-1.49-.7-1.5-1.84L8 25.17c0-.1.05-.16.14-.16h1.25c.1 0 .14.06.14.16v5.13c0 .76.3 1.03.9.83l.07-.03c.28-.1.53-.3.7-.58.18-.28.27-.62.27-.98v-3.33c0-.14-.06-.21-.17-.21h-.06a.22.22 0 0 1-.17-.09.32.32 0 0 1-.07-.2v-.45c0-.17.07-.26.22-.26h1.63l.06.01.05.04.03.06.01.07v6.66c0 .04-.01.08-.03.11a.12.12 0 0 1-.1.05h-1.13c-.1 0-.16-.05-.2-.14a.53.53 0 0 1-.06-.22c0-.03 0-.07-.02-.1a.17.17 0 0 0-.06-.07.13.13 0 0 0-.16.01ZM15.66 30.8a.14.14 0 0 0 0 .13l.04.05a.1.1 0 0 0 .06.02h2.46c.15 0 .23.08.23.24v.48c0 .19-.08.28-.25.28h-4.76a.1.1 0 0 1-.05-.02.11.11 0 0 1-.04-.04.13.13 0 0 1 0-.11c.84-1.91 1.77-3.77 2.67-5.65a.14.14 0 0 0 0-.12.12.12 0 0 0-.04-.05.1.1 0 0 0-.06-.01h-2.46c-.15 0-.23-.09-.23-.25v-.48c0-.18.09-.27.25-.27h4.76a.1.1 0 0 1 .05.02c.02 0 .03.02.04.04a.13.13 0 0 1 0 .11c-.85 1.9-1.77 3.76-2.67 5.64ZM22.46 31.64c0-.04 0-.07-.02-.1a.17.17 0 0 0-.06-.07.13.13 0 0 0-.16 0c-.48.4-1.05.56-1.71.5-.99-.07-1.49-.69-1.5-1.84L19 25.17c0-.11.04-.17.13-.17h1.26c.1 0 .14.06.14.17l-.01 5.13c0 .75.3 1.02.9.82l.07-.02c.28-.1.53-.3.7-.58.18-.28.27-.63.27-.98l.01-3.33c0-.14-.06-.21-.18-.21h-.05a.22.22 0 0 1-.17-.09.32.32 0 0 1-.07-.2v-.45c0-.17.07-.26.22-.26h1.63c.04 0 .08.02.1.06a.2.2 0 0 1 .05.13l-.01 6.65-.01.06c0 .02-.02.04-.03.05a.13.13 0 0 1-.04.04.11.11 0 0 1-.05.01h-1.14c-.09 0-.15-.05-.2-.14a.53.53 0 0 1-.05-.22Z" fill="#123C87"/><path d="m39.68 29.6-.86-.04c-.24-.01-.36-.16-.36-.43v-.44c0-.28.13-.43.38-.43h2.22c.09 0 .17.03.24.07.07.04.14.1.19.18a.71.71 0 0 1 .1.53c-1.07 4.8-7.03 3.44-5.94-1.76.15-.7.58-1.31 1.3-1.8.97-.68 2.92-.74 3.71.51.03.04.05.1.05.15 0 .05 0 .1-.02.15-.1.26-.27.5-.51.72-.06.06-.15.06-.27 0-.26-.15-.7-.5-1.1-.56-2.1-.33-2.84 2.95-1 3.97.57.32 1.2.22 1.9-.3.34-.26.33-.43-.03-.51ZM43.62 27.29h.07l1.07-1.77c.1-.16.22-.3.37-.38a.91.91 0 0 1 .48-.14h.54c.36 0 .43.17.21.5l-1.77 2.64a2 2 0 0 0-.33 1.14v2.4c0 .08-.03.15-.07.2a.25.25 0 0 1-.17.1 4.01 4.01 0 0 1-.76 0 .25.25 0 0 1-.17-.09.55.55 0 0 1-.1-.26v-2.34a2 2 0 0 0-.33-1.14l-1.78-2.63c-.23-.33-.16-.5.2-.5h.55c.17 0 .33.04.48.13.15.09.27.22.37.38.4.68.76 1.27 1.08 1.75H43.62ZM52 28.5c0 .93-.32 1.82-.9 2.47A2.87 2.87 0 0 1 48.96 32c-.81 0-1.6-.37-2.16-1.03a3.78 3.78 0 0 1-.9-2.47c0-.93.32-1.82.9-2.47A2.87 2.87 0 0 1 48.95 25c.8 0 1.58.37 2.16 1.03.57.65.89 1.54.89 2.47Zm-1.26.01c0-.54-.2-1.07-.53-1.45-.33-.39-.79-.6-1.26-.6-.48 0-.94.21-1.27.6-.34.38-.53.9-.53 1.45 0 .55.2 1.07.53 1.45.33.39.79.6 1.27.6.47 0 .93-.21 1.26-.6.34-.38.53-.9.53-1.45Z" fill="#75CACE"/></svg>