<!-- by TradingView --><svg xmlns="http://www.w3.org/2000/svg" width="56" height="56"><path fill="#F0F3FA" d="M0 0h56v56H0z"/><path d="M21.2 13.6c5 2.96 7.9 8.46 9.15 11.42 2.08-4.23-.3-11.91-3.97-14.29-3.28-2.11-4.95.82-5.18 2.86z" fill="url(#aq1w452l0)"/><path d="M32.23 26.3c-.7-4.95-.38-13.13 3.53-13.13 4.5 0 .84 9.74-3.53 13.12z" fill="url(#bq1w452l0)"/><path d="M32.43 27.14s4.17-2.12 6.25-10.58c3.1 6.3-3.36 10.58-6.04 10.58h-.2z" fill="url(#cq1w452l0)"/><path d="M32.23 30.1c-.7 4.94-.38 13.12 3.53 13.12 4.5 0 .84-9.73-3.53-13.12z" fill="url(#dq1w452l0)"/><path d="M32.43 29.26s4.17 2.11 6.25 10.58c3.1-6.3-3.36-10.58-6.04-10.58h-.2z" fill="url(#eq1w452l0)"/><path d="M19.95 14.44c2.08 0 9.85 9.31 9.57 11.85-3.93 1.34-10.25-.32-12.32-4.33-1.35-2.63-.9-7.52 2.75-7.52z" fill="url(#fq1w452l0)"/><path d="M21.2 42.4c5-2.96 7.9-8.46 9.15-11.42 2.08 4.23-.3 11.91-3.97 14.29-3.28 2.11-4.95-.82-5.18-2.86z" fill="url(#gq1w452l0)"/><path d="M19.95 41.56c2.08 0 9.85-9.31 9.57-11.85-3.93-1.34-10.25.32-12.32 4.33-1.35 2.63-.9 7.52 2.75 7.52z" fill="url(#hq1w452l0)"/><defs><linearGradient id="aq1w452l0" x1="22.03" y1="12.32" x2="30.53" y2="22.76" gradientUnits="userSpaceOnUse"><stop stop-color="#006C41"/><stop offset="1" stop-color="#5CAF45"/></linearGradient><linearGradient id="bq1w452l0" x1="34.88" y1="13.17" x2="34.88" y2="26.29" gradientUnits="userSpaceOnUse"><stop stop-color="#0D8846"/><stop offset="1" stop-color="#60B145"/></linearGradient><linearGradient id="cq1w452l0" x1="38.68" y1="16.56" x2="35.35" y2="27.11" gradientUnits="userSpaceOnUse"><stop stop-color="#007E44"/><stop offset="1" stop-color="#4DA646"/></linearGradient><linearGradient id="dq1w452l0" x1="34.88" y1="43.22" x2="32.35" y2="31.39" gradientUnits="userSpaceOnUse"><stop stop-color="#078445"/><stop offset="1" stop-color="#63B344"/></linearGradient><linearGradient id="eq1w452l0" x1="38.68" y1="39.84" x2="32.28" y2="29.35" gradientUnits="userSpaceOnUse"><stop stop-color="#007F44"/><stop offset="1" stop-color="#52934A"/></linearGradient><linearGradient id="fq1w452l0" x1="15.79" y1="18.67" x2="30.47" y2="26.92" gradientUnits="userSpaceOnUse"><stop stop-color="#081E1B"/><stop offset=".25" stop-color="#007342"/><stop offset="1" stop-color="#5EAF45"/></linearGradient><linearGradient id="gq1w452l0" x1="22.03" y1="43.68" x2="30.53" y2="33.24" gradientUnits="userSpaceOnUse"><stop stop-color="#006C41"/><stop offset="1" stop-color="#5CAF45"/></linearGradient><linearGradient id="hq1w452l0" x1="15.79" y1="37.33" x2="30.47" y2="29.08" gradientUnits="userSpaceOnUse"><stop stop-color="#081E1B"/><stop offset=".25" stop-color="#007342"/><stop offset="1" stop-color="#5EAF45"/></linearGradient></defs></svg>