<!-- by TradingView --><svg xmlns="http://www.w3.org/2000/svg" width="56" height="56"><path fill="#095D91" d="M0 0h56v56H0z"/><path fill="#fff" d="M10 19h6v5h-6zm-1 5h1l5 4v6l-6-5v-5zm12 4l5 4v6l-5-4v-6zm-5-9h6.5l6.5 5h-7l-6-5zm13 5h6.5L48 33h-7l-12-9z"/><path d="M10 24h6l5 4h-6l-5-4z" fill="#fff"/><path d="M16 19l17 14v5L16 24v-5zm25 14h7v5h-7z" fill="#fff"/><path d="M26.9 28H34v4h-2.2l-4.9-4z" fill="#fff"/><path d="M16 18.9l17.53 14.46-.06.08L16.1 19.1v4.82l16.93 14.03-.06.08L16.03 24H10v-.1h6v-5z" fill="#1A355B"/><path d="M15.47 28.44l-6-4.8.06-.08 6 4.8-.06.08zM48.5 33h-8v-.1h8v.1zm-6.55-5h-8v-.1h8v.1z" fill="#1A355B"/></svg>