<!-- by TradingView --><svg width="56" height="56" viewBox="0 0 56 56" xmlns="http://www.w3.org/2000/svg"><path fill="#F0F3FA" d="M0 0h56v56H0z"/><path d="m27.99 11 12.22 6.98a.09.09 0 0 1 .05.07c0 .02 0 .03-.02.05l-.03.03-5.28 2.98a.24.24 0 0 1-.11.03.23.23 0 0 1-.12-.03l-6.54-3.7a.5.5 0 0 0-.5 0l-9.07 5.17-5.5-3.17L27.76 11H28Z" fill="#136DB4"/><path d="m13.1 19.4 5.49 3.18.01 10.46c0 .1.03.2.07.27.05.09.12.16.2.2l9.08 5.18c-.07 1.97.15 3.95.66 5.94-.23.09-.4.22-.52.37h-.5L13 36.65V19.5l.1-.1Z" fill="#1563AC"/><path d="m43 36.46-5.77-3.16-9.15-5.1a.22.22 0 0 1-.12-.2.22.22 0 0 1 .12-.19l14.57-8.24a.14.14 0 0 1 .15 0l.05.05c.01.02.15.05.15.07v16.77Z" fill="#33B5B2"/><path d="M37.23 33.3 43 36.46l-3.36 1.86a17.28 17.28 0 0 0-5.04-3.39l2.63-1.63Z" fill="#1563AC"/><path d="M34.6 34.93c1.95.88 3.63 2.01 5.04 3.4l-11.03 6.3c-.5-2-.73-3.97-.66-5.94l6.65-3.76Z" fill="#136DB4"/></svg>