<!-- by TradingView --><svg xmlns="http://www.w3.org/2000/svg" width="56" height="56"><path fill="#727271" d="M0 0h56v56H0z"/><path d="M32 26v5h1v-5h3v-1h-7v1h3zm-18-1v6h6v-1h-5v-1.5h5v-1h-5V26h5v-1h-6zm-7 0a2 2 0 00-2 2v2c0 1.1.9 2 2 2h4a2 2 0 002-2v-1.5H9v1h3v.5a1 1 0 01-1 1H7a1 1 0 01-1-1v-2a1 1 0 011-1h4a1 1 0 011 1h1a2 2 0 00-2-2H7zm20 5v-5h1v6h-2l-3.65-5H22v5h-1v-6h2l3.68 5H27z" fill="#fff"/><path fill-rule="evenodd" d="M35 31l3.15-6h1.76L43 31h-1.2l-.5-1h-4.6l-.5 1H35zm2.2-2l1.54-3h.57l1.57 3H37.2z" fill="#fff"/><path d="M48.06 25c1.52.02 1.99 1.37 1.94 2h-1.06c-.04-.63-.25-1-.67-1h-3.4a.7.7 0 00-.72.7c0 .33.37.73.72.75.74.03 2.74.11 3.2.11.56 0 1.92.1 1.93 1.63.01 1.52-1.29 1.84-1.94 1.8h-3.12c-1.74.01-2-1.33-1.92-1.99h1.05c0 .84.37 1 .66 1h3.41c.52 0 .76-.38.76-.74 0-.35-.28-.7-.84-.73l-3.12-.1c-.3 0-1.95-.24-1.94-1.62.01-1.52 1.3-1.84 1.94-1.8.4 0 1.6-.02 3.12 0zM45 32h3v1h-3z" fill="#fff"/></svg>