<!-- by TradingView --><svg xmlns="http://www.w3.org/2000/svg" width="56" height="56" viewBox="0 0 56 56"><path fill="#F0F3FA" d="M0 0h56v56H0z"/><path d="M33.79 18.29l.8 1.14a8.47 8.47 0 0 1 4.87-1.62c2.3 0 3.62.49 3.99.73V17.2c-.74-.05-2.28-.44-2.51-1.61-.23-1.18-.18-1.55-.13-1.59a68.7 68.7 0 0 1-5.97.47c.43.7 1.22 2.2.95 2.75-.27.55-1.45.94-2 1.07zM15.05 37.82c1.97-1.11 6.7-3.84 9.89-5.86 3.18-2.02 8.34-6.28 10.51-8.15-.6-1.59-.76-4.88 3.4-5.34 5.2-.57 6.03 2.73 4.4 3.38l-1.8.33.88.81c-.16.41-.77 1.32-1.97 1.67l-.8.23c-1.15.3-2.01.52-2.01 1.32 0 .44.67.45 1.69.45 1.24 0 3 0 4.68.82l-1.89 2.11c-.58-.58-2.92-1.6-7.67-.93-4.74.66-9.6 4.07-11.43 5.7-.36.34-.67.61-.94.85-1.43 1.28-1.74 1.56-2.25 4.85L16.94 42v-4.1l-1.9.67v-.75zm24.83-16.98c.26 0 .48-.2.48-.46a.47.47 0 0 0-.48-.47c-.27 0-.48.2-.48.47 0 .25.21.46.48.46zM23.05 31.67c-6.07 3.91-9.4 5.1-10.3 5.21-2.76-7.1 2.79-11.65 5.9-13.03l-.46 2.85h2.05l-1.34 4.97 4.15-6.4H20.7l.76-2.6c6.57-1.24 10.92.51 12.28 1.55-1.04.85-4.62 3.54-10.69 7.45z" fill="#E42320"/></svg>