<!-- by TradingView --><svg width="56" height="56" viewBox="0 0 56 56" xmlns="http://www.w3.org/2000/svg"><path fill="#F0F3FA" d="M0 0h56v56H0z"/><path d="M52 22.86v10.28a.74.74 0 0 1-.01.14v.03l-.02.05-.02.08-.01.02v.02l-.03.04a.74.74 0 0 1-.04.08v.01l-.02.01-.05.08-.02.02-.04.05-.03.03-.04.03-.05.03a.85.85 0 0 1-.08.05l-.05.03a.75.75 0 0 1-.1.03l-.05.01a.73.73 0 0 1-.15.02H4.8c-.45 0-.81-.4-.81-.88V22.88a1 1 0 0 1 .02-.18l.01-.06.04-.11.03-.07.05-.08.04-.06.06-.08h.01l.07-.06.04-.03v-.01a.73.73 0 0 1 .1-.06h.02l.02-.02.04-.01a.67.67 0 0 1 .09-.03h.02l.06-.01.08-.01H51.2a.79.79 0 0 1 .16.02l.09.02.05.02.03.02h.02l.06.05.05.03.03.02c.04.04.08.07.11.12l.04.04.08.15.02.03.02.06.02.07v.04l.02.03v.04l.01.1Z" fill="#B0B2B4"/><path d="M51.6 33.24c0 .24-.17.44-.39.44H4.8c-.22 0-.4-.2-.4-.44V22.76c0-.24.18-.44.4-.44H51.2c.22 0 .4.2.4.44v10.48Z" fill="#213469"/><path d="M17 24v2H9v4h6v-1h-3v-2h5v2.51c0 .94-.64 2-1.54 2.33-.3.1-.68.16-1.16.16H9.59c-.43 0-.77-.05-1.04-.15a2.16 2.16 0 0 1-.88-.64A2.55 2.55 0 0 1 7 29.44v-3.2c0-.25.07-.52.21-.82.15-.3.34-.56.58-.8.24-.23.51-.4.82-.49.3-.09.62-.13.95-.13H17ZM18 24h2v8h-2v-8ZM29 26.01h-6v1.02h6V26ZM28.77 29H23v3h-2v-8h7.57c.64 0 1.2.23 1.68.68.5.48.75 1.08.75 1.8 0 .69-.22 1.28-.65 1.78-.44.49-.96.74-1.58.74ZM42 26h-4v6h-2v-6h-4v-2h10v2ZM45.15 26.16 44.33 28h1.64l-.82-1.84Zm-1.97-.18c.3-.65.55-1.11.8-1.39.33-.4.73-.59 1.2-.59.44 0 .83.21 1.17.63.21.28.47.74.77 1.4L49.8 32h-1.9l-1.04-2h-3.43l-.96 2H40.5l2.68-6.02Z" fill="#fff"/></svg>