<!-- by TradingView --><svg xmlns="http://www.w3.org/2000/svg" width="56" height="56" viewBox="0 0 56 56"><path fill="url(#afrkbliyg)" d="M0 0h56v56H0z"/><path d="M9 20.64v9.63c0 .21.11.41.3.53l2.07 1.27c.2.12.45.1.62-.07 1.99-1.73 4.07-1.85 4.97-1.67.07.01.14.04.2.09l9.89 6.7a.6.6 0 0 1 .2.8l-.97 1.76c-.16.3-.05.65.27.8l.96.42c1.03.44 3.3-.64 4.3-1.24l7.23-4.99a.6.6 0 0 0 .11-.92l-6.39-6.9a.6.6 0 0 0-.77-.1c-.48.33-1.4.96-3.02 2.1-2.5 1.74-4.42 1.13-5.1.58a.52.52 0 0 1-.08-.08l-2.25-2.73a.6.6 0 0 1 .04-.81l5.02-5.07c.15-.14.22-.35.12-.54-.26-.52-1-1.2-2.54-1.2-1.82 0-7.73 1.59-10.68 2.44a.66.66 0 0 1-.46-.03l-3.12-1.33c-.43-.2-.92.1-.92.56Zm15.73 17.19-7.96-5.65c-1.03-.73-2.7.92-3.64 2.11a.62.62 0 0 0 .13.88l2.77 2c1.65 1.18 3.34 2.4 4.17 3.06 1.46 1.18 2.58.74 2.96.38l1.67-1.82a.65.65 0 0 0-.1-.96ZM23.68 26l7.31-6.68c.05-.05.1-.08.16-.1.6-.24 2.23-.46 4.69.3 2.43.73 5.53 1.6 7.02 2.02.18.05.36.02.52-.07L46 20.07c.43-.26.99.03.99.52v9.62c0 .24-.14.45-.36.56l-5 2.37a.66.66 0 0 1-.76-.14L33 24.58a.68.68 0 0 0-.95-.02c-1.51 1.4-4.28 3.54-6.27 3.57l-.1.01c-.7.07-1.55-.71-2.07-1.35a.56.56 0 0 1 .07-.78Z" fill="#F5A623"/><defs><linearGradient id="afrkbliyg" x1="10.42" y1="9.71" x2="68.15" y2="76.02" gradientUnits="userSpaceOnUse"><stop stop-color="#1A1E21"/><stop offset="1" stop-color="#06060A"/></linearGradient></defs></svg>