<!-- by TradingView --><svg width="56" height="56" viewBox="0 0 56 56" xmlns="http://www.w3.org/2000/svg"><path fill="#F0F3FA" d="M0 0h56v56H0z"/><path d="M26.02 24.08c.05-.05.05-.08 0-.12.02-.03.02-.05 0-.06a239.69 239.69 0 0 0-1.74-1.06.16.16 0 0 1-.03-.12l.02-.06.57-1a.2.2 0 0 0-.05-.26l-.69-.56a.08.08 0 0 1-.03-.06l.01-.04.03-.03 2.4-1.67a.14.14 0 0 0 .05-.07.15.15 0 0 0 0-.09l-.27-.84c-.04-.1-.02-.15.02-.24.13.03.24.08.32.15l4.68 1.84a.25.25 0 0 1 .16.22l.2 2.09a.35.35 0 0 1-.14.32l-1.51 1.06a.2.2 0 0 0-.08.21l.83 3.15c.02.07.05.09.1.05.02.02.1.02.23 0a87.58 87.58 0 0 0 3.9-1.01c.1-.05.21-.07.32-.08a.05.05 0 0 0 .05-.04v-.03l-1.03-3.24v-.1a.13.13 0 0 1 .06-.06l2.37-1.4a.2.2 0 0 1 .26.02l2.67 2.19c.07.05.14.05.2-.02l3.15-3.21a.07.07 0 0 0 .02-.06.07.07 0 0 0-.03-.04l-2.75-2.25c-.06-.05-.07-.1-.03-.17l1.18-2.28c.04-.09.11-.12.2-.1l3.57.56c.03 0 .06.02.09.05.02.02.04.06.04.1.06.74.08 1.55.18 2.37.03.19.01.4.02.57.14 1.7.25 3.4.36 5.1 0 .05.03.1.07.13.03.1.04.16.02.2a.57.57 0 0 1-.22.35l-9.42 6.85a.36.36 0 0 0-.11.14l-3.31 6.45a.08.08 0 0 0 .03.1l.1.02h12.75c.03 0 .1 0 .12.02.01.02.07.08.07.1V40H10.07c-.02 0-.03 0-.05-.02l-.02-.04V38h12.54a.2.2 0 0 0 .06-.01l.03-.03a.07.07 0 0 0 0-.07l-3.35-6.5a.26.26 0 0 0-.08-.1l-9.09-6.9a.18.18 0 0 1-.07-.15c0-.37 0-.86.05-1.35.04-.33.06-.67.06-1.02 0-.25.09-.61.1-.9 0-.64.11-1.25.1-1.83 0-.37.1-.82.1-1.2.01-.35.03-.63.06-.84.06-.5.05-.88.1-1.44a.1.1 0 0 1 .02-.06.1.1 0 0 1 .05-.03l3.67-.57c.03 0 .06 0 .09.02.02 0 .05.03.06.06l1.2 2.31a.14.14 0 0 1-.03.17l-2.72 2.22a.11.11 0 0 0-.01.16l3.12 3.2a.14.14 0 0 0 .19 0l2.72-2.21a.17.17 0 0 1 .18-.02l2.43 1.44a.1.1 0 0 1 .04.04.1.1 0 0 1 0 .07l-1 3.16c-.03.1 0 .17.1.2l4.3 1.12c.1.02.16-.01.19-.1l.86-2.73-.01-.02h-.04Z" fill="#00AEEF"/></svg>