<!-- by TradingView --><svg width="56" height="56" viewBox="0 0 56 56" xmlns="http://www.w3.org/2000/svg"><path fill="#E0E3EB" d="M0 0h56v56H0z"/><path d="M23.76 28H21.5l1.54-9h2.22l1.76 4.76L28.74 19H31l1.5 9h-2.26l-.79-5.13L27.41 28h-.93l-1.93-5.13-.8 5.13Z" fill="#EA2129"/><path d="m46.69 30.72-.86 1.69S45.3 32 44.6 32c-.7 0-1.11.31-1.11.69 0 1.12 3.5.7 3.5 3.68 0 1.15-1.17 2.63-3.22 2.63-1.7 0-2.78-1.08-2.78-1.08l.9-1.67s.79.75 1.7.75c.54 0 1.4-.1 1.4-.86 0-1.05-3.5-.83-3.5-3.55 0-1.52 1.16-2.59 2.9-2.59 1.02 0 2.29.72 2.29.72ZM40.69 30.72l-.86 1.69S39.3 32 38.6 32c-.7 0-1.11.31-1.11.69 0 1.12 3.5.7 3.5 3.68 0 1.15-1.17 2.63-3.22 2.63-1.7 0-2.78-1.08-2.78-1.08l.9-1.67s.79.75 1.7.75c.54 0 1.4-.1 1.4-.86 0-1.05-3.5-.83-3.5-3.55 0-1.52 1.16-2.59 2.9-2.59 1.02 0 2.29.72 2.29.72Z" fill="#11395D"/><path d="M21 19h-3l1.66 2L21 19Z" fill="#FECC2C"/><path fill-rule="evenodd" d="M33.4 28h2.37l.42-1.5h3.35l.49 1.5h2.37l-3.35-9h-2.37l-3.28 9Zm4.5-6.8-1.01 3.3h2.06l-1.05-3.3Z" fill="#EA2129"/><path d="M42 19v2h2v7h2v-7h2v-2h-6ZM18 20l2 2.48V28h-2v-8ZM12.5 28a4.38 4.38 0 0 0 4.47-5H12v2h2.46c-.27.63-1.27 1.03-1.96 1.03A2.46 2.46 0 0 1 10 23.5c0-1.32.9-2.5 2.34-2.5.79 0 1.8.39 2.12 1.18l2.08-.85C15.88 19.94 14.52 19 12.5 19 9.54 19 8 21.01 8 23.5S9.81 28 12.5 28Z" fill="#EA2129"/><path d="M13.5 39a4.38 4.38 0 0 0 4.47-5H13v2h2.46c-.27.63-1.27 1.03-1.96 1.03A2.46 2.46 0 0 1 11 34.5c0-1.32.9-2.5 2.34-2.5.79 0 1.8.39 2.12 1.18l2.08-.85C16.88 30.94 15.52 30 13.5 30 10.54 30 9 32.01 9 34.5s1.81 4.5 4.5 4.5ZM19 30v9h2v-6.97h1.27s1.23-.03 1.23.99c0 .98-1.14.98-1.14.98H22v2.38L23.5 39H26l-2.41-3.79s1.91-.2 1.91-2.48c0-2.56-2.13-2.73-3.14-2.73H19Z" fill="#11395D"/><path fill-rule="evenodd" d="M30.5 39a4.5 4.5 0 1 0 0-9 4.5 4.5 0 0 0 0 9Zm0-2.04a2.5 2.5 0 1 0 0-5 2.5 2.5 0 0 0 0 5Z" fill="#11395D"/></svg>