<!-- by TradingView --><svg width="56" height="56" viewBox="0 0 56 56" xmlns="http://www.w3.org/2000/svg"><path fill="#F0F3FA" d="M0 0h56v56H0z"/><path d="M14.75 23.2c.64 0 1.16-.49 1.16-1.1 0-.6-.52-1.1-1.16-1.1-.64 0-1.17.5-1.17 1.1 0 .61.53 1.1 1.17 1.1ZM18.2 23.2c.65 0 1.17-.49 1.17-1.1 0-.6-.52-1.1-1.16-1.1-.65 0-1.17.5-1.17 1.1 0 .61.52 1.1 1.17 1.1ZM23.38 26.84h.01a2146.55 2146.55 0 0 0 2.49-2.28 1.3 1.3 0 0 1 1.13-.23c.38.1.69.38.78.75.06.25.02.49-.12.7l-.17.2-.35.34a258.75 258.75 0 0 0-1.44 1.34l2.12 2.5c.15.17.28.35.38.56.05.13.06.26.04.4-.09.48-.48.82-.97.87-.22.02-.42.01-.58-.03-.38-.09-.65-.39-.88-.67a1049.08 1049.08 0 0 1-2.44-2.93v2.53c0 .17-.04.34-.14.52-.23.44-.73.64-1.23.58A1.13 1.13 0 0 1 21 30.77a24312.81 24312.81 0 0 1 .02-8.86c.1-.52.55-.88 1.1-.9.6-.04 1.13.32 1.24.9l.02.32a46942.46 46942.46 0 0 1 0 4.61ZM31.72 24.6c.46-.39 1.05-.55 1.67-.59.47-.03.93 0 1.39.1.36.07.69.2.99.38.6.34.99.89 1.14 1.52.06.26.09.5.09.75v3.84c0 .76-.59 1.35-1.4 1.4a1.53 1.53 0 0 1-1.39-.64 1.27 1.27 0 0 1-.21-.71v-3.11l-.02-.3a.88.88 0 0 0-.79-.87c-.23-.03-.5 0-.71.1a.87.87 0 0 0-.46.66l-.02.26v3.44c-.11.67-.7 1.14-1.43 1.17-.77.03-1.43-.44-1.55-1.15a19957.67 19957.67 0 0 1 0-5.56c.07-.44.36-.82.8-1.01.28-.13.58-.17.9-.13.4.04.73.2 1 .46Zm-.09 1.09a10.9 10.9 0 0 1-.3-.6.93.93 0 0 0-.48-.31c-.5-.16-1.06.04-1.19.54l-.02.3v5c0 .38.26.7.66.77.45.08.89-.1 1.03-.52a.61.61 0 0 0 .04-.2v-3.34c0-.31.07-.63.25-.89.33-.5.9-.71 1.52-.67.67.04 1.2.42 1.4 1.01.06.17.09.34.09.5v3.35c0 .25.12.48.34.63a1 1 0 0 0 .78.12.78.78 0 0 0 .6-.75 6095.62 6095.62 0 0 0 0-4.08c-.01-.2-.05-.4-.12-.58-.23-.66-.76-1.07-1.47-1.25a4.26 4.26 0 0 0-1.57-.1c-.4.06-.8.2-1.09.47l-.2.24-.25.36h-.02ZM49 24.62a2.4 2.4 0 0 1 1.38-.61c.74-.07 1.47.4 1.6 1.13.03.2.03.38-.02.57-.12.49-.55.75-1.01.9l-.94.28c-.17.05-.3.12-.43.2-.25.17-.3.5-.31.76v.23a7662.69 7662.69 0 0 0-.02 2.73c-.05.32-.18.58-.4.8-.37.35-.92.46-1.41.34a1.36 1.36 0 0 1-1.06-1.43 16247.86 16247.86 0 0 1 .01-5.23c.13-.79.87-1.25 1.67-1.14.37.05.68.2.93.47Zm-.13 1a6.34 6.34 0 0 1-.13-.25c-.05-.13-.1-.21-.13-.26a.96.96 0 0 0-.88-.38c-.45.04-.73.41-.73.85v5.04c0 .52.43.85.95.78a.77.77 0 0 0 .7-.67V27.99c0-.32.04-.67.2-.96.22-.43.66-.62 1.12-.75.17-.05.62-.16.91-.28.2-.08.43-.2.48-.42.14-.58-.35-1.03-.93-.98a1.7 1.7 0 0 0-.9.38c-.13.1-.23.19-.3.27a50.08 50.08 0 0 0-.36.38ZM41.8 29.49c.42 0 .83-.23.92-.65.02-.06.02-.15.02-.3a2571.63 2571.63 0 0 0 .02-3.33c.07-.65.58-1.13 1.24-1.2.78-.09 1.48.4 1.6 1.16l.01.3v3.58l-.03.33c-.1.79-.48 1.42-1.12 1.88a4.44 4.44 0 0 1-2.83.74 4.44 4.44 0 0 1-2.48-.74A2.68 2.68 0 0 1 38 29.05a5139.25 5139.25 0 0 1 .01-3.88c.12-.77.82-1.25 1.6-1.16a1.37 1.37 0 0 1 1.26 1.5 2571.68 2571.68 0 0 0 .02 3.33c.1.42.5.65.91.65Zm0 1.92c.76 0 1.54-.14 2.17-.54A2.19 2.19 0 0 0 45 28.95v-3.47c0-.18 0-.3-.08-.45-.16-.33-.5-.48-.87-.43a.77.77 0 0 0-.7.75 11324.65 11324.65 0 0 1 0 3.46c-.1.78-.76 1.26-1.55 1.26-.78 0-1.45-.48-1.53-1.26l-.01-.28v-3.18a.77.77 0 0 0-.7-.75c-.37-.05-.71.1-.88.43a.94.94 0 0 0-.07.45v3.47c0 .79.33 1.48 1.03 1.92.63.4 1.41.54 2.16.54ZM9.69 24.84a.01.01 0 0 0 .02 0c.08-.16.19-.3.33-.42.2-.17.44-.26.71-.27.7-.04 1.25.46 1.25 1.15a3987.01 3987.01 0 0 1-.01 6.13c-.03.44-.11.9-.28 1.33a3.18 3.18 0 0 1-1.25 1.53 4.2 4.2 0 0 1-1.45.58 6.56 6.56 0 0 1-3.78-.33c-.41-.17-.88-.46-1.03-.9a.86.86 0 0 1 .12-.8c.16-.23.42-.42.7-.46.2-.03.42.02.6.09l.46.2a3.73 3.73 0 0 0 2.18.3c.19-.03.36-.08.53-.17.66-.33.83-1.03.83-1.71 0-.04-.01-.05-.04-.01-.53.7-1.43.86-2.27.83a3.17 3.17 0 0 1-2.33-1.03 4.17 4.17 0 0 1-.98-3c.06-2.26 1.84-4.2 4.25-3.84a2.3 2.3 0 0 1 1.44.8Zm-3.32 3.2c0 .98.52 1.9 1.63 1.9 1.1 0 1.62-.92 1.62-1.9 0-.97-.52-1.9-1.62-1.9-1.1.01-1.63.93-1.63 1.9ZM16.47 24c1 0 1.93.32 2.66.98a4.03 4.03 0 0 1 1.27 3.01c0 1.14-.41 2.26-1.26 3.02a3.9 3.9 0 0 1-2.65.99 3.9 3.9 0 0 1-2.66-.98 4.03 4.03 0 0 1-1.27-3.01c0-1.14.41-2.26 1.26-3.02a3.9 3.9 0 0 1 2.65-.99Zm-1.58 4c0 .96.52 1.87 1.59 1.87s1.6-.91 1.6-1.87c0-.96-.53-1.87-1.6-1.87s-1.6.91-1.6 1.87Z" fill="#005F9D"/></svg>