<!-- by TradingView --><svg xmlns="http://www.w3.org/2000/svg" width="56" height="56"><path fill="#F0F3FA" d="M0 0h56v56H0z"/><path d="M34 12.84v6.13c-1.93-1.75-5.68-1.93-7.96-.7-4.22 2.1-6.04 6.57-6.04 11.12 0 1.17.31 2.03.59 2.63l-8.07 1.83c-.87-3.68-.7-8.06.88-11.38 1.58-3.85 4.91-7.88 8.95-9.28 3.5-1.23 7.97-1.76 11.65-.35zm6 29.6l-7 1.58v-2.63l7-1.59v2.63z" fill="#2C156F"/><path d="M40 39.28c-2.14.35-4.5.88-6.63 1.4-1.43.35-1.5 1.97-2.68 2.98-2.67 2.28-7.12 1.22-9.97 0 3.38-.88 6.77-1.58 10.15-2.45 1.2-.31 1.96-1.4 2.5-2.45.89-1.06 2.31-.88 3.56-1.23l3.07-.7v2.45z" fill="#44B5B3"/><path d="M40 36.13c-1.78.35-3.79.7-5.39 1.05-1.6.52-1.42 2.1-2.67 2.98-.36.17-.89.35-1.43.52l-10.86 2.45-2.14-1.57c4.63-1.05 9.09-1.93 13.72-2.98 2.04-.33 1.93-2.91 3.74-3.5L40 34.03v2.1z" fill="#44B5B3"/><path d="M40 33.33c-1.6.35-3.25.7-4.85.87-1.25.35-1.86 2.05-2.5 2.8-.89 1.05-2.13 1.05-3.38 1.4l-12.3 2.63a6.11 6.11 0 01-1.6-1.4c5-1.05 9.98-2.28 15.15-3.33a4.26 4.26 0 003.38-2.8c.36-.7 1.07-.7 1.78-.87L40 31.58v1.75z" fill="#44B5B3"/><path d="M40 30.87c-1.78.35-3.6.88-5.39 1.05-1.6.53-1.24 2.46-2.67 3.16l-.89.35c-5.52 1.22-10.87 2.27-16.21 3.67-.36-.52-.71-.87-.89-1.4l17.28-3.67c1.24-.35 1.96-1.75 2.31-2.63.36-.7 1.07-.94 1.6-1.05 1.6-.35 3.26-.7 4.86-.88v1.4z" fill="#44B5B3"/><path d="M40 28.77c-1.96.35-4.14.7-6.1 1.4-1.07.7-.91 2.03-2.12 2.83 0 0-.31.2-.73.33s-11.58 2.45-17.46 3.85c-.17-.35-.35-.88-.53-1.23 6.06-1.22 12.11-2.62 18.17-3.85 1.07-.35 1.42-1.4 1.78-2.28.21-.52.7-.72 1.25-.87 1.96-.53 3.78-.88 5.74-1.23v1.05z" fill="#44B5B3"/><path d="M40 27.02c-2.14.53-4.32.88-6.46 1.4-1.24.7-.89 2.45-2.31 2.98-6.06 1.4-12.3 2.63-18.35 4.03-.18-.35-.18-.7-.36-1.05 6.24-1.4 12.3-2.63 18.53-3.86 1.42-.52 1.07-2.27 2.32-2.97 2.13-.53 4.5-.88 6.63-1.4v.87z" fill="#44B5B3"/><path d="M42 24.92c-.35.17-10.44 2.28-15 3.33v-6.48c4.91-1.05 10.09-2.1 15-3.33v6.48z" fill="#2C156F"/></svg>