<!-- by TradingView --><svg xmlns="http://www.w3.org/2000/svg" width="56" height="56"><path fill="#00543E" d="M0 0h56v56H0z"/><path fill-rule="evenodd" d="M43 13H13v30h30V13zm-9.66 10.77a7.06 7.06 0 010 8.46L36 35V21l-2.66 2.77zM27.87 35c1.88 0 3.58-.77 4.82-2.01L35.57 36H20.33l2.78-2.96A6.78 6.78 0 0027.87 35zm-8.48 2h17.13l.96 1H18.45l.94-1zm-1.88 2h20.93l.95 1H16.57l.94-1zM39 38.14l1 1.05V16.8l-1 1.05v20.28zM15.63 41h24.72l.96 1H14.69l.94-1zM42 14.72v26.56l-1-1.05V15.77l1-1.05zm-5 21.33l1 1.05V18.9l-1 1.05v16.1zM35.57 20l-2.88 3a6.78 6.78 0 00-9.58-.04L20.33 20h15.24zm1.91-2l-.96 1H19.4l-.94-1h19.03zm1.91-2l-.95 1H17.5l-.94-1h22.82zm1.92-2l-.96 1H15.63l-.94-1H41.3zM21 28c0 1.62.54 3.1 1.44 4.3L20 34.9V21.1l2.44 2.6A7.05 7.05 0 0021 28zm-2-7.95v15.9l-1 1.07V18.98l1 1.07zm-2-2.13v20.16l-1 1.06V16.86l1 1.06zm-2-2.13v24.42l-1 1.06V14.73l1 1.06zM14 42zm0-28z" fill="#fff"/></svg>