<!-- by TradingView --><svg width="56" height="56" viewBox="0 0 56 56" xmlns="http://www.w3.org/2000/svg"><path fill="#F0F3FA" d="M0 0h56v56H0z"/><path d="M26.73 44.57V20.82a4.16 4.16 0 0 1-2.03-3.08V9.26h.55V14l1.11.76V8H27v7.42l.69.63v28.52h-.96Zm-1.08-29.13c-.19 1.15-.24 3.56 1.06 3.98.21-1.16.29-3.58-1.06-3.98Zm.71 29.23-1.82-.79V26A8.95 8.95 0 0 0 21 19.47v5.38c0 .88.98 3.08 2.64 4.8v2.91c-1.37-.97-4.5-3.98-4.64-8.25v-8.85c2.23.86 7.1 3.85 7.36 8.85v20.36ZM27.75 48c-1.28-.08-4.12-.57-5.75-1.85V37.5c-.17-1.35-1.62-4.47-4-6.22v5.12c-.06 1.32 1.02 4.37 3 6.05v3.11c-1.56-1.15-5-4.37-5-8.06V27c2.67 1.17 8.14 4.92 8 10.5v7.3c.46.36 1.72 1 3.75.76V48Zm1.52-3.43V20.82c.6-.32 1.86-1.4 2.03-3.08V9.26h-.55V14l-1.11.76V8H29v7.42l-.69.63v28.52h.96Zm1.08-29.13c.19 1.15.24 3.56-1.06 3.98-.21-1.16-.29-3.58 1.06-3.98Zm-.71 29.23 1.82-.79V26A8.95 8.95 0 0 1 35 19.47v5.38c0 .88-.98 3.08-2.64 4.8v2.91c1.37-.97 4.5-3.98 4.64-8.25v-8.85c-2.23.86-7.1 3.85-7.36 8.85v20.36ZM28.25 48c1.28-.08 4.12-.57 5.75-1.85V37.5c.17-1.35 1.62-4.47 4-6.22v5.12c.06 1.32-1.02 4.37-3 6.05v3.11c1.56-1.15 5-4.37 5-8.06V27c-2.67 1.17-8.14 4.92-8 10.5v7.3c-.46.36-1.72 1-3.75.76V48Z" fill="url(#a)"/><defs><linearGradient id="a" x1="28" y1="8" x2="28" y2="48" gradientUnits="userSpaceOnUse"><stop stop-color="#B58957"/><stop offset=".22" stop-color="#F3DC79"/><stop offset=".41" stop-color="#D5A94C"/><stop offset=".63" stop-color="#C18F33"/><stop offset="1" stop-color="#B07533"/></linearGradient></defs></svg>