<!-- by TradingView --><svg xmlns="http://www.w3.org/2000/svg" width="56" height="56"><path fill="url(#azm3aldxh)" d="M0 0h56v56H0z"/><path d="M36 37V18h3v19h-3zm3 0h2v-3h1a3 3 0 003-3v-7a3 3 0 00-3-3h-1v-3h1a6 6 0 016 6v7a6 6 0 01-6 6h-3zM13 18.09A6 6 0 008 24v7a6 6 0 005 5.92v-3.1A3 3 0 0111 31v-7a3 3 0 012-2.82v-3.1zm2 15.74A3 3 0 0017 31h-2v-3h5v3a6 6 0 01-5 5.92v-3.1zm4.42-12.4l-2.77 1.17A3 3 0 0015 21.18v-3.1a6 6 0 014.42 3.35zm5.37-2.4A6.97 6.97 0 0128.52 18c1.83 0 3.86.9 4.98 2.5l-2.49 1.84a3.23 3.23 0 00-2.49-1.2 4 4 0 00-2.09.54c-.47.3-.87.8-.86 1.84.01.8.41 1.3 1.25 1.77a9.75 9.75 0 001.65.7c.4.14.9.32 1.27.51l.14.08a5.56 5.56 0 013.47 5.39A4.86 4.86 0 0128.36 37c-1.97 0-4.73-.5-6.86-3.55l2.5-1.82a4.89 4.89 0 004.36 2.23c.42 0 .94-.14 1.32-.44.32-.26.6-.67.6-1.46 0-.98-.3-1.48-.6-1.8-.32-.33-.7-.53-1.16-.77a41.1 41.1 0 01-.19-.1c-.15-.08-.38-.16-.78-.3l-.33-.12c-.53-.2-1.21-.46-1.87-.82a5.06 5.06 0 01-2.84-4.5 5.08 5.08 0 012.28-4.52z" fill="#fff"/><defs><linearGradient id="azm3aldxh" x1="10.42" y1="9.71" x2="68.15" y2="76.02" gradientUnits="userSpaceOnUse"><stop stop-color="#1A1E21"/><stop offset="1" stop-color="#06060A"/></linearGradient></defs></svg>