<!-- by TradingView --><svg width="56" height="56" xmlns="http://www.w3.org/2000/svg"><path fill="#BE0000" d="M0 0h56v56H0z"/><path d="M15 28c0-9.39 5.82-17 13-17s13 7.61 13 17c0 9.389-5.82 17-13 17s-13-7.611-13-17z" fill="#fff"/><path d="M37.284 29.35c.163.7.248 1.372.248 2.12 0 5.267-4.269 9.537-9.534 9.537-5.266 0-9.534-4.27-9.534-9.536 0-5.267 4.268-9.536 9.534-9.536a9.541 9.541 0 016.742 2.786l-1.55 1.574c-1.33-1.353-3.145-2.241-5.192-2.241-4.052 0-7.416 3.364-7.416 7.417s3.364 7.414 7.416 7.414c4.052 0 7.415-3.362 7.415-7.414h-2.819v-2.12h4.69z" fill="#AA0434"/><path d="M26.492 21.65a2.724 2.724 0 01-1.16-2.228c0-1.502 1.212-2.783 2.706-2.783 1.88 0 2.706 1.676 2.716 3.178h2.15c-.01-2.695-1.579-5.297-4.866-5.297-2.681 0-4.855 2.207-4.855 4.902a4.88 4.88 0 002.046 3.98l5.87 3.96c1.48 1.143 2.017 3.02 2.017 4.129 0 2.818-2.273 5.102-5.078 5.102-2.804 0-5.078-2.284-5.078-5.103 0-.731.19-1.545.464-2.174h-2.087c-.22.684-.306 1.418-.306 2.175 0 3.889 3.137 7.041 7.007 7.041 3.87 0 7.008-3.152 7.008-7.041a7.04 7.04 0 00-2.835-5.66l-5.72-4.18z" fill="#FEB916"/><path d="M37.276 31.47h-4.693v-2.12h4.458c.155.703.235 1.367.235 2.12z" fill="#AA0434"/><path d="M25.63 31.47h-.417v-1.465h-.506v-.278c.088 0 .174-.009.26-.027a.572.572 0 00.202-.083.581.581 0 00.125-.123.28.28 0 00.06-.143h.276v2.118zm.838-.534c-.008.045.01.094.056.147.047.05.104.076.17.076h.035a.297.297 0 00.28-.18.892.892 0 00.068-.297.28.28 0 00-.018-.101.375.375 0 01-.167.132.905.905 0 01-.118.034.345.345 0 01-.072.009h-.092a3.623 3.623 0 00-.128-.02.526.526 0 01-.193-.096.59.59 0 01-.188-.226.814.814 0 01-.068-.347.75.75 0 01.09-.378.685.685 0 01.701-.33.66.66 0 01.313.11.452.452 0 01.235.276c.037.081.065.174.083.277.02.104.03.21.03.322 0 .15-.016.298-.048.445-.03.145-.076.273-.14.384a.512.512 0 01-.264.232.966.966 0 01-.34.064c-.22 0-.384-.065-.493-.195-.11-.13-.156-.242-.14-.338h.408zm.261-1.253c-.09 0-.16.027-.208.08a.439.439 0 00-.095.149.535.535 0 000 .293.41.41 0 00.098.141.304.304 0 00.217.074c.09 0 .16-.025.209-.074a.376.376 0 00.098-.14.498.498 0 00-.01-.316.274.274 0 00-.07-.125.263.263 0 00-.105-.06.396.396 0 00-.134-.022zm1.175 1.591a.801.801 0 01-.167-.36 2.451 2.451 0 01-.047-.504c0-.183.016-.35.047-.498a.756.756 0 01.149-.343.552.552 0 01.235-.167.818.818 0 01.294-.051.83.83 0 01.291.05.545.545 0 01.238.168c.068.077.117.19.15.34.03.147.047.314.047.501 0 .183-.016.35-.048.501a.772.772 0 01-.149.343.554.554 0 01-.234.164.817.817 0 01-.295.051.832.832 0 01-.294-.05.505.505 0 01-.217-.145zm.761-.3c.04-.102.06-.29.06-.564 0-.274-.014-.447-.042-.518-.028-.072-.066-.12-.113-.142a.333.333 0 00-.155-.037.345.345 0 00-.155.034c-.045.02-.083.068-.112.142-.028.073-.042.247-.042.52 0 .275.014.447.042.519.027.072.065.12.112.144.048.023.1.034.155.034a.37.37 0 00.155-.03.186.186 0 00.095-.103zm1.082-.104c0 .075.021.137.063.185.043.049.127.073.25.073.109 0 .188-.037.238-.11a.496.496 0 00.074-.278c0-.12-.02-.206-.06-.258a.316.316 0 00-.265-.139h-.032a.316.316 0 00-.146.047.225.225 0 00-.092.104H29.4l.19-1.143h1.125v.364h-.868l-.072.423a.806.806 0 01.104-.055.708.708 0 01.179-.058.873.873 0 01.181 0c.033.004.1.022.196.055.098.033.181.11.253.232a.765.765 0 01.107.404.763.763 0 01-.357.67.715.715 0 01-.371.083.914.914 0 01-.307-.04.813.813 0 01-.21-.122.615.615 0 01-.158-.185.547.547 0 01-.054-.252h.41z" fill="#000"/></svg>