<!-- by TradingView --><svg width="56" height="56" viewBox="0 0 56 56" xmlns="http://www.w3.org/2000/svg"><path fill="#F0F3FA" d="M0 0h56v56H0z"/><path d="M38.19 24.92c-.16.15-.36.24-.58.27-.88.15-.78-.36-1.2-.49a.53.53 0 0 0-.44.02.43.43 0 0 0-.23.34.49.49 0 0 0 .17.39c.16.11.34.18.53.2 1.43.15 1.75-.73 1.75-.73ZM8.88 29.86a3.77 3.77 0 0 0-1.65 1.97 2.48 2.48 0 0 0 .41 2.36 2.5 2.5 0 0 0 1.97 1.13c.74.02 1.47-.2 2.07-.62.48-.33.94-.7 1.37-1.1-.08-.08-.15-.19-.2-.3L12 31.64c-.06-.1-.1-.21-.13-.33v-.02l-1.05.6.01.02a.5.5 0 0 1 .45.17c.12.14.22.3.3.45l.56 1.02c-.23.26-.5.48-.8.67a2.06 2.06 0 0 1-1.6.3 2.28 2.28 0 0 1-1.44-.98 2 2 0 0 1 .04-2.46c.18-.25.4-.45.67-.61.6-.38 1.1-.49 1.51-.35l.03-.01-.45-.82c-.42.14-.83.33-1.21.57Zm8.45 1.95v-.02a.58.58 0 0 1-.44-.36c-.1-.19-.17-.39-.24-.59l-1.01-2.9a4.2 4.2 0 0 1-.19-.61.57.57 0 0 1 .17-.57l-.01-.03-1.5.57.02.03a.55.55 0 0 1 .47.32c.1.19.19.38.26.59l.86 2.28c.1.23.15.5.12.75a1.26 1.26 0 0 1-.77.95c-.7.3-1.27 0-1.71-.95l-.92-1.96c-.1-.19-.18-.39-.25-.59a.58.58 0 0 1 .1-.58v-.02c-.49.23-.96.47-1.43.73v.02a.53.53 0 0 1 .52.27c.12.18.22.36.31.56l.97 1.94c.12.25.25.5.41.73a1.54 1.54 0 0 0 1.34.67c.24-.01.48-.08.7-.19a1.7 1.7 0 0 0 1.05-1.17l.19.5.98-.37Zm-5.12-5.05a.45.45 0 0 0-.4 0 .6.6 0 0 0-.3.3.46.46 0 0 0 0 .41.5.5 0 0 0 .3.26.47.47 0 0 0 .39-.01.56.56 0 0 0 .29-.3.5.5 0 0 0 0-.4.51.51 0 0 0-.28-.26Zm1.8-.78a.48.48 0 0 0-.4 0 .6.6 0 0 0-.32.28.47.47 0 0 0-.01.4.5.5 0 0 0 .27.28.48.48 0 0 0 .4 0 .56.56 0 0 0 .3-.28.5.5 0 0 0 .02-.4.48.48 0 0 0-.27-.28Zm6.8 4.15c.17.17.36.32.55.46.2.12.42.2.65.25l-.78-4.51a2.2 2.2 0 0 1-.05-.6c.04-.2.14-.37.3-.49v-.02c-.49.08-.97.17-1.45.27v.03a.71.71 0 0 1 .46.34c.08.19.13.38.16.58l.58 3.03a33.17 33.17 0 0 0-3.64-2.98l-.16-.12a.49.49 0 0 1-.17-.17c-.4.1-.79.23-1.17.36v.03a.76.76 0 0 1 .5.29c.1.17.18.36.23.55l.96 3.1c.06.2.1.39.13.59 0 .19-.06.38-.19.53l.01.02c.4-.14.8-.26 1.2-.38v-.02a.8.8 0 0 1-.44-.33c-.09-.18-.16-.37-.2-.56l-.89-3.02c1.2.85 2.34 1.77 3.41 2.77Zm2.06-.22c0 .2-.08.39-.22.53v.02a28.9 28.9 0 0 1 1.7-.2c.7-.05 1.35-.35 1.84-.83a2.75 2.75 0 0 0 .8-2.05c0-.86-.3-1.52-.9-1.97a3.1 3.1 0 0 0-2.2-.51c-.68.06-1.35.15-2.03.25v.03c.2.02.33.16.4.4.06.2.1.41.12.63l.42 3.04c.04.22.06.44.07.66Zm1-4.4c.7-.08 1.25.07 1.63.42.39.35.58.87.6 1.57a2.02 2.02 0 0 1-.54 1.56c-.38.37-.88.6-1.41.62-.18.02-.36.02-.53 0l-.47-4c.23-.1.48-.15.72-.18Zm4.38-.11a2.5 2.5 0 0 0-.94 2.01c-.02.75.25 1.49.76 2.05a2.72 2.72 0 0 0 3.75.32c.6-.46 1.01-1.14 1.12-1.9a2.49 2.49 0 0 0-.52-2.1 2.8 2.8 0 0 0-1.98-1.02 2.92 2.92 0 0 0-2.19.64Zm3.5.82c.3.5.4 1.1.3 1.68-.06.54-.3 1.05-.7 1.43a1.78 1.78 0 0 1-2.15.18c-.22-.14-.4-.32-.54-.54a2.66 2.66 0 0 1-.47-1.62 2.09 2.09 0 0 1 .6-1.52 1.86 1.86 0 0 1 1.55-.49 1.78 1.78 0 0 1 1.41.88Zm5.32-.19a3.5 3.5 0 0 0-2.48.08 2.45 2.45 0 0 0-1.4 1.9 2.71 2.71 0 0 0 .5 2.26c.46.58 1.1.98 1.81 1.16.56.14 1.12.24 1.7.3 0-.13.03-.25.08-.36l.6-1.78c.03-.11.09-.22.15-.32l.01-.02-1.12-.37-.01.02a.53.53 0 0 1 .17.45 2.2 2.2 0 0 1-.11.53l-.35 1.11c-.34 0-.68-.05-1-.15a2.09 2.09 0 0 1-1.28-1.02c-.3-.53-.4-1.15-.26-1.74a1.94 1.94 0 0 1 1.77-1.64c.3-.03.6 0 .87.1.66.2 1.08.5 1.25.9l.03.02.29-.9c-.38-.22-.8-.4-1.22-.53Zm.94 5.56c-.1.18-.26.3-.45.37v.02c.53.2 1.06.42 1.59.65.62.3 1.34.38 2.01.2a2.64 2.64 0 0 0 1.67-1.39 2.35 2.35 0 0 0 .13-2.18 3.23 3.23 0 0 0-1.7-1.55c-.62-.28-1.26-.54-1.9-.78l-.01.03a.5.5 0 0 1 .16.54c-.05.2-.11.41-.2.6L38.27 31c-.07.2-.16.4-.25.6Zm2.96-3.36a2.15 2.15 0 0 1 1.23 1.2c.18.49.1 1.05-.2 1.67a1.93 1.93 0 0 1-1.23 1.09c-.51.13-1.06.08-1.53-.16a2.33 2.33 0 0 1-.47-.27l1.48-3.73c.25.03.49.1.72.2Zm4.34 8.15.01-.02a.62.62 0 0 1 .05-.58c.1-.18.21-.35.34-.52l1.78-2.47c.12-.18.25-.35.4-.5a.52.52 0 0 1 .56-.17v-.02c-.42-.35-.85-.68-1.3-1v.03a.59.59 0 0 1 0 .6c-.1.18-.2.36-.33.53l-1.37 2c-.13.22-.32.4-.54.52a1.23 1.23 0 0 1-1.2-.15c-.65-.43-.72-1.09-.2-2l1.08-1.87c.1-.2.21-.37.34-.54a.53.53 0 0 1 .53-.23l.01-.03c-.46-.29-.92-.56-1.38-.83l-.02.03a.57.57 0 0 1 .07.59c-.07.2-.17.39-.28.57l-1.03 1.9c-.14.25-.26.5-.36.77a1.63 1.63 0 0 0 .2 1.51c.14.21.33.38.55.51.53.36 1.03.45 1.53.27l-.3.44c.3.21.58.43.86.66Z" fill="#161615"/><path fill-rule="evenodd" d="M29.4 20.62c.38-2.92 2.99-5.17 6.15-5.17.86 0 1.72.17 2.5.5a7.74 7.74 0 0 0-5.94 1.14 7.27 7.27 0 0 0-2.72 3.53Zm-.8 1.42a6.99 6.99 0 0 1 2.67-5.46 7.23 7.23 0 0 1 11.7 5.22 6.98 6.98 0 0 1-.57 3.06c-.17-.2-.38-.37-.62-.47-.9-.31-.98-.7-1.5-1.05-.5-.34-1.14-1.66-3.46-1.31-2.32.35-4.14-.69-5.3-.31-.47.15-1.73.25-2.92.32Z" fill="#FFBF00"/><path d="m13.51 24.2.18.6.4-.11-.18-.6-.4.11ZM14.04 24.05l.4-.11.17.6-.4.11-.17-.6Z" fill="#161615"/><path d="M49.91 30.73c-.2-.35-.57-.46-1.12-.85-.54-.39-1.48-1.63-1.95-2.1-.47-.46-.6-.57-2.08-.77-1.49-.19-2.78-1.47-3.68-1.78-.9-.3-.98-.7-1.49-1.04-.5-.35-1.13-1.67-3.44-1.32-2.31.35-4.07-.16-5.29-.31-1.25-.15-2.5-.22-3.76-.2l-1.23.13a.13.13 0 0 1-.03-.07l-.02-.08v-.16a.25.25 0 0 1-.02-.1l.03-.11c0-.03.02-.05.03-.05a.2.2 0 0 0 0-.05l.02-.06v-.1a.37.37 0 0 0 .04-.08v-.07l.01-.06v-.06c-.01-.03 0-.05.01-.1.04 0 .08-.02.11-.05.06-.06.06-.1.06-.1a.11.11 0 0 0-.08 0 .3.3 0 0 0-.1.04c-.03.03-.03.02-.07-.01l-.07-.02c-.03-.01-.05-.01-.1.02l-.06.06c0 .02-.04.02-.06.01a.1.1 0 0 0-.06-.02c-.02 0-.04 0-.11.05l.08.06.08.03c.03 0 .07-.01.07.02.01.02 0 .03-.05.03h-.06l-.1.02h-.07l-.09.02h-.14l-.1.02a.24.24 0 0 0-.09.03l-.05.04a.4.4 0 0 0-.07.07.32.32 0 0 0-.02.06l-.01.08.01.08.02.06c0 .02 0 .05.02.07V22.13l-.01.1-.01.04.01.06a.4.4 0 0 0 .01.09l.03.1.01.1v.04l-.54.09c.02-.02.01-.06-.02-.1-.04-.03-.12-.05-.13-.03 0 .01-.01-.03-.05-.04a.28.28 0 0 1-.02-.1l.03-.2c0-.06-.02-.06 0-.12a.9.9 0 0 0 .02-.2c0-.08-.02-.13.02-.16.03-.03.14-.05.19-.19a.98.98 0 0 1 .3-.39c.06-.07.14-.14.23-.2 0 0 .08-.08.13-.06a.27.27 0 0 0 .2.02l.17-.07c.07-.02.15-.07.18-.06.05.03.12.04.18.03a.14.14 0 0 0 .1-.06.14.14 0 0 0 0-.11c-.02-.08-.05-.1-.1-.1a.4.4 0 0 1-.14-.02c-.04-.01-.08-.06-.12-.07-.04-.02-.07-.02-.08-.04-.02-.02-.01-.05-.04-.07a.56.56 0 0 0-.26-.07 1.04 1.04 0 0 1-.04-.11c-.01-.05-.04-.14-.06-.15-.02 0-.06 0-.07.04l-.05.25-.03-.15c-.02 0-.03.03-.03.05v.1c-.1 0-.2-.01-.3-.04-.1-.02-.16-.01-.22-.03-.05-.01-.25-.03-.33-.06a.71.71 0 0 0-.2-.06.5.5 0 0 0-.27.06c-.1.04-.19.06-.29.07l-.48.08a2.3 2.3 0 0 1-.35.01h-.34c-.1 0-.19 0-.28.03l-.3.06c-.1 0-.19.04-.25.11-.04.05-.17.13-.2.28 0 .13.02.27.06.4l.07.38v.43a.82.82 0 0 0 0 .25l.08.19-.04-.12a.6.6 0 0 1 .06.15l.07.1c.01.02.02 0 .02-.03a.81.81 0 0 0-.03-.08l.04.08a.5.5 0 0 0 0-.1 1.2 1.2 0 0 0-.08-.14.3.3 0 0 1-.03-.15l.07-.1a.2.2 0 0 0 .03-.15l-.09-.3-.02-.3s.06.3.1.42c.03.12.07.24 0 .32-.04.07-.07.07-.08.14 0 .05.03.1.06.16a1.44 1.44 0 0 1 .15.6l-.87.03c-.35.02-.7.07-1.03.15a5.96 5.96 0 0 1-.23-.7 3.05 3.05 0 0 1-.02-.51.6.6 0 0 0 .34.37.62.62 0 0 0 .72-.18.6.6 0 0 0 0-.73.56.56 0 0 0 .28-.53.64.64 0 0 0-.29-.38.66.66 0 0 0-.48-.07.84.84 0 0 0-.27.08.54.54 0 0 0-.26-.36.55.55 0 0 0-.78.24.53.53 0 0 0 0 .44.54.54 0 0 0-.68.16.3.3 0 0 0-.06-.01.51.51 0 0 0 .1-.44.53.53 0 0 0-.2-.38.48.48 0 0 0-.04-.33.44.44 0 0 0 .16-.43c-.03-.23-.2-.4-.39-.37-.05 0-.1.03-.14.06l-.01-.18c.06.03.13.04.2.03a.5.5 0 0 0 .3-.23.49.49 0 0 0 .05-.36.49.49 0 0 0-.15-.34.5.5 0 0 0-.35-.14c-.05 0-.1.02-.16.04a.5.5 0 0 0-.16-.35.52.52 0 0 0-.36-.15.52.52 0 0 0-.31.24.5.5 0 0 0-.06.38.7.7 0 0 0 .07.2c-.15.03-.24.24-.2.47.02.23.17.4.32.38l.02.1a.47.47 0 0 0-.18.47c.01.11.06.22.13.3a.5.5 0 0 0 .3.15c-.18.03-.29.24-.25.48.03.23.17.4.33.4.01.06.04.11.08.15a.27.27 0 0 0-.1.25.28.28 0 0 0 .22.23h.12a.65.65 0 0 0-.03.28l-.52-.17-2.93.93-.08-.28-.4.11.08.3-.52.16-.6 1.4.08.04.36-.11.28 1c-.2.08-.4.17-.6.28l-.37-1.31v-.07h.08c.17-.03.27-.25.22-.49a.42.42 0 0 0-.34-.36.46.46 0 0 0 .06-.4.48.48 0 0 0-.2-.33v-.16a.44.44 0 0 0-.06-.13.39.39 0 0 0 .12-.4.34.34 0 0 0-.12-.23.36.36 0 0 0-.25-.08.25.25 0 0 0-.13.07c0-.06 0-.11-.02-.16.06.02.12.03.18.01a.5.5 0 0 0 .1-.84.51.51 0 0 0-.3-.11l-.13.05a.46.46 0 0 0-.17-.3.47.47 0 0 0-.34-.11.47.47 0 0 0-.26.23.46.46 0 0 0-.03.34l.07.18c-.12.03-.2.22-.15.43.04.2.19.35.32.32l.02.08a.42.42 0 0 0-.12.44c.01.1.06.2.13.26.08.07.17.11.27.12-.15.03-.24.23-.19.45.04.2.18.34.33.33 0 .05.04.1.07.13a.24.24 0 0 0-.07.23.25.25 0 0 0 .12.16.25.25 0 0 0 .2.02.6.6 0 0 0 0 .29c.05.24.22.41.39.38l.31 1.1-.16.12a.6.6 0 0 0-.29-.39.55.55 0 0 0 .05-.6.65.65 0 0 0-.9-.12.85.85 0 0 0-.2.18.56.56 0 0 0-.75-.15c-.13.08-.22.2-.25.33-.03.14 0 .29.07.4.02.05.05.09.09.12a.53.53 0 0 0-.57.63.52.52 0 0 0 .47.4c-.01.12.02.24.08.33.07.1.17.15.29.18-1.21.61-.98.55-1.54.85-.6.31-1.08.54-1.8.93a1 1 0 0 0-.6 1.13 35.22 35.22 0 0 1 21.22-7.06c8.33 0 15.34 2.8 21.18 7.09.54.4 1.05.84 1.54 1.3.06-.23.04-.47-.06-.68ZM24.9 20.49s.07-.04.1-.03c.01.01-.06 0-.09.08-.03.1-.06.1-.01.09.04-.03.06-.03.08-.07a.34.34 0 0 0 .02-.07s.02-.03.04-.03 0 .05 0 .05v.08c0 .03-.06.06-.13.08-.06.02-.07.06-.08-.05-.01-.12.07-.13.07-.13Zm-14.43 6.4a.45.45 0 0 0 .04-.16.17.17 0 0 0 .12.07l-.16.1Zm.3-.18a.41.41 0 0 0 .06-.34.6.6 0 0 0 .2.16l-.26.18Zm7.06-4.65v-.07a.26.26 0 0 0 .2-.05v.15c.01.06.03.12.07.17l-.47-.16c.07 0 .13-.02.2-.04Zm-1.13 1.93c-.62.23-2.15.76-3.59 1.26l-.27-1 3.04-.93.81-1.27 1.63.53.25.86a23 23 0 0 0-1.87.55Zm2.08-.6-.24-.85.21-.06-.12-.04a.45.45 0 0 0 .26-.24c.09.3.2.7.23.85l.01.25-.35.09Zm4.75-2.89c.24-.05.38.18.32.25-.05.06-.12.1-.13.16-.01.06 0 .16-.1.22-.09.05-.17.06-.2.16-.02.1.02.17 0 .25a.36.36 0 0 1-.23.2c-.09.01-.26-.17-.32-.23-.06-.07-.07-.1-.1-.11a.13.13 0 0 1-.05-.12.3.3 0 0 0-.04-.17c-.03-.06-.07-.1-.07-.17 0-.38.68-.39.92-.44Zm-1.97.98a.67.67 0 0 1 .3-.31c.1-.06.18-.02.28-.05.09-.03.17-.1.3.05a.38.38 0 0 1 .02.44c-.05.14-.02.18-.08.23-.05.04-.11-.02-.18.05-.07.07-.08.21-.22.18a.69.69 0 0 1-.27-.17c-.12-.16-.2-.3-.15-.42Zm.35 1.49a.3.3 0 0 1-.11.05h-.06a.13.13 0 0 1-.07-.12l-.01-.35c0 .13.02.26.05.39 0 .02.02.04.04.05a.07.07 0 0 0 .07 0 .38.38 0 0 0 .1-.05.25.25 0 0 1 .07-.04l-.08.07Zm.19.02h.04-.04Zm1.18-.08c-.27.04-.67.07-1.14.09a.46.46 0 0 0-.08-.1l-.06-.04a.1.1 0 0 0-.05-.04l-.08-.02c-.02 0-.04-.07-.06-.1l.01-.12c0-.03.01-.1-.01-.11-.02-.01.02 0 .03.02l-.01.14v.06a.07.07 0 0 0 .05.02c.02 0 .05 0 .06-.02l.04-.16h.08l.03.12c.02.04.04.04.08.02s.04-.05.03-.08l.01-.1.09.09c.02.02.04.05.09.03.04-.02.05-.04.04-.08-.02-.03-.1-.15-.07-.17a.3.3 0 0 0 .03-.05c.1 0 .21 0 .31-.02.18-.01.34-.06.5-.15.14-.09.21-.14.3-.18.08-.04.12-.07.15-.06a.08.08 0 0 1 .06.07l.08.2.04.18c.05.1.09.2.1.3l.04.15-.7.1Zm.62-1.77a.24.24 0 0 1 .13-.17.5.5 0 0 1 .33-.05c.19.09.03.1-.04.22-.08.12-.16.26-.27.23a.2.2 0 0 1-.12-.08.2.2 0 0 1-.03-.15Zm.28 1.62-.03-.1.04.1h-.01Zm.8-.14a.31.31 0 0 1-.02-.07.87.87 0 0 1-.02-.14.2.2 0 0 1 .02-.06v.05l.02.1v.09s0 .03.05.05l-.05-.02Zm.63-.07-.54.08s.03 0 .03-.05l-.01-.1v-.2l.02-.05.05-.07.04-.09h.06l.08-.01h.06l.06-.01a.1.1 0 0 1 .02.04l.04.06.04.08.02.08.02.07.01.1v.07Zm.11-.02a.82.82 0 0 1-.02-.1.2.2 0 0 1 0-.07v-.1a.57.57 0 0 1-.03-.1.23.23 0 0 1-.02-.07l.01-.06.02.08v.06l.03.05.02.07.04.12.01.11-.06.01Z" fill="#161615"/><path d="m14.53 23.9.4-.11.17.6-.4.11-.17-.6ZM16.26 23.11l.76-.21.17.57-.77.22-.16-.58ZM17.3 22.83l.77-.21.17.57-.77.22-.17-.58ZM9.22 39.42a.94.94 0 0 1 .03-.63c.15-.27 1.53-1.22 1.95-1.52.42-.3 1.15-1.26 1.51-1.62.36-.36.45-.45 1.58-.58 1.13-.14 2.13-1.13 2.81-1.36.69-.23.75-.53 1.14-.8.4-.27.88-1.3 2.63-1 1.74.31 3.08-.06 4-.17.94-.1 1.9-.13 2.84-.1.6.04 2.49.41 2.9.48.41.07 1.24.11 2.01.16.77.04 2.48.59 2.95.78.47.19 1.9.26 2.99.67 1.09.42.92 1.29 1.94 1.86 1.03.56 2.54 1.2 2.98 1.46.44.25 1.65 1.55 2.16 1.93.54.4.35.75.22 1.02a25.93 25.93 0 0 0-36.64-.58Z" fill="#161615"/></svg>