<!-- by TradingView --><svg width="56" height="56" viewBox="0 0 56 56" xmlns="http://www.w3.org/2000/svg"><path fill="#F0F3FA" d="M0 0h56v56H0z"/><path d="M7.43 30.62h-.55l-.7-.03c-.32.1-.48.27-.48.5 0 .38.45.57 1.34.57.83 0 1.25-.2 1.25-.6 0-.3-.29-.44-.86-.44Zm-.37-4.31c-.4 0-.7.3-.7.7 0 .42.33.7.7.7a.7.7 0 0 0 .71-.7.7.7 0 0 0-.71-.7Zm-.01 3.04h.44c1.07 0 2.51.12 2.51 1.62C10 32.63 8.03 33 6.84 33 5.8 33 4 32.68 4 31.22c0-.6.36-1 1.08-1.2-.57-.08-.85-.4-.85-.99 0-.6.38-.92.86-1.13a1.4 1.4 0 0 1-.39-.97c0-1.23 1.28-1.83 2.27-1.78l.41.02c-.04-.8.72-1.17 1.36-1.17.52 0 1.19.27 1.19.93a.6.6 0 0 1-.2.46.63.63 0 0 1-.44.16c-.2 0-.36-.1-.48-.28-.07-.12-.13-.18-.2-.18a.2.2 0 0 0-.2.14.5.5 0 0 0-.02.28c.64.18 1.03.82 1.03 1.51 0 .63-.38 1.19-.87 1.49a2.8 2.8 0 0 1-1.47.33c-.4 0-.8-.08-1.2-.26-.1.1-.16.19-.16.29 0 .23.18.39.54.45.12.02.38.03.79.03ZM14.74 27.5h-2.6c-.09.02-.14.34-.14.45 0 .6.58 1.05 1.06 1.05.28 0 .55-.08.8-.32.26-.24.5-.68.76-.68.4 0 .69.23.69.57 0 1.02-1.53 1.43-2.27 1.43a2.7 2.7 0 0 1-1.93-.67 2.37 2.37 0 0 1-.71-1.8c0-1.5 1-2.53 2.6-2.53 1.25 0 2.4.7 2.4 2.08 0 .28-.04.2-.1.28-.09.1-.28.14-.56.14Zm-1.1-.78c.08-.02.12-.07.12-.16 0-.37-.43-.56-.75-.56-.28 0-1.01.21-1.01.6 0 .06.06.1.17.12h1.48ZM35 25c1.38 0 2.47.93 2.47 2.45 0 1.56-1 2.55-2.46 2.55s-2.54-.9-2.54-2.5c0-1.59 1.08-2.5 2.53-2.5Zm-.01 1c-.7 0-1.02.6-1.02 1.5 0 .58.27 1.5 1 1.5.81 0 1-.8 1-1.5 0-.9-.3-1.5-.98-1.5ZM46.5 28.24v-1.21A2 2 0 0 0 44.46 25a2.5 2.5 0 0 0-1.6.72c-.3-.48-.71-.72-1.22-.72-.59 0-.85.1-1.28.58 0-.26 0-.59-.3-.58h-1.7c-.1 0-.18.06-.26.19a.94.94 0 0 0-.1.45c0 .36.14.53.4.53.05 0 .22 0 .28-.02a.5.5 0 0 1 .15-.04c.11 0 .17.35.17.79v1.34c0 .43-.06.76-.17.76h-.42c-.27 0-.41.15-.41.5 0 .23.09.5.39.5h2.33c.25 0 .28-.2.28-.64 0-.36-.04-.36-.39-.36-.07 0-.11-.33-.11-.76 0-.48 0-1.36.17-1.65.14-.23.42-.34.89-.34.27 0 .44.4.44.75v1.24c0 .43-.04.76-.11.76-.34 0-.48 0-.48.36 0 .43.12.65.37.64h1.94c.25 0 .28-.07.28-.5 0-.5-.04-.5-.39-.5-.07 0-.11-.33-.11-.76 0-.48-.1-1.24.15-1.66.12-.22.37-.33.76-.33.3 0 .59.37.59.75v1.24c0 .43-.04.76-.11.76h-.22c-.18 0-.27.15-.27.5 0 .43.17.5.5.5h1.55c.37 0 .55-.2.55-.64 0-.29-.2-.36-.48-.36-.02 0-.02-.67-.02-.76ZM31.5 28.24v-1.18c0-.88-.78-2.06-1.88-2.06-.62 0-1.13.15-1.62.72 0-.18.03-.4 0-.56-.04-.11-.13-.17-.27-.16h-1.3c-.13 0-.23.06-.32.19a.86.86 0 0 0-.11.45c0 .36.24.47.51.47.1 0 .26-.06.32-.06.11 0 .17.28.17.71v1.48c0 .44-.06.76-.17.76-.38 0-.83-.06-.83.36 0 .36.18.64.43.64h2.3c.27 0 .4-.2.4-.64 0-.36-.1-.36-.29-.36h-.22c-.08 0-.12-.32-.12-.76v-.9a1 1 0 0 1 1-1.03c.27 0 .36.14.44.4.04.11.06.34.06.68v1.11c0 .42-.09.5-.19.5-.14 0-.31-.05-.31.36 0 .17.02.32.07.45s.1.19.18.19h1.69c.37 0 .56-.2.56-.64 0-.28.04-.36-.33-.36-.11 0-.17-.32-.17-.76ZM24 28.19v-2.7c0-.33-.12-.49-.36-.49h-1.91c-.49 0-.73.08-.73.52 0 .48.88.48 1.28.48.15 0 .22.36.22.81v1.38c0 .67-.46.81-.97.81-.35 0-.53-.02-.53.34 0 .45.24.67.71.66h2.58c.47 0 .71-.21.71-.66 0-.36-.04-.34-.4-.34h-.4c-.13 0-.2-.36-.2-.81ZM23.77 23.79c0-.45-.43-.79-.88-.79-.47 0-.89.34-.89.79s.42.78.89.78c.46 0 .88-.33.88-.78ZM51 28.19v-2.7c0-.33-.12-.49-.36-.49h-1.91c-.49 0-.73.22-.73.66 0 .63.88.48 1.28.48.15 0 .22.22.22.67v1.38c0 .67-.46.81-.97.81-.35 0-.53.14-.53.5 0 .45.24.5.71.5h2.58c.47 0 .71-.05.71-.5 0-.36-.04-.5-.4-.5h-.4c-.13 0-.2-.36-.2-.81ZM50.77 23.79c0-.45-.43-.79-.88-.79-.47 0-.89.34-.89.79s.42.78.89.78c.46 0 .88-.33.88-.78ZM17.34 26H18l-1.52 2.42c-.18.24-.48.8-.48 1 0 .39.18.58.53.58h2.98c.16 0 .27-.01.33-.04.1-.05.15-.16.16-.32v-.83c0-.46-.16-.69-.5-.69-.34 0-.52.23-.5.56 0 .16-.02.25-.15.28-.33.09-.51.04-.85.04l1.75-2.65c.17-.2.25-.43.25-.66 0-.46-.24-.69-.64-.69h-2.93c-.16 0-.27.03-.32.09a.72.72 0 0 0-.11.32v.97c.03.4.19.59.48.59.3 0 .52-.22.52-.56v-.26c0-.13.17-.15.34-.15Z" fill="#349FBD"/></svg>