<!-- by TradingView --><svg xmlns="http://www.w3.org/2000/svg" width="56" height="56"><path fill="#F0F3FA" d="M0 0h56v56H0z"/><path fill="#033476" d="M6 22h44v12H6z"/><path fill="#8D8580" d="M22 24h27v8H22z"/><path d="M10.2 25H7.41v.2c.47 0 .59.35.59.55v4.47c0 .39-.36.55-.59.58v.2h2.8v-.2c-.56 0-.7-.4-.7-.58v-2.09h2.06v2.1c0 .4-.49.55-.73.57v.2h2.8v-.2c-.52-.01-.63-.4-.64-.58v-4.47c.01-.4.42-.53.64-.55V25h-2.8v.2c.5 0 .73.37.73.55v1.96H9.51v-1.96c-.01-.38.46-.52.7-.55V25z" fill="#fff"/><path fill-rule="evenodd" d="M18.2 25l2.2 5.34a.6.6 0 00.6.4V31h-2.73v-.26c.32.03.9-.05.7-.57-.21-.53-.35-.82-.4-.9h-1.95l-.3.82c-.1.21-.13.65.59.65V31h-1.74v-.26c.14.02.47-.07.65-.57A342 342 0 0117.91 25h.3zm-1.45 3.87l.82-2.1.88 2.1h-1.7z" fill="#fff"/><path d="M28 25h-5.43v1.78h.21c.11-1.3 1.16-1.5 1.76-1.5v4.88c.01.44-.47.6-.7.63V31h2.9v-.21c-.58-.01-.73-.42-.74-.63v-4.88c1.4 0 1.76.97 1.77 1.5H28V25zm6.24 0h-4.9v.23c.6 0 .66.38.66.67v4.22c0 .53-.43.7-.65.7V31h4.97l.38-1.85h-.26c-.43 1.28-1.37 1.6-1.78 1.59h-.62c-.56 0-.55-.24-.56-.38v-2.22c1.13-.01 1.36.84 1.34 1.27H33v-2.9h-.18c0 1.14-.9 1.35-1.34 1.31v-2.21c.01-.22.18-.3.26-.3h1c.93-.06 1.26 1.01 1.31 1.55h.19V25zm4.83 0h-2.78v.24c.58 0 .73.45.71.68v4.3c.01.38-.48.53-.71.56V31h2.78v-.22a.68.68 0 01-.7-.57v-1.8l.25-.22 1.58 2.1c.26.36-.24.47-.52.49V31h2.93v-.22c-.16 0-.41-.25-.52-.37l-2.51-3.21c.37-.4 1.22-1.28 1.59-1.61.37-.33.95-.37 1.19-.35V25h-2.5v.24c.8.05.69.4.54.58l-2.03 2.04v-1.94a.67.67 0 01.7-.68V25zm8.68 0h.22v1.86h-.22c-.46-1.22-.85-1.54-1.48-1.57-.62-.03-1.05.29-1.05.85 0 .52.54.85.8.95 1.8.74 2.2 1.33 2.2 2.17-.05 1.45-1.4 1.76-2.06 1.74a4.9 4.9 0 01-1.2-.22c-.41-.15-.51.08-.51.22h-.22v-2.06h.22c.37 1.56 1.22 1.8 1.71 1.77.5-.02 1.08-.26 1.08-.9 0-.52-.4-.72-.68-.87-.94-.52-2.37-1.02-2.29-2.28.1-1.58 1.54-1.66 1.74-1.66.43 0 .78.07 1.23.24.37.13.5-.1.51-.24z" fill="#fff"/></svg>