<!-- by TradingView --><svg width="56" height="56" viewBox="0 0 56 56" xmlns="http://www.w3.org/2000/svg"><path fill="#F0F3FA" d="M0 0h56v56H0z"/><path d="M43 43.87c0 .09-.06.13-.15.13h-1.3v-3.3c0-.08-.04-.12-.12-.12h-.74a.12.12 0 0 0-.09.03.11.11 0 0 0-.03.08v2.06c0 .11-.03.12-.1.03L39 40.68a.24.24 0 0 0-.2-.1h-.68c-.08 0-.11.03-.11.1L38 44h-1.02l-1.26-3.3c-.04-.08-.1-.12-.2-.12h-.6c-.09 0-.15.04-.18.13L33.48 44h-.84c.16-.56.1-1-.2-1.34-.4-.46-1.27-.5-1.77-.72-.2-.09-.24-.22-.11-.4a.5.5 0 0 1 .12-.1.58.58 0 0 1 .47-.07c.33.1.54.18.61.26.1.1.21.1.32.01l.45-.35a.16.16 0 0 0 0-.25 2.17 2.17 0 0 0-2.2-.39c-.42.15-.68.4-.77.77-.34 1.3 1 1.53 1.95 1.73.08.02.16.06.2.13.06.07.09.16.08.24-.02.2-.17.32-.44.34-.45.03-.86-.1-1.23-.38-.07-.06-.14-.05-.2 0l-.6.52H25v-2.47c0-.07.04-.11.12-.11h.97c.08 0 .12-.04.12-.12v-.6c0-.08-.04-.12-.12-.12h-3.13c-.08 0-.12.04-.12.12v.6c0 .08.04.12.12.12h.9a.14.14 0 0 1 .14.14V44h-1.6l-1.3-3.29a.2.2 0 0 0-.2-.13h-.61a.17.17 0 0 0-.18.12L18.87 44H18v-3.32c0-.07-.09-.1-.16-.1h-.72c-.08 0-.12.04-.12.12v1.38l-.01.05a.06.06 0 0 1-.05.01h-1.49c-.04 0-.06-.02-.06-.06V40.7c0-.08-.04-.12-.12-.12h-.7c-.06 0-.1.03-.1.1V44h-1.3c-.08 0-.17-.07-.17-.16V12.06c0-.01 0-.03.02-.04a.06.06 0 0 1 .04-.02h29.8c.08 0 .14.04.14.11v31.76Z" fill="#4C7892"/><path d="M43 15.34v4.7l-.56.37c-.07.05-.13.05-.2 0-1.7-1.41-4.6-2.62-6.88-1.9-.9.3-1.62 1.15-1.49 2.08.14.9 1.63 1.6 2.46 1.76 2.4.48 4.46 1.1 6.67 1.8v11.4A10.12 10.12 0 0 1 37.54 37a11.42 11.42 0 0 1-5.13-1.09 20.65 20.65 0 0 1-4.6-3.14.17.17 0 0 1 .06-.2l3.6-2.75a.16.16 0 0 1 .19 0c1.7 1.4 3.95 2.65 6.19 2.58 1.65-.05 3.17-.34 3.68-1.93.48-1.48-1.1-2.42-2.37-2.64a41.78 41.78 0 0 1-5.82-1.37 8.46 8.46 0 0 1-2.32-1.3 5.82 5.82 0 0 1-.98-8.27c.87-1.06 2.24-1.86 4.1-2.4 2.93-.87 5.9-.58 8.85.85ZM26 26h-.88c-.1 0-.12.05-.12.15v3.74c0 .03.01.06.03.08.03.03.06.03.1.03H26v6.88c0 .08-.06.12-.14.12h-4.75c-.08 0-.11-.16-.11-.24v-9.59c0-.12-.06-.17-.18-.17H13v-4h7.92c.02 0 .04 0 .05-.02.02-.01.03-.03.03-.05v-8.8c0-.09.03-.13.11-.13h4.81c.02 0 .04 0 .05.02.02.02.03.03.03.05V26Z" fill="#B8C3C9"/><path d="M29.84 26c.04 0 .08.01.11.04s.05.06.05.1v3.74c0 .03-.02.06-.04.09a.16.16 0 0 1-.1.03h-4.74a.14.14 0 0 1-.09-.04.1.1 0 0 1-.03-.07v-3.75c0-.08.05-.14.14-.14h4.7Z" fill="#ED1C24"/><path d="M35.96 44h-1.48l.7-2.03c.04-.1.07-.1.1 0l.68 2.03ZM21.31 44h-1.48l.72-1.99.03-.03a.06.06 0 0 1 .07 0l.02.03.64 1.99Z" fill="#4C7892"/><path d="M28.9 42h-1.8a.1.1 0 0 0-.1.1v.8c0 .05.05.1.1.1h1.8a.1.1 0 0 0 .1-.1v-.8a.1.1 0 0 0-.1-.1Z" fill="#F0F3FA"/><path d="M40.3 44H39v-1.52c0-.1.07-.13.13-.05L40.3 44ZM16.96 44h-1.54l-.05-.76c0-.16.07-.24.22-.24h1.2c.15 0 .22.07.21.21l-.04.79Z" fill="#4C7892"/></svg>