<!-- by TradingView --><svg width="56" height="56" xmlns="http://www.w3.org/2000/svg"><path fill="url(#paint0_linear)" d="M0 0h56v56H0z"/><path d="M24 25v2.5h1V26h7v4h-7v-1.5h-1V31h8.372c.523 0 .635-.472.628-.683.007-1.355.016-4.187 0-4.68a.634.634 0 00-.628-.637H24z" fill="#fff"/><path d="M4 25h1v6H4v-6zm8 0h1v6h-1v-2.5H6v-1h6V25zm3 0h-1v6h9.004v-1H15v-4h8.004v-1H15zm1 2.5v1h6.996v-1H16zM35.005 25h-1v6h9.004v-1h-8.004v-4h8.004v-1h-8.004zm1 2.5v1H43v-1h-6.996zM44 31v-6h8v1h-7v5h-1zm2-2.5v-1h6v1h-6z" fill="#fff"/><defs><linearGradient id="paint0_linear" x1="10.418" y1="9.712" x2="68.147" y2="76.017" gradientUnits="userSpaceOnUse"><stop stop-color="#1A1E21"/><stop offset="1" stop-color="#06060A"/></linearGradient></defs></svg>