<!-- by TradingView --><svg width="56" height="56" viewBox="0 0 56 56" xmlns="http://www.w3.org/2000/svg"><path fill="#F0F3FA" d="M0 0h56v56H0z"/><path d="M9.13 25.4c1-1.19 2.62-1.61 4.38-1.27 1.07.2 1.8.76 2.19 1.65.18.4.28 1.22.3 2.43v5.67c0 .08-.04.12-.12.12h-2.79c-.06 0-.09-.03-.09-.13v-5.49c0-.74-.13-1.42-.9-1.69A2.28 2.28 0 0 0 9 28.77v5.1c0 .08-.04.13-.12.13H6.16c-.1 0-.16-.05-.16-.15V21.14c0-.04.02-.07.04-.1a.15.15 0 0 1 .1-.04h2.78a.1.1 0 0 1 .06.02c.02.02.02.04.02.07v4.26c0 .13.05.16.13.06ZM23.23 24h3.44c.02 0 .03.03.05.04a.08.08 0 0 1 0 .12l-3.55 3.92a.08.08 0 0 0-.01.1l3.83 5.7.01.04a.08.08 0 0 1-.04.07.08.08 0 0 1-.04.01h-3.6a.08.08 0 0 1-.07-.04l-2.27-3.68a.08.08 0 0 0-.09-.03.08.08 0 0 0-.02.02l-.87.93v2.72c0 .02 0 .04-.02.06a.08.08 0 0 1-.06.02h-2.84c-.02 0-.04 0-.06-.02a.08.08 0 0 1-.02-.06V21.08c0-.02 0-.04.02-.05a.08.08 0 0 1 .06-.03h2.84l.06.03.02.05v6.4l.01.04a.08.08 0 0 0 .08.03c.02 0 .03 0 .04-.02l3.04-3.48.02-.02c.01 0 .02-.03.04-.03Z" fill="#EA1F27"/><path d="M31.16 24h1.75c.05 0 .09.06.09.12v1.79c0 .06-.03.09-.1.09h-1.78c-.06 0-.12.06-.12.13v4.29c0 .59.12.98.72 1.08.39.06.72.07.98 0 .2-.04.3.04.3.26v1.82c0 .21-.1.32-.3.34-1.37.14-2.29.1-3.07-.11-1.47-.4-1.63-1.84-1.63-3.24V26.2c0-.1-.07-.2-.17-.2h-1.81l-.02-.02v-.03l.01-.02 1.9-1.87c.05-.05.09-.11.09-.18v-2.73c0-.1.03-.14.12-.14h2.77c.03 0 .07.02.1.04.02.03.01.07.01.1v2.73c0 .1.07.13.16.13Z" fill="#EA1F27"/><path d="M38.1 25.46c1.4-1.82 4.21-2.05 5.49-.04.04.08.1.08.15.01.97-1.2 2.26-1.64 3.87-1.31 1.85.38 2.42 2.04 2.39 3.8a.3.3 0 0 1-.08.19l-2.82 3.06c-.07.07-.1.05-.1-.05v-2.65c.06-1.2-.73-2.1-1.97-1.74-.9.25-1.04 1.46-1.03 2.38v4.76c0 .09-.04.13-.12.13h-2.74c-.1 0-.14-.05-.14-.14v-5.3c0-.6-.17-1.63-.82-1.81-1.45-.42-2.14.68-2.18 1.97v5.14c0 .1-.06.14-.16.14h-2.7c-.1 0-.14-.05-.14-.16V24.1c0-.06.03-.09.08-.09h2.77c.1 0 .15.05.15.15v1.27c0 .1.03.12.1.04Z" fill="#626467"/><path d="M50 29.48v4.43c0 .02 0 .04-.02.06a.08.08 0 0 1-.06.02l-4.48.01a.08.08 0 0 1-.07-.05.08.08 0 0 1 .02-.08l4.47-4.44a.08.08 0 0 1 .12.01l.01.04Z" fill="#EA1F27"/></svg>