<!-- by TradingView --><svg width="56" height="56" viewBox="0 0 56 56" xmlns="http://www.w3.org/2000/svg"><path fill="#C31F41" d="M0 0h56v56H0z"/><path fill-rule="evenodd" d="m33.86 15.39-.39.19a.35.35 0 0 1-.22 0 .43.43 0 0 1-.2-.1 7.23 7.23 0 0 0-.6-.5c-.15-.12-.32-.2-.5-.24-.03 0-.06 0-.08.03a.08.08 0 0 0-.02.09 4.24 4.24 0 0 0 .12.34l.25.92c.03.12.04.23.02.33-.02.07-.06.1-.12.1a.97.97 0 0 1-.45-.13 2.14 2.14 0 0 1-.39-.26 36.61 36.61 0 0 0-3.2-2.48c-.26-.17-.51-.3-.76-.38a.12.12 0 0 0-.12.02.11.11 0 0 0-.04.12c.03.13.08.25.16.36.45.66.83 1.43 1.1 2.3.07.21.08.38.03.51-.05.16-.19.24-.4.24-.24 0-.55-.08-.93-.25-.66-.32-1.32-.67-1.96-1.07-.65-.4-1.42-.9-2.32-1.5-.18-.12-.38-.2-.6-.27a.17.17 0 0 0-.17.03.17.17 0 0 0-.06.17c.04.21.14.45.29.7.2.34.47.71.8 1.1.05.08.1.16.13.26.03.11.02.2-.02.28-.1.22-.32.3-.65.27a1.85 1.85 0 0 1-.72-.26l-.23-.14a22.81 22.81 0 0 1-3.02-2 1.78 1.78 0 0 0-.77-.39c-.05 0-.12.01-.22.05a1 1 0 0 1-.82.03 1.34 1.34 0 0 1-.58-.4l-.1-.14a4.82 4.82 0 0 0-.36-.48 1.05 1.05 0 0 0-.43-.3c-.12-.04-.27 0-.45.12a.79.79 0 0 1-.56.1.7.7 0 0 1-.38-.22c-.2-.2-.42-.37-.67-.51-.1-.05-.16-.03-.21.05-.03.06-.05.15-.04.3.02.24.07.47.15.7.31.87.6 1.53.88 2 .66 1.1 1.37 2.06 2.14 2.88a23.8 23.8 0 0 0 4.03 3.46c.5.34.9.59 1.21.74l1.3.6a5.38 5.38 0 0 0 1.67.42 11.02 11.02 0 0 1 4.55-.84 15.2 15.2 0 0 1 3.24.32 17.06 17.06 0 0 0 3.12.15l.6-.05c.3-.02.79-.1 1.48-.26l.43-.07c.15-.02.3-.05.44-.1.23-.07.27-.26.12-.56-.16-.34-.58-1.1-1.25-2.28a24.8 24.8 0 0 0-2.53-3.7c-.08-.1-.15-.17-.22-.22-.24-.18-.4-.24-.5-.18Zm-.72 8.03c-.07.1-.06.16.02.22.56.41.94.68 1.13.8.5.33 1.05.5 1.65.51.11 0 .12.04.03.1-.68.44-1.26.86-1.74 1.24a.99.99 0 0 0-.41.82c0 .11-.06.17-.17.18l-.27.02c-.13 0-.2-.05-.2-.17l-.08-.72c-.04-.31-.1-.54-.2-.68-.11-.16-.25-.27-.42-.35-.1-.05-.27-.1-.5-.15a5.24 5.24 0 0 1-.35-.1 2.4 2.4 0 0 1-.1-.18 1.64 1.64 0 0 0-1.13-.9 1.57 1.57 0 0 0-1.87 1.46c0 .05-.03.1-.07.14l-1 1.15c-.2.24-.5.51-.9.82-.73.6-1.38 1.24-1.94 1.96-.19.25-.34.51-.44.8-.12.36-.13.65-.04.88.1.27.31.46.63.56.1.03.26.05.46.05.19 0 .36-.02.52-.06.27-.05.53-.1.8-.13.35-.05.66.01.91.19.13.09.32.31.56.67.31.48.53.8.64.95.07.1.16.15.3.2.3.09.6.13.92.11.04 0 .06.02.04.06l-.29.8c-.27.84-.14 1.6.4 2.29.22.3.58.7 1.08 1.2.01.02.02.04.01.06-.17.68-.13 1.35.11 2 .02.06.04.17.04.33 0 .08-.02.14-.06.18-.07.07-.13.11-.18.11-.23.02-.76.01-1.58 0l-1.58-.03a185.13 185.13 0 0 1-3.26-.02 177.34 177.34 0 0 0-4.5 0l-5.51.02c-.16 0-.27-.02-.33-.06-.07-.05-.1-.15-.1-.3.02-.13.06-.29.15-.47l.07-.16 1.5-3.62c.12-.3.24-.61.34-.94l.31-.95c.42-1.25.84-2.34 1.29-3.26.3-.62.72-1.36 1.29-2.23.8-1.25 1.76-2.38 2.88-3.4.6-.55 1.14-.99 1.59-1.31.32-.24.67-.43 1.06-.58a10.25 10.25 0 0 1 4.67-.72c.41 0 1.16.1 2.22.3.34.07.98.12 1.93.15.98.04 1.98-.02 3-.16.14-.02.4-.08.75-.17a3.8 3.8 0 0 1 1.4-.12c.5.06 1.07.16 1.72.31.67.16 1.25.41 1.74.76.43.3.73.68.92 1.15 0 .02 0 .02-.02.02-1.78-.26-3.5-.1-5.19.52l-1.52.6c-.22.1-.57.23-1.04.4-.36.14-.7.29-1.02.45-.07.03-.09 0-.06-.06a1 1 0 0 1 .34-.48c.8-.6 1.57-1.13 2.33-1.6.08-.05.11-.1.11-.17a.14.14 0 0 0-.06-.1.15.15 0 0 0-.12-.03 3.05 3.05 0 0 1-2.44-.51l-.93-.67c-.1-.07-.19-.07-.24.02Zm5.2.18.46-.07a.71.71 0 0 1 .44.02c.18.09.3.18.4.29.04.06.04.13 0 .19a.48.48 0 0 1-.31.17c-.58.1-1.2.12-1.84.04a.51.51 0 0 1-.28-.12c-.07-.06-.08-.13-.04-.2.04-.08.1-.12.18-.15.16-.04.48-.1.98-.17Zm-7.31 2.93c.25-.25.38-.56.38-.92s-.13-.66-.38-.92a1.27 1.27 0 0 0-.93-.38c-.36 0-.67.13-.93.38-.25.26-.38.56-.38.92s.13.67.38.92c.26.25.57.38.93.38.36 0 .67-.13.93-.38Zm-.2-.92c0 .4-.33.73-.73.73a.72.72 0 0 1-.73-.73c0-.4.33-.72.73-.72.4 0 .73.33.73.72Zm5.95 1.85c.03 0 .05.03.06.06l.1.43c0 .03.01.05.04.05.08.02.17.01.28-.02l1.03-.32c.25-.06.6-.11 1.06-.15l1.22-.08c.25 0 .52-.06.82-.17.3-.1.6-.23.86-.38.13-.07.24-.17.34-.31.05-.07.07-.12.07-.16 0-.08-.04-.11-.12-.11a33 33 0 0 0-5.5.5c-.39.08-.9.19-1.52.34a1586.56 1586.56 0 0 1-1.77.45c-.16.05-.31.06-.46.05-.17-.03-.3-.1-.37-.22-.05-.08-.08-.21-.1-.41-.03-.4-.06-.65-.08-.78a.72.72 0 0 0-.38-.54 1.86 1.86 0 0 0-.46-.13 6.86 6.86 0 0 1-.18-.04c-.03-.01-.04 0-.04.03-.03.86-.46 1.4-1.3 1.62-.16.04-.33.04-.51 0a1.59 1.59 0 0 1-1.28-1.1c-.01-.04-.03-.04-.05-.02A9.99 9.99 0 0 1 26.62 28c-.57.46-1.13 1.02-1.67 1.7-.46.56-.63 1.02-.52 1.36.07.25.23.4.45.44.27.06.47.07.59.05.55-.11.9-.18 1.03-.19a1.6 1.6 0 0 1 1.63.77 34.28 34.28 0 0 0 .82 1.19c.32.13.65.2 1 .2.06 0 .1-.02.13-.07.34-.68.68-1.27 1-1.78.44-.66.69-1.05.75-1.16.32-.56.43-1.15.33-1.76a.26.26 0 0 1 0-.13.16.16 0 0 1 .09-.1.14.14 0 0 1 .12 0c.04.02.07.05.08.09.04.12.07.25.08.39.02.4-.04.79-.18 1.18-.08.21-.26.54-.55.99l-.62.95c-.08.11-.28.47-.61 1.08-.14.25-.26.51-.36.79l-.28.82c-.12.42-.13.84-.02 1.24.1.36.32.72.65 1.08l.68.72c.28.3.56.58.83.84.22.2.45.42.67.66a7.34 7.34 0 0 0 2.7 1.54c.47.12.9.14 1.3.06.51-.1.98-.35 1.4-.74.45-.44.84-.97 1.15-1.57.12-.23.2-.51.26-.84.15-.86.24-1.76.27-2.72l.03-.83c.03-.48.01-.92-.04-1.32-.04-.27-.11-.5-.23-.7a10.4 10.4 0 0 0-2.1-2.54 3.6 3.6 0 0 1-.89-1.1c-.17-.4-.14-.76.1-1.1a.08.08 0 0 1 .09-.03Z" fill="#fff"/></svg>