<!-- by TradingView --><svg width="56" height="56" viewBox="0 0 56 56" xmlns="http://www.w3.org/2000/svg"><path fill="#F0F3FA" d="M0 0h56v56H0z"/><path d="m37.59 18.41 2.4 2.43a.36.36 0 0 1-.01.5l-1.14 1.14c-.3.3-.3.61 0 .92l.66.66c.31.3.62.3.94 0l1.1-1.1a.41.41 0 0 1 .59 0l4.75 4.75c.08.08.12.18.12.3a.4.4 0 0 1-.12.28l-4.73 4.73a.45.45 0 0 1-.64 0l-4.7-4.7a.44.44 0 0 1 0-.64L38 26.5a.5.5 0 0 0 0-.7l-.83-.84c-.27-.26-.53-.26-.8 0l-1.13 1.14a.45.45 0 0 1-.63 0l-1.19-1.18c-.23-.23-.46-.23-.69 0l-.83.84c-.27.26-.27.52 0 .79l1.1 1.1a.48.48 0 0 1 0 .66c-.18.21-.95 1-2.32 2.36A113.87 113.87 0 0 1 28.31 33a.48.48 0 0 1-.66-.02l-1.1-1.1c-.26-.26-.52-.26-.79 0l-.84.85c-.23.23-.23.46 0 .69l1.18 1.18a.45.45 0 0 1 0 .63l-1.13 1.14c-.26.27-.26.53 0 .8l.83.82a.5.5 0 0 0 .7 0l1.19-1.18a.44.44 0 0 1 .63 0l4.7 4.7a.45.45 0 0 1 0 .64l-4.72 4.73a.4.4 0 0 1-.3.12.42.42 0 0 1-.29-.12l-4.75-4.75a.41.41 0 0 1 0-.59l1.1-1.1c.31-.31.31-.62 0-.93l-.66-.66c-.3-.3-.61-.3-.92 0l-1.13 1.14a.36.36 0 0 1-.5 0 279.77 279.77 0 0 1-4.83-4.83.36.36 0 0 1 0-.5l1.14-1.14c.3-.3.3-.61 0-.92l-.66-.66c-.31-.3-.62-.3-.94 0l-1.1 1.1a.41.41 0 0 1-.59 0L9.12 28.3A.42.42 0 0 1 9 28c0-.1.04-.2.12-.28l4.73-4.73a.45.45 0 0 1 .64 0l4.7 4.7a.44.44 0 0 1 0 .64L18 29.5a.5.5 0 0 0 0 .7l.83.84c.27.26.53.26.8 0l1.13-1.14a.45.45 0 0 1 .63 0l1.19 1.18c.23.23.46.23.69 0l.83-.84c.27-.26.27-.52 0-.79l-1.1-1.1a.48.48 0 0 1 0-.65c.18-.22.96-1 2.32-2.37 1.36-1.36 2.15-2.14 2.36-2.33a.48.48 0 0 1 .66.02l1.1 1.1c.27.26.53.26.8 0l.83-.84c.23-.23.23-.46 0-.7L29.9 21.4a.45.45 0 0 1 0-.63l1.14-1.14c.26-.26.26-.52 0-.79l-.83-.83a.5.5 0 0 0-.7 0l-1.19 1.18a.44.44 0 0 1-.63 0l-4.71-4.7a.45.45 0 0 1 0-.64l4.72-4.73A.4.4 0 0 1 28 9c.1 0 .2.04.29.12l4.76 4.75a.41.41 0 0 1 0 .6l-1.1 1.1c-.32.3-.32.62 0 .93l.65.66c.3.3.62.3.92 0l1.13-1.14a.36.36 0 0 1 .51 0l2.43 2.4Z" fill="#EAB433"/><path d="m26.13 20.78-4.73-4.72a.43.43 0 0 0-.6 0l-4.73 4.72a.43.43 0 0 0 0 .61l4.72 4.73c.17.16.44.16.61 0l4.73-4.73a.43.43 0 0 0 0-.61ZM39.94 34.58l-4.7-4.67a.46.46 0 0 0-.64 0l-4.67 4.7a.46.46 0 0 0 0 .64l4.69 4.67c.18.18.46.18.64 0l4.68-4.7a.46.46 0 0 0 0-.64Z" fill="#386549"/></svg>