<!-- by TradingView --><svg width="56" height="56" viewBox="0 0 56 56" xmlns="http://www.w3.org/2000/svg"><path fill="#A22529" d="M0 0h56v56H0z"/><path d="M34.54 33.8a.53.53 0 1 0-.75.74l2.55 2.55a12.33 12.33 0 0 1-3.7 2.34v-6.79h6.79a12.34 12.34 0 0 1-2.34 3.7l-2.55-2.55Zm-11.18-.41v6.04a12.33 12.33 0 0 1-3.7-2.34l3.7-3.7Zm-6.79-.75h6.04l-3.7 3.7a12.34 12.34 0 0 1-2.34-3.7Zm4.89-10.43a.53.53 0 0 0 .75 0c.2-.2.2-.54 0-.75l-2.55-2.55a12.34 12.34 0 0 1 3.7-2.34v6.79h-6.79a12.34 12.34 0 0 1 2.34-3.7l2.55 2.55Zm11.18.4v-6.04c1.37.56 2.62 1.36 3.7 2.34l-3.7 3.7Zm6.79.75h-6.04l3.7-3.7a12.34 12.34 0 0 1 2.34 3.7ZM36.97 28l3-3a12.36 12.36 0 0 1 0 6l-3-3Zm-.75.75 2.84 2.83h-5.67l2.83-2.83Zm-16.44 0 1.68 1.68a.53.53 0 0 0 .75-.75L20.53 28l2.83-2.84v6.42h-6.42l2.84-2.83Zm-2.84-4.33h5.67l-2.83 2.83-2.84-2.83Zm13.9 0L28 27.25l-1.68-1.68a.53.53 0 1 0-.75.75L27.25 28l-2.83 2.84v-6.42h6.42Zm-.41 5.26L28.75 28l2.83-2.84v6.42h-6.42L28 28.75l1.68 1.68a.53.53 0 0 0 .75 0c.2-.2.2-.54 0-.75Zm0-8.22-1.68-1.68 2.83-2.84v6.42h-6.42L28 20.53l1.68 1.68a.53.53 0 0 0 .75 0c.2-.2.2-.54 0-.75Zm-6.01.37v-4.89l2.83 2.84-2.83 2.83v-.78Zm1.15 12.71 1.68 1.68-2.83 2.84v-6.42h6.42L28 35.47l-1.68-1.68a.53.53 0 1 0-.75.75Zm6.01-.37v4.89l-2.83-2.84 2.83-2.83v.78Zm2.21-7.85L35.47 28l-2.83 2.84v-6.42h6.42l-2.84 2.83-1.68-1.68a.53.53 0 0 0-.75.75ZM28 15.67c1.03 0 2.04.13 3 .37l-3 3-3-3c.96-.24 1.97-.37 3-.37ZM15.67 28c0-1.03.13-2.04.37-3l3 3-3 3c-.24-.96-.37-1.97-.37-3ZM28 40.33c-1.03 0-2.04-.13-3-.37l3-3 3 3c-.96.24-1.97.37-3 .37Zm17.47-12.86h-3.71c-.13-3.3-1.41-6.4-3.66-8.82l2.6-2.6a.53.53 0 1 0-.74-.76l-2.6 2.61a13.66 13.66 0 0 0-8.83-3.65v-3.72a.53.53 0 1 0-1.06 0v3.72c-3.4.12-6.48 1.49-8.82 3.65l-2.6-2.6a.53.53 0 0 0-.76.74l2.61 2.61a13.71 13.71 0 0 0-3.65 8.82h-3.72a.53.53 0 1 0 0 1.06h3.72c.12 3.4 1.49 6.48 3.65 8.82l-2.6 2.6a.53.53 0 0 0 .74.76l2.61-2.61a13.71 13.71 0 0 0 8.82 3.65v3.72a.53.53 0 1 0 1.06 0v-3.72c3.4-.12 6.48-1.49 8.82-3.65l2.6 2.6a.53.53 0 0 0 .76 0c.2-.2.2-.53 0-.74l-2.61-2.61a13.71 13.71 0 0 0 3.65-8.82h3.72a.53.53 0 1 0 0-1.06Z" fill="#fff"/><path d="M21.59 13.9a.53.53 0 1 0 .98-.4l-.77-1.84a.53.53 0 1 0-.97.4l.76 1.84ZM34.41 42.1a.53.53 0 0 0-.98.4l.77 1.84a.53.53 0 0 0 .97-.4l-.76-1.84ZM11.66 21.8l1.84.77a.53.53 0 0 0 .69-.29.53.53 0 0 0-.29-.7l-1.84-.75a.53.53 0 0 0-.4.97ZM44.34 34.2l-1.84-.77a.53.53 0 0 0-.4.98l1.84.76a.53.53 0 0 0 .69-.28.53.53 0 0 0-.29-.7ZM13.5 33.43l-1.84.77a.53.53 0 1 0 .4.97l1.84-.76a.53.53 0 1 0-.4-.98ZM42.3 22.6c.07 0 .13 0 .2-.03l1.84-.77a.53.53 0 0 0-.4-.97l-1.84.76a.53.53 0 0 0 .2 1.02ZM22.28 41.81a.53.53 0 0 0-.7.29l-.75 1.84a.53.53 0 1 0 .97.4l.77-1.84a.53.53 0 0 0-.29-.69ZM33.72 14.19a.53.53 0 0 0 .7-.29l.75-1.84a.53.53 0 1 0-.97-.4l-.77 1.84c-.1.27.02.58.29.69Z" fill="#fff"/></svg>