<!-- by TradingView --><svg width="56" height="56" xmlns="http://www.w3.org/2000/svg"><path fill="#100F61" d="M0 0h56v56H0z"/><path d="M8 21h4v15H8V21zm12 0h-4v5a1 1 0 01-1 1h-2v3h2a1 1 0 011 1v5h4V21zm2 0h4v10a2 2 0 003 1.732V36h-2a5 5 0 01-5-5V21zm8 14.9a5.002 5.002 0 004-4.9V21h-4v14.9zM36 21h7.727A4.273 4.273 0 0148 25.273C48 26.5 47.5 27.2 47 28c0 0-.241.342 0 .5.788.515 1.5 1.636 1.5 2.617A4.883 4.883 0 0143.617 36H41v-3h2a1.5 1.5 0 000-3h-1v-3h.5a1.5 1.5 0 000-3H40v12h-4V21z" fill="#fff"/></svg>