<!-- by TradingView --><svg width="56" height="56" viewBox="0 0 56 56" xmlns="http://www.w3.org/2000/svg"><path fill="#F0F3FA" d="M0 0h56v56H0z"/><path fill-rule="evenodd" d="M28 10a18 18 0 1 1 0 36 18 18 0 0 1 0-36Zm0 1c9.3 0 17 7.68 17 17s-7.7 17-17 17-17-7.68-17-17 7.7-17 17-17Z" fill="#2B7F32"/><path fill-rule="evenodd" d="M28 12c9 0 16 7 16 16s-7 16-16 16-16-7.3-16-16c0-9 7-16 16-16Zm0 1c8 0 15 7.08 15 15s-7.08 15-15 15-15-7.08-15-15c0-8 7-15 15-15Z" fill="#2B7F32"/><path d="M19 19h2.25L29 31.38 22.96 38h-3.94v-1.5L24 31.37l-4.98-7.87L19 19ZM37 19h-4l-6 6.5L34.88 38H37v-4.38l-5-8.12 5-5V19Z" fill="#2B7F32"/></svg>