<!-- by TradingView --><svg xmlns="http://www.w3.org/2000/svg" width="56" height="56"><path fill="#ED1C24" d="M0 0h56v56H0z"/><path d="M52 27.47V26h-1v-3h-2v3h-1v1.47h1v1.08c0 2.05-.3 3.61 2.98 3.44V30h-.4c-.7 0-.58-.54-.58-1.08v-1.45h1zm-6.6.9h-2.26c0-.64.42-1.03 1.17-1.03.58 0 1.1.48 1.1 1.03zm2.3 1.2c.03-2.14-1.17-3.57-3.49-3.57-2.01 0-3.42 1.13-3.42 3.08 0 1.99 1.4 2.92 3.42 2.92 1.46 0 2.84-.52 3.27-1.99L45.3 30c-.18.35-.54.56-.93.56-.66 0-1.23-.3-1.23-1l4.56.01zM40.59 26h-2.01l-1.52 3.95L35.7 26h-2.2l2.06 5.14c.25.66.07.86-.71.86H34v2h1.44c2.21 0 2.47-.57 3.14-2.4l2.01-5.6zM33 32v-6h-2v6h2zm0-7v-2h-2v2h2zm-3 3.39v-2.36c-.1 0-.18-.03-.3-.03-.96 0-1.35.34-1.7 1.27V26h-2v6h2v-2.05c0-1.28.5-1.63 1.52-1.63.16 0 .31.04.48.07zm-5-.1V26c-.1-.01-.21-.03-.32-.03-.97 0-1.33.37-1.68 1.3V26h-2v6h2v-2.05c0-1.28.47-1.73 1.49-1.73.16 0 .34.04.51.07zM20 32v-6h-2v2.8c0 .9-.7 1.42-1.43 1.42-.6 0-1.57-.28-1.57-1.1V26h-2v3.55c0 1.7 1.07 2.45 2.44 2.45 1.03 0 1.64-.19 2.26-1v1H20zm-4-7v-2h-2v2h2zm3 0v-2h-2v2h2zm-7 7v-9h-2v3.5H7V23H5v9h2v-3.5h3V32h2z" fill="#fff"/></svg>