<!-- by TradingView --><svg xmlns="http://www.w3.org/2000/svg" width="56" height="56"><path fill="#14259B" d="M0 0h56v56H0z"/><path d="M8 20h5.43c1.4 0 3.32.49 3.33 2.46 0 .8-.46 1.85-1.9 2.18.47 0 1.38.2 1.5 1.5v1.77c-.01.26.06.86.4 1.09h-2.93c-.08-.08-.23-.4-.22-1v-1.33c-.01-.34-.22-1.02-.97-1.02H11V29H8v-9zm5 2h-2v2h2a1 1 0 100-2zm5-2h2.97v3H24v-3h3v9h-3v-4h-3.03v4H18v-9zm11 1.9V29h7v-2h-4v-1.5h3v-2h-3V22h4v-2h-4.62c-1.87.02-2.37 1.28-2.38 1.9zm8 7.1l3.78-9h3.42l3.8 9h-2.97l-.8-2H40.8l-.83 2H37zm5.48-6.86L41.33 25h2.3l-1.15-2.86zM11.23 31c1.87 0 2.62 1.3 2.77 2h-1c-.34-.74-1.21-1-1.85-1C9.53 32 9 33.5 9 34.56c0 .96.66 2.44 2.15 2.44 1.5 0 1.85-1.15 1.85-2h-1v-1h2v4h-1v-.83c-.35.57-1.15.83-1.77.83-2.42 0-3.2-2.14-3.23-3.44-.03-1.4.87-3.56 3.23-3.56zM36 31h1v1h-1zm-10 0h1v1h-1zm-10 0h1v1h-1zm15.14 7.25h1.55V39h-1.55zM36 32.58h1V38h-1zm-10 0h1V38h-1zm-10 0h1V38h-1zM19 31h3.02c.71 0 2.13.35 2.14 1.82a1.6 1.6 0 01-1.3 1.58c.39.06 1.14.39 1.14 1.26v1.4c.02.22.15.7.43.94h-1.1a1.42 1.42 0 01-.33-.94c.02-.42.01-.95 0-1.24 0-.27-.12-.82-.9-.82H20v3h-1v-7zm3.15 1H20v2h2.15a1 1 0 100-2zm9.62-1c1.94 0 2.52 1.37 2.57 2h-.93c-.3-.75-1.19-1.03-1.64-1-1.36 0-1.82.72-1.77.93.05.22-.08.82 2.12 1.15 1.87.27 2.31 1.14 2.31 1.74 0 .75-.58 2.18-2.6 2.18-2.28 0-2.84-1.3-2.83-2h1c0 .47.57 1 1.84 1 1.31 0 1.57-.74 1.57-1 0-.18.18-.71-2.13-1.1-2.31-.38-2.28-1.7-2.28-1.97 0-.38.38-1.93 2.77-1.93zM39 31v7h1v-4.7l2.54 4.7h.86l2.6-4.7V38h1v-7h-1.07l-2.9 5.38h-.17L40.06 31H39z" fill="#fff"/></svg>