<!-- by TradingView --><svg xmlns="http://www.w3.org/2000/svg" width="56" height="56"><path fill="#F0F3FA" d="M0 0h56v56H0z"/><path fill-rule="evenodd" d="M14.07 26.27c3.37.16 10.96 1.57 14.38 2.38 1.1-.45 3.36-1.98 5.04-5.4 1.62-3.32 3.45-3.46 4.47-3.12 8.23 2.74 10.3 6.53 10.01 7.83-.93 4.2-10.04 4.16-14.48 3.62-3.9 3.76-9.93 4.5-12.46 4.4-11.14-.43-13.12-5.6-13.01-7.08.1-1.49 1.83-2.83 6.05-2.63zm10.26 3.9c-2.04-.5-6.4-1.41-7.56-.93-.89.36 5.68 2.13 7.56.93zm11.5-1.1a14.4 14.4 0 002.39-5.81c.01-.52.42-.76 1.37 0 .82.66 2.47 1.98 2.26 3.34-.18 1.16-1.43 2.73-6.02 2.47z" fill="url(#ajgmzrc3t)"/><path d="M20.17 27.04c1.29.16 6.13 1.08 8.27 1.62-1.2.76-3.4 1.34-4.19 1.51-.55-.14-1.87-.51-4.2-.86-2.34-.36-3.22-.17-3.36-.02.65-.88 2.1-2.42 3.48-2.25z" fill="url(#bjgmzrc3t)"/><path d="M28.47 28.64c-.41.36-1.82 1.16-4.2 1.53 1-.25 3.25-.92 4.2-1.53z" fill="#D22125"/><path d="M37.9 31.8c.93-.58 2.48-2.79 3.15-3.82-1.17 1.13-4.01 1.25-5.16 1.15l-2.27 2.4c1.58.24 3.5.28 4.27.26z" fill="url(#cjgmzrc3t)"/><path d="M30.52 32.56l.56.85c1.48-.78 3.21-2.59 3.9-3.4a14.15 14.15 0 003.35-7.26c.04-.22-.06-.77-.76-1.18-.71-.4-1.34.76-1.56 1.4-.71 2.69-3.58 5.41-4.93 6.44a2.98 2.98 0 00-.56 3.15z" fill="url(#djgmzrc3t)"/><path d="M41.02 21.7c-1.68-.6-2.46.25-2.65.75a5 5 0 013.74.56c4.26 2.24 5.49 4.66 5.57 5.6.65-.85.13-2-.21-2.47a14.86 14.86 0 00-6.45-4.44z" fill="url(#ejgmzrc3t)" fill-opacity=".7"/><defs><linearGradient id="ajgmzrc3t" x1="33.24" y1="11.66" x2="13.61" y2="36" gradientUnits="userSpaceOnUse"><stop stop-color="#E32A26"/><stop offset=".39" stop-color="#A52520"/><stop offset=".56" stop-color="#B22121"/><stop offset=".77" stop-color="#E42225"/><stop offset=".89" stop-color="#A2231E"/><stop offset="1" stop-color="#C12023"/></linearGradient><linearGradient id="bjgmzrc3t" x1="18.34" y1="27.94" x2="19.84" y2="29.65" gradientUnits="userSpaceOnUse"><stop stop-color="#D12123"/><stop offset="1" stop-color="#762C1B"/></linearGradient><linearGradient id="cjgmzrc3t" x1="37.33" y1="29.43" x2="35.77" y2="32.77" gradientUnits="userSpaceOnUse"><stop stop-color="#84221C"/><stop offset="1" stop-color="#C12722"/></linearGradient><linearGradient id="djgmzrc3t" x1="37.23" y1="22.76" x2="30.75" y2="31.56" gradientUnits="userSpaceOnUse"><stop stop-color="#C82723"/><stop offset=".5" stop-color="#7E221C"/><stop offset="1" stop-color="#B62121"/></linearGradient><linearGradient id="ejgmzrc3t" x1="47.56" y1="25.38" x2="38.37" y2="22.76" gradientUnits="userSpaceOnUse"><stop stop-color="#84221C"/><stop offset=".47" stop-color="#D22824"/><stop offset="1" stop-color="#71251F"/></linearGradient></defs></svg>