<!-- by TradingView --><svg xmlns="http://www.w3.org/2000/svg" width="56" height="56" viewBox="0 0 56 56"><path fill="#F0F3FA" d="M0 0h56v56H0z"/><path d="m20.08 34.66-.75.41-2.64-.52 1.49 1.02A8.49 8.49 0 0 1 7 27.5c0-1.84.58-3.54 1.57-4.93l.38 1.75.07-2.33c.35-.41.74-.79 1.16-1.12l.12 1.94a7 7 0 0 0 8.42 10.9l1.94.55-.58.4Zm2.2-2.02c-.25.31-.5.6-.78.88l-1.99-.28c.45-.32.86-.68 1.22-1.09l1.67.22-.13.27Zm1.23-2.3c-.1.3-.23.6-.37.89l-1.8.13c.3-.44.54-.92.73-1.43l1.55-.1-.1.52Zm.12-5.34.1.34-1.4.62c-.1-.44-.24-.86-.41-1.26l1.23-.65.48.95Zm-1.97-3.36c.28.3.55.62.78.95l-1.2.9c-.24-.34-.5-.65-.8-.94l1.22-.91Zm-2.4-1.77c.43.21.83.45 1.2.72l-1.05 1.1a6.97 6.97 0 0 0-1.2-.64l1.06-1.18Zm-2.82-.82c.46.05.9.13 1.33.25l-.76 1.36c-.46-.1-.93-.15-1.41-.16l.84-1.45Zm-2.8.15c.44-.1.9-.16 1.37-.2l-.53 1.57c-.5.08-.99.2-1.44.38l.6-1.75ZM11 20.27c.43-.26.88-.49 1.35-.67l-.23 1.77c-.5.27-.95.6-1.36.97l.24-2.07Zm.95 2.39a6 6 0 1 0 7.52 9.33l-2.34-.3A4.49 4.49 0 0 1 11 27.5a4.5 4.5 0 0 1 2.5-4.03l.6-1.8c-.53.12-1.04.32-1.51.58l-.78 2.27-.18.62.33-2.48ZM15 21.52l-.89 1.55-.26.24a4.49 4.49 0 0 1 1.83-.3l.8-1.43a6.04 6.04 0 0 0-1.48-.06Zm2.5.32-1.12 1.25c.44.09.86.24 1.25.45l1.06-1.11a5.98 5.98 0 0 0-1.2-.59Zm2.12 1.31-1.22.91c.31.27.59.58.82.92l1.2-.9c-.23-.33-.5-.65-.8-.93Zm1.4 2.02-1.33.71c.14.35.23.73.27 1.11l1.42-.62c-.08-.42-.2-.82-.36-1.2Zm.47 2.41-1.53.45c-.06.5-.2.98-.41 1.42l1.76-.48a6 6 0 0 0 .18-1.39Zm.9 1.1 1.38-.39v-1.38l-1.28.38a6.94 6.94 0 0 1-.1 1.38ZM20.95 30l-1.8.12a4.51 4.51 0 0 1-1.97 1.55l2.83-.22a6 6 0 0 0 .94-1.45Z" fill="#D50E17"/><path d="M26 21.5h2v.84L26 24v-2.5Zm0 2.5h2v9h-2v-9Zm6 0h-2v9h2v-3h2.45L36 28v5h4.25l1.01-2h3.06l.85-1.14L46.75 33H49l-4.41-9h-2.16L38 33v-9h-2v4h-4v-4Zm12.74 5h-2.46l1.23-2.43L44.74 29Z"/></svg>