<!-- by TradingView --><svg width="56" height="56" xmlns="http://www.w3.org/2000/svg"><path fill="#20337D" d="M0 0h56v56H0z"/><path fill-rule="evenodd" d="M37.766 37.663l-.538.003c-1.507.014-3.258.03-5.166-.87-.496 2.453-.345 4.544.727 6.204h-8.773c1.18-1.66 1.254-3.678.787-6.203-1.981.902-4.164.883-5.765.869l-.541-.003h.382c-3.841 0-6.96-2.937-6.96-6.562 0-2.721 1.744-5.027 4.244-6.023-1.006-.892-1.637-2.161-1.637-3.57 0-2.706 2.332-4.903 5.202-4.903a5.4 5.4 0 011.975.359C22.35 14.126 25.027 12 28.232 12c3.179 0 5.798 2.126 6.47 4.934a5.515 5.515 0 011.878-.33c2.87 0 5.202 2.198 5.202 4.905a4.656 4.656 0 01-1.613 3.553c2.486 1.001 4.23 3.328 4.23 6.04 0 3.624-3.117 6.56-6.963 6.56h.33zM28.036 21c.829 0 1.5-.688 1.5-1.537 0-.684-.435-1.263-1.036-1.463l-.464.95-.463-.95c-.602.2-1.037.78-1.037 1.463 0 .849.672 1.537 1.5 1.537zM36 22.463c0 .849-.672 1.537-1.5 1.537s-1.5-.688-1.5-1.537c0-.684.435-1.263 1.036-1.463l.464.95.464-.95c.601.2 1.036.78 1.036 1.463zM35.5 30c.828 0 1.5-.688 1.5-1.537 0-.684-.435-1.263-1.036-1.463l-.464.95-.464-.95c-.601.2-1.036.78-1.036 1.463 0 .849.672 1.537 1.5 1.537zm-6-3.537c0 .849-.672 1.537-1.5 1.537s-1.5-.688-1.5-1.537c0-.684.435-1.263 1.037-1.463l.463.95.463-.95c.602.2 1.037.78 1.037 1.463zM21.5 24c.828 0 1.5-.688 1.5-1.537 0-.684-.435-1.263-1.037-1.463l-.463.95-.463-.95c-.602.2-1.037.78-1.037 1.463 0 .849.672 1.537 1.5 1.537zm.5 4.463c0 .849-.672 1.537-1.5 1.537s-1.5-.688-1.5-1.537c0-.684.435-1.263 1.037-1.463l.463.95.463-.95c.602.2 1.037.78 1.037 1.463zM24.5 34c.828 0 1.5-.688 1.5-1.537 0-.684-.435-1.263-1.037-1.463l-.463.95-.463-.95c-.602.2-1.037.78-1.037 1.463 0 .849.672 1.537 1.5 1.537zm8.5-1.537c0 .849-.672 1.537-1.5 1.537s-1.5-.688-1.5-1.537c0-.684.435-1.263 1.037-1.463l.463.95.463-.95c.602.2 1.037.78 1.037 1.463z" fill="#fff"/></svg>