<!-- by TradingView --><svg xmlns="http://www.w3.org/2000/svg" width="56" height="56"><path fill="#143D8D" d="M0 0h56v56H0z"/><path d="M44 31.74c0-2.82-1.75-5.2-4.15-6.18a5.1 5.1 0 00-3.6-8.79c-.66 0-1.31.11-1.86.33a6.56 6.56 0 00-12.78 0 5.33 5.33 0 00-1.96-.33 5.1 5.1 0 00-5.14 5.1c0 1.41.66 2.71 1.64 3.69A6.68 6.68 0 0012 31.74a6.78 6.78 0 006.77 6.73h-.33c1.64 0 4.13.1 6.31-.87.44 2.6.44 4.66-.76 6.4H32c-1.1-1.74-1.2-3.9-.77-6.4 2.08 1.09 4.57.87 6.1.87H37a6.7 6.7 0 007-6.73z" fill="#B6B7B9"/><circle cx="28.5" cy="19.5" r="1.5" fill="#fff"/><circle cx="22.5" cy="22.5" r="1.5" fill="#fff"/><circle cx="34.5" cy="22.5" r="1.5" fill="#fff"/><circle cx="35.5" cy="28.5" r="1.5" fill="#fff"/><circle cx="31.5" cy="33.5" r="1.5" fill="#fff"/><circle cx="25.5" cy="33.5" r="1.5" fill="#fff"/><circle cx="21.5" cy="28.5" r="1.5" fill="#fff"/><circle cx="28.5" cy="26.5" r="1.5" fill="#fff"/></svg>