<!-- by TradingView --><svg width="56" height="56" viewBox="0 0 56 56" xmlns="http://www.w3.org/2000/svg"><path fill="#F0F3FA" d="M0 0h56v56H0z"/><path d="M35.5 26.22C35.5 18.9 30.68 11 23.33 11A8.28 8.28 0 0 0 15 19.37c-.01 2.05.55 4.38 1.72 6.85a25 25 0 0 1 .64-.98l-.1-.4c-.13-.6-.27-1.18-.28-1.76-.26-4.33 2.33-8.08 6.35-8.08 6.66 0 10.12 7.02 10.12 13.7 0 1.36-.19 2.96-.45 4.3.22-.05.62-.2.97-.34l.5-.19c.6-1.82 1.03-3.77 1.03-6.25Zm10.5.72c0 6.77-6.15 10.56-12.34 10.56-6 0-10.83-3.43-13.66-6.69.04-.17.15-.35.26-.52.1-.16.2-.32.24-.48 3.06 2.72 7 4.69 11.03 4.69 6.01 0 10.47-2.42 10.47-7.56 0-3.6-3.32-6.47-6.38-7.39A9.88 9.88 0 0 0 35 18.4c4.57 0 11 3.23 11 8.54ZM15 35.3c0-8.08 6.4-14.28 12.8-15.81.23.22.49.47.72.75C23.14 22.17 18 27.6 18 34.07c0 4.37 3 6.93 7.25 6.93 1.93 0 4.58-.49 6.06-2h1.19c-2.44 4.32-6.45 6-9.57 6C18.3 45 15 40.1 15 35.3Z" fill="#E32726"/></svg>