<!-- by TradingView --><svg xmlns="http://www.w3.org/2000/svg" width="56" height="56"><path fill="#15366B" d="M0 0h56v56H0z"/><path d="M13 33L8.5 23l-3.14 7H4v1h.91L4 33h1.23l.85-2H8v-1H6.55l1.95-4.44L11.85 33H13zm23 0l-4.5-10-3.14 7H27v1h.91l-.9 2h1.22l.85-2H31v-1h-1.45l1.95-4.44L34.85 33H36zm16 0l-4.5-10-3.14 7H43v1h.91L43 33h1.23l.85-2H47v-1h-1.45l1.95-4.44L50.85 33H52zm-38.01-6v6H15v-4.02c0-.62.88-1 1.32-.98.44.02.58.23.7.34l.53-.95c-.1-.12-.43-.37-1.02-.39-.6-.02-1.37.35-1.53.54V27h-1.01zM18 33v-6h1v.5c.16-.17.7-.5 1.61-.5.62 0 1.4.51 1.63.76a2.42 2.42 0 011.68-.76c1.51.03 2.06 1.44 2.08 2.14V33h-1v-4.15c0-.45-.68-.85-1.2-.85-.55 0-1.3.43-1.3.85V33h-1v-4.16c0-.36-.6-.84-1.22-.84-.64 0-1.28.41-1.28.84V33h-1zm24-10v10h-1v-.73c-.23.17-.98.73-2 .73-.84 0-3-.58-3-3 0-2.01 1.57-3 3-3 .73 0 1.59.37 2 .74V23h1zm-3 9a2 2 0 002-2 2 2 0 10-2 2z" fill="#fff"/></svg>