<!-- by TradingView --><svg xmlns="http://www.w3.org/2000/svg" width="56" height="56"><path fill="url(#adfivkaqv)" d="M0 0h56v56H0z"/><path d="M6 33h1V23H6v10zm3 0h1v-7.28L17 33V23h-1v7.32L9 23v10zm13-9h3v-1h-7v1h3v9h1v-9zm4 9h5v-1h-4v-4h4v-1h-4v-3h4v-1h-5v10zm6 0h1l1.17-6.56L37 33l2.83-6.56L41 33h1l-1.82-10L37 30.57 33.82 23 32 33zM4 23h1v1H4v-1zm45.65 7L51 33h1l-4.46-10L43 33h1l1.35-3h4.3zm-.47-1H45.8l1.7-3.76L49.18 29z" fill="#fff"/><defs><linearGradient id="adfivkaqv" x1="10.42" y1="9.71" x2="68.15" y2="76.02" gradientUnits="userSpaceOnUse"><stop stop-color="#1A1E21"/><stop offset="1" stop-color="#06060A"/></linearGradient></defs></svg>