<!-- by TradingView --><svg width="56" height="56" viewBox="0 0 56 56" xmlns="http://www.w3.org/2000/svg"><path fill="#E0E3EB" d="M0 0h56v56H0z"/><path d="M38.55 34.28 36.59 38l-2-.56.39-1.21-1.13-.84-1.31 2.05-1.25-1.21-1.29.3v-.8l-2.13 1.7-1.47-.9L24.6 39l-.56-.26L21.62 41l-.85-.96.47-1.3-1.31-1.3 1.1-1.7L19.35 34l-.84.28-.94 1.45-.78-.34L15.69 37l-.35-.46 1.18-2.26-.47-.4-1.6 1.85-.69-.93.28-.34-.43-.18-1.47 1.6-.85-.15-.81 1.09-.25-.28.65-1.4.79-1.27-.97-.93.43-1.24-2.66.64-2.44-1.09.56-1.23.54-.96-1.1-1-.68.14L4 27.21l1.35-2.36-.35-.77 3.6-5.36.69.56L10.32 18l.94.97 1.22-1.43.97.34.75-1.52L19.33 19l1.63-2 .81.54L23.65 15h1.88l.4 1.33L25 18h1.53l.9.94-.27.5.93.8.44-.24 1.35 1.32-.66.6 1.31 1.01L33 20.52l1.82 1.02L39.26 18l1.57 1.65-1.25 1.67.28.6 1.16-.9 1.25.9.94-1.4 1.34 1.24L46.84 19l1.25.93-.53 1.4.53.74.81.3.53 1.06.63-.43.4.68.85-1.3.69 1.05-1.38 2.14V26h.41l.97.74-1.38 2.89.38 1.14-3.13 5.67-.75.56h-.56v-.96h-.25l-1.23 1.92-.78.04-.22-.2.22-.8-.22-.56-.87 1.37-.53-.28-.94 1.02h-1l-.63.45h-.75l-1.44-.88 1.44-3.29-.81-.55Z" fill="url(#avrxkjv3m)"/><path fill-rule="evenodd" d="M32 25h-.46c-.23.01-.95.06-1.27.19V25H27v1.9a3.6 3.6 0 0 0-3.2-1.9c-1.39 0-2.53.76-3.1 1.85V25h-9.17v4h-.15v-4H8v4.46c0 .51.2 1.13.6 1.62a2.4 2.4 0 0 0 1.9.92h10.2v-1.85A3.45 3.45 0 0 0 23.8 32c1.44 0 2.58-.64 3.2-1.67V32h3.4v-3.03c0-.83.7-.97 1.33-.97h.97v1.63c0 .54.08 1.19.42 1.62.47.59 1.24.75 1.96.75.74 0 1.31-.16 1.98-.35l.16-.05v-.19c.41.4 1.06.59 1.95.59.57 0 1.06-.15 1.57-.33l.12.33H44l-.18-1.04c.33.41.79.83 1.43 1l-.55.83c.45.84 1.18 1.21 2.16 1.21.45 0 .9-.15 1.24-.42.36-.27.64-.7.64-1.25 0-.24-.06-.32-.16-.47a4.72 4.72 0 0 1-.06-.08c.64-.26 1.48-.95 1.48-2.06 0-.57-.17-1.28-.7-1.72h.4v-.6c0-.83-.33-1.46-.96-1.85A4.06 4.06 0 0 0 46.6 25c-.61 0-1.39.1-2.04.42-.47.23-.9.6-1.12 1.13-.22-.48-.6-.9-1.1-1.15a4.23 4.23 0 0 0-1.9-.4c-.91 0-1.73.16-2.39.58-.46.3-.8.69-1.05 1.16V25h-1v-2h-3.3v2H32Zm-11.67 4a3.64 3.64 0 0 1 .04-1.2L19.19 29h1.14Zm12.37-1.7h.7v2.26c0 1.08.48 1.74 1.68 1.74.74 0 1.46-.25 1.46-.25V29.7h-.08c-.2.01-.68.04-.88-.1-.26-.12-.28-.46-.28-.46V27.3h1v-1.6h-1v-2h-1.9v2h-.7v1.6Zm4.9.7c-.4.37-.64.68-.77 1H36v-1h1.6Zm9-1.2a.72.72 0 0 1 .75.6H49c0-1.23-1.35-1.7-2.4-1.7-1.11 0-2.6.34-2.6 1.7 0 .68.35 1.03.84 1.24a4.45 4.45 0 0 0 1.2.3 18.57 18.57 0 0 1 .75.16c.24.07.52.26.52.58 0 .32-.31.49-.61.48a.93.93 0 0 1-.84-.54 1.6 1.6 0 0 1-.11-.29h-1.96c.17 1.37 1.48 1.93 2.73 1.97l-.25.7h.01c.28.01.72.05.72.42 0 .65-1.06.37-1.25-.09l-.22.4s.3.57 1.33.57c.59 0 1.14-.25 1.14-.83 0-.56-.58-.69-1.14-.78.06-.12.14-.39.14-.39s.36.04.85-.09c.64-.17 1.45-.59 1.45-1.53 0-.74-.3-1.28-.96-1.58a6.03 6.03 0 0 0-1-.3c-.22-.05-.42-.08-.59-.1l-.08-.02c-.48-.08-.67-.12-.67-.48 0-.29.3-.4.6-.4ZM43 28.64v-1.02c0-1.43-1.7-1.92-2.56-1.92-1.85 0-2.65.9-2.84 1.8h1.75c0-.23.42-.5.95-.5.26 0 .7.1.7.45 0 .41-.57.5-1.27.62-.36.06-.77.12-1.14.24-.48.2-1.18.54-1.18 1.49 0 1.08 1.02 1.5 1.76 1.5.73 0 1.78-.42 1.78-.42l.3.42h1.95l-.2-1v-1.66ZM32 27.3v-1.6h-.33c-.79 0-1.55.39-1.94.9v-.9H27.7v5.6h2v-2.55c0-.86.8-1.45 1.43-1.45H32Zm-17.7 4h-1.93v-.8s-.23.3-.7.52c-.29.15-.68.28-1.16.28-1.26 0-1.81-1.15-1.81-1.84V25.7h1.98l.01 3.3s0 .7.79.7.76-.7.76-.7l-.01-3.3h2.07v5.6Zm.7-2.74V28h.5l-.5.56Zm0 1.06 2.34-2.32H15v-1.6h5v1.47l-2.66 2.53H20v1.6h-5v-1.68Zm26-1.02c-1.24.3-1.76.5-1.76.95 0 .45.44.45.55.45.67-.01 1.21-.4 1.21-1.4Zm-14.61 1.1a2.88 2.88 0 0 1-2.59 1.6 2.78 2.78 0 0 1-2.8-2.8c0-1.66 1.22-2.8 2.8-2.8a2.8 2.8 0 0 1 2.85 3.08l-.02.13-.02.09h-3.8c0 .32.35 1 1.08 1 .25 0 .54-.1.71-.3h1.79Zm-2.5-2.7c-.65 0-1.09.53-1.09 1H25c0-.46-.4-1-1.1-1Z"/><path fill-rule="evenodd" d="M31 24h-.46c-.23.01-.95.06-1.27.19V24H26v1.9a3.6 3.6 0 0 0-3.2-1.9c-1.39 0-2.53.76-3.1 1.85V24H10.6v4h-.2v-4H7v4.46c0 .51.2 1.13.6 1.62a2.4 2.4 0 0 0 1.9.92h10.2v-1.85A3.45 3.45 0 0 0 22.8 31c1.44 0 2.58-.64 3.2-1.67V31h3.4v-3.03c0-.83.7-.97 1.33-.97h.97v1.63c0 .54.08 1.19.42 1.62.47.59 1.24.75 1.96.75.74 0 1.31-.16 1.98-.35l.16-.05v-.19c.41.4 1.06.59 1.95.59.57 0 1.06-.15 1.57-.33l.12.33H43l-.18-1.04c.33.41.79.83 1.43 1l-.55.83c.45.84 1.18 1.21 2.16 1.21.45 0 .9-.15 1.24-.42.36-.27.64-.7.64-1.25 0-.24-.06-.32-.16-.47a4.72 4.72 0 0 1-.06-.08c.64-.26 1.48-.95 1.48-2.06 0-.57-.17-1.28-.7-1.72h.4v-.6c0-.83-.33-1.46-.96-1.85A4.06 4.06 0 0 0 45.6 24c-.61 0-1.39.1-2.04.42-.47.23-.9.6-1.12 1.13-.22-.48-.6-.9-1.1-1.15a4.23 4.23 0 0 0-1.9-.4c-.91 0-1.73.16-2.39.58-.46.3-.8.69-1.05 1.16V24h-1v-2h-3.3v2H31Zm-11.67 4a3.64 3.64 0 0 1 .04-1.2L18.19 28h1.14Zm12.37-1.7h.7v2.26c0 1.08.48 1.74 1.68 1.74.74 0 1.46-.25 1.46-.25V28.7h-.08c-.2.01-.68.04-.88-.1-.26-.12-.28-.46-.28-.46V26.3h1v-1.6h-1v-2h-1.9v2h-.7v1.6Zm4.9.7c-.4.37-.64.68-.77 1H35v-1h1.6Zm9-1.2a.72.72 0 0 1 .75.6H48c0-1.23-1.35-1.7-2.4-1.7-1.11 0-2.6.34-2.6 1.7 0 .68.35 1.03.84 1.24a4.45 4.45 0 0 0 1.2.3 18.57 18.57 0 0 1 .75.16c.24.07.52.26.52.58 0 .32-.31.49-.61.48a.93.93 0 0 1-.84-.54 1.6 1.6 0 0 1-.11-.29h-1.96c.17 1.37 1.48 1.93 2.73 1.97l-.25.7h.01c.28.01.72.05.72.42 0 .65-1.06.37-1.25-.09l-.22.4s.3.57 1.33.57c.59 0 1.14-.25 1.14-.83 0-.56-.58-.69-1.14-.78.06-.12.14-.39.14-.39s.36.04.85-.09c.64-.17 1.45-.59 1.45-1.53 0-.74-.3-1.28-.96-1.58a6.03 6.03 0 0 0-1-.3c-.22-.05-.42-.08-.59-.1l-.08-.02c-.48-.08-.67-.12-.67-.48 0-.29.3-.4.6-.4ZM42 27.64v-1.02c0-1.43-1.7-1.92-2.56-1.92-1.85 0-2.65.9-2.84 1.8h1.75c0-.23.42-.5.95-.5.26 0 .7.1.7.45 0 .41-.57.5-1.27.62-.36.06-.77.12-1.14.24-.48.2-1.18.54-1.18 1.49 0 1.08 1.02 1.5 1.76 1.5.73 0 1.78-.42 1.78-.42l.3.42h1.95l-.2-1v-1.66ZM31 26.3v-1.6h-.33c-.79 0-1.55.39-1.94.9v-.9H26.7v5.6h2v-2.55c0-.86.8-1.45 1.43-1.45H31Zm-17.7 4h-1.93v-.8s-.23.3-.7.52c-.29.15-.68.28-1.16.28-1.26 0-1.81-1.15-1.81-1.84V24.7h2V28s.01.7.8.7.8-.7.8-.7v-3.3h2v5.6Zm.7-2.74V27h.5l-.5.56Zm0 1.06 2.34-2.32H14v-1.6h5v1.47l-2.66 2.53H19v1.6h-5v-1.68Zm26-1.02c-1.24.3-1.76.5-1.76.95 0 .45.44.45.55.45.67-.01 1.21-.4 1.21-1.4Zm-14.61 1.1a2.88 2.88 0 0 1-2.59 1.6 2.78 2.78 0 0 1-2.8-2.8c0-1.66 1.22-2.8 2.8-2.8a2.8 2.8 0 0 1 2.85 3.08l-.02.13-.02.09h-3.8c0 .32.35 1 1.08 1 .25 0 .54-.1.71-.3h1.79Zm-2.5-2.7c-.65 0-1.09.53-1.09 1H24c0-.46-.4-1-1.1-1Z" fill="#F0F3FA"/><defs><linearGradient id="avrxkjv3m" x1="7.5" y1="20.76" x2="53.71" y2="38.04" gradientUnits="userSpaceOnUse"><stop stop-color="#3C7F65"/><stop offset=".06" stop-color="#0073BF"/><stop offset=".12" stop-color="#2C388C"/><stop offset=".17" stop-color="#323582"/><stop offset=".23" stop-color="#241345"/><stop offset=".25" stop-color="#140831"/><stop offset=".32" stop-color="#5B122D"/><stop offset=".35" stop-color="#95191F"/><stop offset=".47" stop-color="#EF2825"/><stop offset=".53" stop-color="#EB7913"/><stop offset=".56" stop-color="#E76207"/><stop offset=".65" stop-color="#FDEF00"/><stop offset=".68" stop-color="#078C41"/><stop offset=".7" stop-color="#069542"/><stop offset=".77" stop-color="#07733C"/><stop offset=".87" stop-color="#057039"/></linearGradient></defs></svg>