<!-- by TradingView --><svg width="56" height="56" viewBox="0 0 56 56" xmlns="http://www.w3.org/2000/svg"><path fill="#181B1E" d="M0 0h56v56H0z"/><path d="M38 31.13c0 .07-.02.12-.07.17-.37.47-.87.7-1.5.7-.94 0-1.43-.53-1.43-1.6v-3.91c-.22 0-1 .01-1-.25 0-.1.11-.18.34-.23.68-.13.82-.57 1.06-1.21.21-.53.38-.8.5-.8.1 0 .1.07.1.21v1.8l1.6.01c.13 0 .2.08.18.24 0 .17-.07.23-.2.23H36v3.48c0 .64.03 1.5.87 1.5.18 0 .36-.1.54-.28.2-.2.32-.3.38-.3.14 0 .21.09.21.24ZM33 30.24c0 .57-.2 1.01-.58 1.32-.34.3-.8.44-1.37.44-.78 0-1.4-.21-1.87-.64A.48.48 0 0 1 29 31c0-.17.08-.32.23-.48.15-.15.3-.23.47-.22.14 0 .24.08.28.25 0 .06 0 .15.03.27.15.53.5.8 1.05.8.3 0 .56-.1.77-.3a1 1 0 0 0 .33-.77c0-.4-.25-.7-.75-.93l-1.4-.6c-.5-.3-.74-.75-.74-1.33 0-.52.17-.94.53-1.25.32-.3.74-.44 1.25-.44.31 0 .69.09 1.13.26.51.22.77.46.77.73 0 .15-.07.3-.22.44-.13.14-.27.2-.42.2-.1 0-.19-.07-.23-.22l-.04-.27c-.17-.5-.5-.75-.98-.75-.67 0-1 .31-1 .93 0 .4.25.71.76.93.47.2.95.38 1.42.57.5.31.76.78.76 1.42ZM28 28.53c0 .14-.02.2-.06.2H24v.48c0 1.16.83 2.18 2.03 2.18.49 0 .99-.22 1.5-.65l.27.28c-.65.65-1.36.98-2.13.98-1.75 0-2.67-1.31-2.67-2.96 0-.82.22-1.51.67-2.1a2.32 2.32 0 0 1 1.92-.94c1.44 0 2.41 1.12 2.41 2.53Zm-1.05-.44c0-.83-.4-1.7-1.34-1.7-1.03 0-1.57 1.01-1.61 1.93h2.18c.14 0 .77-.01.77-.23ZM22 26.18c0 .14-.08.21-.25.21-.16 0-.25.03-.3.09-.07.11-.3.62-.7 1.53l-1.44 3.47c-.15.35-.34.52-.58.52h-.04c-.03 0-.14-.24-.32-.69-.38-.95-.74-1.89-1.07-2.8l-.4-1.24c-.21-.59-.42-.88-.63-.88h-.03c-.16 0-.24-.07-.24-.2s.05-.19.15-.19h2.5c.1 0 .15.07.15.2 0 .11-.09.18-.26.2h-.4c-.25.01-.38.08-.38.22a62.09 62.09 0 0 0 1.4 4.04c.17-.4.43-1.1.8-2.09a14 14 0 0 0 .64-1.97c0-.14-.1-.21-.31-.21h-.16l-.15.01c-.2 0-.29-.06-.29-.2 0-.13.05-.2.15-.2h2c.1 0 .16.06.16.18ZM16 31.8c.01.13-.04.2-.18.2h-2.8c-.1 0-.16-.06-.16-.2 0-.13.18-.2.53-.2.36-.03.6-.13.61-.33v-3.02c0-1.03-.5-1.55-1.42-1.55-.33 0-.65.12-.96.35-.34.25-.62.54-.62.85v3.37c0 .2.28.31.62.32.34 0 .51.07.51.2 0 .14-.06.21-.18.21H9.19c-.13 0-.19-.07-.19-.22 0-.12.18-.2.54-.2.36-.01.46-.11.46-.3v-4.14c0-.2-.08-.32-.42-.36-.32-.04-.49-.13-.49-.26s.24-.26.7-.37c.38-.09.7-.14.93-.15.27 0 .28.06.28.22v.88c.73-.7 1.5-1.06 2.15-1.06.59 0 1.03.16 1.35.48.33.33.5.77.5 1.34v3.41c0 .2.16.31.5.32.33 0 .5.07.5.2ZM8 31.8c0 .13-.06.2-.19.2H4.2c-.13 0-.19-.07-.19-.22 0-.11.06-.17.19-.18.32 0 .54-.03.66-.05.33-.04.5-.14.51-.29.02-.22.03-1.07.03-2.55v-3.75l-.01-1.23c0-.18-.23-.29-.7-.3-.45-.02-.68-.1-.68-.22 0-.14.06-.21.19-.21H7.8c.13 0 .19.07.19.2 0 .14-.23.2-.69.23-.45 0-.67.1-.67.3v7.54c0 .13.17.23.51.28l.66.05c.13 0 .19.07.19.2Z" fill="#fff"/><path d="M44.48 27.41c.19-.14.28-.3.28-.45 0-.13-.07-.24-.22-.34a3.42 3.42 0 0 0-2.08-.62c-2.1 0-3.46 1.29-3.46 2.95 0 1.5 1.2 3.05 3.12 3.05.92 0 2.63-.57 3.4-2.5 1.11-2.33 2.26-2.94 3.19-2.94 1.5 0 2.05 1.35 2.05 2.49 0 1.07-.39 2.36-1.95 2.36-.94 0-1.63-.67-1.94-1.3-.18-.36-.35-.7-.54-.7-.4 0-.57.36-.57.7 0 .91 1.77 1.89 2.78 1.89 2.1 0 3.46-1.29 3.46-2.95 0-1.5-1.2-3.05-3.12-3.05-1.71 0-3.01.96-3.78 2.9-1.1 2.24-2.08 2.54-2.54 2.54-1.51 0-2.32-1.35-2.32-2.49 0-1.05.47-2.52 2.07-2.52.28 0 .54.06.77.2.24.13.4.3.48.52.03.1.05.18.05.24.03.16.14.24.3.24.2 0 .39-.08.57-.22Z" fill="#5774B8"/></svg>