<!-- by TradingView --><svg xmlns="http://www.w3.org/2000/svg" width="56" height="56" viewBox="0 0 56 56"><path fill="#FF0006" d="M0 0h56v56H0z"/><path d="M16.67 20.52C19.9 21.72 26.9 21.08 28 9v7.98c.23 8.7-7.46 5.98-11.33 3.54zm12.54-6.14c.48 3.25 4.5 8.41 16.69 3.06l-7.57 4.31c-8.26 4.7-9.52-2.95-9.12-7.37zm12.3 7.96c-2.8 2.02-5.59 7.84 5.49 14.97l-7.8-3.93c-8.5-4.3-2-9.15 2.3-11.04zM28 47c1.11-12.08 8.24-12.71 11.54-11.52-3.95-2.44-11.78-5.16-11.53 3.54L28 47zm-1.18-4.55c-.49-3.24-4.5-8.4-16.7-3.05l7.57-4.32c8.26-4.7 9.53 2.96 9.13 7.37zM9 18.21c11.08 8.2 8.28 14.88 5.5 17.2 4.3-2.16 10.8-7.73 2.3-12.68L9 18.2z" fill="#fff"/></svg>