<!-- by TradingView --><svg xmlns="http://www.w3.org/2000/svg" width="56" height="56" viewBox="0 0 56 56"><path fill="#F0F3FA" d="M0 0h56v56H0z"/><path d="M25.83 24.5c.48 0 .97.13 1.15.19-.05 0-.1.57-.11.85-1.25-.42-1.8-.04-1.85.52-.04.44.64.63.94.75.45.17 1.39.63 1.36 1.6-.03 1.21-1.04 1.57-1.9 1.59a3.78 3.78 0 0 1-1.42-.23l.12-.95c.97.56 2.09.27 2.1-.34 0-.5-.5-.67-.8-.76-.49-.16-1.53-.56-1.52-1.66 0-1.38 1.32-1.57 1.93-1.56zM31.37 28.14V28c0-1.1-.82-2-1.82-2s-1.82.9-1.82 2 .66 2 1.82 2c.52 0 1.15-.03 1.51-.35v-.77c-.64.38-1.17.4-1.47.4-.47 0-.81-.41-.9-.95H31.36v-.2zm-1.8-1.38c.4 0 .75.37.86.89H28.7c.11-.52.46-.9.87-.9zM43.06 28.14V28c0-1.1-.81-2-1.81-2s-1.82.9-1.82 2 .66 2 1.82 2c.52 0 1.15-.03 1.51-.35v-.77c-.64.38-1.17.4-1.47.4-.48 0-.81-.41-.91-.95H43.07v-.2zm-1.8-1.38c.41 0 .76.37.87.89h-1.74c.11-.52.46-.9.87-.9zM33 26h-1v4h1v-2.76a.78.78 0 0 1 1.5.3V30h1v-2.64a1.36 1.36 0 0 0-2.5-.74V26zM44 26v-.62l1-.38v1h1v.75h-1v1.96c-.03.6.68.53 1 .43v.77c-1.63.38-2.03-.58-2-1.1v-2.06h-.74V26H44zM37 26v-.62l1-.38v1h1v.76h-1v1.95c-.03.6.68.54 1 .43v.78c-1.63.37-2.03-.59-2-1.11v-2.05h-.75V26H37zM46.65 24.63h1v.99h-1zM46.65 26h1v4h-1zM48.45 24.63h1V30h-1z"/><path d="M50.63 26.26h1.22l-1.6 1.97h-1.23l1.6-1.97z"/><path d="M50.78 30H52l-1.59-2.07H49.2L50.78 30z"/><path fill-rule="evenodd" d="M4 24.4c1.46-.03 5.43-.38 8.6-1.26 4.22-1.18 8.9-1.28 9.97-1.03l1.16 9.62a28.47 28.47 0 0 0-8.64.7c-2.91.73-6.2 1.24-8.2 1.46l1.75-7.39H7.3L5.54 34h-.38L4 24.4zm3.61.6h1.37l-.21 1H7.42l.19-1zm11.32 0h-1.37l-.19 1h1.35l.21-1zm-1.66 1.5h1.37l-.9 4H16.4l.87-4zm-6.55 0c.55-.01 1.03.13 1.2.2l-.28.88c-.77-.45-1.41-.28-1.46-.1-.04.16.37.4.77.63l.21.12c.44.27.46.6.48.78v.02c-.04.96-1.09 1.46-1.93 1.47-.68 0-1.23-.16-1.41-.24l.28-1c.54.42 1.6.38 1.65.16.03-.15-.21-.3-.53-.48-.14-.08-.3-.17-.45-.28a.92.92 0 0 1-.4-.83c.1-1.08 1.19-1.31 1.87-1.33zm-.6 3.48c.03.18-.17.35-.45.39-.27.03-.51-.08-.54-.25-.02-.18.18-.35.46-.39.27-.03.51.08.54.25zM12.98 25l-.9 3.73c-.15.6-.05 1.81 1.64 1.77 2.13-.06 2.54-1.8 2.56-2.64.01-.84-.56-1.38-1.25-1.36a2.2 2.2 0 0 0-1.05.26l.42-1.76h-1.42zm.74 4.79c.29.1.7-.37.92-1.05.22-.67.17-1.3-.12-1.4-.29-.09-.7.38-.92 1.05-.22.68-.17 1.3.12 1.4zm5.8-3.29l-.9 4h1.41l.44-1.95a1.2 1.2 0 0 1 1.31-.95l.3-1.1c-.27.02-.9.15-1.27.53l.1-.53h-1.4z" fill="#ED1C24"/></svg>