<!-- by TradingView --><svg xmlns="http://www.w3.org/2000/svg" width="56" height="56"><path fill="#F0F3FA" d="M0 0h56v56H0z"/><path d="M4 25h1v6H4zm15 0h1v6h-1zm15 0h1v6h-1zm-4 0h3v1h-3v2h2v1h-2v2h-1v-6h1zM4 23h1v1H4zm15 0h1v1h-1zm-8 2H6v1h3.15L6 31h5v-1H7.86L11 25zm1 0v6h1v-3.45l2 1.84 2-1.84V31h1v-6l-3 3-3-3zm24 0h2.67a2 2 0 01.75 3.85L40.67 31h-1.2l-1.07-2H37v2h-1v-6zm2.73 1H37v2h1.73a1 1 0 000-2zM21 25h2.66a2 2 0 01.76 3.85L25.66 31h-1.2l-1.06-2H22v2h-1v-6zm2.73 1H22v2h1.73a1 1 0 100-2z"/><path fill-rule="evenodd" d="M46 31l2.99-6L52 31h-1.1l-.53-1H47.6l-.52 1h-1.1zm2-2l1-2 1 2h-2z"/><path d="M44.5 30.96a3 3 0 001.73-.96l-.7-.7a2 2 0 11.03-2.55l.7-.73A3 3 0 0041 28a3 3 0 002.41 2.94L42.78 32h1.11l.62-1.04z"/><path d="M18 21h-6v3.43l3 2.99 3-2.99V21z" fill="#00A0DB"/><path fill-rule="evenodd" d="M12 31.4h6v1.88c0 .4-.58 1.14-2 1.68V37a1 1 0 11-2 0v-2.05c-.74-.28-2-.98-2-1.67V31.4zm3.44 5.74a.43.43 0 11-.86 0 .43.43 0 01.86 0z"/></svg>