<!-- by TradingView --><svg xmlns="http://www.w3.org/2000/svg" width="56" height="56"><path fill="#192C64" d="M0 0h56v56H0z"/><path d="M44 30.5C42.78 38.16 36.08 44 28 44s-14.78-5.85-16-13.5c1.16.11 1.77 1.1 1.93 1.64 1.8 6 7.42 10.36 14.07 10.36s12.27-4.37 14.07-10.36c.16-.54.77-1.53 1.93-1.63zM28 12a16.14 16.14 0 00-16 13.5c1.16-.11 1.77-1.1 1.93-1.64A14.67 14.67 0 0128 13.5c6.65 0 12.27 4.37 14.07 10.36.16.54.77 1.53 1.93 1.63A16.14 16.14 0 0028 12z" fill="#fff"/><path d="M21 32l2.5-9h2.41c.9 0 1.7.21 2.38.62.68.41 1.16.97 1.45 1.68.24.62.32 1.3.22 2.01l-.05.38a4.87 4.87 0 01-.94 2.2 5.16 5.16 0 01-1.91 1.54c-.78.37-1.62.56-2.53.57H21zm4.5-7L24 30h.72c1.78 0 2.6-1.21 2.76-3.07.08-1.02-.48-1.9-1.58-1.93h-.4zm-7.28 7H16l2.78-9H21l-2.78 9zm3-10H19l.7-2h2.2l-.68 2zm18.53 6.99a3.08 3.08 0 01-.73 1.73c-.42.5-.97.89-1.66 1.16a5.75 5.75 0 01-2.23.38L34.55 34h-1.8l.7-2.07a3.1 3.1 0 01-.92-.6 3.5 3.5 0 01-1.03-2.44c-.04-.69.04-1.43.25-2.24a5.63 5.63 0 011.05-2.11 4.67 4.67 0 011.71-1.34c.66-.3 1.39-.45 2.17-.44 1.14.02 2.05.32 2.72.91A3.3 3.3 0 0140.48 26h-2.46c-.05-1-.95-1.11-1.52-1.11-1.65 0-2.36 1.74-2.58 3.1-.21 1.3.14 2.21 1.58 2.26.5.01 1.5-.25 1.84-1.24l2.41-.02z" fill="#fff"/></svg>