<!-- by TradingView --><svg xmlns="http://www.w3.org/2000/svg" width="56" height="56"><path fill="#F0F3FA" d="M0 0h56v56H0z"/><path d="M27 12l-10.9 6.92 9.94 6.8.96-.78V12zm1 0v12.94l4 2.6 9.5-8.84L28 12zm14 7.6v14.11l-12 11.3v-14.3l12-11.1zM31 31.14V42.7l10-9.42v-11.4l-10 9.26zm-2-.64v14.7L16 34.47V28l9.39 6.47 3.07-3.97H29z" fill="#1F47B2"/><path d="M29.52 29.08l-.9.9L24.5 35l-14-10.5 5.01-4.77 14.01 9.35z" fill="#F0F3FA"/><path d="M15.44 19.33l14.6 10.14-5.77 6.25-13.78-11.2 4.95-5.19zm.13 1.31l-3.61 3.79 12.2 9.92 4.36-4.72-12.95-8.99z" fill="#1F47B2"/></svg>