<!-- by TradingView --><svg xmlns="http://www.w3.org/2000/svg" width="56" height="56"><path fill="#00AEEF" d="M0 0h56v56H0z"/><path d="M6 22h2v5h3a1 1 0 001-1v-4h2v4c0 .77-.29 1.47-.76 2 .47.53.76 1.23.76 2v5h-2v-4.5c0-1-.5-1.5-1.5-1.5H8v6H6V22z" fill="#fff"/><path fill-rule="evenodd" d="M16 25.23a3.5 3.5 0 117 0V35h-2v-5h-3v5h-2v-9.77zm3.5-1.5a1.5 1.5 0 00-1.5 1.5V28h3v-2.77a1.5 1.5 0 00-1.5-1.5zM25 22v13h2v-6h1.5c1.5 0 2.5 1 2.5 2v4h2v-4c0-1-.61-2.1-1.52-2.61A3.5 3.5 0 0029.5 22H25zm2 2v3h2.5a1.5 1.5 0 000-3H27z" fill="#fff"/><path d="M35 25.5a3.5 3.5 0 013.5-3.5H42v2h-3.5a1.5 1.5 0 000 3H42v2h-3a2 2 0 100 4h3v2h-3a4 4 0 01-2.8-6.86A3.5 3.5 0 0135 25.5zM46 22h-2v9a4 4 0 004 4h2v-2h-2a2 2 0 01-2-2v-9z" fill="#fff"/><path d="M52 26a4 4 0 00-4-4v2a2 2 0 012 2h2z" fill="#F78F1E"/></svg>