<!-- by TradingView --><svg width="56" height="56" xmlns="http://www.w3.org/2000/svg"><path fill="#B11116" d="M0 0h56v56H0z"/><path d="M12.05 24H7.32c-.975 1.067-2.98 3.254-3.201 3.468-.201.193-.11.489 0 .615l4.056 4.91c14.363.005 43.162.012 43.454 0 .292-.01.365-.26.365-.384.005-.288.01-.945 0-1.264-.01-.319-.247-.348-.365-.345H11.7c-.544-.834-1.685-2.621-1.888-2.917-.202-.295-.084-.533 0-.615.623-.794 1.943-2.487 2.24-2.914.295-.427.123-.547 0-.554z" fill="#fff"/><path d="M13 30v-5.004h1v2.039l1.67-2.039h1.21l-1.722 2.039L17 30h-1.155l-1.32-2.19-.525.58V30h-1z" fill="#C2C2C2"/><path fill-rule="evenodd" d="M16.518 30l1.582-5.004h.9L20.621 30h-.982l-.3-1h-1.53l-.33 1h-.962zm1.53-2l.517-1.718.517 1.718h-1.034z" fill="#C2C2C2"/><path d="M22.822 24.996h-2.649V26H21v4h1v-4h.822v-1.004zM23 30v-5.004h1.433l1.096 3.33 1.024-3.33H28V30h-1v-3.157L26 30h-1l-1-3.157V30h-1zm5.5 0v-5.004h3.159V26H29.5v1.004h1.924V28H29.5v1h2.159v1H28.5zm16.5.003V25h3.159v1.004H46v1.004h1.924v.996H46v1h2.159v1H45z" fill="#C2C2C2"/><path fill-rule="evenodd" d="M32 24.996V30h1v-2l.8.01c.154.017.489.21.596.745.093.46.123.913.139 1.154l.007.1 1.043-.01a8.53 8.53 0 01-.165-1.388c-.012-.55-.373-.854-.552-.938.239-.094.552-.475.552-1.305 0-1.037-.68-1.372-1.024-1.372H32zM33 26v1.15h.98c.196 0 .486-.18.486-.596 0-.417-.313-.554-.486-.554H33zm15.415-1v4.99h1v-1.994l.8.01c.154.017.49.208.597.742.092.46.122.91.138 1.152l.007.1L52 29.99a8.487 8.487 0 01-.164-1.385c-.012-.548-.373-.851-.552-.935.238-.094.552-.474.552-1.302 0-1.034-.681-1.368-1.024-1.368h-2.397zm1 1.001v1.148h.98c.197 0 .487-.18.487-.595 0-.416-.314-.553-.486-.553h-.98zM39.73 28c-.19 1.141-1.007 2-1.986 2-1.12 0-2.027-1.12-2.027-2.502 0-1.382.907-2.502 2.027-2.502.98 0 1.799.86 1.986 2.004h-1.066c-.138-.583-.509-1-.945-1-.553 0-1.002.672-1.002 1.5s.449 1.5 1.002 1.5c.436 0 .807-.417.945-1h1.065z" fill="#C2C2C2"/><path fill="#C2C2C2" d="M40 25.525h1v4.474h-1zM40 24h1v1h-1z"/><path d="M42.738 25.006h-.998v5.004h2.879v-1h-1.881v-4.004z" fill="#C2C2C2"/></svg>