<!-- by TradingView --><svg width="56" height="56" viewBox="0 0 56 56" xmlns="http://www.w3.org/2000/svg"><path fill="#F0F3FA" d="M0 0h56v56H0z"/><path d="M31.42 17.13c-.38 2.33-1.3 4.08-2.75 5.23a.28.28 0 0 1-.45-.2l-.07-1.24-.13-2.72c0-.03-.02-.05-.06-.05-.02 0-.04.02-.04.06l-.28 5.11a.43.43 0 0 1-.6.37c-2.28-1.05-3.27-2.8-2.99-5.25a8.9 8.9 0 0 1 1.05-2.75 61.06 61.06 0 0 1 2.74-4.67.18.18 0 0 1 .24.06 39.8 39.8 0 0 1 3.34 6.05Z" fill="#53A548"/><path d="M22.55 22.6c-.76.76-1.82 1.08-3.18.96-3.36-.3-4.05-3.37-4.9-6.38-.3-1.1-.6-2.2-.87-3.32-.03-.1-.03-.15 0-.18.04-.03.1-.04.2-.02 1.1.28 2.21.57 3.31.87 3.01.85 6.08 1.53 6.39 4.9.12 1.35-.2 2.41-.95 3.17ZM33.32 22.62c-.76-.76-1.08-1.81-.95-3.17.3-3.35 3.36-4.04 6.35-4.89 1.1-.3 2.2-.6 3.31-.88.1-.02.15-.02.18 0 .04.04.04.1.02.2-.27 1.11-.56 2.22-.87 3.31-.84 3-1.52 6.07-4.87 6.38-1.35.12-2.4-.2-3.17-.95Z" fill="#BC9F78"/><path d="M31.42 17.13c1.06 2.85.13 5.62-2.89 6.54a.28.28 0 0 1-.25-.05.29.29 0 0 1-.11-.22l-.02-2.48.07 1.24a.28.28 0 0 0 .46.2c1.44-1.15 2.36-2.9 2.74-5.23ZM22.84 27.74c-.18.02-.34 0-.48-.05-.13-.04-.18-.13-.14-.26.05-.2.02-.34-.07-.45-1.15-1.28-2.88-2.08-5.17-2.4 2.67-1.2 6.06-.2 6.57 2.91.02.14-.04.22-.17.25-.18.03-.36.03-.54 0Z" fill="#1A823A"/><path d="M38.6 31.62c-2.64-.73-4.26-1.82-4.88-3.27l4.44-.2c.52-.03.52-.06 0-.09l-5.55-.34c-.11 0-.18-.06-.2-.18-.04-.4.05-.8.3-1.17 1.78-2.83 4.7-2.71 7.5-1.25 1.55.8 3.1 1.7 4.64 2.68.19.12.2.24.01.36a34.98 34.98 0 0 1-6.26 3.46Z" fill="#53A548"/><path d="M27.95 31.59a3.6 3.6 0 1 0 0-7.2 3.6 3.6 0 0 0 0 7.2Z" fill="#BC9F78"/><path d="M16.98 24.58c2.3.32 4.02 1.12 5.17 2.4.1.1.12.26.07.45-.04.13.01.22.14.26.14.05.3.07.48.05-1.67.03-3.28.14-4.81.34-.3.04-.3.06 0 .07l5.35.1a.24.24 0 0 1 .18.09.24.24 0 0 1 .04.2c-.62 3.14-4.27 4.03-6.8 2.86a51.65 51.65 0 0 1-5.78-3.26.17.17 0 0 1 .05-.23 30.17 30.17 0 0 1 5.9-3.33Z" fill="#53A548"/><path d="M33.72 28.35c.62 1.45 2.25 2.54 4.88 3.27a5.13 5.13 0 0 1-3.5.04 4.26 4.26 0 0 1-2.76-3.19.26.26 0 0 1 .13-.18.27.27 0 0 1 .1-.03c.54-.04.92-.01 1.15.1Z" fill="#1A823A"/><path d="M24.07 38.1a1 1 0 0 0 .45.08c.1-.01.18-.11.21-.3.38-2.01 1.35-3.4 2.9-4.17l.32 4.6c0 .03.02.05.05.05.03 0 .04 0 .04-.02l.1-5.79c0-.15.08-.22.23-.22.42 0 .78.1 1.09.3 5.2 3.24.6 8.83-1.3 12.24a.25.25 0 0 1-.43.01 47.38 47.38 0 0 1-3.66-6.78Z" fill="#53A548"/><path d="M22.53 33.38c.76.76 1.08 1.82.96 3.18-.3 3.36-3.36 4.06-6.37 4.91-1.1.31-2.2.6-3.31.88-.1.03-.17.02-.2-.02-.03-.02-.03-.08 0-.17.27-1.12.56-2.22.86-3.32.84-3.02 1.52-6.09 4.88-6.4 1.35-.13 2.41.18 3.18.94Z" fill="#BC9F78"/><path d="M27.64 33.71c-1.56.77-2.53 2.16-2.9 4.17-.04.19-.11.29-.22.3a1 1 0 0 1-.45-.08 5.55 5.55 0 0 1 .3-3.3c.6-1.28 1.59-2.1 2.98-2.47a.26.26 0 0 1 .32.26l-.03 1.12Z" fill="#1A823A"/><path d="M33.3 33.4c.76-.77 1.82-1.09 3.18-.96 3.36.3 4.06 3.36 4.9 6.38.31 1.1.6 2.2.88 3.32.03.1.02.16-.02.2-.02.02-.08.02-.18 0l-3.32-.87c-3-.85-6.07-1.53-6.38-4.9-.13-1.35.18-2.42.94-3.18Z" fill="#BC9F78"/></svg>