<!-- by TradingView --><svg width="56" height="56" viewBox="0 0 56 56" xmlns="http://www.w3.org/2000/svg"><path fill="#F0F3FA" d="M0 0h56v56H0z"/><path d="M51.32 24c.35.08.57.28.68.6v6.82a.83.83 0 0 1-.6.58H4.65a.82.82 0 0 1-.65-.73v-6.52c.06-.39.29-.64.7-.75h46.62Z" fill="#F10826"/><path d="M7.36 24v4.2c0 .09.02.1.08.02l1.7-2.18a.1.1 0 0 1 .1-.04h1.44a.03.03 0 0 1 .03.04v.02L8.8 28.32v.05l2.02 2.58V31H9.18a.09.09 0 0 1-.07-.03L7.44 28.7c-.05-.07-.08-.06-.08.02v2.23c0 .03-.01.05-.05.05H6.05c-.03 0-.05-.02-.05-.05V24h1.36ZM43.04 26.48c.64-.6 1.76-.67 2.4-.02l.02.03-.01.02-.76.9c-.02.02-.04.02-.07 0-.44-.26-.85-.28-1.22-.03-.26.18-.4.47-.4.87v2.7c0 .03-.01.05-.04.05h-1.31v-4.95c0-.03.01-.05.04-.05h1.25l.04.02.02.05v.4c0 .03.02.04.04.01ZM13.16 29.77c.5 0 .83-.32.84-.85v-2.87c0-.03.03-.05.07-.05h1.21c.03 0 .04.01.04.04v1.84c0 .88-.02 1.4-.05 1.54-.22.99-1.12 1.58-2.1 1.58-1 0-1.9-.6-2.11-1.58-.03-.15-.05-.66-.06-1.54v-1.84c0-.03.01-.04.04-.04h1.21c.04 0 .05.02.05.06l.01 2.86c.01.53.35.85.85.85ZM19.78 31h-4.16a.03.03 0 0 1-.03-.03v-.76l2.3-2.97a.03.03 0 0 0 0-.04v-.01H15.8l-.03-.02V26.01l.03-.01h4.04l.02.01.01.02v.75l-2.3 2.98-.01.02v.02a.03.03 0 0 0 .03.02h2.21V31l-.03.01ZM27.33 32H25.9l.85-1.7a.1.1 0 0 0 0-.08l-1.86-4.19a.02.02 0 0 1 0-.02h.01l.01-.01h1.38l.05.01.02.03 1.09 2.8c.03.08.06.08.09 0l1.12-2.8.03-.03.04-.01h1.39l.02.01v.03L27.33 32ZM48.16 31c-.99 0-1.88-.6-2.1-1.58a13.2 13.2 0 0 1-.06-1.54v-1.84c0-.03.01-.04.04-.04h1.21c.04 0 .05.02.05.06l.01 2.86c.01.54.35.85.85.85s.83-.32.84-.85v-2.87c0-.03.03-.05.07-.05h1.21c.03 0 .04.01.04.04v1.84c0 .88-.02 1.4-.06 1.54-.21.99-1.1 1.58-2.1 1.58Z" fill="#F0F3FA"/><path fill-rule="evenodd" d="M23.8 29.45c-.77.69-2.17.68-2.53-.4v-.02a.04.04 0 0 1 .02-.03h3.56c.04 0 .06-.02.06-.05.27-1.14-.33-2.46-1.54-2.81a2.75 2.75 0 0 0-2.36.3 2.44 2.44 0 0 0-.55 3.64 2.94 2.94 0 0 0 4.14.13c.02-.02.02-.05 0-.07l-.72-.69c-.03-.02-.05-.02-.08 0ZM21.31 28h2.34v-.04a.9.9 0 0 0-.34-.68 1.28 1.28 0 0 0-.83-.28h-.02c-.15 0-.3.03-.44.08a1.2 1.2 0 0 0-.38.21c-.1.1-.19.2-.25.32a.84.84 0 0 0-.08.37V28Z" fill="#F0F3FA"/><path d="M31.78 26.25V24h-1.36v6.84c0 .04.02.05.06.05h1.24c.04 0 .06-.02.06-.05v-.3c0-.07.02-.08.07-.04.99.85 2.48.55 3.24-.42.25-.33.41-.7.49-1.13.2-1.23-.28-2.45-1.45-2.96a2.24 2.24 0 0 0-2.28.3c-.04.03-.07.02-.07-.04Zm1.2 3.51c-.71 0-1.29-.6-1.3-1.35 0-.75.58-1.37 1.29-1.37.7 0 1.28.6 1.29 1.36 0 .75-.57 1.36-1.28 1.36ZM41.05 29.52a2.36 2.36 0 0 0-.5-2.74 2.7 2.7 0 0 0-1.89-.78 2.86 2.86 0 0 0-1.92.69c-.25.22-.46.5-.6.8a2.35 2.35 0 0 0 .5 2.73 2.7 2.7 0 0 0 1.89.78 2.86 2.86 0 0 0 1.91-.69c.26-.22.47-.5.6-.8Zm-2.43.28a1.3 1.3 0 1 1-.05-2.59 1.3 1.3 0 1 1 .05 2.59Z" fill="#F0F3FA"/></svg>