<!-- by TradingView --><svg width="56" height="56" viewBox="0 0 56 56" xmlns="http://www.w3.org/2000/svg"><path fill="#F0F3FA" d="M0 0h56v56H0z"/><path d="M48 29.5V31h-1v-5h3.96c.49 0 1.04.42 1.04 1.02v1.1c0 .49-.54.75-.54.75s.54.26.54.64V31h-1v-1.07c0-.37-.5-.43-.73-.43H48Zm0-2.5v1.5h2.41c.5 0 .59-.44.59-.8 0-.38-.21-.7-.59-.7H48ZM33 31l2.18-5h1.6L39 31h-1.19l-.5-1h-2.62l-.44 1H33Zm3-4.14L35.06 29h1.86L36 26.86ZM40 31v-5h5v1h-4v1h4v1h-4v1h4v1h-5ZM13 31v-5h1v2h1l1.72-2H18l-2.12 2.45 2.5 2.55h-1.43L15 29h-1v2h-1Z"/><path fill="#E70002" d="M4 26h1v5H4zM6 26h1.5v5H6zM9 26h2v5H9z"/><path fill-rule="evenodd" d="M20.6 26c-.88 0-1.6.76-1.6 1.7v1.6c0 .94.72 1.7 1.6 1.7h2.8c.88 0 1.6-.76 1.6-1.7v-1.6c0-.94-.72-1.7-1.6-1.7h-2.8Zm.47 1c-.59 0-1.07.45-1.07 1.02v.96c0 .57.48 1.02 1.07 1.02h1.86c.59 0 1.07-.45 1.07-1.02v-.96c0-.57-.48-1.02-1.07-1.02h-1.86Z"/><path d="M26 27.7c0-.94.72-1.7 1.6-1.7h2.8c.88 0 1.6.66 1.6 2h-1.1c0-.78-.67-1-1.07-1h-1.85c-.5 0-.98.48-.98 1.02v.92c0 .54.48 1.06.98 1.06h1.85c.56 0 1.07-.28 1.07-1H32c0 1.22-.7 2-1.6 2h-2.8c-.88 0-1.6-.76-1.6-1.7v-1.6Z"/></svg>