<!-- by TradingView --><svg width="56" height="56" xmlns="http://www.w3.org/2000/svg"><path fill="url(#paint0_linear)" d="M0 0h56v56H0z"/><path d="M4 32l.843-7h1.972l-.27 2.028c.63.006 2.01.013 2.481 0 .471-.013.907-.365 1.066-.54L11.332 25h2.275l-1.606 2.126c-.306.406-.849.758-1.082.883.458.157.721.622.795.834L13.003 32h-2.259c-.265-.61-.85-1.979-1.066-2.568-.216-.588-.662-.714-.858-.703H6.338L5.972 32H4z" fill="#fff"/><path d="M15.48 25h4.843c.52 0 1.686.573 1.686 1.718l-.34 3.084c-.15.659-.844 2.02-2.422 2.198h-4.575c-.502-.08-1.492-.613-1.435-2.105.072-1.866 1.884-2.254 2.242-2.254h4.485v-.498c0-.18-.143-.54-.717-.555-.574-.014-2.895-.006-3.983 0L15.48 25zm4.305 4.119H15.64c-.18.024-.542.18-.556.61-.015.428.364.609.556.646h3.3c.282-.013.844-.281.844-1.256z" fill="#fff"/><path d="M22.802 27.727L22.346 32h1.96l.236-2.025h4.308l.22-1.51h-4.376c.014-1.29.896-1.808 1.335-1.905h3.817l.254-1.545c-.321-.011-1.554-.027-3.92 0-2.364.028-3.237 1.82-3.378 2.712z" fill="#fff"/><path fill-rule="evenodd" d="M36.513 32h-4.418c-.756-.035-2.258-.704-2.208-3.1.061-2.993 2.023-3.92 3.137-3.9.892.017 2.532.007 3.241 0 .895.092 2.506 1.02 1.796 4.006h-6.234c-.096.366-.062 1.139.846 1.307h4.046L36.513 32zm-4.5-4.259c-.007-.38.215-1.147 1.156-1.18a38.235 38.235 0 012.374 0c.261.042.772.337.722 1.18h-4.252z" fill="#fff"/><path d="M41.475 25h-1.973l-.175 1.556h1.95L41.476 25z" fill="#EA161B"/><path d="M41.848 32c-3.052-.179-3.099-2.68-2.74-4h1.994c-.052.125-.11.78-.131 1.182-.035.841.774 1.126 1.184 1.163h.942L43.645 25h5.7c2.42.072 2.762 1.804 2.63 2.661L51.473 32H49.52l.438-4.003c.07-1.074-.73-1.342-1.14-1.342h-3.376L44.807 32h-2.96z" fill="#fff"/><defs><linearGradient id="paint0_linear" x1="10.418" y1="9.712" x2="68.147" y2="76.017" gradientUnits="userSpaceOnUse"><stop stop-color="#1A1E21"/><stop offset="1" stop-color="#06060A"/></linearGradient></defs></svg>