<!-- by TradingView --><svg xmlns="http://www.w3.org/2000/svg" width="56" height="56"><path fill="#004280" d="M0 0h56v56H0z"/><path d="M4 25h28v6H4v-6zm29 0h19v6H33v-6z" fill="#fff"/><path d="M6.6 30h.8v-1.63L9 26h-.88L7 27.65 5.93 26H5l1.6 2.37V30zm6.1-2.54h.22c.3 0 .6.12.6.46 0 .35-.3.42-.6.42h-.23v-.88zM12.08 30h.6v-1.18h.3c.65 0 1.14-.23 1.14-.94 0-.72-.6-.88-1.25-.88h-.77v3h-.02zm2.71 0h.66v-3h-.66v3zm2.83 0h.78v-1.88h.08L20.03 30h1.07l-1.8-2.12L21.03 26h-1.08l-1.55 1.68V26h-.78v4zm4.34-2.54h.24c.3 0 .6 0 .6.35 0 .41-.3.41-.6.41h-.24v-.76zm-.6 2.54h.6v-1.3h.24c.23 0 .3.12.41.35l.35.95h.65l-.46-1.18a.57.57 0 00-.3-.34c.34-.07.6-.35.6-.72 0-.83-.77-.76-1.42-.76h-.65v3h-.02zm3.04 0h1.97v-.48h-1.34v-.87h1.18v-.48h-1.18v-.69h1.34V27h-1.98v3zm2.69 0h.83c.94 0 1.7-.34 1.7-1.53 0-1.17-.76-1.47-1.7-1.47h-.83v3zm.57-2.52h.35a1 1 0 011.01 1c0 .65-.53 1.06-1.01 1.06h-.35v-2.06zM30.27 30h.72v-3h-.72v3zm0-3.12h.72v-.4h-.72v.4zm4.3 3.12h.87v-1.88L36.98 30h1.07l-1.8-2.12L38 26h-1.02l-1.54 1.68V26h-.87v4zm3.61-1.52c0 .9.51 1.52 1.42 1.52.91 0 1.42-.68 1.42-1.52S40.51 27 39.6 27c-.9 0-1.42.57-1.42 1.48zm.62 0c0-.5.22-1.02.8-1.02.58 0 .8.51.8 1.02 0 .5-.22 1.01-.8 1.01-.58 0-.8-.5-.8-1.01zm3.6-1.02h.24c.3 0 .6 0 .6.35 0 .41-.3.41-.6.41h-.23v-.76zM41.8 30h.6v-1.3h.24c.23 0 .3.12.42.35l.34.95h.65l-.46-1.18a.57.57 0 00-.3-.34c.35-.07.6-.35.6-.72 0-.83-.76-.76-1.41-.76h-.68v3zm4.83-1.17h-.88l.42-1.23.46 1.23zM44.69 30h.6l.3-.71h1.17l.3.71h.65l-1.18-3h-.64l-1.2 3zm-34.34-1.17h-.87l.41-1.23.46 1.23zM8.42 30h.6l.3-.71h1.17l.3.71h.64l-1.17-3h-.64l-1.2 3zm40.49 0h.64v-1.24L50.61 27h-.64l-.71 1.24-.72-1.24h-.69l1.06 1.76V30z" fill="#004280"/></svg>