<!-- by TradingView --><svg xmlns="http://www.w3.org/2000/svg" width="56" height="56" viewBox="0 0 56 56"><path fill="#F0F3FA" d="M0 0h56v56H0z"/><path d="M16.1 33H9.28c-.3 0-.59-.12-.8-.33l-2.86-2.5c-.24-.24-.07-.67.28-.67h6.83c.3 0 .58.12.8.33l2.86 2.5c.25.24.08.67-.27.67zM17.5 31.13v-6.46c0-.28-.12-.55-.33-.75l-2.5-2.31c-.24-.23-.67-.07-.67.26v6.45c0 .28.12.54.33.74l2.5 2.33c.24.23.67.07.67-.26z" fill="#2E3A6C"/><circle cx="9" cy="25" r="3" fill="#E91F2D"/><path d="M20.6 21c-.33 0-.6.24-.6.55v10.9c0 .3.27.55.6.55h2.8c.33 0 .6-.24.6-.55V30.1l1.3 2.6c.1.2.29.31.5.31h2.64c.43 0 .7-.46.49-.84l-2.21-4.07 1.77-3.25a.56.56 0 0 0-.5-.84h-2.44c-.2 0-.39.11-.48.3L24 26.24v-4.7c0-.3-.27-.55-.6-.55h-2.8zM31.59 21c-.33 0-.59.23-.59.52v1.46c0 .29.26.52.59.52h2.82c.33 0 .59-.23.59-.52v-1.46c0-.29-.26-.52-.59-.52H31.6zm0 3a.57.57 0 0 0-.59.56v7.88c0 .3.26.56.59.56h2.82c.33 0 .59-.25.59-.56v-7.88c0-.3-.26-.56-.59-.56H31.6zM37.63 24c-.35 0-.63.25-.63.56v7.88c0 .31.28.56.63.56h2.74c.35 0 .63-.25.63-.56v-4.26c0-.35.15-.68.5-.68s.5.33.5.69v4.25c0 .31.32.56.62.56h1.9c.3 0 .48-.25.48-.56V28.2c0-.36.15-.69.5-.69s.5.33.5.69v4.25c0 .31.37.56.67.56h2.79c.3 0 .54-.25.54-.56v-5.4A2.99 2.99 0 0 0 47.06 24c-.89 0-1.68.4-2.22 1.03a2.9 2.9 0 0 0-3.84-.52c-.03-.29-.3-.51-.63-.51h-2.74z" fill="#F01A32"/></svg>