<!-- by TradingView --><svg width="56" height="56" xmlns="http://www.w3.org/2000/svg"><path fill="#002C5D" d="M0 0h56v56H0z"/><path d="M5 23h2v5.896L9.5 26h2.697l-2.992 3.308L12.697 34H10l-2.06-3.295-.94 1.04V34H5V23zm8 3h2v8h-2zm5-3h-2v9a2 2 0 002 2h1v-2a1 1 0 01-1-1v-8zm-5 0h2v2h-2z" fill="#fff"/><path fill-rule="evenodd" d="M19 30c0-2.678 1.567-4 3.5-4s3.5 1.27 3.5 3.5v1h-5.2c0 .718.685 1.908 1.863 1.908.786 0 1.5-.408 1.76-.801l1.24.893c-.632.907-1.81 1.5-3 1.5C20.73 34 19 32.678 19 30zm3.5-2.368c1.178 0 1.5.705 1.5 1.668h-3.2c0-.963.522-1.668 1.7-1.668z" fill="#fff"/><path d="M29 26v.764A2.989 2.989 0 0131 26c.701 0 1.346.24 1.857.643L31.25 28.25A1.25 1.25 0 0029 29v5h-2v-8h2z" fill="#fff"/><path d="M39.077 25.947h1.25l2.167 3.07L44.624 26h1.25L43 30.037V34h-1v-3.947l-2.923-4.106zM39 27.034A4 4 0 1038.993 33H39v-3h-1v2.503a3 3 0 111-3.862v-1.607z" fill="#A9AAAC"/><path d="M42.47 27.122l1.5-2h-3l1.5 2z" fill="#fff"/><path fill-rule="evenodd" d="M49 34a4 4 0 100-8 4 4 0 000 8zm0-1a3 3 0 100-6 3 3 0 000 6z" fill="#A9AAAC"/></svg>