<!-- by TradingView --><svg xmlns="http://www.w3.org/2000/svg" width="56" height="56"><path fill="url(#aw4agaeaq)" d="M0 0h56v56H0z"/><path d="M13 13h30v30H13V13zm1 1v28h28V14H14z" fill="#fff"/><path d="M15 15h10v8H15v-8z" fill="#CBE7FB"/><path d="M15 24h10v8H15v-8z" fill="#008DCD"/><path d="M15 33h10v8H15v-8z" fill="#004A9B"/><path d="M30.75 15H42l-4.02 8H27l3.75-8z" fill="#CBE7FB"/><path d="M38.25 33H27l3.75 8H42l-3.75-8z" fill="#004A9B"/><path d="M27.34 24H38l-2.08 4.27L38 32H27.34L25 28l2.34-4z" fill="#008DCD"/><defs><linearGradient id="aw4agaeaq" x1="10.42" y1="9.71" x2="68.15" y2="76.02" gradientUnits="userSpaceOnUse"><stop stop-color="#1A1E21"/><stop offset="1" stop-color="#06060A"/></linearGradient></defs></svg>