<!-- by TradingView --><svg width="56" height="56" viewBox="0 0 56 56" xmlns="http://www.w3.org/2000/svg"><path fill="#F0F3FA" d="M0 0h56v56H0z"/><path d="M5 26v-6h1.17c.03 0 .05.02.05.05v.91c0 .03.01.04.04.04h1.08c.04 0 .05 0 .05-.04v-.91c0-.03.02-.05.05-.05h1.12c.03 0 .05.02.05.05v.91c0 .03.01.04.05.04h1.07c.04 0 .05 0 .05-.04v-.91c0-.03.02-.05.05-.05h1.12c.03 0 .05.02.05.05v5.9c0 .03-.02.05-.05.05H5Z" fill="#E85438"/><path d="M16 27.74v7.21c0 .03-.01.05-.05.05h-2.9l-.04-.01a.05.05 0 0 1-.01-.04v-14.9c0-.03.02-.05.05-.05H16v7.01a.02.02 0 0 0 .03.01h.01l5.11-6.99.03-.02h3.73a.02.02 0 0 1 0 .02l-5.35 7.15v.07l5.44 7.7V35h-.01l-.02.01h-3.82a.1.1 0 0 1-.08-.04l-5-7.24c-.05-.06-.07-.05-.07.02ZM39.96 20h-2.91a.04.04 0 0 0-.05.04v14.92c0 .02.02.04.05.04h2.9c.03 0 .05-.02.05-.04V20.04a.04.04 0 0 0-.04-.04Z" fill="#1A1725"/><path d="M28.93 35h-.64c-1-.12-1.85-.37-2.56-1.12a3.07 3.07 0 0 1-.72-2.24c.07-2.17 2.07-2.85 3.9-3 .67-.06 1.67-.12 3-.2.06 0 .09-.03.09-.08a2.9 2.9 0 0 0-.15-1.22c-.2-.5-.6-.8-1.18-.94-.96-.2-2.16 0-2.5 1.06-.04.1-.05.24-.08.36-.01.03-.03.05-.07.05h-2.64a.05.05 0 0 1-.04-.02.05.05 0 0 1 0-.04 3.77 3.77 0 0 1 3.19-3.45c2-.4 5.58-.21 6.36 2.25.07.25.11.62.11 1.14v5.68c0 .44.05 1.21.14 1.72 0 .03 0 .05-.04.05h-3.07a.02.02 0 0 1-.02-.01l-.01-.01v-1.55c0-.05 0-.06-.04-.02A3.93 3.93 0 0 1 28.93 35ZM32 30.22a.03.03 0 0 0-.02-.03h-.01l-2.6.24c-.78.09-1.57.41-1.46 1.38.05.46.32.77.83.93.93.3 2.25.08 2.92-.7.44-.52.34-1 .34-1.82ZM46.37 35h-.72a4.87 4.87 0 0 1-4.57-4.38c-.53-3.75 1.53-6.8 5.26-6.61 2.73.14 4.53 2.24 4.65 5.1v1.2c0 .02-.02.04-.04.04h-7.02c-.04 0-.05.02-.05.06.12 1.06.72 2.08 1.74 2.27 1.08.21 1.9-.17 2.44-1.13a.07.07 0 0 1 .07-.04l2.56.22a.05.05 0 0 1 .04.02l.01.03v.02a4.48 4.48 0 0 1-3.91 3.14l-.46.06Zm-.31-6.54a762.6 762.6 0 0 1 2.17-.02v-.02c-.13-1.2-.98-2.18-2.17-2.18-1.2 0-2.04.97-2.18 2.18a.03.03 0 0 0 .01.03.03.03 0 0 0 .03.01h2.14Z" fill="#1A1725"/></svg>