<!-- by TradingView --><svg width="56" height="56" viewBox="0 0 56 56" xmlns="http://www.w3.org/2000/svg"><path fill="#F0F3FA" d="M0 0h56v56H0z"/><path d="M28 11a17 17 0 0 1 17 17h-3.19A13.81 13.81 0 1 0 28 41.81V45a17 17 0 0 1 0-34Z" fill="#002A60"/><path d="M20.56 30.13v2.12c9.35 0 12.75 8.5 12.75 12.75h2.13c0-10.63-10.1-14.88-14.88-14.88Z" fill="#002A60"/><path d="M20.56 26.94v2.12C32.04 29.06 36.32 39.7 36.5 45h2.13c0-12.75-11.16-18.06-18.07-18.06ZM33.31 18.44H31.2c-1.28 3.4-4.78 6.37-6.38 7.43l2.13.54c2.65-1.6 5.49-5.67 6.37-7.97ZM36.5 19.5h-2.13c-1.27 3.4-4.78 6.38-6.37 7.44L29.06 28c3.72-1.6 6.38-5.84 7.44-8.5Z" fill="#002A60"/></svg>