<!-- by TradingView --><svg width="56" height="56" viewBox="0 0 56 56" xmlns="http://www.w3.org/2000/svg"><path fill="#F0F3FA" d="M0 0h56v56H0z"/><path d="M27 22.03c0 .25.06.71.13.97-1.88-1.46-5.37-3.2-8.57-3.2-1.21 0-2.57.48-3.56 1.06 0-1.6.46-3.34 1.5-4.52a3.95 3.95 0 0 1 2.72-1.14c.25-1.35 2.15-1.8 3.25-1.8.32-.01.84.05 1.16.1a2.7 2.7 0 0 1-.63-1.64c0-.83.3-1.86.3-1.86.89.97 3.2 2.55 4.85 3.69l.93.64a20.8 20.8 0 0 1 3.47 3.1l.03.03c.11.13.42.49.42.75 0 .1-.09.37-.29.25A3 3 0 0 0 31.2 18 4 4 0 0 0 27 22.03Zm5.99-6.48c.29.28.57.6.86.92C34.94 17.7 36.09 19 38 19c-1.3-.79-2.05-2.23-2.79-3.67C34.1 13.17 32.98 11 29.96 11c-.81 0-1.62.23-1.96.88 1.95.9 3.52 2.23 4.99 3.67ZM46 24.3c-1.13-.76-2.78-1.13-4.4-1.5l-.34-.07c-.8-1.36-3.25-1.66-5.55-1.94-.56-.07-1.12-.14-1.64-.22-.2-.04-.42-.15-.63-.26-.2-.1-.4-.2-.58-.23-.3-.06-.59-.08-.86-.08-2.06 0-3 1.64-3 3.1 0 1.37.97 2.64 3.19 2.36.22-.06.35-.22.47-.38.2-.27.41-.54 1.08-.31C35 25.15 35 25.95 35 26.9c0 .73-.15 1.56-.29 2.38-.14.78-.27 1.54-.27 2.18 0 1.53 3.7 4.53 6.34 4.53.85 0 1.62-.3 2.22-1.01 0-.28-.07-.52-.15-.77a2.09 2.09 0 0 1-.1-1.22c-.4 0-.58.22-.77.46-.22.26-.46.54-1.01.54-1.52 0-1.97-1.8-1.97-3.28 0-1.83 1.28-3.72 4.02-3.72.43-.02.55.26.67.54.07.18.14.36.3.46l.6-.62c.72-.72 1.41-1.4 1.41-3.08Zm-7-.39a2.1 2.1 0 0 1-.75.09c-.55 0-1.1-.2-1.25-.6.1-.25.44-.4.81-.4.56 0 1.19.38 1.19.91Zm-6.69 5.28c-.39.29-.92.42-1.78.37-2.56-.1-4.92-.78-7.23-1.43-3.21-.91-6.32-1.8-9.7-1.1 0-3.1 2.03-5.03 4.54-5.03 1.87 0 4.26 1.28 6.6 2.54 1.9 1.01 3.75 2.01 5.29 2.3C31.34 27 32.1 27 33 27c0 .81-.03 1.76-.69 2.2ZM32 31.44c-1.92.25-4.53-.43-7.22-1.14-2.42-.64-4.92-1.3-7.03-1.3-1.28 0-2.42.32-3.33 1.05A3.8 3.8 0 0 0 13 33.03c0 .62.31 2.97 1.03 2.97.35 0 .61-.23.86-.44l.32-.26c2.6-1.62 6.05-2.3 10-2.3h3.26c1.56 0 3.01-.29 3.53-1.56Zm4.06 6.52L35.9 37c-.17.42-.49.83-.8 1.24-.54.68-1.1 1.4-1.1 2.3C34 42 35.9 42 37 42c-.47-1.24-.7-2.64-.94-4.04ZM20 39.48c0-3.3 3.65-3.96 7.24-4.23l.32-.02c2.2-.17 5.14-.4 6.1-2.23.34 1.03.34 1.8.34 2.56 0 1.36-1.2 3.38-1.73 4.28l-.19.32c-.68 1.17-1.2 2.5-1.52 3.84-1.4-1.7-1.5-3.23-.63-4.52-1.55 1.5-3.08 3.01-3.88 4.52-.16-.2-.33-.38-.5-.56-.6-.67-1.15-1.29-1.32-2.16a2.26 2.26 0 0 1 .46-2.02c-1.5.74-2.95 1.5-4.3 2.54a7.7 7.7 0 0 1-.39-2.32Z" fill="#002169"/></svg>