<!-- by TradingView --><svg xmlns="http://www.w3.org/2000/svg" width="56" height="56"><path fill="#F0F3FA" d="M0 0h56v56H0z"/><path fill-rule="evenodd" d="M16.77 18.89c.18-.53.73-1.68 1.65-2.65.3-.32.69-.06.5.27a9.5 9.5 0 00-1.68 2.4c2.4.15 4.6 1.1 6.3 2.61a10.32 10.32 0 00-4.93-2.13c.23.4.63 1.27.88 2.48-.22-.64-.73-1.96-1.11-2.5a10.52 10.52 0 00-1.65-.08c-.66.88-1.25 1.92-1.73 3.07a18 18 0 014.6.75c-1.1-.21-2.85-.42-4.74-.4a20.89 20.89 0 00-1.28 9.2c.57.13 1.16.24 1.77.32-.43 0-1.03-.04-1.76-.15.13 1.61.43 3.13.86 4.53 1.63.37 3.47.47 5.5.11a11.5 11.5 0 01-5.38.25c.3.9.67 1.76 1.08 2.53a10.34 10.34 0 007.9-2.15 10.52 10.52 0 01-7.63 2.63 10.56 10.56 0 01.85-21.1zm-3.8 13.1c.15 1.61.51 3.14 1.03 4.5-1.33-.34-2.5-.87-3.51-1.46a13.1 13.1 0 01-1.07-4c1.27.47 2.5.77 3.54.95zm1.18 4.9c-1.06-.25-2.2-.65-3.38-1.27.63 1.22 1.44 2.3 2.39 3.21.75.31 1.56.54 2.4.66a13.54 13.54 0 01-1.4-2.6zM8.6 30.7c.12 1.31.44 2.56.94 3.7a12.1 12.1 0 01-2.33-2.1c-.23-.8-.37-1.63-.4-2.5.58.34 1.19.64 1.8.9zm1.26 4.4c-.71-.44-1.44-.95-2.18-1.55.99 2.2 2.75 4 4.95 5.04a11.26 11.26 0 01-2.77-3.5zm3.08-3.35a19.8 19.8 0 01.12-4.51 81.3 81.3 0 01-3.46-.22 13.54 13.54 0 00-.22 3.52c1 .44 2.21.87 3.56 1.21zm-4.37-1.58a12.49 12.49 0 01.27-3.21c-.58-.06-1.15-.12-1.68-.2-.22.78-.34 1.59-.36 2.42.4.27 1 .62 1.77.99zm5.94-7.83a11.94 11.94 0 012.07-3.05c-.95.04-1.87.22-2.74.5-.98.79-1.83 1.76-2.52 2.86.92-.19 2-.31 3.2-.31zm-3.87.46c.8-1.17 1.82-2.17 2.98-2.93-1.96.69-3.64 1.95-4.85 3.58.47-.22 1.1-.45 1.87-.65zM8.2 24.3c.62-.4 1.32-.7 2.07-.94-.58.95-1.03 2-1.33 3.13l-1.62-.29c.23-.67.53-1.3.88-1.9zm1.47 2.32l3.38.6c.24-1.63.68-3.15 1.28-4.49-1.11.04-2.25.17-3.32.43a12.82 12.82 0 00-1.34 3.46z" fill="#7CB174"/><path d="M17.03 18.43c-.12-.31-.52-.82-2.38-1.26-2.14-.5-4.6-2.79-4.49-5.17.23.3 1.12.84 2.76 1.02 2.13.23 4.04 1.8 3.83 4.4l.4.75-.12.26zm-5.98-5.27a.1.1 0 00-.14.15c.36.34 1.34 1.1 2.46 1.47.68.22 1.18.46 1.6.76.4.3.73.68 1.05 1.19a.1.1 0 10.17-.11 4.36 4.36 0 00-2.76-2.03 6.93 6.93 0 01-2.38-1.43zM16 32h34v1H16z" fill="#338928"/><path d="M17 25h-1v6h1v-2.53L19.19 31h1.3l-2.52-3 2.52-3h-1.3L17 27.49V25z" fill="#00245E"/><path fill-rule="evenodd" d="M23 30a2 2 0 100-4 2 2 0 000 4zm0 1a3 3 0 100-6 3 3 0 000 6z" fill="#00245E"/><path d="M27 31v-6h1l2.5 4v-4h1v6h-1L28 27v4h-1zm9-6h-3v6h1v-3h2v-1h-2v-1h2v-1z" fill="#00245E"/><path fill-rule="evenodd" d="M39 25h-2v6h1v-2h1.06l1.13 2h1.13l-1.3-2.29A2 2 0 0039 25zm0 1h-1v2h1a1 1 0 100-2z" fill="#00245E"/><path d="M43 25h-1v4a2 2 0 104 0v-4h-1v4a1 1 0 01-2 0v-4zm7 0h-3v1h1v5h1v-5h1v-1z" fill="#00245E"/></svg>