<!-- by TradingView --><svg width="56" height="56" viewBox="0 0 56 56" xmlns="http://www.w3.org/2000/svg"><path fill="#F0F3FA" d="M0 0h56v56H0z"/><path d="M35.41 25.3c-.17-.02-.18.02-.05.13.38.3.67.54.88.73 2.46 2.27 2.12 6.1-.33 8.23a4.87 4.87 0 0 1-4.45.99 4.48 4.48 0 0 1-1.6-.88c-1.99-1.63-2.56-4.2-1.87-6.7a6.53 6.53 0 0 1 5.76-4.88c4.28-.54 7.52 2.16 9.05 6.04.13.33.2.7.2 1.09V42.9c0 .06-.05.09-.11.09H13.15c-.1 0-.15-.05-.15-.15V13.12c0-.03.01-.06.03-.08a.12.12 0 0 1 .09-.04h29.72c.1 0 .16.06.16.17v4.35c0 .06-.02.07-.07.05-.23-.1-.64-.27-1.2-.54A13.96 13.96 0 0 0 38.14 16c-7.6-1.25-15.1 2.95-16.26 11.12-.2 1.3-.2 2.51-.03 3.63 1.17 7.86 9.25 12.29 15.92 7.3a8 8 0 0 0 2.84-5.01c.5-3.61-1.57-7.05-5.2-7.72Z" fill="#216BE6"/></svg>