<!-- by TradingView --><svg width="56" height="56" viewBox="0 0 56 56" xmlns="http://www.w3.org/2000/svg"><path fill="#fff" d="M0 0h56v56H0z"/><path fill-rule="evenodd" d="m30.72 23.79 2.25 2.15L42.62 17H47L35.13 28.02 47 39h-4.33l-9.72-8.92-2.25 2.11L37.62 39h-4.28l-4.82-4.75L26.66 36a10.85 10.85 0 0 1-7.68 3A11.04 11.04 0 0 1 8 27.94C8 21.3 13.41 17.08 18.98 17c2.65-.04 5.45.74 7.75 2.96l1.83 1.75L33.34 17H37.62l-6.9 6.79Zm-4.3.02-1.76-1.69A7.72 7.72 0 0 0 19.02 20c-4.18.06-8.02 3.18-8.02 7.94 0 4.78 3.86 8 8.02 8.06a7.85 7.85 0 0 0 5.58-2.18l1.78-1.67-2.12-2.09-1.83 1.67A4.92 4.92 0 0 1 18.97 33a5 5 0 0 1 0-10c1.16-.02 2.4.32 3.46 1.27l1.83 1.67 2.16-2.13Zm2.14 6.28L26.44 28l2.14-2.11 2.2 2.1-2.22 2.1Zm-8.15-.58L22.07 28l-1.66-1.5c-.4-.36-.86-.5-1.38-.5a2 2 0 1 0 0 4c.52 0 .99-.14 1.38-.5Z" fill="#E50019"/></svg>