<!-- by TradingView --><svg xmlns="http://www.w3.org/2000/svg" width="56" height="56"><path fill="#3F4F82" d="M0 0h56v56H0z"/><path fill-rule="evenodd" d="M11 18l17 28 17-28H11zm6 7l11 18 11-18H17z" fill="#fff"/><path d="M17.38 23v-.12c.2-.05.38-.08.38-.32v-3.11c0-.24-.18-.27-.38-.33V19h1.73v.12c-.2.05-.37.08-.37.33v3.11c0 .23.19.27.37.32V23h-1.73zm2.59 0v-.12c.2-.04.3-.14.13-.31l-1.35-1.62 1.73-1.53c.07-.06.1-.11.11-.16.02-.1-.17-.12-.24-.14V19h1.12v.12c-.15.03-.31.06-.45.14-.07.03-.14.09-.23.16l-1.26 1.14 1.63 1.98c.17.2.34.28.6.34V23h-1.8zM24 23c-1.16 0-2.24-.66-2.24-2 0-1.2 1.06-2 2.23-2 1.09 0 2.22.65 2.22 2 0 1.2-1.05 2-2.22 2zm0-.17c.8 0 1.12-.47 1.12-1.83 0-1.39-.33-1.82-1.13-1.82-.78 0-1.13.43-1.13 1.82 0 1.37.34 1.83 1.13 1.83zm2.47.15v-.12c.22-.05.45-.09.45-.35v-2.96c-.11-.2-.27-.32-.47-.43V19h1.22l2.35 2.79v-2.31c0-.29-.22-.32-.44-.36V19h1.06v.12c-.22.05-.38.1-.38.36V23h-.4l-2.7-3.19v2.69c0 .27.18.3.4.36v.12h-1.09zm5.6.02v-.12c.22-.04.46-.06.47-.32v-1.04l-1.14-2.1c-.12-.18-.25-.24-.45-.3V19h1.88v.12c-.22.06-.38.13-.23.4l.8 1.64.88-1.69c.13-.2.02-.3-.19-.35V19h.93v.12c-.22.05-.35.12-.47.32l-.99 1.86v1.26c0 .26.27.28.47.32V23h-1.96zm2.38 0v-.12c.23-.06.45-.1.55-.34L36.44 19h.58l1.43 3.56c.1.21.25.28.46.33V23h-1.8v-.11c.2-.05.39-.13.3-.37l-.3-.74h-1.58l-.3.73c-.1.26.1.31.3.37V23h-1.08zm1.15-1.4h1.44l-.7-1.9-.74 1.9z" fill="#3F4F82"/><circle cx="19.42" cy="13.36" r=".37" fill="#fff"/><path d="M17.98 14.24a.3.3 0 00.1-.2h.2v.8h-.2a.75.75 0 00-.4-.5 1.37 1.37 0 00-.69-.18c-.83 0-1.24.45-1.23 1.35 0 .36.1.65.27.9.21.27.51.4.9.4.3 0 .56-.04.76-.12.21-.08.38-.2.5-.33l.12.09a.92.92 0 01-.39.33 2 2 0 01-.86.22c.08.08.14.18.15.3.03.42-.62.52-.95.45.15 0 .64-.13.47-.45-.09-.06-.21-.19-.17-.32a1.95 1.95 0 01-1.04-.4 1.33 1.33 0 01-.52-1.07c0-.44.17-.8.51-1.08.35-.29.83-.43 1.44-.43.33 0 .62.05.87.16l.16.08zm.7 2.61h.4v-2.7h-.36V14h1.42v.16h-.4v2.7h.4V17h-1.45v-.15zm2.15 0h-.46V17h1.13v-.15h-.45v-2.63l1.45 2.74h.1l1.37-2.73v2.62h-.45V17h1.63v-.15h-.52v-2.7h.48V14h-1.24l-1.1 2.16L21.64 14h-1.28v.15h.46v2.7zm4.61 0h.5v-2.7h-.5V14h3.18v.83h-.19c0-.1-.02-.2-.03-.28-.06-.32-.4-.39-.68-.4H26.6v1.24h.61c.14 0 .25-.02.32-.05.13-.06.14-.19.15-.3V15h.22v1h-.21v-.08c-.02-.13-.02-.27-.16-.33a.76.76 0 00-.32-.05h-.61v1.31h1.05c.43 0 .7-.15.79-.46l.05-.38V16h.2v1h-3.25v-.15zm4.26 0h-.42V17h1.16v-.15h-.5V14.4l2.24 2.6h.46v-2.85h.45V14H31.9v.15h.47v2.23L30.4 14h-1.11v.15h.42v2.7zm4.62 0h.49v-2.7h-.46c-.27.01-.46.09-.57.23-.08.1-.13.37-.14.62h-.2v-1h3.39v1h-.2c0-.25-.06-.5-.14-.62-.1-.14-.3-.22-.56-.23h-.46v2.7h.5V17h-1.65v-.15zm3-.97a1.44 1.44 0 00.78.9c.14.07.3.13.47.16a2.72 2.72 0 001.14 0c.34-.07.62-.2.83-.4.3-.27.46-.62.46-1.03 0-.42-.15-.76-.46-1.04a2.01 2.01 0 00-1.4-.47c-.4 0-.74.07-1.02.21-.28.14-.5.33-.64.56a1.41 1.41 0 00-.2.73c0 .13 0 .26.04.38zm2.88.16c-.05.15-.11.27-.18.36-.2.3-.5.44-.9.44-.38 0-.68-.15-.88-.44a1.64 1.64 0 01-.26-.91c0-.36.08-.66.25-.9.2-.29.5-.43.9-.43.27 0 .48.06.65.2.18.12.3.29.4.5a2.33 2.33 0 01.12.72c0 .16-.04.31-.1.46z" fill="#fff"/></svg>