<!-- by TradingView --><svg width="56" height="56" viewBox="0 0 56 56" xmlns="http://www.w3.org/2000/svg"><path fill="#F0F3FA" d="M0 0h56v56H0z"/><path d="m22.7 11 .52.02c.35.03.35.05 0 .07l-.47.02-.01.01v.03a.25.25 0 0 1 .22.02H23.05c.04 0 .04.01 0 .03-.09.06-.18-.03-.3.01l-.12.05c-.54.11-1.17.45-1.62.62a22.43 22.43 0 0 0-1.98.81c.42-.26.76-.46 1.03-.6a8.91 8.91 0 0 1 2.67-.92v-.02h-.13a15.05 15.05 0 0 0-2.29.53 6.55 6.55 0 0 1 1.31-.5c.24-.04.46-.13.71-.15.09 0 .17-.02.25-.03h.11Z" fill="#EFD993"/><path d="M22.87 11.24v.03c-.45.2-.86.4-1.23.65-.31.2-.6.37-.87.52a73.92 73.92 0 0 0-2.07 1.16c.45-.39.82-.7 1.12-.9.12-.08.37-.25.77-.49.25-.15.52-.28.8-.4l1.48-.57ZM16.84 14.02a10.57 10.57 0 0 1 1.75-1.38c.25-.17.5-.31.73-.41a13.96 13.96 0 0 1 1.34-.5v.01c-.65.28-1.18.55-1.59.82-.65.44-1.13.74-1.41.9a4.74 4.74 0 0 0-.82.56Z" fill="#EFD993"/><path d="M22.33 13.35c.17-.24.33-.48.48-.73a.4.4 0 0 0 .07-.2c.02-.46.14-.78.41-1.11v-.02h-.02c-.43.45-.87.89-1.32 1.32-.13.13-.18.29-.24.45l-.03.07c-.14.4-.2.82-.15 1.26 0 .02.01.03.03 0l.77-1.04ZM23.22 11.18a36.38 36.38 0 0 0-2.16 1.28 5.75 5.75 0 0 0-1.44 1.76c-.03.05-.02.06.02.02l1.28-1.07.6-.5c.15-.12.3-.27.47-.47a4.96 4.96 0 0 1 1.23-1.02ZM23.4 16.1l-.57 1.08a5.96 5.96 0 0 1-1.1-1.83l.01-.06.94-1.49.3-.56H23a.02.02 0 0 1 .02 0 4.45 4.45 0 0 0 .96 1.53l-.59 1.33ZM17.14 14.03c-.4.37-.71.65-.9.86-.26.28-.56.65-.91 1.1-.13.16-.28.32-.46.5a8.98 8.98 0 0 0-1.1 1.21 15.2 15.2 0 0 1 1.9-2.5 9.3 9.3 0 0 1 1.46-1.19l.02.01v.01Z" fill="#DAC27A"/><path d="M17.3 14.55a14 14 0 0 1 .19-.13c.22-.14.43-.29.62-.47a10.34 10.34 0 0 1 1.96-1.54h-.02c-1.05.48-1.76.86-2.16 1.1a11.18 11.18 0 0 0-2.14 2.18l1.55-1.14Z" fill="#C5A968"/><path d="m19.52 13.79.72-.8c.04-.04.03-.04-.01-.01l-1.85 1.22c-.15.09-.29.18-.43.29-.12.1-.24.22-.35.37l-.48.7-.32.6-.3.73c-.01.03 0 .03.01.01l.78-.66 1.02-.9.43-.34a1 1 0 0 0 .22-.3c.17-.31.35-.62.56-.91Z" fill="#D0BB84"/><path d="m21.07 13.99.2-.69c.01-.02 0-.03-.01-.01l-.84.8-1.22 1.15a.1.1 0 0 0-.03.05l-.04.2-.14.82.06 1.12a.01.01 0 0 0 .01.01h.01l.75-.88 1.19-1.45a.13.13 0 0 0 .03-.1c-.04-.33-.02-.68.03-1.02Z" fill="url(#a)"/><path d="m21.15 19.98-.59.89h-.02a8.6 8.6 0 0 1-1.2-2.3c-.02-.01-.01-.03 0-.05l1.47-1.93.42-.56c.02-.02.03-.02.04 0 .25.72.61 1.36 1.09 1.94v.06l-1.21 1.95Z" fill="#99804B"/><path d="M18.38 16.65c-.04.49-.03.98.04 1.47.01.06 0 .11-.05.16a218.22 218.22 0 0 0-2.17 2.5 7.32 7.32 0 0 1 0-2.67l1.2-1.16 1.07-1.01c.03-.04.05-.03.04.02l-.13.69Z" fill="url(#b)"/><path d="m26.78 17.74.2-.68c.01-.02 0-.04-.02-.05a14.86 14.86 0 0 1-2.2-1.52l-.01.01-.54 1.38-.56 1.21.01.06c.7.68 1.45 1.3 2.25 1.85.02 0 .03 0 .04-.02.32-.72.6-1.46.83-2.24Z" fill="#DAC27A"/><path d="M17 15.26a8.93 8.93 0 0 0-1.14 2.14c-.04.1-.1.2-.17.27l-.78.75-.69.7-.48.52c-.02.02-.02.02-.01 0a9.8 9.8 0 0 1 1-2.38v-.03c.07-.14.13-.27.25-.38.65-.58 1.31-1.12 1.98-1.63.1-.08.12-.07.04.04Z" fill="#9F895D"/><path d="M13.04 20.51a10.99 10.99 0 0 0-1.18 1.79c.24-1.05.59-2.06 1.06-3.02.13-.27.32-.55.58-.85.25-.33.52-.64.8-.92.04-.04.04-.04.01.02a11.06 11.06 0 0 0-1.09 2.66.87.87 0 0 1-.18.32Z" fill="#EFD993"/><path d="M23.23 18.98a15.96 15.96 0 0 0 2.3 1.98 63.15 63.15 0 0 1-1.73 3.28 19.8 19.8 0 0 1-2.36-2.23c-.02-.02-.02-.04 0-.06.6-1 1.17-1.9 1.74-2.96l.01-.02h.01a.03.03 0 0 1 .03 0Z" fill="#B1945A"/><path d="m15.19 22-.51.63-.54.68-.6.8-.01.01-.02-.02a9.43 9.43 0 0 1-.05-3.06l.89-1.02.57-.6.43-.45c.03-.06.07-.1.13-.12.02 0 .03 0 .02.03a7.88 7.88 0 0 0 .05 2.68.13.13 0 0 1-.02.04l-.34.4Z" fill="url(#c)"/><path d="m28.3 17.76.84.43 2.2 1.04c.02 0 .03.03.02.05l-.22.91c-.2.83-.46 1.65-.75 2.45-.01.02-.03.03-.04.02l-2.03-1.12-1.04-.63c-.02 0-.03-.03-.02-.05l.77-2.23.23-.86.02-.01a.02.02 0 0 1 .02 0Z" fill="url(#d)"/><path d="m35.85 23.5-.45 1.58c0 .03-.03.04-.06.02l-3.36-1.6c-.02 0-.03-.03-.02-.05l.58-1.92.4-1.6v-.01l.01-.01 3.29 1.4c.02.02.03.03.03.06-.1.71-.25 1.42-.42 2.12Z" fill="url(#e)"/><path d="M12.73 25.32a15.18 15.18 0 0 0-1.04 1.93 12.28 12.28 0 0 1-.12-3.1c.01-.15.05-.28.1-.4.28-.59.62-1.14 1-1.67l.21-.3h.01a.02.02 0 0 1 .03 0v.02a10.03 10.03 0 0 0 .08 3.08l-.27.44Z" fill="#EFD993"/><path d="m37.79 22.03.55.26 1.56.82.72.4.03.06c-.1 1.04-.28 2.06-.51 3.07l-.21.83v.01l-.01.01a.03.03 0 0 1-.02 0h-.01l-2.02-1.15-.9-.46a.05.05 0 0 1-.02-.04v-.03c.37-1.23.64-2.49.82-3.77v-.01h.01Z" fill="url(#f)"/><path d="m18.73 19.37.46 1.11.76 1.25v.06l-1.02 1.48-1.05 1.51a.02.02 0 0 1-.02 0 12.1 12.1 0 0 1-.79-1.36l-.4-.94-.14-.37.01-.06 2.14-2.69c.02-.02.04-.02.05.01Z" fill="url(#g)"/><path d="m27.6 22.33-.75-.47h-.01a.02.02 0 0 0-.01 0l-.95 1.99-.72 1.4c0 .02 0 .04.02.05l1.2.84 1.12.72.8.49c.01 0 .03 0 .04-.02l.44-.91 1.19-2.69v-.03l-.02-.01-1.08-.6-1.27-.76Z" fill="url(#h)"/><path d="M11 27.64v-.8c.03-.41.04-.88.1-1.24.06-.31.13-.63.22-.95a18.2 18.2 0 0 0-.03 1.63c0 .25.06.76.16 1.52.01.11 0 .23-.02.34a5.36 5.36 0 0 0-.23 1.75c-.13-.74-.15-1.5-.2-2.25Z" fill="#EFD993"/><path d="m15.9 22.92.47 1.14.51.97.38.62v.04l-.79 1.17-1.12 1.75h-.02c-.6-.94-1.08-1.94-1.43-3l.01-.06.5-.68 1.46-1.96h.03Z" fill="url(#i)"/><path d="m41.8 24.33-.2 1.7-.35 1.58-.16.66v.02l.02.02.86.67 1 .94.03-.01a19.44 19.44 0 0 0 .72-3.91l-.26-.29a6.3 6.3 0 0 0-.92-.87l-.35-.26-.35-.26c-.02-.02-.03-.01-.03 0Z" fill="url(#j)"/><path d="m20.36 27.77-.38-.39-1.18-1.32-.01-.02v-.02l1.17-1.78.86-1.3c.02-.04.05-.05.08-.01a18.06 18.06 0 0 0 2.36 2.3v.01l-.7 1.2-1.29 2.15h-.02l-.89-.82Z" fill="url(#k)"/><path d="M44.2 32.28v.02h-.02l-.01.01h-.01l-.01-.02c-.04-.27-.1-.54-.17-.8-.04-.12-.17-.39-.4-.77a16.14 16.14 0 0 0 .79-3.81c.3.47.51.98.6 1.53.04.17.04.36 0 .58a19.25 19.25 0 0 1-.77 3.26ZM14.26 30.6l-.68 1.53a.02.02 0 0 1-.02 0 .02.02 0 0 1-.02 0 13.88 13.88 0 0 1-1.38-2.97l-.09-.25a.1.1 0 0 1 0-.08l.58-1.22.71-1.23h.04a13.3 13.3 0 0 0 1.44 3.04c.01.02.02.05 0 .07l-.58 1.11Z" fill="#EFD993"/><path d="m25.87 32.02 1.21-2.25.69-1.3c.01-.03 0-.05-.02-.07a39.65 39.65 0 0 1-3.1-2.1c-.03 0-.04 0-.06.02l-.13.21-.98 1.73-.83 1.46.01.05c.85.68 1.73 1.31 2.62 1.9l.54.36c.02.02.04.01.05 0Zm-1.41-5.49.26.33.03.04-.1-.13-.2-.24Z" fill="url(#l)"/><path d="m34.98 26.27-.21.57-.81 1.96-.61 1.35c-.01.03-.03.04-.06.02l-1.41-.77-1.95-1.1-.02-.02v-.03l.21-.44c.5-1.06.98-2.14 1.42-3.24.01-.02.03-.03.05-.02l3.38 1.67c.01.01.02.03.01.05Z" fill="url(#m)"/><path d="m40.75 29.44 1.02.78a10.74 10.74 0 0 1 .84.83 30.62 30.62 0 0 1-1.66 3.62h-.01a9.14 9.14 0 0 0-.96-.78l-.87-.58c-.02-.02-.02-.03-.01-.06l.56-1.2a26.56 26.56 0 0 0 1.09-2.6ZM11.81 29.63v-.03h.02a.02.02 0 0 1 .02.01c.18.54.42 1.24.66 1.75.24.52.5 1.02.8 1.5.01.02.02.06.01.09l-.13.6a5 5 0 0 0-.1 1.62c-.29-.52-.53-.97-.72-1.36-.24-.49-.44-1.13-.63-1.61a2.19 2.19 0 0 1-.14-.66 5.48 5.48 0 0 1 .21-1.91Z" fill="#EFD993"/><path d="m18.2 26.95.62.7.34.4.5.53 1.02.97c.02 0 .02.02.01.03l-.88 1.54-.27.47-.26.47-.38.7c-.01.02-.02.02-.04.01a20.1 20.1 0 0 1-2.53-2.72.07.07 0 0 1 0-.08l.17-.31.72-1.2.96-1.5v-.01h.02Z" fill="url(#n)"/><path d="m37.6 27.54-1-.52c-.02 0-.03 0-.04.02l-.92 2.28-.75 1.67a.04.04 0 0 0 0 .03.04.04 0 0 0 .02.02l.86.45.9.48 1.18.63c.03.01.05 0 .06-.02.39-.75.74-1.52 1.05-2.3l.59-1.55-.01-.06a.28.28 0 0 0-.1-.07l-1.84-1.06Z" fill="url(#o)"/><path d="M14.58 33.6c.34-.95.76-1.86 1.24-2.73 0-.02.02-.02.04 0 .4.5.8.98 1.2 1.43.12.14.57.6 1.36 1.36v.05a30.21 30.21 0 0 0-1.2 2.77 19.12 19.12 0 0 1-2.64-2.88ZM41.54 35.26a24.83 24.83 0 0 0 1.67-3.48c.29.43.47.9.55 1.42.01.1 0 .19-.03.27a21.05 21.05 0 0 1-1.63 3.1c-.03.05-.05.05-.06-.02a2.32 2.32 0 0 0-.5-1.2.07.07 0 0 1 0-.09Z" fill="#EFD993"/><path d="m36.7 33.37-2.34-1.22h-.04L32.8 34.9l-.46.8c-.02.02-.01.04.02.05l2.8 1.4h.02l.02-.02a57.7 57.7 0 0 0 2.1-3.46l-.6-.3Z" fill="url(#p)"/><path d="m32.78 31.32-.65 1.28-.5.91-.8 1.44h-.03l-1.9-1.03-1-.58-.43-.26a.02.02 0 0 1-.01-.02l1.9-3.66h.01l3.4 1.9a.02.02 0 0 1 .01.02Z" fill="url(#q)"/><path d="m23.46 31.8-1.36-1.04a.03.03 0 0 0-.04 0l-.49.86-.27.5-.34.62-.37.7-.28.55v.05l.07.05c1 .81 2.05 1.56 3.14 2.23.02.01.03 0 .05-.01l1.07-1.98.46-.86.2-.37a.03.03 0 0 0 0-.01.03.03 0 0 0 0-.02l-.68-.46-1.16-.8Z" fill="url(#r)"/><path d="m37.43 38.29-1.05-.56c-.03-.02-.04-.04-.02-.07.8-1.14 1.51-2.24 2.13-3.3.01-.02.03-.02.05-.01.68.4 1.3.82 1.83 1.28.02.01.02.03.01.05a37.8 37.8 0 0 1-2.12 3.07c-.02.02-.03.02-.05 0-.23-.13-.53-.33-.78-.46ZM17 37.2a.06.06 0 0 1 .02.05c-.2.68-.3 1.36-.3 2.03 0 .03 0 .03-.03.02a15.48 15.48 0 0 1-2.58-2.67 5.76 5.76 0 0 1 .25-2.23l.68.8c.61.74 1.24 1.35 1.96 2ZM23.1 37.22a31.86 31.86 0 0 0-1.22 2.54h-.01l-1.43-.85a34.9 34.9 0 0 1-1.76-1.24c-.02-.01-.02-.03-.02-.05a30.84 30.84 0 0 1 1.2-2.7c.8.63 1.63 1.23 2.48 1.8.2.12.51.3.75.47.01 0 .02.02 0 .03ZM28.66 35.1l-1.73-.99c-.02 0-.03 0-.05.02l-.55.98-1.2 2.15a.02.02 0 0 0 0 .02 44.84 44.84 0 0 0 3.3 1.66l1.82-2.98-.01-.03-1.58-.83ZM41.45 37.54a23.8 23.8 0 0 1-2.17 2.61l-.01-.01v-.02c-.02-.35-.2-.57-.44-.86-.02-.02-.02-.03 0-.05a34.5 34.5 0 0 0 2.1-2.92c.02-.03.04-.03.05 0 .16.21.26.38.32.52.1.2.16.43.17.67 0 .02 0 .04-.02.06ZM31.78 36.7 34.55 38l.02.02v.02a.05.05 0 0 1 0 .04l-1.93 2.64-.02.02h-.03l-2.69-1.11a.05.05 0 0 1-.02-.03.05.05 0 0 1 0-.04l1.84-2.86a.05.05 0 0 1 .06-.02ZM14.27 37.28a14.92 14.92 0 0 0 2.54 2.58l.2.57c.08.21.26.47.53.76v.02l-.04-.02c-.57-.5-1.16-.98-1.67-1.56-.63-.7-1.33-1.39-1.6-2.34 0-.04 0-.04.04 0ZM23.45 40.57c.38-.86.78-1.67 1.2-2.44.02-.02.03-.03.05-.02a49.03 49.03 0 0 0 3.22 1.59c.03 0 .04.03.02.05a32.67 32.67 0 0 0-1.28 2.22h-.03a40.1 40.1 0 0 1-3.18-1.4ZM18.47 38.35a25.3 25.3 0 0 0 3.18 2.05v.04a5.27 5.27 0 0 0-.35 1.77 23.34 23.34 0 0 1-3.14-1.82.06.06 0 0 1-.03-.05 5.83 5.83 0 0 1 .33-2v.01ZM35.76 38.56l1.81.97a.03.03 0 0 1 .01.02.03.03 0 0 1 0 .02c-.73.86-1.43 1.63-2.11 2.32a.05.05 0 0 1-.06 0l-1.67-.71c-.02 0-.02-.02-.01-.03l2-2.58h.03ZM36.37 42.64c-.04-.25-.21-.3-.37-.43-.02-.02-.02-.04 0-.06.77-.7 1.48-1.4 2.13-2.14h.04c.25.25.42.44.44.79 0 .02 0 .04-.02.05a17.76 17.76 0 0 1-2.22 1.8ZM32.11 41.44l-1.39 1.8a.05.05 0 0 1-.05.01 45.73 45.73 0 0 1-2.6-.78v-.01l1.28-2.09c.01-.02.03-.03.06-.02l2.7 1.07v.02ZM21.94 43.66l.05.04c.02.02.02.02 0 .01-.9-.34-1.78-.77-2.64-1.27-.3-.18-.52-.34-.65-.5-.25-.3-.41-.64-.5-1 0-.05 0-.06.05-.04.52.34.84.53.93.6.65.41 1.44.8 2.16 1.14a.08.08 0 0 1 .04.06c.1.37.25.73.56.96ZM26.4 42.54c-.22.44-.36.9-.44 1.37 0 .02-.02.03-.04.02a27.43 27.43 0 0 1-3.06-1.03c-.02 0-.03-.02-.03-.04a5 5 0 0 1 .36-1.64c0-.03.03-.03.05-.02l1.65.72c.27.11.76.3 1.5.57.01.01.02.02 0 .05ZM33.22 41.79l1.63.64.02.01v.02a.04.04 0 0 1 0 .04l-1.52 1.34a.04.04 0 0 1-.03 0l-1.55-.3h-.02a.04.04 0 0 1 0-.04v-.02l1.43-1.68.02-.02h.02ZM35.54 42.76l.18.16c.09.07.08.13-.02.2-.5.28-1.03.54-1.6.76a.48.48 0 0 1-.29.02c-.02 0-.03-.01 0-.03.57-.36 1.07-.73 1.5-1.1.07-.08.15-.08.23 0ZM29.83 44.62c-.83-.06-1.65-.18-2.47-.35-.03 0-.04-.02-.03-.04.08-.4.22-.8.44-1.2l.06-.03 2.56.69v.02c-.19.28-.38.56-.54.9v.01h-.02ZM26.41 44.87c-.96-.13-1.84-.32-2.66-.55a1.08 1.08 0 0 1-.42-.22c-.23-.2-.39-.46-.45-.77-.01-.04 0-.05.03-.03a23.7 23.7 0 0 0 3.08.96l.02.04c.06.26.21.45.45.56.02.01.02.02 0 .01h-.05Z" fill="#EFD993"/><path d="M32.93 44.1c.02 0 .02 0 0 .01-.2.16-.4.3-.66.37a4.8 4.8 0 0 1-1.42.18c-.04 0-.05-.02-.03-.05l.55-.69a.07.07 0 0 1 .06-.02l1.5.2ZM29.14 45h-1.3a1.37 1.37 0 0 1-.32-.14.38.38 0 0 1-.17-.3c0-.03 0-.04.03-.03a16.33 16.33 0 0 0 2.46.27c.02.04.05.07.09.1v.01l-.8.09Z" fill="#DAC27A"/><defs><linearGradient id="a" x1="20.14" y1="14.22" x2="18.92" y2="17.42" gradientUnits="userSpaceOnUse"><stop stop-color="#C5AC74"/><stop offset=".97" stop-color="#7C6641"/></linearGradient><linearGradient id="b" x1="17.73" y1="17.22" x2="16.67" y2="20.29" gradientUnits="userSpaceOnUse"><stop stop-color="#786640"/><stop offset="1" stop-color="#5F4E34"/></linearGradient><linearGradient id="c" x1="15.56" y1="20.48" x2="13.26" y2="22.89" gradientUnits="userSpaceOnUse"><stop stop-color="#7A6344"/><stop offset="1" stop-color="#B9A36F"/></linearGradient><linearGradient id="d" x1="28.51" y1="17.75" x2="30.52" y2="22.61" gradientUnits="userSpaceOnUse"><stop stop-color="#CFB771"/><stop offset=".47" stop-color="#C3A766"/><stop offset="1" stop-color="#E5CB7F"/></linearGradient><linearGradient id="e" x1="33.11" y1="19.91" x2="34.18" y2="23.9" gradientUnits="userSpaceOnUse"><stop stop-color="#DDC57C"/><stop offset="1" stop-color="#F2DF92"/></linearGradient><linearGradient id="f" x1="36.95" y1="23.3" x2="39.75" y2="25.84" gradientUnits="userSpaceOnUse"><stop stop-color="#C0A76B"/><stop offset="1" stop-color="#A58B58"/></linearGradient><linearGradient id="g" x1="18.24" y1="19.35" x2="18.24" y2="24.79" gradientUnits="userSpaceOnUse"><stop stop-color="#6A5737"/><stop offset="1" stop-color="#B4975D"/></linearGradient><linearGradient id="h" x1="25.63" y1="24.6" x2="29.97" y2="24.6" gradientUnits="userSpaceOnUse"><stop stop-color="#B8985C"/><stop offset="1" stop-color="#EFD686"/></linearGradient><linearGradient id="i" x1="17.27" y1="25.76" x2="14.77" y2="25.76" gradientUnits="userSpaceOnUse"><stop stop-color="#C5AC6C"/><stop offset="1" stop-color="#AB915E"/></linearGradient><linearGradient id="j" x1="41.09" y1="24.88" x2="42.49" y2="27.07" gradientUnits="userSpaceOnUse"><stop stop-color="#B7A06D"/><stop offset="1" stop-color="#E7D499"/></linearGradient><linearGradient id="k" x1="22.38" y1="25.75" x2="18.79" y2="25.75" gradientUnits="userSpaceOnUse"><stop stop-color="#967F49"/><stop offset="1" stop-color="#B79B5F"/></linearGradient><linearGradient id="l" x1="27.78" y1="28.35" x2="23.17" y2="29.66" gradientUnits="userSpaceOnUse"><stop stop-color="#AE9054"/><stop offset="1" stop-color="#876C3F"/></linearGradient><linearGradient id="m" x1="32.45" y1="24.55" x2="33.59" y2="30.17" gradientUnits="userSpaceOnUse"><stop stop-color="#F5E597"/><stop offset="1" stop-color="#C5A967"/></linearGradient><linearGradient id="n" x1="20.39" y1="29.86" x2="16.83" y2="29.86" gradientUnits="userSpaceOnUse"><stop stop-color="#7F683F"/><stop offset="1" stop-color="#B79D62"/></linearGradient><linearGradient id="o" x1="36.4" y1="27.02" x2="37.92" y2="32.58" gradientUnits="userSpaceOnUse"><stop stop-color="#C7AE6C"/><stop offset=".49" stop-color="#B3975D"/><stop offset="1" stop-color="#DCC57F"/></linearGradient><linearGradient id="p" x1="34.82" y1="32.14" x2="36.06" y2="37.12" gradientUnits="userSpaceOnUse"><stop stop-color="#CAB26C"/><stop offset="1" stop-color="#F0D993"/></linearGradient><linearGradient id="q" x1="29.42" y1="29.39" x2="30.83" y2="34.94" gradientUnits="userSpaceOnUse"><stop stop-color="#C2A361"/><stop offset=".5" stop-color="#AC8F57"/><stop offset="1" stop-color="#D6BE75"/></linearGradient><linearGradient id="r" x1="22.2" y1="31.62" x2="22.85" y2="35.79" gradientUnits="userSpaceOnUse"><stop stop-color="#93784A"/><stop offset=".57" stop-color="#CCB16D"/><stop offset=".83" stop-color="#EBD48A"/></linearGradient></defs></svg>