<!-- by TradingView --><svg width="56" height="56" viewBox="0 0 56 56" xmlns="http://www.w3.org/2000/svg"><path fill="#F0F3FA" d="M0 0h56v56H0z"/><path d="M51 25.56V33h-2.41v-7.77c0-.15-.11-.23-.22-.23h-3.7c-.13 0-.22.11-.22.23V33H42v-7.44c0-1.38 1.07-2.56 2.41-2.56h4.2c1.31 0 2.39 1.18 2.39 2.56Zm-9.76 2.47c0 1.18-.94 2.16-2.07 2.16-.3 0-.56-.06-.8-.17.1.26.16.54.16.82 0 1.18-.92 2.16-2.05 2.16h-.02a2.14 2.14 0 0 1-2.07-2.16c0-.28.05-.56.13-.82-.24.11-.48.17-.78.17-.75 0-1.43-.42-1.77-1.07a2.25 2.25 0 0 1 0-2.22 2.05 2.05 0 0 1 1.77-1.03c.27 0 .54.05.78.16-.1-.25-.16-.53-.16-.84 0-1.18.94-2.16 2.07-2.16h.03c1.12 0 2.04.98 2.04 2.16 0 .31-.06.6-.16.84a2.1 2.1 0 0 1 2.9 2ZM37.1 28c0-.3.05-.59.16-.84a1.9 1.9 0 0 1-.8.17h-.03c-.27 0-.54-.06-.78-.17a2.23 2.23 0 0 1 0 1.65c.24-.1.51-.16.78-.16h.03c.26 0 .53.05.77.16-.08-.22-.13-.5-.13-.81ZM32 25v-2h-8.5v2h3.09v8H29v-8h3ZM5 33h2.47V23H5v10Zm5.51-4.94L15.67 23h-3.46l-3.45 3.65c-.18.17-.35.31-.5.54-.2.25-.3.53-.33.78-.03.34.05.68.24.99.16.28.33.42.57.61L12.18 33h3.68l-5.35-4.94Zm12.99-.99c.13.28.18.6.18.93a2.06 2.06 0 0 1-2.88 2 2.12 2.12 0 0 1-1.9 2.98h-.03a2.14 2.14 0 0 1-1.9-2.99c-.25.12-.52.17-.79.17-.45 0-.88-.17-1.2-.42A2.23 2.23 0 0 1 14.1 28c0-.7.35-1.35.86-1.74.35-.25.78-.42 1.21-.42.27 0 .54.05.78.17-.1-.26-.16-.57-.16-.85 0-1.18.94-2.16 2.07-2.16h.03c1.13 0 2.07.98 2.07 2.16 0 .31-.05.6-.16.85a2.05 2.05 0 0 1 2.69 1.07Zm-3.93.93c0-.3.06-.59.16-.84a1.9 1.9 0 0 1-.8.17h-.03c-.27 0-.54-.06-.78-.17a2.23 2.23 0 0 1 0 1.65c.24-.1.48-.16.78-.16h.03c.27 0 .53.05.78.16-.08-.25-.14-.5-.14-.81Z" fill="#231F20"/></svg>