<!-- by TradingView --><svg xmlns="http://www.w3.org/2000/svg" width="56" height="56"><path fill="#F0F3FA" d="M0 0h56v56H0z"/><path d="M9.1 36H8l4.56-5.83.9.4L9.11 36zm37.8 0H48l-4.56-5.87-.9.41L46.89 36z" fill="#D3BD2A"/><path d="M28 36H9.09l4.34-5.43L28 36zm0 0h18.93l-4.38-5.46L28 36z" fill="#007135"/><path d="M21.03 25H8.16l1.61 1H21.7l-.66-1zm13.94 0h13l-1.7 1H34.35l.62-1z" fill="#D3BD2A"/><path d="M28 36L9.77 26h11.92L28 36zm.02 0l18.25-10H34.35l-6.33 10z" fill="#007135"/><path d="M28.29 16l-4.98 6.14.33.97 4.64-5.48 4.38 5.49.3-.98L28.28 16z" fill="#D3BD2A"/><path d="M28.02 35.92l-4.38-12.81 4.65-5.5 4.38 5.5-4.65 12.81z" fill="#008A43"/></svg>