<!-- by TradingView --><svg xmlns="http://www.w3.org/2000/svg" width="56" height="56"><path fill="#F0F3FA" d="M0 0h56v56H0z"/><path d="M40 24h5.1c1.6 0 2.9 1.25 2.9 2.78V34h-3v-6.13c0-.51-.47-.87-1-.87s-1 .36-1 .87v6.1h-2.97V24H40zM18 34v-5.52L20.87 34H24l-3.35-7.01L23.91 20h-3.13L18 25.58V20h-3v14h3z"/><path d="M15 20H9v14h6V20z" fill="#1455F7"/><path d="M28 28.02V34h-3v-7.23c0-1.53 1.3-2.77 2.88-2.77H30v3h-1c-.53 0-1 .45-1 1.02zm10.73-1.73a3.16 3.16 0 00-.82-1.27 4.07 4.07 0 00-2.9-1.02c-.6 0-1.14.09-1.62.25-.52.17-.94.43-1.3.77a3.16 3.16 0 00-.82 1.27 4.59 4.59 0 00-.27 1.64v2.14c0 .62.09 1.16.27 1.64.18.51.45.93.82 1.27.36.34.78.6 1.3.77.48.17 1.02.25 1.62.25 1.21 0 2.18-.34 2.9-1.02a3.16 3.16 0 00.82-1.27c.18-.48.27-1.02.27-1.64v-2.14c0-.6-.09-1.16-.27-1.64zM36 29v1.07c0 .51-.44.93-.98.93-.55 0-1.02-.42-1.02-.93v-2.14c0-.51.47-.93 1.01-.93.55 0 .99.42.99.93V29z"/></svg>