<!-- by TradingView --><svg width="56" height="56" viewBox="0 0 56 56" xmlns="http://www.w3.org/2000/svg"><path fill="#F0F3FA" d="M0 0h56v56H0z"/><path fill-rule="evenodd" d="M5 35.97V22s3.56.5 7 .5c10.66 0 17.52-1.59 23.09-2.88C38.89 18.74 42.1 18 45.5 18c1.56 0 3.31.06 4.5.56V34h-3.81c-2.2 0-5.35.63-9.14 1.39C31.3 36.54 24.02 38 16.25 38 9.87 38 5 35.97 5 35.97ZM48 22l-4.5.03V24c.38-.5 1.05-1 1.5-1v5.77c0 .51-.4 1.23-.4 1.23h2.28s-.34-.75-.34-1.23V23c.43 0 1.24.6 1.46 1v-2Zm-5 1.82v-1.25s-.7-.35-1.43-.11c-1.02.33-1.57 1.27-1.57 2.37 0 1.03.68 1.71 1.25 2.28.4.4.75.76.75 1.13 0 .42-.31.76-.84.76-.74 0-1.16-.65-1.16-.65l.32 1.67s.6.26 1.34.17c1.36-.17 1.84-1.18 1.84-2.46 0-1.34-.64-1.96-1.17-2.47-.36-.35-.67-.64-.67-1.08 0-.42.3-.73.72-.73.56 0 .62.37.62.37Zm-25 9.39c0 .39-.46.79-.46.79l2.1-.13s-.14-.31-.14-.66V31s.27.99.58 1.88c.22.6.48.91.9.86.66-.07 1.2-.28 1.2-.28s-.25-.26-.38-.58l-1.08-2.55s.97-.64.97-2.17c0-.8-.5-1.8-1.6-1.68-1.14.13-2.42.34-2.42.34s.33.43.33.79v5.59Zm1.5-2.9v-2.78h.04c.37 0 .84.27.84.95 0 1.11-.88 1.83-.88 1.83Zm8.5 1.26c0 .44-.4 1.04-.4 1.04l2.05-.4s-.15-.41-.15-.98v-2.07s2.25-.44 2.25-2.79c0-.8-.81-1.73-2-1.52-1.45.27-2.14.47-2.14.47s.39.45.39.81v5.44Zm1.5-2.4v-3.3s.75.03.75 1.26-.75 2.03-.75 2.03Zm5.9 1.13c-.09.4-.4.95-.4.95l1.62-.3s-.36-.4-.32-.65c.13-.8.32-1.56.32-1.56l1.4-.28s.14.74.23 1.42c.05.38-.35.9-.35.9l2.34-.36s-.3-.4-.54-1.05c-.24-.64-1.45-6.06-1.45-6.06l-1.84.36s.36.3.32.54c-.4 2.25-.7 3.45-1.18 5.5l-.14.6Zm2.31-2.83-.4-1.95-.47 2.12.87-.17Zm-5.81-3.06c.37-.08 1.32-.31 1.84-.41 0 0-.24.45-.24 1.14v5.16s-.03.2.58.1c.6-.1.92-.71.92-.71l-.28 1.64-2.97.67s.25-.74.25-1.21v-5.47c0-.36-.25-.87-.25-.87l.15-.04ZM8 33.31c0 .25-.3.69-.3.69h2s-.2-.67-.2-1.04V30.5s.85 2.14 1.13 2.72c.28.59.88.78 1.45.78H13s-.48-.4-.6-.68c-.69-1.63-1.54-3.73-1.54-3.73L12.89 26h-2.31c.23.3.3.6.12 1.08l-1.2 2.1v-2.3c0-.4.29-.88.29-.88H7.7s.14.2.2.38c.05.2.1.66.1.83v6.1Zm9.5-3.11c0 1.95-1.05 3.9-2.94 3.8-1.46-.08-2.56-1.63-2.56-3.54 0-1.7 1.02-3.8 2.95-3.8 1.47 0 2.55 1.62 2.55 3.54Zm-1.5.1c0 1.42-.53 2.64-1.2 2.65-.8.01-1.3-1.2-1.3-2.61 0-1.5.45-2.63 1.21-2.63.67 0 1.29 1.08 1.29 2.6Zm8.17 2.68.31.02c1.94 0 3.02-2.17 3.02-4.06 0-1.9-.87-3.22-2.17-3.42-1.49-.22-2.95 1.26-3.27 3.32-.04.28-.06.55-.06.82 0 1.7.89 3.12 2.17 3.32Zm.31-.98c.66 0 1.37-1.19 1.5-2.64l.02-.52c0-1.22-.34-2.22-1.02-2.22-1.07 0-1.5 2.1-1.48 3.04 0 1.48.33 2.34.98 2.34Z" fill="url(#a5endm5de)"/><path d="M5 35.1v.96S7.56 38 14.84 38c8.38 0 14.16-1 20.28-2.25 0 0-11.18 1.25-20.53 1.25C7.38 37 5 35.1 5 35.1Z" fill="url(#b5endm5de)"/><defs><linearGradient id="a5endm5de" x1="-.75" y1="41.5" x2="51.51" y2="26.52" gradientUnits="userSpaceOnUse"><stop offset=".26" stop-color="#DB1117"/><stop offset=".74" stop-color="#A11B1F"/></linearGradient><linearGradient id="b5endm5de" x1="5.56" y1="37.13" x2="20.31" y2="38" gradientUnits="userSpaceOnUse"><stop stop-color="#891811"/><stop offset="1" stop-color="#921C15"/></linearGradient></defs></svg>