<!-- by TradingView --><svg xmlns="http://www.w3.org/2000/svg" width="56" height="56" viewBox="0 0 56 56"><path fill="#ED1C24" d="M0 0h56v56H0z"/><path d="M22.25 13.5a1.25 1.25 0 1 0 0-2.5 1.25 1.25 0 0 0 0 2.5zM27 15.25a1.25 1.25 0 1 1-2.5 0 1.25 1.25 0 0 1 2.5 0zm-2 4.5a1.75 1.75 0 1 1-3.5 0 1.75 1.75 0 0 1 3.5 0zM10 19h1.5v5.92L16.95 19H19l-6.45 7L18 31.92V25.22c0-1.78 1.25-3.22 2.78-3.22H22v1.5h-1.15c-.88 0-1.35.84-1.35 1.86V33h-2.55l-5.45-5.92V33H10V19zm36 0h-1.5v14H46V19zm-22 3h-1.5v11H24V22zm3.68 0c1.85 0 3.32.98 3.32 3h-1.5c0-2.25-3.5-2.08-3.5.17.23 1.18 1.35 1.5 2.53 1.85 1.45.42 2.97.87 2.97 2.98 0 3.99-7 4.03-7-.03v-.47H26v.1c0 .88.4 1.9 1.9 1.9 1.26 0 2.1-.53 2.1-1.5 0-.98-.82-1.24-1.46-1.44l-.37-.13-.22-.08c-1.6-.56-3.45-1.2-3.45-3.32 0-1.77 1.42-3.03 3.18-3.03zM32 19h1.5v3H37v1.5h-3.5V30c0 .94.43 1.5 1.3 1.5h1.09c.69 0 1.08-.39 1.12-1.68L37 29.5a3.5 3.5 0 0 1 5.5-2.87v-.92c0-1.27-.74-2.21-2-2.21s-2 .73-2 2H37c0-1.96 1.57-3.5 3.5-3.5s3.5 1.59 3.5 3.54v3.99a3.5 3.5 0 0 1-6.21 2.19A2.4 2.4 0 0 1 35.74 33h-1.3c-1.34 0-2.42-1.26-2.42-2.7L32 30V19zm8.5 12.5a2 2 0 1 0 0-4 2 2 0 0 0 0 4z" fill="#fff"/><path fill-rule="evenodd" d="M18.5 39.76v-3.53c0-1.23.96-2.23 2.13-2.23h.35c1.18 0 2.02 1 2.02 2.23v.27h-1v-.18c0-.74-.26-1.32-.96-1.32h-.37c-.7 0-1.17.58-1.17 1.32v3.45c0 .74.46 1.23 1.17 1.23h.37c.7 0 .96-.49.96-1.23v-.27h1v.26C23 41 22.16 42 20.98 42h-.35c-1.17 0-2.13-1-2.13-2.24zM29 34h1v7h2v1h-3v-8zm-5.5 5.76v-3.53c0-1.23.93-2.23 2.08-2.23h.34c1.14 0 2.07 1 2.07 2.23v.39H28v3.14C28 41 27.05 42 25.91 42h-.34c-1.15 0-2.08-1-2.08-2.24zm3.5-.42v-3.02c0-.74-.34-1.32-1.03-1.32h-.36c-.68 0-1.11.58-1.11 1.32v3.45c0 .74.43 1.23 1.11 1.23h.36c.69 0 1.03-.49 1.03-1.23v-.43zM33.48 42h-.98l2.46-8h.84l2.7 8h-1.06l-.67-2H34.1l-.62 2zm1.9-6.11L36.42 39H34.4l.96-3.11z" fill="#fff"/></svg>