<!-- by TradingView --><svg xmlns="http://www.w3.org/2000/svg" width="56" height="56"><path fill="#D4000E" d="M0 0h56v56H0z"/><path d="M31 14.9c3.58.22 8.54.6 12.46 1.68.57.16.86.67.86 1.02l1.65 19.7c.75 4.08-11.59 4.05-13.97 4.15V44h-8v-2.55c-4.13-.63-8.84-.84-12.78-2.32-1.05-.4-1.22-1.38-1.22-2.04l2-19.25c.22-.7.81-.94 1.18-1.07 2.7-.95 7.4-1.5 11.82-1.86V12h6v2.9z" fill="#fff"/><path d="M13 20h2v6.62L16.22 20h2.07l-1.43 8.1L18.3 37h-1.86L15 29.35V37h-2V20zm6.39 17h2l.15-4h1.3l.2 4h1.86l-1.3-17h-3.05L19.4 37z" fill="#D4000E"/><path d="M21.76 31h.86l-.43-7.5-.43 7.5z" fill="#fff"/><path d="M33.5 20h1.65c1.14 0 1.85.78 1.85 1.84v3.9h-2v-3.3c0-.21-.14-.44-.5-.44-.34 0-.5.25-.5.44V26l2.36 1.8c.4.26.64.54.64 1.63v5.94C37 37 34.5 37 34.5 37c-1 0-2.5-.5-2.5-1.64v-5.1h2v4.13c0 .28.14.61.5.61s.5-.27.5-.61V29.5l-2.79-2.15s-.21-.2-.21-.42v-5.1c.07-1.06.64-1.77 1.5-1.84zm-7.43 0h3.56c.75 0 1.37.67 1.37 1.48v5.54c0 .45-.34 1.26-.82 1.26.4.22.82.66.82 1.7V37h-2v-7.49c0-.23-.16-.51-.5-.51-.33 0-.5.26-.5.51V37h-2V20h.07z" fill="#D4000E"/><path d="M28 22v5h.81s.19 0 .19-.19v-4.13c0-.19 0-.41-.19-.56C28.65 22 28.2 22 28 22z" fill="#fff"/><path d="M38 20h2v14.67c0 .43.85.65.99 0 .07-.36.01-1.38.01-1.67V20h2v14.84c0 .6-.39 1.43-1.18 1.88-.53.3-1.8.44-2.64 0-.97-.65-1.18-1.47-1.18-2.75V20z" fill="#D4000E"/></svg>