<!-- by TradingView --><svg xmlns="http://www.w3.org/2000/svg" width="56" height="56"><path fill="#F0F3FA" d="M0 0h56v56H0z"/><path fill-rule="evenodd" d="M49.52 21.71l-.66-.18S36.18 19 27.99 19c-8.2 0-20.85 2.53-20.85 2.53l-.17.04-.87.25c-.36.12-.78.36-1.12.7-.62.63-.98 1.5-.98 2.48v6c0 .97.4 1.85.98 2.47.34.38.73.56 1.1.7.3.12.67.21 1.03.3C7.11 34.47 19.8 37 28 37c8.19 0 20.87-2.53 20.87-2.53a8.9 8.9 0 001.04-.3c.36-.14.75-.32 1.12-.7.62-.62.98-1.5.98-2.47v-6c0-.97-.4-1.85-.98-2.47a2.88 2.88 0 00-1.1-.7l-.4-.12zm-42.31.83l.17-.04S19.9 20 28 20c8.1 0 20.62 2.5 20.62 2.5l.3.08c.58.16 1.02.28 1.38.66.42.44.7 1.08.7 1.76v6a2.6 2.6 0 01-.7 1.76c-.38.4-.9.54-1.5.7-.06 0-.12.02-.18.04 0 0-12.52 2.5-20.62 2.5-8.1 0-20.62-2.5-20.62-2.5l-.18-.05c-.6-.15-1.12-.28-1.5-.69A2.6 2.6 0 015 31v-6c0-.68.28-1.32.7-1.76.4-.43.97-.57 1.5-.7zm41.07.91l.1.02.29.08c.6.17.75.21.9.38.25.26.43.66.43 1.07v6c0 .41-.18.81-.42 1.08-.18.18-.41.24-1.19.45l-.1.02a75.19 75.19 0 01-1.93.36c-1.3.23-3.1.54-5.16.85A96.8 96.8 0 0128 35a96.8 96.8 0 01-13.2-1.24 185.76 185.76 0 01-7.08-1.21l-.1-.02H7.6c-.78-.2-1.01-.27-1.19-.45A1.6 1.6 0 016 31v-6c0-.41.18-.81.42-1.07.2-.2.47-.28 1.13-.44l.05-.01h.01l.1-.03a75.51 75.51 0 011.93-.36c1.3-.23 3.1-.54 5.16-.85A96.8 96.8 0 0128 21c3.97 0 9.06.62 13.2 1.24a185.73 185.73 0 017.08 1.21zM11 25v2.15L12.77 25h2.52l-2.43 2.78L15.44 31h-2.58L11 28.57V31H9v-6h2zm32 .93V25h-2v6h2v-3.01c0-.74.24-1.35 1.06-1.35.95 0 .94.84.94 1.41V31h2v-3.6c0-1.42-.6-2.4-2.14-2.4-.78 0-1.38.22-1.86.93zM40 25v6h-1.99v-.8c-.37.54-1.06.8-1.7.8-1.65 0-2.81-1.38-2.81-3s1.13-3 2.79-3c.64 0 1.32.24 1.72.74V25H40zm-3.27 1.71c-.8 0-1.23.58-1.23 1.27 0 .71.43 1.26 1.23 1.26S38 28.69 38 27.98c-.02-.67-.46-1.27-1.27-1.27zM31.7 25l-1.54 3.24L28.63 25h-1.97l2.88 6h1.22l2.9-6H31.7zM24 25v1.05c.3-.55.76-1.05 2-1.05v1.75h-.68c-1.1 0-1.32.86-1.32 1.86V31h-2v-6h2zm-4.94 2.17H17c.12-.57.54-.88 1.12-.88.5 0 .85.33.94.88zM21 28.33v-.21c0-1.93-1.1-3.12-2.98-3.12-1.77 0-3.02 1.12-3.02 3 0 1.95 1.36 3 3.16 3 1.25 0 2.47-.67 2.77-2H19c-.08.37-.45.6-.86.6-.8 0-1.14-.46-1.14-1.27h4z" fill="#E92339"/></svg>