<!-- by TradingView --><svg width="56" height="56" viewBox="0 0 56 56" xmlns="http://www.w3.org/2000/svg"><path fill="#E0E3EB" d="M0 0h56v56H0z"/><path d="M16.9 21.84 19.39 24h-1.75l-2-2.16h1.28Z" fill="#0091D5"/><path fill-rule="evenodd" d="M13 13h30v9H13v-9Zm0 11h4.62L21 27.47V33h-8v-9Zm8 1.48L19.34 24H21v1.48ZM23 33v-3.47l2.47 2.53s6.68-2 8.44-2c.39 0 1.42 1.3 2.57 2.94H23Zm11.75-4.94c.9 0 2.22 2.34 3.42 4.94H43v-9H23v3.27l3.13 2.8s6.05-2 8.62-2ZM41 40s-1.52-2.5-3.16-5H23v8h20v-8h-3.95c1.11 2.63 1.95 5 1.95 5Zm-28-5h8v8h-8v-8Zm12.04-19.98c2.1 0 10.96 4.56 10.96 4.56s-1.15.42-2.06.42c-.5 0-.83-.25-1.16-.5-.32-.25-.65-.5-1.14-.5-.48 0-.81.24-1.15.48-.36.26-.73.52-1.29.52-.52 0-.81-.25-1.1-.5-.3-.25-.58-.5-1.1-.5-.56 0-.88.25-1.21.5-.33.25-.66.5-1.22.5-.53 0-.86-.25-1.2-.5-.32-.25-.65-.5-1.18-.5-.66 0-1.22.25-1.77.5a4.1 4.1 0 0 1-1.71.5c-.37 0-.7-.12-.71-.53 0-.78 5.55-4.45 7.04-4.45Z" fill="#0091D5"/><path d="M21 22h2v2h-2v-2ZM21 33h2v2h-2v-2ZM21 27.45v-1.98l2 1.81v2.28l-2-2.1ZM39.06 35h-1.2l-1.4-2h1.71l.9 2Z" fill="#0091D5"/></svg>