<!-- by TradingView --><svg width="56" height="56" viewBox="0 0 56 56" xmlns="http://www.w3.org/2000/svg"><path fill="#143760" d="M0 0h56v56H0z"/><path d="M25.8 39.84c.17.12.35.16.53.16h12.21c.95 0 1.46-.33 1.46-1.33V17.12c0-.35-.1-.63-.35-.85-.19-.17-.42-.27-.7-.27H17.47c-.36 0-.68.02-.81.08-.27.11-.47.3-.58.58-.05.13-.08.33-.08.6V41.9c0 .48-.28.92-.74 1.06-.11.04-.28.05-.5.05h-.55c-.24 0-.44-.02-.6-.09-.3-.14-.6-.46-.6-.83a8515.78 8515.78 0 0 1 0-25.84 3.74 3.74 0 0 1 4.1-3.24h21.82a3.75 3.75 0 0 1 4.01 3.1c.04.23.06.62.06 1.18v21.6A3.76 3.76 0 0 1 38.88 43H25.62c-1 0-1.98-.43-2.66-1.13a8.9 8.9 0 0 1-.72-.93l-3.47-4.9a3.75 3.75 0 0 1-.08-4.28c1.19-1.8 2.75-4.41 4.68-7.3.12-.19.3-.32.53-.41a2 2 0 0 1 .63-.06h1.28c.3 0 .5.02.64.08.47.19.76.76.61 1.27a1.8 1.8 0 0 1-.23.45c-1.55 2.33-3.1 4.92-4.66 7.25a2 2 0 0 0-.32.63c-.07.37.05.62.28.94 1.73 2.42 2.83 4.18 3.3 4.82.14.2.26.34.36.4Z" fill="#fff"/><path d="M31.5 38a4.5 4.5 0 1 0 0-9 4.5 4.5 0 0 0 0 9Z" fill="#EA5B11"/></svg>