<!-- by TradingView --><svg xmlns="http://www.w3.org/2000/svg" width="56" height="56" viewBox="0 0 56 56"><path fill="#F0F3FA" d="M0 0h56v56H0z"/><path d="M32.85 43.25a16 16 0 0 1-9.91-.07l.46-1.39c1.21.09 3.6-.36 3.6-2.8v-8.16a2.98 2.98 0 0 1-.51-.24l-5.73 5.73c-.58.74-1.28 2.7.55 4.52l-.67 1.37A16.07 16.07 0 0 1 13.6 35l1.37-.5c.8.91 2.82 2.3 4.55.58l5.77-5.78c-.05-.1-.1-.2-.13-.31H17c-2.45 0-2.9 2.36-2.81 3.57l-1.38.45a15.98 15.98 0 0 1-.05-9.89l1.43.49c0 2.58 1.87 3.26 2.8 3.38h8.2c.03-.11.08-.23.13-.33l-5.78-5.78c-1.73-1.73-3.75-.34-4.55.57l-1.29-.63a16.07 16.07 0 0 1 6.96-7.04l.66 1.34c-1.83 1.83-1.13 3.78-.55 4.53l5.74 5.74c.16-.1.33-.17.5-.23V17c0-2.45-2.39-2.9-3.6-2.81l-.56-1.33a15.98 15.98 0 0 1 10-.1l-.48 1.43a3.1 3.1 0 0 0-3.36 2.8v8.2c.1.03.21.07.31.12l5.78-5.77c1.73-1.73.33-3.75-.58-4.55l.84-1.2a16.07 16.07 0 0 1 6.86 6.86l-1.37.67c-1.83-1.83-3.78-1.13-4.52-.55l-5.73 5.73c.1.16.18.33.24.51h8.16c.93-.12 2.8-.8 2.8-3.38l1.45-.5a16 16 0 0 1-.06 9.95l-1.39-.5c.09-1.2-.36-3.57-2.8-3.57h-8.16c-.06.17-.14.34-.23.5l5.72 5.71c.74.58 2.7 1.28 4.52-.55l1.38.68a16.07 16.07 0 0 1-6.97 6.93l-.74-1.28c.91-.8 2.3-2.82.58-4.55l-5.76-5.75-.33.14v8.16c.12.93.77 2.8 3.36 2.8l.5 1.46z" fill="#0B460E"/></svg>