<!-- by TradingView --><svg xmlns="http://www.w3.org/2000/svg" width="56" height="56"><path fill="#F0F3FA" d="M0 0h56v56H0z"/><path d="M33.57 25.63c-.07.3-.12.64-.14.98-.07 1.29.28 3.23 1.95 2.38.2-.1.62-.34.74-.56l.01-.78c-.4.57-.87.76-1.2.68-.4-.1-.62-.64-.59-1.5l2-.5v-.83c.04-2.58-2.17-2.25-2.77.13zm-13.62 1.13c0 .73.13.92.82 2.17.55 1 .65 1.23.7 1.65.05.45-.08.91-.5 1.13-.32.16-.76.08-1.12-.12 0 0-.09.75-.1.96.5.12.92.13 1.4-.1a2.44 2.44 0 001.28-2.56c-.08-.44-.2-.76-.58-1.41-.4-.72-.76-1.5-.84-1.84-.2-.9.54-1.47 1.5-1.32v-.88a1.85 1.85 0 00-.39-.03 2.28 2.28 0 00-2.17 2.35zm12.26-2.12l-.93 3.06-.68-2.66-.86.23 1.29 4.78.25-.03 1.81-5.63-.88.25zm3.18.48c.03.32 0 .83 0 .83l-1 .2s.04-.52.1-.85c.13-.74.82-1.11.9-.18zm-7.26 1.74v-1.28l-.86.22-.22 5.13.87-.2s0-2.54.48-3.68c.3-.71.58-.94 1.14-.84l.09-.96c-1.13-.13-1.13.95-1.5 1.61zm-4.92 2.78c0 1.15.33 1.85.93 2.02.67.2 1.28-.3 1.74-.74v-.72c-.33.38-.85.87-1.4.52-.39-.26-.35-.99-.38-1.42.63-.15 1.25-.32 1.88-.45l.12-.02-.03-.74c-.06-1.33-.25-1.82-.84-1.86a1.5 1.5 0 00-1.3.6 4.96 4.96 0 00-.72 2.81zm1.99-1.21l-1 .23c-.03-.46.07-1.58.57-1.6.5-.03.42 1.02.43 1.37z" fill="#011C47"/><path fill-rule="evenodd" d="M28 43.94c8.67 0 15.94-7.28 15.94-15.94S36.67 12.06 28 12.06A16.12 16.12 0 0012.06 28c0 8.66 7.27 15.94 15.94 15.94zM28 45a17 17 0 100-34 17 17 0 000 34z" fill="url(#aqaeurd2j)"/><path fill-rule="evenodd" d="M42.88 28a14.88 14.88 0 11-29.76 0 14.88 14.88 0 0129.76 0zm-4.24 0c0 5.64-5 10.63-10.64 10.63-5.64 0-10.63-4.99-10.63-10.63 0-5.64 4.99-10.63 10.63-10.63 5.64 0 10.64 4.99 10.64 10.63zM27.41 14.42l-.68 1.25.13.97-.64.08-.12-.96-.99-1.05.66-.08.57.6.4-.73.67-.08zm-3.11 2.77l.61-.19-.62-2.03-.62.19.63 2.03zm-.92-.34c.06.12.08.24.06.36a.65.65 0 01-.16.33 1 1 0 01-.34.25 1.76 1.76 0 01-.74.17l-.23-.46h.35c.12 0 .23-.03.33-.08s.16-.1.17-.14v-.12a.22.22 0 00-.14-.1 1.14 1.14 0 00-.27 0h-.34a.74.74 0 01-.3-.1.56.56 0 01-.2-.25.59.59 0 01-.06-.31c0-.11.05-.22.13-.32s.2-.18.34-.26a1.44 1.44 0 01.72-.15l.22.45c-.1-.02-.21-.03-.33-.02a.8.8 0 00-.34.08c-.07.04-.12.08-.14.12a.14.14 0 000 .13c.02.03.05.06.1.07l.22.02.44.01c.12.01.22.04.3.1a.5.5 0 01.21.22zm-2.11 1.9l.61-.48-1.42-.32v-1.27l-.54.43-.02 1.22-.59-.75-.5.4 1.31 1.68.5-.4-.6-.78 1.25.28zm-2.4.8c.14.12.24.24.3.38a.8.8 0 01.08.4c-.01.13-.05.26-.1.38a1.57 1.57 0 01-.6.7.93.93 0 01-.5.14.9.9 0 01-.56-.21l-.93-.73.4-.5.8.62c.1.08.2.14.3.16.1.03.19.02.26 0a.5.5 0 00.21-.17.5.5 0 00.1-.24.41.41 0 00-.05-.25.85.85 0 00-.24-.26l-.8-.63.4-.5.93.72zm-1.44 2.8a1 1 0 00-.43-.33 1.17 1.17 0 00-.65-.08.96.96 0 00-.42.18 1.41 1.41 0 00-.31.36c-.05.07-.1.18-.15.3l-.36.81 1.95.85.46-1.05c.11-.25.14-.47.1-.66a1.4 1.4 0 00-.19-.39zm-1.6 2.48a1.02 1.02 0 01.84.69c.07.2.08.42.04.68a1.3 1.3 0 01-.27.63 1 1 0 01-.46.34 1.13 1.13 0 01-1.05-.18.98.98 0 01-.33-.46 1.3 1.3 0 01-.05-.69c.04-.2.1-.36.18-.5a.99.99 0 01.68-.5.98.98 0 01.42-.01zm.7 3.61l-.06-.69-.44.25a1.7 1.7 0 00-.32.2.6.6 0 00-.13.18 1.3 1.3 0 00-.1-.14.55.55 0 00-.45-.16.66.66 0 00-.53.35.8.8 0 00-.08.44l.08 1.09 2.12-.15-.05-.64-.82.06-.01-.07c0-.08 0-.14.02-.19 0-.04.05-.1.1-.15l.3-.19.36-.19zm-1.22 2.34a.67.67 0 01.24-.02.61.61 0 01.46.25 1 1 0 01.16.33l.12.4.76-.22.18.62-2.04.6-.3-1.02a.98.98 0 01-.04-.36c.01-.11.04-.2.08-.28a.6.6 0 01.17-.19.69.69 0 01.21-.1zm3.11 3.66l-.38-.52-1.7 1.27.34.47 1.03.05-.25 1 .34.47 1.71-1.27-.37-.5-.99.74.23-.9-.03-.04-.91-.04.98-.73zm1.52 1.87l1.24 1.04-1.37 1.63-.49-.41 1.04-1.24-.74-.63.32-.39zm2.42 1.78l-.55-.33-1.1 1.82.55.34 1.1-1.83zm1.05 1.45l-.82-.33-.16.4.82.33-.16.38-.81-.33-.16.4 1.4.57.8-1.97-.59-.24-.32.8zm6.94-23.28c.1-.16.17-.34.2-.53 0-.15 0-.3-.04-.43a1 1 0 00-.54-.65 1.46 1.46 0 00-.5-.14c-.27-.03-.5 0-.69.08a.97.97 0 00-.44.35c-.1.16-.17.33-.2.52-.01.2.01.37.08.55a1 1 0 00.36.45c.17.12.38.2.65.22.25.03.48 0 .67-.07.19-.08.34-.2.45-.35zm2.8 1.5l-.53-.2-.6-1.51-.43 1.1-.6-.22.77-1.99.53.2.6 1.5.43-1.1.6.23-.77 1.99zm1.66 1.06l1.22 1.03.28-.32-.73-.63.3-.34.67.58.28-.33-.68-.58.25-.3.71.6.28-.32-1.2-1.02-1.38 1.63zm3.02 3a4.15 4.15 0 01-.3-.2 2.63 2.63 0 01-.41-.44 1.5 1.5 0 01-.27-.55 1 1 0 01.4-1.07c.13-.1.27-.17.42-.21a.8.8 0 01.45-.02 1.2 1.2 0 01.55.32 2.23 2.23 0 01.45.63 5 5 0 01.15.38l-.4.3a1.23 1.23 0 00-.27-.68.82.82 0 00-.35-.29.58.58 0 00-.34-.03.7.7 0 00-.26.12.56.56 0 00-.23.55c.02.12.07.23.16.35.05.06.1.13.18.19l.2-.16-.17-.23.34-.26.51.68-.81.62zm.22.72l.69 1.46.46-.21-.42-.89 1.47-.68-.27-.59-1.93.9zm1.26 3.58l-.39-1.55 2.07-.52.37 1.54-.4.1-.23-.91-.38.1.21.86-.41.1-.22-.86-.44.1.23.94-.41.1zm.14 2.38v.57l2.13-.02v-.64l-1.18.01 1.16-1.11v-.57l-2.13.02v.64l1.2-.02-1.18 1.12zm-.39 3.22a1.53 1.53 0 01-.03-.57c0-.1.02-.2.05-.29.04-.18.1-.33.18-.47.09-.13.19-.23.31-.32a.98.98 0 01.4-.15c.14-.02.29-.02.44.02.18.04.33.11.45.2.12.1.21.21.27.34.06.14.1.28.1.43.02.15 0 .3-.03.46-.06.24-.18.5-.35.77L40.3 32c.09-.09.17-.18.23-.27a.92.92 0 00.16-.7.64.64 0 00-.15-.3.53.53 0 00-.29-.16.54.54 0 00-.3.01.8.8 0 00-.27.18.75.75 0 00-.15.32 1.14 1.14 0 000 .54l.06.22-.53-.13zm-.4.58l-.68 1.45.39.19.41-.87.41.2-.38.8.39.18.38-.8.35.16-.4.85.38.18.68-1.43-1.92-.9zm-3.32 4.68l.45-.47.43.17.64-.66-.18-.43.45-.47.88 2.16-.5.5-2.17-.8zm-.73.56c-.01.09 0 .17.06.24.04.05.08.09.13.11a.5.5 0 00.17.03.44.44 0 00.16-.06.32.32 0 00.13-.22.31.31 0 00-.06-.25.31.31 0 00-.21-.13.32.32 0 00-.25.06.31.31 0 00-.13.22zm-1.66 1.6a.59.59 0 01-.07-.35.65.65 0 01.14-.33c.09-.1.2-.2.34-.27a1.76 1.76 0 01.74-.2l.24.46h-.36a.85.85 0 00-.32.1c-.1.05-.15.1-.17.15l.01.11c.03.06.07.08.14.1l.27-.01h.35a.62.62 0 01.51.32c.05.1.07.2.07.32a.6.6 0 01-.13.31c-.07.1-.19.2-.33.28a1.43 1.43 0 01-.72.17l-.23-.44c.1.01.22.02.34.01a.8.8 0 00.33-.1c.07-.03.12-.07.13-.12a.14.14 0 000-.12.14.14 0 00-.1-.07.94.94 0 00-.22-.01h-.45a.76.76 0 01-.3-.08.5.5 0 01-.21-.23zm-1.3-.1a.32.32 0 000 .25c.01.05.05.1.09.14.04.04.1.06.15.07.06.01.12 0 .17-.01a.32.32 0 00.19-.17.31.31 0 00.01-.25.32.32 0 00-.17-.2.32.32 0 00-.25 0 .31.31 0 00-.19.16zm-1.77-23.6c.02.06.02.13.01.21 0 .11-.04.2-.1.28a.47.47 0 01-.2.17.61.61 0 01-.3.04.54.54 0 01-.4-.2.55.55 0 01-.1-.4.54.54 0 01.2-.38c.1-.1.24-.13.41-.1.1 0 .17.02.24.06a.47.47 0 01.24.31zM16.71 22.6a.7.7 0 00-.4-.07.48.48 0 00-.28.14.84.84 0 00-.16.24l-.1.25 1.15.5.1-.24c.07-.16.1-.3.07-.45-.03-.15-.15-.27-.38-.37zm-1.21 2.86a.64.64 0 01.22 0c.1.02.2.06.27.11a.5.5 0 01.16.22c.03.1.04.2.02.31-.03.17-.1.3-.22.38a.54.54 0 01-.41.08.54.54 0 01-.37-.21.54.54 0 01-.08-.43.64.64 0 01.08-.23.47.47 0 01.33-.23zm-.61 3.37c.03-.07.1-.1.2-.11.1-.01.16.01.2.07a.7.7 0 01.07.32l.01.13-.51.04v-.13a.64.64 0 01.03-.32zm.44 2.72c.02-.07.07-.12.17-.15a.26.26 0 01.16 0 .2.2 0 01.1.1c.04.04.07.12.1.22l.03.13-.49.15-.03-.13c-.05-.15-.06-.26-.04-.32zm22.03 5.6l-.77-.32.43-.46.34.77zm-10.02 1.73l.7 1.5.74-1.49-.73 1.5 1.62-.36-1.62.36 1.29 1.05-1.3-1.05-.01 1.66.01-1.66-1.3 1.02 1.3-1.02-1.61-.39 1.61.39-.7-1.51zm-3.47-24.01a.25.25 0 100-.5.25.25 0 000 .5zm-6.9 4.87a.25.25 0 11-.5-.08.25.25 0 01.5.08zm3.77 20.68a.25.25 0 10.08-.5.25.25 0 00-.08.5zm-3.3-21.35a.25.25 0 11-.5-.08.25.25 0 01.5.08zm21.72-.11l.11.16a.38.38 0 00.05.37c.1.15.26.18.33.17l.12.16c-.18.09-.53.17-.74-.12-.2-.29-.01-.6.13-.74z" fill="url(#bqaeurd2j)"/><defs><linearGradient id="aqaeurd2j" x1="28" y1="11" x2="28" y2="45" gradientUnits="userSpaceOnUse"><stop stop-color="#111419"/><stop offset=".19" stop-color="#094182"/><stop offset=".44" stop-color="#12151A"/><stop offset=".6" stop-color="#0A3F85"/><stop offset=".78" stop-color="#03142F"/><stop offset="1" stop-color="#0C3980"/></linearGradient><linearGradient id="bqaeurd2j" x1="40.13" y1="16.76" x2="14.83" y2="39.15" gradientUnits="userSpaceOnUse"><stop stop-color="#1B8078"/><stop offset=".29" stop-color="#101C1A"/><stop offset=".46" stop-color="#059C93"/><stop offset=".59" stop-color="#101413"/><stop offset=".74" stop-color="#111312"/><stop offset="1" stop-color="#1B8078"/></linearGradient></defs></svg>