<!-- by TradingView --><svg xmlns="http://www.w3.org/2000/svg" width="56" height="56" viewBox="0 0 56 56"><path fill="#F0F3FA" d="M0 0h56v56H0z"/><path d="M4 32h48v-8H4v8Zm47.5-.5h-47v-7h47v7Z" fill="#8F6D4F"/><path d="M36 25v2.15l.89.8-.89.81V31h15v-6H36Z" fill="#960048"/><path d="M36 25H5v6h31v-6Z" fill="#8F6D4F"/><path d="M6 28v2c.44 0 .78-.31.78-.7v-.6c.02-.4-.33-.7-.78-.7Zm0 0c.44 0 .78-.32.78-.7V26H6v2Zm2.7-1.84-1.5 1.47L9.52 30h-.37c-.4 0-.76-.16-1-.42l-1.57-1.59 1.88-1.83.17-.16h.25l-.18.16ZM10 30h.4c.21 0 .38-.16.4-.34V26H10v4Zm10.29-.14h.73l-.19.14H19v-4h.8v3.86h.49Zm.83.14H22v-.78l-.88.78Zm-6.91-.14h.43l-.17.14h-2.25v-.14l2.56-3.7h-1.13l.12-.16h1.95v.1l-2.6 3.76h1.09ZM13.5 26h-.89v.78l.9-.78Zm12.73 2.66c-.07-.31-.28-.53-.56-.7-.1-.06-.22-.1-.34-.15.03-.02.07-.03.08-.06.28-.19.46-.4.47-.72.02-.4-.19-.67-.57-.86a2 2 0 0 0-.86-.17H23v2c.44 0 .78-.32.78-.7v-1.15h.4c.14 0 .28 0 .4.02.34.03.56.32.63.6.06.22.04.42-.07.62a.7.7 0 0 1-.5.37c-.23.02-.61.03-.84.03l-.22.17h1.16c.5.02.82.36.87.79.02.2 0 .39-.08.57-.13.23-.35.45-.63.48-.24.03-1.12.05-1.12.05l-.22.15c.47 0 .75 0 1.22-.02.33 0 .63-.06.92-.21.42-.25.65-.68.54-1.11Zm-2.46.61v-.58c0-.39-.34-.7-.78-.7v2c.42-.02.78-.33.78-.72Zm-9.07.73h.9v-.78l-.9.78ZM17 30h.4a.4.4 0 0 0 .4-.36V26H17v4Zm14 0v-2c.44 0 .8.3.78.7v.6c0 .39-.34.7-.78.7Zm0-2v-2h.78v1.3c0 .38-.34.7-.78.7Zm2.72-1.84-1.5 1.47L34.54 30h-.37c-.4 0-.77-.16-1-.42l-1.58-1.59 1.88-1.83.18-.16h.24l-.17.16Zm-3.92 2.4V26.8l.2-.13v1.97c0 .31-.03.55-.08.7a.74.74 0 0 1-.3.36c-.14.12-.32.19-.52.23-.2.04-.42.07-.63.07-.45 0-.79-.06-1-.18-.22-.13-.35-.27-.4-.46a2.9 2.9 0 0 1-.07-.72V26.5c.4 0 .73.28.73.62v1.46c0 .29.02.51.05.68.04.17.12.3.25.41.14.12.3.16.6.16.25 0 .45-.04.65-.13.19-.08.32-.2.4-.34.09-.14.12-.4.12-.8ZM30 26.3v-.8h-.8l.8.8ZM29 26.3v-.8h-.8l.8.8ZM39.2 29.8a1.85 1.85 0 0 1-.87-.64c-.22-.3-.33-.68-.33-1.14 0-.7.25-1.21.74-1.53a3.5 3.5 0 0 1 1.94-.49c.43 0 .89.05 1.32.13v.7a3.52 3.52 0 0 0-.85-.5 2.36 2.36 0 0 0-.85-.18c-.33 0-.62.06-.87.2-.25.15-.45.36-.6.64a2.31 2.31 0 0 0 .04 2.02c.16.28.4.49.69.63a2.33 2.33 0 0 0 1.85.03V29c0-.25-.03-.44-.06-.59-.04-.14-.1-.24-.21-.4V28H42v1.77c-.54.17-1.07.23-1.56.23a3.7 3.7 0 0 1-1.25-.2Zm4.8.2v-1.76L42.66 26h.6l1.3 2.12.4-.61a2.57 2.57 0 0 0 .46-1.32l.01-.14V26h.6l-1.41 2.24V30H44Zm2.24-.99A2 2 0 0 0 48 30c.4 0 .77-.1 1.07-.28.31-.17.54-.4.7-.7a2.08 2.08 0 0 0 .01-1.95A1.85 1.85 0 0 0 48.01 26a2 2 0 0 0-1.12.3c-.3.2-.52.46-.66.77a2.08 2.08 0 0 0 .01 1.94Zm3-.13c-.08.28-.24.52-.45.72-.2.19-.47.29-.76.29-.3 0-.56-.1-.77-.3a1.65 1.65 0 0 1-.47-.7c-.1-.3-.16-.57-.16-.87 0-.29.03-.58.12-.87.09-.3.23-.53.44-.73.2-.21.47-.3.82-.3.31 0 .58.1.78.3.21.21.37.45.46.75.09.29.14.56.14.85 0 .3-.05.57-.14.86Z" fill="#F0F3FA"/></svg>