<!-- by TradingView --><svg width="56" height="56" viewBox="0 0 56 56" xmlns="http://www.w3.org/2000/svg"><path fill="#F0F3FA" d="M0 0h56v56H0z"/><path d="m32.31 40.72-11.1-10.65c-.64-.6-1.01-1.1-1.12-1.5-.3-1 .18-1.69.96-2.44l11.71-11.21c.35-.33 1.21-.91 1.7-.9 1.68 0 2.76 0 3.21-.02.4-.01.79.08 1.17.29 1.9.99 1.92 3 .5 4.35a1734 1734 0 0 0-9.67 9.27c-.1.1-.1.18 0 .27l8.27 8.04c.06.07.06-.1.06-.2v-6.03c0-.86.11-1.47.3-1.83.52-.91 1.36-1.15 2.47-1.16h2.86c1.87.08 2.36 1.2 2.37 2.87v9.48c-.01 1.26-.26 1.86-1.36 2.38-.3.15-.72.26-1.25.27h-7.96a4.93 4.93 0 0 1-3.12-1.28ZM13.54 14.19c.3-.12.6-.17.92-.17 3.4 0 5.97 0 7.7-.02.56 0 1.04.08 1.43.25a2.2 2.2 0 0 1 .73 3.64l-8.8 8.7c-.45.43-1.14.52-2.07.28-1.17-.3-1.46-1.37-1.45-2.58v-7.4c0-1.43.22-2.17 1.54-2.7ZM12 39.11c0 1.43.22 2.18 1.53 2.7.3.12.6.18.93.18l7.68.01a3.5 3.5 0 0 0 1.45-.25 2.2 2.2 0 0 0 .72-3.64c-.3-.31-3.23-3.21-8.8-8.7-.45-.43-1.14-.52-2.07-.28-1.17.3-1.46 1.37-1.45 2.58.02 1.1.02 3.57 0 7.4Z" fill="#1946BA"/></svg>