<!-- by TradingView --><svg width="56" height="56" viewBox="0 0 56 56" xmlns="http://www.w3.org/2000/svg"><path fill="#F0F3FA" d="M0 0h56v56H0z"/><path fill-rule="evenodd" d="M18 23v5.83A2.1 2.1 0 0 1 15.92 31H14.5c-1.75 0-2.5-1.27-2.5-2.51v-.08c0-1.24.97-2.41 2.5-2.41H17v-3h1Zm-1 4v1.81c0 .6-.54 1.19-1.02 1.19h-1.42c-.9 0-1.56-.7-1.56-1.46v-.14c0-.76.66-1.4 1.56-1.4H17Zm21-1h1v5h-1v-5Zm1-2h-1v1h1v-1Zm-29 2h1v5h-1v-5Zm1-2h-1v1h1v-1Zm21 3.62c0-.9.86-1.62 1.54-1.62H37v1h-3.3c-.39 0-.7.35-.7.86V28h4v1h-4v2h-1v-3.38ZM40 26h1v2.95c0 .75.39 1.05.78 1.05H45v1h-3.33c-1.05 0-1.67-.82-1.67-1.88V26ZM5 26H4v3.12C4 30.18 4.62 31 5.67 31H9v-1H5.78c-.4 0-.78-.3-.78-1.05V26Zm20 5h1v-2.95c0-.75.39-1.05.78-1.05H30v-1h-3.33c-1.05 0-1.67.82-1.67 1.88V31Zm24.27-5H48.2c-1.08 0-2.2 1.05-2.2 2.55 0 1.5 1.22 2.45 2.2 2.45h1.5c1.18 0 2.3-.93 2.3-2.52 0-1.23-.86-2.48-2.3-2.48h-.43Zm-.86 1c-.67 0-1.41.63-1.41 1.53S47.74 30 48.41 30h1.06c.9 0 1.53-.56 1.53-1.51 0-.74-.45-1.49-1.53-1.49h-1.06Zm-24.4 4v-1h-2.86c-.67 0-.96-.49-1.05-1H24v-.84S24 26 21.6 26c-1.66 0-2.59.9-2.59 2.42S19.76 31 21.31 31h2.7ZM23 28h-3s.16-1 1.14-1h.82c.88 0 1.04 1 1.04 1Z" fill="#EB1C24"/></svg>