<!-- by TradingView --><svg width="56" height="56" viewBox="0 0 56 56" xmlns="http://www.w3.org/2000/svg"><path fill="#F0F3FA" d="M0 0h56v56H0z"/><path d="m23.43 34.34 3.56 4.61c.02.02 0 .05-.02.05H25.5l-.02-.01-2.86-3.7a.03.03 0 0 0-.05 0l-1.12 1.34v2.34c0 .02-.02.03-.03.03h-1.4a.03.03 0 0 1-.03-.03v-8.94c0-.02.01-.03.03-.03h1.4c.01 0 .03.01.03.03v4.68c0 .03.03.04.05.02l3.94-4.72.02-.01h1.48c.03 0 .04.03.02.05l-3.54 4.25v.04Z" fill="#414042"/><path d="M33 33v6h-1.4v-.6c0-.02-.02-.03-.04-.01-.48.4-1.1.6-1.86.6A3.06 3.06 0 0 1 26.63 36a3.04 3.04 0 0 1 3.07-3c.78 0 1.43.22 1.9.65V33H33c.02 0 0-.01 0 0Zm-3.17 1.17c-1.16 0-1.82.8-1.82 1.83 0 1.02.66 1.83 1.82 1.83 1.03 0 1.78-.7 1.78-1.83 0-1.12-.75-1.83-1.78-1.83ZM39.98 33c.01 0 .02 0 .02.02V40c0 1.75-1.36 3-3.19 3-1.82 0-3.18-1.64-3.17-2.97 0-.01 0-.03.02-.03h1.36c.02 0 .03.01.03.03.06.8.74 1.71 1.75 1.71 1 0 1.8-.74 1.8-1.74v-1.2a.03.03 0 0 0-.06-.02 2.8 2.8 0 0 1-1.91.65 3.22 3.22 0 0 1-3.16-3.22A3.2 3.2 0 0 1 36.63 33c.78 0 1.42.22 1.91.65.02.02.05 0 .05-.02v-.6c0-.02.01-.03.03-.03h1.36Zm-4.87-2h.96c.01 0 .02.01.02.03.02.37.24.64.6.64.4 0 .59-.27.6-.64 0-.02.01-.03.03-.03h.95c.02 0 .03.01.03.03v.06c0 .83-.73 1.51-1.6 1.51-.88 0-1.62-.68-1.62-1.51v-.06c0-.02.01-.03.03-.03Zm1.66 3.19c-1.2 0-1.89.86-1.89 1.97 0 1.1.68 1.96 1.89 1.96 1.06 0 1.83-.75 1.83-1.96s-.77-1.97-1.83-1.97ZM41.03 33h1.4c.01 0 .03.01.03.03v5.94c0 .02-.02.03-.03.03h-1.4c-.02 0-.03-.01-.03-.03v-5.94c0-.02.01-.03.03-.03ZM46.97 34.3h-1.48c-.02 0-.03.02-.03.03v4.64c0 .02-.02.03-.03.03h-1.4c-.02 0-.03-.01-.03-.03v-4.64c0-.01-.01-.02-.03-.02h-.94c-.02 0-.03-.01-.03-.03v-1.25c0-.01.01-.03.03-.03h.94c.02 0 .03 0 .03-.02v-1.95c0-.02.01-.03.03-.03h1.4c.01 0 .03.01.03.03v1.95c0 .01 0 .02.03.02h1.48c.02 0 .03.02.03.03v1.25c0 .02-.01.03-.03.03ZM28.5 17a1.5 1.5 0 1 0 0 3 1.5 1.5 0 0 0 0-3ZM26 27h-3V17h-2.96l-.03.01-.01.03v11.92c0 .02.02.04.04.04h5.92c.02 0 .04-.02.04-.04V27ZM29.96 21h-2.92c-.02 0-.04.02-.04.03v7.94l.01.02.03.01h2.92c.02 0 .04-.02.04-.03v-7.94l-.01-.02-.03-.01ZM33.96 17h-2.92l-.03.01-.01.03v7.95c0 2.62.96 4.01 2.75 4.01h.21c.02 0 .04-.02.04-.04V17.04a.04.04 0 0 0-.04-.04ZM47 28.75l-2.32-5.77a4.84 4.84 0 0 0-6.17-2.7c-.96.33-1.73.88-2.3 1.65a4.18 4.18 0 0 0-.87 2.58c0 1.24.47 2.3 1.39 3.18A4.84 4.84 0 0 0 40.15 29c1.46 0 2.68-.52 3.63-1.54l.6 1.31c0 .02.01.03.03.03h2.55c.01 0 .03 0 .03-.02v-.03Zm-5.29-2.78c-.43.4-.95.6-1.56.6-.45 0-.87-.13-1.25-.38a1.9 1.9 0 0 1-.96-1.68 2.1 2.1 0 0 1 2.2-2.06c.48 0 .9.12 1.27.36.63.4.95.97.95 1.7 0 .57-.21 1.06-.65 1.46Z" fill="#414042"/><path d="M12.58 23.85c3.27.7 5.49 2.88 6.41 3.94 0-1.54-.32-4.47-2.55-6.75-2.64-2.7-7.18-3.75-8.73-4.04-.07 1.17 0 4.14 1.94 6.62l.58-.01c.82 0 1.61.08 2.35.24Z" fill="#099E49"/><path d="M17.73 28.07c-1-1.03-2.87-2.61-5.4-3.15a9.78 9.78 0 0 0-2.1-.22h-.3l-.68.04c-1.81.15-3.4.66-4.25.98.84.95 2.87 2.93 5.75 3.55.66.14 1.37.21 2.1.21a14.66 14.66 0 0 0 5.24-1.01l-.36-.4Z" fill="#B2D236"/></svg>