<!-- by TradingView --><svg xmlns="http://www.w3.org/2000/svg" width="56" height="56" viewBox="0 0 56 56"><path fill="#03619F" d="M0 0h56v56H0z"/><path d="M26.71 11.15l-3.18 15.64C23.28 28 24.2 29 25.45 29h4.3a1.71 1.71 0 0 1 1.59 2.22l-.68 2.09A3.92 3.92 0 0 1 26.92 36h-7.97a2.9 2.9 0 0 1-2.9-3.38l3.15-17.84A5.86 5.86 0 0 1 25 10h.75c.62 0 1.08.55.96 1.15zm2.58 33.7l3.18-15.64C32.72 28 31.8 27 30.55 27h-4.3a1.71 1.71 0 0 1-1.59-2.22l.68-2.09A3.92 3.92 0 0 1 29.08 20h7.97a2.9 2.9 0 0 1 2.9 3.38L36.8 41.22A5.86 5.86 0 0 1 31 46h-.75a.97.97 0 0 1-.96-1.15z" fill="#fff"/></svg>