<!-- by TradingView --><svg width="56" height="56" viewBox="0 0 56 56" xmlns="http://www.w3.org/2000/svg"><path fill="#F0F3FA" d="M0 0h56v56H0z"/><path d="M34.92 20.5c.27.2.64.29.91.05.18-.15.44-.33.77-.53.07-.04.17-.2.3-.47.2-.4-.13-.96-.4-1.16a6.83 6.83 0 0 0-2.7-1.17 15.1 15.1 0 0 0-6.7.06 24.6 24.6 0 0 0-9.81 5.38 38.85 38.85 0 0 0-6.22 7.38c-.07.1-.09.1-.05-.03a26.4 26.4 0 0 1 7.75-12.58 21.6 21.6 0 0 1 10.5-5c.39-.08 1.16-.18 2.34-.32a15 15 0 0 1 7.48.92 9.35 9.35 0 0 1 5.17 5.43c.17.44.3 1.06.45 1.57.07.28.12.49.14.64.2 1.58.2 3.06-.01 4.44a17.94 17.94 0 0 1-2.25 6.34A26.04 26.04 0 0 1 31.2 41.96c-1.08.53-2.37 1-3.85 1.39-5.4 1.44-13.17.8-15.58-5.17-.7-1.76-.35-3.97.33-5.7.43-1.1 1.03-2.22 1.8-3.34.63-.94 1.35-1.86 2.16-2.77a22.01 22.01 0 0 1 3.24-2.96 23.96 23.96 0 0 1 3.91-2.47 16.8 16.8 0 0 1 6.7-1.7c.83-.03 1.82.1 2.98.39.24.06.52.16.84.3.49.2.86.32 1.18.57Zm-1.25 7.33c.12-.14.19-.12.2.06l.68 5.05a.06.06 0 0 1-.01.04.06.06 0 0 1-.05.02H20.85c-.08 0-.11-.04-.09-.12.5-1.54 1.1-3.45 1.78-5.5.6-1.8.95-2.85 1.04-3.17.13-.44 0-.96-.54-1.06-.7-.13-1.53.31-1.77 1.04l-3.16 9.48c-.16.49-.37.96.2 1.23.14.06.44.1.84.1H35.5c.8-.23 1.42-.56 1.65-1.28.08-.26.08-.43 0-.97-.34-2.26-.72-4.93-1.15-8-.05-.35-.13-.59-.24-.71-.16-.19-.44-.27-.82-.23-.34.04-.55.11-.65.22l-.47.54c-.9 1.05-1.99 2.36-3.24 3.93-.14.18-.22.16-.26-.07a42 42 0 0 0-.84-4.26c-.08-.5-1.02-.4-1.31-.26-.19.1-.43.32-.73.68a249.6 249.6 0 0 0-5.15 6.36c-.22.3-.33.53-.31.7.06.71.67 1.06 1.34.77.34-.15.56-.28.66-.4a1063.57 1063.57 0 0 0 3.47-4.31.06.06 0 0 1 .08.04c.23 1.18.52 2.44.88 3.77.1.42.2.69.3.8.32.4.98.14 1.33-.09.16-.1.36-.3.6-.6l3.04-3.8Z" fill="#014288"/></svg>