<!-- by TradingView --><svg xmlns="http://www.w3.org/2000/svg" width="56" height="56"><path fill="#F0F3FA" d="M0 0h56v56H0z"/><path d="M12 25.64c0 2.04.68 2.27.9 2.5.23.21.72.33 1.68.33s1.56-.15 1.81-.45c.2-.25.34-.54.4-.88.01-.13.06-.2.13-.2.05 0 .08.08.08.22 0 .51.03 1.66-.59 1.84h-6.15c-.16 0-.26-.05-.26-.13 0-.06.06-.1.16-.1s.23-.01.43-.05c.23-.04.41-.25.41-.81v-8.82c-.03-.47.03-.76-.37-.84a2.6 2.6 0 00-.5-.05c-.1 0-.13-.03-.13-.09 0-.08.08-.11.24-.11h2.53c.16 0 .23.03.23.11 0 .05-.08.08-.26.1l-.34.03c-.36.06-.37.34-.4.84v6.56zm7-1.3v-5.33a.84.84 0 00-.7-.8 2.3 2.3 0 00-.47-.04c-.08 0-.11-.03-.11-.09 0-.07.22-.08.22-.08h3.02c.15 0 .22.02.22.1 0 .05-.03.07-.1.07-.06 0-.18.01-.37.05a.84.84 0 00-.71.8c-.02.3 0 1.6 0 3.3v1.95c0 2.1.74 4.2 3.06 4.2 2.3 0 2.94-2.65 2.94-4.41v-5.04c-.03-.45-.19-.72-.56-.8a2.3 2.3 0 00-.48-.05c-.07 0-.1-.02-.1-.08 0-.07.07-.09.22-.09h2.68c.15 0 .22.02.22.1 0 .05-.05.07-.13.07s-.2.01-.34.05c-.31.07-.48.33-.51.8-.02.3 0 1.6 0 3.3v1.48c0 2.5-1.07 5.2-3.94 5.2-2.83 0-4.06-2.01-4.06-4.66zm12-5.33c-.04-.64-.5-.83-1.07-.83-.07 0-.1-.03-.1-.09 0-.07.07-.09.22-.09h2.91c.15 0 .23.02.23.1 0 .05-.04.08-.12.08-.53 0-1.04.28-1.07.83v4.13h.22l3.3-3.66c.5-.52.76-.85.76-1 0-.15-.07-.25-.19-.3-.08-.02-.13-.06-.13-.1 0-.07.06-.08.17-.08.8 0 1.6.03 2.4 0 .14 0 .21 0 .21.06 0 .07-.04.1-.14.1-.92 0-1.69.81-2.3 1.4-1.73 1.63-2.76 2.93-3.1 3.33a91.44 91.44 0 003.87 4.15c.83.76 1.75 1.77 2.97 1.77.12 0 .19.02.19.08 0 .07-.1.11-.3.11h-.73c-1.07 0-1.8-.2-2.67-.88-1.67-1.34-2.93-3.12-4.3-4.74H32v4.61c.08.64.31.82.94.82.09 0 .13.02.13.08 0 .07-.07.11-.22.11-.99 0-1.6-.02-2.6 0-.15 0-.22-.04-.22-.11 0-.06.05-.08.13-.08.53 0 .78-.3.84-.82V19zM42.67 29a4.3 4.3 0 01-1.88-.4c-.14-.06-.22-.24-.22-.52 0-.8.03-1.33.09-1.59.02-.07.05-.1.1-.1.07 0 .1.05.1.15 0 .2.02.38.05.51.2.95.89 1.42 2.08 1.42 1.07 0 2.01-.73 2.01-1.85s-.8-1.84-1.6-2.5a8.35 8.35 0 01-2.12-2.2c-.57-1.03-.47-2.43.43-3.23a3.1 3.1 0 012.13-.69 5.98 5.98 0 011.95.31v1.5c0 .2-.07.3-.13.3-.07 0-.14-.06-.15-.18-.1-1.05-.94-1.43-1.94-1.43-1.4 0-2.24 1.49-1.38 2.68.46.63 1.14 1.09 1.75 1.56 1.08.84 2.06 1.9 2.06 3.34 0 1.86-1.61 2.92-3.33 2.92z" fill="#CE3362"/><path d="M12 32h1v3.19c0 .2.3.08.38.04L17.43 32h.82l-4.01 3.23L18.6 40h-1.3l-3.98-4.35c-.14-.15-.31-.01-.31.13V40h-1v-8zm8 2.64a3.5 3.5 0 012-.64c1.3 0 2 .8 2 2v2.37c0 .33-.02.84.17 1.06.12.13.34.21.5.1l-.05.3-.31.1c-.32.06-.6.05-.83-.04-.23-.08-.39-.3-.43-.65-.54.53-1.13.76-1.92.76-.83 0-1.67-.6-1.67-1.5 0-1.27 1.26-1.55 2.31-1.73.39-.06.93-.1 1.19-.44.05-.13.04-.27.04-.4 0-.88-.5-1.43-1.37-1.43-.58 0-1.19.32-1.46.85H20v-.71zm3 2.23c-.87.22-2.54.16-2.54 1.42 0 .74.5 1.14 1.23 1.14.49 0 1.13-.4 1.3-.85v-1.71zM30 32h1v8h-1v-1.35s0 .06-.03.1A2.25 2.25 0 0127.9 40c-1.57 0-2.46-1.58-2.46-3 0-1.54.97-3 2.66-3 .82 0 1.5.42 1.9 1.13V32zm-3.55 5.18c0 1.05.59 2.33 1.8 2.33 1.39 0 1.75-1.6 1.75-2.72 0-1.04-.41-2.33-1.62-2.33-1.49 0-1.93 1.52-1.93 2.72zm11.96-5.12c-.44-.22-1.13-.18-1.41.26-.33.5-.18 1.15 0 1.68h1v.59h-1V40h-1v-5.41h-1V34h1c.12-1.02.53-2.16 1.41-2.76.3-.2.68-.3 1.12-.24l-.12 1.06zM44 37h-4.28c-.1 1.22.64 2.47 2.16 2.47.61 0 1.26-.3 1.7-.73l.09.52c-.63.43-1.35.74-2.11.74-1.73 0-2.9-1.38-2.9-3.02 0-1.65 1.14-2.98 2.81-2.98 1.52 0 2.45.94 2.53 2.43V37zm-1-.58c-.05-.96-.36-2.07-1.53-2.07-1.08 0-1.68 1.09-1.74 2.07h3.28z"/><circle cx="21.5" cy="16.5" r=".5" fill="#CE3362"/><circle cx="24.5" cy="16.5" r=".5" fill="#CE3362"/><path d="M33 34h1v6h-1z"/><circle cx="33.5" cy="32.5" r=".5"/></svg>