<!-- by TradingView --><svg width="56" height="56" viewBox="0 0 56 56" xmlns="http://www.w3.org/2000/svg"><path fill="#F0F3FA" d="M0 0h56v56H0z"/><path d="m39.48 18.27-10.3-5.22a.01.01 0 0 1-.02-.01l.01-.03h.02L44 18.3v.01l-9.8 23.64h-1.45l6.74-23.68a.01.01 0 0 0 0-.01Z" fill="#030303"/><path d="m28.55 13.27.01.18c0 .06 0 .12.03.17l2.15 4.34c.08.16.12.33.1.5L29.26 41.8a.21.21 0 0 1-.14.19.2.2 0 0 1-.08 0h-.17a.16.16 0 0 1-.11-.06.16.16 0 0 1-.04-.11l.5-23.44c0-.09 0-.17-.02-.26-.32-1.83-.6-3.37-.84-4.63a.36.36 0 0 1 .02-.24.1.1 0 0 1 .18.02ZM26.36 13.28l-9.72 4.93a.2.2 0 0 0-.1.23l6.68 23.47a.06.06 0 0 1-.03.07h-.03l-1.3-.03a.13.13 0 0 1-.12-.08l-9.73-23.45a.12.12 0 0 1 0-.1.11.11 0 0 1 .06-.05l14.16-5.07.05-.01h.02c.02.03.04.04.05.04a.03.03 0 0 1 .02.02v.02h-.01Z" fill="#030303"/><path d="M27.56 13.43c.03.06.04.14.02.24l-.83 4.6-.02.26.55 23.29c0 .04-.02.08-.04.11a.16.16 0 0 1-.11.06h-.17a.2.2 0 0 1-.15-.04.21.21 0 0 1-.07-.15L25.1 18.62a.98.98 0 0 1 .1-.5l2.13-4.32a.3.3 0 0 0 .03-.17l.01-.18a.1.1 0 0 1 .08-.07.1.1 0 0 1 .1.05Z" fill="#030303"/><path d="M26.75 13.5a.07.07 0 0 1 .1.02.07.07 0 0 1-.02.1L22 18.14a.32.32 0 0 0-.1.27l3.37 23.4a.12.12 0 0 1-.13.15h-.64a.2.2 0 0 1-.2-.16L19 18.48a.28.28 0 0 1 .13-.3l7.62-4.68ZM29.27 13.53l7.58 4.7a.28.28 0 0 1 .13.3L31.64 41.8a.2.2 0 0 1-.2.16h-.64a.12.12 0 0 1-.09-.05.13.13 0 0 1-.03-.1l3.4-23.36a.32.32 0 0 0-.08-.28l-4.82-4.54a.07.07 0 0 1-.01-.1.07.07 0 0 1 .1 0Z" fill="#030303"/></svg>