<!-- by TradingView --><svg xmlns="http://www.w3.org/2000/svg" width="56" height="56"><path fill="#F0F3FA" d="M0 0h56v56H0z"/><path fill="#E20A17" d="M26 24h6v10h-6z"/><path d="M51.5 29.5c0 1.55-1.06 3.04-2.98 4.17A15.06 15.06 0 0141 35.5c-2.96 0-5.62-.71-7.52-1.83-1.92-1.13-2.98-2.62-2.98-4.17 0-1.55 1.06-3.04 2.98-4.17A15.06 15.06 0 0141 23.5c2.96 0 5.62.71 7.52 1.83 1.92 1.13 2.98 2.62 2.98 4.17z" fill="#F0F3FA" stroke="#E20A17"/><path d="M6 34v-4.33L9 33l3-3.5V34h6V24h-5l-2 2.5L8.8 24H4v10h2zm13-7h6v7h-6zm5-2.5c0 .83-.9 1.5-2 1.5s-2-.67-2-1.5.9-1.5 2-1.5 2 .67 2 1.5z" fill="#E20A17"/><path d="M37 26h-2.75a.25.25 0 00-.25.25.26.26 0 00.25.26c.75.03.75.24.75.49v5c0 .42-.35.49-.75.5a.26.26 0 00-.25.25c0 .14.11.25.25.25h3.5a.25.25 0 00.25-.25.26.26 0 00-.25-.26c-.32-.02-.75-.1-.75-.49v-6zm1 0h1a2 2 0 110 4h-1v-1h.5a.5.5 0 00.5-.5v-1a.5.5 0 00-.5-.5H38v-1zm6.14 5l.22.78c.07.36-.02.54-.13.63-.1.09-.23.2-.23.34s.11.25.25.25h2.5a.25.25 0 00.25-.25c0-.14-.11-.28-.21-.38-.1-.1-.25-.32-.39-.7l-.1-.35L44.82 26h-2.08l1.1 3.87a.1.1 0 01-.1.13h-.93l-.3 1h1.64z"/><path d="M41.15 31.58l1.26-4.27.31 1.08-.92 3.11c-.2.67.18.89.45.96.14.04.25.15.25.29a.25.25 0 01-.25.25H40.6a.24.24 0 01-.24-.24c0-.13.12-.23.24-.29.17-.08.39-.3.55-.89z"/></svg>