<!-- by TradingView --><svg xmlns="http://www.w3.org/2000/svg" width="56" height="56"><path fill="#AFCC1A" d="M0 0h56v56H0z"/><path d="M26.02 17.2c-9.36-3.73-13.08 3.26-14 8.36-.13.72.45 1.34 1.2 1.34.57 0 1.07-.39 1.23-.93 1.4-4.88 3.3-6.93 7.32-6.93 1.86 0 3.64.83 4.92 1.47.48.24 1.04.26 1.55.09 8.75-3 10.08 3.06 10.08 7.22 0 4.98-4.25 13.86-11.35 13.86-5.73 0-9-2-12.09-8.25a1.5 1.5 0 00-2.08-.63c-.57.33-.83 1-.6 1.6 3.56 9.77 11.1 10.65 14.76 10.6C36.17 44.88 44 36.72 44 27.82c0-10.72-8.99-12.47-13.24-11.09 0-.67 2-1.83 3.09-2.41a.95.95 0 00.47-1.1l-.45-1.57a.9.9 0 00-1.2-.59 12.69 12.69 0 00-6.65 6.13z" fill="#fff"/></svg>