<!-- by TradingView --><svg xmlns="http://www.w3.org/2000/svg" width="56" height="56"><path fill="#F0F3FA" d="M0 0h56v56H0z"/><path d="M10 39l2.44-4.1s6.27-2.85 10.67-2.85c0 0 4.15-.5 11.16 1.75 0 0 5.62 1.42 8.7.16L46 39H10z" fill="#0240AD"/><path d="M28 9l-4.73 7.43c.1-.02.27 0 .27 0a10.5 10.5 0 015.2 2.5c.27-.3.59-2.5.59-2.5 1.96 1.64.9 3.84.9 3.84.32.15 1.54 1.64 1.54 1.64 1.38 2.05 1.06 3.07 1.06 3.07-.1 1.8-1.8 2.51-1.8 2.51-.32.31-.32 2.82-.32 2.82-.1.62-.59.3-.59.3-.68-.65-1.16-1.74-1.53-2.6-1.85-3.31-4.01-5.59-7.92-6.15l-2.12 2.35h2.44l-6.26 6.77c8.12-1.6 12.37-.57 12.37-.57 11.15 3.28 14.17.46 14.17.46l-6.1-6.6h2.44l-7.17-7.64h2.29L28 9zm2.5 17a.5.5 0 100-1 .5.5 0 000 1z" fill="#007030"/></svg>