<!-- by TradingView --><svg width="56" height="56" viewBox="0 0 56 56" xmlns="http://www.w3.org/2000/svg"><path fill="#F0F3FA" d="M0 0h56v56H0z"/><path d="M37.6 22h.8v.55c.11.03.22.08.33.14l.4-.42.56.57-.4.41c.08.12.14.26.17.4H40v.82h-.57c-.04.1-.08.2-.14.3l.4.4-.56.58-.41-.42.02-.02c-.1.06-.22.1-.34.14V26h-.8v-.55a1.5 1.5 0 0 1-.34-.14l.02.02-.41.42-.56-.58.4-.4a1.49 1.49 0 0 1-.15-.36H36v-.82h.56c.03-.12.08-.23.14-.34l-.4-.4.57-.58.4.42c.1-.06.22-.1.33-.14V22Zm.4 2.75a.75.75 0 1 0 0-1.5.75.75 0 0 0 0 1.5ZM4 33.5v-10l.5-.5h3L9 25.1v.9h1v-.9l1.5-2.1h3l.5.5v10.01l-.5.49h-3l-.5-.5v-2.69L9.53 34 8 30.81v2.69l-.5.5h-3l-.5-.5Zm23-.03v-9.94l.5-.53h3l.5.53v2.56l1.16-3.06h2.92l.51.5L34 28.47l1.75 5-.51.5h-3.08L31 31.27v2.2l-.5.53h-3l-.5-.53ZM16.5 34l-.5-.5v-10l.5-.5h9l.5.5v10l-.5.5h-3l-.5-.5V31h-2v2.5l-.5.5h-3Zm5.5-8h-2v2h2v-2Zm14 7.5v-6l.5-.5h3l.5.5v6l-.5.5h-3l-.5-.5Zm5 0v-10l.5-.5h3.02L46 25.1v.9h1v-.9l1.54-2.1h3.02l.44.5v10.01l-.44.49h-3.02l-.54-.5v-2.44L46.56 34 45 31.06v2.44l-.48.5H41.5l-.5-.5Z" fill="#14457D"/></svg>