<!-- by TradingView --><svg width="56" height="56" xmlns="http://www.w3.org/2000/svg"><path fill="#EE7421" d="M0 0h56v56H0z"/><path d="M20 20a7.997 7.997 0 004.011 6.936l2.242-2.25a5.002 5.002 0 01.247-9.457V25h3v-9.771a5.002 5.002 0 01.242 9.46l2.298 2.217A8 8 0 1020 20z" fill="#fff"/><path d="M12 34.034A8.037 8.037 0 0016.011 41l2.242-2.26A5.023 5.023 0 0115 34.034a5.021 5.021 0 013.5-4.791v9.813h3v-9.814a5.021 5.021 0 013.501 4.792 5.022 5.022 0 01-3.259 4.709l2.298 2.227A8.037 8.037 0 0028 34.034C28 29.597 24.418 26 20 26s-8 3.597-8 8.034z" fill="#fff"/><path d="M36.034 42A8.037 8.037 0 0043 37.989l-2.26-2.242A5.023 5.023 0 0136.034 39a5.021 5.021 0 01-4.791-3.5h9.813v-3h-9.814a5.021 5.021 0 014.792-3.501 5.022 5.022 0 014.709 3.259l2.227-2.298A8.037 8.037 0 0036.034 26C31.597 26 28 29.582 28 34s3.597 8 8.034 8z" fill="#fff"/></svg>