<!-- by TradingView --><svg xmlns="http://www.w3.org/2000/svg" width="56" height="56" viewBox="0 0 56 56"><path fill="#F0F3FA" d="M0 0h56v56H0z"/><path fill="#DC5B0D" d="M5 33h46v2H5z"/><path d="M5 22.93V31h2v-7.67l2.08 6.86c.21.59.47.81 1.01.81.5 0 .75-.41.9-.8L13 23.32V31h2v-8.07c0-.64-.37-1.93-1.94-1.93-1.57 0-2.19 1.36-2.27 1.93l-.67 3.33-.89-3.33v-.01c-.17-.76-.44-1.96-2.15-1.92-1.7.05-2.1 1.3-2.08 1.93zm12.87-.5L15.25 31h2.15l2.5-7.87L22.6 31h2.15l-2.73-8.57c-.27-.66-.77-1.43-2.12-1.43-1.24 0-1.83.86-2.03 1.43zM33.25 31l2.62-8.57c.2-.57.79-1.43 2.03-1.43 1.35 0 1.85.77 2.12 1.43L42.75 31h-2.16l-2.69-7.87L35.4 31h-2.15zM25 22.77V31h2v-7.93l2.05 6.39.04.13c.17.49.49 1.41 2.09 1.41 1.4 0 1.82-1.26 1.82-2.14V21h-2v7.86l-2.12-6.5c-.47-1.28-1.54-1.36-2.03-1.36A1.8 1.8 0 0 0 25 22.77zM43 24a3 3 0 0 1 3-3h4.68v2H46a1 1 0 1 0 0 2h2a3 3 0 0 1 0 6h-4.62v-2h4.6a1 1 0 1 0 0-2H46a3 3 0 0 1-3-3z" fill="#0C3C51"/></svg>