<!-- by TradingView --><svg width="56" height="56" viewBox="0 0 56 56" xmlns="http://www.w3.org/2000/svg"><path fill="#F0F3FA" d="M0 0h56v56H0z"/><path d="M8.05 31H14l.05 1.81h-.24c-.13-.57-.26-.95-.48-1.1-.18-.17-.58-.28-1.2-.28h-.58v5.43c0 .41.05.68.18.76.14.11.4.16.83.2V38H9.52v-.19c.45-.03.72-.1.83-.22.1-.1.16-.4.16-.86v-5.27h-.59c-.59 0-.99.08-1.2.24-.21.16-.37.54-.48 1.11H8L8.05 31ZM17.4 31v.18c-.38.03-.63.11-.73.21-.1.11-.17.35-.17.74v3.32c0 .55.07.97.2 1.26.27.55.75.84 1.5.84.8 0 1.35-.29 1.62-.84.15-.32.18-.82.18-1.47v-2.71c0-.56-.03-.92-.15-1.06-.13-.13-.38-.23-.73-.26V31h2.28v.18c-.37.06-.62.14-.75.3-.13.15-.18.5-.18 1.05v2.68c0 .71-.1 1.26-.3 1.68-.37.74-1.12 1.11-2.2 1.11-1.07 0-1.8-.37-2.17-1.1-.2-.37-.3-.9-.3-1.53v-3.24c0-.37-.05-.63-.18-.74-.1-.1-.35-.18-.72-.2V31h2.8ZM25.63 34.14c.56-.24.82-.67.82-1.29s-.24-1.02-.74-1.26a2.82 2.82 0 0 0-1.6-.13c-.06.05-.11.13-.11.3v2.6c.77 0 1.3-.09 1.63-.22Zm-3.58 3.65c.4-.03.67-.11.75-.25.1-.1.2-.4.2-.83v-4.56c0-.37-.1-.61-.2-.72-.1-.1-.35-.19-.75-.22V31h2.9c.62 0 1.13.08 1.53.24.77.3 1.15.83 1.15 1.61 0 .54-.16.94-.51 1.2-.35.28-.8.46-1.39.57l2.16 2.68c.14.16.27.3.4.35.14.08.3.14.5.14v.18h-1.67l-2.61-3.24-.51.02v2.1c0 .4.08.64.21.75.1.1.38.16.78.21V38h-2.94v-.21ZM29.17 37.76c.36-.05.62-.1.72-.21.1-.1.1-.35.1-.75v-4.65c0-.37 0-.62-.1-.72-.1-.1-.36-.19-.72-.22V31h5.38l.03 1.5h-.26c-.08-.46-.2-.78-.39-.91-.18-.14-.56-.22-1.16-.22H31.4c-.16 0-.24.03-.29.08-.02.06-.1.14-.1.27v2.35h1.62c.44 0 .7-.05.82-.18.13-.14.21-.4.29-.8H34v2.45h-.27c-.08-.4-.18-.66-.29-.8-.12-.13-.38-.19-.82-.19H31v2.6c0 .21.1.32.23.37.13.03.52.05 1.13.05.7 0 1.19-.08 1.52-.24.34-.16.62-.53.88-1.12h.28l-.46 1.8h-5.4v-.25ZM35.57 37.84c.41-.03.67-.1.77-.24.1-.11.15-.4.15-.87v-4.57c0-.38-.05-.62-.15-.76-.1-.1-.36-.18-.74-.21V31h2.86v.19c-.38.03-.64.08-.77.21-.1.11-.18.38-.18.76v2.18c.62-.57 1.13-1.02 1.51-1.43.72-.7 1.05-1.16 1.05-1.34 0-.14-.05-.25-.18-.27-.12-.06-.28-.06-.5-.06V31h2.63v.19c-.34.03-.57.1-.77.19-.18.1-.44.3-.77.64l-1.97 1.91 2.4 2.72c.44.49.75.81.9.92.16.13.39.19.7.24V38h-3.08v-.19c.28 0 .46-.03.57-.08.1-.03.15-.1.15-.21a.51.51 0 0 0-.1-.27c-.05-.11-.16-.27-.31-.43L37.8 34.6l-.31.3v1.9c0 .4.05.65.18.76.1.1.36.19.74.21V38h-2.84v-.16ZM43.52 35.8c.19.46.37.82.61 1.07.43.46.94.7 1.55.7.35 0 .61-.1.88-.31.24-.2.37-.5.37-.85 0-.33-.13-.62-.37-.85-.16-.15-.5-.38-1.01-.69l-.91-.54a3.33 3.33 0 0 1-.64-.48c-.3-.31-.45-.67-.45-1.06 0-.5.18-.92.53-1.28.35-.33.83-.51 1.39-.51.24 0 .53.05.85.18.35.1.53.18.59.18.13 0 .2-.03.26-.08s.08-.15.1-.25h.22l.24 2.15h-.24a2.26 2.26 0 0 0-.82-1.36 1.97 1.97 0 0 0-1.12-.38c-.3 0-.54.07-.75.25a.78.78 0 0 0-.32.67c0 .26.08.49.24.67.16.18.43.38.77.59l.94.53c.58.34.98.67 1.22.95.24.28.35.64.35 1.03 0 .54-.21.97-.61 1.33-.43.36-.94.54-1.6.54-.32 0-.67-.05-1.02-.18a2.9 2.9 0 0 0-.61-.18c-.13 0-.21.03-.24.1a.4.4 0 0 0-.08.23h-.24l-.32-2.15h.24v-.03ZM22.12 14h11.76l.12 4h-.5c-.24-1.24-.53-2.1-.93-2.48-.37-.39-1.16-.52-2.36-.52H29v11.49c0 .88.17 1.46.42 1.65.24.22.79.36 1.65.42V29h-6.09v-.44c.89-.08 1.43-.25 1.65-.5.22-.25.37-.88.37-1.88V15h-1.2c-1.16 0-1.93.16-2.35.52-.42.36-.74 1.24-.93 2.48H22l.12-4Z" fill="#262626"/></svg>