<!-- by TradingView --><svg width="56" height="56" viewBox="0 0 56 56" xmlns="http://www.w3.org/2000/svg"><path fill="#F0F3FA" d="M0 0h56v56H0z"/><path d="M29.05 11A17.01 17.01 0 0 1 44.8 25.5c.17 1.16.2 2.26.2 3.43a17.23 17.23 0 0 1-4.07 10.1 16.99 16.99 0 0 1-25.3.63A17.2 17.2 0 0 1 11 28.68c0-4.24 1.19-8.3 3.95-11.6A16.86 16.86 0 0 1 26.98 11h2.07Z" fill="#5D5D5D"/><path d="M28.04 11.61a16.5 16.5 0 0 1 14.05 8.18 16.04 16.04 0 0 1-.02 16.48 16.51 16.51 0 0 1-14.14 8.12 16.51 16.51 0 0 1-14.08-8.21 16.04 16.04 0 0 1 .08-16.47 16.51 16.51 0 0 1 14.1-8.1Z" fill="#A9A9A9"/><path d="M27.74 30.4c.24 0 .44-.15.6-.45a1192.52 1192.52 0 0 0 1.41-6.07c.53-2.27 2.8-3.39 5-3.38 1.14.01 2 .56 2.64 1.48a.43.43 0 0 0 .3.18c.28.02.53.07.75.16 2.09.75 2.55 2.57 2.14 4.6a.08.08 0 0 1-.12.06c-.39-.26-.8-.4-1.24-.42-.7-.04-1.3.02-1.44.82-.1.53-.14 1.04-.13 1.53 0 .66.04 1.77.1 3.33A3.99 3.99 0 0 0 39 35.05c.03.04.06.09.07.14 0 .06 0 .12-.02.17a.3.3 0 0 1-.46.16c-.83-.55-1.36-1.85-1.43-2.74-.15-1.8-.2-3.4-.14-4.8.02-.38.11-.78.28-1.2.4-1 1.72-1.01 2.61-.79a.15.15 0 0 0 .14-.02.15.15 0 0 0 .06-.13c-.04-1.93-1-2.95-2.89-3.04a.23.23 0 0 1-.2-.13 2.53 2.53 0 0 0-2.66-1.49c-1.9.17-3.57 1.05-4 3-.17.84-.62 2.8-1.34 5.87-.13.58-.7 1-1.27 1-.57 0-1.14-.42-1.28-1l-1.34-5.86c-.43-1.96-2.1-2.84-3.99-3.01-1.22-.1-2.1.39-2.67 1.49a.24.24 0 0 1-.2.13c-1.88.09-2.84 1.1-2.88 3.04a.15.15 0 0 0 .2.15c.9-.22 2.2-.2 2.6.79.18.42.27.82.29 1.2.06 1.39.01 2.99-.14 4.8-.07.89-.6 2.2-1.43 2.74a.31.31 0 0 1-.47-.16.35.35 0 0 1 0-.17c0-.06.02-.1.06-.14.78-.76 1.2-1.7 1.24-2.81.06-1.57.1-2.67.1-3.33 0-.5-.04-1-.13-1.53-.14-.8-.74-.86-1.44-.82a2.47 2.47 0 0 0-1.28.43.08.08 0 0 1-.07-.03.08.08 0 0 1-.01-.04c-.41-2.03.05-3.85 2.14-4.6.22-.09.47-.14.75-.16a.42.42 0 0 0 .3-.18 3.13 3.13 0 0 1 2.64-1.48c2.2 0 4.47 1.1 5 3.38a1192.52 1192.52 0 0 0 1.4 6.07c.17.3.37.46.61.46Z" fill="#fff"/></svg>