<!-- by TradingView --><svg width="56" height="56" viewBox="0 0 56 56" xmlns="http://www.w3.org/2000/svg"><path fill="#F0F3FA" d="M0 0h56v56H0z"/><path d="m30.32 24 .01.59c.4-.32.85-.52 1.37-.59 1.32.01 2.17.6 2.56 1.74.09.46.1.92.03 1.38a2.43 2.43 0 0 1-3.94 1.36c-.03.71-.04 1.8-.03 2.52H29v-7h1.32Zm-15.48.01c.9-.07 1.63.22 2.21.88.1.11.18.24.25.38.22.5.32 1.17.3 1.73h-3.77c.04.32.19.45.43.66.72.42 1.4.35 2.02-.2.35.15.69.32 1.02.5-.27.36-.6.64-1.01.84-.75.27-1.5.27-2.26 0a2.46 2.46 0 0 1-1.43-2.25 2.6 2.6 0 0 1 1-2.09c.38-.26.8-.35 1.24-.45ZM20 24h.75v1H20v4h-1.34v-4h-.64v-1h.64v-2H20v2Zm2.13 0c-.01.16 0 .47.01.63.1-.15.23-.29.37-.42l.55-.2c.23-.02.46.02.67.11l.04.06c-.13.33-.26.66-.37 1a.13.13 0 0 1-.07.03c-.36-.16-.64-.08-.83.24-.14.3-.2.6-.2.93-.01.87-.02 1.75-.01 2.62H21v-5h1.13Zm15.11 0a2.63 2.63 0 0 1 2.4 1.18 2.6 2.6 0 0 1-.28 3.03c-.72.7-1.6.94-2.62.7-1.41-.6-1.96-1.64-1.66-3.14.38-1 1.1-1.59 2.16-1.77ZM42 29h-1.3v-7H42v7ZM6.54 22c.29.87.57 1.75.84 2.63l.74 2.12.73-2.12c.27-.88.55-1.76.84-2.63h1.38c.35 2.33.74 4.66 1.16 6.98l-.66.02c-.23 0-.47-.02-.69-.06-.24-1.4-.49-2.8-.72-4.21-.49 1.4-.97 2.82-1.43 4.24-.41.03-.82.04-1.23.01-.46-1.42-.94-2.84-1.43-4.25-.24 1.43-.49 2.85-.75 4.27H4a248 248 0 0 1 1.06-6.18l.1-.82h1.38Zm19.19 2a2.6 2.6 0 0 1 2.57 1.49c.4 1.09.2 2.04-.6 2.87-.35.28-.76.47-1.2.59a2.45 2.45 0 0 1-2.19-.59 2.56 2.56 0 0 1-.6-2.9A2.61 2.61 0 0 1 25.73 24Zm5.65 1.15c-.12.05-.25.1-.39.13-.09.07-.18.13-.29.18-.55.62-.6 1.27-.16 1.95.41.44.93.58 1.55.43.74-.34 1.04-.9.9-1.66-.23-.74-.77-1.08-1.61-1.03Zm6.1 0c-.78.1-1.2.56-1.27 1.35 0 .51.2.9.62 1.2.56.25 1.08.19 1.56-.2.25-.3.32-.62.4-1-.06-.82-.5-1.27-1.3-1.36Zm-11.51-.01c-.2.04-.4.1-.6.17-.31.2-.51.48-.61.84-.1.43-.03.84.22 1.2l.3.31c.36.2.74.24 1.13.13.74-.37 1-.96.78-1.78a1.29 1.29 0 0 0-1.22-.87Zm-10.93-.1c-.56.06-.95.44-1.18.96h2.5c-.06-.16-.13-.4-.23-.53a1.6 1.6 0 0 0-1.09-.44ZM32.84 30c.52 0 .99.15 1.41.44.13.1.24.23.32.37l-.16.21-.32.24-.44-.32a1.3 1.3 0 0 0-1.54.15c-.4.5-.46 1.04-.18 1.63.5.58 1.1.7 1.78.33l.35-.3c.05.01.1.03.13.07l.35.36c.03.03.03.06.02.1-.69.7-1.5.9-2.45.56-1-.6-1.32-1.47-.98-2.6.35-.78.98-1.24 1.71-1.24Zm4.68 4h-.74l-.01-.31c-.43.34-.9.4-1.4.18a1.56 1.56 0 0 1-.73-1.38c.01-.73.34-1.22.99-1.47.44-.07.81.04 1.14.33.01-.1.02-.25.01-.35h.74v3Zm1.44-3c.17 0 .34 0 .51.04-.08.2-.14.42-.19.64-.12 0-.24.01-.37.04-.07.1-.14.21-.19.34-.04.64-.06 1.3-.05 1.94H38v-2.96h.58c-.01.1 0 .2.03.3.08-.15.2-.27.35-.34ZM42 34h-.74l-.01-.34c-.53.43-1.07.43-1.6 0a1.67 1.67 0 0 1-.3-1.97c.46-.7 1.07-.85 1.82-.44l.06.08c.03-.44.04-.89.03-1.33H42v4Zm-5.99-2.32a.82.82 0 0 0-.52.36c-.23.47-.14.87.25 1.19.49.17.83.02 1.03-.46.1-.64-.15-1-.76-1.09Zm4.52 0a.96.96 0 0 0-.55.38c-.16.4-.1.75.16 1.07.35.21.68.18 1-.08.27-.45.23-.85-.13-1.22a.85.85 0 0 0-.48-.14Z" fill="#1F204B"/><path d="M48.17 22.4a.2.2 0 0 1-.14.15c.03.01.06.03.07.05-.2-.05-.4-.1-.6-.18a6.24 6.24 0 0 0-1.13-.03c-.27.04-.52.1-.77.18-.01 0-.03 0-.03-.02a.71.71 0 0 1 .18-.18.16.16 0 0 0 .02-.1c.45-.15.92-.2 1.4-.14l.8.16c.06.05.13.09.2.12Z" fill="#A01C17"/><path d="M48.1 22.6c.18.08.35.18.5.3h-.17c-.24-.12-.49-.22-.75-.3a3.91 3.91 0 0 0-.65-.1 3.12 3.12 0 0 0-2.41.89c-.17.2-.33.4-.47.62-.1.22-.2.44-.28.67-.06.36-.08.72-.07 1.09.03.26.08.5.17.75 0 .06 0 .12-.04.16-.03 0-.05-.01-.06-.05a3.74 3.74 0 0 1-.2-1.58c.15-.87.59-1.58 1.3-2.12.2-.13.42-.25.63-.36.25-.08.5-.14.77-.18.38-.02.75-.01 1.13.03l.6.18Z" fill="#A7A1A0"/><path d="M47.03 22.5c.13.11.22.24.29.4.04.2.1.4.15.58h-.4v-.36h-.1c-.07.43-.1.86-.07 1.31v.1a5.97 5.97 0 0 1-.55 1.83.25.25 0 0 0-.12.1h-.26a1.42 1.42 0 0 1-.17-.05.43.43 0 0 0-.18-.18 4.88 4.88 0 0 1-.05-.95c-.1.03-.19.05-.29.06-.1 0-.19-.03-.28-.06 0 .34 0 .67-.03 1.01a1.92 1.92 0 0 1-1.17-.52c-.01-.37.01-.73.07-1.1.08-.22.18-.44.28-.66.14-.22.3-.43.47-.62a3.12 3.12 0 0 1 2.41-.89Z" fill="#FCFCFC"/><path d="m48.17 22.4.43.2.47.31c.1.11.08.2-.04.28-.03 0-.07 0-.1-.02-.1-.1-.2-.2-.33-.27a2.51 2.51 0 0 0-.5-.3.11.11 0 0 0-.07-.05.2.2 0 0 0 .14-.14Z" fill="#B01E18"/><path d="M44.77 22.67a.22.22 0 0 1-.17.1c.03-.08.09-.11.17-.1Z" fill="#E26646"/><path d="M50.1 24.2a.22.22 0 0 0-.03.17.3.3 0 0 0-.09-.07c-.04.05-.1.1-.15.13a.83.83 0 0 1-.16-.37c-.2-.3-.4-.6-.64-.87.12-.08.14-.17.04-.28a5 5 0 0 0-.47-.3 47.07 47.07 0 0 0-.63-.32l-.8-.16c-.48-.06-.95 0-1.4.15h-.04a.23.23 0 0 0-.16-.04l.23-.11c1.4-.33 2.6-.02 3.62.93.15.17.3.36.43.55.12.19.2.38.25.6Z" fill="#C4221A"/><path d="m44.6 22.77-.32.35-.25.2c0-.04 0-.07.04-.1.1-.1.2-.19.28-.3.08-.06.16-.11.25-.15Z" fill="#D4492E"/><path d="M46.97 23.12c.02.45 0 .89-.07 1.31-.02-.45 0-.88.07-1.3Z" fill="#474269"/><path d="M46.97 23.12h.1v.36h.9c.03-.09.04-.19.03-.29h.1a8.22 8.22 0 0 0 .07 1.34.1.1 0 0 1-.05-.07c-.03.88-.02 1.75.01 2.61l.27.1a.84.84 0 0 1 .27-.03v.1h.1V27a.4.4 0 0 0 .2-.03h.1c0 .08-.01.15-.04.23-.17.11-.32.25-.46.4a.52.52 0 0 1-.24.09H44.8c-.15-.07-.2-.2-.18-.36-.07.07-.12.07-.15 0l.28-.36c.11-.22.18-.45.22-.69.02-.34.03-.67.03-1.01l.28.06c.1 0 .2-.03.29-.06-.02.32 0 .63.05.95.08.04.14.1.18.18l.17.04c0 .04 0 .06-.04.07a.82.82 0 0 1-.35-.26c-.03.11 0 .2.1.26.14.05.28.07.42.07.1.03.2.04.3.03v.1h.13l.37.03c0-.07 0-.13-.02-.2-.1.05-.2.07-.31.07-.04 0-.06 0-.07-.03.1 0 .2-.02.3-.05.05-.01.09-.04.1-.09.04-.27.07-.56.07-.86 0-.36-.03-.71-.07-1.06v-.1c.07-.42.09-.86.07-1.3Z" fill="#262650"/><path d="M45.57 22.24c.06 0 .12 0 .16.04a4.82 4.82 0 0 0-2.16 2.12.58.58 0 0 1 0-.33l.16-.33c.07-.01.1-.06.1-.13a.18.18 0 0 0 .14-.16c-.01-.06.01-.1.06-.13l.25-.2.32-.35c.07-.01.13-.05.17-.1 0-.03 0-.06.03-.08.07-.03.14-.05.2-.09.04 0 .07-.02.07-.06.15-.1.32-.17.5-.2Z" fill="#E5B19D"/><path d="M48.5 23c.4.24.71.56.93.97.01.21 0 .42-.05.62-.07.18-.12.37-.16.56-.09.12-.15.26-.19.4l-.33.51a.19.19 0 0 1-.1.04c-.13-.4-.24-.8-.33-1.21.05-.06.1-.12.13-.2.17-.56.2-1.12.1-1.7Z" fill="#E5E4E5"/><path d="M43.97 23.45c-.01.08-.06.14-.14.16 0-.09.04-.14.14-.16Z" fill="#DF7858"/><path d="M47.93 24.23v-.49h-.86c.28-.06.58-.08.9-.06 0 .2 0 .38-.04.55Z" fill="#827B98"/><path d="M48.43 22.9h.17c.12.07.24.16.33.27.03.02.07.02.1.02.24.28.45.56.64.87.02.14.08.26.16.37l.07.33a.46.46 0 0 1-.23-.4 2.26 2.26 0 0 0-.24-.39 2.53 2.53 0 0 0-.93-.98.23.23 0 0 1-.07-.1Z" fill="#C0B8B7"/><path d="M47.07 23.74h.86v.5c-.04.12-.08.25-.1.39a5 5 0 0 0-.2.65c-.18.03-.37.04-.56.03v-1.57Z" fill="#F6F6F7"/><path d="M45.73 22.28h.04c0 .03 0 .06-.02.1a.7.7 0 0 0-.18.17c0 .02.02.02.03.02l-.63.36a3.31 3.31 0 0 0-1.3 2.12l-.19.13a1.73 1.73 0 0 1 .08-.78 4.82 4.82 0 0 1 2.17-2.12Z" fill="#9B251B"/><path d="M47.97 25.31h-.04c.02-.25 0-.49-.06-.72.04-.04.07-.1.08-.16.02.3.02.59.02.88Z" fill="#ACA6BA"/><path d="M48.17 24.53c.04.01.06.05.06.1l.04.26c.09.4.2.8.33 1.2l.37.89a.4.4 0 0 1-.2.03.16.16 0 0 1 .13-.03 9.43 9.43 0 0 1-.75-2.35c-.02.81-.02 1.63-.02 2.44-.04-.86-.04-1.73-.01-2.6 0 .02.02.04.05.06Z" fill="#484469"/><path d="M47.87 24.6c.06.22.08.46.06.71h-.23l.17-.62v-.1Z" fill="#EEEDEF"/><path d="M49.43 23.97c.1.12.17.25.24.4 0 .17.08.3.23.39.02.08.03.17.03.26-.02.11 0 .21.07.3v.45c-.06.03-.08.09-.07.16 0 .12-.02.23-.06.33.01-.15-.02-.17-.1-.05-.11.45-.32.84-.64 1.16h-.06a.3.3 0 0 1-.04-.16.69.69 0 0 0 .04-.23h-.1l-.37-.88c.04 0 .07-.02.1-.04.1-.17.21-.34.33-.5.04-.15.1-.29.19-.41.04-.2.1-.38.16-.56.04-.2.06-.4.05-.62Z" fill="#D9D7D8"/><path d="M46.9 24.53c.04.35.06.7.07 1.06 0 .3-.03.59-.07.86 0-.5 0-1.02-.02-1.53a3.94 3.94 0 0 1-.5 1.47.15.15 0 0 1-.15.06.25.25 0 0 1 .12-.1c.28-.58.47-1.18.55-1.82Z" fill="#4D486D"/><path d="M47.83 24.63c0 .03 0 .05.04.06l-.17.62h.27a.34.34 0 0 1-.34-.03 5 5 0 0 1 .2-.65Z" fill="#524D71"/><path d="M49.93 25.02c.07.08.09.18.07.3a.36.36 0 0 1-.07-.3Z" fill="#D79B88"/><path d="M50.07 24.37a3.44 3.44 0 0 1-.49 3.1c-.44.56-1 .96-1.7 1.2l-.48.1c-.33.05-.66.08-1 .07a3.39 3.39 0 0 1-.77-.25c.09-.04.17-.1.24-.14l.16.03h.07c.02.05.07.08.13.06.36.04.71.04 1.07.02.07 0 .13-.03.17-.08.15-.01.31-.04.46-.08.93-.37 1.56-1 1.9-1.93a.94.94 0 0 0 .04-.21c.04-.1.06-.21.06-.33.06-.03.08-.09.07-.16v-.46a.36.36 0 0 0-.07-.3 2.65 2.65 0 0 0-.1-.59c.06-.03.1-.07.15-.12a.3.3 0 0 1 .09.07Z" fill="#D41718"/><path d="M47.07 25.6h.43c0 .06 0 .12-.02.17l-.18.34c-.03.02-.05.02-.07-.02a.55.55 0 0 0-.1-.2c-.03-.09-.05-.18-.06-.28Z" fill="#EDEDEE"/><path d="M47.87 27.01c.06-.46.08-.92.06-1.4h-.33c.1-.07.23-.09.37-.07v1.5c-.05.01-.08 0-.1-.03Z" fill="#9893A8"/><path d="M45.47 25.48v.58h-.24a3.13 3.13 0 0 1-.1-.52c.1-.06.2-.08.34-.06Z" fill="#F6F5F6"/><path d="m45.1 25.8.07.21-.04.05a.54.54 0 0 1-.03-.26Z" fill="#EDEBEF"/><path d="M46.9 26.45c-.01.05-.05.08-.1.09-.1.03-.2.04-.3.05h-.4c-.14 0-.28-.02-.42-.07-.1-.06-.13-.15-.1-.26.1.12.21.2.35.26.09.04.17.04.27.02a.1.1 0 0 0 .03-.09c.07.01.12-.01.15-.06.27-.45.43-.94.5-1.47.02.51.03 1.02.02 1.53Z" fill="#EDECEE"/><path d="M50 25.77c.01.07 0 .13-.07.16-.01-.07.01-.13.07-.16Z" fill="#DD7359"/><path d="M43.8 25.77c.32.3.7.48 1.17.52-.04.24-.1.47-.22.69l-.28.36a2 2 0 0 1-.27-.33 4.98 4.98 0 0 0-.23-.49c-.09-.24-.14-.5-.17-.75Z" fill="#EEEDEE"/><path d="M47.2 26.26c-.02 0-.03 0-.03.03l-.07.07a.7.7 0 0 1 0-.43c.05.1.09.21.1.33Z" fill="#EBEBEC"/><path d="M47.6 25.64c-.07.21-.17.4-.3.59 0-.03 0-.05-.03-.07a1.4 1.4 0 0 1-.07.1.96.96 0 0 0-.1-.33.7.7 0 0 0 0 .43l.07-.07v.07c0 .02-.01.03-.04.03h-.1v-.49h.1c.05.06.08.12.1.2.02.03.04.03.07.01l.18-.34c.02-.05.03-.1.02-.16h-.43c.14-.07.3-.09.46-.07 0 .06.02.09.07.1Z" fill="#5A5477"/><path d="M47.6 25.6h.33c.02.49 0 .95-.06 1.41a.34.34 0 0 1-.24-.1.16.16 0 0 0-.1-.13 6.13 6.13 0 0 1-.23-.55c.13-.18.23-.38.3-.6v-.02Z" fill="#E5E4E5"/><path d="M48.77 27.01v.23h-.1v-.1c-.1 0-.18 0-.27.03a2.4 2.4 0 0 1-.27-.1c0-.81 0-1.63.02-2.44.15.81.4 1.6.75 2.35-.05-.01-.1 0-.13.03Z" fill="#DDDCDD"/><path d="M45.1 26.16h.17l.01.1c.13.09.2.2.19.36a8 8 0 0 1-.35.13c-.02-.2-.03-.4-.02-.59Z" fill="#EAE9EC"/><path d="M47.13 26.39c.03 0 .04-.01.04-.03a.16.16 0 0 1 .13-.07c0 .11.04.22.1.31a.63.63 0 0 1-.2.02v.23h-.13a.9.9 0 0 1 .06-.46Z" fill="#DCDADE"/><path d="M45.57 26.52c.25.07.25.1 0 .1v-.1Z" fill="#B3AEBF"/><path d="M46.1 26.59h.4c.01.02.03.03.07.03 0 .03-.02.07-.04.1h-.13v-.1a.7.7 0 0 1-.3-.03Z" fill="#7A7491"/><path d="m43.47 24.99.01.2c.06-.06.12-.1.19-.14-.05.54.02 1.07.2 1.58 0 .04.03.05.06.05.03.1.06.2.1.28l.24.38c-.07.01-.13.03-.19.06a.16.16 0 0 1-.1-.06 3.25 3.25 0 0 1-.58-1.88c0-.17.02-.33.07-.47Z" fill="#AC1F19"/><path d="M45.4 26.78a.5.5 0 0 1 .07.26l-.07.5h-.3c-.01-.22 0-.42.03-.63.1-.02.2-.07.27-.13Z" fill="#E6E5E7"/><path d="M47.53 26.78c.06.02.1.07.1.13h-.16l.01-.16.04.1a.08.08 0 0 0 .01-.07Z" fill="#676281"/><path d="M46.9 27.24a.38.38 0 0 0-.3.06v.23c-.06.01-.12 0-.17-.03a.41.41 0 0 0-.16-.03.23.23 0 0 0-.17.06h-.23v-.13h-.24a2 2 0 0 1-.06-.65c.13 0 .25 0 .38.03.32.08.64.18.95.3v.16Z" fill="#E4E3E5"/><path d="M49.87 26.26c0 .07-.02.14-.04.21a3.17 3.17 0 0 1-1.9 1.93c-.15.04-.3.07-.46.08-.05 0-.1 0-.14-.03.24-.1.48-.17.72-.23l.52-.28a.5.5 0 0 1 .2-.18.43.43 0 0 1 .26-.16.6.6 0 0 1 .1-.23c.32-.32.53-.7.64-1.16.08-.12.11-.1.1.05Z" fill="#F6EDEB"/><path d="M44.97 27.01c.03.44.03.52 0 .23-.08 0-.16 0-.24-.02a.8.8 0 0 1 .24-.21Z" fill="#E2E0E3"/><path d="M47.07 27.17c.03 0 .07.01.1.04.03.1.04.21.03.32h-.13v-.36Z" fill="#D2D0D5"/><path d="M47.47 27.37c.04 0 .09 0 .13.02.07.05.15.1.23.13-.12.01-.24.02-.36.01v-.16Z" fill="#CECCD1"/><path d="M49.03 27.2c0 .06.01.12.04.17a4.2 4.2 0 0 1-.44.3.1.1 0 0 0-.03.09h-.27v-.06c.09-.01.16-.04.24-.09.14-.15.3-.29.46-.4Z" fill="#ACA6BB"/><path d="M49.07 27.37h.06a.6.6 0 0 0-.1.23.43.43 0 0 0-.26.16h-.17c0-.03 0-.06.03-.08l.44-.31Z" fill="#49446A"/><path d="M44.9 27.76h3.87a.5.5 0 0 0-.2.18l-.52.28c-.24.06-.48.13-.72.23.04.03.09.04.14.03-.04.05-.1.08-.17.08-.36.02-.71.02-1.07-.02-.02-.05-.06-.07-.13-.06h-.07a.7.7 0 0 0-.45-.26 6.26 6.26 0 0 1-.53-.3l-.15-.16Z" fill="#D8D7D7"/><path d="M49.77 27.63c-.06.19-.14.37-.24.54a42.8 42.8 0 0 1-1.36 2.1.52.52 0 0 0-.07.17.1.1 0 0 0-.08.03c-.15.26-.31.51-.49.75-.1.17-.22.33-.35.5a.16.16 0 0 0-.01.09.37.37 0 0 0-.17.2c-.04.09-.1.17-.17.26L46.6 32v-.03a.1.1 0 0 0 .08-.03c.11-.48.18-.97.2-1.47.07-.16.11-.32.14-.49.1-.21.21-.42.35-.62l.66-.55a.78.78 0 0 0 .47-.35c.2-.1.38-.23.57-.36.11.01.17-.04.16-.14.05 0 .1 0 .14-.02l.38-.4c.02.02.02.06.02.09Z" fill="#991A15"/><path d="M43.57 24.07a.58.58 0 0 0 0 .33c-.07.19-.1.38-.1.59-.05.14-.07.3-.07.47 0 .69.2 1.32.58 1.88.03.03.06.05.1.06.06-.03.12-.05.19-.06.42.52.95.89 1.6 1.1-.07.06-.15.1-.24.15.25.12.5.2.77.25-.04.08-.1.15-.15.23 0 .13-.06.25-.15.36l.07.06a.18.18 0 0 0-.1.12c.04.05.04.1 0 .16.02.04.06.08.1.11a.15.15 0 0 1-.07.05c.05.02.08.06.1.12-.1.23-.2.44-.33.65h-.1c-.05-.08-.1-.16-.17-.23a.25.25 0 0 0-.13-.16l-.95-1.44a18.5 18.5 0 0 1-.95-1.78 4.76 4.76 0 0 1-.25-2.17c.02-.3.1-.59.25-.85Z" fill="#C41A18"/><path d="M43.97 26.52a5 5 0 0 1 .23.49c.08.12.17.23.27.33.03.07.08.07.15 0-.03.17.03.29.18.36.01.05.04.07.1.06.04.06.1.11.15.16.17.11.35.2.53.3a.7.7 0 0 1 .45.26 3.44 3.44 0 0 1-1.77-1.14 7.51 7.51 0 0 0-.23-.38 1.4 1.4 0 0 1-.1-.28c.04-.04.05-.1.04-.16Z" fill="#C6BFBF"/><path d="M50.1 24.2c.05.01.08.05.08.1a4 4 0 0 1 0 2.38c-.1.3-.22.6-.35.9 0 .03-.03.05-.06.05 0-.03 0-.07-.02-.1l-.38.41a.29.29 0 0 1-.14.02c0 .1-.05.15-.16.14l-.57.36a.78.78 0 0 1-.47.34c-.22.2-.44.38-.66.56-.14.2-.25.4-.35.62a2.1 2.1 0 0 1-.14.49c-.02.5-.09.99-.2 1.47a.1.1 0 0 1-.08.03 3.44 3.44 0 0 1-.27-.42v-.04c.04-.11.1-.22.19-.32.03-.26.06-.52.06-.79.08-.23.13-.47.15-.71a1 1 0 0 0 .14-.33h.1c.05-.23.18-.4.4-.5a.1.1 0 0 0 .03-.09l.48-.1a3.64 3.64 0 0 0 1.7-1.2c.66-.96.82-2 .49-3.1-.01-.07 0-.12.03-.17Z" fill="#A91B17"/><path d="M47.4 28.77a.1.1 0 0 1-.03.08.73.73 0 0 0-.4.51h-.1a1 1 0 0 1-.14.33c-.02.24-.07.48-.15.71 0 .27-.03.53-.06.79-.08.1-.15.2-.19.32a.16.16 0 0 1-.1-.06l-.01-.1a13.65 13.65 0 0 0-.45-.65h.1c.12-.2.23-.42.33-.65a.17.17 0 0 0-.1-.12.15.15 0 0 0 .07-.05.49.49 0 0 1-.1-.11c.03-.05.03-.1 0-.16a.18.18 0 0 1 .1-.12l-.07-.06c.1-.1.14-.23.15-.36l.15-.23c.34 0 .67-.02 1-.07Z" fill="#B61B18"/><path d="M50.5 29.92c.17.01.33.04.5.06v.13l-.63-.11.3.34c.1.03.22.04.33.03v.1a.33.33 0 0 0-.2.03c.06.08.12.15.2.2v.23c-.1-.01-.2 0-.3.03.03.04.07.08.12.1.01.03.02.06.01.1H51v.71c-.25.01-.5.05-.73.12l.48.24c.08.04.16.06.25.07v.13l-.72.03c-.1 0-.18.02-.25.07l-.8.01.64.4c.37.1.75.18 1.13.27v.1l-1.77-.42c-.2-.1-.4-.15-.63-.17v-.1c.25.08.5.13.77.15-.16-.06-.3-.14-.44-.23a.49.49 0 0 0-.1-.11c.3-.03.6-.04.9-.03 0-.05 0-.08-.03-.12-.15-.09-.3-.15-.47-.18v-.13c.05 0 .1 0 .14.02.22.1.45.2.66.32.23.03.45.03.67 0-.54-.22-1.07-.46-1.6-.7v-.1c.26-.08.53-.14.8-.17a.37.37 0 0 0-.2-.09 4.56 4.56 0 0 0-.67-.03c0-.07.01-.13.04-.2.27.03.54.09.8.18.06.03.13.03.2 0a2.51 2.51 0 0 0-.5-.45 5.2 5.2 0 0 0-.34-.05.32.32 0 0 1 .04-.33c.16.12.32.23.5.33.3.03.62.07.93.13l.2-.03c-.1-.12-.21-.24-.33-.35-.44-.03-.87-.09-1.3-.18a.19.19 0 0 0 .03-.1c.39.08.77.12 1.17.12l-.2-.16c-.3-.07-.6-.12-.9-.15.03-.1.04-.2.03-.3.36.1.73.18 1.1.24Z" fill="#F7F6F4"/><path d="M49.37 29.98c.3.03.6.08.9.15l.2.16c-.4 0-.78-.04-1.17-.11l.07-.2Z" fill="#E4DED8"/><path d="M51 30.11v.26a.88.88 0 0 1-.33-.03l-.3-.34.63.11Z" fill="#E5DFD9"/><path d="M45.47 30.3c.06.04.1.1.13.17-.06 0-.11 0-.17.03a.85.85 0 0 1-.13.15l.23.23c.13.01.25.02.37.01l.32.46c.01.03.02.07.01.1 0 .04-.02.07-.06.08.08.1.05.15-.1.13-.24-.25-.49-.5-.74-.73a.22.22 0 0 0-.16-.08c-.22.25-.44.51-.64.8.4.12.8.2 1.2.22V32h-.33l.23.72c.18-.06.36-.15.52-.26.1-.05.18-.04.25.03a.24.24 0 0 1-.07.09c-.14.09-.3.17-.46.24l.38.23c.08-.17.17-.33.27-.49a.3.3 0 0 1 .18-.03l.03.2a1.6 1.6 0 0 1-.13.35.36.36 0 0 1-.23.26.34.34 0 0 1-.1.17.1.1 0 0 0 .1.03 2 2 0 0 0-.15.4.3.3 0 0 1-.19.02 5.1 5.1 0 0 0-.95-.2l-.76-.19-.15.03a.1.1 0 0 0 .1.04v.2c.57.02 1.13.06 1.7.12-.8.04-1.62.05-2.44.04.05-.17.1-.32.17-.48a5.1 5.1 0 0 1-.7-.18l.08-.16c.75-.92 1.5-1.85 2.22-2.8.05-.04.1-.07.17-.07Z" fill="#F3F1F0"/><path d="M49.27 30.27c.42.1.86.15 1.3.18.12.11.23.23.33.35-.07 0-.13.02-.2.03-.31-.06-.62-.1-.93-.13-.18-.1-.34-.21-.5-.33v-.1Z" fill="#E1DAD2"/><path d="m45.6 30.47.17.23c.02.08.06.14.13.2-.12 0-.25 0-.37-.02l-.23-.23c.05-.04.1-.1.13-.15.05-.03.11-.04.17-.03Z" fill="#E4DCD5"/><path d="M50.5 29.92c-.37-.06-.74-.14-1.1-.23 0 .1 0 .2-.03.29l-.07.2c0 .03-.01.07-.03.1v.1c-.07.1-.09.2-.04.32h-.1c-.16.06-.31.13-.46.21a.51.51 0 0 0-.07.34c.15-.09.3-.16.47-.22a.62.62 0 0 0-.04.2h-.06c-.14.14-.3.28-.49.38a.08.08 0 0 1 0-.1.25.25 0 0 0 .15-.14c-.1.05-.2.1-.33.11v-.1c.04.01.08 0 .12-.03.1-.27.04-.32-.17-.13a.27.27 0 0 0-.02.13h-.13c0-.05-.02-.1-.07-.13l.44-.23a.4.4 0 0 0 .13-.2.23.23 0 0 0-.1-.04l.07-.04a3.39 3.39 0 0 1-.42-.17c-.02-.03-.02-.05 0-.07a.32.32 0 0 0 .08-.07.24.24 0 0 1 .07-.1c.34-.23.7-.44 1.07-.63a.31.31 0 0 1 .2 0c.27.09.56.14.85.18.04 0 .07.03.08.07Z" fill="#BDBCB9"/><path d="M51 30.47v.23a.84.84 0 0 1-.2-.2.33.33 0 0 1 .2-.03Z" fill="#91C148"/><path d="M48.23 30.4a.32.32 0 0 1-.08.07c-.02.02-.02.04 0 .07l.42.18c-.03 0-.05.02-.07.03.04 0 .07.02.1.05a.4.4 0 0 1-.13.2l-.44.22c-.06-.03-.13-.02-.2.03a1.1 1.1 0 0 1-.25.2l-.05-.03c.06-.04.1-.08.14-.13l-.14-.07c.18-.24.34-.49.49-.75a.1.1 0 0 1 .08-.03.23.23 0 0 1 .13-.04Z" fill="#ADA69D"/><path d="M49.13 30.7h.1l.34.05c.18.13.35.28.5.45a.31.31 0 0 1-.2 0 3.1 3.1 0 0 0-.8-.17l.06-.33Z" fill="#92C149"/><path d="M49.13 30.7c0 .11-.03.22-.06.32-.17.07-.32.14-.47.23a.51.51 0 0 1 .07-.34c.15-.08.3-.15.46-.21Z" fill="#789E3E"/><path d="M51 30.93v.23h-.17l-.01-.1a.25.25 0 0 1-.12-.1c.1-.03.2-.04.3-.03Z" fill="#D5CDBC"/><path d="M48.97 31.22h.06c.23 0 .45 0 .67.03.08.01.14.04.2.09-.27.03-.54.1-.8.17v.1c.53.24 1.06.48 1.6.7-.22.03-.44.03-.67 0a8.3 8.3 0 0 0-.66-.32.29.29 0 0 0-.14-.02v.1l-.43-.2c.09-.2.14-.42.17-.65Z" fill="#DCD6D2"/><path d="M49.77 31.48c.26.1.52.17.8.23.04.01.08.04.1.08l-.67.08-.57-.22v-.1c.12 0 .24-.01.34-.07Z" fill="#93C14D"/><path d="M48.97 31.22c-.03.23-.08.45-.17.65l-.07.36a.5.5 0 0 0-.1.23.28.28 0 0 1-.13.08l-.28.05a.3.3 0 0 1-.09-.06c.05-.06.1-.1.19-.13 0-.05-.03-.08-.09-.07a.33.33 0 0 1 .24-.13c.09-.08.15-.18.2-.3a6.21 6.21 0 0 0-.64-.04c.16-.06.16-.11.02-.15l-.33.13-.05-.02c.06-.03.1-.08.13-.14-.12-.06-.18-.02-.2.11a.17.17 0 0 1-.1.02.25.25 0 0 0 0-.16c-.1.07-.22.12-.33.16l.01-.1c.13-.16.25-.32.35-.49l.14.07a.38.38 0 0 1-.14.13c.02 0 .04.02.05.03.1-.05.18-.12.25-.2.07-.05.14-.06.2-.03.05.03.07.08.07.13h.13c0-.04 0-.09.02-.13.2-.19.26-.14.17.13a.15.15 0 0 1-.12.03v.1a.97.97 0 0 0 .33-.11.25.25 0 0 1-.15.14.08.08 0 0 0 0 .1c.18-.1.35-.24.49-.39Z" fill="#9A9794"/><path d="m44.43 31.8.67.07c.03.13.06.26.07.4-.34 0-.67.03-1 .06a52 52 0 0 0-.14-.03c.15-.16.28-.32.4-.5Z" fill="#E4DDD7"/><path d="M48.23 32.33a.83.83 0 0 0-.36.08.6.6 0 0 1-.24.15 3 3 0 0 1-.76 0v-.1h-.17a1.2 1.2 0 0 1-.5-.2.42.42 0 0 1 0-.27c.12-.03.23-.06.33-.12.03.03.06.06.07.1V32c-.17.03-.22.11-.17.27a.5.5 0 0 0 .44.16h.8c0-.04 0-.08.03-.12a.5.5 0 0 1 .27-.08v-.13a.3.3 0 0 0-.22.07l-.05-.03c.08-.04.1-.09.1-.17a.65.65 0 0 1-.2-.03.4.4 0 0 1-.27.05.24.24 0 0 0 .07-.08.57.57 0 0 0-.27-.04c0 .07-.03.12-.1.13H47a.37.37 0 0 1 .17-.2c.11-.03.23-.08.33-.15.02.04.02.1 0 .16.03 0 .07 0 .1-.02.02-.13.08-.17.2-.11a.29.29 0 0 1-.13.14l.05.02.33-.13c.14.04.14.09-.02.15.22 0 .43.02.64.05a.73.73 0 0 1-.2.29.33.33 0 0 0-.24.13Z" fill="#7F7C7A"/><path d="M51 31.87v.43a1.07 1.07 0 0 1-.25-.07 9.9 9.9 0 0 0-.48-.24c.23-.07.48-.1.73-.12Z" fill="#E5DED8"/><path d="m48.8 31.87.43.2v.03c-.13.21-.3.26-.5.13l.07-.36Z" fill="#BEB7B3"/><path d="M46.23 31.45c.03.03.06.06.1.06v.04c0 .04-.02.07-.06.08.1.03.11.08.06.16h-.26a.19.19 0 0 0-.1.12c.04.09.08.19.1.29l.13.07c.15.1.31.16.5.2v.06a.3.3 0 0 0-.18.03c-.1.16-.19.32-.27.49l-.38-.23c.16-.07.32-.15.46-.24a.24.24 0 0 0 .07-.09c-.07-.07-.16-.08-.25-.03-.16.11-.34.2-.52.26L45.4 32h.33v-.13c-.4-.02-.8-.1-1.2-.22.2-.29.41-.55.64-.8.06 0 .12.02.16.08l.74.73c.15.02.18-.02.1-.13.04-.01.06-.04.06-.08Z" fill="#DED8D3"/><path d="M49.23 32.1c.17.03.32.1.47.18.03.03.04.07.03.12-.3-.01-.6 0-.9.03.04.03.08.07.1.11.14.09.28.17.44.23a3.87 3.87 0 0 1-.77-.15c.02-.05.03-.1.03-.16a.51.51 0 0 1 .1-.23c.2.13.37.08.5-.13Z" fill="#D7D1CC"/><path d="M46.87 32.43c.14-.08.22-.2.26-.36-.05 0-.09-.01-.1-.07.07-.01.1-.06.1-.13.1 0 .18 0 .27.04a.24.24 0 0 1-.07.08c.1.01.19 0 .27-.05.06.02.13.03.2.03 0 .08-.02.14-.1.17.02 0 .03.02.05.03a.3.3 0 0 1 .22-.07v.13a.5.5 0 0 0-.27.08.14.14 0 0 0-.03.12h-.8Z" fill="#656263"/><path d="m46.6 32 .23.27c.07-.09.13-.17.17-.27h.03c.01.05.05.08.1.07a.56.56 0 0 1-.26.36.5.5 0 0 1-.44-.16c-.05-.16 0-.24.17-.27Z" fill="#3C542B"/><path d="m44.77 32.4.5.01c.1.13.15.28.16.44a3.9 3.9 0 0 1-.66.09.88.88 0 0 1-.17-.51c.06 0 .12 0 .17-.03Z" fill="#E4DDD8"/><path d="M51 32.43v.3c-.18-.01-.36 0-.53.03a3.69 3.69 0 0 0-.44-.23.47.47 0 0 1 .25-.07l.72-.03Z" fill="#D5CCBB"/><path d="M48.23 32.33c.06 0 .1.02.09.07a.41.41 0 0 0-.19.13.75.75 0 0 1-.5.03.6.6 0 0 0 .24-.15.83.83 0 0 1 .36-.08Z" fill="#60803A"/><path d="M50.03 32.53c.15.06.3.14.44.23.17-.03.35-.04.53-.04v.5l-1.13-.28-.64-.4c.27-.01.54-.02.8-.01Z" fill="#E4DDD7"/><path d="M46.7 32.46h.17v.1a3 3 0 0 0 .76 0c.17.05.34.04.5-.03a.3.3 0 0 0 .09.06l.28-.05c.05-.01.1-.04.13-.08 0 .06-.01.11-.03.16a.31.31 0 0 0-.2.14c-.12.05-.24.1-.37.13 0-.1-.02-.18-.03-.27a3.1 3.1 0 0 0-.63.04l-.67.4a.17.17 0 0 1-.1.02c.06-.1.1-.22.13-.34a.64.64 0 0 1-.03-.21v-.07Z" fill="#B2AEA9"/><path d="M44.27 32.76h.2c.03.1.05.19.06.29l-.4.03-.01-.16a.13.13 0 0 1-.09-.13c.09 0 .17 0 .24-.03Z" fill="#95C34E"/><path opacity=".53" d="M48.6 32.62v.1c.22.02.44.07.63.17-.02.13-.03.27-.03.42.6.04 1.2.1 1.8.16v.04c-.49 0-.98 0-1.47-.02-.3-.07-.6-.1-.9-.08 0-.2.04-.38.1-.56-.03-.07-.08-.1-.16-.1-.05-.03-.1-.03-.17 0a.31.31 0 0 1 .2-.13Z" fill="#CDCDCC"/><path opacity=".53" d="M49.23 32.89c.6.13 1.18.28 1.77.42v.16c-.6-.06-1.2-.12-1.8-.16 0-.15.01-.3.03-.42Z" fill="#B0B1B0"/><path d="m45.23 33.02.17.01-.48.6-1.59-.3a.12.12 0 0 1-.03-.05l1.48-.13.45-.13Z" fill="#E5DED8"/><path d="M48.4 32.76c.06-.04.12-.04.17 0-.2.08-.39.18-.57.29l-1.67.9c-.1.05-.2.05-.3.01a.3.3 0 0 0 .19-.03 2 2 0 0 1 .15-.4.1.1 0 0 1-.1-.02c.05-.05.08-.1.1-.17.12-.05.2-.13.23-.26l.1-.01.67-.41c.2-.04.42-.05.63-.04l.03.27.37-.13Z" fill="#BDBBB8"/><path opacity=".5" d="M48.57 32.76c.08-.01.13.02.16.1-.06.17-.1.36-.1.55.3-.01.6.01.9.08.5.02.98.02 1.47.02v.06c-1.02 0-2.05-.01-3.07-.03.01-.17.04-.33.07-.5.18-.1.37-.2.57-.28Z" fill="#E8E8E8"/><path opacity=".53" d="M46.03 33.96h-.06c-.57-.06-1.13-.1-1.7-.13v-.2a.1.1 0 0 1-.1-.03l.15-.03.76.2c.33.03.65.1.95.2Z" fill="#C4C3C3"/></svg>