<!-- by TradingView --><svg xmlns="http://www.w3.org/2000/svg" width="56" height="56" viewBox="0 0 56 56"><path fill="#069CD8" d="M0 0h56v56H0z"/><path fill-rule="evenodd" d="M28.7 23l-1 1 1 1 1-1-1-1zm-1.2 4l1.27-1.5 1.28 1.5h-.55v3.5h1L29 32l-1.46-1.5H28V27h-.5zM5.78 31h.72v-3H5.44c-.3.03-.9.42-.96.75.06-.54.36-1.75 1.19-1.75h.83c-.18-1.32.21-3.74 3.03-3.74.45-.01 1.34.2 1.34 1.16L13.3 23l1.09.98.63-.32.25.52-.77.46v5.86h1.11L14.23 32 13 30.7v-5.98l-.3-.47-.7.4V27h1l-.63 1H12v2h.8l-2.07 2L9 30.7h.64V28H9v2.41c0 .97-1.42 1.77-2.45 1.86l-.3-.01h-.06c-.58-.06-1.6.06-2.19.74 0-.98.8-2 1.78-2zm5.72-.77V28H11v2.7l.5-.47zm0-3.23v-2.08l-.5.28V27h.5zm-1.86-2.49V27H9v-2.18l.33-.57.31.26zM31 27l2.43-2v1.27h1.24l-.34.73h-.83v3.5H35L33.43 32l-2.14-1.5H32V27h-1zm9.96-.6c.05 0 .39.23.54.34v3.76h-.76l2.04 1.5 1.58-1.5H43v-3l.63-.52.73.7.88-.94-.88-.9-1.46.7-.9-1.04-1.04.9zM16.5 27l-.25-.43 2.26-1.07 1.99 1.92-2.5 2.01v1.34l.66.35 1.46-.71.32.6-2.06.93L16 30.59h.5V27zm1.5.04v1.61l1.06-.77-1.06-.84zm17.75-.41l.25.44v3.58h-.5L38 32l1.94-.93-.32-.6-1.46.72-.66-.36V29.5l2.5-2.01-1.99-1.98-2.26 1.13zm1.75 2.02v-1.6l1.06.83-1.06.77zM23.43 25.5l-1.93 1.07v3.94L22.92 32l1.37-.7.78.7L27 30.5h-1v-3.14l.46-.71H26v-2.58L24.62 23l-1 .82.88.53v1.52l-1.07-.37zM23 30.61V26.7l1.5.63v3.28l-.92.39-.58-.39zm26.5-4.38c.4 0 1.08-.4 1.37-.61 0 .41-.52.82-.79 1.03a5.7 5.7 0 0 0-.08.07v4h1v.35l-1.42.93a4 4 0 0 1-.96-.93L47 32l-.12-.07c-.33-.2-.9-.55-1.06-1.21-.2-.75.7-2 1.18-2.54a2.82 2.82 0 0 1-.84-1.95 3.59 3.59 0 0 0 2.03-.73c.26.24.9.73 1.3.73zm-2.3.63l1.3.35v1.07c-.45-.05-1.18-.4-1.3-1.42zm1.3 2.01v1.46l-.02.02c-.11.1-.28.27-.62.27-.44 0-.75-.51-.75-.95 0-.44.3-1.1.57-1.1.1 0 .15.04.2.09.1.07.22.18.62.21z" fill="#fff"/></svg>