<!-- by TradingView --><svg xmlns="http://www.w3.org/2000/svg" width="56" height="56"><path fill="#F0F3FA" d="M0 0h56v56H0z"/><path fill-rule="evenodd" d="M27.76 43C35.62 43 42 35.16 42 25.5S35.62 8 27.76 8c-6.6 0-12.16 5.52-13.77 13h8.73L18.1 38.37c2.53 2.88 5.92 4.63 9.65 4.63zm9.44-28H28v2h3.67l-4.9 17h5.31l5.12-19zM21 18h9l-5.12 19h-5.33l4.92-17H21v-2z" fill="#F0961C"/><circle opacity=".3" cx="25" cy="15" r="4" fill="#FACE96"/><circle opacity=".2" cx="25" cy="15" r="7" fill="#fff"/><circle opacity=".3" cx="25" cy="15" r="2" fill="#FFEBD2"/><circle cx="25" cy="15" r="1" fill="#FFE8CB"/><ellipse cx="27.5" cy="46" rx="6.5" ry="2" fill="#0D3C8E"/></svg>