<!-- by TradingView --><svg width="56" height="56" viewBox="0 0 56 56" xmlns="http://www.w3.org/2000/svg"><path fill="#F0F3FA" d="M0 0h56v56H0z"/><path d="m29.75 26.32-.59 4.86c-.01.12.01.22.08.32.09.12.23.2.44.23a.1.1 0 0 1 .04.01l.04.04c.03.05.03.1 0 .15a.15.15 0 0 1-.14.07h-1.48c-.1 0-.14-.05-.14-.14 0-.05 0-.09.02-.1l.06-.04c.3-.08.45-.23.5-.47.12-.83.4-2.95.8-6.32.02-.1 0-.2-.03-.3-.08-.17-.15-.28-.2-.31-.37-.21-.35-.32.04-.32h2.07a.3.3 0 0 1 .15.07c.03.03.06.07.07.12l1.06 3.85c.06.2.11.2.16 0l.99-3.92a.18.18 0 0 1 .06-.09.15.15 0 0 1 .1-.03H36c.22 0 .24.07.08.22-.24.2-.38.41-.33.78l.74 5.84c.05.42.2.74.45.96.14.13.12.2-.07.2h-2.52c-.24 0-.26-.08-.09-.25.23-.21.3-.52.24-.92l-.6-4.5c-.04-.36-.1-.37-.2-.01l-1.39 5.48c-.02.1-.08.16-.17.18a.98.98 0 0 1-.49-.01.25.25 0 0 1-.18-.2l-1.5-5.47c-.1-.34-.17-.33-.22.02Z" fill="#BF571E"/><path d="m5.76 26.32-.6 4.83c-.01.12.01.23.08.32.09.12.24.2.44.23a.1.1 0 0 1 .05.02l.03.03c.03.06.03.1 0 .16-.04.04-.08.09-.13.09h-1.5c-.08 0-.13-.08-.13-.17 0-.05 0-.08.02-.1l.06-.04c.3-.08.45-.23.5-.46.12-.83.4-2.94.81-6.3.01-.1 0-.2-.04-.3-.08-.17-.15-.28-.2-.31-.36-.21-.34-.32.05-.32h2.02c.05 0 .16.04.2.07.03.03.06.07.07.12l1.06 3.85c.06.2.11.2.17 0l.98-3.88a.18.18 0 0 1 .06-.1.4.4 0 0 1 .16-.06H12c.21 0 .26.1.1.25-.24.2-.38.38-.33.75l.74 5.82c.05.42.2.74.44.96.15.13.13.22-.06.22h-2.53c-.23 0-.26-.11-.09-.28.23-.2.3-.52.24-.92-.05-.29-.24-1.78-.59-4.47-.04-.36-.11-.37-.2-.01l-1.4 5.48c-.02.1-.08.16-.17.18a.98.98 0 0 1-.5-.01.25.25 0 0 1-.18-.2l-1.5-5.47c-.1-.34-.16-.33-.21.02Z" fill="#4E4F53"/><path d="M49.92 25.07a.83.83 0 0 1-.12-.29c0-.07.02-.12.08-.14l2-.64h.04l.04.02a.1.1 0 0 1 .02.04l.02.04v7.85l-.05.04a.08.08 0 0 1-.04.01h-1.87a.16.16 0 0 1-.11-.05.22.22 0 0 1-.06-.12.75.75 0 0 1 .1-.42c.04-.07.03-.16.03-.25v-5.64a.9.9 0 0 0-.08-.45ZM43.58 27.33c-.12 0-.18.05-.18.18v3.66c0 .1.05.16.15.16h.44a.1.1 0 0 1 .08.05c.02.02.03.05.03.07-.01.07-.03.12-.06.14-.75.5-2.53.8-2.55-.6v-3.36c0-.1-.04-.17-.11-.22a.67.67 0 0 0-.24-.12c-.12-.03-.2-.07-.22-.1a.2.2 0 0 1-.03-.23.16.16 0 0 1 .08-.08 4.1 4.1 0 0 0 1.95-1.56c.29-.46.44-.42.46.13l.04 1.31c0 .1.05.16.16.16h.48a.14.14 0 0 1 .12.05c.04.05.05.11.04.18a.21.21 0 0 1-.13.15c-.12.04-.28.05-.5.03Z" fill="#BF571E"/><path d="M14.61 29.65c.16 1.2 1.17 1.57 2.24 1.06.37-.18.44-.1.2.22-.87 1.24-2.89 1.52-3.85.22a2.85 2.85 0 0 1-.51-1.73c-.01-3.24 4.88-3.2 4.45-.05 0 .03-.02.06-.05.08a.13.13 0 0 1-.08.03h-2.25c-.11 0-.17.06-.15.17Zm.15-.63.66.04a.24.24 0 0 0 .17-.06.22.22 0 0 0 .07-.16l.03-.52c0-.13 0-.25-.02-.37a1.2 1.2 0 0 0-.1-.31.64.64 0 0 0-.16-.22.33.33 0 0 0-.2-.08h-.07c-.14 0-.28.09-.39.26-.1.17-.17.41-.19.67l-.02.52a.22.22 0 0 0 .06.16.23.23 0 0 0 .16.07Z" fill="#4E4F53"/><path d="M18.5 30.04c-1.5-.53-1.54-2.2-.09-2.78a3 3 0 0 1 2.82.2c.13.08.26.07.38-.03.5-.44.9-.53 1.18-.28l.1.12.02.15c-.01.26-.09.42-.24.5a.3.3 0 0 1-.22.03l-.6-.15c-.09-.03-.12 0-.1.08.55 1.77-.81 2.33-2.46 2.34-.17 0-.27.08-.3.23a.3.3 0 0 0 0 .12c.03.12.1.18.22.2 1.34.19 3.61.21 3.31 1.7-.44 2.17-5.45 1.76-5.33.46.04-.44.35-.75.92-.93.2-.07.2-.14 0-.22-.53-.23-.92-.81-.28-1.17.38-.21.62-.36.7-.43.07-.06.06-.1-.03-.14Zm1.12-.14c.16 0 .32-.13.44-.37s.19-.56.2-.9c0-.34-.06-.67-.18-.9-.1-.25-.26-.38-.42-.39-.17 0-.32.13-.44.37s-.19.57-.2.9c0 .35.06.67.18.91.1.24.26.38.42.38Zm-.4 2.18c-.34-.02-.6.08-.76.3-.33.45-.06.93.46 1.1.68.22 1.26.19 1.76-.09a.6.6 0 0 0 .3-.39.56.56 0 0 0-.09-.46c-.1-.14-.27-.24-.51-.28l-1.17-.18Z" fill="#4E4F53"/><path d="M25.48 31.45c-.7.53-1.37.68-2.03.43-.5-.19-.75-.52-.75-1.01 0-1.07 1.82-1.6 2.82-2a.2.2 0 0 0 .1-.06.2.2 0 0 0 .04-.12v-1.05c0-.1-.05-.18-.14-.24-.21-.1-.48 0-.54.22-.65 2.28-2.97.14-.68-.45 1.09-.28 3.25-.4 3.25 1.09l.02 2.96c0 .12.06.2.18.23.08.02.15.06.2.1a.1.1 0 0 1 .02.09.1.1 0 0 1-.05.07c-.88.46-1.61.38-2.2-.25-.08-.07-.16-.08-.24-.01Zm.18-.73v-1.29l-.01-.05a.11.11 0 0 0-.09-.06h-.05c-.68.25-.99.7-.9 1.36a.56.56 0 0 0 .18.38c.03.04.09.07.14.08.05.02.1.02.15 0h.11a.46.46 0 0 0 .33-.11.42.42 0 0 0 .14-.31Z" fill="#4E4F53"/><path d="M38.74 29.48c-.12 0-.17.06-.15.17.16 1.2 1.17 1.57 2.23 1.06.37-.17.44-.1.2.22-.87 1.24-2.88 1.52-3.84.23a2.86 2.86 0 0 1-.51-1.73c-.02-3.25 4.87-3.2 4.44-.06 0 .03-.02.06-.04.08a.14.14 0 0 1-.09.03h-2.24Zm-.24-.55c0 .07.04.1.1.1h.78c.12 0 .2-.06.22-.17.16-.55.12-1-.1-1.34a.44.44 0 0 0-.6-.13.41.41 0 0 0-.14.17c-.19.37-.28.83-.26 1.37ZM47.15 31.46c-.07-.08-.15-.08-.23-.02-.7.54-1.37.68-2.03.44-.5-.19-.75-.53-.75-1.01 0-1.07 1.72-1.6 2.73-2a.21.21 0 0 0 .1-.07.2.2 0 0 0 .03-.1v-1.07c0-.1-.05-.18-.14-.23-.2-.1-.39 0-.45.22-.64 2.27-2.97.14-.67-.45 1.08-.28 3.25-.4 3.26 1.08v2.94c0 .12.07.22.18.25.09.03.15.06.2.11a.1.1 0 0 1 .02.04.1.1 0 0 1-.05.11c-.87.47-1.6.39-2.2-.24ZM47 30.7v-1.28a.11.11 0 0 0-.06-.1.12.12 0 0 0-.1 0c-.68.24-.89.7-.8 1.35a.7.7 0 0 0 .06.21c.03.07.07.12.12.17.2.19.63.1.75-.18a.4.4 0 0 0 .03-.17Z" fill="#BF571E"/></svg>