<!-- by TradingView --><svg width="56" height="56" viewBox="0 0 56 56" xmlns="http://www.w3.org/2000/svg"><path fill="url(#a)" d="M0 0h56v56H0z"/><path d="m9.86 24 1.7 3.53.02.02a.04.04 0 0 0 .06-.02L13.4 24H34v1.3c0 .05-.04.14-.08.14h-.85c-.05 0-.07.03-.07.08v1.19a.06.06 0 0 0 .06.03l.03-.01 1.83-1.31c.04-.03.03-.05-.01-.05h-.34c-.05 0-.07-.02-.07-.06V24H40v1.36l-.03.01h-1.34a.26.26 0 0 0-.16.06l-1.65 1.14c-.04.03-.05.06-.02.1l2.88 3.6c.03.04.07.06.11.06h.49l.01-.02L43.33 24h4.14l3.4 5.93c.02.04.07.07.12.07h1v2h-6v-1.61c0-.05.02-.06.07-.06h.75v-.01l.01-.02-.39-.7a.05.05 0 0 0-.04-.02h-3.1c-.02 0-.04.02-.04.04l-.2.62c0 .02 0 .03.02.03h1.3c.04 0 .06.02.06.06V32h-9.81c-.06 0-.08-.04-.08-.1v-1.62c0-.04.02-.07.06-.07h.52c.07 0 .08-.02.04-.08l-1.1-1.37a.1.1 0 0 0-.14-.01l-.86.6a.13.13 0 0 0-.06.11v.65c0 .05.03.08.08.08h.84c.05 0 .07.02.07.07L34 32H13.5l-.01-1.5c0-.05.02-.08.07-.08h1.36c.04 0 .08-.02.08-.06v-3.53c0-.14-.05-.15-.11-.02l-2.55 5.12a.1.1 0 0 1-.1.07h-1.78c-.05 0-.09-.02-.1-.07l-2.27-4.68c-.06-.14-.1-.14-.1.02v3c0 .05.03.08.09.08h.84c.05 0 .08.03.08.08V32H4v-1.52l.01-.04a.06.06 0 0 1 .04-.02h.89c.04 0 .06-.03.06-.07v-4.78l-.04-.01H4v-1.48l.1-.08h5.76Zm18.2 1.5c-.02 0-.04 0-.05.02a.05.05 0 0 0-.01.03v.9a.05.05 0 0 1-.02.04.05.05 0 0 1-.03.01h-2.9a.05.05 0 0 1-.04-.01v-.02l-.01-.02v-.95c0-.01 0-.03-.02-.04a.05.05 0 0 0-.03-.01h-1.9l-.04.01a.05.05 0 0 0-.01.04v1.45l.01.03.04.02h1.9a.05.05 0 0 1 .03.02.05.05 0 0 1 .02.03v1.34a.05.05 0 0 1-.02.03.05.05 0 0 1-.03.02h-1.9c-.01 0-.03 0-.04.02a.05.05 0 0 0-.01.03v1.95l.01.04.04.02h1.9l.04-.02a.05.05 0 0 0 .01-.04v-1.38c0-.02 0-.03.02-.04a.05.05 0 0 1 .03-.02h2.9c.01 0 .02 0 .03.02l.02.04v1.13l.01.04.04.02h.9c.01 0 .02 0 .03-.02a.05.05 0 0 0 .02-.04v-4.64s0-.02-.02-.03a.05.05 0 0 0-.03-.02h-.9Zm-8.06.1v-.04l-.04-.01h-1.91l-.03.01-.02.03v4.73c0 .01 0 .02.02.03l.03.01h1.91l.03-.01.01-.03v-4.73Zm24.15 2.35v.04a.04.04 0 0 0 .03.01h1.59l.04-.03.02-.02a.04.04 0 0 0 0-.03l-.86-1.57-.01-.02a.04.04 0 0 0-.05 0l-.01.02-.75 1.6Z" fill="#fff"/><defs><linearGradient id="a" x1="10.42" y1="9.71" x2="68.15" y2="76.02" gradientUnits="userSpaceOnUse"><stop stop-color="#1A1E21"/><stop offset="1" stop-color="#06060A"/></linearGradient></defs></svg>