<!-- by TradingView --><svg xmlns="http://www.w3.org/2000/svg" width="56" height="56"><path fill="#EF8123" d="M0 0h56v56H0z"/><path d="M44 28a16 16 0 01-27.16 11.46 58.41 58.41 0 016.21-11.88c1.2-1.7 2.65-3.78 2.6-1.54-.06 2.48.3 6.04.48 7.5.07.57.25 1.65 1.3 1.92 1.06.27 2.02-.64 2.33-1.21 3.2-5.8 5.77-9.82 6.66-11.12-.07 3.5.54 5.62 1.38 6.15.67.43 1.3.2 1.7-.22.6-.64 3.65-5.62 2.9-6.46-.6-.66-1.42 0-1.7.43l-.1.19c-.4.62-1 1.59-1.3 1.67-.18.04-.17-.4-.17-.74v-.12c0-4.1-1.23-5.32-2.1-5.65-2.05-.75-6.83 8.24-8.4 11.67l-.24-5.51c0-3.57-2.56-4.05-3.84-3.65-3.35 1.05-8.4 10.4-10.33 15.24A16 16 0 0134.54 13.4c-.4.23-.77.64-1.03 1.18-.5 1.03-.35 2.13.31 2.45.67.32 1.62-.25 2.12-1.29.24-.5.33-1.02.28-1.46A16 16 0 0144 28z" fill="#fff"/></svg>