<!-- by TradingView --><svg xmlns="http://www.w3.org/2000/svg" width="56" height="56" viewBox="0 0 56 56"><path fill="#F0F3FA" d="M0 0h56v56H0z"/><path d="M26.67 34.21a2.53 2.53 0 0 0 1.9 1.5 2.23 2.23 0 0 0 2.1-.54 2.87 2.87 0 0 0 .56-2.5c-.52-2.7-2.48-5.3-3.73-6.02a5.29 5.29 0 0 1-.44 4.8 2.9 2.9 0 0 0-.4 2.76z" fill="#0055A5"/><path d="M16.5 34.62l.2.77.1.3.28.78.1.23c.33.8.73 1.56 1.2 2.28l.23.33a12.64 12.64 0 0 0 .79 1l.31.37a13.72 13.72 0 0 0 1.65 1.52l.23.17a13.37 13.37 0 0 0 1.64 1.04l.18.1c.65.33 1.32.6 2 .83l.16.05a12.59 12.59 0 0 0 1.16.3l.58.1.9.1.35.03c4.34.48 9.14-1.62 12.51-5.47l.16-.17a11.08 11.08 0 0 0 2.75-8.02 11.2 11.2 0 0 0-3.6-7.66 10.76 10.76 0 0 0-14.75.2 6.76 6.76 0 0 1 7.73 1.04 7.1 7.1 0 0 1 2.29 4.85c.53 9.85-12.48 10.44-19.16 4.73v.2z" fill="#B0AFB5"/><path d="M16.87 34.96a13.39 13.39 0 0 0 2.26 1.67l.2.1c.34.2.69.37 1.04.53l.12.06a12.71 12.71 0 0 0 2.6.8l.16.02c.37.07.75.12 1.13.15l.21.02c.4.03.81.04 1.21.02h.27c.42-.03.83-.06 1.24-.12h.01a9.71 9.71 0 0 1-4.99-2.45 10.02 10.02 0 0 1-3.26-6.97c-.13-2.38.56-4.73 1.96-6.63l-.24.2-.22.2a14.14 14.14 0 0 0-1.6 1.86l-.11.14a12.13 12.13 0 0 0-1.23 2.14 12.88 12.88 0 0 0-.52 1.27l-.08.26c-.1.3-.2.62-.27.94l-.06.22c-.08.36-.14.72-.2 1.08 0 .09-.02.17-.03.25a14.07 14.07 0 0 0-.1 2.51l.01.25c.02.37.06.74.11 1.1.12.14.25.26.38.38z" fill="#2E353B"/><path d="M16.63 34.35l-.01-.07-.03-.18-.1-.85-.01-.22-.02-.14v-.07c-.02-.38-.02-.76 0-1.13v-.24c.02-.37.06-.73.1-1.1l.05-.26c.06-.35.12-.7.21-1.05l.07-.25c.08-.3.18-.61.28-.91l.08-.24c.12-.32.26-.65.41-.96l.13-.28a12.75 12.75 0 0 1 1.3-2.1l.12-.14a13.84 13.84 0 0 1 1.82-1.93l.46-.36c.2-.17.42-.35.64-.5.17-.13.34-.23.52-.34.22-.15.44-.3.66-.42.17-.1.35-.18.52-.27.24-.13.5-.26.75-.37l.12-.07.22-.09.01.01c1.51-.63 3.13-.99 4.78-1.07a4.14 4.14 0 0 0 2.4-1.25 3.8 3.8 0 0 0-.32-5.5 4.1 4.1 0 0 0-2.77-1h-.15c-2.35.1-4.66.65-6.78 1.61a17.52 17.52 0 0 0-5.58 4.01 16.5 16.5 0 0 0-4.48 12.23A17.18 17.18 0 0 0 17.8 40.8c4.56 3.81 8 3.79 8.94 3.89-3.52-1.55-5.86-2.39-7.84-4.97l-.21-.3a12.63 12.63 0 0 1-1.05-1.83l-.07-.17c-.14-.3-.27-.62-.38-.93l-.03-.1c-.23-.66-.41-1.34-.53-2.03v-.01z" fill="#0059A2"/></svg>