<!-- by TradingView --><svg width="56" height="56" xmlns="http://www.w3.org/2000/svg"><path fill="#BE231A" d="M0 0h56v56H0z"/><path d="M4 26a5 5 0 015-5h38a5 5 0 015 5v4a5 5 0 01-5 5H33.414c-.418-.017-1.49-.666-1.805-1H46a4 4 0 004-4v-4a4 4 0 00-4-4H10a4 4 0 00-4 4v4a4 4 0 004 4h20v1H9a5 5 0 01-5-5v-4z" fill="#fff"/><path d="M9.205 24L8 32h.918l.65-5.951L12.876 32l3.346-5.951.65 5.951H18l-1.032-8h-.25l-3.594 6.022L9.568 24h-.363zM19 24h5v.665h-4v2.801h3.734v.604H20v3.225h4V32h-5v-8z" fill="#fff"/><path fill-rule="evenodd" d="M25 24.047h3.66c.635.02 1.91.417 1.926 1.846.02 1.686-1.68 2.152-2.338 2.332-.039.01-.074.02-.105.03l3.476 4.266A4.97 4.97 0 0034.822 34H31.62a57.387 57.387 0 01-4.708-5.746H26V32h-1v-7.953zm1 .437h2.03c.495.046 1.484.413 1.484 1.508 0 1.096-.83 1.648-1.484 1.786H26v-3.294z" fill="#fff"/><path d="M33 32v-8h1v3.623h.216L37.912 24h.928l-3.712 3.623L39 32h-1.328l-3.456-4.063H34V32h-1z" fill="#fff"/><path fill-rule="evenodd" d="M43.5 32c2.484 0 4.498-1.79 4.498-4s-2.014-4-4.499-4S39 25.79 39 28s2.014 4 4.5 4zm0-.456c1.932 0 3.5-1.583 3.5-3.537 0-1.953-1.568-3.536-3.5-3.536-1.934 0-3.5 1.583-3.5 3.537 0 1.953 1.566 3.536 3.5 3.536z" fill="#fff"/></svg>