<!-- by TradingView --><svg width="56" height="56" viewBox="0 0 56 56" xmlns="http://www.w3.org/2000/svg"><path fill="#F0F3FA" d="M0 0h56v56H0z"/><path d="m41.79 15.22-1.87.6-4.02.4c1.66-1.24 3.92-1.45 5.89-1Z" fill="#3C5C2A"/><path d="m42.58 15.21.69.02c.7-.02 1.4.07 2.08.28-2.22.19-3.7 1.2-5.4 2.41l-1.02.7c0 .02-.03.03-.07.03a13.84 13.84 0 0 1-4.94 1.75l-3.37.3h-.02a.04.04 0 0 1 0-.06 7.17 7.17 0 0 0 2.43-1.6c.67-.13 1.32-.3 1.95-.49.2-.06.4-.03.56.08l-1.93 1.14-.02.02v.02a.03.03 0 0 0 .02.02.03.03 0 0 0 .02 0c.9-.48 1.4-.74 1.49-.8l3.37-2.18a11.22 11.22 0 0 1 3.62-1.52v-.02l-.01-.04.55-.06Z" fill="#85BD41"/><path d="m46.16 18.04-.3-.21-.48-.28c-.95-.46-1.91-.82-2.9-1.07a.2.2 0 0 0-.14.01l-1.34.7c-.05-.04 0 0 0 0a8.1 8.1 0 0 1 4.35-1.68c.65.1 1.02.52 1.1 1.24.06.54-.03.97-.29 1.29Z" fill="#53692F"/><path d="m39.92 15.83-1.94 1.09c-.89-.19-1.79-.27-2.7-.24l.62-.47 4.02-.38Z" fill="#43803C"/><path d="M26.65 19.78c-.08.1-.1.2-.08.31-.15.62-.31 1.07-.49 1.33-.95 1.46-2.25 2.05-3.9 1.76a3.7 3.7 0 0 1-2.23-1.33l-.28-.44a1.1 1.1 0 0 0-.28-.39c.04.01.06 0 .07-.04v-.02a3.6 3.6 0 0 1 1.56-4.44 3.7 3.7 0 0 1 5.55 3.24c0 .04.03.05.08.02Z" fill="#ED1C24"/><path d="M45.38 17.55a4.3 4.3 0 0 0-1.55.02l-.43.3-.93.66-.36.22a6.86 6.86 0 0 0-2.15-.83l.88-.63.7-.4.8-.4a.2.2 0 0 1 .14-.01c.99.25 1.95.61 2.9 1.07Z" fill="#D9AC52"/><path d="m37.98 16.92-2.51 1.71a.61.61 0 0 0-.56-.08c-.63.2-1.28.35-1.95.49.19-.14.3-.28.36-.42l.72-.8c.26-.2.5-.45.7-.78l.54-.36c.91-.03 1.81.05 2.7.24Z" fill="#54AB46"/><path d="M34.74 17.04c-.2.33-.44.59-.7.77a9.4 9.4 0 0 0-2.53.66c-.11.09-.2.14-.27.15-.66.16-1.32.4-1.98.75l-1.04.27c-.21-.05-.3-.02-.28.08l-.24.06a.7.7 0 0 1-.24-.04.07.07 0 0 1-.03-.1l.02-.02c.1-.07.15-.15.16-.23a55.3 55.3 0 0 1 7.13-2.35Z" fill="#FDD69B"/><path d="m45.38 17.56.49.27c.16.76.68 1.42.93 1.98 1.58 3.51.39 6.53-.56 9.9L45.99 31a.04.04 0 0 1-.02.02.04.04 0 0 1-.03 0h-.04l.15-1.01.03-.31c.17-1.12.5-2.66.95-4.62a7.51 7.51 0 0 0-.83-5.52c-.51-.92-1.47-1.48-2.37-1.98.48-.1 1-.1 1.55-.01Z" fill="#F59724"/><path d="M43.83 17.57c.9.5 1.86 1.06 2.37 1.98 1 1.8 1.28 3.65.83 5.52-.46 1.96-.78 3.5-.95 4.62.1-1.35.13-2.75-.03-4.07l.01.08-.27-1.54.18-.01c.1-.79-.13-1.61-.7-2.5-.4-.54-.85-1.07-1.35-1.57a6.9 6.9 0 0 0-1.81-1.28v-.05l.36-.22c1.47.84 2.54 2 3.23 3.5.33.73.65 1.94.86 2.58 0 .02.01.04.03.05a.08.08 0 0 0 .1 0 .09.09 0 0 0 .03-.06c.49-2.79-.42-5.84-3.32-6.73l.43-.3Z" fill="#F7B13B"/><path d="M21.54 20.16c.67-.02 1.2-.57 1.18-1.23a1.2 1.2 0 0 0-1.25-1.17c-.68.02-1.2.58-1.19 1.24a1.2 1.2 0 0 0 1.26 1.16ZM24.34 17.76a1.2 1.2 0 0 0-1.29 1.12c-.04.66.47 1.23 1.14 1.28a1.2 1.2 0 0 0 1.3-1.12 1.21 1.21 0 0 0-1.14-1.28Z" fill="#fff"/><path d="m34.04 17.81-.72.81-4.06.75c.66-.35 1.32-.6 1.98-.75a.73.73 0 0 0 .27-.15 9.4 9.4 0 0 1 2.53-.66Z" fill="#F59724"/><path d="m45.87 17.83.3.21c.46.47.8.93 1 1.37.52 1.1.8 2.28.83 3.52.04 2.02-.36 4.13-.9 6.07a6.3 6.3 0 0 0-1.1 1.6l.24-.89c.95-3.37 2.14-6.39.56-9.9-.25-.56-.77-1.22-.93-1.98ZM39.96 17.92c.78.16 1.5.44 2.15.83v.05l-.67.55-.12-.04a9.3 9.3 0 0 0-2.4-.69l1.04-.7Z" fill="#F57C20"/><path d="M43.4 17.87c2.9.89 3.8 3.94 3.32 6.73l-.02.05a.09.09 0 0 1-.1 0 .09.09 0 0 1-.04-.04c-.2-.64-.53-1.85-.86-2.58a7.57 7.57 0 0 0-3.23-3.5l.37-.26a.05.05 0 0 1 .02-.04h.04l.5-.36Z" fill="#F9C757"/><path d="M38.93 18.62a9.3 9.3 0 0 1 2.39.7 6.97 6.97 0 0 1-3.15 1.2l-1.38.15c-.96.08-1.92 0-2.88-.27a13.84 13.84 0 0 0 4.95-1.75c.04 0 .06-.01.07-.03Z" fill="#5A5555" fill-opacity=".2"/><path d="M46.16 24.37h-.36c-.41-.98-1.02-2.6-1.8-3.06a7.82 7.82 0 0 0-2.56-1.96l.67-.55c.67.32 1.27.75 1.8 1.28.51.5 2 1.5 2.25 4.29Z" fill="#F59724"/><path d="M27.6 19.4c0 .07-.05.15-.15.22a.07.07 0 0 0-.02.1l.03.02a.7.7 0 0 0 .24.04l-1.13.31a.35.35 0 0 1 .08-.3l.96-.4Z" fill="#F57C20"/><path d="m22.88 19.71.06.05c.34.29.6.54.81.76.72.77.08 1.86-.86 1.87-.95 0-1.6-1.09-.88-1.86a11.06 11.06 0 0 1 .87-.82Z" fill="#fff"/><path d="M19.39 21.02c.12.11.21.24.28.39.01.1-.06.1-.2.05a19.9 19.9 0 0 0-3.65-.5 21.1 21.1 0 0 0-3.31 0l-1.39.18c-.26.03-.55.09-.86.18l-.87.2 2.34-.6h.01v-.06a.05.05 0 0 0 0-.04.05.05 0 0 0-.05-.01 8.6 8.6 0 0 0-4.73 1.6 4.72 4.72 0 0 0-1.85 4.09l.02.01h.04l.01-.04.26-1.17a4.87 4.87 0 0 1 3.03-3.45c-.54.32-.94.59-1.22.81a4.62 4.62 0 0 0-1.72 4.64 9.62 9.62 0 0 0 1.05 3.1l-.03.03-.05.03a.07.07 0 0 1-.1-.02l-.67-1a8 8 0 0 1-.7-2.33v-1.9c.73-5.93 10.19-4.87 14.36-4.19Z" fill="#FBD983"/><path d="m9.4 21.52-.93.33a4.86 4.86 0 0 0-3.03 3.45 496.76 496.76 0 0 1-.27 1.2.04.04 0 0 1-.06 0c-.01-.01-.02-.02-.01-.03a4.72 4.72 0 0 1 1.86-4.05 8.6 8.6 0 0 1 4.77-1.6.05.05 0 0 1 .02.04v.05l-.02.01-2.34.6Z" fill="#FDD69B"/><path d="M15.82 20.96c-1.2-.02-2.3.01-3.31.1-1.25.1-2.52.4-3.8.93-.88.35-1.54.8-1.98 1.33-1.7 1.98-1.31 4.32-.32 6.51.4.87.87 1.69 1.44 2.47.12.17.2.45.26.83a15.93 15.93 0 0 1-2.38-3.69l.68 1 .04.03.05-.01.05-.03.02-.03v-.04a9.62 9.62 0 0 1-1.04-3.06 4.62 4.62 0 0 1 1.72-4.64c.28-.22.68-.5 1.22-.8l.92-.34.87-.2c.31-.09.6-.15.86-.18l1.39-.18c.56-.08 1.67-.08 3.3 0Z" fill="#F9C454"/><path d="M15.82 20.96c1.22.05 2.44.22 3.65.5l-3.7-.22c-1.37-.17-2.16.27-3.56.9a7.28 7.28 0 0 0-3.16 2.6c-1.26 1.77-.98 4.73-.3 6.68.24.67.6 1.35.73 2.1-.7-.97-1.54-1.99-2.1-2.9a14.65 14.65 0 0 1-1.55-3.44H5.8l-.02.01v.03c.12 1.04.44 2.02.95 2.93a17.2 17.2 0 0 0 1.39 2.23c.82 1 1.42 1.9 1.81 2.71l-1.82-1.96a1.89 1.89 0 0 0-.26-.83c-.57-.78-1.05-1.6-1.44-2.47-1-2.19-1.37-4.52.32-6.51.44-.53 1.1-.98 1.98-1.33 1.28-.53 2.55-.84 3.8-.94 1-.08 2.11-.1 3.3-.09Z" fill="#F7B13B"/><path d="M15.77 21.24a11.97 11.97 0 0 0-5.07 2.21c-1.77 1.32-2.3 3-2.2 5.26.1 1.68.66 3.03 1.27 4.76a.16.16 0 0 1-.05.18.15.15 0 0 1-.19 0l-.05-.13c-.14-.75-.49-1.43-.73-2.1-.68-1.95-.96-4.9.3-6.68a7.28 7.28 0 0 1 3.15-2.6c1.4-.63 2.2-1.07 3.57-.9Z" fill="#F59724"/><path d="M19.47 21.46c.14.06.21.04.2-.05l.28.44c-3.2-.21-8.08.2-10.1 3.2-2.05 3.04-.23 6.92 1.64 9.6-.35 1.17.43 1.85 1 2.73l-1.83-1.58c-.2-.45-.49-.93-.85-1.43a1.93 1.93 0 0 1-.33-.85c.02.08.04.13.05.13a.15.15 0 0 0 .19 0 .16.16 0 0 0 .05-.18c-.61-1.73-1.18-3.08-1.26-4.76-.11-2.26.42-3.94 2.2-5.26 1.4-1.03 3.29-1.95 5.06-2.2l3.7.2Z" fill="#F57C20"/><path d="M33.82 27.64v2.47c0 .89.17 1.78 1.29 1.65.46-.05.72-.28.79-.68.06-.4.08-.86.06-1.37-.03-.47-.12-.76-.48-1.07-.54-.48-1.2-1.1-2.01-1.89a6.03 6.03 0 0 1-.94-1.1.81.81 0 0 1-.1-.26 4.05 4.05 0 0 1-.02-1.91c.4-1.36 1.52-1.86 2.9-1.75.91.07 1.68.6 2.04 1.46.3.68.17 1.72.19 2.45v.02a.05.05 0 0 1-.05.03h-1.44l-.01-.04c-.02-1.12.28-3.24-1.63-2.64-.55.17-.55 1.22-.5 1.7.02.31.12.5.35.71l2.01 1.82c.78.7 1.25 1.4 1.26 2.39 0 .49.07 1.27-.15 1.8a2.4 2.4 0 0 1-1.76 1.5c-.42.1-1.15.08-1.56-.05-.95-.3-1.53-.96-1.74-2.02v-3.23s0-.02.02-.03a.06.06 0 0 1 .04-.02h1.38a.06.06 0 0 1 .05.02.06.06 0 0 1 .01.04Z" fill="#ED1C24"/><path d="M11.77 21.72a.1.1 0 0 1 .06.01.1.1 0 0 1 0 .17c-1.18.7-2.55 1.77-3.2 2.96-1.02 1.86-.79 3.99-.46 6.08a.08.08 0 0 1-.05.09.07.07 0 0 1-.09-.03 12.1 12.1 0 0 1-1.55-2.92c-.77-2.15-.24-4.24 1.86-5.32a10 10 0 0 1 3.43-1.04Z" fill="#FBD372"/><path d="M5.03 25.22v1.89H5v-1.86l.03-.03Z" fill="#85BD41"/><path d="M9.48 33.52c.05.33.16.62.33.85.36.5.65.98.85 1.43l-.73-.7c-.39-.81-1-1.72-1.81-2.72a17.2 17.2 0 0 1-1.4-2.23 7.97 7.97 0 0 1-.94-2.96l.02-.01h.03l.01.02c.36 1.18.87 2.32 1.54 3.41.56.92 1.4 1.94 2.1 2.9Z" fill="#F59724"/><path d="M13.45 28.16a.05.05 0 0 0 .02.04.04.04 0 0 0 .05 0 2 2 0 0 1 2.98.04.09.09 0 0 0 .07 0l.03-.01c.75-.71 1.59-.86 2.52-.44.77.34.89 1.09.88 1.95a289.96 289.96 0 0 0-.02 3.24.05.05 0 0 1-.04.02h-1.4c-.02 0-.03 0-.04-.02l-.02-.03v-3.23c.01-.7-.32-.99-1-.88-.5.07-.75.4-.75 1a634.02 634.02 0 0 1-.02 3.14.06.06 0 0 1-.04.02h-1.39l-.04-.02a115.24 115.24 0 0 0-.03-3.48c-.02-.86-1.14-.82-1.51-.36-.16.18-.22.56-.2 1.12a117.43 117.43 0 0 1-.02 2.72c0 .01-.01.02-.03.02h-1.4c-.02 0-.03 0-.04-.02l-.01-.03v-5.13a.1.1 0 0 1 .03-.08.1.1 0 0 1 .07-.03h1.25a.1.1 0 0 1 .07.03.1.1 0 0 1 .03.08v.34ZM22.1 30.69c.15 1.27 1.66 1.41 2.34.59a.21.21 0 0 1 .16-.08h1.5a.06.06 0 0 1 .03.06v.03c-.61 1.77-3.3 2.17-4.7 1.16a2.53 2.53 0 0 1-1.04-1.85c-.18-1.45.48-2.78 1.98-3.1 2.22-.47 4 .56 3.85 3a.09.09 0 0 1-.09.08H22.2a.1.1 0 0 0-.1.1Zm.04-1.05h2.33a.02.02 0 0 0 .02-.02v-.02a.96.96 0 0 0-.32-.71c-.2-.19-.49-.3-.78-.3h-.17a1.2 1.2 0 0 0-.78.3 1 1 0 0 0-.24.32.92.92 0 0 0-.09.39v.02a.02.02 0 0 0 .02.02Z" fill="#ED1C24"/><path d="M44 21.31s1.38.7 1.79 2.85l.31 1.54c.2 2.41.2 6.98-1.24 8.95-.04.12-.07.37-.1.77l-.9 2-.35-.22c1.67-4.55 3.68-11.27.48-15.89Z" fill="url(#a)"/><path d="M30.35 32.36c-.85.7-1.78.85-2.78.45-.77-.3-.9-1.07-.89-1.9a236.15 236.15 0 0 0 0-3.32.12.12 0 0 1 .11-.08h1.43a.08.08 0 0 1 .06.03.08.08 0 0 1 .01.07v3.26c0 .57.26.87.76.9.57.05.97-.12 1.2-.51.11-.2.16-.65.14-1.35v-2.29c0-.03 0-.05.02-.07a.1.1 0 0 1 .08-.04h1.41a.1.1 0 0 1 .07.03.1.1 0 0 1 .03.07v6.98c0 .8-.07 1.34-.23 1.64-.52 1.02-1.45 1.43-2.62 1.37a2.42 2.42 0 0 1-2.37-2.15 22.06 22.06 0 0 1-.01-1.63.1.1 0 0 1 .05-.06.1.1 0 0 1 .04 0h1.4a.1.1 0 0 1 .08.03.1.1 0 0 1 .03.07c-.01.89 0 1.44.02 1.66.04.49.3.77.75.85.8.14 1.22-.21 1.27-1.04a117.41 117.41 0 0 0 0-2.97.04.04 0 0 0-.06 0ZM39.52 27.62v3.15c0 .77.36 1.09 1.08.96.6-.1.9-.49.9-1.16a508.35 508.35 0 0 0-.01-2.99.1.1 0 0 1 .05-.06.1.1 0 0 1 .04 0h1.33c.03 0 .05 0 .06.02a.1.1 0 0 1 .03.07v5.1l-.03.09a.12.12 0 0 1-.09.03h-1.26a.1.1 0 0 1-.07-.03.1.1 0 0 1-.03-.07v-.36l-.03-.02a.05.05 0 0 0-.06 0c-.82.7-1.7.83-2.62.4-.5-.23-.77-.7-.79-1.43a90.44 90.44 0 0 1 0-3.7.1.1 0 0 1 .02-.08.1.1 0 0 1 .07-.03h1.3a.1.1 0 0 1 .08.04.11.11 0 0 1 .03.07Z" fill="#ED1C24"/><path d="M47.1 29a49.84 49.84 0 0 1-2.34 6.41c.03-.39.06-.64.1-.76 1.17-3.21.42-3.82 2.23-5.65Z" fill="#F59724"/><path d="M12.5 37.38c-.58-.88-1.36-1.56-1-2.73a36.02 36.02 0 0 0 5.23 5.7v.01h-.03a45.7 45.7 0 0 1-4.2-2.98Z" fill="#F36622"/><path d="M43.86 37.41 42.1 41a.02.02 0 0 1-.03 0v-.02l1.45-3.77.35.21Z" fill="#F57C20"/><defs><linearGradient id="a" x1="45.78" y1="25.63" x2="43.74" y2="37.6" gradientUnits="userSpaceOnUse"><stop offset=".27" stop-color="#FDD295"/><stop offset="1" stop-color="#F57C20"/></linearGradient></defs></svg>