<!-- by TradingView --><svg width="56" height="56" viewBox="0 0 56 56" xmlns="http://www.w3.org/2000/svg"><path fill="#F0F3FA" d="M0 0h56v56H0z"/><path d="M16.5 29.6 12.65 32h7.7l-3.85-2.4Z" fill="#C10230"/><path d="M13 24h2v2h3v-2h2v6.55l-2-1.27V28h-3v1.33l-2 1.28V24ZM10 32v-4.48l-1.99 2.64L6 27.49V32H4V24h2.17L8 26.5 9.82 24H12v8h-2ZM26.33 32l-1.14-1.73-.2.01H23V32h-2v-8h3.82c.96 0 1.72.3 2.34.94.64.67.96 1.49.96 2.42 0 .82-.25 1.54-.73 2.15l-.1.13L29 32h-2.67ZM23 28.34h1.81c.64 0 1.15-.54 1.15-1.2 0-.67-.51-1.14-1.15-1.14H23v2.34Z" fill="#1D1D1B"/><path d="M33.07 32c-1.2 0-2.2-.39-2.96-1.15A3.83 3.83 0 0 1 29 28.02v-.03c0-1.1.38-2.05 1.15-2.83a3.9 3.9 0 0 1 2.9-1.16c1.17 0 2.18.35 3.01 1.05l-.87 1.03a3.3 3.3 0 0 0-2.2-.84c-.72 0-1.32.26-1.81.8a2.76 2.76 0 0 0-.74 1.93v.02c0 .8.25 1.47.75 1.98.5.52 1.13.79 1.92.79.74 0 1.36-.2 1.89-.6V29h-2v-1.2h3.34v2.99c-.95.8-2.03 1.2-3.27 1.2ZM39.62 32v-3.16L36.51 24h1.62l2.2 3.54L42.55 24h1.58L41 28.81V32h-1.38ZM47.99 32A3.9 3.9 0 0 1 44 28.03v-.04a3.93 3.93 0 0 1 4.01-4A3.9 3.9 0 0 1 52 27.97V28a3.93 3.93 0 0 1-4.01 4Zm.02-1.24a2.4 2.4 0 0 0 1.86-.81c.47-.51.72-1.16.72-1.93V28a2.8 2.8 0 0 0-.74-1.96c-.5-.53-1.11-.8-1.86-.8a2.4 2.4 0 0 0-1.86.79 2.76 2.76 0 0 0-.72 1.94v.03c0 .77.25 1.42.73 1.94.5.55 1.12.83 1.87.83Z" fill="#C10230"/></svg>