<!-- by TradingView --><svg xmlns="http://www.w3.org/2000/svg" width="56" height="56" viewBox="0 0 56 56"><path fill="#0040A4" d="M0 0h56v56H0z"/><path fill-rule="evenodd" d="M10 18h4.51l3.9 10.27.74 2.16-.46-2.49L22.45 18H27v15h-3V22.95L20.2 33h-3.44L13 23.07V33h-3V18zm22 0h-3v15h3V20.72l-1.7 1.04 1.7-1.73V18zm6.33 0L32.5 33h3.33l.75-2.25 5.09-2.61 1.8 4.86H47l-5.67-15h-3zm2.88 8.92l-1.67-4.5-2.4 6.8-1.49 1.45 5.56-3.75zM11.27 34H10v.5h1.27V38h.5v-3.5H13V34h-1.73zM23 34H23.68l1.82 3.25V34h.5v4h-.7l-1.8-3.23V38H23v-4zm10 0h.5v3.5h2v.5H33v-4zm10.5 0H43v3c0 .28-.27.5-.52.5A.51.51 0 0 1 42 37v-.5h-.5v.5c0 .65.39.99.96.99.58 0 1.04-.34 1.04-.99v-3zm2.5 0h-.5v4h.5v-4zm-31 0h-.5v4h2.7v-.5H15v-1.25h2v-.5h-2V34.5h2.2V34H15zm4.5 0H19v4h.5v-1.37l.53-.57L21.26 38h.6l-1.46-2.34L21.95 34h-.66l-1.79 1.88V34zm9.75 0c-.97 0-1.75.8-1.75 1.8v.4c0 1 .78 1.8 1.75 1.8S31 37.2 31 36.2v-.4c0-1-.78-1.8-1.75-1.8zm0 .5c-.7 0-1.26.6-1.26 1.35v.3c0 .75.56 1.35 1.27 1.35.7 0 1.27-.6 1.27-1.35v-.3c0-.75-.57-1.35-1.27-1.35zm7.3 1.3c0-1 .78-1.8 1.75-1.8.96 0 1.75.8 1.75 1.8v.4c0 1-.79 1.8-1.75 1.8-.97 0-1.75-.8-1.75-1.8v-.4zm.48.05c0-.75.57-1.35 1.27-1.35.7 0 1.27.6 1.27 1.35v.3c0 .75-.57 1.35-1.27 1.35-.7 0-1.27-.6-1.27-1.35v-.3z" fill="#FFFEFF"/></svg>