<!-- by TradingView --><svg xmlns="http://www.w3.org/2000/svg" width="56" height="56"><path fill="#001CA8" d="M0 0h56v56H0z"/><path d="M7.4 30l-1.89-4.22v3.37c0 .3.03.49.1.56.09.1.23.16.42.16h.18V30H4.5v-.13h.17c.21 0 .36-.07.44-.2.06-.07.08-.24.08-.52v-3.3c0-.22-.02-.37-.07-.47a.4.4 0 00-.19-.17.96.96 0 00-.43-.08V25h1.39l1.78 3.93L9.4 25h1.4v.13h-.18c-.2 0-.36.07-.44.2-.06.07-.08.24-.08.52v3.3c0 .3.03.49.1.56.09.1.23.16.42.16h.17V30H8.72v-.13h.17c.21 0 .36-.07.44-.2.06-.07.08-.24.08-.52v-3.37L7.52 30h-.11zm6.59 0l-1.9-4.22v3.37c0 .3.04.49.1.56.1.1.23.16.43.16h.17V30h-1.7v-.13h.17c.2 0 .35-.07.44-.2.05-.07.08-.24.08-.52v-3.3c0-.22-.03-.37-.08-.47a.4.4 0 00-.18-.17.96.96 0 00-.44-.08V25h1.4l1.77 3.93L16 25h1.39v.13h-.17c-.21 0-.36.07-.45.2-.05.07-.08.24-.08.52v3.3c0 .3.03.49.1.56.1.1.23.16.43.16h.17V30H15.3v-.13h.18c.2 0 .35-.07.44-.2.05-.07.08-.24.08-.52v-3.37L14.1 30H14zM22 24.93l.11 1.66H22a2.1 2.1 0 00-.64-1.08 1.56 1.56 0 00-1-.32c-.32 0-.62.08-.88.24-.26.17-.47.43-.62.8a3.9 3.9 0 00-.01 2.56c.14.32.35.57.64.74.28.18.61.26.98.26.32 0 .6-.06.84-.2s.51-.4.8-.81l.11.07c-.24.44-.53.76-.86.96-.32.2-.71.3-1.16.3a2.2 2.2 0 01-1.89-.9c-.33-.45-.5-.98-.5-1.58 0-.5.11-1 .33-1.42a2.45 2.45 0 012.16-1.29c.36 0 .7.1 1.05.27.1.05.18.07.22.07.06 0 .12-.02.17-.06.06-.07.1-.16.13-.27H22zm5.72.06v1.7h-.13a2.09 2.09 0 00-.24-.78 1.32 1.32 0 00-1.12-.63.87.87 0 00-.62.23.7.7 0 00-.24.52c0 .15.05.28.15.4a4 4 0 001.07.73c.46.25.77.43.93.57a1.34 1.34 0 01.53 1.02c0 .37-.15.7-.44.96-.28.27-.65.4-1.1.4a2.35 2.35 0 01-.87-.16 2.03 2.03 0 00-.45-.12.2.2 0 00-.14.06c-.04.03-.06.1-.08.22h-.13v-1.68h.13c.07.35.15.62.26.8.1.17.26.31.48.43.22.11.46.17.72.17.3 0 .54-.08.71-.24a.74.74 0 00.26-.56.75.75 0 00-.1-.37 1.07 1.07 0 00-.3-.34c-.1-.07-.35-.23-.77-.46a7.73 7.73 0 01-.9-.56c-.18-.14-.3-.3-.4-.47a1.2 1.2 0 01.27-1.46c.27-.25.61-.38 1.03-.38.26 0 .53.06.82.19.14.06.23.09.29.09.06 0 .11-.02.15-.05.04-.04.07-.12.1-.23h.13zm4.11 3.37h-1.9l-.32.77c-.09.2-.13.34-.13.43 0 .07.04.14.1.2.08.05.23.09.47.1V30H28.5v-.13c.2-.04.33-.09.4-.14.12-.12.25-.36.4-.7L31.04 25h.12l1.7 4.06c.15.33.27.54.38.64.11.1.27.15.47.17V30h-1.93v-.13c.2-.01.32-.05.39-.1.07-.06.1-.12.1-.2 0-.11-.04-.28-.14-.5l-.3-.71zm-.1-.27l-.83-1.98-.85 1.98h1.68zM33.7 25h1.33l3 3.78v-2.93c0-.3-.04-.49-.1-.56a.58.58 0 00-.43-.16h-.17V25h1.7v.13h-.17c-.2 0-.35.07-.44.2-.05.07-.08.24-.08.52v4.23h-.13l-3.23-4.05v3.12c0 .3.03.49.1.56.1.1.23.16.42.16h.18V30h-1.71v-.13h.17c.2 0 .36-.07.44-.2.06-.07.08-.24.08-.52v-3.5a2.16 2.16 0 00-.32-.34c-.07-.05-.18-.1-.32-.14a1.15 1.15 0 00-.32-.04V25zm8.83 3.36h-1.9l-.33.77c-.08.2-.12.34-.12.43 0 .07.03.14.1.2.07.05.23.09.46.1V30H39.2v-.13c.2-.04.34-.09.4-.14.12-.12.26-.36.4-.7l1.73-4.04h.13l1.7 4.07c.14.33.26.54.38.64.1.1.27.15.47.17V30h-1.94v-.13c.2-.01.33-.05.4-.1.07-.06.1-.12.1-.2 0-.11-.05-.28-.14-.5l-.3-.71zm-.1-.27l-.83-1.98-.86 1.98h1.69zM47.34 25h1.7v.13h-.09a1.07 1.07 0 00-.6.32c-.1.1-.22.28-.36.51l-1.19 1.96v1.23c0 .3.04.49.1.56.1.1.24.16.44.16h.16V30h-2.08v-.13h.17c.2 0 .35-.07.44-.2.05-.07.08-.24.08-.52V28l-1.34-2.15c-.16-.24-.27-.4-.33-.45a1.23 1.23 0 00-.35-.22.48.48 0 00-.2-.04V25h2.09v.13h-.11a.64.64 0 00-.32.08.26.26 0 00-.14.24c0 .09.08.25.22.47l1.03 1.68.96-1.61c.14-.23.21-.4.21-.5a.33.33 0 00-.2-.3.7.7 0 00-.3-.06V25zm4.1 4.87V30h-2.1v-.13h.18c.2 0 .35-.06.44-.18.06-.08.09-.26.09-.56v-3.26c0-.25-.02-.41-.05-.5a.33.33 0 00-.15-.15.68.68 0 00-.33-.09h-.18V25h2.1v.13h-.17c-.2 0-.35.06-.44.18-.06.08-.1.26-.1.56v3.26c0 .25.02.41.06.5.02.05.07.1.15.15.1.06.21.09.33.09h.17z" fill="#fff"/></svg>