<!-- by TradingView --><svg width="56" height="56" xmlns="http://www.w3.org/2000/svg"><path fill="#19A3BF" d="M0 0h56v56H0z"/><path fill-rule="evenodd" d="M10.5 25c1.367.001 2.27.582 2.813 1.34A3.83 3.83 0 0114 28.516v3.103c0 .753-.663 1.38-1.506 1.38a1.483 1.483 0 01-1.493-1.35L11 31.634V28.71c0-.273-.016-.556-.103-.763a.405.405 0 00-.13-.18c-.042-.03-.119-.067-.27-.067-.148 0-.223.037-.264.067a.424.424 0 00-.132.188c-.087.212-.101.498-.101.755v2.91c0 .582-.53 1.38-1.5 1.38a1.5 1.5 0 01-1.121-.492c-.228-.249-.385-.586-.379-.894V27.39c.006-.216-.083-.575-.323-.874C6.454 26.237 6.091 26 5.5 26c-.583 0-.95.245-1.18.535-.247.313-.33.672-.323.846v4.231a.56.56 0 00.121.229c.084.092.2.162.374.159.384-.006.508-.285.508-.38v-3.105c0-.806.537-1.343.8-1.524a.5.5 0 11.568.823.947.947 0 00-.227.247.833.833 0 00-.141.454v3.105c0 .604-.526 1.365-1.492 1.38a1.467 1.467 0 01-1.132-.49c-.233-.258-.374-.593-.379-.883v-4.216c-.014-.428.157-1.014.54-1.497C3.94 25.404 4.587 25 5.5 25c.904 0 1.55.383 1.957.889.389.484.553 1.072.543 1.519v4.22c0 .002.004.021.018.055.02.046.053.1.098.15A.502.502 0 008.5 32a.503.503 0 00.385-.156c.093-.1.115-.2.115-.224v-2.91c0-.25.005-.72.177-1.136a1.41 1.41 0 01.463-.612c.236-.173.525-.262.857-.262.328 0 .616.085.852.253.232.167.378.388.47.605.174.414.181.886.181 1.152v2.89a.522.522 0 00.12.242.463.463 0 00.374.158c.358 0 .506-.244.506-.38v-3.11a2.832 2.832 0 00-.5-1.588c-.357-.498-.96-.922-2.003-.922h-.008a3.435 3.435 0 00-.685.084c-.313.069-.61.177-.809.323a.5.5 0 01-.593-.805c.363-.267.817-.414 1.188-.495.373-.082.718-.11.91-.107zm8.181 1.428c-.212-.225-.568-.433-1.162-.428-.597.005-.955.216-1.173.444-.22.23-.319.5-.346.668V28h2.5a.5.5 0 00.5-.5v-.409a1.161 1.161 0 00-.319-.663zM16 29h2.5a1.5 1.5 0 001.5-1.5v-.446c-.018-.383-.198-.895-.592-1.312-.409-.434-1.034-.749-1.897-.742-.861.007-1.479.325-1.887.752a2.303 2.303 0 00-.62 1.264l-.004.03v3.611l.002.02c.03.392.189.962.573 1.443.401.502 1.035.887 1.944.88.905-.007 1.532-.395 1.927-.896.378-.48.528-1.045.553-1.435a.5.5 0 10-.998-.064c-.015.227-.11.587-.341.88-.215.274-.561.51-1.15.515-.584.005-.933-.228-1.154-.504a1.752 1.752 0 01-.356-.88V29zm20.681-2.572c-.212-.225-.568-.433-1.162-.428-.597.005-.955.216-1.173.444-.22.23-.319.5-.346.668V28h2.5a.5.5 0 00.5-.5v-.409a1.161 1.161 0 00-.319-.663zM34 29h2.5a1.5 1.5 0 001.5-1.5v-.446c-.018-.383-.198-.895-.592-1.312-.409-.434-1.034-.749-1.897-.742-.861.007-1.479.325-1.888.752a2.303 2.303 0 00-.62 1.264l-.003.03v3.611l.002.02c.03.392.189.962.573 1.443.401.502 1.035.887 1.944.88.905-.007 1.532-.395 1.927-.896.378-.48.528-1.045.553-1.435a.5.5 0 10-.998-.064c-.014.227-.11.587-.341.88-.215.274-.561.51-1.15.515-.584.005-.933-.228-1.154-.504a1.752 1.752 0 01-.356-.88V29zm11.681-2.572c-.212-.225-.568-.433-1.162-.428-.597.005-.955.216-1.173.444-.22.23-.319.5-.346.668V28h2.5a.5.5 0 00.5-.5v-.409a1.161 1.161 0 00-.319-.663zM43 29h2.5a1.5 1.5 0 001.5-1.5v-.446c-.018-.383-.198-.895-.592-1.312-.409-.434-1.034-.749-1.897-.742-.861.007-1.479.325-1.888.752a2.303 2.303 0 00-.62 1.264l-.003.03v3.611l.002.02c.03.392.189.962.573 1.443.401.502 1.035.887 1.944.88.905-.007 1.532-.395 1.927-.896.378-.48.528-1.045.553-1.435a.5.5 0 10-.998-.064c-.014.227-.11.587-.341.88-.215.274-.561.51-1.15.515-.584.005-.933-.228-1.154-.504a1.752 1.752 0 01-.356-.88V29zm-21-1.67v5.17a.5.5 0 01-1 0v-5.185a2.45 2.45 0 01.544-1.44c.408-.5 1.059-.875 2-.875.857 0 1.486.376 1.89.856.385.46.576 1.028.566 1.475V32.5a.5.5 0 11-1 0v-5.19c.005-.178-.086-.517-.333-.811-.23-.275-.588-.499-1.123-.499-.645 0-1.01.243-1.225.506-.23.283-.314.625-.319.824zM31.504 22a.5.5 0 01.5.5v8.224a2.61 2.61 0 01-.53 1.406c-.383.493-.995.87-1.88.87a2.57 2.57 0 01-1.961-.862c-.405-.454-.629-1.019-.629-1.442v-3.437c0-.856.755-2.205 2.575-2.259h1.425v-2.5a.5.5 0 01.5-.5zm-.5 4h-1.402c-1.23.04-1.598.9-1.598 1.259v3.437c0 .127.097.464.375.775.259.29.65.529 1.215.529.564 0 .89-.224 1.091-.484a1.62 1.62 0 00.32-.835V26zm9.077-.578a2.37 2.37 0 011.45-.418.5.5 0 01-.063.998 1.374 1.374 0 00-.819.243c-.274.189-.554.533-.649 1.18V32.5a.5.5 0 11-1 0v-5.144l.005-.034c.126-.93.553-1.54 1.076-1.9zm8.262.501c.387-.559 1.05-.93 1.962-.923.998.008 1.682.427 2.108.973.41.525.565 1.143.584 1.567a.5.5 0 01-1 .044 1.847 1.847 0 00-.372-.996c-.242-.31-.642-.582-1.328-.588-.612-.005-.95.23-1.132.493a1.233 1.233 0 00-.178.955l.007.03.003.03.002.005c.01.026.05.141.171.29.133.162.343.337.657.447l1.633.547a1.4 1.4 0 01.214.091c.456.244.805.527 1.03.902.225.376.293.787.293 1.22 0 .779-.397 1.303-.9 1.607-.477.29-1.042.383-1.47.383a3.074 3.074 0 01-1.61-.466C48.45 32.166 48 31.544 48 30.61a.5.5 0 111 0c0 .558.247.88.561 1.084.34.221.771.305 1.067.305.307 0 .676-.072.95-.238.249-.15.42-.372.42-.752 0-.33-.053-.54-.152-.705-.1-.166-.28-.341-.643-.535a.404.404 0 00-.061-.025l-1.64-.55a2.453 2.453 0 01-1.105-.758c-.214-.261-.354-.552-.39-.786a2.24 2.24 0 01.336-1.728z" fill="#fff"/></svg>