<!-- by TradingView --><svg width="56" height="56" viewBox="0 0 56 56" xmlns="http://www.w3.org/2000/svg"><path fill="#E0E3EB" d="M0 0h56v56H0z"/><path d="M10.6 25c.86-.02 1.9.17 2.24 1.14.1.3.16.75.16 1.07V31h-1.5v-3.6c0-.73-.34-1.1-1.26-1.1h-.49V31h-1.5v-4.7H6.5V31H5v-6h5.6ZM23.5 25h1.41c.87 0 1.88.2 2.44.94.53.64.65 1.47.65 2.28 0 .76-.3 1.48-.82 2.03a2.87 2.87 0 0 1-2.11.75H22v-8h1.5v2Zm1 1.3h-1v3.4h.27c1.39 0 2.73-.04 2.73-1.76 0-1.28-.92-1.64-2-1.64ZM29 24.5V23h1.5v1.5H29Zm0 6.5v-6h1.5v6H29ZM32.5 31v-8H34v8h-1.5ZM47 23h1.5v5.1c0 .73.47 1.6 1.49 1.6H52V31h-2.4c-1.66 0-2.6-1.23-2.6-2.9V23ZM36 25v-2h1.5v2H39v1.3h-1.5v2.36c0 1.04.57 1.04 1.4 1.04h.1V31h-1.09c-1.06 0-1.91-.7-1.91-1.82V26.3h-1V25h1ZM40.76 30.26a2.83 2.83 0 0 1-.76-2v-.39c0-.9.26-1.54.75-2.04.6-.66 1.53-.83 2.38-.83h2.37v1.3h-2.17c-.85-.01-1.78.18-1.81 1.1h3.98v1.2h-3.98c0 .93 1.06 1.1 1.8 1.1h2.18V31h-2.37c-.86 0-1.76-.09-2.37-.74Z" fill="#0D3B5F"/><circle cx="17.5" cy="27.5" r="3.5" fill="#914C22"/><path d="M20.73 27.1c0 1.6-1.28 2.9-2.87 2.9a2.89 2.89 0 0 1 0-5.78 2.87 2.87 0 0 1 2.87 2.88Z" fill="#B35624"/><path d="M20.71 26.9a2.6 2.6 0 0 1-2.6 2.6 2.6 2.6 0 1 1 0-5.2 2.6 2.6 0 0 1 2.6 2.6Z" fill="#EB6424"/><circle cx="18.2" cy="26.8" r="2" fill="#ED6E28"/><circle cx="18.2" cy="26.8" r="1.5" fill="#F18525"/><circle cx="18.2" cy="26.8" r="1" fill="#F49825"/></svg>