<!-- by TradingView --><svg width="56" height="56" viewBox="0 0 56 56" xmlns="http://www.w3.org/2000/svg"><path fill="#F0F3FA" d="M0 0h56v56H0z"/><path d="M12 13v15h8v-4.34A10.54 10.54 0 0 0 27.96 27c3.73 0 7.07-2.2 8.04-3.34V28h8V13h-8v3.34c-.66 1.38-3.57 4.15-8.04 4.27A8.9 8.9 0 0 1 20 16.34V13h-8Z" fill="#009640"/><path d="M12 43V28h8v4.34A10.54 10.54 0 0 1 27.96 29c3.73 0 7.07 2.2 8.04 3.34V28h8v15h-8v-3.34c-.66-1.38-3.57-4.15-8.04-4.27A8.9 8.9 0 0 0 20 39.66V43h-8Z" fill="#0880C4" fill-opacity=".7"/></svg>