<!-- by TradingView --><svg width="56" height="56" viewBox="0 0 56 56" xmlns="http://www.w3.org/2000/svg"><path fill="#2A2454" d="M0 0h56v56H0z"/><path d="M51 36v1h-5v-1h5Zm-41-7 1.5-9H16v15h-3v-9l-1.5 9h-3L7 26v9H4V20h4.5l1.5 9Zm12.95-9a3 3 0 0 1 3 3v9a3 3 0 0 1-3 3h-3a3 3 0 0 1-3-3v-9a3 3 0 0 1 3-3h3Zm8.85 0c1.07 0 3.2.9 3.2 4.5S32.87 29 31.8 29H30v6h-3V20h4.8ZM44 35h-3l-.43-3h-2.14L38 35h-3l3-15h3l3 15Zm4.5-15c2.56 0 3.49 1.39 3.49 4h-3c-.02-.67.09-1-.49-1s-.85.54-.6 1.09c.43.97 1.55 1.74 2.28 2.46A5.4 5.4 0 0 1 52 30.57c0 2.38-1.03 4.43-3.5 4.43-2.51 0-3.5-1.59-3.5-4.2V29h3v2.2c0 .68 0 .8.5.8.4 0 .56-.1.56-.8 0-1.32-.46-2.03-1.35-2.89-1.26-1.24-2.71-2.43-2.71-4.45 0-2.52 1.37-3.86 3.5-3.86Zm-27.05 3c-.82 0-1.5.67-1.5 1.5v6a1.5 1.5 0 0 0 3 0v-6c0-.83-.67-1.5-1.5-1.5Zm17.4 6h1.3l-.65-4.5-.64 4.5ZM30 26c.53 0 2-.3 2-1.5S30.53 23 30 23v3Z" fill="#F0F3FA"/></svg>