<!-- by TradingView --><svg width="56" height="56" xmlns="http://www.w3.org/2000/svg"><path fill="#F0F3FA" d="M0 0h56v56H0z"/><path d="M6 34.007H4V23.01h3l1 7.658 1-7.66h3v11h-2v-7.489l-1 7.489H7l-1-7.5v7.5z" fill="#495561"/><path d="M49 29.5V32h3v2h-5V23l5 .004V25l-3 .01v2.49h2.5v2H49z" fill="#C81B29"/><path d="M13 23.007h2v9h3v2h-5v-11z" fill="#495561"/><path d="M26 25.659c0-1.569 1.343-2.84 3-2.84s3 1.271 3 2.84v.947h-2v-.947c0-.523-.448-.947-1-.947s-1 .424-1 .947v5.682c0 .523.448.947 1 .947s1-.424 1-.947v-1.42h2v1.42c0 1.569-1.343 2.84-3 2.84s-3-1.271-3-2.84v-5.682z" fill="#C81B29"/><path fill-rule="evenodd" d="M34.42 23l-1.717 11h2.024l.312-2h1.636l.312 2h2.024l-1.716-11H34.42zm2.02 7.5l-.583-3.74-.584 3.74h1.168zM40 23v11h2v-4.35c.199-.004.391-.009.583.006.706.055.909.509.915 1.118.003.253.01 2.186.01 2.186S43.5 34 43.766 34h1.96c-.17-.41-.184-.832-.189-1.255l-.037-2.439c-.029-.689-.616-1.153-1.188-1.478A2 2 0 0045.5 27v-2a2 2 0 00-2-2H40zm2 5h.5a1 1 0 001-1v-1.5a1 1 0 00-1-1H42V28z" fill="#C81B29"/><path fill-rule="evenodd" d="M19 34V23h3.988a2 2 0 012 2v2c0 1.516-1.125 2.27-2.586 2.472a1.91 1.91 0 01-.324.028H21V34h-2zm3.988-7a1 1 0 01-1 1H21v-3.5h.988a1 1 0 011 1V27z" fill="#495561"/></svg>