<!-- by TradingView --><svg xmlns="http://www.w3.org/2000/svg" width="56" height="56"><path fill="#F6931F" d="M0 0h56v56H0z"/><path fill-rule="evenodd" d="M40.05 38.52A16 16 0 1144 27.64c-.49-.04-1.5-.56-1.84-2.29-.44-2.26-2.39-5.18-5.09-5.05a4.93 4.93 0 00-3.83 1.9c-.71 1.12-2.88 3.5-5.85 4-.46.12-1.34.5-1.13 1.08.1.1.78.22 1.75 0v1.8a1.5 1.5 0 000 2.83v.82c-.98.02-3 .7-3 2.65 0 2.49 2.05 3.05 3.52 3.05 1.47 0 3.6-.74 3.48-3.05-.1-1.84-2.07-2.65-3-2.65v-.82a1.5 1.5 0 000-2.82v-2.3l2.88-1.44c.06-.02.2-.04.22.05.03.1-.08.2-.13.23-.43.28-1.23.89-1.02 1.16.05.05.27.11.72-.06.49-.15 1.74.3 1.74 2.08a37.2 37.2 0 00-.29 3.13c-.04 1.23.1 5.8 6.93 6.58zM28 18h1v7h-1v-2h-2.49c-.43-.02-.52-.27-.51-.4v-3.03c0-.46.34-.6.51-.57H28v-1zm7.47 6.08c0 .4-.31.74-.7.74-.37 0-.68-.33-.68-.74s.3-.74.69-.74c.38 0 .69.33.69.74zM26.65 37v-3h1.28l.59 1.83.58-1.83h1.29v3h-.95v-1.77L28.9 37h-.75l-.59-1.77V37h-.92z" fill="#fff"/></svg>