<!-- by TradingView --><svg xmlns="http://www.w3.org/2000/svg" width="56" height="56" viewBox="0 0 56 56"><path fill="#173882" d="M0 0h56v56H0z"/><path d="M26.98 29.73c0-.47.52-.51.97-.51.32 0 .56.03.8.08.47.08.68-.18.71-.5l.05-.46c-.5-.1-1.01-.22-1.78-.22-1.29 0-2.47.55-2.47 1.79 0 2.18 2.85 1.42 2.85 2.48 0 .56-.65.65-1.07.65-.57 0-1.1-.15-1.6-.38v1.04c0 .12.02.2.2.25.53.11 1 .18 1.55.18 1.34 0 2.64-.53 2.64-1.87 0-2.3-2.85-1.7-2.85-2.53zM42.27 26h1.45c.31 0 .57.28.55.63V34h-1.51c-.12 0-.2-.1-.2-.23v-6.9c0-.32-.11-.64-.29-.87zM45 26h1.45c.31 0 .56.28.55.63V34h-1.51c-.12 0-.2-.1-.2-.23v-6.9c0-.32-.11-.64-.29-.87z" fill="#fff"/><path fill-rule="evenodd" d="M38.98 28.12c-.64 0-1.35.14-1.9.28l.06.43c.06.37.35.57.81.48h.02c.25-.05.64-.13.98-.13.66 0 1.05.18 1.05 1.13v.1c-1.65-.42-3.47.24-3.47 1.85 0 1.24.95 1.85 2.39 1.85.7 0 1.13-.12 1.48-.23.25-.07.46-.13.71-.13.28 0 .41.02.66.1V30c0-1.46-1.5-1.89-2.79-1.89zm.1 5.07c.51 0 .92-.33.92-1v-.85c-.93-.2-1.83-.02-1.83.87 0 .63.41.98.92.98z" fill="#fff"/><path d="M32.24 28.98c.43-.5 1-.84 1.73-.84 1.3 0 2.05.71 2.03 2.12V34h-1.39a.61.61 0 0 1-.61-.62v-3.17c0-.66-.18-1-.71-1-.52 0-1.07.5-1.07 1.6V34H30.6c-.13 0-.22-.12-.22-.23v-6.9c0-.33-.11-.64-.3-.87h1.56c.33 0 .6.3.6.64v2.34zM22.92 28.88V29c.34-.51.82-.88 1.49-.88.12 0 .33 0 .59.07v1.27c0 .14-.08.22-.24.17-.84-.22-1.68-.13-1.76 1.14V34h-1.74c-.13 0-.25-.1-.25-.23v-4.64c0-.33-.09-.64-.28-.87h1.58c.34 0 .61.28.61.62z" fill="#fff"/><path fill-rule="evenodd" d="M17.28 28.12c-.63 0-1.3.14-1.84.28l.06.43c.06.37.34.57.78.48h.02c.24-.05.62-.13.95-.13.63 0 1.02.18 1.02 1.13v.1c-1.6-.4-3.35.24-3.35 1.85 0 1.24.92 1.85 2.31 1.85.68 0 1.1-.12 1.43-.23.25-.07.45-.13.7-.13.26 0 .4.02.64.1V30c-.01-1.46-1.5-1.89-2.72-1.89zm.09 5.07c.48 0 .88-.33.88-1l-.01-.86c-.9-.2-1.76-.01-1.76.88 0 .63.4.98.89.98z" fill="#fff"/><path d="M11.43 26h2.02c.32 0 .55.26.55.64V34h-1.78a.21.21 0 0 1-.22-.22V27.7L10.28 34h-.67c-.34 0-.52-.22-.62-.55L7 27.73V34h-.8c-.12 0-.2-.1-.2-.23v-6.9c0-.34-.1-.64-.29-.87H8c.4 0 .58.15.71.56l1.33 4.28 1.4-4.84zM50.06 26.66c.1-.1.09-.58.09-.58s-.2-.3-.38-.24c-.2.06-.2.4-.15.68.04.28.33.25.44.14z" fill="#fff"/><path d="M51.54 26.3c.8-1.23.73-2.56.73-2.56 0-1.37-.55-2.73-2.1-3.84 1.32 1.1 2.2 2.96 1.81 4.59-.03.1-.1.47-.15.56-.12.48-.23.83-.55 1.37l-.35.17c-.22.24-.41.3-.54.35-.16.06-.58.2-.9.27-.26.07-.7.02-.85-.12-.15-.14-.14-.24-.1-.38.05-.14-.07-.12-.07-.12-.2.01-.18.18-.18.18 0 .05.06.32.36.58.3.26.6.25.66.25.1 0 .21.01.38.14.16.1.16.24.14.42-.02.36-.15.3-.49.76l-.41.67c-.06.1-.14.14-.2.18-.06.03-.08.05-.18.26-.06.14-.06.25.06.25s.26-.2.29-.26l.15-.23.17-.22.15-.16.25-.19c.1-.07.15-.12.18-.17.05-.03.18-.13.27-.13.1 0 .16.07.16.32 0 .24-.08.55-.16.75-.09.2-.16.35-.36.7l-.22.34c-.13.17-.21.23-.29.34a.33.33 0 0 1-.04.07c-.06.13-.02.25.1.25.07 0 .19-.03.26-.12.05-.05.1-.11.17-.33l.06-.16c.19-.4.38-.6.61-.95.13-.19.5-.77.45-1.67-.02-.23-.05-.34-.05-.63.06-.62.34-.94.78-1.54z" fill="#fff"/><path d="M27.64 24.43c-1.86-.54-4.03-1.8-6.08-4.66a12.5 12.5 0 0 1-.7-1.05c-.1-.18-.27-.56-.58-.83-.35-.27-.53-.04-.81.14-.28.19-.51-.01-.67-.18-.23-.23-.45-.25-.45-.05 0 .25.2.43.02.72-.06.1-.17.17-.34.17-.51 0-.95-.84-1.32-1.22-.06-.05-.16-.07-.17.04-.03.14 0 .34-.08.34-.14.02-.37-.43-.53-.6-.09-.09-.2-.14-.34-.21-.45-.17-.5-.26-.82-.64-.1-.1-.53-.5-.62-.5-.06 0-.08.07-.08.12 0 .04 0 .11-.06.11s-.17-.07-.32-.18c-.16-.11-.33-.24-.44-.27-.1-.04-.15.03-.17.16-.03.13.1.13.1.13.13 0 .2.12.26.18.06.05.14.22.4.27.27.05.36.22.42.33.34.74.56 1.25.56 1.47 0 .14-.17.16-.42-.37a6.25 6.25 0 0 0-.37-.69c-.06-.09-.14-.18-.23-.25-.16-.1-.38-.16-.53-.18-.17-.02-.2.05-.19.13.02.07.1.1.2.21.52.44.76.82.98 1.4.17.42.47 1.1.67 1.47 1.64 3.12 4.2 6.47 10.15 6.47 2.48 0 4.71-.65 6.53-1.49l.62-.3c-.39.2-2.68.38-4.6-.19z" fill="url(#ayvqjeemy)"/><path d="M27.7 24.18c5.78 1.5 7.78-2.54 9.15-4.12.14-.14.24-.27.35-.4.1-.08.19-.21.3-.3a21.52 21.52 0 0 1-15.94.4c.11.12 2.73 3.53 6.14 4.42z" fill="url(#byvqjeemy)"/><path d="M21.58 19.77c-.45-.61-.7-1.05-.7-1.05-.06-.09-.1-.21-.2-.36-.1-.13-.19-.34-.42-.27-.34.1-.43 1.65.1 3.23A4.65 4.65 0 0 0 22 23.38v-.03l-.02-.04c-.08-.07-.76-.62-1-1.54-.15-.56-.1-.8 0-.87.05-.06.1-.04.15-.02 0 0 .1.06.37.35 1.04.9 2.3 2.13 3.9 2.35a13.83 13.83 0 0 1-3.82-3.8zM30.09 25.6c-1.68.6-3.35.87-5 .87-4.72 0-7.19-2.16-8.75-4.54 0 0 .94 1.24 1.95 1.84.8.47 1.58.45 2.05-.02 3.16 2.8 6.34 2.79 9.75 1.85z" fill="#D10806"/><path d="M48.23 18.22c-2.28-1.11-5.09-1.62-7.45-.8-3.16 1.09-4.4 4.44-6.79 6.27a32.18 32.18 0 0 0 2.72-1.88c.96-.78 4.71-3.23 7.17-3.05 1.5.1 2.35 1.03 2.35 1.03.01.02.01.04.03.04l.01.02c.3.38.51.8 1.03 1.2 1.65 1.32 2.66.16 3.65 1.37.78.98.9 1.52.93 2.27.02.72-.46 2.12-.85 2.57h.25l.36-.54c.88-1.63.7-3.32.34-4.48-.9-2.8-3.65-3.97-3.75-4.02z" fill="url(#cyvqjeemy)"/><path d="M44.13 18.49c-1.55-.44-3.72-.46-4.94.41-.16.11-.51.4-.53.57 0 .12.16.12.42.21.25.06.37.11.37.17 0 .03-.01.05-.1.1-.07.06-.18.11-.24.15-.93.5-1.43.8-2.39 1.58-.37.3-1.5 1.29-3.24 2.3 5.32-2.92 6.92-4.13 9.75-4.35 1.5-.1 2.78.07 3.06.18-.03.02-.65-.89-2.16-1.32z" fill="url(#dyvqjeemy)"/><path d="M48.29 18.1a8.54 8.54 0 0 0-10.8 1.28l-.29.3-.35.4c-1.38 1.58-3.5 4.55-7.27 4.35a8.2 8.2 0 0 1-1.88-.32c-3.36-1-6.03-4.2-6.12-4.32 2.03 2.87 4.1 4.28 5.97 4.86.97.31 1.84.42 2.63.42a5.7 5.7 0 0 0 2.08-.36c2.6-.93 3.94-3.52 5.9-5.39a7.58 7.58 0 0 1 2.75-1.76c2.35-.81 5.05-.41 7.35.7 0-.04 1.47.68.03-.15z" fill="#173882"/><defs><linearGradient id="ayvqjeemy" x1="18.93" y1="20.96" x2="33.35" y2="26.71" gradientUnits="userSpaceOnUse"><stop stop-color="#F94447"/><stop offset=".95" stop-color="#FFE121"/></linearGradient><linearGradient id="byvqjeemy" x1="22.04" y1="22.99" x2="46.16" y2="19.35" gradientUnits="userSpaceOnUse"><stop offset=".02" stop-color="#DC9A34"/><stop offset=".12" stop-color="#E5C238"/><stop offset=".2" stop-color="#EBDA3B"/><stop offset=".25" stop-color="#FFF441"/><stop offset=".6" stop-color="#BCFF43"/><stop offset=".64" stop-color="#AAFF47"/></linearGradient><linearGradient id="cyvqjeemy" x1="39.26" y1="18.84" x2="49.58" y2="26.24" gradientUnits="userSpaceOnUse"><stop stop-color="#81B90A"/><stop offset=".14" stop-color="#5EB547"/><stop offset=".28" stop-color="#3FB17D"/><stop offset=".41" stop-color="#27AEA7"/><stop offset=".53" stop-color="#15ACC6"/><stop offset=".63" stop-color="#0BAAD8"/><stop offset=".71" stop-color="#07AADF"/><stop offset=".75" stop-color="#08A4DA"/><stop offset=".8" stop-color="#0A94CB"/><stop offset=".86" stop-color="#0D79B2"/><stop offset=".93" stop-color="#173882"/><stop offset="1" stop-color="#192B54"/></linearGradient><linearGradient id="dyvqjeemy" x1="39.81" y1="21.68" x2="38.88" y2="19.48" gradientUnits="userSpaceOnUse"><stop stop-color="#2AACC7"/><stop offset=".18" stop-color="#249DB9"/><stop offset=".52" stop-color="#157696"/><stop offset=".95" stop-color="#003D62"/></linearGradient></defs></svg>