<!-- by TradingView --><svg xmlns="http://www.w3.org/2000/svg" width="56" height="56"><path fill="#322E75" d="M0 0h56v56H0z"/><path fill-rule="evenodd" d="M4 24v8h1.5v-5.22l2.26 3.45L10 26.78V32h1.5v-8H10l-2.24 3.57L5.5 24H4zm9 8l3.22-8h1.56L21 32h-1.57l-.81-2h-3.23l-.8 2H13zm3-3.5l1-2.5 1.01 2.5h-2.02zM26.33 24H20v1.5h2.5V32H24v-6.5h2.34V24zM39 24v8h1.5v-2.2l1.04-1.15L43.88 32h1.86l-3.14-4.52L45.74 24H43.8l-3.3 3.63V24H39zm-11.5 8v-8h3.54a2.75 2.75 0 011.14 5.25L34 32h-1.88l-1.67-2.5H29V32h-1.5zm1.5-4h1.92a1.25 1.25 0 000-2.5H29V28zm22.61-2.92A3.57 3.57 0 0049.2 24c-1.41-.02-2.75.86-2.69 2.39.06 1.5 1.67 2.16 2.94 2.32.66.09 1.04.5 1.06.99.03.62-.7.79-1.2.8-.67.02-1.63-.22-1.97-.88L46 30.3c.28.53.78.96 1.34 1.25.58.3 1.27.48 2 .46.72-.02 1.39-.23 1.89-.64.5-.42.8-1.03.77-1.72-.06-1.35-1.14-2.23-2.37-2.38-.5-.06-1.6-.27-1.63-.93-.03-.66.6-.84 1.17-.83.61 0 1.16.38 1.33.56l1.11-.98z" fill="#fff"/><path d="M35.27 25.68L36.5 24l1.2 1.68h-2.44z" fill="#50B4E7"/><path d="M35.3 28.2l1.23-1.68 1.2 1.68H35.3zm-.03 2.21l1.24-1.37 1.2 1.37h-2.44zm1.24.56L35.27 32h2.44l-1.2-1.03z" fill="#fff"/></svg>