<!-- by TradingView --><svg xmlns="http://www.w3.org/2000/svg" width="56" height="56"><path fill="#F0F3FA" d="M0 0h56v56H0z"/><path fill-rule="evenodd" d="M10.13 23.63c.42-.3.78-.51 1.03-.63-.26.21-.5.43-.72.64.57.02 1.16.07 1.72.15l.25-.24-.2.25c.58.09 1.12.2 1.57.35-.57-.1-1.13-.16-1.68-.2-.28.4-.52.8-.73 1.23.99.08 1.87.23 2.46.41-.77-.12-1.66-.18-2.56-.2-.22.48-.4.98-.54 1.47 1.35.02 2.57.15 3.27.37-.92-.14-2.11-.17-3.34-.11-.18.7-.29 1.4-.33 2.06 1.14.08 2.2.26 2.88.47-.87-.13-1.89-.2-2.9-.21-.04.69-.02 1.33.04 1.91.78.04 1.57.14 2.22.29-.7-.05-1.46-.06-2.2-.04.07.54.16 1 .26 1.36-.19-.47-.33-.92-.45-1.36-.94.04-1.81.14-2.39.34.28.85.66 1.55.98 2.06-.52-.68-.92-1.34-1.2-1.97-.28.12-.45.27-.49.46-.05.25 0 .47 1.02 1-.95-.2-1.44-.55-1.44-1 0-.05.02-.1.03-.14-1.85-.8-2.22-1.29-2.22-1.73.06-.34.3-.6.66-.82-.87-.47-1.18-.83-1.12-1.17.08-.5.63-.87 1.44-1.15-.49-.27-.6-.57-.55-.83.13-.72 1.1-1.15 2.37-1.37-.43-.25-.5-.4-.46-.67.13-.72 1.63-1 3.32-.98zM6.7 32.34c.1-.28.36-.5.73-.66a6.7 6.7 0 01-.48-1.98c-.84.16-1.47.4-1.75.7-.34.39.09 1.14 1.5 1.94zm1-.75c.64-.2 1.52-.28 2.43-.25a9.29 9.29 0 01-.26-1.9c-.86.01-1.7.07-2.44.18 0 .7.1 1.37.26 1.97zm2.46-4.44c-.17.6-.28 1.27-.29 2a17 17 0 00-2.42.05c.05-.57.17-1.17.4-1.8.72-.11 1.51-.2 2.3-.25zm-2.97.37a5.74 5.74 0 00-.26 1.74c-.69.1-1.3.27-1.73.5-.48-.55-.67-1-.34-1.37.3-.34 1.19-.64 2.33-.87zm-1.59-.08c.51-.17 1.11-.3 1.76-.39.22-.54.51-1.04.84-1.49-1.21.17-2.18.45-2.53.84-.28.32-.18.76-.07 1.04zm2.4-.47c.73-.07 1.5-.11 2.24-.12.18-.54.41-1.03.67-1.46-.7 0-1.42.03-2.08.1-.35.5-.62 1-.83 1.48zm4-3.02c-.3.33-.64.73-.94 1.2-.64-.04-1.3-.06-1.95-.04.3-.38.63-.78 1.03-1.17.57-.03 1.2-.03 1.87 0zm-2.3.02c-.38.32-.8.71-1.18 1.17-.4.03-.78.07-1.13.12-.1-.25-.13-.63.24-.85.32-.2 1.08-.36 2.08-.44z" fill="#494078"/><path d="M14 24l1 1.29v5.9c0 .5-.12 1.31-.38 1.81h2.08c-.1-.17-.34-.88-.34-1.82v-4.44l4.17 4.95c.22.31.72 1.02.87 1.31h1.98a6.26 6.26 0 01-.38-2.05v-5.18c0-.42.1-1.36.38-1.77h-2.05c.2.23.35 1.17.35 1.77v5.02l-4.35-5.2c-.25-.3-.83-1.04-1.15-1.59H14zm38 1h-2c.17.2.29.94.33 1.27v5.32c0 .88-.33 1.41-.33 1.41h2a4.8 4.8 0 01-.27-1.41v-5.32c.01-.49.19-1.05.27-1.27zm-27.29 2.98l.32-1.2c.28-.09 1.01-.28 1.73-.28.9 0 2.14.29 2.21 1.94v3.15c-.01.22.03.96.3 1.41H27.6v-.78l-.14.11c-.27.26-.71.67-1.62.67-.98 0-1.83-.46-1.83-1.41 0-1.07.85-1.69 3.59-2.42v-.73c-.13-.59-.83-1.65-2.88-.46zm2.9 2.06c-.73.15-2.17.57-2.17 1.1 0 .65.7 1.1 2.16.72v-1.82zM31.04 25h.54v1.64H33v.86h-1.41v3.56c.13 1.35 1.48.98 2.13.63l-.62 1.12a7.2 7.2 0 01-1.22.19c-1.43.04-1.73-1.07-1.7-1.63V27.5h-.95v-.38c1.04-.31 1.65-1.54 1.82-2.12zm8.62 1.5h-2c.17.17.3.76.33 1.03v3.98c-.4.2-.92.28-1.17.3-.92.05-1.12-.64-1.11-1v-3.16c0-.43.21-.95.32-1.15H34c.19.21.3.86.32 1.15v3.4c-.09 2.25 2.44 2.06 2.79 1.8.15-.12.32-.29.48-.46.14-.13.27-.27.41-.38V33h1.67c-.18-.32-.25-.9-.27-1.15v-4.32c.02-.4.19-.85.27-1.03zm1.05 1.76c0-.69-.22-1.41-.32-1.7H42v.98c1.07-1.13 2.3-1.12 2.74-.97L44.4 28c-.86-.53-1.98-.13-2.4.15v5.8c.01.41.29.87.4 1.05h-2c.24-.35.31-.85.32-1.05v-5.7zm8.9.7V30h-3.85c.12 1.57 1.36 2.02 2.25 2 .72-.01 1.31-.2 1.52-.32l-.57 1.2c-.46.1-1.02.12-1.24.12-2.65.02-3.34-1.93-3.33-3.2.02-1.26.57-3.3 2.87-3.3 1.87 0 2.34 1.62 2.36 2.46zm-2.4-1.63c-1.05 0-1.4 1.13-1.45 1.67h2.68c.03-.54-.19-1.67-1.24-1.67z" fill="#E31D23"/><path fill-rule="evenodd" d="M48.67 23.83c.17 0 .3-.08.3-.17 0-.1-.13-.17-.3-.17-.17 0-.3.08-.3.17 0 .1.13.17.3.17zM34.03 24H32.2l.12.39v1.3l-.12.31h1.75l.28-.41-.49.18h-.96v-.63h.65l.15.11.3-.4h-1.1v-.56h.8l.2.1.25-.39zm7.31 0h-1.82l.12.39v1.3l-.12.31h1.75l.28-.41-.49.18h-.96v-.63h.64l.16.11.3-.4h-1.1v-.56h.8l.2.1.24-.39zm-6.3 0h.75l1.85 1.48v-1.22L37.5 24h.7l-.11.26v1.41l.11.33h-.66l-1.66-1.32v1l.14.32h-.73l.1-.33v-1.35l-.35-.32zm7.43 0h1.16c.35 0 .85.18.83.61-.02.43-.45.57-.66.58l1.17.81h-.64l-1.2-.8v.53l.15.27h-.81l.18-.27v-1.4l-.18-.33zm.69.27c.36 0 .69.15.69.39 0 .23-.32.38-.7.38v-.77zm3.88-.27H45.8l-.12.26h.67v1.26c0 .19-.12.62-.67.82.39-.01 1.18-.17 1.21-.75v-1.33l.15-.26zm2.02 0h-.79l.13.33v1.28l-.13.39h.8l-.16-.4v-1.27l.15-.33z" fill="#494078"/></svg>