<!-- by TradingView --><svg width="56" height="56" xmlns="http://www.w3.org/2000/svg"><path fill="#009CA6" d="M0 0h56v56H0z"/><path d="M15.733 22.221c4.51-4.904 17.212-8.855 23-10.217 2.186 8.719 2.391 17.445 2.22 20.718-1.23 10.218-9.763 12.502-13.89 12.261-14.575-.851-16.796-16.816-11.33-22.762z" fill="#fff"/><path d="M20.653 19.626c-7.406 3.987-7.334 11.23-6.074 15.278-.626-4.975.672-7.674 1.471-9.168 2.743-5.129 15.29-9.649 20.44-11.054 3.068 8.759 3.274 17.34 2.994 20.536 1.723-6.203-.193-17.323-1.366-22.108-2.662.507-10.138 2.57-17.465 6.516z" fill="#009CA6"/><path d="M22.25 21.544c-6.856 3.692-7.68 8.926-6.463 13.988-.465-3.954.677-6.4 1.261-7.491 2.325-4.347 13.08-9.549 17.445-10.74 2.925 7.47 4.073 16.309 3.835 19.017 1.46-5.257-1.392-16.376-2.386-20.431-2.256.429-7.11 2.113-13.692 5.657z" fill="#009CA6"/><path d="M22.832 23.93c-5.459 3.473-6.93 7.347-5.882 12.301-.3-3.37.858-5.248 1.386-6.235 1.932-3.612 10.445-8.324 13.825-9.845 2.277 4.729 5.062 10.983 4.929 17.108 1.404-6.874-2.369-16.502-3.273-18.722-2.098.663-5.848 2.123-10.985 5.393z" fill="#009CA6"/><path d="M23.348 26.409c-5.201 3.614-5.932 6.77-5 11.175-.267-2.996.762-4.666 1.231-5.543 1.371-2.563 7.696-7.513 10.7-8.865 1.725 3.042 5.671 9.341 5.553 14.786 1.248-6.111-3.404-14.497-4.207-16.47-1.828.825-3.725 1.753-8.277 4.916z" fill="#009CA6"/><path d="M23.666 28.994c-4.025 3.243-4.817 5.949-4.025 9.695-.227-2.548.65-3.969 1.048-4.715 1.166-2.18 5.738-6.005 7.857-7.54 1.826 2.336 6.141 8.081 5.81 12.66 1.52-4.469-3.265-12.853-4.454-14.59-1.624.976-3.328 2.147-6.236 4.49z" fill="#009CA6"/><path d="M24.047 31.572c-3.064 3.108-3.965 5.243-2.908 8.552-.191-2.152.515-3.587.852-4.217.985-1.842 3.35-4.59 5.14-5.887l.03.03c1.312 1.369 6.37 6.646 5.817 10.25 1.733-3.925-3.29-10.866-4.583-12.506-1.263.995-2.644 2.05-4.348 3.778z" fill="#009CA6"/><path d="M30.574 35.678a4.906 4.906 0 011.378 3.415 4.937 4.937 0 01-4.944 4.93 4.937 4.937 0 01-4.944-4.93c0-1.339.535-2.553 1.404-3.441l3.593-4.267 3.517 4.293h-.004z" fill="#009CA6"/></svg>