<!-- by TradingView --><svg width="56" height="56" viewBox="0 0 56 56" xmlns="http://www.w3.org/2000/svg"><path fill="#F0F3FA" d="M0 0h56v56H0z"/><path fill-rule="evenodd" d="m41.57 31 2.7-4h1.9l.26 4H45v-.48h-1.8l-.34.48h-1.29Zm2.26-1.37H45v-1.66l-1.17 1.66ZM11.38 31l2.7-4h1.9l.26 4H14.8v-.48h-1.79l-.34.48h-1.29Zm2.26-1.37h1.16v-1.65l-1.16 1.65ZM20.13 28h-1.27l-.8 3h-1.41l.88-3h-1.17l.36-1h3.67l-.26 1Zm-.26 1.75.86-2.75h1.22l-.68 2.45c-.08.3.13.55.42.55h1.06l.94-3h1.28l-1.28 4H20.7c-.6 0-1.02-.64-.83-1.25ZM25.44 27l-1.14 4h1.38l.31-1h1.63l-.27 1h1.33c.07-.3.23-.96.27-1.21.04-.26-.3-.5-.48-.6.36-.2 1.06-.76 1.06-1.37 0-.6-.34-.8-.51-.82h-3.58Zm1.13 1-.31 1h1.08c.36 0 .68-.26.81-.65.06-.17-.05-.35-.2-.35h-1.38Zm3.6-1-.81 3.1c-.12.45.2.9.63.9h2.97l.29-1h-2.58l.15-.5h2.31l.3-1h-2.3l.15-.5h2.52l.25-1h-3.88Zm4.42 0-.9 3.08c-.13.45.19.92.63.92h2.58l.3-1h-2.25l.94-3h-1.3Zm6.9 4 .58-2h-1.34l-.3 1h-1.86l.55-2h3.15l.33-1h-3.36c-.58 0-1.1.4-1.26 1l-.5 1.8c-.17.6.25 1.2.83 1.2h3.18Zm6.04-3 .39-1H52c-.07.24-.28.78-.58.97a89 89 0 0 0-2.8 2.03h2.53c-.06 0-.34.56-.51.9l-.05.1h-3.8v-.76L49.85 28h-2.31Z" fill="#5F7875"/><path d="M4 27a4 4 0 0 0 2.3 3.62l.38-1.07A2.92 2.92 0 0 1 5 26.92 2.96 2.96 0 0 1 8 24a2.98 2.98 0 0 1 2.95 2.38h1A4 4 0 0 0 4 27Zm3 4 1.18-4h1.54l.72 2.22.59-2.22h1.34l-1.2 4H9.71l-.85-2.12L8.28 31H7Z" fill="#0C8341"/></svg>