<!-- by TradingView --><svg xmlns="http://www.w3.org/2000/svg" width="56" height="56"><path fill="#1E5396" d="M0 0h56v56H0z"/><circle cx="28" cy="28" r="16" fill="#64C1DD"/><path d="M18 37.5l-1.5.8.5 1.2 4.5 3 4 1H30l5-1.5 3.5-2.5L40 38l1.5-2-2.5.8-1-.5-.3-.3v-.5l.4-.7-.47-.2-1.63.2-1 .6-1 .6h-.2l.2-1 .5-1-.5.2-1 .4-1.5.9L30 37l-1 .7-.6.3-.2-1.2h-.7l-.5.2-1 .5-1 .5-3-1.35-2.5-1.15v.5l-.5 1-1 .5z" fill="#A9B4D4"/><path d="M13 30.5V33l1 2 1.5 2.5 1 .5 1.5-.5 1.19-.8.31-1.2 1.3.5 1.6.7 1.6.8 1 .5 1-.5 1-.5 1-.3.5 1.3.5-.5 1-.5 1-1 1-1 2-1 .5-1.5.3-1.5.2-1 .5-.5.3-1-.3-.5-1-1-.2-.56V26l.2-1-.5-.3-1.5-.7-1-.5V23l.8-2 .7-1 1-.5.1-.5-.1-.5-.12-.2H31l-1 1.2-2 3-4.5.2-2.5.2-2 1.6-2.5 2-2.9 2.45v.55l.1.5-.7.5z" fill="#fff"/><path d="M26.7 12.03a17.35 17.35 0 00-4.88 1.2 16 16 0 002.4 30.35c1.38.34 2.05.42 3.76.42 1.2 0 1.79-.03 2.38-.12 6-.94 10.81-4.94 12.82-10.67.52-1.47.77-2.9.81-4.7.07-2.63-.28-4.53-1.24-6.8a15.3 15.3 0 00-3.44-5.02 15.53 15.53 0 00-8.7-4.5 24.1 24.1 0 00-3.9-.16zm2.94.79c3.38.31 6.52 1.85 9.19 4.5a14.53 14.53 0 014.22 8.16c.17.93.25 3.15.14 4.12a16.22 16.22 0 01-1.15 4.37c-.41.9-.68 1.41-.79 1.5-.23.21-1.8.97-2.07 1-.32.05-.88-.12-1.15-.33-.36-.28-.3-.84.13-1.1.27-.17.35-.32.23-.47-.07-.08-.24-.1-.99-.07a4.2 4.2 0 00-2.9 1.06l-.4.32-.07-.18c-.12-.26.03-.62.47-1.18.3-.38.36-.49.29-.57-.06-.07-.16-.08-.35-.05-.25.04-.27.04-.2-.08a8 8 0 00.77-2.73c.16-1.08.2-1.21.41-1.28.2-.06.44-.63.47-1.07.03-.35 0-.42-.24-.8-.15-.23-.45-.6-.66-.83-.47-.51-.55-.68-.46-1.05.12-.54.1-1.1-.03-1.26-.13-.14-1.16-.6-2.12-.95-.67-.24-.79-.35-.7-.62l.25-.9c.22-.81.57-1.57.9-1.96.21-.24.79-.59 1.23-.73.1-.03.12-.13.13-.58 0-.7 0-.72-.17-.87-.14-.12-.25-.13-1.6-.09-1.24.04-1.47.06-1.58.17-.23.2-1.45 1.86-2.2 3-.4.58-.74 1.08-.78 1.1-.03.03-1 .07-2.15.1-1.15.02-2.65.1-3.34.17-1.14.11-1.29.14-1.71.35a24.6 24.6 0 00-3.06 2.39l-2.15 1.81c-.91.77-1.75 1.5-1.87 1.61-.2.22-.2.22-.12.61l.08.4-.25.26c-.14.14-.28.24-.31.2-.13-.12-.22-2.29-.14-3.37.16-2.22.61-3.8 1.62-5.76a14.8 14.8 0 0111.03-8.15 16.3 16.3 0 014.15-.17zm4.23 5.65c.08.08.1.18.08.36-.08.44-.13.45-1.48.5l-1.23.03-.64.9c-.98 1.36-1.21 1.87-1.34 2.94-.05.36-.1.69-.12.72-.02.04-.07 1.23-.1 2.64a18.12 18.12 0 01-.44 4.6c-.06.36-.19 1-.28 1.42-.2.81-.3 1.28-.47 2.11-.06.29-.16.68-.22.87-.06.19-.14.49-.17.66a1.2 1.2 0 01-.22.46c-.16.17-.52.28-.61.18-.04-.03.01-.3.11-.6.16-.52.34-1.34 1-4.72.37-1.95.47-3.21.36-4.74-.1-1.19-.24-2.07-.38-2.2-.04-.05-.16-.08-.26-.08-.23 0-1.74.25-2.07.34-2.53.7-3.9 1.1-4.26 1.25-3 1.26-5.12 2.6-7.23 4.6-.74.71-.84.75-.84.3 0-.39 1.76-2.03 3.46-3.24a21.33 21.33 0 018.7-3.57c.8-.12 1.9-.36 2.07-.45.08-.04.31-.34.52-.67a44.27 44.27 0 012.93-4.23c.44-.48.5-.5 1.82-.5 1.02 0 1.2.02 1.3.12zm-1.04 1.27c.02.04-.08.21-.23.4-.35.42-.64.95-.87 1.62-.2.56-.56 1.98-.63 2.44-.07.5-.18 2.2-.24 3.92-.08 1.99-.16 2.54-.66 4.59-.2.84-.43 1.78-.49 2.09-.13.59-.24.9-.66 1.8l-.35.82c-.16.44-.32.2-.33-.5 0-.4-.1-.5-.4-.37-.23.11-.28-.04-.17-.53a208.5 208.5 0 00.87-4.06c.51-2.37.6-3.13.66-5.75.06-2.46.12-3.08.38-3.95.2-.63.5-1.17 1.16-2l.47-.6h.72c.41 0 .74.04.77.08zm-5.24 3.04c.08.05.06.12-.14.4-.27.37-.44.45-.5.23-.07-.2-.31-.28-.86-.28-.58 0-1.38.1-1.44.16a.88.88 0 00-.07.34l-.02.35c0 .03-.05.05-.1.05-.06 0-.13-.13-.18-.35-.05-.19-.12-.36-.17-.4a8.88 8.88 0 00-2 .07c-.11.06-.12.15-.1.65 0 .32-.02.61-.06.65-.08.08-1.06.49-1.17.49-.05 0-.12-.14-.16-.3a1 1 0 00-.2-.42c-.13-.1-.17-.1-.68.15-.3.15-.66.36-.78.46-.22.19-.23.22-.21.56.03.5-.16.73-.4.48-.16-.15-.37-.12-.76.1-.54.31-.8.59-.75.79.06.24-.3.53-.65.53-.14 0-.35.05-.45.1-.11.06-.23.11-.26.11-.2 0 .05-.27.98-1.04l2.58-2.13c.84-.7 1.67-1.33 1.84-1.4.63-.28 1.9-.4 4.68-.4 1.06 0 1.98.01 2.03.05zm5.07 1.4c1.07.4 1.56.66 1.65.91.07.19-.06.97-.18 1.1-.04.04-.19-.04-.43-.23-.33-.26-.36-.31-.33-.5.07-.45-.14-.63-.85-.74a3.65 3.65 0 01-.77-.2c-.2-.1-.24-.14-.26-.4-.02-.23 0-.3.09-.3.06 0 .54.16 1.08.36zm-.74.73c.8.5 3.2 2.73 3.54 3.31.2.33.2.64 0 .8-.14.11-.18.08-.62-.45-.58-.72-1.47-1.6-1.95-1.95a7.05 7.05 0 00-.94-.55 2.9 2.9 0 01-.6-.33c-.1-.12-.03-1.09.08-1.09.03 0 .26.12.49.26zm-4.4-.03c.04.05.1.28.16.53.09.42.09.44-.07.56-.17.14-.23.15-1.26.27-.36.04-.93.16-1.28.27l-1.76.57c-1.56.5-2.55.9-3.74 1.5-1.74.9-3.47 2.13-4.93 3.53-.5.47-.94.85-.99.85-.1 0-.4-.99-.35-1.16.02-.07.42-.49.89-.93a16.68 16.68 0 012.2-1.88 57.76 57.76 0 013.43-2c.89-.52 3.04-1.26 4.73-1.63a4577.55 4577.55 0 012.35-.54c.07-.07.55-.02.62.06zm4.69 1.72c.91.55 1.26.85 2.14 1.91.75.9.86 1.12.59 1.27-.13.07-.22 0-.77-.55a9.17 9.17 0 00-2.35-1.7c-.53-.25-.7-.44-.65-.7l.06-.4c.03-.17.08-.25.16-.25.06 0 .43.19.82.42zm-4.48-.12c.05.06.08.28.06.57l-.02.48-.3.02c-.46.03-1.8.28-2.55.47-.61.16-1 .3-2.9 1.04-1.27.5-2.66 1.15-3.73 1.78-.7.4-2.44 1.54-2.5 1.64a28.6 28.6 0 01-1.74 1.4c-.13.09-.31-.38-.24-.59.1-.24 1.59-1.62 2.64-2.43.93-.72 3.22-2.08 4.16-2.47l.72-.3c.4-.18 1.96-.76 2.84-1.06 1.61-.54 3.35-.8 3.56-.55zm4.68 1.7c.4.23.8.56 1.44 1.18.92.91.96.98.84 1.44-.06.23-.17.2-.55-.2a9.8 9.8 0 00-2.16-1.51l-.81-.45-.02-.48c-.02-.27 0-.53.01-.58.04-.1-.01-.14 1.25.6zm-17.06-.41c0 .03-.03.08-.07.1-.04.02-.17.22-.29.44-.25.43-.93 1.2-1.07 1.2-.1 0-.24-.22-.24-.35 0-.11.41-.55.97-1.02.48-.41.7-.53.7-.37zm12.42.69v.59l-1.03.18c-4.82.88-8.5 2.55-11.62 5.29-.34.3-.63.52-.65.5-.11-.11-.35-.7-.32-.8.05-.16 2.04-1.8 2.92-2.4a30.54 30.54 0 016.14-3.04c1.37-.49 3.43-.94 4.18-.92l.38.01v.59zm4.12.84c1.14.68 2.52 1.87 2.64 2.27.14.45-.17.9-.4.57a4.4 4.4 0 00-.63-.54c-.3-.22-.65-.5-.78-.63a6 6 0 00-1.22-.8c-.2-.11-.38-.25-.4-.3-.06-.16.05-.92.13-.92.04 0 .34.16.66.35zm-4.11.32c-.13.78-.2 1-.3 1.05a21.49 21.49 0 00-4.76 1.04l-.73.29a22.11 22.11 0 00-5.86 3.37c-.51.4-.95.75-.98.76-.08.03-.56-.83-.51-.92.12-.2 2.3-1.92 3.07-2.4.82-.53 2.96-1.61 3.87-1.96.72-.28 2.13-.72 2.84-.9a32.7 32.7 0 013.1-.58h.3l-.04.25zm4.8 1.67c.75.57 1.43 1.12 1.5 1.22.09.13.1.26.07.5-.07.54-.13.55-.64.12a30 30 0 00-2.15-1.61c-.42-.29-.44-.3-.44-.6 0-.33.1-.66.2-.66.03 0 .69.47 1.45 1.03zm-5.05-.24c0 .3-.16.94-.25 1.02-.06.05-.47.14-.93.2a24.55 24.55 0 00-10.54 4.85c-.07 0-.55-.7-.52-.76a21.55 21.55 0 0112.2-5.46c.02-.01.04.06.04.15zm3.56.52c.03.04.49.4 1.03.81 1.29.98 1.57 1.25 1.57 1.48 0 .2-.1.35-.27.35-.06 0-.45-.25-.86-.56-.42-.3-.97-.68-1.25-.84a3.52 3.52 0 01-.57-.38c-.08-.1-.05-.6.06-.8.06-.13.23-.16.3-.06zm-3.85 1.02c.02.23-.21 1.25-.31 1.35-.03.03-.43.12-.89.2-.95.16-2.39.45-2.94.6a15.4 15.4 0 00-2.64.92c-.22 0-1.17-.42-1.17-.51 0-.1 2.68-1.41 3.36-1.66 1.14-.4 1.54-.52 3.19-.87l.9-.21c.36-.1.48-.06.5.18zm4.01.48c.26.14.6.34.75.45.42.28 1 .83.97.9-.08.12-.82.5-.93.46-.18-.04-1.74-1.1-1.74-1.17l.12-.47c.15-.5.2-.51.83-.17zm-.54 1.29a4.6 4.6 0 011.04.74c0 .07-.73.63-.83.63-.12 0-.88-.48-.92-.58-.05-.13.17-1.01.25-1.01.04 0 .25.1.46.22zm-3.8.04c0 .24-.2.99-.27 1.08-.05.06-.23.12-.4.14a18.4 18.4 0 00-3.43.68l-.67.2-.63-.31a2.7 2.7 0 01-.63-.38c0-.25 2.9-1.1 4.6-1.36l.87-.13c.06-.02.2-.03.33-.03.18-.01.23.02.23.11zm7.04.1l-.22.55c-.23.55-.2.8.12 1.28.3.44.65.6 1.7.83 1.29.26 2.68.84 2.49 1.04-.07.06-.95.16-1.5.16-.58 0-.9-.12-1.3-.5l-.22-.2-.54.35c-.52.34-.71.4-.76.25-.02-.04.08-.19.22-.33.13-.14.24-.29.24-.33 0-.14-.28-.06-.51.14-.26.23-.44.27-.5.1-.04-.09.06-.22.34-.47.22-.2.4-.38.4-.4-.01-.14-.31-.04-.56.19-.15.14-.32.23-.37.21-.05-.02-.14-.18-.18-.35-.09-.3-.22-.4-.32-.25-.02.04-.07.07-.1.07-.15 0-.05-.17.3-.48.2-.19.33-.36.3-.4-.12-.11-.6.29-1.3 1.06a3.7 3.7 0 01-1.42 1.19c-.38.2-.75.36-.82.36-.08 0-.27-.1-.42-.23l-.27-.23.4-.26.76-.48c.2-.13.58-.48.84-.78 1.2-1.34 1.6-1.64 2.7-2.04.41-.15.55-.16.5-.05zm3.69.42c0 .05-.05.15-.1.22-.2.24-.13.66.14 1.06.23.33.67.64.92.64.15 0 .08.13-.22.38-.34.27-.38.28-.72.16-.25-.1-.27-.13-.14-.33.13-.21.01-.24-.27-.07-.24.16-.26.16-.35.03-.06-.08-.09-.32-.09-.64v-.52l-.28.04c-.15.02-.5.15-.76.28-.58.3-.65.2-.15-.22.25-.23.3-.29.18-.29-.08 0-.32.2-.58.45-.25.25-.49.45-.53.45-.04 0-.15-.05-.24-.13l-.16-.12.17-.21c.21-.26.74-.68 1.04-.85.22-.1.8-.3 1.14-.37.33-.07 1-.05 1 .04zm-18.48.7c.1.45 0 .84-.27 1.1-.34.31-1 .66-1.74.9l-.72.25-.27-.28c-.14-.16-.24-.3-.22-.34.01-.03.2-.16.4-.3l1.43-.97a8.7 8.7 0 011.19-.73c.08 0 .14.1.2.36zm11.2.1c.16.1.28.21.28.25.01.13-.5.66-.62.66-.07 0-.21-.07-.32-.16-.17-.15-.18-.18-.1-.36l.14-.4c.05-.12.12-.19.21-.19.08 0 .27.09.42.2zm-10.08.23c.31.13.97.43 1.47.67 1.71.84 2.32 1.12 2.7 1.24.2.07.37.15.36.17a16.5 16.5 0 01-1.71 1.23c-.04 0-.07-.3-.07-.72 0-.41-.03-.74-.07-.77-.07-.04-.42.14-1.37.72-.28.16-.53.28-.56.25-.02-.02.13-.2.33-.39.2-.18.35-.36.33-.38a3.1 3.1 0 00-.67.42c-.61.44-.65.45-.8.35-.23-.14-.28-.13-.97.21-.68.34-.86.38-.86.19 0-.08.25-.31.7-.63.38-.28.69-.53.69-.57 0-.16-.28-.02-.84.42-.34.27-.66.49-.71.49-.05 0-.13-.08-.18-.17-.11-.2-.14-.21-.47-.07-.34.14-.43.13-.43-.07 0-.14-.04-.18-.18-.18-.1 0-.17-.02-.17-.06 0-.03.48-.3 1.06-.58.58-.29 1.16-.6 1.28-.7.23-.2.43-.71.43-1.1 0-.1.03-.19.07-.19.04 0 .33.1.64.22zm6.26.02c.06.16-.18.8-.35.9-.08.05-.42.13-.76.17-.33.05-.68.11-.78.15-.34.13-.85.07-1.37-.15a3.35 3.35 0 01-.6-.3c-.08-.09-.05-.12.18-.22.5-.21 1.54-.44 2.63-.57.77-.1 1-.1 1.05.02zm13.7 1.14c-.45.6-.65.78-.57.5.05-.2-.01-.18-.36.1-.31.24-.59.3-.84.17-.24-.13-.2-.26.15-.63.3-.3.4-.37.78-.44.23-.05.6-.17.84-.26.23-.1.42-.15.43-.12.02.03-.18.34-.43.68zm-10.5-.31c.06.07.03.14-.2.31-.14.12-.28.22-.3.22-.07 0-.05-.26.03-.45.1-.2.34-.24.47-.08zm-1.81.2c.04.04.09.2.12.36.13.71.7 1.37 1.56 1.79.7.34 1.35.45 2.06.33.73-.12.99-.22 2.24-.82l1.09-.52.2.14c.34.24.65.37 1.01.43.47.07 1.48-.03 2.28-.24.35-.1.65-.15.67-.13.05.05-.55.64-1.36 1.31-.91.77-1.24 1-1.42 1a.83.83 0 00-.36.17c-.21.16-.39.22-.39.14 0-.07.28-.54.46-.8.15-.2.16-.24.07-.33-.1-.1-.21-.1-1.03.01-1.04.14-2.6.51-3.25.77-.56.23-1.59.82-2.37 1.35-.58.4-.9.53-.63.26.1-.1.1-.14.03-.23-.1-.12-.09-.13.38-.46.18-.13.24-.33.1-.33-.03 0-.32.16-.62.36-.44.28-.59.34-.68.29-.06-.04-.1-.1-.1-.14 0-.1.93-.88 1.4-1.18.2-.13.36-.26.36-.3 0-.17-.28-.02-1.09.6-.64.49-.89.64-.95.58-.05-.05-.04-.13.05-.28l.23-.4c.21-.35.1-.43-.56-.43-.34 0-.6-.03-.6-.07 0-.03.21-.21.46-.4.24-.18.44-.35.45-.38 0-.13-.27-.02-.7.3-.25.19-.5.34-.54.34-.13 0-.09-.22.1-.51.1-.18.14-.3.1-.36-.05-.05-.03-.17.03-.32.1-.21.1-.26 0-.33-.07-.07-.33.04-1.3.54-.68.35-1.44.78-1.7.95l-.49.33-.59-.09c-.32-.04-.59-.11-.59-.14 0-.04.09-.1.2-.15.94-.39 1.25-.57 2.36-1.4a9.5 9.5 0 012.6-1.57c.42-.15.62-.16.7-.04zm-2.2.35c0 .2-.26.34-.6.3-.29-.03-.5-.14-.43-.22.02-.01.23-.06.48-.1l.5-.07c.03 0 .05.04.05.09zm1.4 1.64c-.24.15-.26.25-.04.18.07-.03.17-.1.22-.18.1-.17.1-.17-.18 0zm-6.68.6a3.43 3.43 0 002.78 1.13c.63 0 1.05.05 1.05.13 0 .05-.24.17-.92.48-.25.12-.61.32-.79.46-.18.13-.38.24-.44.24-.07 0-.36-.11-.65-.25l-.53-.25.22-.24.23-.24-.55.05c-.43.03-.58.02-.69-.06-.12-.09-.11-.1.2-.33.17-.13.31-.27.31-.32 0-.17-.2-.09-.5.2l-.3.27-.26-.15c-.2-.11-.25-.19-.25-.34 0-.19-.02-.2-.26-.19-.27.01-.7-.23-.7-.4 0-.07 1.27-.71 1.43-.72.05 0 .33.24.62.53zm15.04.63c0 .15-.22 1.16-.26 1.2-.1.1-.81.43-.9.42-.04-.01-.28.09-.52.22-.62.35-.68.32-.32-.13.4-.52.25-.56-.76-.21-.84.29-1.36.53-2.22 1.05-.64.38-.67.39-1.26.42-.48.02-.61.01-.6-.06 0-.1.72-.69 1.54-1.24a10.1 10.1 0 012.52-1.21c1.05-.34 2.78-.63 2.78-.46zm-8 .57c-.01.1-.08.36-.17.59-.1.3-.14.5-.1.72.04.3.31.82.5.92.05.03.09.1.09.15 0 .08-.13.1-.68.06a8.14 8.14 0 01-.7-.06c-.02-.02.19-.22.28-.25.05-.02.06-.07.03-.12-.05-.08-.25-.09-.98-.05-.51.02-.96.05-1 .06-.22.05-.1-.19.35-.67.62-.67.56-.83-.18-.52l-.58.25c-.24.1-.6.29-.97.5-.14.08-.23.08-.47.01-.17-.04-.3-.12-.3-.17 0-.05.22-.22.47-.36a8.7 8.7 0 013.55-1.17c.83-.1.87-.1.86.1zm1.22 1.65c0 .08-.47.5-.56.5-.13 0-.06-.13.18-.35.25-.21.38-.26.38-.15z" fill="#1E5396"/></svg>