<!-- by TradingView --><svg width="56" height="56" viewBox="0 0 56 56" xmlns="http://www.w3.org/2000/svg"><path fill="#F0F3FA" d="M0 0h56v56H0z"/><path d="M47.92 31.85a6.73 6.73 0 0 1-1.92 1.7V40H10v-7.46a5.73 5.73 0 0 1-1.73-2.09 7.47 7.47 0 0 1-.26-2.3L8 20.32c0-2.42 2.02-4.3 4.46-4.3h5.61c1.44.01 2.29.24 3.32 1.07.06.04.1.04.16-.01.7-.69 1.74-1.04 3.13-1.06 3.68-.04 8.68-.47 10.04 3.95.06.19.11.19.16 0l.13-.55c.46-2.17 2.13-3.37 4.37-3.4 2.2-.04 3.81-.12 5.2 1.83.5.71.8 2.12.8 2.12.74 2.97 1.56 6.36 2.48 10.17.17.7.19 1.27.06 1.7Z" fill="#000F26"/><path d="M21.56 30.47a.11.11 0 0 0-.09-.05.12.12 0 0 0-.1.05 4 4 0 0 1-1.67 1.28c-.43.18-1.1.26-2.03.25h-4.83c-.75 0-1.32-.08-1.72-.25a3.36 3.36 0 0 1-1.82-1.79c-.2-.45-.3-1.08-.3-1.92v-7.46c0-.65.07-1.14.23-1.48.38-.8 1.01-1.4 1.89-1.82a4.8 4.8 0 0 1 1.97-.28h5.12a3.56 3.56 0 0 1 3.16 1.54.1.1 0 0 0 .09 0 .1.1 0 0 0 .04-.03c1.23-1.7 3.06-1.58 5.26-1.52 1.5.04 2.96 0 4.3.5a4.06 4.06 0 0 1 2.92 3.53c.13 1-.11 2.87-1.1 3.47a.09.09 0 0 0-.05.06.09.09 0 0 0 .02.07l1.23 1.52a.07.07 0 0 0 .07.02c.01 0 .03 0 .04-.02l.02-.03 1.73-6.67a3.22 3.22 0 0 1 2.16-2.33c.87-.31 2.33-.2 3.05-.2 1.78.02 2.83 1.25 3.24 2.9.85 3.48 1.7 6.57 2.56 10.1.22.9.24 1.47-.53 1.91-.24.14-.52.18-.86.18h-1.65c-.62 0-1.1-.1-1.34-.4a2.7 2.7 0 0 1-.7-1.87.18.18 0 0 0-.06-.13.18.18 0 0 0-.13-.05h-3.44a.14.14 0 0 0-.1.03.13.13 0 0 0-.04.1 3.45 3.45 0 0 1-.82 2.06c-.18.18-.5.25-.92.26h-1.31c-.47 0-.83-.07-1.1-.23a2 2 0 0 1-.77-.89.12.12 0 0 0-.07-.06.12.12 0 0 0-.1.01c-.55.37-1.14.67-1.8.91a5.6 5.6 0 0 1-1.87.26H25.1c-.93 0-1.57-.08-1.94-.22a3.49 3.49 0 0 1-1.6-1.3Z" fill="#fff"/><path d="M21 28.54a2.33 2.33 0 0 1-.76 1.73 2.75 2.75 0 0 1-1.84.73h-5.78c-.69 0-1.35-.26-1.84-.71a2.38 2.38 0 0 1-.76-1.74L10 20.46a2.33 2.33 0 0 1 .76-1.73 2.62 2.62 0 0 1 1.84-.72l5.78-.01c.69 0 1.35.26 1.84.71.49.46.76 1.09.77 1.74l.01 8.09ZM31.65 24.43c0 .08.02.16.06.22.73.98 1.18 1.5 1.56 2.27 1.03 2.04-.44 3.18-2.28 3.84-.42.15-.9.22-1.47.22-2.33.02-3.98.02-4.94.02-1.11 0-1.84-.32-2.33-1.2-.17-.3-.25-.71-.25-1.23v-8.64c0-.81.73-1.45 1.44-1.74.32-.12.81-.19 1.49-.19h4.19c.65 0 1.4.25 2.24.75 2.58 1.5 1.66 3.52.35 5.47a.4.4 0 0 0-.06.21ZM42.6 28.8a.32.32 0 0 0-.12-.18.36.36 0 0 0-.21-.07h-4.54c-.1 0-.19.04-.27.1a.41.41 0 0 0-.15.22l-.41 1.52a.64.64 0 0 1-.24.35.72.72 0 0 1-.42.14c-.52 0-2.4.26-2.09-.88a717.5 717.5 0 0 0 2.74-10.34 2 2 0 0 1 1.15-1.4c.82-.39 2.1-.22 2.94-.25 1.3-.06 2.06.54 2.37 1.74 1.1 4.25 1.98 7.73 2.64 10.41l.07.52a.29.29 0 0 1-.09.22.32.32 0 0 1-.23.1H43.7a.69.69 0 0 1-.4-.13.61.61 0 0 1-.23-.33l-.48-1.74Z" fill="#E31D19"/><path d="M27.1 24.44c.52.26 1.32.19 1.83.45.9.45 1.25 1.18 1.02 2.18-.45 2.04-3.07 2.16-4.6 1.73a.47.47 0 0 1-.25-.18.5.5 0 0 1-.1-.3v-7.6c0-.2.07-.38.2-.5.13-.14.3-.22.49-.22l2.41.01c.7.02 1.23.52 1.48 1.17.66 1.72-1.24 2.18-2.46 2.63a.34.34 0 0 0-.15.12.35.35 0 0 0-.02.38c.03.06.08.1.14.13ZM18 28.03c0 .25-.1.5-.25.68a.83.83 0 0 1-.62.29h-3.26a.83.83 0 0 1-.62-.29 1.04 1.04 0 0 1-.25-.68v-7.06c0-.25.1-.5.25-.68a.83.83 0 0 1 .62-.29h3.26c.23 0 .45.1.62.29.16.18.25.43.25.68v7.06ZM40 26h-1.43c-.21 0-.3-.1-.24-.3.39-1.62.8-3.24 1.23-4.87.06-.21.2-.32.45-.32.24 0 .39.11.44.33.43 1.63.84 3.25 1.22 4.86.05.2-.03.3-.24.3H40Z" fill="#fff"/><path d="M26.54 22.83c-.15.06-.28.19-.41.29-.09.07-.13.04-.13-.07V21.2c0-.1.05-.16.16-.17.84-.03 1.44-.03 1.8.02.87.12.87 1.14.02 1.37-.66.18-1.14.32-1.44.42ZM16.93 21h-2.86c-.04 0-.07.04-.07.09v6.82c0 .05.03.09.07.09h2.86c.04 0 .07-.04.07-.09v-6.82c0-.05-.03-.09-.07-.09ZM39.44 25.09l.49-2.15c0-.02 0-.03.02-.04a.08.08 0 0 1 .12.04l.49 2.15a.07.07 0 0 1-.02.06l-.02.02h-1a.08.08 0 0 1-.06-.02.07.07 0 0 1-.02-.06ZM26.12 25.2c.23.19.4.34.7.4.86.16 2.4.23 2.14 1.24-.32 1.3-1.84 1.08-2.9 1.06l-.04-.02a.07.07 0 0 1-.02-.05v-2.56c0-.1.04-.12.12-.06Z" fill="#000F26"/><path d="m13 37.46-.55 1.93a.22.22 0 0 1-.1.14.23.23 0 0 1-.19.01.48.48 0 0 1-.19-.1c-.2-.2-.27-.34-.23-.46l1.37-3.86.92-2c.1-.2.25-.25.46-.16.32.15.53.27.54.68.03.51-.03 1.18-.17 2-.02.1-.01.2.01.29.03.1.06.1.1 0 .27-.85.94-2.82 1.72-3.15a.33.33 0 0 1 .2-.01c.61.14.86.53.73 1.15a27.73 27.73 0 0 0-.42 3.81c-.03.52.03 1 .2 1.45.08.24 0 .3-.21.16-.76-.45-.72-1.7-.64-2.55.07-.9.17-1.83.3-2.77.06-.48-.02-.5-.24-.08a22.73 22.73 0 0 0-1.66 4.03.23.23 0 0 1-.25.07c-.36-.13-.54-.39-.56-.79-.02-.87.02-1.72.13-2.55.03-.29-.01-.3-.14-.04-.43.87-.8 1.8-1.13 2.8ZM23.63 36.49c.35-.5.7-.9 1.08-1.23.6-.52 1.3-.11 1.6.47.41.84-.72 1.62-1.44 1.78-.08.01-.1.06-.08.13.12.32.3.59.53.81.05.05.1.07.18.07.29 0 .45.01.5.02.14.03.21.1.23.22a.16.16 0 0 1-.1.16c-.98.48-1.8-.8-2.1-1.56a.15.15 0 0 0-.15-.09.15.15 0 0 0-.13.1l-.45 1.3c-.07.2-.19.26-.36.17l-.01-.01a.47.47 0 0 1-.2-.23.74.74 0 0 1-.07-.34l.03-.57c.01-.13-.03-.15-.11-.04-.2.27-.48.58-.83.94-.3.3-.63.39-1 .26-.39-.14-.6-.35-.63-.64-.03-.24-.1-.26-.22-.07-.24.36-.68.88-1.14.83-.75-.06-.93-.71-.75-1.4.24-.98.75-1.74 1.53-2.3.63-.44 1.19-.45 1.68-.02.1.08.14.18.14.3v.09c0 .1-.05.14-.15.08-.3-.18-.55-.2-.76-.09a3.45 3.45 0 0 0-1.87 2.52c-.06.3.03.35.27.15a6.67 6.67 0 0 0 1.53-1.9c.05-.1.23-.26.51-.49a.23.23 0 0 1 .2-.04c.15.03.23.11.26.24.02.07 0 .17-.07.3-.28.53-.65 1.25-.6 1.85a.17.17 0 0 0 .12.15.18.18 0 0 0 .18-.03c.56-.45 1.12-1.05 1.68-1.8.21-.28.38-.68.5-1.2.2-.82.45-1.64.75-2.45.06-.18.18-.23.36-.15.13.06.23.12.29.18.14.17.18.33.11.48-.1.24-.28.36-.4.7-.32.85-.55 1.62-.7 2.32-.03.11 0 .12.06.03ZM35.8 36.85c-.07.28-.02.3.16.07.48-.65.76-1.09 1.33-1.42.6-.34 1.17.12 1.05.74-.1.51-.45 1.53-.35 2 0 .03.02.06.04.08a.19.19 0 0 0 .18.06 6.04 6.04 0 0 0 1.71-1.95c.42-.63 1.16-1.44 1.96-1.48.38-.02.68.1.88.39.08.11.1.2.06.3-.03.06-.08.08-.15.05-.35-.14-.65-.13-.89 0-.87.5-1.74 1.59-1.73 2.66l.01.05a.1.1 0 0 0 .1.04 6.34 6.34 0 0 0 1.14-1.2l.76-1.06c.1-.12.18-.2.26-.26a.33.33 0 0 1 .4.03.32.32 0 0 1 .07.4c-.35.6-.57 1.2-.66 1.79a.22.22 0 0 0 .1.22.23.23 0 0 0 .25 0l.18-.15c.65-.6 1.26-1.3 1.84-2.14.06-.1.16-.08.29.04.02.01.03.04.03.08v.23l-.02.12a6.98 6.98 0 0 1-1.89 2.28c-.45.34-1.33-.19-1.36-.68a.09.09 0 0 0-.03-.05.1.1 0 0 0-.14 0c-.28.45-.66.93-1.18.89-.34-.03-.6-.23-.76-.6-.05-.14-.12-.14-.2-.03-.27.38-.71.7-1.23.5-1.08-.4-.69-1.57-.45-2.4.08-.27 0-.31-.2-.13-.75.62-1.32 1.4-1.71 2.35a.25.25 0 0 1-.16.15.26.26 0 0 1-.22-.03c-.45-.27-.29-1.03-.2-1.77 0-.1.02-.35.02-.78 0-.3.1-.56.28-.8.11-.16.25-.45.5-.5a.3.3 0 0 1 .27.08.28.28 0 0 1 .07.27l-.4 1.56ZM31.66 36.98c-.27.43-.68.93-1.22 1.5-.47.52-.99.55-1.54.12-.14-.11-.2-.22-.18-.33.04-.28-.04-.31-.22-.1-.32.35-.65.81-1.09.8-.69-.02-1.03-.59-.88-1.23a4.1 4.1 0 0 1 1.59-2.46c.55-.4 1.33-.52 1.76.09a.3.3 0 0 1 .06.24c-.02.08-.07.1-.15.07-.43-.19-.88-.08-1.35.31a3.56 3.56 0 0 0-1.29 2.15c-.05.32.05.38.3.16a7.59 7.59 0 0 0 1.51-1.88c.13-.2.32-.39.58-.54a.23.23 0 0 1 .2-.01c.24.1.2.37.1.57-.27.53-.64 1.24-.57 1.85a.16.16 0 0 0 .1.13.17.17 0 0 0 .17-.03 9.5 9.5 0 0 0 2.22-2.62.5.5 0 0 1 .42-.26c.24 0 .36.11.34.35-.01.17-.07.48-.19.92-.01.06.01.1.07.11l.05.02s.02 0 .03-.03c.1-.23.3-.58.6-1.05.17-.3.4-.48.7-.55a.31.31 0 0 1 .2.02c.24.11.75.58.52.88-.07.1-.14.1-.21 0l-.16-.2c-.06-.07-.14-.09-.23-.04-.77.35-1.35 2.09-1.49 2.8a.16.16 0 0 1-.1.13.17.17 0 0 1-.17-.02c-.49-.38-.34-1.3-.38-1.84 0-.12-.04-.13-.1-.03Z" fill="#fff"/><path d="M24.2 36.82c.35-.55.76-.93 1.23-1.15a.2.2 0 0 1 .25.05.2.2 0 0 1 .04.08c.14.66-.9 1.22-1.37 1.25a.16.16 0 0 1-.14-.08.15.15 0 0 1 0-.15Z" fill="#000F26"/></svg>