<!-- by TradingView --><svg width="56" height="56" viewBox="0 0 56 56" xmlns="http://www.w3.org/2000/svg"><path fill="#F0F3FA" d="M0 0h56v56H0z"/><path fill-rule="evenodd" d="M17 19h-2v9.9h.02a5.5 5.5 0 0 0 9.97 2.78 5.32 5.32 0 0 0 8.01.86V34h2v-4.39a3.81 3.81 0 0 1-1.7-4.86 5.3 5.3 0 0 0-8.33.54 5.53 5.53 0 0 0-.97 3.18v.05a3.5 3.5 0 0 1-7-.02 3.5 3.5 0 0 1 5.84-2.6c.24-.66.6-1.22 1-1.78a5.48 5.48 0 0 0-6.84.13V19Zm9 9.52v-.04a3.5 3.5 0 1 1 0 .04ZM9.5 34a5.5 5.5 0 1 0 0-11 5.5 5.5 0 0 0 0 11Zm0-1.97a3.5 3.5 0 0 0 3.5-3.51 3.5 3.5 0 1 0-3.5 3.51ZM41 24.35l-1.19 1.78S39.56 25 37.98 25c-.48 0-1.48.22-1.48 1.13 0 .64.62.86 1.18 1.07l.3.11.72.28c.97.36 1.82.68 2.32 1.4a5.5 5.5 0 1 1 10.95-.06V29h-8.85c.32 1.7 1.6 3 3.38 3 1.44 0 2.68-.78 3.27-2h2.2a5.79 5.79 0 0 1-5.47 4 5.5 5.5 0 0 1-5-3.21v.05c0 .65-.47 3.16-3.81 3.16-.86 0-1.69-.43-1.69-.43v-1.95s.84.38 1.69.38c1.44 0 1.81-.72 1.81-1.31 0-.6-.37-.9-1.52-1.28-1.98-.65-3.48-1.29-3.48-3.28 0-1.58 1.34-3.13 3.48-3.13 2.14 0 3.02 1.35 3.02 1.35ZM43.31 27c.5-1.42 1.6-2 3.19-2 1.58 0 2.75.78 3.27 2H43.3Z" fill="url(#apo1ag0cm)"/><defs><linearGradient id="apo1ag0cm" x1="54.63" y1="26.94" x2="3.8" y2="26.19" gradientUnits="userSpaceOnUse"><stop stop-color="#3BB0DC"/><stop offset=".22" stop-color="#3992D0"/><stop offset=".28" stop-color="#3589CA"/><stop offset=".5" stop-color="#2270B2"/><stop offset=".58" stop-color="#2F64AD"/><stop offset=".71" stop-color="#265990"/><stop offset=".77" stop-color="#28527A"/><stop offset=".95" stop-color="#273765"/></linearGradient></defs></svg>