<!-- by TradingView --><svg width="56" height="56" viewBox="0 0 56 56" xmlns="http://www.w3.org/2000/svg"><path fill="#F0F3FA" d="M0 0h56v56H0z"/><path d="M27 17.28c0 .34.06.6.13.7l-.82.78a4.24 4.24 0 0 0-2.97-3.18c-2.67-.2-4.1.08-4.48.24-.12-3.04 2.05-4.96 4.39-5a4.78 4.78 0 0 1 3.75 2v4.46Z" fill="#164280"/><path d="M22.58 16.06c2.74.25 3.3 2.9 3.24 4.2-2.18-.96-3.65-.16-4.11.36l-2.78 2.88A4.2 4.2 0 0 1 17 19.9c.37-3.34 2.17-4.15 5.58-3.84Z" fill="#2E5890"/><path d="M22.05 21.16c1.93-1.44 3.8-.14 4.5.69a2.98 2.98 0 0 0-2.07 2.43v3.84c-1.5 1.31-3.29.54-4 0-2.37-2.04-1.37-4.03-.57-4.77l2.14-2.2Z" fill="#4C72A0"/><path d="M25 24.66c.23-2.17 2.36-2.51 3.4-2.41-.4 1.3.17 2.25.5 2.56l2.1 1.96v1.93c.02.75-.56 2.26-3 2.3-2.43.04-3.01-1.45-3-2.2v-4.14Z" fill="#6485AF"/><path d="M29.47 24.5c-1.21-1.2-.2-2.65.47-3.23.54 1.18 2.53 1.15 3.45.98l2.49 2.54c.52.4 1.25 1.55 0 2.9-1.25 1.37-2.56.7-3.05.2l-3.36-3.38Z" fill="#7C9BBF"/><path d="M37.86 18.42H32c-.74.92-1.4 1.03-1.65.97-.32 1.74.73 2.22 1.3 2.24h6.12c.4-.02 1.22-.36 1.23-1.59.01-1.23-.76-1.6-1.14-1.62Z" fill="#91AECD"/><rect x="27.57" y="9" width=".94" height="8.87" rx=".47" fill="#B9CCDB"/><path d="M34.46 12.16a.93.93 0 0 1 1.3 0l.15.14c.36.36.36.95 0 1.3l-4.92 4.91a.93.93 0 0 1-1.31 0l-.14-.14a.92.92 0 0 1 0-1.3l4.92-4.9Z" fill="#A7C0D9"/><path fill-rule="evenodd" d="M15 43a4 4 0 1 0 0-8 4 4 0 0 0 0 8Zm0-2a2 2 0 1 0 0-4 2 2 0 0 0 0 4Z" fill="#2E5890"/><path d="M26.3 32c-.16 0-.3.14-.3.31V39.02a2 2 0 1 1-.4-1.23v-2.46A3.99 3.99 0 0 0 20 39a4 4 0 0 0 6 3.46v.23c0 .17.14.31.3.31h1.4c.16 0 .3-.14.3-.31V32.3a.31.31 0 0 0-.3-.31h-1.4ZM33 35c.57 0 1.1.12 1.6.33v2.46a2 2 0 1 0 .4 1.24v-3.8c0-.13.14-.23.3-.23h1.4c.16 0 .3.1.3.23v7.54c0 .13-.14.23-.3.23h-1.4c-.16 0-.3-.1-.3-.23v-.3A4 4 0 1 1 33 35ZM40.6 35h4.08c.17 0 .32.14.32.3v1.4c0 .16-.15.3-.32.3h-4.13c-.3 0-.55.23-.55.51 0 .29.25.49.55.49h1.85c1.44 0 2.6 1.12 2.6 2.47v.1C45 41.9 43.84 43 42.4 43h-4.08c-.17 0-.32-.14-.32-.3v-1.35c0-.17.15-.35.32-.35h4.14c.3 0 .54-.2.54-.48a.53.53 0 0 0-.54-.52H40.6c-1.44 0-2.6-1.08-2.6-2.43v-.13c0-1.35 1.16-2.44 2.6-2.44ZM40 44.5c0-.28.22-.5.5-.5h2a.5.5 0 0 1 0 1h-2a.5.5 0 0 1-.5-.5Z" fill="#2E5890"/></svg>