<!-- by TradingView --><svg width="56" height="56" viewBox="0 0 56 56" xmlns="http://www.w3.org/2000/svg"><path fill="#F0F3FA" d="M0 0h56v56H0z"/><path d="M35.99 27.72A8.05 8.05 0 0 0 28.05 20c.21-.47.51-.92.9-1.35a8.45 8.45 0 0 1 4.17-2.45 7.8 7.8 0 0 1 7.25 1.96c.08.03.14 0 .17-.1a16.04 16.04 0 0 1 2.43 4.3c-.05.53-.08 1.03-.09 1.52a7.94 7.94 0 0 1-1.94 5.39c-.22.26-.56.6-1.02 1.02a8.59 8.59 0 0 1-3.76 1.74c-.18.03-.39.04-.63.03l-.65-.02a9.41 9.41 0 0 0 1.1-4.32Z" fill="url(#a)"/><path d="M40.37 18.16c.09.03.14 0 .17-.1a16 16 0 0 0-27.56 4.44l.24-.01a5.96 5.96 0 0 0-.13 2.63l.09.3a8.05 8.05 0 0 0 5.21 6.1c.96.3 1.86.52 2.71.51l6.58-11.47.38-.56c.2-.47.5-.92.9-1.35a8.45 8.45 0 0 1 4.17-2.45 7.8 7.8 0 0 1 7.24 1.96Z" fill="url(#b)"/><path d="M42.97 22.36a16 16 0 1 1-30 .14l.25-.01a5.96 5.96 0 0 0-.13 2.63l.09.3a8.05 8.05 0 0 0 7.9 6.58h13.9a8.04 8.04 0 0 0 4.94-1.71c.46-.42.8-.76 1.02-1.02a7.94 7.94 0 0 0 1.94-5.4c.01-.48.04-.98.1-1.5Z" fill="url(#c)"/><defs><linearGradient id="a" x1="29.37" y1="17.99" x2="38.9" y2="28.4" gradientUnits="userSpaceOnUse"><stop stop-color="#99D0B9"/><stop offset=".43" stop-color="#43B790"/><stop offset="1" stop-color="#1A8083"/></linearGradient><linearGradient id="b" x1="25.74" y1="12" x2="18.47" y2="31.03" gradientUnits="userSpaceOnUse"><stop stop-color="#115261"/><stop offset=".44" stop-color="#52A1A0"/><stop offset="1" stop-color="#A9D5AD"/></linearGradient><linearGradient id="c" x1="12" y1="31.66" x2="44.67" y2="31.4" gradientUnits="userSpaceOnUse"><stop stop-color="#1B8995"/><stop offset=".39" stop-color="#33B0AA"/><stop offset="1" stop-color="#23B56E"/></linearGradient></defs></svg>