<!-- by TradingView --><svg width="56" height="56" viewBox="0 0 56 56" xmlns="http://www.w3.org/2000/svg"><path fill="#F0F3FA" d="M0 0h56v56H0z"/><path d="M42 44.24a1.74 1.74 0 0 1-1.1 1.63c-.22.08-.45.13-.69.13H15.79a1.81 1.81 0 0 1-1.27-.52 1.75 1.75 0 0 1-.52-1.24V11.76a1.74 1.74 0 0 1 .52-1.24c.34-.33.8-.52 1.27-.52h24.42a1.81 1.81 0 0 1 1.65 1.09c.1.21.14.44.14.67v32.48Zm-.17-32.46a1.66 1.66 0 0 0-1.65-1.62H15.81c-.44 0-.86.17-1.17.47-.3.3-.48.72-.48 1.15v32.44a1.6 1.6 0 0 0 .48 1.15 1.65 1.65 0 0 0 1.17.47h24.37a1.67 1.67 0 0 0 1.52-1c.08-.2.13-.4.13-.62V11.78Z" fill="#0E125B"/><path d="M40 35.28a1.66 1.66 0 0 1-.53 1.21 1.81 1.81 0 0 1-1.28.51H17.81c-.48 0-.94-.18-1.28-.5a1.69 1.69 0 0 1-.53-1.22V13.72c0-.45.19-.9.53-1.21.34-.33.8-.51 1.28-.51h20.38a1.88 1.88 0 0 1 1.28.5 1.72 1.72 0 0 1 .53 1.22v21.56Z" fill="#0E125B"/><path d="M38.18 36.84H17.82a1.7 1.7 0 0 1-1.17-.46c-.31-.3-.49-.7-.49-1.12v-21.5c0-.43.18-.83.49-1.12.3-.3.73-.47 1.17-.47h20.36c.44 0 .86.17 1.17.47.3.3.48.7.48 1.11v21.51c0 .42-.17.82-.48 1.12-.31.3-.73.46-1.17.46Z" fill="#F8C0D2"/><path d="M28 29.92v-.03l.84-6.5c0-.03.01-.04.03-.05.26-.09.47-.18.65-.27a2.75 2.75 0 0 0 1.56-2.82 11.56 11.56 0 0 0 0-.3l1.95.95h.04c.34-.62.52-1.22.55-1.8a3.68 3.68 0 0 0-.94-2.54.18.18 0 0 1-.04-.08.09.09 0 0 1 .02-.08.09.09 0 0 1 .08-.02c.13.01.28.06.44.13 1.63.8 3.05 2 2.72 4a5.47 5.47 0 0 1-.54 1.58l-.01.12c0 .1.1.17.18.12.15-.1.31-.1.49 0 .4.21.8.48 1.18.8.28.24.48.38.58.44a2.02 2.02 0 0 0 .8.2.09.09 0 0 1 .03.06v.04c-.03.16-.37.38-.48.45a7.4 7.4 0 0 1-2.64 1.03c-.46.08-1.05-.08-1.35-.46-.13-.17-.22-.33-.35-.43a.04.04 0 0 0-.04 0h-.01l-.02.03-.68 2.26a.65.65 0 0 1-.28.39c-.35.2-.63.37-.85.7-.07.1-.15.3-.23.58l-1.08 3.86c-.1.38.15.4.35.57.62.5.46 1.1-.03 1.6-.46.47-.9.73-1.55.74h-.4c-.1-.01-.19 0-.28.03a2.3 2.3 0 0 1-.69.13c-.23 0-.5-.06-.69-.13a.67.67 0 0 0-.28-.03h-.4c-.66 0-1.1-.27-1.55-.74-.5-.5-.65-1.1-.03-1.6.2-.17.45-.19.35-.57l-1.08-3.86a2.16 2.16 0 0 0-.23-.58c-.22-.33-.5-.5-.85-.7a.65.65 0 0 1-.28-.39 998.28 998.28 0 0 1-.71-2.3.04.04 0 0 0-.04.01c-.13.1-.21.26-.35.43-.3.38-.9.54-1.35.46a7.4 7.4 0 0 1-2.64-1.03c-.1-.07-.45-.3-.48-.45a.09.09 0 0 1 .01-.07.09.09 0 0 1 .06-.03c.3-.03.55-.1.76-.2.1-.06.3-.2.58-.44.39-.32.78-.59 1.19-.8.17-.1.33-.1.48 0 .08.05.18-.02.18-.12l-.01-.12a5.47 5.47 0 0 1-.54-1.58c-.33-2 1.09-3.2 2.72-4 .16-.07.3-.12.44-.13a.1.1 0 0 1 .1.06v.04c0 .03-.02.05-.04.08a3.68 3.68 0 0 0-.94 2.53c.03.59.21 1.2.55 1.8 0 .02.02.02.04.01l1.94-.94h.01a.02.02 0 0 1 .02 0v.01l-.02.28a2.75 2.75 0 0 0 1.56 2.82c.18.09.4.18.65.27a4207.78 4207.78 0 0 1 .87 6.58Z" fill="#0E125B"/><path d="M28 22.63c1.26 0 2.29-1 2.29-2.25A2.27 2.27 0 0 0 28 18.13c-1.26 0-2.29 1-2.29 2.25a2.27 2.27 0 0 0 2.3 2.25Z" fill="#0E125B"/><path d="M27.25 34.18c-.36-.16-.83-.37-1.07-.5-.11-.05-.16-.14-.13-.25.04-.16.23-.2.37-.2.34-.01.5.18.68.44.09.13.22.32.21.47a.04.04 0 0 1-.04.05h-.02ZM29.82 33.69a25.92 25.92 0 0 1-1.11.49.04.04 0 0 1-.02-.04c0-.15.12-.34.2-.47.19-.26.35-.45.7-.44.13 0 .32.04.36.2.02.11-.02.2-.13.26Z" fill="#F8C0D2"/><path d="M24 39.6c.26 0 .46-.2.46-.44 0-.25-.2-.44-.45-.44s-.45.2-.45.44.2.44.45.44ZM18.16 40c1.22 0 1.94.84 1.94 2 0 1.15-.7 2-1.93 2s-1.95-.84-1.95-2c0-1.15.71-2 1.94-2Zm-1.03 2c0 .64.27 1.26 1.03 1.26.75 0 1.03-.61 1.03-1.26 0-.64-.27-1.26-1.02-1.26-.76 0-1.03.61-1.04 1.26ZM21.34 42.32c-.02 0-.03 0-.03.02v1.12c0 .14-.02.25-.05.32-.19.4-.8.24-.8-.2v-2.97c0-.18.02-.3.06-.38.1-.2.28-.23.51-.23h1.72c.15 0 .26.02.32.06.21.14.2.44-.03.57a.56.56 0 0 1-.28.05 684.43 684.43 0 0 0-1.45.01v.93a.02.02 0 0 0 .02.02h1.32c.14 0 .24.02.3.06.2.13.19.44-.01.56a.52.52 0 0 1-.27.05h-1.33ZM24.01 40H24a.42.42 0 0 0-.42.42l-.01 3.16c0 .23.19.42.43.42H24c.23 0 .42-.19.42-.42l.01-3.16a.42.42 0 0 0-.43-.42ZM30.6 41.38l.8-1.13c.1-.12.17-.2.24-.22.3-.11.63.15.55.46l-.17.29A426.22 426.22 0 0 0 31 42.23v1.24c0 .15-.01.26-.06.32a.45.45 0 0 1-.66.11c-.1-.09-.16-.21-.16-.38a113.6 113.6 0 0 0-.01-1.35l-1-1.4a.85.85 0 0 1-.16-.28c-.06-.35.3-.6.62-.43.05.02.1.08.17.17l.82 1.15c.01.03.03.03.05 0ZM33.5 40.68h-.01v.92c0 .03 0 .04.03.04h1.3c.16 0 .27.02.33.07.12.1.15.22.1.37-.05.19-.2.24-.4.24h-1.33c-.03 0-.04 0-.04.03v.94l.01.02.02.01h1.42c.15 0 .26.02.34.07.18.12.18.46-.05.57a.6.6 0 0 1-.24.04h-1.8a.65.65 0 0 1-.34-.07c-.16-.1-.19-.25-.19-.44v-2.96c0-.16.03-.27.08-.34.1-.13.21-.19.35-.19h1.85c.13 0 .23.01.29.04.22.1.23.42.04.57-.06.05-.16.07-.3.07H33.5ZM39 41.79c0-.04-.01-.04-.04-.01l-.84 1.4c-.16.26-.58.24-.74-.01l-.83-1.35c-.03-.05-.05-.05-.05.02v1.65c0 .16-.02.28-.07.35-.15.22-.54.2-.67-.05a.74.74 0 0 1-.05-.32v-2.95c0-.16.03-.27.07-.34.16-.22.52-.24.7-.04l.19.3c.35.58.7 1.17 1.07 1.75.01.02.02.02.04 0l1.16-1.9c.08-.12.15-.2.21-.24.2-.12.5-.03.6.2a.8.8 0 0 1 .04.29v2.98c0 .15-.03.26-.08.33-.16.2-.51.2-.66-.02-.04-.06-.05-.16-.05-.31v-1.73ZM27.2 42.8c-.05-.23-.49-.37-.72-.43-.75-.2-1.6-.27-1.58-1.26.02-.62.43-.97 1.04-1.07.4-.07.77-.05 1.13.07.33.1.77.44.72.83-.03.18-.15.28-.35.28-.2 0-.35-.14-.45-.29a.68.68 0 0 0-.5-.27c-.3-.04-.7 0-.79.33-.09.3.28.46.52.52.47.1.83.2 1.09.29.58.2.76.67.66 1.24-.16.87-1.18 1.05-1.93.93a1.7 1.7 0 0 1-.86-.4c-.22-.2-.37-.58-.17-.82.12-.13.27-.15.46-.06a.7.7 0 0 1 .23.25.8.8 0 0 0 .67.39c.2 0 .47 0 .64-.12.15-.1.21-.24.18-.4Z" fill="#0E125B"/></svg>