<!-- by TradingView --><svg width="56" height="56" viewBox="0 0 56 56" xmlns="http://www.w3.org/2000/svg"><path fill="#F0F3FA" d="M0 0h56v56H0z"/><path d="M23.16 35h1.43l1.53-1.7a.5.5 0 0 1 .74 0L28.4 35h1.43l-2.26-2.5c-.3-.33-.68-.5-1.08-.5-.39 0-.78.17-1.08.5L23.16 35Z" fill="url(#a)"/><path d="m28.4 21-1.54 1.71a.5.5 0 0 1-.74 0L24.6 21h-1.43l2.25 2.5c.3.33.7.5 1.08.5.4 0 .79-.17 1.08-.5l2.26-2.5H28.4Z" fill="url(#b)"/><path d="M8.7 28c0-.23-.04-.45-.1-.66-.06-.22-.15-.4-.27-.57-.12-.16-.29-.3-.49-.4-.2-.1-.44-.15-.72-.15-.27 0-.51.05-.71.15-.2.1-.36.24-.5.4-.12.16-.22.35-.29.58-.06.21-.09.44-.09.68 0 .5.14.92.4 1.25.27.33.66.5 1.2.5a1.5 1.5 0 0 0 1.18-.53A2.28 2.28 0 0 0 8.7 28Zm1.53-.01c0 .44-.07.84-.22 1.2a2.71 2.71 0 0 1-1.62 1.59c-.4.15-.82.22-1.29.22-.47 0-.9-.07-1.28-.2a2.79 2.79 0 0 1-.98-.6 2.56 2.56 0 0 1-.62-.95 3.3 3.3 0 0 1 0-2.42c.14-.37.34-.68.6-.95a3 3 0 0 1 .99-.64c.39-.16.83-.24 1.31-.24.49 0 .93.08 1.31.23a2.59 2.59 0 0 1 1.6 1.56c.13.36.2.76.2 1.2ZM13 26.09c.09-.16.16-.3.3-.44a2.6 2.6 0 0 1 2.77-.43c.28.17.5.38.65.65.11.21.19.45.22.71.04.26.06.5.06.7V31h-1.5v-3.33c0-.2-.01-.37-.04-.55a.94.94 0 0 0-.15-.43.8.8 0 0 0-.37-.34 1.33 1.33 0 0 0-1.15.07c-.22.1-.4.27-.56.47-.16.23-.23.53-.23.89V31h-1.53v-4.5h-.8V25H13v1.09ZM21.61 26.98v-.74h-.13c-.79 0-1.53.3-1.79 1.1-.07.21-.1.43-.1.66 0 .55.15.99.44 1.3.29.32.73.47 1.3.47.27 0 .55-.04.83-.1.29-.1.57-.22.84-.4v1.26c-.3.16-.6.28-.91.36a4.35 4.35 0 0 1-2.37-.1c-.38-.15-.7-.36-.96-.62a2.55 2.55 0 0 1-.57-.95 3.63 3.63 0 0 1 .06-2.5c.16-.37.38-.68.67-.94a3.57 3.57 0 0 1 2.39-.78 4.63 4.63 0 0 1 1.69.31v1.67h-1.39ZM32.95 26.92v-.71l-.2-.01-.2-.01c-.55 0-.84.18-.84.56 0 .14.05.23.14.3.09.08.26.17.53.27l.66.25c.28.11.5.21.7.31.2.1.36.22.49.34.12.13.22.28.27.43.06.17.09.36.09.58 0 .57-.21 1.01-.64 1.31-.42.3-1.05.46-1.9.46a6 6 0 0 1-1.04-.1 4.02 4.02 0 0 1-1.01-.34v-1.31c.71.38 1.4.57 2.07.57.32 0 .56-.05.71-.16.14-.1.22-.26.22-.46 0-.15-.06-.27-.18-.34s-.3-.15-.56-.25l-.71-.25a2.79 2.79 0 0 1-1.03-.61c-.26-.25-.4-.6-.4-1.04 0-.55.2-.97.59-1.26.39-.3.98-.45 1.78-.45a5.43 5.43 0 0 1 1.82.33v1.6h-1.36ZM39.73 27.4c0-.37-.12-.66-.36-.9a1.34 1.34 0 0 0-.99-.35c-.42 0-.76.11-1.04.33a1.3 1.3 0 0 0-.46.92h2.85Zm1.15 2.98a4.72 4.72 0 0 1-3.8.42 2.55 2.55 0 0 1-1.57-1.56 3.62 3.62 0 0 1-.01-2.39 2.63 2.63 0 0 1 1.55-1.6c.38-.17.83-.25 1.34-.25.89 0 1.58.24 2.05.73.47.49.7 1.2.7 2.12v.52h-4.29c0 .4.17.74.47 1 .3.28.73.41 1.26.41a4.05 4.05 0 0 0 2.3-.65v1.25ZM44 26.09c.2-.31.43-.58.8-.78.35-.2.75-.31 1.16-.31.46 0 .87.1 1.2.28.34.18.57.5.7.93.24-.38.55-.68.92-.9.38-.2.77-.31 1.18-.31.49 0 .86.08 1.13.23a1.73 1.73 0 0 1 .86 1.34c.03.27.05.51.05.72V31h-1.53v-3.3c0-.2-.01-.38-.05-.56a1.42 1.42 0 0 0-.14-.45c-.18-.3-.47-.44-.89-.44a1.46 1.46 0 0 0-1.32 1.01c-.05.16-.07.33-.07.53V31h-1.55v-3.3c0-.2-.01-.38-.03-.56a1.12 1.12 0 0 0-.14-.45c-.19-.3-.5-.44-.9-.44-.21 0-.42.06-.61.17-.2.1-.38.27-.54.47-.16.23-.23.53-.23.89V31h-1.56v-4.5h-.83V25H44v1.09Z" fill="#303358"/><path d="M28.86 25.95c-.3.36-.72.63-1.19.75l.06.07c.08.1.14.23.2.38a2.37 2.37 0 0 1-1.03 3.83 3.27 3.27 0 0 0 1.38-.45 2.75 2.75 0 0 0 1.13-1.34c.15-.36.22-.76.22-1.2 0-.44-.07-.84-.21-1.2-.12-.33-.3-.61-.54-.87a.1.1 0 0 1-.02.03Z" fill="url(#c)"/><path d="M28.54 28.73c0-.62-.23-1.16-.6-1.58l.06.19a2.47 2.47 0 0 1 0 1.34c-.06.15-.13.29-.2.41l-.13.18c-.3.33-.59.41-.59.41l-.03.01a1.86 1.86 0 0 1-.53.08c-.71 0-1.34.3-1.79.8.15.07.31.16.48.22a3.75 3.75 0 0 0 1.7.19c.42-.14.78-.4 1.06-.72l.02-.03a2.33 2.33 0 0 0 .55-1.5Z" fill="url(#d)"/><path d="M25.21 25.24c-.13.05-.25.12-.36.17l-.09.06a2.77 2.77 0 0 0-1.15 1.37 3.3 3.3 0 0 0 .53 3.24c.31-.37.73-.65 1.2-.78v-.02c-.09-.1-.15-.2-.2-.31-.4-.43-.65-1-.65-1.63a2.37 2.37 0 0 1 .6-1.58c.34-.38.79-.64 1.29-.75a3.4 3.4 0 0 0-1.17.23Z" fill="url(#e)"/><path d="M26.52 25h-.14a2.46 2.46 0 0 0-1.32.8c-.27.31-.47.7-.54 1.15a2.37 2.37 0 0 0 .62 2.02 2.27 2.27 0 0 1-.11-1.62c.05-.2.14-.37.25-.52 0 0 .16-.27.5-.45l.11-.04.13-.05.07-.02.17-.03h.04l.02-.01h.2c.7 0 1.33-.3 1.77-.78a3.68 3.68 0 0 0-1.77-.45Z" fill="url(#f)"/><defs><linearGradient id="a" x1="27.21" y1="33.5" x2="23.94" y2="34.76" gradientUnits="userSpaceOnUse"><stop stop-color="#3E7AB9"/><stop offset=".95" stop-color="#4690C3"/></linearGradient><linearGradient id="b" x1="25.11" y1="23.7" x2="30.3" y2="15.52" gradientUnits="userSpaceOnUse"><stop stop-color="#0DB8D6"/><stop offset=".99" stop-color="#2AA6DF"/></linearGradient><linearGradient id="c" x1="26.9" y1="28.45" x2="29.63" y2="28.45" gradientUnits="userSpaceOnUse"><stop stop-color="#217ABE"/><stop offset="1" stop-color="#0DB8D6"/></linearGradient><linearGradient id="d" x1="25.51" y1="29.07" x2="28.54" y2="29.07" gradientUnits="userSpaceOnUse"><stop stop-color="#4080BC"/><stop offset=".96" stop-color="#53B2D1"/></linearGradient><linearGradient id="e" x1="23.4" y1="27.55" x2="26.38" y2="27.55" gradientUnits="userSpaceOnUse"><stop stop-color="#3F7EBB"/><stop offset=".63" stop-color="#4895C5"/></linearGradient><linearGradient id="f" x1="24.49" y1="26.98" x2="28.29" y2="26.98" gradientUnits="userSpaceOnUse"><stop stop-color="#3F7CBA"/><stop offset=".93" stop-color="#50ABCE"/></linearGradient></defs></svg>