<!-- by TradingView --><svg width="56" height="56" viewBox="0 0 56 56" xmlns="http://www.w3.org/2000/svg"><path fill="#045291" d="M0 0h56v56H0z"/><path d="M17.09 25h-4.54c-.86 0-1.55.7-1.55 1.57v2.86c0 .87.7 1.57 1.55 1.57h4.54c.85 0 1.54-.7 1.54-1.57v-2.86c0-.87-.69-1.57-1.54-1.57Zm-.07 3.84c0 .33-.26.6-.59.6H13.2a.59.59 0 0 1-.58-.6v-1.69c0-.32.26-.59.58-.59h3.23c.33 0 .59.27.59.6v1.68ZM27.63 26.57c0-.87-.69-1.57-1.54-1.57h-4.54c-.86 0-1.55.7-1.55 1.57V31h1.62v-3.85c0-.32.26-.59.58-.59h3.23c.32 0 .57.27.57.6V31h1.63v-4.43ZM29 29.43c0 .87.7 1.57 1.55 1.57h4.54c.85 0 1.54-.7 1.54-1.57V25H35v3.85c0 .32-.24.59-.57.59H31.2a.59.59 0 0 1-.58-.6V25H29v4.43ZM43.4 27.15v.2H45v-.78c0-.87-.7-1.57-1.54-1.57h-4.5c-.86 0-1.55.7-1.55 1.57V31H39v-3.85c0-.32.28-.59.6-.59h3.2c.33 0 .59.27.59.6Z" fill="#fff"/><path d="M42.88 18H13.12A5.1 5.1 0 0 0 8 23.09v9.82A5.1 5.1 0 0 0 13.12 38h29.76A5.1 5.1 0 0 0 48 32.91v-9.82A5.1 5.1 0 0 0 42.88 18ZM47 31h-2v2.03c0 1.12-.86 1.97-1.98 1.97H12.99A1.93 1.93 0 0 1 11 33.04V31H9v-6h2v-2.04c0-1.12.86-1.96 1.99-1.96H43c1.13 0 1.99.83 1.99 1.95V25h2v6Z" fill="#fff"/></svg>