<!-- by TradingView --><svg xmlns="http://www.w3.org/2000/svg" width="56" height="56" viewBox="0 0 56 56"><path fill="#F0F3FA" d="M0 0h56v56H0z"/><path fill-rule="evenodd" d="M51 28c0 4.97-10.3 9-23 9S5 32.97 5 28s10.3-9 23-9 23 4.03 23 9zm-1.5.02c0 4.1-9.63 7.44-21.52 7.44-11.9 0-21.54-3.33-21.54-7.44s9.64-7.44 21.54-7.44c11.89 0 21.53 3.33 21.53 7.44zm-21.8 7.13c1.88.06 3.7.02 5.44-.1-2.03-.01-5.05-.55-7.34-2.28a7.43 7.43 0 0 1-2.36-3.84c-.03-.12-.15-.36-.38-.33-.23.03-.26.23-.25.33v1.6c.01.14-.09.43-.58.47h-.67c-.2.02-.57-.1-.56-.7v-4.94c-.01-.3.18-.76.65-.76h2.7c.5 0 1.46.36 1.45 1.71.01.36-.15 1.22-.92 1.82.55 2.04 3.2 6.52 9.54 6.8 7.5-.77 12.93-3.22 13.03-6.3.12-3.94-8.52-7.4-19.3-7.73-10.78-.34-19.62 2.58-19.75 6.52-.12 3.94 8.52 7.4 19.3 7.73zm-7.13-7.44c0 1.81-1.37 3.29-3.05 3.29-1.69 0-3.05-1.48-3.05-3.29 0-1.82 1.36-3.29 3.05-3.29 1.68 0 3.05 1.47 3.05 3.29zm-1.87 0c0 1.08-.53 1.95-1.18 1.95-.65 0-1.18-.87-1.18-1.95s.53-1.95 1.18-1.95c.65 0 1.18.87 1.18 1.95zm4.05-1.42c.02-.16.13-.49.48-.5.43-.02.79.22.79.83 0 .6-.48.7-.73.7s-.54-.1-.54-.35v-.68zm6.7-1.61c-1.1-.07-3.34.45-3.45 3.07-.1 2.62 2.17 3.26 3.32 3.25.5-.01 1.48-.2 1.5-.83.04-.63-.46-.55-.71-.43-.74.25-2.24.27-2.33-1.68-.08-1.94 1.14-2.27 1.77-2.27.18 0 .4.01.61.14.34.19.73-.1.73-.47 0-.35-.53-.78-1.44-.78zm4.05.11c.88 0 2.4.22 2.5 1.93v3.82c0 .13-.1.41-.48.46h-.5c-.2 0-.58-.18-.55-.89-.17.3-.8.89-1.86.89-1.34 0-1.62-.86-1.61-1.72.01-.86.34-1.88 3.43-2.56 0-.3-.28-.98-1.1-.98-.16 0-.68.05-1.19.5-.38.34-.68.01-.72-.38-.04-.38.69-1.07 2.08-1.07zm.9 2.75v.6c0 .5-.3 1.77-1.25 1.77-.26 0-.67-.1-.62-.77.06-.85.86-1.42 1.87-1.6zm2.16-2.8c.2-.07.66-.1.84.37l.02.07c.26.67.99 2.62 1.26 3.84l1.04-3.6c.11-.35.44-.9.98-.74.7.2.64.77.55 1.07a77.76 77.76 0 0 1-1.92 5.98c-.5 1.05-1.09 1.25-1.93 1.27-.84.02-1.6-.32-1.44-1.03.12-.57.58-.54.8-.46.33.12 1.03.18 1.07-.52.01-.12 0-.41-.11-.7-.12-.27-1.13-3.22-1.63-4.65-.08-.23-.1-.73.47-.9zm-7.04 7.35c0 .35-.34.64-.77.64-.42 0-.76-.29-.76-.64 0-.34.34-.63.76-.63.43 0 .77.29.77.63z" fill="#E3000F"/></svg>