<!-- by TradingView --><svg xmlns="http://www.w3.org/2000/svg" width="56" height="56"><path fill="#0E315E" d="M0 0h56v56H0z"/><path d="M11.43 31.9c1.36 0 2.29-.47 2.8-1.41.26-.51.4-1.17.4-1.99 0-1.12-.29-1.97-.87-2.54a3.16 3.16 0 00-2.33-.85c-1.36 0-2.3.47-2.8 1.42-.27.5-.4 1.16-.4 1.97 0 .82.13 1.48.4 1.99.5.94 1.44 1.4 2.8 1.4zm0-7.15a9.1 9.1 0 014.55 1.03c1.25.7 1.87 1.61 1.87 2.72s-.62 2.02-1.87 2.72a9.13 9.13 0 01-4.55 1.03 8.9 8.9 0 01-4.72-1.13C5.57 30.42 5 29.56 5 28.56c0-1.1.6-2.02 1.78-2.73a8.93 8.93 0 014.65-1.08z" fill="#fff"/><path d="M16.47 31.74a3.3 3.3 0 001.25-.2c.23-.12.28-.36.28-.75v-4.58c0-.4-.08-.66-.34-.78a4.04 4.04 0 00-1.2-.17V25h6.38c1.2 0 2.18.07 2.93.22 1.45.3 2.17.82 2.17 1.58 0 .56-.36 1-1.08 1.33a5.95 5.95 0 01-1.76.47l3.63 2.94c.1.09.21.14.32.17l.42.04V32h-3.7l-3.75-3.24H21v2.03c0 .36.1.61.32.74.21.12.63.2 1.27.2V32h-6.12v-.26zM21 28.43c1.18-.01 2.57-.1 3.07-.28.52-.19.77-.6.77-1.26 0-.4-.1-.72-.29-.95-.34-.4-.95-.6-1.84-.6-.48 0-1.34.04-1.49.11a.35.35 0 00-.22.34v2.64zM40 32v-.26a8.1 8.1 0 001.47-.12c.35-.11.53-.31.53-.61V26c0-.3-.18-.51-.55-.62-.22-.06-.9-.1-1.45-.12V25h11v2h-.47a1.98 1.98 0 00-1.18-1.28 9.29 9.29 0 00-3.2-.37c-.58 0-.75.03-.92.1-.15.06-.23.2-.23.39v2.4c1.1 0 1.63-.1 2.02-.32.39-.22.69-.63.9-1.22h.48v3.5h-.49c-.13-.59-.42-1-.84-1.24s-.98-.36-2.07-.36v2.5c0 .22.1.37.31.45a9.76 9.76 0 004.1-.27 4.6 4.6 0 002.06-1.44H52L51.22 32H40z" fill="#fff"/><path d="M39.3 25a.76.76 0 01-.16.12.6.6 0 01-.4.12c-.2 0-.7-.08-1.5-.24-.8-.17-1.6-.25-2.4-.25-2.01 0-3.67.37-4.96 1.11-1.25.72-1.88 1.61-1.88 2.67 0 1.04.6 1.91 1.81 2.6 1.3.75 3.03 1.12 5.19 1.12 1.2 0 2.27-.07 3.24-.22.87-.13 1.25-.26 1.63-.39l.13-.04v-1.35c0-.37.1-.62.32-.75.23-.13 1-.2 1.68-.22V29h-6.97v.27c.72 0 1.2.04 1.43.1.36.1.54.31.54.63v1.12c0 .22-.08.38-.25.49-.28.19-.56.28-1.39.28-1.53 0-2.57-.34-3.11-1.03a3.78 3.78 0 01-.8-2.37c0-1.07.29-1.9.86-2.5.58-.6 1.5-.9 2.76-.9 1.15 0 2.19.3 3.1.87.5.3.87.73 1.34 1.27H40V25h-.7z" fill="#fff"/></svg>