<!-- by TradingView --><svg xmlns="http://www.w3.org/2000/svg" width="56" height="56"><path fill="#F0F3FA" d="M0 0h56v56H0z"/><path fill-rule="evenodd" d="M43.72 31a16.09 16.09 0 000-6H12.28a16.09 16.09 0 000 6h31.44zm-.22 1h-31a16 16 0 0031 0zM28 12a16 16 0 00-15.5 12h31A16 16 0 0028 12zm0 33a17 17 0 100-34 17 17 0 000 34z"/><path d="M30.18 13.7c-.49-.1-1.41-.95-1.81-1.37-.17.28.76 1 .94 1.14.14.12-.1.15-.23.15-.08-.06-.26-.15-.38-.1-.14.08-.26.23-.62.06-.3-.14-.07-.29.07-.35.2-.18.03-.2-.07-.19-1.29.24-1.93.87-2.09 1.16.13 0 .5 0 .97-.08.46-.09.27.15.12.28l.27.25a5.1 5.1 0 00-.82.34c-.3.17-.55.07-.65 0-.15-.09-.47-.2-.54.1-.07.3.44.32.7.3 1.62-.28 2.28-1.08 2.4-1.45-.05.41.33.94.53 1.15.46.3.8.75.9.94-.1.08-.76.11-1.12-.41-.28-.42-.57-.5-.67-.49-.44.07-.67.46-.73.65v.55c.11.03.14.1.15.13a7.2 7.2 0 01-2.84 1.48l-.71-.04c-.19.28.05.63.2.77.12-.22 1.98-.97 2.89-1.31.38-.11.57-.35.62-.46l.63-1.44c.07.37.41.84.46.94.04.07.65.7.95 1.01v.42c.01.22-.3.47-.45 0-.12-.37-.33-.38-.43-.34-.39 1.41.4 2.34.84 2.62-.29.38-.73.12-.9-.05-.05-.18-.24-.56-.64-.6-.4-.04-.74.31-.86.5-.13.15-.39.33-.36-.21.03-.55.31-.42.45-.29l.8-.71c.03-.24.1-.5.14-.59.28-.61.05-.86-.1-.9 0 .33-.6.64-.9.75l-.21-.33c-.12-.18-.28-.07-.35 0l-.64.72h-.38c-.03.06-.18.2-.51.27s-.44.2-.46.27l.1.27c.3-.24.59-.1.7 0 .45-.41.66-.22.7-.07-.06.3-.62.53-.89.6a.91.91 0 01-.74.77c-.3.06-.48.19-.53.25h-.39c-.53.33-.93.19-1.07.07-.03.08-.1.23-.12.23.17.3.6.23.8.16.11-.1.42-.3.78-.3.37 0 .48.3.49.43.24-.17.76-.51.93-.52.17 0 .25.17.27.27.28-.03.8-.63 1.04-.92l.2.13c-.1.12-.39.52-.7 1.1-.3.56-.78.78-.99.81-1.25-.05-1.5.2-1.45.33h.28c.2.55 1.14.57 1.59.5.08-.42.47-.37.78-.35.25.02.39-.1.42-.15 0 .25.18.63.62.63.35 0 .55.07.6.1l-.05-.38-.55-.73v-.32c-.15-.05-.47.08-.62.15-.56-.73.3-.97.8-1.24.4-.22.56-.52.6-.65.24.2.42.71.48.95l.22.86c.03.31-.13.33-.22.3-.08-.12-.18-.12-.22-.1-.24.2-.06.67.06.87l-.06.34c.38.12.56-.3.6-.53.14.12.44.35.5.22.07-.15.23-.15.39.03.12.15.3.1.36.05l.04-.2.35.15.58-.03c0 .13.08.16.12.16.25-.02.51-.32.62-.47-.7.3-1.78-.11-2.13-.34a1.12 1.12 0 00-.62-.2c-.07-.13-.06-.37-.04-.47l.39-.33.17-.23.74.9h.56l.59.18h.7l-1.2-.49a.93.93 0 01-.48-.36c-.12-.2-.03-.3.03-.31l1.08.57c.37.2 1.22.15 1.6.1-.8 0-1.27-.2-1.4-.3a6.15 6.15 0 01-1.15-.57c.15-.19.5-.18.65-.15.46.22.66.09.7 0-.17.09-.76-.04-1.03-.12-.37.2-.59.16-.65.12l-.6-.6a2.85 2.85 0 01-.86-.97c-.13-.3.12-.54.33-.59.17-.04.28.2.31.33.05.17.2.46.4.26.23-.26.55-.02.7.13.14.11.34.1.42.07l-.5-.32c.1-.14.49-.06.67 0 .46.24.66.26.7.25-.18-.27-.52-.41-.67-.45l-.38-.3-.28.36-.35-.28-.04-.2h-.28c-.39-.07-.42-.61-.23-.78.15-.14.4.09.5.21.16.12.15.02.12-.04a3.01 3.01 0 01-.52-.43c-.06-.26-.28-.86-.2-1.06.07-.16.35.14.48.3.41.3.52.18.52.09-.15-.07-.18-.15-.17-.19.02-.28.38-.25.56-.2.04.06.14.18.27.2.13.02.15-.1.14-.16a.92.92 0 01-.08-.44c.1-.14.1-.25.08-.28-.45.12-.69.12-.75.1-.08-.18-.73-.34-1.05-.4-.08.01-.32-.03-.6-.23-.35-.26-.33-.6-.1-.8.18-.15.26-.3.28-.35.34.47.53.34.59.21-.04-.24.15-.19.25-.13.01.05.08.15.19.13.14-.02.27-.32-.34-.44z" fill="#0F6735"/><path fill-rule="evenodd" d="M15 26.5c0-.28.22-.5.5-.5h5c.28 0 .5.22.5.5v3a.5.5 0 01-.5.5h-5a.5.5 0 01-.5-.5v-3zm1.5.7c0-.11.09-.2.2-.2h2.6c.11 0 .2.09.2.2v1.6a.2.2 0 01-.2.2h-2.6a.2.2 0 01-.2-.2v-1.6zM26.57 26H22v4h1.5v-.98h1.93l.49.98h1.58l-.78-1.61c1-.83.4-2.16-.15-2.39zm-1.22 1H23.5v1h1.85c.1-.03.32-.19.32-.49s-.21-.45-.32-.51zM28 30h1.5v-3h.19l1.54 3h.52l1.56-3h.19v3H35v-4h-2.36l-1.15 2.31L30.35 26H28v4zm9.41-4l-2.1 4h1.5l.45-1h2.14l.47 1h1.43l-2.09-4h-1.8zm.74 1l-.58 1.28h1.5l-.6-1.28h-.32z"/><path fill-rule="evenodd" d="M19.67 34.97l2.17-.97H22v5.3c0 .15.07.48.57.52h.09V40H20v-.18h.13c.18 0 .58-.1.58-.51v-3.9c.01-.23-.15-.62-.94-.28l-.1-.16zm6.56 2.6c-.28 1.64-1.75 2.21-2.45 2.3V40c2.69-.09 4.05-2.01 3.9-3.74-.15-1.73-1.16-2.26-2.07-2.26a1.9 1.9 0 00-1.83 2.1c.08 1.42 1.1 1.74 1.57 1.73.49-.02.75-.17.88-.25zm-.65-3.26c.78 0 .8 1.95.72 2.9h-.02c-.12.08-.24.15-.53.15-.8 0-1.1-3.05-.17-3.05zm3.28-.31l-.43 1.83h.2c.29-.6.9-.85 1.18-.83h1.6l-1.7 5h.7l2.02-6h-3.57zm7.8 3c0 1.66-.86 3-1.92 3s-1.92-1.34-1.92-3 .86-3 1.92-3 1.92 1.34 1.92 3zm-2.48-2.13a.56.56 0 011.12 0v4.26a.56.56 0 01-1.12 0v-4.26z" fill="#0F6735"/></svg>