<!-- by TradingView --><svg width="56" height="56" viewBox="0 0 56 56" xmlns="http://www.w3.org/2000/svg"><path fill="#F0F3FA" d="M0 0h56v56H0z"/><path d="M42 14H14v19.85l.8-.28c4.72-1.93 11.26-6.64 13.2-15V17h1v1.08l4-.45V17h1v.84l8 7.28V14Zm0 13.12a681.7 681.7 0 0 1-5.66 1.46c-.44.11-.8.23-1.15.34-.37.12-.73.24-1.19.35v2.05l.48-.2c2.7-1.14 5.2-2.2 7.52-3.08v-.92Zm0 1.95c-2.35.9-4.9 1.97-7.63 3.13l-.37.16V42h8V29.07ZM33 42v-9.23c-.53.22-1.23.45-1.93.68-.75.25-1.5.5-2.07.74V42h4Zm-5 0v-7.38c-5.3 2.36-9.98 4.75-13.3 6.44l-.7.37V42h14Zm-14-1.65c1.64-.82 3.7-1.82 6-2.91v-.02a39.82 39.82 0 0 0 7.56-6.56c-4.66 1.23-9.16 2.49-12.44 3.61-.39.16-.76.3-1.12.42v5.46Zm16.03-21.39L33 18.6v1.32c-.03.37-.07.78-.14 1.2l-2.83-2.16Zm3.97 1v2.12l5.18 4.78 2.56-.66-7.7-7.06c0 .26-.02.53-.04.81Zm-3.93 9.24c1.23-1.74 2.38-3.4 2.93-4.9v4.23l-1.43.33-1.5.34ZM34 23.34v4.94c.42-.1.74-.21 1.06-.32.32-.1.64-.2 1.04-.3.66-.18 1.31-.34 1.95-.5L34 23.33Zm-2.96 6.6c.72-.14 1.43-.28 1.96-.42v2.2c-.53.23-1.23.46-1.93.69-.75.24-1.5.49-2.07.74v-2.78c.56-.14 1.3-.29 2.04-.43ZM28 31.3v2.27c-.78.35-1.44.7-2.09 1.04-.58.31-1.15.62-1.82.92 1.34-1.1 2.23-2.2 3.1-3.26l.81-.97Zm0-9.55v7.88c-2.15.57-4.06 1.14-5.95 1.7l-2.3.7A21.94 21.94 0 0 0 28 21.74Zm1 6.75v-8.82l3.32 2.52c-.44 1.81-1.7 3.96-3.32 6.3Z" fill="#417F7A"/></svg>