<!-- by TradingView --><svg width="56" height="56" viewBox="0 0 56 56" xmlns="http://www.w3.org/2000/svg"><path fill="url(#ar15kgws2)" d="M0 0h56v56H0z"/><path d="M11.65 38.61c-3.03-1.08-4.15-4.37-3.45-7.3a5.44 5.44 0 0 1 4.9-4.28c3.2-.3 5.81 1.38 6.44 4.62.57 2.95-.73 6.1-3.78 7.05-1.37.43-2.74.4-4.1-.09Zm-1.02-7.08c-.52 2.1 0 5.1 2.64 5.48 3.26.48 4.28-2.6 3.85-5.16-.32-1.93-1.76-3.15-3.73-2.91-1.5.18-2.42 1.19-2.76 2.59ZM43.07 38.94c-2.95.4-5.75-1.19-6.47-4.19-1-4.2 1.56-8.05 6.1-7.73 6.89.48 7.11 11 .37 11.92Zm-4.16-6.95c-.35 2.47.56 5.29 3.58 5.07a3.12 3.12 0 0 0 2.81-2.3c.64-2.14.18-5.43-2.58-5.81-2.08-.3-3.53 1.05-3.81 3.04Z" fill="#B0866E"/><path d="M25 29v10h-2.42V29H19v-2h18v2h-3.5v10H31V29h-6ZM28.06 16.25a334.26 334.26 0 0 1 2.58-2.11c4.17-2.96 9.9.26 9.32 5.06-.42 3.43-4.32 5.7-7.8 4.46a6.56 6.56 0 0 1-1.95-1.11 905.61 905.61 0 0 1-2.23-1.8l-.04.01c-.72.62-1.46 1.23-2.2 1.84a6.12 6.12 0 0 1-7.08.5 5.38 5.38 0 0 1-2.6-5.34c.47-3.31 4.08-5.53 7.51-4.5.8.23 1.57.65 2.28 1.23.71.6 1.43 1.18 2.16 1.76h.05Zm-7.88.84c-.92.93-.76 2.32.28 3.1.98.72 2.18.54 3.05-.21l1.75-1.46v-.04l-1.7-1.43c-1.06-.87-2.4-.96-3.38.04Zm13.54 3.5a2.28 2.28 0 0 0 2.67-1.66c.37-1.64-1.38-3-3.04-2.42-.23.08-.43.19-.58.3-.36.29-1.03.84-2.01 1.68-.02.02-.02.03 0 .04.46.4.92.77 1.38 1.15.6.49.93.78 1.58.91Z" fill="#B0866E"/><path d="m25.24 14.04-1.93 2.82 6.83 5.63 2.27-2.6-1.66-1.36-2.73-2.27-2.78-2.22Z" fill="url(#br15kgws2)"/><defs><linearGradient id="ar15kgws2" x1="10.42" y1="9.71" x2="68.15" y2="76.02" gradientUnits="userSpaceOnUse"><stop stop-color="#1A1E21"/><stop offset="1" stop-color="#06060A"/></linearGradient><linearGradient id="br15kgws2" x1="25.3" y1="18.87" x2="30.1" y2="18.63" gradientUnits="userSpaceOnUse"><stop stop-color="#B0866E"/><stop offset=".53" stop-color="#EFE4DE"/><stop offset="1" stop-color="#B0866E"/></linearGradient></defs></svg>