<!-- by TradingView --><svg xmlns="http://www.w3.org/2000/svg" width="56" height="56"><path fill="#C10001" d="M0 0h56v56H0z"/><path d="M12.52 36.26l.01.01zm.01.01C12.83 36.53 18 40 26.7 40 40.9 40 50 34.2 50 28.2 50 22.06 40.96 16 28.04 16 16.19 16 6 21.36 6 28.13c0 6.6 9.87 9.6 18.95 8.48a33.24 33.24 0 0010.58-2.96c-5 1.33-11.77 1.85-14.42 1.64-6.89-.54-9.95-4.12-9.95-7.2 0-4.74 6.63-9.62 16.83-9.62 10.7 0 17.06 5.23 16.88 9.74-.15 3.95-3.6 8.94-15.52 10.4-9 1.12-16.46-2.06-16.82-2.34zM28 34a7 7 0 100-14 7 7 0 000 14z" fill="#fff"/></svg>