<!-- by TradingView --><svg xmlns="http://www.w3.org/2000/svg" width="56" height="56"><path fill="#E30613" d="M0 0h56v56H0z"/><path d="M12.39 21.42a5 5 0 015.09 3.4 7.89 7.89 0 014.23.1 5.58 5.58 0 011.98-.38c.39-1.5 3.67-2.44 5.68-2.24 1.62.16 1.88 1.67 1.8 2.4 1.95-.33 2.72 0 2.87.21 2.96-.7 4.35-.05 4.68.35 2.76-1.01 4-.65 4.27-.35 1.8-.72 3.23-.16 3.73.2a5.1 5.1 0 012.63-.57c1.5.09 2.58.99 2.65 2.63.06 1.65-1.02 3.47-.97 3.6.03.1.1.55.12.76a2.46 2.46 0 01-2.04 2.28 8.7 8.7 0 01-3.91-.18 8.04 8.04 0 01-4.57 0c-1.81.71-3.85.3-4.65 0-2.4.59-3.6.25-3.9 0-1.9.84-3.37.1-3.87-.38.12.2-.25.62-2.74.73-2.48.11-3.54-.67-3.76-1.08-.63 1-2.59 3.02-5.3 3.1-2.7.08-3.28-1.8-3.24-2.75-.92.56-2.43.91-3.59 1.01-1.66.14-5.5-1-5.4-5.05.1-4.24 4.1-7.69 8.2-7.8z" fill="#fff"/><path d="M9.71 33.45c3.89-.19 6.15-3.29 6.8-4.82l.36 2.46a2.45 2.45 0 00-2.95 1.92c-.11.96.45 2.17 2.59 2.15a5.51 5.51 0 003.67-1.71l4.04-5.03-.81 1.94c-1 .35-1.13 1.12-1.08 1.46.33 1.29 1.08 1.3 3.29 1.35h.07c1.82.04 2.48-.61 2.58-.94.99 1.41 3.02.95 3.9.54 1.12.7 3.1.3 3.95 0 2.16.72 3.94.3 4.56 0 2.13.97 4.5 0 4.6 0 .3.38 1.9.58 3.36.37 1.48-.22 1.72-1.18 1.75-1.6.02-.33-.13-.66-.21-.79.37-.79 1.11-2.58 1.06-3.41a2.1 2.1 0 00-.66-1.5c-1.49-.96-3.26-.27-3.96.2-1.33-1.15-3.04-.61-3.74-.2-.5-.94-3.23-.18-4.53.32-.56-1.52-4.35-.44-4.47-.44-.68-.61-2.9-.36-3.94-.15 1.06-2.3-.22-2.6-.99-2.45l-1.7.23c-2.3.21-2.97 1.43-3.03 2a7.12 7.12 0 00-2.43.37c-1.62-.7-3.96-.29-4.92 0a4.21 4.21 0 00-4.37-3.57c-5.49.61-7.3 4.71-7.52 6.68-.04 1.62.84 4.8 4.73 4.62z" fill="#E30613"/><ellipse rx="4.25" ry="5.68" transform="matrix(.5482 .83635 -.82699 .56222 11.03 27.75)" fill="#fff"/><ellipse rx="1.7" ry="3.36" transform="matrix(.81406 .58078 -.56673 .8239 11.02 27.74)" fill="#E30613"/><ellipse rx=".81" ry="2.47" transform="matrix(.81406 .58078 -.56673 .8239 10.97 27.83)" fill="#fff"/><path d="M20.94 27.36c.22-.11.31-.45.33-.6 0-.35-.13-.5-.72-.5H18.2c-1.74 0-1.59 1.23-1.28 1.3.25.05.4.5.44.72.22 1.23.66 3.76.66 4.05a.8.8 0 01-.66.76c-.28.04-.44-.55-.44-.99-.7-.52-1.44-.06-1.73.23-.5.55-.95 1.72 1.27 1.97 2.77.31 5.67-4.91 6.5-5.82a4.16 4.16 0 011.5-1.12c.2-.05.62-.25.64-.6.02-.36-.33-.48-.5-.5h-1.63c-1.19.25-1.1.9-.93 1.1.14.16.06.47 0 .6-.35.8-.68.97-.9.97-.6-.14-.46-1.44-.2-1.57z" fill="#fff"/><path d="M25.07 25.4c.13-.96 2.6-1.37 3.81-1.45.62-.06.58.49.49.77-.63 1.64-1.94 5.06-2.1 5.62-.18.56-.03.8.06.84.15.09.38.35.15.68-.29.41-3.54.7-4.15.24-.5-.38-.07-.72.17-.8.18-.01.62-.25.93-1.04.38-1 1.64-4.13 1.12-4.34-.42-.18-.5-.42-.48-.51zm4.1 1.8c.07-.85 2.48-1 3.68-.97.27 0 .3.3.27.45-.2.62-.68 2.05-.97 2.75-.36.88-.13 1.49.36 1.4.49-.09.7-.37.95-.93.25-.55.87-2.28.53-2.38-.27-.09-.31-.25-.3-.33-.11-.72 2.16-.94 3.32-.96.64-.09.6.36.5.6-.3.89-.97 2.8-1.16 3.31-.18.52-.07.73 0 .78.24.04.56.25 0 .75-.7.62-3.5.88-3.5.39 0-.4-.23-.43-.34-.4-1 .66-1.87.75-2.17.72-1.88-.1-1.56-1.7-1.17-2.48.31-.72.84-2.19.45-2.28-.4-.08-.46-.32-.45-.43zm9.12.3c.04-.74 2.35-1.15 3.5-1.26.6 0 .3.53.18.83-.05.13.09.32.39.1a5.3 5.3 0 012.5-.93c1.15 0 1.07.58 1.29.83.17.2.32.1.45 0 .33-.28.92-.83 2.49-.83 1.56 0 1.46 1.15 1.2 1.72-.4.95-1.17 2.91-.94 3.18a.45.45 0 010 .63c-.77.96-3.5.54-3.71.31-.22-.22-.18-.67.1-.78.23-.1.42-.37.49-.5.48-1 1.22-2.96.37-2.84-1.05.16-1.16 1.64-1.47 2.3a1.57 1.57 0 000 1.28c-.2.99-2.44.77-3.23.77-.64 0-.86-.18-.86-.4 0-.28.12-.52.33-.61.21-.1.44-.37.53-.5l.79-1.96c.12-.32.04-.88-.33-.88s-.7.26-.81.47c-.3.58-.87 1.98-.82 2.98.07 1.25-3.8 1.05-3.98.67-.14-.3.06-.57.18-.67.15-.05.5-.27.77-.72.33-.56 1.12-2.57.81-2.73a.4.4 0 01-.22-.47z" fill="#fff"/></svg>