<!-- by TradingView --><svg width="56" height="56" viewBox="0 0 56 56" xmlns="http://www.w3.org/2000/svg"><path fill="#F0F3FA" d="M0 0h56v56H0z"/><path fill-rule="evenodd" d="M8 28.5a1.5 1.5 0 1 1-3 0 1.5 1.5 0 0 1 3 0Zm1 0a2.5 2.5 0 1 1-5 0 2.5 2.5 0 0 1 5 0Zm2 .5-1.96-3h1.2l1.24 1.92L12.73 26h1.2L12 28.98V31h-1v-2Zm4.18-3h1.34l2.04 5h-1.08l-.41-1h-2.44l-.41 1h-1.08l2.04-5Zm1.48 3-.81-2-.82 2h1.63Zm4.48-.61L23.1 26h-1.3l-1.78 2.2L20 26h-1v5h1v-2.4l1.98 2.4h1.3l-2.14-2.61Z" fill="#1D1D1B"/><path fill-rule="evenodd" d="m26 29-1.95-3h1.2l1.25 1.92L27.75 26h1.19L27 28.98V31h-1v-2Zm3.74-3-2.04 5h1.08l.4-1h2.45l.4 1h1.09l-2.04-5h-1.34Zm.67 1 .81 2H29.6l.82-2Zm2.09-1h4v1H35v4h-1v-4h-1.5v-1Zm5.5 0v5h-1v-5h1Zm7 5v-5h-1v5h1Zm-6-5h2.5a1.5 1.5 0 0 1 .91 2.69 1 1 0 0 1 .59.91V31h-1v-1.2a.8.8 0 0 0-.8-.8H40v2h-1v-5Zm2.5 2H40v-1h1.5a.5.5 0 0 1 0 1Zm4.5 3v-5h1.5l1.5 3.5 1.5-3.5H52v5h-1v-3.5L49.5 31h-1L47 27.5V31h-1Z" fill="#DE0C15"/></svg>