<!-- by TradingView --><svg width="56" height="56" viewBox="0 0 56 56" xmlns="http://www.w3.org/2000/svg"><path fill="#F0F3FA" d="M0 0h56v56H0z"/><path d="M17 34v-1.93L22.17 26H17v-2h8v1.67L19.66 32H25v2h-8Zm-5.62-12H13v1.6h-1.62V22ZM8.4 22H10v1.6H8.4V22Zm-.36 6.99c0 1.68.86 3.34 2.73 3.34 1.9 0 2.71-1.68 2.71-3.37 0-1.71-.8-3.3-2.7-3.3-1.91 0-2.74 1.61-2.74 3.33ZM6 29.05c0-.99.15-1.82.45-2.49.8-1.73 2.44-2.58 4.3-2.58 2.94 0 4.79 2.16 4.79 5.02 0 2.85-1.83 5-4.76 5C7.88 34 6 31.9 6 29.05Z" fill="#262E3B"/><g opacity=".65" fill="#262E3B"><path d="m17.12 22.83.21-.02c.01.09.03.15.07.2a.4.4 0 0 0 .23.16l.06.02h.06a.72.72 0 0 0 .3-.03.33.33 0 0 0 .15-.1c.03-.04.05-.1.05-.14 0-.06-.02-.1-.05-.14a.35.35 0 0 0-.15-.1 3.38 3.38 0 0 0-.3-.08 1.52 1.52 0 0 1-.32-.1.44.44 0 0 1-.18-.16.41.41 0 0 1 .01-.44.45.45 0 0 1 .21-.17.88.88 0 0 1 .64 0c.1.04.17.1.22.18l.06.13a.43.43 0 0 1 .02.13l-.21.02a.34.34 0 0 0-.12-.24c-.06-.05-.16-.08-.3-.08-.12 0-.22.02-.28.07-.07.05-.1.1-.1.18 0 .06.02.1.07.14a.9.9 0 0 0 .33.12l.38.11c.1.05.17.1.21.17a.45.45 0 0 1 0 .48.5.5 0 0 1-.23.2 1 1 0 0 1-.7 0 .54.54 0 0 1-.33-.5M18.76 23.37V21.7h.22v.69h.88v-.69h.22v1.67h-.22v-.79h-.88v.79h-.22ZM20.71 21.7h-.22v1.67h.22V21.7ZM21.1 23.37V21.7h.78a.4.4 0 0 1 .05 0l.06.02a.5.5 0 0 1 .2.07c.06.04.1.1.14.17.03.06.05.14.05.23 0 .14-.04.26-.13.36-.1.1-.26.14-.5.14h-.42v.68h-.23Zm.22-.88h.44c.14 0 .24-.02.3-.08a.28.28 0 0 0 .1-.22.31.31 0 0 0-.06-.18.24.24 0 0 0-.14-.1.97.97 0 0 0-.2-.01h-.43v.6ZM23.14 23.37v-.7l-.65-.97h.27l.33.5.17.29c.05-.1.11-.2.19-.3l.32-.49h.26l-.67.96v.71h-.22ZM23.92 23.37l.64-1.67h.24l.69 1.67h-.25l-.2-.5h-.7l-.19.5h-.23Zm.48-.69h.57l-.18-.46-.06-.18-.06-.16c-.02.1-.05.21-.09.31l-.18.5ZM25.67 23.37V21.7h.74a1 1 0 0 1 .34.05c.08.03.14.08.19.16.04.07.07.16.07.25 0 .11-.04.21-.12.3a.6.6 0 0 1-.36.15.5.5 0 0 1 .23.18l.1.12.28.46h-.28l-.22-.35-.16-.23a.52.52 0 0 0-.11-.11.34.34 0 0 0-.1-.05h-.38v.74h-.22Zm.22-.93h.47c.1 0 .18-.01.24-.03.06-.03.1-.06.13-.1.03-.05.05-.1.05-.15a.25.25 0 0 0-.1-.2c-.05-.05-.14-.08-.26-.08h-.53v.56ZM27.35 23.37V21.7h.58c.13 0 .23 0 .3.03.1.02.18.06.25.11.08.08.15.17.2.3.04.11.06.24.06.39 0 .12-.01.23-.04.33a.87.87 0 0 1-.12.25.58.58 0 0 1-.15.15.67.67 0 0 1-.2.08c-.08.02-.17.03-.27.03h-.6Zm.23-.2h.36c.1 0 .19 0 .25-.03a.38.38 0 0 0 .16-.09c.05-.05.09-.12.12-.2a1 1 0 0 0 .04-.33c0-.17-.03-.3-.08-.4a.45.45 0 0 0-.21-.19.89.89 0 0 0-.3-.03h-.34v1.27Z"/></g><path d="M30.93 24h-1.77l-3.7 9.61h1.89l.75-1.95h3.99l.7 1.95h1.92L30.93 24Zm-2.11 5.85 1.27-3.22 1.29 3.22h-2.56ZM45.16 24H43.4l-3.7 9.61h1.89l.75-1.95h3.99l.7 1.95h1.92L45.16 24Zm-2.12 5.85 1.27-3.22 1.3 3.22h-2.57Z" fill="#ED2844"/><path d="m46.05 34.22.59.57c-2.57 2.34-7.73 2.24-7.94-1.55-.03-3.12-.06-5.97.11-8.56 0-.68.58-1.23 1.5-1.2H46V22h-7.88c.35-.15.86-.5.86-1.43 0-.92-.8-1.57-1.48-1.57-.68 0-1.52.65-1.49 1.57.03.93.44 1.18.74 1.43H29v1.47h5.69c.91-.02 1.5.53 1.5 1.2.16 2.6.13 5.45.1 8.57-.2 3.8-5.36 3.9-7.93 1.55l.58-.57L25 33.7l1.86 3.43.48-.66a9.75 9.75 0 0 0 3.68 1.9c1.13.31 2.25.43 3.42.67 1.16.23 2.23.97 3.05 1.94V41l.01-.02.01.02v-.03a5.56 5.56 0 0 1 3.05-1.94c1.17-.24 2.3-.36 3.42-.67a9.73 9.73 0 0 0 3.68-1.9l.48.67L50 33.69l-3.95.53Zm-8.54-14.36c.34 0 .61.32.61.71 0 .4-.27.71-.6.71-.35 0-.62-.32-.62-.7 0-.4.28-.72.61-.72Z" fill="#ED2844"/></svg>