<!-- by TradingView --><svg width="56" height="56" xmlns="http://www.w3.org/2000/svg"><path fill="#E30613" d="M0 0h56v56H0z"/><path d="M38.962 25h3.035v1.102h-2.696c-.303-.015-.919.33-.962 1.837-.044 1.506.578 1.913.894 1.928h1.558v-1.362h-1.49v-1.087h2.696V31h-3.035c-.664-.04-1.986-.71-1.965-3.061.022-2.351 1.32-2.939 1.965-2.939z" fill="#fff"/><path fill-rule="evenodd" d="M6.3 25A2.3 2.3 0 004 27.3v1.4A2.3 2.3 0 006.3 31h.4A2.3 2.3 0 009 28.7v-1.4A2.3 2.3 0 006.7 25h-.4zm.2 1A1.5 1.5 0 005 27.5v1a1.5 1.5 0 003 0v-1A1.5 1.5 0 006.5 26zM50 27a2 2 0 100 4 2 2 0 000-4zm0 .826a.919.919 0 00-.918.919v.511a.919.919 0 001.837 0v-.511a.919.919 0 00-.918-.919z" fill="#fff"/><path fill="#fff" d="M5 23h.996v1H5zm2 0h1v1H7zm21 2h1v1h-1zm6 0h1v1h-1zm-6 2h1v4h-1zm6 0h1v4h-1zm-20 0h-4v1h2.405L10 30v1h4v-1h-2.393L14 28v-1z"/><path fill-rule="evenodd" d="M19 25v6h-2.629c-.47-.064-1.404-.56-1.37-2.026.034-1.466 1.03-1.937 1.524-1.974H18v-2h1zm-1.003 3v2h-.967c-.339.008-1.02-.171-1.032-.956-.013-.785.575-1.023.87-1.044h1.13z" fill="#fff"/><path d="M20.943 27h2.06v1h-1.698c-.452.06-.613.285-.638.5h2.335v1h-2.335c.058.565.45.495.638.5h1.697v1h-2.06c-.463-.055-1.419-.544-1.442-2.06-.023-1.516.96-1.925 1.443-1.94zm3.058 4v-4h2.01c.585 0 .99.498.99.92V29H26a8.387 8.387 0 000-.68c-.012-.301-.736-.35-1-.32v3h-.999zm7.094-4h2.076v1h-1.48c-.354 0-.98.216-1.02 1-.04.784.666.948.949 1h1.55v1h-2.075c-.494-.1-1.471-.66-1.423-2.103.049-1.443.969-1.866 1.423-1.897zM43 29.85V27h1.24c-.009.686-.022 2.166 0 2.6.023.432.344.54.502.54h1.045V27H47c-.005.95-.011 3.108 0 4.143.011 1.034-.869 1.39-1.31 1.438h-2.62v-.897h2.118c.524-.053.618-.444.6-.634a35.15 35.15 0 00-1.436 0c-1.004.011-1.352-.791-1.352-1.2z" fill="#fff"/></svg>