<!-- by TradingView --><svg xmlns="http://www.w3.org/2000/svg" width="56" height="56"><path fill="#BA9032" d="M0 0h56v56H0z"/><path fill-rule="evenodd" d="M7.5 32.15c1.93 0 3.5-1.64 3.5-3.65s-1.57-3.65-3.5-3.65S4 26.5 4 28.5a3.58 3.58 0 003.5 3.65zm0-.98c1.38 0 2.5-1.2 2.5-2.67 0-1.48-1.12-2.67-2.5-2.67S5 27.03 5 28.5c0 1.48 1.12 2.67 2.5 2.67z" fill="#110F10"/><path fill-rule="evenodd" d="M48.5 32.09c1.93 0 3.5-1.6 3.5-3.59s-1.57-3.59-3.5-3.59S45 26.52 45 28.5s1.57 3.59 3.5 3.59zm0-.96c1.38 0 2.5-1.18 2.5-2.63s-1.12-2.63-2.5-2.63S46 27.05 46 28.5a2.57 2.57 0 002.5 2.63z" fill="#fff"/><path d="M12 25h5v1l-3.75 5H17v1h-5v-1l3.75-5H12v-1z" fill="#110F10"/><path fill-rule="evenodd" d="M21.07 25l-2.71 7h1.07l.78-2h2.93l.77 2H25l-2.72-7h-1.2zm1.68 4l-1.08-2.77L20.6 29h2.16z" fill="#110F10"/><path d="M27.95 28l2.33-3h1.26l-2.69 3.5 2.97 3.5h-1.26L28 29h-1v3h-1v-7h1v3h.95z" fill="#110F10"/><path d="M35.63 24.89A3.62 3.62 0 0032 28.5a3.61 3.61 0 003.63 3.67c1.55 0 2.37-.78 2.37-.78v-3.37h-2v.96h1v1.83s-.43.38-1.39.38A2.65 2.65 0 0133 28.5a2.62 2.62 0 012.63-2.62c1.44 0 2.37.75 2.37.75v-1s-.71-.74-2.38-.74zm3.09.11L41 29.03V32h1v-3l2.27-4h-1.15l-1.63 2.87L39.86 25h-1.15z" fill="#fff"/><path d="M7.18 21.12a.5.5 0 01.64 0l2.5 2.08a.5.5 0 01-.64.77L7.5 22.15l-2.18 1.82a.5.5 0 11-.64-.77l2.5-2.08z" fill="#110F10"/></svg>