<!-- by TradingView --><svg xmlns="http://www.w3.org/2000/svg" width="56" height="56"><path d="M0 28a28 28 0 1156 0 28 28 0 01-56 0z" fill="#F0F3FA"/><path d="M28.69 30.34l1.64-3.83c.02-.06.08-.1.14-.1 11.02.8 13.58 4.52 12.23 7.01-1.09 2.02-5 3.4-7.48 3.92-4.04.85-8.8.84-13.42.21-6.1-.82-21.37-6-11.64-14.09 7.16-5.46 21.71-5.33 30.08-2.68 2.06.7 3.72 1.48 5.03 2.3 2.22 1.4 4.42 3.65 3.52 6.57a8.24 8.24 0 01-2.72 3.74c-.13.1-.31.1-.43-.03a.37.37 0 01-.07-.38c2.22-5.68-6.61-8.81-13.5-9.44-6.48-.6-13.95-.18-19.63 3.48-9.23 5.92 10.53 12.52 22.96 9.4 3.9-.98 7.48-2.59 1-4.78a32.2 32.2 0 00-7.58-1.09c-.1 0-.17-.11-.13-.21z" fill="url(#a3bcsclvh)"/><defs><linearGradient id="a3bcsclvh" x1="49.01" y1="28.47" x2="7" y2="28.47" gradientUnits="userSpaceOnUse"><stop stop-color="#1E64B1"/><stop offset="1" stop-color="#2BB9EB"/></linearGradient></defs></svg>