<!-- by TradingView --><svg width="56" height="56" viewBox="0 0 56 56" xmlns="http://www.w3.org/2000/svg"><path fill="#F0F3FA" d="M0 0h56v56H0z"/><path d="M36 15.92V10c-7.14.23-19 6.55-19 19.6A20.94 20.94 0 0 0 28.03 48a26.19 26.19 0 0 0 5.43-4.2C28.89 42.77 23 38.57 23 29.6c0-9.7 8.75-13.16 13-13.68Z" fill="url(#a)"/><path d="M20 15.92V10c7.14.23 19 6.55 19 19.6A20.94 20.94 0 0 1 27.97 48a26.19 26.19 0 0 1-5.43-4.2C27.11 42.77 33 38.57 33 29.6c0-9.7-8.75-13.16-13-13.68Z" fill="url(#b)"/><defs><linearGradient id="a" x1="26.31" y1="10" x2="26.31" y2="48" gradientUnits="userSpaceOnUse"><stop stop-color="#5E91FA"/><stop offset="1" stop-color="#3B3BE9"/></linearGradient><linearGradient id="b" x1="29.69" y1="10" x2="29.69" y2="48" gradientUnits="userSpaceOnUse"><stop stop-color="#B0BBFD"/><stop offset="1" stop-color="#508ADE"/></linearGradient></defs></svg>