<!-- by TradingView --><svg width="56" height="56" viewBox="0 0 56 56" xmlns="http://www.w3.org/2000/svg"><path fill="#F0F3FA" d="M0 0h56v56H0z"/><path fill="#FC752E" d="M4 33h39v1H4z"/><path d="m51.71 28.14.06 1.04c.01.34.09.61.23.82h-1.42c-.13-.2-.2-.48-.2-.84l-.03-.76c-.03-.75-.41-1.4-1.17-1.4H47.5v2.44c0 .3-.26.56-.59.56H46v-7h3.3c1.29 0 2.7.62 2.7 2 0 .84-.53 1.37-1.34 1.65.71.21 1.03.77 1.05 1.5ZM47.5 24v2h1.73c.7 0 1.22-.3 1.22-1 0-.71-.6-1-1.28-1H47.5ZM45 30h-1.42l-.56-1.54h-3.1l-.4 1.16a.57.57 0 0 1-.54.38H38l2.7-7h1.17c.23 0 .45.14.53.36L45 30Zm-4.67-2.67h2.29l-1.15-3.16-1.14 3.16ZM31 30h-1.42l-.56-1.54h-3.1l-.4 1.16a.57.57 0 0 1-.54.38H24l2.7-7h1.17c.23 0 .45.14.53.36L31 30Zm-4.67-2.67h2.29l-1.15-3.16-1.14 3.16ZM23.46 23.35A.6.6 0 0 1 24 23h1l-2.39 4.24V30h-1.2v-2.76L19 23h1.5l1.53 3.04 1.43-2.69ZM8.26 23l-.78.66-.77-.65C5.01 23.3 4 24.79 4 26.47A3.4 3.4 0 0 0 7.5 30c2.06 0 3.5-1.49 3.5-3.53 0-1.7-1.02-3.17-2.74-3.47ZM5.5 26.47c0-1.28.64-2.4 2-2.4 1.38 0 2 1.12 2 2.4 0 1.28-.62 2.4-2 2.4-1.36 0-2-1.13-2-2.4ZM18 29v1h-6v-1.06L16.14 24H12v-1h6v1l-4.22 5H18ZM35.03 30l-.97-.8-.95.8c-1.18-.25-2.1-.98-2.11-2.3h.9c.25 0 .44.19.5.41.2.69.9.89 1.73.89.68 0 1.37-.17 1.37-.93 0-.73-.84-.88-1.4-.98l-.6-.12c-1.55-.27-2.32-.96-2.32-2.05 0-1.38 1.41-1.92 2.67-1.92 1.49 0 2.88.45 2.94 2h-.9c-.24 0-.43-.18-.51-.39-.22-.55-.82-.61-1.5-.61-.58 0-1.3.22-1.3.88 0 .73.83.89 1.4 1l.63.11c1.12.21 2.39.68 2.39 2.01 0 1.19-.9 1.79-1.97 2Z"/><path fill-opacity=".5" d="M45 32h7v3h-7z"/></svg>