<!-- by TradingView --><svg xmlns="http://www.w3.org/2000/svg" width="56" height="56"><path fill="#F0F3FA" d="M0 0h56v56H0z"/><path d="M20.15 15.45c1.81-2 4.88-2.96 7.43-3.45.75.7 1.11 1.33 1.32 2.36l3.36-1.12c.6.33.98.93 1.02 1.6l2.64-.72c.76.48 1.09 1.32 1.12 2.2a62.1 62.1 0 00-3.58 1.74c2.23-.6 4.39-1.43 6.66-1.86a10 10 0 011.3 3.89 32.3 32.3 0 00-4.33 1.63c1.47-.29 2.93-.63 4.42-.77.22.53.37 1.08.44 1.64l1.9-.29a6.43 6.43 0 010 2.89 2.7 2.7 0 00-2.27.62c.32.58.4 1.26.22 1.9a76.15 76.15 0 00-12.06 4.86l-1.74.86a3.18 3.18 0 01-.05-.54c-.01-.54.04-.85.22-1.36a.74.74 0 00-.33-.26.8.8 0 00-.82.05 20.76 20.76 0 01-.03 2.63 74.56 74.56 0 00-9.54 5.92l-1.39-.84-.77.33c-.79-.66-1.5-1.4-2.12-2.23l.66-.4-1.64-1.93a24.9 24.9 0 014.93-3.37l-.73-.58c-1.6.82-3.23 1.61-4.86 2.37L9 31.18c.89-.53 1.85-.9 2.86-1.1l-1.43-1.28a78.02 78.02 0 018.04-4.48l-3.87 1.25a4.26 4.26 0 01-1.57-2.14c1.28-.89 2.67-1.5 4.07-2.16l-.9-2.33c1.59-.5 3.15-1.06 4.69-1.68l-.74-1.81zm7.28 3.81l-2.38 1.3c.05.22.13.42.24.61l-1.5.62c.15.35.34.68.56 1l-1.5.83c.12.38.38.7.71.92l2.4-1.43-3.83 2.46c.1.25.25.47.45.66a8.1 8.1 0 01-.84.34c.17.36.46.64.82.8 1.64-1.1 2.6-1.68 4.34-2.61a39.78 39.78 0 015.42-2.46c0-.62-.23-1.2-.66-1.66l-2.14.81 1.18-.63c.05-.38-.08-.76-.37-1.03l-.9.49-.17-.66-1.31.45c-.06-.34-.19-.65-.52-.8zm4.87 3.26a28.37 28.37 0 00-4.41 2.04 28.47 28.47 0 00-5.01 3.4 3 3 0 00.57.79l-.23.29c.28.26.55.53.81.8l.16-.23c.12.18.28.33.48.44a26.54 26.54 0 014.1-2.92 26.9 26.9 0 013.9-1.97l-.07-.8.72-.15c.02-.4-.1-.8-.35-1.12l-.5.17c-.02-.25-.08-.5-.17-.74zm-6.65 7.3c.23.32.5.6.81.83.2-.17.4-.32.62-.45.15.27.38.47.66.6a13.7 13.7 0 012.14-1.46c1.03-.6 1.64-.88 2.77-1.28-.05-.45-.27-.8-.41-1.21l.3-.2a1.8 1.8 0 00-.31-1.11c-1.35.55-2.07.97-3.3 1.75-1.36.87-3.28 2.54-3.28 2.54z" fill="#FFCA29"/><path d="M24.5 44c-.9-.28-1.71-.64-2.26-1.46-.87.3-1.64.8-2.27 1.46-.78-.8-1.58-1.58-2.41-2.34a54.75 54.75 0 0112.58-8.47 54.67 54.67 0 0111.19-4.46c.64.98.87 2.14.66 3.29l-1.44.63.09.54.76-.22c.31.99.58 1.98.8 3-1.63.37-3 .72-4.29 1.13.28.82.6 1.62.9 2.43-1.41.32-2.2.6-3.51 1.25-1.73.86-2.79 2.47-4.77 2.86a4.5 4.5 0 01-2.34-2.1c-1.2.71-2.27 1.43-3.68 2.46z" fill="#F58733"/></svg>