<!-- by TradingView --><svg width="56" height="56" viewBox="0 0 56 56" xmlns="http://www.w3.org/2000/svg"><path fill="#6B278A" d="M0 0h56v56H0z"/><path d="M46.33 23.93 49.6 21h-2.53l-2.35 2.2H44V21h-2v6h2v-2.31h.68l2.69 2.3H50l-3.67-3.06ZM39 22.44h1.94L39 23.57V27h2v-6h-2v1.44ZM13 23.6v-.72c0-1.04-.82-1.88-1.83-1.88H6v6h2v-1.53h3.17c1.01 0 1.83-.84 1.83-1.87Zm-2 0c0 .22-.17.4-.38.4H8v-1.53h2.62c.21 0 .38.18.38.4v.73ZM15.84 21l-3.26 6h2.06l.54-1h3.75l.58 1h2.06l-3.32-6h-2.4Zm.04 3.64 1.16-2.25 1.2 2.25h-2.36ZM32 27h2v-2h3.8v-1.45H34v-1.11h4V21h-6v6ZM27.14 23.29H23.5a.43.43 0 0 1-.43-.43c0-.24.2-.42.43-.42h4.82V21H22.8c-.8 0-1.58.78-1.58 1.57v.62c0 .8.8 1.52 1.6 1.52h3.64a.43.43 0 1 1 0 .86h-4.83l.8 1.43h4.71c.8 0 1.59-.75 1.59-1.54v-.64c0-.8-.77-1.53-1.58-1.53ZM29.36 27h2v-3.43l-1.95-1.13h1.95V21h-2v6ZM6 29h1.46v1.79h3.08v-1.8H12v5h-1.46V32H7.46v2H6v-5ZM13 30.77c0-1.43.84-1.77 2.25-1.77h2.5c1.41 0 2.25.34 2.25 1.77v1.46c0 1.43-.84 1.77-2.25 1.77h-2.5c-1.41 0-2.25-.34-2.25-1.77v-1.46Zm1.6 1c0 .7.16.97.9.97h2c.74 0 .9-.27.9-.98v-.52c0-.61-.16-.98-.98-.98h-1.84c-.82 0-.97.37-.97.98v.52ZM21 29h1.48v3.73h2.93l.78 1.27H21v-5ZM26 29h4.54c1.5 0 2.03.53 2.03 1.75v1.5c0 1.22-.53 1.75-2.03 1.75H26.8l-.8-1.27V29Zm1.5 3.7h2.67c.64 0 .83-.18.83-.89v-.67c0-.7-.19-.88-.83-.88H27.5v2.44ZM36 29h2.44l2.97 3.59h.01v-3.6H43v5h-2.44l-2.97-3.64h-.01v3.64H36v-5ZM43.5 30.77c0-1.43.83-1.77 2.2-1.77H48c1.73 0 1.97.61 1.97 1.57v.15h-1.5c0-.48-.28-.54-.77-.54h-1.65c-.77 0-.97.18-.97 1.02v.6c0 .84.2 1.02.97 1.02h1.63c.4 0 .8-.06.8-.53V32h-1.25l-.65-1H50v1.53c0 1.4-.74 1.47-2.46 1.47H45.7c-1.37 0-2.2-.34-2.2-1.77v-1.46ZM33.48 34v-2.88l1.48-.93h-1.48V29H35v5h-1.52Z" fill="#fff"/></svg>