<!-- by TradingView --><svg width="56" height="56" viewBox="0 0 56 56" xmlns="http://www.w3.org/2000/svg"><path fill="#F0F3FA" d="M0 0h56v56H0z"/><path d="m23.87 11.5.92 3.9.86-.19-.77-3.92c-.34.06-.68.13-1.01.22Zm1.15 4.88c.27-.07.55-.13.82-.18l.38 1.96c-.25.04-.5.1-.74.16l-.46-1.94Zm1.4 2.76.38 1.96-.63.14-.46-1.95c.23-.06.47-.11.7-.15Zm-.02 3.06c.2-.05.39-.1.59-.12l.2.99c-.2.03-.38.07-.56.12l-.23-1Z" fill="#9ED5E0"/><path d="m21.9 16.52-1.84-3.56c.31-.16.63-.32.95-.46l1.7 3.62c-.28.13-.55.26-.8.4ZM23.14 17.05l-.76.38.9 1.75.7-.34-.84-1.79ZM23.73 20.05l.67-.32.85 1.83-.59.28-.93-1.79ZM25.66 22.44c-.19.08-.37.16-.55.26l.48.92c.16-.1.33-.17.51-.25l-.44-.93Z" fill="#89C4D3"/><path d="m19.59 18.09-2.53-3.1.84-.67 2.4 3.2a13 13 0 0 0-.71.57ZM20.92 18.36c-.23.17-.45.35-.67.54l1.23 1.52c.2-.17.4-.34.62-.5l-1.18-1.56ZM22.1 21.17c.18-.16.38-.32.58-.46l1.21 1.62c-.18.13-.35.27-.51.41l-1.28-1.57ZM24.46 23.1c-.17.11-.33.24-.49.38l.67.82c.14-.13.3-.26.45-.37l-.63-.84Z" fill="#71B6CA"/><path d="m17.62 20.18-3.2-2.4c.21-.29.43-.56.66-.83l3.1 2.54c-.2.22-.39.45-.56.69ZM18.98 20.15l-.53.65L20 21.98l.48-.59-1.5-1.24ZM20.8 22.57c.14-.2.29-.38.45-.56l1.57 1.28c-.15.16-.28.33-.41.5l-1.62-1.22ZM23.55 23.9c-.14.14-.26.3-.38.46l.84.63c.1-.15.23-.3.36-.43l-.82-.67Z" fill="#59A7C2"/><path d="M16.16 22.62 12.51 21c.15-.33.3-.65.47-.96l3.58 1.78a13 13 0 0 0-.4.81ZM17.5 22.27c-.15.26-.28.51-.4.78l1.8.8c.1-.24.23-.47.35-.7l-1.76-.88ZM19.8 24.25c.1-.22.21-.45.33-.66l1.81.9c-.1.2-.21.39-.3.59l-1.84-.83ZM22.8 24.92c-.1.18-.2.36-.28.55l.94.43c.08-.18.18-.35.28-.52l-.94-.46Z" fill="#2C98B7"/><path d="m15.3 25.2-3.91-.83c.08-.37.17-.73.27-1.09l3.88 1c-.09.3-.17.6-.24.92ZM16.52 24.54l-.23.86 1.95.42.2-.78-1.92-.5ZM19.21 26.02c.06-.25.12-.5.2-.74l1.95.5-.18.66-1.97-.42ZM22.3 26.03l-.16.61 1 .21c.04-.19.1-.38.16-.56l-1-.26Z" fill="#0F8DAF"/><path d="M15 28h-4v-1.11l4 .18c-.02.3 0 .62 0 .93ZM16 28h2c0-.27.01-.53.03-.8l-2-.09L16 28ZM19 28l.03-.75 2 .09L21 28h-2ZM22 28h1c0-.2.01-.38.03-.57l-1-.05c-.02.2-.03.41-.03.62ZM15.32 30.89l-3.9.88c-.08-.35-.15-.72-.2-1.08l3.93-.71c.05.3.1.6.17.9ZM16.14 29.8c.04.3.1.58.17.86l1.94-.44c-.06-.25-.1-.51-.15-.77l-1.96.35ZM19.22 30c-.06-.24-.1-.48-.13-.73l1.97-.36.11.65-1.95.44ZM22.04 28.74c.02.2.06.4.1.6l.99-.22a5 5 0 0 1-.1-.56l-.99.18Z" fill="#0F88A9"/><path d="m16.34 33.75-3.58 1.8c-.16-.34-.32-.67-.46-1.01l3.66-1.64c.11.3.24.57.38.85ZM16.9 32.49c.1.27.23.54.36.8l1.76-.88a9.92 9.92 0 0 1-.32-.73l-1.8.8ZM19.9 31.97a8.9 8.9 0 0 1-.3-.7l1.84-.81.26.6-1.8.9ZM22.34 30.06c.06.2.14.38.23.57l.92-.46a4.98 4.98 0 0 1-.22-.53l-.93.42Z" fill="#1D7B8E"/><path d="m18.07 36.4-3.02 2.62c-.32-.38-.63-.78-.92-1.18l3.21-2.4c.23.33.47.65.73.95ZM18.18 34.83c.21.3.44.6.68.88l1.48-1.29c-.21-.24-.4-.5-.59-.77l-1.57 1.18ZM21.07 33.78a8.86 8.86 0 0 1-.54-.71l1.63-1.21c.14.2.28.4.44.6l-1.53 1.32ZM22.93 31.29c.11.19.24.37.38.54l.8-.69a5.02 5.02 0 0 1-.34-.48l-.84.63Z" fill="#178DA2"/><path d="m20 38.25-2.44 3.17c-.39-.3-.76-.62-1.12-.95l2.69-2.97c.28.26.57.52.88.75ZM19.83 36.72c.26.25.53.49.82.7l1.2-1.54c-.25-.19-.49-.4-.71-.6l-1.31 1.44ZM22.44 35.11a8.88 8.88 0 0 1-.65-.56l1.36-1.5.53.46-1.24 1.6ZM23.78 32.34c.15.15.31.3.48.42l.65-.83a5.04 5.04 0 0 1-.42-.37l-.7.78Z" fill="#198FA3"/><path d="m22.46 39.76-1.69 3.63c-.44-.2-.88-.44-1.3-.69l1.94-3.5c.34.2.69.4 1.05.56ZM21.92 38.3c.31.2.64.37.97.53l.83-1.8a10 10 0 0 1-.85-.44l-.95 1.71ZM24.13 36.15a8.88 8.88 0 0 1-.78-.42l.99-1.76a7 7 0 0 0 .64.35l-.85 1.83ZM24.8 33.13c.19.11.38.22.58.31l.44-.94a4.98 4.98 0 0 1-.5-.28l-.52.91Z" fill="#218994"/><path d="m25.5 40.76-.8 3.92c-.51-.1-1.02-.22-1.51-.37l1.1-3.85c.39.12.8.22 1.21.3ZM24.56 39.48c.37.12.75.21 1.14.3l.4-1.96a9.95 9.95 0 0 1-1-.25l-.54 1.91ZM26.3 36.84a9.06 9.06 0 0 1-.93-.22l.55-1.93c.25.07.51.14.78.19l-.4 1.96ZM26.19 33.74c.23.07.47.13.7.17l.21-1c-.22-.03-.43-.08-.64-.15l-.27.98Z" fill="#268384"/><path d="M28.33 45a16.96 16.96 0 0 1-1.53-.04l.29-4a13.21 13.21 0 0 0 1.23.04v4ZM28 40h.32v-2a10.46 10.46 0 0 1-1.01-.02l-.15 1.99.84.03ZM28.32 37a9.47 9.47 0 0 1-.94-.02l.15-2a7.1 7.1 0 0 0 .78.01v2ZM28 34h.31v-1.01a5.08 5.08 0 0 1-.63 0l-.08 1 .4.01Z" fill="#229B8F"/><path d="M31.83 44.57c-.5.11-1 .2-1.5.27l-.5-3.97c.41-.06.81-.13 1.2-.23l.8 3.93ZM29.71 39.87c.38-.05.76-.13 1.13-.22l-.4-1.95c-.32.08-.64.14-.97.2l.24 1.97ZM30.25 36.73c-.3.07-.6.13-.9.17l-.25-1.99c.25-.04.5-.09.75-.16l.4 1.98ZM28.97 33.93c.23-.04.46-.08.68-.14l-.2-1c-.2.06-.4.1-.6.14l.12 1Z" fill="#2B927C"/><path d="M35.27 43.37c-.46.22-.92.41-1.4.59l-1.35-3.77c.38-.14.75-.3 1.11-.47l1.64 3.65ZM32.18 39.23a12 12 0 0 0 1.03-.45l-.8-1.8-.9.39.67 1.86ZM32 36.08a8.9 8.9 0 0 1-.83.36l-.68-1.9c.24-.09.47-.19.7-.3l.82 1.84ZM30.16 33.63c.22-.08.43-.17.63-.27l-.43-.95c-.18.1-.36.18-.55.25l.35.97Z" fill="#30A379"/><path d="M38.7 41.22c-.42.33-.84.64-1.27.93l-2.23-3.32c.35-.23.68-.48 1-.75l2.5 3.14ZM34.62 37.96c.32-.21.63-.45.93-.7l-1.21-1.52-.81.6 1.09 1.62ZM33.73 34.97c-.24.2-.49.38-.75.55l-1.12-1.68c.21-.14.42-.3.61-.45l1.26 1.58ZM31.33 33.05c.19-.12.38-.26.55-.4l-.65-.83a5 5 0 0 1-.49.36l.59.87Z" fill="#33A56E"/><path d="M41.47 38.37c-.38.5-.8.98-1.23 1.43l-2.91-2.74c.35-.37.69-.76 1-1.17l3.14 2.48ZM36.56 36.34c.34-.35.66-.71.95-1.1l-1.53-1.2c-.26.33-.54.66-.84.96l1.42 1.34ZM35.21 33.43c-.24.32-.5.62-.78.9l-1.47-1.39c.24-.24.46-.5.66-.77l1.6 1.26ZM32.27 32.3c.22-.22.42-.46.6-.71l-.82-.66c-.17.23-.35.44-.55.64l.77.72Z" fill="#36A668"/><path d="M43.32 35.38c-.25.5-.51 1-.8 1.47l-3.4-2.1c.23-.39.45-.8.65-1.22l3.55 1.85ZM38.23 34.2c.23-.36.44-.75.62-1.14l-1.75-.91c-.16.35-.34.7-.54 1.03l1.67 1.03ZM36.23 31.7a8.9 8.9 0 0 1-.5.97L34 31.6c.16-.27.3-.55.43-.84l1.8.93ZM33.19 31.1c.14-.25.27-.51.38-.79l-.92-.48c-.1.25-.21.5-.35.72l.89.55Z" fill="#38A95D"/><path d="m44.07 33.55-3.76-1.35c.15-.46.29-.94.4-1.42l3.86 1.05c-.14.58-.3 1.16-.5 1.72ZM39.35 31.85c.15-.43.28-.88.38-1.33L37.8 30c-.08.4-.19.8-.32 1.18l1.87.67ZM36.84 29.74c-.08.38-.17.75-.29 1.1l-1.89-.68c.1-.3.18-.62.23-.94l1.95.52ZM33.74 29.83c.08-.28.15-.57.2-.87l-.99-.27c-.04.27-.1.54-.17.8l.96.34Z" fill="#3CAB55"/><path d="m44.9 29.8-3.97-.46a13.15 13.15 0 0 0 .07-1.58l4 .1a20.1 20.1 0 0 1-.1 1.93ZM40 28v-.26l-2-.06a10.12 10.12 0 0 1-.05 1.32l1.99.22c.04-.4.06-.8.06-1.22ZM37 27.66a9.54 9.54 0 0 1-.04 1.22l-1.99-.23a7.08 7.08 0 0 0 .02-1.05l2 .06ZM34 28l-.01-.42-1.01-.03a5.1 5.1 0 0 1 0 .88l1 .11L34 28Z" fill="#3CAB56"/><path d="m44.9 26.19-3.98.36c-.07-.59-.17-1.16-.3-1.72l3.92-.77c.17.7.29 1.4.36 2.13ZM39.92 26.64c-.06-.55-.17-1.09-.3-1.61l-1.96.38c.12.46.21.93.27 1.4l2-.17ZM36.69 25.6c.11.43.2.86.25 1.3l-2 .18a6.96 6.96 0 0 0-.23-1.08l1.98-.4ZM33.95 27.17a6.23 6.23 0 0 0-.2-.98l-1.02.2c.1.28.17.57.22.87l1-.09Z" fill="#3CAB55"/><path d="m43.94 22.09-3.78 1.31c-.2-.53-.43-1.04-.7-1.54l3.6-1.74c.34.63.63 1.29.88 1.97ZM39.2 23.74c-.2-.5-.42-.97-.67-1.43l-1.77.86c.21.39.4.8.57 1.22l1.87-.65ZM35.87 23.6c.2.35.38.73.53 1.11l-1.9.67a6.98 6.98 0 0 0-.45-.9l1.82-.89ZM33.57 25.7a5.87 5.87 0 0 0-.39-.81l-.94.45c.14.22.26.46.36.7l.97-.34Z" fill="#379B55"/><path d="M40.74 16.74c.5.56.96 1.16 1.38 1.8l-3.37 2.15c-.33-.48-.69-.94-1.07-1.37l3.06-2.58ZM37.87 21.25c-.3-.44-.63-.86-1-1.26l-1.5 1.26c.31.33.6.69.85 1.06l1.65-1.06ZM34.63 21.88c.28.3.54.62.77.95l-1.7 1.1c-.2-.26-.4-.51-.62-.75l1.55-1.3ZM32.9 24.44a5.72 5.72 0 0 0-.54-.65l-.81.69c.16.16.32.34.46.53l.88-.57Z" fill="#36A460"/><path d="m35.26 17.21 2.34-3.24c.57.4 1.13.82 1.65 1.28l-2.69 2.97c-.41-.36-.85-.7-1.3-1ZM35.86 19a12.3 12.3 0 0 0-1.21-.94l-1.15 1.59c.37.24.72.5 1.05.79l1.3-1.45ZM32.93 20.44c.34.22.66.46.96.72l-1.36 1.5c-.25-.2-.5-.4-.78-.57l1.18-1.65ZM31.9 23.36a5.74 5.74 0 0 0-.71-.5l-.61.85c.2.13.41.28.6.43l.71-.78Z" fill="#31A16A"/><path d="m31.95 15.61 1.35-3.77c.72.24 1.42.52 2.1.85l-1.73 3.6a12.9 12.9 0 0 0-1.72-.68ZM33.22 17.22c-.52-.25-1.06-.47-1.62-.65l-.66 1.87c.49.15.97.34 1.43.56l.85-1.78ZM30.6 19.37c.46.14.91.31 1.34.52l-.87 1.82a6.94 6.94 0 0 0-1.15-.44l.68-1.9ZM30.65 22.57a6 6 0 0 0-1.06-.37l-.34.96c.33.08.65.2.95.35l.45-.94Z" fill="#299C78"/><path d="M28 11c.56 0 1.12.03 1.67.08l-.3 4a13.13 13.13 0 0 0-1.55-.08v-4H28ZM29.14 18.06l.15-1.99a11.7 11.7 0 0 0-1.47-.07v2a10.57 10.57 0 0 1 1.32.06ZM27.82 19a9.61 9.61 0 0 1 1.24.06l-.15 2a7.06 7.06 0 0 0-1.09-.06v-2ZM28.76 23.06l.08-1a6.59 6.59 0 0 0-1.02-.06v1a5.27 5.27 0 0 1 .94.06Z" fill="#259886"/></svg>