<!-- by TradingView --><svg width="56" height="56" viewBox="0 0 56 56" xmlns="http://www.w3.org/2000/svg"><path fill="#F0F3FA" d="M0 0h56v56H0z"/><path d="M38 21h2v2.19h.73l2.3-2.19h2.7l-3.36 2.95L46 27h-2.68l-2.6-2.29H40V27h-2v-6ZM29 21h5v1.5h-3v1.12h2.5V25H31v2h-2v-6ZM26 22l2 1.36V27h-2v-5ZM37 22l-2 1.36V27h2v-5ZM17.18 27l-.44-1.02h-3.47L12.82 27H11l2.77-6h2.49L19 27h-1.82Zm-1-2.33-1.02-2.28h-.3l-1.02 2.28h2.34ZM32.18 34l-.44-1.02h-3.47L27.82 34H26l2.77-6h2.49L34 34h-1.82Zm-1-2.33-1.02-2.28h-.3l-1.02 2.28h2.34ZM5 27v-6h4c1.75 0 3 .12 3 2.25s-1.16 2.25-2.98 2.25H7V27H5Zm2-3h2c.72 0 1.22 0 1.22-.75S9.67 22.5 9 22.5H7V24ZM42 28h2v6h-2v-6ZM34 32h1.69c0 .35.03.45.17.53.16.1.04.13 1.27.13 1.87 0 1.87 0 1.87-.52 0-.35-.13-.44-.69-.45l-1.06-.05-1.39-.06c-1.41-.04-1.86-.41-1.86-1.7 0-1.1.36-1.6 1.15-1.78.33-.07 1.12-.1 2.5-.1 1.66 0 2.26.08 2.66.36.35.23.48.6.48 1.3V30H39c-.02-.32-.04-.48-.17-.56-.15-.09-.1-.1-1.23-.1-1.48 0-1.6.03-1.6.46 0 .22.08.33.26.37.15.05.37.07 1.57.1 1.9.07 2.26.11 2.63.35.4.26.54.66.54 1.47 0 1.01-.24 1.5-.83 1.74-.35.13-1.07.17-2.77.17-1.78 0-2.47-.08-2.88-.34-.4-.25-.52-.6-.52-1.4V32ZM19 34v-6h4.14c1.94 0 1.94 0 2.3.23.43.28.56.68.56 1.72 0 .9-.08 1.23-.39 1.48-.16.13-.32.2-.66.25.87.1 1.05.32 1.05 1.76V34h-2v-.31c0-.68-.03-.9-.17-1.05-.12-.14-.24-.16-.95-.16H21V34h-2Zm2-3h1.84c.7-.01 1.16.03 1.16-.78 0-.72-.5-.71-1.16-.72H21V31ZM5 28h5v1.41H7v.87h2.75v1.33H7v.95h3V34H5v-6ZM11 28h2v2.72c.03 1.47.23 1.75 1.5 1.75 1.23 0 1.5-.25 1.5-1.75V28h2v2.72c-.05 2.7-.73 3.28-3.48 3.28-2.93 0-3.5-.61-3.52-3.28V28ZM50.18 34H52l-2.82-6h-2.34L44 34h1.82l2.19-4.6 2.17 4.6ZM26 21h2v1h-2z" fill="#16125E"/><path d="M47.95 30 46 36h-1l2.95-6Zm.1 0L50 36h1l-2.95-6Zm-1.48 5.29.15-.61h2.56l.15.6h-2.86Zm.42-1.53-.12.51h2.26l-.12-.5H47Zm.16-.4.11-.41h1.58l.11.4h-1.8Zm.26-1.02-.11.3h1.45l-.11-.3H47.4Zm.05-.3.08-.2h.92l.08.2h-1.08Zm.17-.62-.07.1h.88l-.07-.1h-.74Zm.03-.2.05-.1h.58l.05.1h-.68Zm.13-.4-.04.1h.5l-.04-.1h-.42Zm.06-.1.03-.11h.24l.03.1h-.3Z" fill="url(#a)"/><path fill="#16125E" d="M37 21h-2v1h2zM19 22.38c0-.76.52-1.38 1.17-1.38H25v1.48h-3.67c-.18 0-.33.17-.33.39s.15.4.33.4h2.5c.65 0 1.17.6 1.17 1.37v.98c0 .76-.52 1.38-1.17 1.38H20l-.7-1.48h3.37c.18 0 .33-.17.33-.39s-.15-.4-.33-.4h-2.5c-.65 0-1.17-.6-1.17-1.37v-.98Z"/><defs><linearGradient id="a" x1="49.67" y1="33.05" x2="44.92" y2="35.86" gradientUnits="userSpaceOnUse"><stop stop-color="#949599"/><stop offset=".39" stop-color="#E6E6E6"/><stop offset="1" stop-color="#7B779C"/></linearGradient></defs></svg>