<!-- by TradingView --><svg width="56" height="56" viewBox="0 0 56 56" xmlns="http://www.w3.org/2000/svg"><path fill="#181B1E" d="M0 0h56v56H0z"/><ellipse cx="28" cy="28" rx="13" ry="18" fill="#fff"/><path d="M27.9 22.73a.06.06 0 0 0 .09.04l.02-.02c.26-.41.47-.85.65-1.32.86-2.28-.5-3.43-2.07-4.71a.35.35 0 0 1-.1-.14.32.32 0 0 1-.02-.17c0-.06.03-.1.07-.14a.24.24 0 0 1 .14-.07c.1-.02.26 0 .5.07.56.15.97.22 1.22.23.57 0 1.27-.33 1.8-.45 1.54-.34 2.63 1.05 2.73 2.45.11 1.6.13 2.48.83 3.98.18.38.73 1.4 1.65 3.03A12.06 12.06 0 0 1 37 31.35c0 .44-.06.86-.2 1.24a.23.23 0 0 1-.16.14.24.24 0 0 1-.2-.04.64.64 0 0 1-.25-.38c-.36-1.56-.9-3.07-1.6-4.52-.01-.05-.05-.06-.1-.05l-.06.03a.11.11 0 0 0-.07.14c.74 2.6 1.04 4.75.9 6.44-.07.82-.2 1.4-.37 1.75-.23.46-.4.88-.54 1.27-.28.84.3 1 .8 1.46.32.3.26.45-.19.45h-.61a.18.18 0 0 0-.16.08l-.3.5a.28.28 0 0 1-.23.14.28.28 0 0 1-.24-.14l-.25-.42a.25.25 0 0 0-.18-.13c-.29-.06-.45-.1-.49-.09-.64.1-.71-.07-.22-.5l.63-.53a.13.13 0 0 0 .04-.08l-.01-.08c-.6-1.15-2.53-.6-3.44-.16a.28.28 0 0 0-.16.23.27.27 0 0 0 .13.25c.38.24.62.42.73.53.1.1.1.18.04.27a.14.14 0 0 1-.14.06c-.63-.09-1.1.09-1.4.53a.17.17 0 0 1-.17.07.6.6 0 0 1-.34-.2c-.06-.07-.13-.07-.2 0l-.33.33a.17.17 0 0 1-.15.04.17.17 0 0 1-.12-.09l-.28-.57a.1.1 0 0 0-.03-.03.05.05 0 0 0-.03-.01h-.3c-.5 0-.55-.14-.12-.4l1.06-.68a.15.15 0 0 0 .07-.1.15.15 0 0 0-.04-.12c-.8-.88-2.67-.38-3.67-.02a.17.17 0 0 0-.1.1.17.17 0 0 0 .02.15c.15.22.25.47.3.74a.18.18 0 0 1-.1.2.2.2 0 0 1-.09.02c-.54 0-.9-.07-1.29.15l-.6.44a.22.22 0 0 1-.18.05c-.17-.02-.26-.15-.27-.39a.3.3 0 0 0-.1-.21.3.3 0 0 0-.25-.07l-.32.04c-.34-.07-.36-.17-.05-.32l1.5-.72a.14.14 0 0 0 .09-.11.14.14 0 0 0-.06-.13 4.15 4.15 0 0 1-1.71-2.9c-.23-1.63-.14-3.34.26-5.1.01-.07-.02-.12-.08-.14a.16.16 0 0 0-.12 0 .2.2 0 0 0-.08.09c-.5.97-.8 2.16-.9 3.59-.03.25-.15.32-.37.19l-.08-.04a.8.8 0 0 1-.42-.63 7.5 7.5 0 0 1 1.1-4.91 33.1 33.1 0 0 1 2.26-3.2 6.3 6.3 0 0 0 1.06-2.07c.32-1.75-1.03-2.52-2.35-3.48-.26-.18-.26-.35 0-.49a.24.24 0 0 1 .16-.02l1 .2c.72.15 1.25.06 1.9-.16 1.48-.47 2.86-.08 3.41 1.39.27.72.19 1.78.32 2.5Zm2.6-4.03c.2.05.42 0 .6-.13.19-.13.33-.35.4-.6.04-.11.06-.24.05-.36a1 1 0 0 0-.07-.35.77.77 0 0 0-.18-.27.62.62 0 0 0-.26-.14.7.7 0 0 0-.6.12 1.2 1.2 0 0 0-.45.97 1 1 0 0 0 .08.35c.04.1.1.2.18.26.07.07.16.12.26.15Zm1.4-.28c-.32 1.12-1.1 1.51-2.1 2.15-.13.08-.21.22-.23.41a.15.15 0 0 0 .12.16h.07l1.62-.36c.33-.08.61-.26.72-.6.18-.59.2-1.17.08-1.75-.08-.37-.17-.38-.28 0Zm-7.05 2.42c.08.07.16.12.26.16.1.03.21.04.32.03a1.02 1.02 0 0 0 .6-.3.95.95 0 0 0 .27-.62.7.7 0 0 0-.22-.55.69.69 0 0 0-.26-.16.8.8 0 0 0-.32-.03 1.02 1.02 0 0 0-.6.3.95.95 0 0 0-.27.62c0 .21.07.42.22.55Zm1.76-.06c-.28.84-.84 1.23-1.7 1.61-.31.14-.57.31-.7.59a.14.14 0 0 0 .07.19c.02 0 .05.01.07 0 .95-.17 2.18-.28 2.39-.63.34-.58.4-1.17.19-1.76-.11-.3-.22-.3-.32 0Zm4.96 12.62c-.2-.02-.34-.14-.4-.37-.34-1.3-.87-2.58-1.6-3.85-.06-.1-.13-.16-.2-.16a.13.13 0 0 0-.13.18c.8 2.32 1.49 4.98.56 7.26a.05.05 0 0 0 0 .05.05.05 0 0 0 .06.01c.73-.22 1.46-.48 2.17-.34.05 0 .26.05.63.13 2.06.43 1.58-3.27 1.42-4.24-.07-.43-.26-1.3-.57-2.58-.21-.86-.35-2.43-.43-4.73-.02-.48-.11-.97-.27-1.47a2 2 0 0 0-3.65-.46c-.27.44-.46.85-.58 1.24a.4.4 0 0 0 .04.34c1.17 1.84 2.74 3.8 3.25 6.17.17.77.3 2.05-.04 2.66-.06.11-.15.16-.26.16Zm-4.93 3.04c.76.04 1.74.5 2.23-.51.56-1.18.19-2.87-.17-4.08a20.08 20.08 0 0 1-.76-4.7 6.43 6.43 0 0 0-.42-2.28c-.4-.73-1.07-1.08-2.03-1.04-1.4.06-2.03 1-2.42 2.2a21.03 21.03 0 0 0-1.06 8.64c.22 2.1 1.44 2.43 3.32 1.87.32-.09.75-.12 1.31-.1Z" fill="#1E1B1B"/><path d="M30.57 17.79c-.12.25-.07.52.12.6.18.08.42-.06.54-.3.11-.26.06-.53-.12-.61-.19-.08-.43.05-.54.3ZM25.84 20.6c.19-.15.24-.4.1-.56-.13-.15-.4-.15-.58 0-.2.16-.24.42-.1.57.13.16.39.16.58 0Z" fill="#1E1B1B"/></svg>