<!-- by TradingView --><svg width="56" height="56" viewBox="0 0 56 56" xmlns="http://www.w3.org/2000/svg"><path fill="#E0E3EB" d="M0 0h56v56H0z"/><path fill="#CEBEA5" d="M10 17h1v17h-1zM46 35v5H11v-5z"/><path d="m26.64 38.6-1.04-1.63V39h-.3v-3h.03l1.33 2.1 1.32-2.1H28v3h-.3v-2.02l-1.03 1.62h-.03ZM32.34 38.6l-1.04-1.63V39H31v-3h.03l1.33 2.1 1.32-2.1h.02v3h-.29v-2.02l-1.04 1.62h-.03ZM37 39v-3h1.04a1.45 1.45 0 0 1 1.04.43c.28.29.43.67.42 1.07a1.46 1.46 0 0 1-1.46 1.5H37Zm1.07-2.7h-.77v2.4h.77c.15 0 .3-.06.43-.12a1 1 0 0 0 .35-.25c.21-.23.32-.52.31-.83.01-.3-.1-.6-.3-.84-.1-.1-.22-.19-.36-.24-.13-.06-.28-.12-.43-.12ZM42.5 36l-1.2 1.82V39H41v-1.15L39.81 36h.42l.9 1.5.95-1.5.42-.01ZM44.62 39l-.35-.83h-1.25l-.37.83h-.35l1.35-3h.02L45 39h-.38Zm-1.45-1.17h.95l-.47-1.1-.48 1.1Z" fill="#223641"/><path d="m16 18.9-2-1.47V17h8.75s5.25.22 5.25 4.9c0 4.69-4.75 5.1-7.4 5.1H19v5.6l2 .97V34h-7v-.43l2-.92V18.9Zm3 6.1h1.6c1.81 0 4.4-.3 4.4-3.1 0-2.41-2.4-2.9-4.2-2.9H19v6ZM43.6 32.4a8.5 8.5 0 0 1-5.23 1.6C33 34 30 30.2 30 25.5s3.93-8.5 8.77-8.5c1.94 0 3.84.54 5.23 1.46V23h-.4c-.73-2.03-2.35-4.03-4.79-4.03-3.12 0-5.81 2.43-5.81 6.4 0 3.98 2.13 6.63 5.37 6.63 2.84-.07 3.72-.63 5.23-4h.4l-.4 4.4Z" fill="#25364E"/><path d="M24 39v-2.5h.3V39H24ZM24 36.3V36h.3v.3H24ZM20.7 39v-2.5h.3V39h-.3ZM20.7 36.3V36h.3v.3h-.3ZM22.09 39.36l.26-.43h.35l-.17.22s.47-.04.47.4c0 .27-.24.45-.48.45a.56.56 0 0 1-.43-.24s.08.06.31.06c.1 0 .3-.06.3-.26s-.19-.3-.35-.3c-.16.01-.26.1-.26.1ZM15 38.7v.3h-1.7v-3h.3v2.7H15ZM15.3 39v-3h2v.3h-1.7v1.1H17v.3h-1.4v1h1.7v.3h-2ZM17.7 36.3V36H20v.3h-1V39h-.3v-2.7h-1Z" fill="#223641"/><path d="m22.27 37.25.36.1c.45.14.67.41.67.82a.8.8 0 0 1-.24.6.9.9 0 0 1-.64.23 1.4 1.4 0 0 1-.92-.3l.12-.3c.23.2.51.3.8.3.29.02.6-.19.58-.5 0-.25-.14-.42-.42-.5l-.4-.1c-.43-.13-.65-.39-.65-.79 0-.53.43-.83.9-.8.29 0 .57.09.8.27l-.13.3c-.2-.16-.45-.28-.7-.28-.27-.02-.56.2-.56.51 0 .23.13.35.43.44ZM29.4 36h.3v4h-.3v-4ZM12 39v-2.5h.3V39H12ZM12 36.3V36h.3v.3H12ZM34.3 39v-3h2v.3h-1.7v1.1H36v.3h-1.4v1h1.7v.3h-2Z" fill="#223641"/></svg>