<!-- by TradingView --><svg xmlns="http://www.w3.org/2000/svg" width="56" height="56"><path fill="url(#aognbin0p)" d="M0 0h56v56H0z"/><path d="M27 16.49V10l-2 2.13v4.74l2-.38zm2 23.02V46l2-2.13v-4.75l-2 .39zM10 29h6.07l.39 2H12.1L10 29zm29.94-2H46l-2.14-2h-4.32l.4 2zM27 27v-9.16l-2 .63c0 2 .02 6.5 0 7.1-.02.61-.65.6-.95.51C21.2 25.36 20 24 20 22.99c.13-4.4 7.53-5.98 11.03-6.21.1-.02.32-.08.3-.15 0-.06-.2-.07-.3-.07-6.16.53-13.15 2.35-13.5 6.82-.2 2.64 3.6 3.62 6.85 3.62H27zm2 11.15V29h2.7c3.26 0 7.05.98 6.85 3.6-.35 4.48-7.35 6.31-13.5 6.83-.1 0-.3 0-.3-.07-.02-.07.2-.12.3-.15 3.5-.23 10.52-1.8 10.65-6.2 0-1.08-.9-2.37-3.75-3.1-.3-.08-.93-.1-.95.5-.02.61 0 5.03 0 7.03l-2 .71zM27 29h-9.59l.77 2c2.09 0 6.76-.02 7.4 0s.6.63.52.93c-.76 2.82-2.25 3.75-3.3 3.75-4.61-.13-6.25-7.08-6.5-10.54-.02-.1-.08-.31-.15-.3-.07 0-.08.2-.08.3.55 6.09 2.46 13 7.15 13.35 2.75.2 3.78-3.55 3.78-6.77V29zm11.59-2H29v-2.74c0-3.23 1.03-6.98 3.78-6.78 4.69.35 6.6 7.27 7.15 13.36 0 .1-.01.3-.08.3-.07.01-.13-.2-.15-.3-.25-3.46-1.89-10.71-6.5-10.84-1.17-.03-2.55 1.24-3.3 4.06-.1.3-.11.92.52.94.63.02 5.34 0 7.43 0l.74 2z" fill="#EDA631"/><defs><linearGradient id="aognbin0p" x1="10.42" y1="9.71" x2="68.15" y2="76.02" gradientUnits="userSpaceOnUse"><stop stop-color="#1A1E21"/><stop offset="1" stop-color="#06060A"/></linearGradient></defs></svg>