<!-- by TradingView --><svg xmlns="http://www.w3.org/2000/svg" width="56" height="56" viewBox="0 0 56 56"><path fill="#AC202D" d="M0 0h56v56H0z"/><path d="M41.04 22l-.23 2h1.58l-.23 1.46H40.6L39.5 32H37.4l1.09-6.54h-1.3l.2-1.46h1.3l.23-2h2.13zm-13.5 3.37c.45.74.6 1.64.43 2.7l-.08.45h-5.58c-.13 1.27.4 1.91 1.62 1.91.36 0 .71-.1 1.04-.24.33-.15.61-.43.77-.75h1.9A4.2 4.2 0 0 1 23.6 32c-1.21 0-2.13-.37-2.74-1.12-.58-.72-.78-1.69-.6-2.88a4.69 4.69 0 0 1 1.52-2.88A4.44 4.44 0 0 1 24.82 24c1.25 0 2.16.45 2.72 1.37zm-3 .17c-.99-.02-1.85.64-2.03 1.46H26c-.03-1.07-.5-1.46-1.45-1.46zM5.38 27L5 29h5.63l.37-2H5.37zm2.34 5H9.8l.35-2H8.07l-.35 2zm21.85-8l-1.17 7.97V32h2.13l.61-4.06c.23-1.51.9-2.25 1.98-2.25.89 0 1.27.64 1.07 1.91l-.66 4.4h2.13l.71-4.78c.18-1.1.1-1.86-.23-2.38-.35-.56-1.06-.84-2.1-.84a3.06 3.06 0 0 0-2.57 1.28h-.05l.15-1.28h-2zm18.52 0l-.11.9c-.53-.6-1.3-.92-2.13-.9a4.73 4.73 0 0 0-3.19 1.12 4.62 4.62 0 0 0-1.6 2.88c-.18 1.2.03 2.16.64 2.88.61.72 1.57 1.1 2.88 1.12.95 0 1.67-.35 2.42-.87l-.11.87h1.89L50 24h-1.91zm-3.33 6.31c-1.22 0-2.05-1.04-1.86-2.33a2.75 2.75 0 0 1 2.6-2.34c1.26 0 2.05 1.04 1.84 2.34-.21 1.29-1.38 2.33-2.58 2.33zM12.6 24l4.19.03c2.2 0 3.25 1.8 2.92 4.03-.33 2.22-1.86 3.94-4.1 3.94h-2.07l-.4 3H11l.69-5h3.45c1.19 0 2.2-.33 2.46-1.97.25-1.64-.64-2.03-1.83-2.03h-1.32L14 29h-2.13l.74-5z" fill="#fff"/></svg>