<!-- by TradingView --><svg xmlns="http://www.w3.org/2000/svg" width="56" height="56"><path fill="#00AEEF" d="M0 0h56v56H0z"/><path d="M22.03 11.53l1.9 3.48-1.49-3.6c.95-.26 1.96-.4 3-.41l-.23 3.91.64-3.9.4.01.39 3.84.04-3.8c1.2.12 2.33.42 3.38.87l-2 3.31 2.38-3.14.35.18-1.44 3.59 1.82-3.38c.84.47 1.6 1.05 2.29 1.7l-3.04 2.63 3.34-2.33.25.27-2.56 3.06 2.86-2.72c.7.84 1.29 1.78 1.73 2.8l-3.73 1.26 3.9-.88.13.36-3.45 1.83 3.59-1.41c.3.98.48 2 .52 3.07l-3.85-.09 3.85.5v.41l-3.75.52 3.72-.09c-.08.92-.27 1.8-.56 2.63l-3.68-1.6 3.53 2-.14.34-3.83-.97 3.64 1.37c-.43.88-.97 1.7-1.6 2.43l-2.77-2.72 2.5 3.03-.28.3-3.1-2.22 2.8 2.52a12.8 12.8 0 01-2.38 1.78l-1.65-3.36 1.3 3.56-.33.18-2.2-3.2 1.8 3.39c-1 .46-2.06.8-3.14 1l-.1-4.08-.34 4.14c-.48.06-.96.1-1.44.1v-8.13a4 4 0 10-3-3.98V42l-8-.94V21.79h.02c.02-.33.06-.66.1-.99l4.06-.4-3.97-.1c.21-1.1.59-2.16 1.1-3.14l3.71 2.37-3.48-2.78.15-.25 3.73 1.59-3.49-1.98c.5-.74 1.08-1.42 1.74-2.03l2.62 3.08-2.3-3.37.27-.23 3.02 2.56-2.67-2.84c.82-.6 1.71-1.1 2.67-1.49l1.35 3.6-.97-3.74.37-.12zm2.1 23.77c4.66-.3 8-1.53 11.09-5.4l.59-.74c2.2-2.78 4.08-5.18 8.19-4.19v8.88c-1.68-1.82-3.9-3.25-6.5-2.98-1.37.15-2.12.72-3.12 1.5l-.23.17c-2.06 1.58-4.4 3.01-7.03 3.31-1.16.13-2.5.2-3.02.17 0 0-.1-.2-.1-.34 0-.16.14-.38.14-.38zm12.32-3.86c-.76.21-1.42.76-1.97 1.3-2.63 2.62-6.8 3.93-10.48 3.8v5.15c1.39.47 2.44.36 3.81-.02 1.89-.53 2.7-2.01 3.54-3.55.27-.5.54-1 .86-1.47l.07-.1c1.16-1.78 2.45-3.75 4.31-4.83.13-.07.28-.12.41-.17.2-.07.36-.13.38-.2.04-.21-.35-.09-.7.02l-.23.07zm-6.51 9.99S30.6 40.58 31 40c.49-.71.95-1.58 1.43-2.48 1.4-2.62 2.95-5.54 5.83-5.84 2.31-.24 4.48 1.33 5.73 3.16V42c-.28-.32-.55-.66-.82-1-1.55-1.94-3.15-3.93-6.15-3.58-1.72.34-3.11 1.46-4.46 2.56-.6.49-1.2.97-1.82 1.38-.39.26-.79.27-.81.07z" fill="#fff"/></svg>