<!-- by TradingView --><svg width="56" height="56" viewBox="0 0 56 56" xmlns="http://www.w3.org/2000/svg"><path fill="#1F3C80" d="M0 0h56v56H0z"/><path d="M33.69 23.05a6.38 6.38 0 0 1 9.37 0 7.28 7.28 0 0 1 0 9.9 6.38 6.38 0 0 1-9.37 0l-1.74-1.83 2.06-2.03 1.63 1.74a3.55 3.55 0 0 0 5.27 0 4.2 4.2 0 0 0 0-5.66 3.55 3.55 0 0 0-5.27 0L33 28l-2.08 2.03L29 28l4.69-4.95ZM22.31 32.95a6.38 6.38 0 0 1-9.37 0 7.28 7.28 0 0 1 0-9.9 6.38 6.38 0 0 1 9.37 0l1.74 1.83-2.06 2.03-1.63-1.74a3.55 3.55 0 0 0-5.27 0 4.2 4.2 0 0 0 0 5.66 3.55 3.55 0 0 0 5.27 0L23 28l2.08-2.03L27 28l-4.69 4.95ZM23.05 22.31a6.38 6.38 0 0 1 0-9.37 7.28 7.28 0 0 1 9.9 0 6.38 6.38 0 0 1 0 9.37l-1.83 1.74-2.03-2.06 1.74-1.63a3.55 3.55 0 0 0 0-5.27 4.2 4.2 0 0 0-5.66 0 3.55 3.55 0 0 0 0 5.27L28 23l2.03 2.08L28 27l-4.95-4.69ZM32.95 33.69a6.38 6.38 0 0 1 0 9.37 7.28 7.28 0 0 1-9.9 0 6.38 6.38 0 0 1 0-9.37l1.83-1.74 2.03 2.06-1.74 1.63a3.55 3.55 0 0 0 0 5.27 4.2 4.2 0 0 0 5.66 0 3.55 3.55 0 0 0 0-5.27L28 33l-2.03-2.08L28 29l4.95 4.69Z" fill="#fff"/></svg>