<!-- by TradingView --><svg width="56" height="56" viewBox="0 0 56 56" xmlns="http://www.w3.org/2000/svg"><path fill="#F0F3FA" d="M0 0h56v56H0z"/><path d="M13.3 26v.86c.35-.53.9-.9 1.55-.86 1.4-.02 2.15 1.28 2.15 2.55.04 1.28-.73 2.75-2.17 2.65-.6.05-1.13-.24-1.44-.75V33H12v-7h1.3Zm0 2.72c-.03.7.4 1.48 1.19 1.42.78.05 1.11-.84 1.1-1.5.04-.68-.33-1.56-1.14-1.5-.87-.08-1.18.86-1.14 1.58" fill="#181B1E"/><path d="M9.5 27.15 5.5 25v1l3 1.69v4.78l1 .53v-5.85Z" fill="#EB5C2C"/><path d="M11 26.15 7 24v1l3 1.69v4.78l1 .53v-5.85ZM4 31.33 8 34v-5.87L4 26v5.33Z" fill="#EB5C2C"/><path d="M21.26 29.07v-.61c-.3.18-.6.23-.97.27-.42.04-1.04.2-.98.7-.03.36.35.57.7.57.58.01 1.27-.3 1.26-.94Zm1.4-1.68v2.68c-.02.27.02.65.34.74V31h-1.46a2.15 2.15 0 0 1-.14-.56 2.5 2.5 0 0 1-1.86.56c-.85.02-1.61-.5-1.53-1.38-.06-.88.6-1.44 1.46-1.52.54-.06 1.16-.03 1.65-.27.17-.11.19-.37.09-.53-.17-.27-.54-.3-.83-.29-.46-.04-.88.2-.93.65h-1.26c.15-1.26 1.11-1.7 2.37-1.66.87 0 2.22.3 2.1 1.39ZM28.4 31H27v-2.96c.02-.53-.09-1.04-.84-1.04-.66 0-.8.67-.76 1.2V31H24v-5h1.4v.83c.09-.5.68-.84 1.27-.83.86.02 1.78.76 1.73 1.65M32.56 28c0-.57-.47-1-1.06-1-.63 0-1.08.42-1.12 1h2.18Zm-.05 1.49h1.43c-.29 1-1.33 1.52-2.32 1.5-1.63.09-2.62-1.02-2.62-2.59.03-1.5 1.05-2.4 2.53-2.4 1.58-.03 2.47 1.1 2.47 2.6v.24h-3.62c.01.33.14.64.37.89.24.2.55.29.87.27.35 0 .79-.16.9-.53M36.46 24H35v7h1.46v-7ZM37 29.46l.8-.12c.07.63.63 1.03 1.25 1 .46.03.94-.27.95-.77.02-.47-.54-.63-.9-.7-.43-.1-.85-.22-1.25-.39-.41-.18-.85-.49-.85-.98 0-1.02 1.02-1.5 1.92-1.5.9-.02 1.78.37 1.9 1.34l-.79.11c-.06-.52-.55-.82-1.05-.78-.4-.04-.97.11-.98.61 0 .53.72.61 1.08.71.8.2 1.96.44 1.92 1.5 0 1.01-1.04 1.52-1.94 1.5-1 .07-1.93-.5-2.06-1.53M46 28.49c-.49.15-1.22.25-1.73.3-.49.05-1.28.17-1.27.82-.01.54.6.78 1.07.75.6.01 1.48-.22 1.78-.76.11-.26.17-.54.15-.81v-.3Zm0 1.92c-.52.4-1.5.6-2.14.59-.87.05-1.85-.44-1.87-1.4-.02-1.06 1.26-1.39 2.13-1.47.56-.04 1.34-.13 1.87-.28v-.2c.09-.72-.93-1.02-1.53-.98-.64-.04-1.28.24-1.41.92l-.9-.1c.23-1.16 1.42-1.5 2.46-1.49 1.28-.04 2.43.47 2.39 1.8v1.09c-.01.47 0 1.06.06 1.53.04.2.12.4.23.58H46l.01-.6M48 31v-5h1v.8c.35-.52.7-.83 1.32-.8 1.25-.01 1.7.88 1.68 2v3h-1v-2.98c.03-.67-.1-1.32-.87-1.3-.95-.02-1.13.77-1.13 1.6V31h-1Z" fill="#181B1E"/></svg>