<!-- by TradingView --><svg xmlns="http://www.w3.org/2000/svg" width="56" height="56"><path fill="#26854D" d="M0 0h56v56H0z"/><path d="M48.39 35.95c-.11.54-.11 2.68 1.5 3.75.53.33-.86 1.4-3.54 1.3 0 0-9.75-.33-15.64-7.63 0 0 11.03 5.9 17.57 2.47 0 0 .1 0 .1.1zM34 29.87v3h-3v-2.93c0-4.72 1.96-7.19 5.71-7.19 1.4 0 2.29.43 2.29.43v9.7h-3v-3.01h-2zm0-2h2V25c-1.5 0-2 1.6-2 2.86zm-17-5.02h3v10.02h-3V22.86zm13 0h-3v2.04c-1.18-1.28-3.21-2.14-6-2.04v10.02h3v-6.69s3 .43 3 5.15v1.54h3V22.86zm18.36 10.02l-2.04-4.32c1.27-.96 1.57-2.55 1.27-3.55-.37-1.21-1.47-1.88-2.66-2.04a20.1 20.1 0 00-4.93.11v9.8h3v-7.65s.98-.13 1.56.22c.66.4.7 1.44.07 1.87-.45.31-1 .38-1.52.48l2.25 5.08h3z" fill="#fff"/><path d="M30.71 25.86s.75-4.5 6.75-4.4c0 0 .43-1.28-2.14-1.4-.97 0 .1-1.7.96-1.92.86-.22-5.14-1.29-5.57 7.72z" fill="#C9322D"/><path d="M10.9 19.96s-1.62.22-.22-2.57c.32-.65-.54-1.3-1.29-1.4-.64 0 .86-1.18 3.54-.96 0 0 6.42.21 12.32 7.5 0 0-5.04-4.71-14.36-2.57z" fill="#52A5DF"/><path d="M11.21 27.36l.65 2.22c2.46 0 4.14-1.9 4.14-3.72 0-1.5-.82-3-2.86-3H8v10.01h3v-8.01h.75a1.25 1.25 0 010 2.5h-.54z" fill="#fff"/></svg>