<!-- by TradingView --><svg xmlns="http://www.w3.org/2000/svg" width="56" height="56"><path fill="#0084CB" d="M0 0h56v56H0z"/><path d="M33 12H16v24h24V19a7 7 0 00-7-7zm2 12c0 .47-.05.94-.14 1.4-.12.6-.69.6-1.13.6h-2.7c-.47 0-1.03-.1-1.03-.84V25a1 1 0 10-2 0v6a7 7 0 117-7z" fill="#fff"/><path fill-rule="evenodd" d="M17.38 38h1.65a2.5 2.5 0 010 5H17.5v2.7a.3.3 0 01-.3.3h-.9a.3.3 0 01-.3-.3v-7.4c0-.17.13-.3.3-.3h1.08zm.12 3.5v-2H19a1 1 0 010 2h-1.5z" fill="#fff"/><path d="M23.37 38.25l-1.3 7.4a.3.3 0 00.29.35h.83a.3.3 0 00.3-.25l.65-4.26 2.03 4.34c.05.1.16.17.27.17h.19a.3.3 0 00.27-.18l1.89-4.33.76 4.26a.3.3 0 00.29.25h.8a.3.3 0 00.3-.35l-1.3-7.4a.3.3 0 00-.3-.25h-.13a.3.3 0 00-.27.17l-2.44 5.28-2.44-5.28a.3.3 0 00-.27-.17h-.12a.3.3 0 00-.3.25z" fill="#fff"/></svg>