<!-- by TradingView --><svg width="56" height="56" viewBox="0 0 56 56" xmlns="http://www.w3.org/2000/svg"><path fill="#F0F3FA" d="M0 0h56v56H0z"/><path fill-rule="evenodd" d="M9.56 24H4l1.86 2.75L5.14 32h1.54c.79 0 .9-.55.9-.8l.05-2.2h1.93c1.58 0 2.44-1.04 2.44-2.5 0-1.45-.88-2.5-2.44-2.5Zm-4.17.68-.54-.26.17.26h.37Zm2.52-.06.15.03-.08.74-.77-.48.7-.29Zm.46.12.53.43-.6.24.07-.67Zm.81.64.23.19.39.92-1.34-.82.72-.29Zm.74.58.52.21-.3.33-.22-.54Zm-.12.9-.29-.18.21.26.08-.09Zm-.35-.22L8.42 26l.23.63h.8Zm-1.22.6-.24.25-.05.06-.48.5.39.4h.07l.26-.9.05-.32Zm.5 1.2h-.48l.22-.76.11.03.15.74Zm.3-.08-.11-.6.37.08v.4l-.26.12Zm-2-.22-.78-1.06-.12 2.28.9-1.22Zm-.54-1.26.72.98c.15-.14.32-.33.5-.52l.05-.05c.13-.14.26-.29.39-.41l-1.54-.1-.12.1Zm.11-.42-.2-.02.55-1.33.88.54-1.23.81Zm-.5-.1L5.22 25h1.42l-.34.86-.2.5Zm2.2.22-.26-.7-.94.63 1.2.07ZM19.53 32h-2.11l-1.7-5.1-1.8 5.1h-2l2.89-8h1.92l2.8 8ZM21 32v-8h3.38c1.38 0 2.62.8 2.62 2.6s-1.31 2.5-1.31 2.5L27.5 32h-2.29l-1.46-2.5H23V32h-2Zm2-6v1.5h1.18c.55 0 .83-.36.82-.74 0-.36-.24-.76-.82-.76H23Zm29-1-.94 1.43s-.75-.73-1.72-.73c-.74 0-1.34.04-1.34.73 0 .48.53.56 1.12.65.26.04.54.08.78.16 1.2.4 2.1 1.16 2.1 2.36 0 1.74-1.4 2.4-3.15 2.4s-3.35-1.25-3.35-1.25l1-1.4s.67.73 1.72.95c.65.14 1.78 0 1.78-.7 0-.53-.41-.6-.88-.67a4.32 4.32 0 0 1-.76-.17c-.97-.22-2.36-.55-2.36-2.33 0-1.66 1.48-2.43 3.12-2.43 1.67 0 2.88 1 2.88 1Zm-23 7v-8h3.4c1.98 0 3.6 1.56 3.6 3.94 0 2.22-1.23 4.06-3.36 4.06H29Zm2-2v-4h1.44c.98 0 1.56.76 1.56 2 0 1.02-.68 2-1.56 2H31Zm9-6h-2v5.35c0 1.57 1.23 2.65 3 2.65 2.06 0 3-1.4 3-3.02V24h-2v4.98c0 .53-.22 1.02-1 1.02s-1-.47-1-1.02V24Zm-25.22 8 .88-3 .9 3h-1.78Z" fill="#242D62"/></svg>