<!-- by TradingView --><svg xmlns="http://www.w3.org/2000/svg" width="56" height="56"><path fill="url(#a1rhsfuy5)" d="M0 0h56v56H0z"/><path d="M38 23.5a.5.5 0 11-1 0 .5.5 0 011 0zm-5 1.3a2 2 0 00-1.7.96 1.8 1.8 0 00-3.3.25V25h-1v6h1v-3.95c0-.69.56-1.35 1.25-1.35s1.25.66 1.25 1.35V31h1v-3.95c0-.69.56-1.35 1.25-1.35s1.25.66 1.25 1.35V31h1v-4.2a2 2 0 00-2-2z" fill="#fff"/><path fill-rule="evenodd" d="M47 26a2.1 2.1 0 014 .9V31h-5v-6h1v1zm0 1.3c0-.8.67-1.6 1.5-1.6s1.5.77 1.5 1.6V31h-3v-3.7zM5 23h1.69c1.45 0 2.81.6 2.81 2.31 0 1.3-.73 1.97-1.8 2.24-.5.13-1.18.15-1.7.15V31H5v-8zm3.28 2.31c0-1.13-.69-1.6-1.6-1.6H6V27h.69c.87 0 1.59-.56 1.59-1.69z" fill="#fff"/><path d="M11.99 26.45a2.65 2.65 0 012.45-1.66V26C13 25.5 12 26.79 12 27.67v3.37h-1V25h1l-.01 1.45zm6.09 3L19.9 25h.7l-2.3 5.54L16.91 34h-.67l1.32-3.27L15.32 25h1.18l1.58 4.45zm3.96.16c.21.59.59 1.29 1.56 1.34.7.03 1.39-.82.92-1.45-.32-.45-1.16-.8-1.69-1.03l-.06-.03-.08-.03c-.8-.32-1.4-.73-1.4-1.65 0-.89.55-1.64 1.4-1.88a3.39 3.39 0 011.92.14c.27.1.55.25.83.44l-.3 1.1h-.35S24.51 25 23.36 25c-.67 0-1.14.62-1.14 1.1 0 .48.42.74.78.89l.5.19c.66.27 1.43.6 1.79 1 .45.5.58 1.35.27 1.96-.42.82-1.32 1.12-2.2 1.12-.6 0-1.36-.24-1.86-.58l.19-1.2h.3l.05.12zM37 25h1v6h-1v-6zm3 .72c1-1.22 4-1.17 4 1.22v2.83c0 .86.14.86.73.86v.3l-.2.08c-.38.17-.66.3-1.06-.01a2.04 2.04 0 01-.47-.81c-.52.76-1.89 1.3-2.78.76-.43-.27-.72-.71-.72-1.32 0-1.52 2-1.99 3.01-2.17.22-.04.4-.07.49-.1v-.43c0-.9-.47-1.53-1.34-1.53-.77 0-1.35.5-1.66.9v-.58zm3 3.49v-1.45s-2.3.39-2.3 1.74c0 .52.45.87.96.89.8 0 1.34-.53 1.34-1.19z" fill="#fff"/><defs><linearGradient id="a1rhsfuy5" x1="10.42" y1="9.71" x2="68.15" y2="76.02" gradientUnits="userSpaceOnUse"><stop stop-color="#1A1E21"/><stop offset="1" stop-color="#06060A"/></linearGradient></defs></svg>