<!-- by TradingView --><svg xmlns="http://www.w3.org/2000/svg" width="56" height="56"><path fill="#0167AC" d="M0 0h56v56H0z"/><path d="M29 17.83a3 3 0 10-2 0V18h-2a3 3 0 00-3 3v9a3 3 0 003 3v10h6V33a3 3 0 003-3v-9a3 3 0 00-3-3h-2v-.17zM19 15a2 2 0 01-1 1.73V17h1a2 2 0 012 2v5a2 2 0 01-2 2v6h-4v-6a2 2 0 01-2-2v-5a2 2 0 012-2h1v-.27A2 2 0 0117 13a2 2 0 012 2zm22 11a2 2 0 01-1 1.73V28h1a2 2 0 012 2v5a2 2 0 01-2 2v6h-4v-6a2 2 0 01-2-2v-5a2 2 0 012-2h1v-.27A2 2 0 0139 24a2 2 0 012 2z" fill="#fff"/></svg>