<!-- by TradingView --><svg xmlns="http://www.w3.org/2000/svg" width="56" height="56" fill="none"><path fill="#A5D4CE" d="M0 0h56v56H0z"/><path fill-rule="evenodd" d="M6 23h3.4c.9.06 2.62.34 2.6 2.5-.02 2.16-1.71 2.47-2.6 2.5H7v3H6v-8zm1 1h2.5c.5 0 1.49.45 1.5 1.46.01 1-.82 1.54-1.5 1.54H7v-3zm6-1v8h1v-3h1.75l2.06 3H19l-2-3c.65-.12 2.01-.73 2-2.5a2.43 2.43 0 00-2.4-2.5H13zm1 1h2.65c.5 0 1.34.45 1.35 1.46.01 1-.74 1.54-1.42 1.54H14v-3z" fill="#000"/><path fill="#000" d="M21 23h1v8h-1zm.59-2h-.19l-.4 1h1l-.41-1zM30 23h-6v1h4.75L24 30v1h6v-1h-4.75L30 24v-1zm2.08 0H31v8h1v-6.42L34.85 28h.35l2.8-3.42V31h1v-8h-1.1L35 26.64 32.08 23z"/><path fill-rule="evenodd" d="M43.64 23h1.69L49 31h-9l3.64-8zm.87.73L47.6 30h-6.1l3.01-6.27z" fill="#000"/><path d="M27.65 37v-1.9m0 0v-2.85h2.2c.38.05 1.14.4 1.14 1.43 0 1.02-.76 1.37-1.14 1.42h-2.2zm4.57 1.87v-2.06m0 0v-2.67h2.17c.38.03 1.14.34 1.13 1.4 0 1.06-.76 1.29-1.13 1.27h-.5m-1.67 0h1.67m0 0l1.75 2.06m4.23-4.74H36.7v2.28m3.17 2.28H36.7v-2.28m0 0h3.17m4.43-1.59c-.14-.25-.65-.76-1.56-.75-1.14.02-1.74.5-1.74 1.2s1 .93 1.23 1c.23.08 2.12.17 2.15 1.33.02.93-1.08 1.18-1.64 1.19-.44.03-1.45-.12-1.93-.94m7.87-3.05c-.14-.25-.65-.76-1.56-.75-1.14.02-1.74.5-1.74 1.2s.99.93 1.22 1c.24.08 2.13.17 2.16 1.33.02.93-1.09 1.18-1.64 1.19-.44.03-1.45-.12-1.93-.94" stroke="#fff" stroke-width=".5"/></svg>