<!-- by TradingView --><svg xmlns="http://www.w3.org/2000/svg" width="56" height="56"><path fill="#F0F3FA" d="M0 0h56v56H0z"/><path d="M41 37c0 5.52-6.27 10-14 10V27c7.73 0 14 4.48 14 10z" fill="#9ABFE5"/><path d="M35.74 42.44C37.9 40.9 39 38.94 39 37c0-1.95-1.1-3.9-3.26-5.44A14.48 14.48 0 0029 29.1v15.8c2.67-.3 5-1.2 6.74-2.45zM29 46.9c-.65.07-1.32.1-2 .1V27c.68 0 1.35.03 2 .1 6.78.7 12 4.86 12 9.9s-5.22 9.2-12 9.9z" fill="#0B244D"/><path d="M15 19c0 5.52 6.27 10 14 10V9c-7.73 0-14 4.48-14 10z" fill="#EAAD14"/><path d="M20.26 24.44C18.1 22.9 17 20.94 17 19c0-1.95 1.1-3.9 3.26-5.44A14.48 14.48 0 0127 11.1v15.8c-2.67-.3-5-1.2-6.74-2.45zM27 28.9c.65.07 1.32.1 2 .1V9c-.68 0-1.35.03-2 .1-6.78.7-12 4.86-12 9.9s5.22 9.2 12 9.9z" fill="#0B244D"/></svg>