<!-- by TradingView --><svg xmlns="http://www.w3.org/2000/svg" width="56" height="56"><path fill="#F0F3FA" d="M0 0h56v56H0z"/><path d="M4 27.61C4 23.41 7.58 20 12 20s8 3.4 8 7.61c0 1.22-.3 2.37-.83 3.39H17.4v-2.41L19.33 26H17.7l-.97 1.33-.98-1.33h-1.63l1.93 2.59V31h-1.07L13 26h-1.5l-1.9 4.7-1.4-1.76c.75-.12 1.15-.73 1.15-1.44 0-1.09-.79-1.5-1.84-1.5H5.46v5h-.63A7.3 7.3 0 014 27.6zM6.84 31v-1.93h.01L8.12 31H6.84zm4.1 0l.34-1h1.9l.33 1h-2.57zm1.87-2h-1.15l.57-1.49h.02L12.8 29zm-5.97-2.05h.13c.45 0 .95.08.95.64 0 .55-.5.63-.95.63h-.13v-1.27z" fill="#DD2A1B"/><path d="M24.1 26.39a3.67 3.67 0 00-1.6-.39c-1.02 0-1.76.63-1.76 1.6 0 .91.55 1.11 1.38 1.33.29.08.81.2.81.55 0 .33-.33.48-.64.48-.45 0-.85-.22-1.18-.5l-.57 1c.52.34 1.15.54 1.8.54.51 0 1.05-.13 1.45-.45.4-.32.53-.8.53-1.27 0-.77-.55-1.1-1.27-1.3l-.33-.1c-.23-.06-.6-.17-.6-.45 0-.26.33-.4.58-.4.33 0 .64.13.88.32l.53-.96zm2.23-.39h-1.44v5h1.44v-5zm-.71-2a.7.7 0 00-.73.68c0 .38.32.68.73.68.4 0 .71-.3.71-.68a.7.7 0 00-.71-.69zm3.92 4.23v.96h1.01c-.05.54-.46.81-1 .81-.82 0-1.26-.74-1.26-1.47 0-.71.43-1.48 1.24-1.48.5 0 .86.3 1.03.75l1.18-.49A2.23 2.23 0 0029.59 26C28.05 26 27 27 27 28.52 27 30 28.04 31 29.55 31c.8 0 1.5-.28 1.97-.92.42-.59.47-1.17.48-1.85h-2.46zM35.42 26c-1.36 0-2.6 1-2.6 2.41a2.5 2.5 0 002.6 2.59A2.5 2.5 0 0038 28.41C38 27 36.77 26 35.4 26zm0 1.18c.72 0 1.32.6 1.32 1.24 0 .8-.6 1.4-1.33 1.4-.72 0-1.32-.6-1.32-1.4 0-.65.6-1.24 1.32-1.24zm6.17 1.77c.72-.13 1.1-.72 1.1-1.41 0-1.07-.75-1.54-1.75-1.54H39v5h1.3v-1.92h.02L41.55 31h1.63l-1.59-2.05zm-1.3-1.96h.13c.43 0 .91.08.91.63 0 .54-.48.62-.9.62h-.14V27zm5.57.1H47V26h-3.64v1.1h1.13V31h1.37v-3.9zm4.39 3.04l.33.87H52l-1.93-5h-1.45l-1.97 5h1.4l.36-.87h1.84zm-.37-1h-1.1l.55-1.58h.01l.54 1.59z" fill="#005ABC"/><path d="M52 33H4v1h48v-1z" fill="#DD2A1B"/></svg>