<!-- by TradingView --><svg width="56" height="56" viewBox="0 0 56 56" xmlns="http://www.w3.org/2000/svg"><path fill="#181B1E" d="M0 0h56v56H0z"/><path d="M47 32v-8h1.5v.93A3.6 3.6 0 0 1 51 24v1.5c-1.41 0-2.5.9-2.5 2.3V32H47ZM30 32v-8h2.89c2.55 0 4.61 1.1 4.61 4s-2.05 4-4.61 4H30Zm2.89-6.5H31.5v5h1.39c1.8 0 3.11-.45 3.11-2.5s-1.31-2.5-3.11-2.5ZM17.5 32c-2.17 0-3.5-1.74-3.5-3.82v-.33c0-2.06 1.34-3.85 3.5-3.85s3.5 1.79 3.5 3.85v.52h-5.5c.05 1.22.68 2.13 2 2.13.73 0 1.43-.12 1.93-.65l.97.89A3.7 3.7 0 0 1 17.5 32Zm-2-5h4c-.17-1.05-.88-1.5-2-1.5-1.13 0-1.83.44-2 1.5ZM25.5 32c-2.17 0-3.5-1.74-3.5-3.82v-.33c0-2.06 1.34-3.85 3.5-3.85s3.5 1.79 3.5 3.85v.52h-5.5c.05 1.22.68 2.13 2 2.13.73 0 1.43-.12 1.93-.65l.97.89A3.7 3.7 0 0 1 25.5 32Zm-2-5h4c-.17-1.05-.88-1.5-2-1.5-1.13 0-1.83.44-2 1.5ZM42.5 32c-2.17 0-3.5-1.74-3.5-3.82v-.33c0-2.06 1.34-3.85 3.5-3.85s3.5 1.79 3.5 3.85v.52h-5.5c.05 1.22.68 2.13 2 2.13.73 0 1.43-.12 1.93-.65l.97.89A3.7 3.7 0 0 1 42.5 32Zm-2-5h4c-.17-1.05-.88-1.5-2-1.5-1.13 0-1.83.44-2 1.5ZM11.12 32l-2.66-3.02H6.5V32H5v-8h3.82c1.54 0 3.18.63 3.18 2.5 0 1.25-.66 2.06-1.82 2.31L13 32h-1.88ZM6.5 25.5v2h2.32c.86 0 1.68-.2 1.68-1 0-.82-.82-1-1.68-1H6.5Z" fill="#78D54A"/></svg>