<!-- by TradingView --><svg width="56" height="56" viewBox="0 0 56 56" xmlns="http://www.w3.org/2000/svg"><path fill="#014687" d="M0 0h56v56H0z"/><path d="m40.06 40.21.41.95c.06.13.02.2-.13.2-.17 0-.33-.03-.5-.1a176.64 176.64 0 0 1-7.65-3.74c-.5-.26-1-.4-1.52-.4a.26.26 0 0 0-.26.28l.1 1.14a.12.12 0 0 1-.04.1.12.12 0 0 1-.11.02c-.55-.2-1.03-.4-1.43-.59-3.64-1.7-7.18-3.36-10.46-5.24-1.57-.9-3.47-2.33-3.47-4.42 0-2.91 4.23-4.04 6.47-4.3 1.18-.13 3.01-.31 5.5-.54 1.5-.13 6-.33 6.03-2.57.02-1.64-1.61-2.84-3.07-3.34-2.58-.9-5.05-1.14-8.02-1.44a25.05 25.05 0 0 0-5.1.1c-.42.05-.8-.23-1.16-.16-.49.1-.94.15-1.36.16-.38 0-.39-.05-.03-.16 1.21-.38 2.49-.66 3.84-.84 2.33-.31 5.13-.4 8.42-.25 2.43.1 4.77.5 7.03 1.2C36.27 17.1 39 19 39 22c0 4.5-4.9 5.29-8.27 5.67-2.4.26-4.8.51-7.2.74-.3.03-.65.13-.9.15-.28.02-.42.08-.42.17 0 .07.11.18.33.3.42.25.9.5 1.42.78 3.22 1.66 5.72 2.93 7.5 3.81 1.11.56 2.28 1.18 3.5 1.86 4.42 2.45 7.98 4.5 10.7 6.16.23.14.34.23.34.3 0 .04-.07.06-.21.06-.07 0-.15 0-.24-.02a4.55 4.55 0 0 1-1.59-.48c-1.67-.85-2.32-1.26-3.6-1.62a.24.24 0 0 0-.26.07.25.25 0 0 0-.04.26Z" fill="#fff"/></svg>