<!-- by TradingView --><svg width="56" height="56" viewBox="0 0 56 56" xmlns="http://www.w3.org/2000/svg"><path fill="#E0E3EB" d="M0 0h56v56H0z"/><path d="M50.58 24h-17.9C16.15 24 4 32 4 32s11.46-7 31.75-7h14.54l.29-1Z" fill="#B10E7B"/><path d="M51.72 20H33.62C17.09 19.98 4 32 4 32s12.7-11 33-11h14.44l.28-1Z" fill="#F07D00"/><path d="M51.44 21H33.56C17.02 20.98 4 32 4 32s13.19-10 32.94-10h14.21l.29-1Z" fill="#FFF000"/><path d="M51.15 22H33.44c-14.8 0-25.97 7.8-28.9 9.6-.36.22-.54.4-.54.4s.18-.18.53-.4C7.33 29.91 18.7 23 34.5 23h16.37l.28-1Z" fill="#32A737"/><path d="M50.87 23H33.25C16.71 23 4 32 4 32s12.06-8 31.75-8h14.83l.29-1Z" fill="#148F9F"/><path d="M51.99 19.08 52 19H33.69C23.53 19 10.5 24.81 4 32c10.3-8.74 21.31-12 31.75-12h15.97l.27-.92Z" fill="#E30613"/><path d="M6.38 26h2.35c1.72 0 2.57.5 2.57 1.64a1.67 1.67 0 0 1-1.32 1.65.84.84 0 0 1 .57.87c0 .24-.03.48-.05.69a4.9 4.9 0 0 0-.04.5.42.42 0 0 0 .28.43V32H8.89a1.57 1.57 0 0 1-.07-.5c0-.22.05-.45.1-.66.04-.18.08-.36.08-.51 0-.5-.43-.52-1.13-.52h-.76L6.6 32H5l1.38-6Zm2.03 2.58c.82 0 1.29-.1 1.29-.74 0-.4-.36-.54-1.04-.54h-.93l-.35 1.28H8.4ZM14.57 26h1.8l1.33 6H16l-.18-1h-2.31l-.49 1H11.3l3.27-6Zm.7 1.4-1.13 2.3h1.5l-.37-2.3ZM21.5 26h-1.63l-1.37 6h1.62l1.38-6Zm1.37 0h1.66L26 29.92l.91-3.92h1.58l-1.38 6h-1.65l-1.53-3.92-.9 3.92H21.5l1.37-6Zm9.67 0h-2.6l-1.34 6h2.69c.96 0 2.25-.11 2.74-1.09.12-.24.18-.5.18-.77a1.22 1.22 0 0 0-.78-1.21 1.44 1.44 0 0 0 1.17-1.43c0-.98-.69-1.5-2.06-1.5Zm.1 3.98c-.1.63-.6.72-1.56.72h-.71l.38-1.3h1.06c.52 0 .9.18.83.58Zm.36-2.25c0 .56-.6.6-1.42.6h-.6l.3-1.03h.95c.51 0 .77.08.77.43ZM38.57 26c1.82 0 2.93.98 2.93 2.58a3.17 3.17 0 0 1-1 2.45 3.46 3.46 0 0 1-2.56.97C36.12 32 35 31 35 29.4a3.29 3.29 0 0 1 2.19-3.18c.44-.16.9-.22 1.38-.22Zm-1.93 2.95c-.2 1.02.55 1.77 1.3 1.77.89 0 1.68-.6 1.89-1.66.2-1.05-.5-1.78-1.26-1.78-.75 0-1.68.4-1.93 1.67Zm6.9-2.94H42l.87 5.99h1.57l1.2-3.62c.06-.18.1-.36.13-.55v.53L46 32h1.54L50 26h-1.65l-1.21 3.44c-.05.16-.08.33-.1.5v-.54l-.22-3.4h-1.66l-1.18 3.48c-.04.15-.07.3-.07.46v-.5l-.37-3.43Z" fill="#023B7E"/><path d="M21.82 33h-.5l-.9.86-.11-.86h-.46l.2 1.24-.35.76h.46l.35-.76L21.82 33Zm-9.06 0a.6.6 0 0 1 .26.05c.07.03.13.08.17.14.05.06.07.12.09.2v.22c-.12.44-.52.76-1.04.76h-.52l-.29.63H11l.91-2h.85Zm-.42 1c.15 0 .3-.08.4-.2a.48.48 0 0 0 .07-.15c.03-.14-.07-.29-.22-.28h-.41l-.3.63h.46Zm3.19-1c1.36 0 .9 2-.7 2-.12 0-.3-.02-.41-.07a.67.67 0 0 1-.26-.2.64.64 0 0 1-.14-.27.79.79 0 0 1 .01-.36c.04-.16.12-.3.22-.43.2-.27.48-.47.8-.58.15-.06.31-.09.48-.09Zm-.13.36a.98.98 0 0 0-.56.2c-.09.07-.17.14-.23.23a.83.83 0 0 0-.14.3.52.52 0 0 0 0 .22c.02.06.05.12.09.17.04.06.1.1.15.12.08.03.15.04.23.04.1 0 .2-.02.28-.05a1.1 1.1 0 0 0 .5-.38.78.78 0 0 0 .14-.3.53.53 0 0 0 0-.21.42.42 0 0 0-.08-.18.39.39 0 0 0-.16-.12.55.55 0 0 0-.22-.04ZM34.22 35c1.57 0 2.04-2 .69-2a1.74 1.74 0 0 0-1.26.67c-.1.13-.18.27-.22.43a.8.8 0 0 0-.02.36c.03.1.07.2.14.28.07.08.16.15.26.2.12.04.29.06.41.06Zm.28-1.59a.8.8 0 0 1 .28-.05c.07 0 .15.01.22.04.06.02.12.06.16.12.04.05.07.11.08.18v.22c-.03.1-.08.2-.14.3a1.1 1.1 0 0 1-.5.37.83.83 0 0 1-.27.05.6.6 0 0 1-.23-.04.4.4 0 0 1-.23-.3.53.53 0 0 1 0-.22c.02-.1.07-.2.13-.3a1.03 1.03 0 0 1 .5-.37Zm-16 1.22-.17.37H16.8l.93-2h.44l-.75 1.64h1.08Zm4.88-1.27a.82.82 0 0 0-.26.05 1.1 1.1 0 0 0-.5.37.86.86 0 0 0-.15.3.52.52 0 0 0 0 .23.39.39 0 0 0 .24.29.68.68 0 0 0 .43.01 1 1 0 0 0 .36-.2l.14-.11h.43a1.68 1.68 0 0 1-.93.65 1.4 1.4 0 0 1-.36.05.96.96 0 0 1-.37-.07.69.69 0 0 1-.26-.19.62.62 0 0 1-.14-.28.84.84 0 0 1 .02-.36c.04-.16.11-.3.21-.43a1.78 1.78 0 0 1 .81-.58c.15-.06.3-.09.47-.09.12 0 .25.02.36.06.1.04.19.1.26.17.06.06.11.14.13.22.03.09.04.17.02.26h-.44a.3.3 0 0 0-.1-.23.56.56 0 0 0-.37-.12ZM24.6 35h.46l.38-.4h.88l-.04.4h.46l.06-2h-.4l-1.8 2Zm1.77-1.5-.05.74h-.59l.64-.73Zm2.35.77h-.33l-.35.73h-.44l.93-2h.92a.6.6 0 0 1 .45.17c.04.06.07.12.09.2v.2a.62.62 0 0 1-.08.18.94.94 0 0 1-.37.35c-.1.05-.22.1-.34.12l.18.78h-.5l-.16-.73Zm-.17-.37h.51a.5.5 0 0 0 .38-.17.26.26 0 0 0 .05-.11.2.2 0 0 0-.1-.24.21.21 0 0 0-.11-.01h-.49l-.24.53Zm3.77.16a.49.49 0 0 0-.1-.1c.07-.02.14-.05.2-.09a.96.96 0 0 0 .16-.14c.06-.06.1-.14.11-.22a.47.47 0 0 0 0-.19.39.39 0 0 0-.23-.28.58.58 0 0 0-.22-.04h-.95l-.89 2h1.05a1.09 1.09 0 0 0 .82-.39c.06-.06.1-.15.12-.23a.39.39 0 0 0 0-.19.43.43 0 0 0-.07-.13Zm-.64.58a.46.46 0 0 1-.15.03h-.55l.26-.58h.51a.22.22 0 0 1 .2.08.22.22 0 0 1 .02.19.32.32 0 0 1-.06.12.47.47 0 0 1-.23.16Zm.2-.84h-.5l.21-.48h.47a.18.18 0 0 1 .16.07.18.18 0 0 1 .03.16l-.05.1a.43.43 0 0 1-.33.16ZM39 33l-.9 2h-.37l-.42-1.3-.58 1.3h-.43l.9-2h.37l.42 1.3.58-1.3H39Zm0 2h.49l.37-.41h.93l-.03.41h.48l.06-2h-.42L39 35Zm1.85-1.5-.05.74h-.62l.67-.73Zm1.89-.5h1.76l-.16.37h-.67L42.93 35h-.43l.74-1.63h-.67l.17-.37Zm3.38 2 .17-.37H45.1l.22-.47h1.06l.17-.37h-1.06l.2-.42h1.14L47 33h-1.58l-.92 2h1.62Z" fill="#646363"/></svg>