<!-- by TradingView --><svg xmlns="http://www.w3.org/2000/svg" width="56" height="56"><path fill="#F0F3FA" d="M0 0h56v56H0z"/><path d="M38.57 13c-5.32.25-18.37 6.16-18.7 7.95.44.98 1.66.6 2.22.3 7.6-3.49 16.14-7.54 17-5.32.86 2.22-2.94 3.36-5.44 4.59-2.51 1.22-10.55 2.87-12.19 3.79-9.6 5.39-10.24 13.88-10.42 14.61-.17.73.2 2.18 1.36 2.07.93-.08 1.26-.94 1.31-1.36.4-5.54 3.44-8.13 4.23-9.05.63-.74 1.77-.6 2.26-.45 7.53 1.78 11.73.24 12.9-.75.18-.2.46-.72.15-1.11-.32-.4-.85-.28-1.08-.17-4.73 2.03-8.6.67-9.71-.11-.67-.47-1.15-.8 1.12-1.78 2.07-.89 8.54-2.75 11.59-3.42 2.67-.62 7.99-2.66 7.83-5.91-.17-3.26-3.02-3.94-4.43-3.88z"/><path fill-rule="evenodd" d="M19.6 38.74a.5.5 0 00-.5.5v1.26c0 .27.21.5.5.5h3.15a.5.5 0 00.5-.5v-1.26a.5.5 0 00-.5-.5h-3.16zm.13.54a.2.2 0 00-.2.2v.78c0 .11.1.2.2.2h2.88a.2.2 0 00.2-.2v-.78a.2.2 0 00-.2-.2h-2.88zM39 38.74a.5.5 0 00-.5.5v1.26c0 .27.22.5.5.5h3.16a.5.5 0 00.5-.5v-1.26a.5.5 0 00-.5-.5H39zm.14.54a.2.2 0 00-.2.2v.78c0 .11.1.2.2.2h2.87a.2.2 0 00.2-.2v-.78a.2.2 0 00-.2-.2h-2.87zm-11.82-.54h-3.65V41h3.65a.5.5 0 00.5-.5v-1.26a.5.5 0 00-.5-.5zm-.14.54h-3.07v1.18h3.07a.2.2 0 00.2-.2v-.78a.2.2 0 00-.2-.2z"/><path d="M32.97 38.74h.46v2.25h-.46z"/><path fill-rule="evenodd" d="M18.12 38.74h-3.66V41h.46v-.9h2.82l.38.9h.47l-.38-.9a.5.5 0 00.41-.5v-.36a.5.5 0 00-.5-.5zm-.17.4h-3.07v.62h3.07a.2.2 0 00.2-.2v-.21a.2.2 0 00-.2-.2zm14.03-.4h-3.66V41h.46v-.9h2.82l.37.9h.48l-.38-.9a.5.5 0 00.4-.5v-.36a.5.5 0 00-.5-.5zm-.17.4h-3.08v.62h3.08a.2.2 0 00.2-.2v-.21a.2.2 0 00-.2-.2z"/><path d="M34.39 38.74h3.66v.54h-3.52a.2.2 0 00-.2.2v.78c0 .11.09.2.2.2h3.07v-.4h-2.18v-.38h2.62V41H34.4a.5.5 0 01-.5-.5v-1.26c0-.27.22-.5.5-.5z"/></svg>