<!-- by TradingView --><svg width="56" height="56" xmlns="http://www.w3.org/2000/svg"><path fill="#F0F3FA" d="M0 0h56v56H0z"/><path fill="#242A78" d="M10 16h36v15H10z"/><path fill="#8EB7E2" d="M10 32h36v2H10zm0 3h36v2H10zm0 3h36v2H10z"/><path fill-rule="evenodd" d="M17.578 19c.126.275.408 1.024.422 1.814.014.79.006 4.078 0 5.623-.03.39-.178 1.247-.422 1.563h1.69c-.12-.39-.268-1.308-.268-1.868v-2.253c.252.362.54.881.847 1.433.606 1.09 1.283 2.306 1.885 2.688H23c-.683-.72-1.6-2.18-2.37-3.403l-.201-.32c.581-.24 1.817-1.31 1.803-2.703C22.214 19.83 20.619 19 19.772 19h-2.194zM19 20v3.361c.742-.01 2.217-.362 2.178-1.695C21.138 20.333 19.71 20 19 20z" fill="#fff"/><path d="M31 19h-6.462L24 20.59c.919-.4 2.438-.578 3-.59v6.263c0 .696-.427 1.337-.559 1.737h2.118c-.244-.532-.559-1.23-.559-1.737V20c1.163-.015 2.192.404 2.462.59L31 19z" fill="#fff"/><path fill-rule="evenodd" d="M35.53 19l-3.772 8.005c-.126.242-.455.78-.758.995h1.796c0-.166.028-.597.14-.995.06-.214.321-.656.575-1.084.219-.37.431-.729.502-.921h2.914l1.134 2.129c.053.173.156.589.14.871H40c-.36-.512-1.201-1.837-1.696-3.048-.495-1.211-2.056-4.473-2.774-5.952zm-.022 2.463L34.448 24h2.041l-.981-2.537z" fill="#fff"/></svg>