<!-- by TradingView --><svg width="56" height="56" viewBox="0 0 56 56" xmlns="http://www.w3.org/2000/svg"><path fill="#15322E" d="M0 0h56v56H0z"/><path d="M34.56 17.81c.84 0 1.66.19 2.44.38a9.56 9.56 0 1 0-12.68 12.15 10.51 10.51 0 0 1 10.24-12.53Zm-2.84 10.34c0-.83-.1-1.63-.28-2.4a9.44 9.44 0 0 1 6.25 8.82c0 5.21-4.33 9.43-9.66 9.43a9.66 9.66 0 0 1-8.88-5.73c.65.12 1.33.19 2.02.19 5.83 0 10.55-4.62 10.55-10.3ZM18.2 19a10.5 10.5 0 0 0 12.16 12.82 9.55 9.55 0 0 1-8.8 5.87A9.6 9.6 0 0 1 12 28.03 9.65 9.65 0 0 1 18.19 19Zm9.75 5.46c-.84 0-1.65.1-2.44.28a9.56 9.56 0 0 1 8.95-6.23A9.6 9.6 0 0 1 44 28.14c0 3.98-2.4 7.4-5.81 8.86a10.48 10.48 0 0 0-10.25-12.54Z" fill="#fff"/></svg>