<!-- by TradingView --><svg width="56" height="56" xmlns="http://www.w3.org/2000/svg"><path fill="#262861" d="M0 0h56v56H0z"/><path d="M35 25h-1v7h1v-7z" fill="#fff"/><path d="M36 25h-1v7h1v-7zm4.272 6c-.337 0-.653-.065-.927-.173-.274-.13-.526-.282-.716-.52a2.266 2.266 0 01-.463-.8 3.114 3.114 0 01-.168-1.018c0-.39.063-.714.168-1.039.105-.303.274-.563.463-.779.19-.216.442-.39.716-.498a2.51 2.51 0 01.906-.173c.273 0 .547.043.779.108.231.065.442.173.631.303.19.13.316.303.442.498.106.195.169.411.19.65h-.653c-.02-.152-.042-.304-.126-.412a.86.86 0 00-.295-.324 1.501 1.501 0 00-.421-.195 2.234 2.234 0 00-.547-.065c-.232 0-.464.043-.653.13a1.7 1.7 0 00-.505.368 1.862 1.862 0 00-.337.606c-.085.238-.127.52-.127.822 0 .303.042.585.127.823.084.238.19.454.337.606.147.173.315.303.505.39.19.086.421.13.653.13.337 0 .631-.066.884-.174.253-.108.463-.281.632-.52v-.735h-1.243v-.585h1.853v2.468h-.442l-.168-.498c-.316.411-.822.606-1.495.606zm6.885-4.913l-1.853 2.77v2.056h-.632v-2.056l-1.852-2.77h.758l1.41 2.207 1.39-2.207h.78zm2.59-.087a2.5 2.5 0 01.905.173c.274.13.506.282.716.498.19.216.358.476.464.78.105.302.168.649.168 1.017 0 .367-.063.714-.168 1.017a2.727 2.727 0 01-.464.8c-.19.217-.442.39-.716.52-.273.13-.568.173-.905.173-.337 0-.632-.065-.905-.173a2.114 2.114 0 01-.716-.52 2.264 2.264 0 01-.464-.8 3.114 3.114 0 01-.168-1.017c0-.368.063-.715.168-1.018a2.37 2.37 0 01.464-.779c.21-.216.442-.39.716-.498.273-.108.568-.173.905-.173zm-.021 4.459c.232 0 .442-.043.653-.13.19-.087.358-.216.505-.39a1.86 1.86 0 00.337-.606c.084-.238.126-.52.126-.822a2.5 2.5 0 00-.126-.823c-.084-.238-.19-.454-.337-.606a1.391 1.391 0 00-.505-.368c-.19-.086-.4-.13-.632-.13-.232 0-.442.044-.653.13-.19.087-.379.217-.505.39a1.862 1.862 0 00-.337.606c-.084.238-.126.52-.126.822 0 .303.042.585.126.823.084.238.19.455.337.606.147.173.316.303.505.39.19.065.4.108.632.108z" fill="silver"/><path d="M23.902 26.124l-.226 1.117c1.967-.28 2.324.279 2.324.601v.065s-3-1.032-3 1.396c0 2.427 3 1.46 3 1.46V31h2v-3.867c0-1.654-4.098-1.01-4.098-1.01zm1.463 3.652c-.349 0-.615-.237-.615-.538 0-.3.266-.537.615-.537.348 0 .635.237.635.537 0 .301-.287.538-.635.538zM6 28.3V31H4v-5h1.91v.35s.482-.407 1.427-.343v1.543s-.955-.13-1.337.75zm25.518-2.193v1.417c-.222-.172-.704-.15-.865-.043-.583.429.985.815.985 2.017C31.638 31 30.03 31 29.628 31c-.402 0-1.105-.107-1.105-.107v-1.417c.22.172.703.15.864.043.583-.429-.985-.815-.985-2.017C28.402 26 30.01 26 30.412 26c.422 0 1.106.107 1.106.107zm-9.086 0v1.417c-.22-.172-.703-.15-.864-.043-.583.429.985.815.985 2.017C22.553 31 20.945 31 20.543 31c-.402 0-1.106-.107-1.106-.107v-1.417c.221.172.704.15.864.043.583-.429-.984-.815-.984-2.017C19.317 26 20.925 26 21.327 26c.402 0 1.105.107 1.105.107z" fill="#fff"/><path d="M29.628 31.132c-.18 0-.362-.021-.563-.043-.22-.021-.22.428-.22.428s.3-.107.723-.107c.543 0 1.347.342 1.588-.171.18-.385.1-.535.1-.535-.563.385-1.366.428-1.628.428zM10.17 29.483l3.418-1.902C13.146 26.662 12.04 26 10.754 26c-1.689 0-3.056 1.111-3.056 2.5S9.065 31 10.754 31c.965 0 1.809-.214 2.392-.598l-.1-1.453s-1.368 1.047-2.875.534zm-.02-2.116c.724-.427 1.247-.085 1.247-.085l-1.789 1.004c0-.021-.18-.491.543-.919zm6.172.371L17.005 26h2.01l-2.352 6h-2.09l.764-1.908L13.547 26h2.01l.765 1.738z" fill="#fff"/></svg>