<!-- by TradingView --><svg width="56" height="56" xmlns="http://www.w3.org/2000/svg"><path fill="#31367D" d="M0 0h56v56H0z"/><path fill-rule="evenodd" d="M25.747 17l8.38 3.624c2.94 3.97 6.233 9.72 6.677 13.496.97 1.05 1.905 2.087 2.802 3.082.475.526.938 1.04 1.391 1.54 2.31 2.541 3.624 4.982 3.624 4.982s-1.7-2.315-4.53-5.209a63.539 63.539 0 00-3.259-3.1c-.26 2.762-2.886 3.745-9.876.609-3.908-1.754-7.195-4.017-9.945-6.16.502 2.063 1.17 3.783 2.697 6.16l-1.871-1.203c-1.25-2.528-1.943-5.125-2.43-7.63-.796-4.077 3.864-3.171 8.155-1.358 4.001 1.69 7.153 4.22 10.453 6.87.437.35.876.703 1.32 1.056 2.348 1.866 3.485 2.965 3.977 3.483l.327.367s-.087-.115-.327-.367l-1.485-1.671c-3.288-3.144-6.506-6.108-9.004-8.187A26.969 26.969 0 0026 23.204c-9.532-4.082-11.858-.443-11.322 4.854.092.906.261 1.77.414 2.427l-.896-.576s-.535-1.72-.728-3.624c-.11-1.082-.084-2.09.106-2.968-5.43-5.246-5.265-5.411-5.265-5.411s1.424 1.34 5.617 4.324c.632-1.394 1.87-2.264 3.894-2.268 5.36-.009 10.334 2.675 14.823 6.305-1.673-3.024-4.63-6.637-6.896-9.267zm-5.3 9.654c.18-4.57 10.36 1.021 13.509 3.395.102 4.764-9.622-.931-13.508-3.395z" fill="#fff"/></svg>