<!-- by TradingView --><svg xmlns="http://www.w3.org/2000/svg" width="56" height="56"><path fill="#F0F3FA" d="M0 0h56v56H0z"/><path d="M14.33 16.55S7.07 20.67 8.1 27.89c.88 6.16 8.55 9.03 10.23 9.59l1.21-1.18C17.78 35.73 9 32.49 10 25.1c1.07-7.84 14.17-13.74 28.81-12.2 0 0-13.22-3.63-24.48 3.65z" fill="#00BAF2"/><path d="M17.22 18.03s-5.84 3.44-5 9.33c.73 5.01 6.97 7.45 8.37 7.92l1.08-1.05c-1.33-.44-8.46-3.08-7.63-9.14.87-6.4 11.37-11.2 23.32-9.94 0 0-11.38-2.55-20.13 2.89" fill="#00BAF2"/><path d="M19.97 19.84s-4.47 2.53-3.83 6.98c.53 3.73 5.69 5.59 6.98 6l1.26-1.22s-7.1-1.58-6.42-6.63c.62-4.45 8.35-7.93 17.5-7.39 0 0-8.55-2.25-15.49 2.25" fill="#00BAF2"/><path d="M25.57 30.43l1.2-1.18c-.88-.22-5.79-1.63-4.97-4.62 1.12-4.13 8.31-4.97 8.31-4.97s-7.5-.45-9.79 4.47c0 0-2 4.62 5.25 6.3" fill="#00BAF2"/><path d="M41.69 39.44s7.24-4.12 6.21-11.34c-.88-6.16-8.55-9.03-10.23-9.6l-1.21 1.19c1.76.57 10.55 3.8 9.54 11.2-1.07 7.84-14.17 13.73-28.82 12.2 0 0 13.22 3.64 24.49-3.64" fill="#0055A5"/><path d="M38.78 37.96s5.84-3.44 5-9.33c-.72-5.02-6.98-7.44-8.37-7.92l-1.08 1.05c1.33.44 8.46 3.07 7.63 9.14-.87 6.4-11.37 11.2-23.31 9.96 0 0 11.38 2.54 20.13-2.9" fill="#0055A5"/><path d="M36.03 36.15s4.46-2.54 3.83-6.99c-.53-3.73-5.69-5.6-6.98-5.99l-1.26 1.23s7.1 1.55 6.43 6.6c-.62 4.45-8.34 7.93-17.5 7.4 0 0 8.55 2.24 15.49-2.26" fill="#0055A5"/><path d="M30.43 25.55l-1.2 1.18c.89.23 5.78 1.64 4.97 4.63-1.12 4.12-8.31 4.97-8.31 4.97s7.5.44 9.79-4.47c0 0 2-4.63-5.25-6.3" fill="#0055A5"/></svg>