<!-- by TradingView --><svg xmlns="http://www.w3.org/2000/svg" width="56" height="56"><path fill="#F0F3FA" d="M0 0h56v56H0z"/><path d="M9.62 30v-1h4.89c.28 0 .73-.54.28-.76l-3.05-1.38c-1.03-.52-1-2.06.01-2.63.5-.27 1.32-.23 2.28-.23H17v1h-3.56C11.53 26.29 17 26.48 17 28.24c.01.52-.25 1.18-.81 1.46-.57.3-1.43.3-2.4.3H9.63zM44 24v1.55c0 .96.38 1.45 1.44 1.45 1.13 0 1.56-.41 1.56-1.45V24h2v2.06c0 1.6-1.12 1.84-2.5 1.94v2h-2v-2c-1.21.1-2.5-.62-2.5-1.94V24h2zm-10 6v-3.4c0-1.78.4-2.6 2.27-2.6H41v6h-2v-2h-3v-1h3v-2h-3v5h-2zm-16 0v-3.4c0-1.78.4-2.6 2.27-2.6H25v6h-2v-2h-3v-1h3v-2h-3v5h-2zm8 0v-6h5.88c.72.03 1.12.85 1.12 1.65 0 1.03-.57 1.2-.64 1.34.33.08.64.77.64 1.17V30h-2v-1.37c0-.27-.07-.63-.4-.63H28v-1h2.28c.92 0 1-1.97-.1-2H28v5h-2z"/><path d="M15.5 22a7.5 7.5 0 100 15c4.02 0 7.5-3.13 7.5-7h1c0 4.5-4 8-8.5 8a8.5 8.5 0 110-17v1z" fill="#00B2F5"/><path d="M11 30H6v-1h5v1zm4 9v-9h1v9h-1z" fill="#00B2F5"/><path d="M8 30H7v-1h1v1zm8 7v1h-1v-1h1z" fill="#F0F3FA"/></svg>