<!-- by TradingView --><svg xmlns="http://www.w3.org/2000/svg" width="56" height="56"><path fill="#F0F3FA" d="M0 0h56v56H0z"/><path d="M13.05 23c2.11 0 2.67 1.3 2.75 2h-1.9c-.15-.65-.67-.74-.98-.74-.32 0-.73.09-.72.52 0 .35.64.51.95.55C16.04 25.9 16 27.4 16 27.6c0 .19-.06 2.4-2.95 2.4-2.4 0-3.04-1.55-3.05-2.4h2c.17.96.86 1 1.15 1 .22 0 .84-.1.84-.67 0-.43-.7-.7-1.07-.77-2.43-.53-2.7-1.5-2.68-2.17.03-.67.42-1.99 2.8-1.99zM16 30l2.4-7h2.17L23 30h-2.1l-.33-1h-2.16l-.33 1H16zm3.48-5l-.57 2.5h1.2l-.63-2.5zM24 23v7h2v-3.3l2.2 3.3H30v-7h-2v3.29L25.81 23H24zm7 3h2v1.5h-2zm8-3h-5v7h2v-.01h3v-1.53h-3V27.2h3v-1.52h-3v-1.16h3V23zm4 0h-2v7h2v-.01h3V28.5h-3V23z" fill="#002859"/><path d="M6 20h44v17h-6v-1h5V21H7v15h5v1H6V20z"/><path d="M13 33v3h.64v-1.83l.85 1.05.88-1.05V36H16v-3h-.63l-.88 1.17-.85-1.17H13zm4.54 0h-.74v1.6a1.4 1.4 0 102.8 0V33h-.73v1.84a.67.67 0 01-1.33 0V33z"/><ellipse cx="17.75" cy="32.09" rx=".3" ry=".34"/><ellipse cx="18.52" cy="32.09" rx=".3" ry=".34"/><ellipse cx="33.2" cy="32.09" rx=".3" ry=".34"/><ellipse cx="39.37" cy="32.09" rx=".3" ry=".34"/><path d="M32.82 33h.75v3h-.75zm6.17 0h.75v3h-.75zm-14.71 0h-.75v3h1.99v-.66h-1.24v-.5h1.24v-.67h-1.24v-.5h1.24V33h-1.24zm13.15 0h-.74v3h1.95v-.66h-1.2V33zm-14.49 0h-.75v1.17h-1.25V33h-.75v3h.75v-1.17h1.25V36h.75v-3zM26 33v3h.72v-1.84l1.6 1.84h.6v-3h-.7v1.78L26.65 33H26z"/><path fill-rule="evenodd" d="M30.84 33h-1.37v3h1.37a1.5 1.5 0 000-3zm-.13.6h-.53v1.83h.53a.91.91 0 100-1.83z"/><path d="M36.11 33.25v.58c-.31-.18-.72-.3-.95-.29-.23 0-.4.1-.4.24 0 .15.1.22.4.33.3.1 1.07.34 1.09 1.02.01.65-.6.85-1.13.87-.42.01-.85-.17-1-.26v-.67c.07.12.65.38 1 .36.28-.03.36-.14.37-.2.03-.07 0-.25-.33-.35-.42-.13-1.14-.45-1.12-1.05.01-.6.57-.84 1.12-.83.44.01.82.17.95.25zm6.65-.25h-.8l-.92 1.3V33h-.7v3h.7v-1.35L42.1 36h.91l-1.21-1.6.96-1.4z"/></svg>