<!-- by TradingView --><svg xmlns="http://www.w3.org/2000/svg" width="56" height="56"><path fill="#F0F3FA" d="M0 0h56v56H0z"/><path d="M14.99 15.86a4.18 4.18 0 00-2.9 2.97L32.53 42.3c1.88-.79 5.54-2.95 5.2-5.35-.44-3-4.86-2.69-7.2-2.88-2.34-.2-3.23-1.3-3.3-2.75-.08-1.45 1.43-4.32 2.43-6.01 1-1.7 1.93-3.44 1.77-4.72-.13-1.02-1.09-1.8-1.55-2.08a115.07 115.07 0 00-7-4.17 3.75 3.75 0 00-2.33 0l-5.56 1.5z" fill="#017DC5"/><path d="M23.97 22.93l6.3-2.18c.3 1.1-.24 2.37-.56 2.87a80.8 80.8 0 00-2.74 5.33c-.44 1.14-.86 2.97.24 4.46.89 1.19 2.86 1.37 3.73 1.31 1.89-.12 5.22-.3 6.22 1.71 1 2.02-1.26 4.15-2.52 4.96l-7.67 4.36c-2.75 1-3.82-1.28-4.02-2.48l-2.6-13.7a6.35 6.35 0 013.62-6.64z" fill="#ACD5F1"/><path d="M26 12.88c-.9.25-1.57.74-1.8.95.7-.48 1.56-.28 1.9-.12l7.57 4.09c1.37.73 1.72 1.64 1.72 2.46 0 .8-.35 2.04-1.53 4.28-1.18 2.24-1.56 3.58-1.57 4.3-.02.72.19 2.09 3.14 2.42 2.95.32 4.25 1.9 4.31 3.71a6.44 6.44 0 01-.94 3.37l.88-.14c1.34-4.76 4.09-14.89 4.3-17.36.22-2.48-1.56-3.58-2.52-4.01a873.58 873.58 0 00-10.48-4.7c-.64-.24-1.6-.1-2 0-.62.15-2.07.5-2.97.75z" fill="#017DC5"/><path d="M40.08 17.57l-3.97 1.27c.64 1.56-.09 3.32-.53 4-.89 1.45-2.64 4.71-2.54 6.24.1 1.53 2.5 1.78 3.6 1.96 1.1.18 3.33 1.21 3.36 3.84.04 2.64-1.98 4.46-3 5.04.9-.5 2.94-1.66 4-2.3 1.07-.63 1.43-2.09 1.47-2.74l1.36-12.4c.2-1.52.35-2.94-.92-4.18-1.02-1-2.31-.9-2.83-.73z" fill="#ACD5F1"/><path d="M22.36 44.2c1 1.58 2.73 1.82 3.67 1.8A3.1 3.1 0 0123 43.47c-.5-2.64-1.7-9.01-2.55-13.36a6.4 6.4 0 013.87-7.35 3.7 3.7 0 01-3.2-.9l-5.42-4.55a2.3 2.3 0 00-3.08.4c-.82.94-.64 2.4-.49 2.98l3.24 12.05c.24.89.89 2.05 1.18 2.51l5.81 8.95z" fill="#77B6E2"/></svg>