<!-- by TradingView --><svg xmlns="http://www.w3.org/2000/svg" width="56" height="56"><path fill="#F0F3FA" d="M0 0h56v56H0z"/><path d="M19.3 27c0-3 6.8-8 10.3-11-1.7 4.73-.57 7 1.28 8.5C34 27 35.9 26.9 36.8 29c.5 1.19-.71 3.46-4.8 7-.8.8-4 3.33-5.5 4.5.22-.66 1.98-3.95 0-7s-7.2-3.8-7.2-6.5z" fill="#C40204"/><path d="M27.17 16C22.43 20.02 18 24.18 18 27c0 2.03.9 2.58 2.11 3.32l.89.57 1.4.94c1.68 1.1 3.28 2.14 3.6 3.31.57 2.1-.31 4.13-1.26 5.71C14.69 39.92 7 34.75 7 28.5c0-6.74 8.96-12.23 20.17-12.5zm3.83.13c-2.3 5.73.5 7.38 3.42 9.1 1.1.64 2.22 1.3 3.08 2.19 3.05 3.14-2.74 8.17-5.17 10.29L32 38c-.38.39-1.85 1.75-3.42 3C39.91 40.8 49 35.29 49 28.5c0-6.3-7.82-11.5-18-12.37z" fill="#030F6D"/></svg>