<!-- by TradingView --><svg xmlns="http://www.w3.org/2000/svg" width="56" height="56"><path fill="#FACB01" d="M0 0h56v56H0z"/><path d="M28 14h-1v4.46h.3V19h.7v-5zm2 0h-1v4.46h.3V19h.7v-5zm-.06 8c.87 0 1.07 1.32 1.06 2h-1v-1h-2v1.51c.99.09 1.94.66 2 2.02.04 1.09-.44 1.43-.68 1.47H28v-.68c.26 0 1.16.08 1.14-.64-.02-.59-.66-.73-.98-.73L27 24.6V22h2.94z"/><path d="M31.25 20h-2.07v1.53h1.66L33 19.88 28.76 32h.79l-1.42 4h1.25l-2.63 5.84 8.67-11.4h-1.96L36 25.61v-1.12l-3.64 1.12 1.88-4.88 3.76-3L35 16v-2h-4v1.24l2.28 2.88L31.25 20z" fill="#DE2006"/><path d="M28.48 21.58V20h-2.15l-3.5-2h-2.35l-1.21 3h-1.33L16 28.1l2.56-3.1h.62l2.9-3.66 1.74 1.83 2.25 4.93-1.94 4.17-1.02-.86L18.87 48l4.95-10.2h1.12l3.73-6.99L23.24 20h1.65l2.13 1.58h1.46z" fill="#DE2006"/></svg>