<!-- by TradingView --><svg xmlns="http://www.w3.org/2000/svg" width="56" height="56"><path fill="#F27D00" d="M0 0h56v56H0z"/><path d="M25.57 14h-5.83l-6.81 6.62c-5.32 5.91-2.18 12.94 0 15.43l3-2.97a7.76 7.76 0 01.58-10.24L25.57 14zm4.86 28h5.83l6.81-6.62c5.32-5.92 2.18-12.95 0-15.43l-3 2.97a7.76 7.76 0 01-.58 10.24L30.43 42z" fill="#7B7870"/><path d="M18.7 24.63L29.65 14h6l-17.5 16.97c-2.02-2.94-.57-5.24.53-6.34zm18.67 6.77L26.4 42h-6l17.5-16.94c2.02 2.93.57 5.24-.53 6.34zm3.83-13.23l-2.99-2.92L14.87 37.9l2.94 2.84 23.38-22.57z" fill="#fff"/></svg>