<!-- by TradingView --><svg width="56" height="56" viewBox="0 0 56 56" xmlns="http://www.w3.org/2000/svg"><path fill="#F0F3FA" d="M0 0h56v56H0z"/><path d="M18.86 21C16.73 21 15 22.83 15 25.09A3.82 3.82 0 0 0 18.86 29h3.08c.38 0 1.06 0 1.06 1s-.68 1-1.06 1H5.58C4.71 31 4 31.57 4 32.5S4.7 34 5.58 34H22.6c2.13 0 3.4-1.74 3.4-4s-1.27-4-3.4-4h-3.58c-.38 0-1.02-.23-1.02-1s.64-1 1.02-1H32.5c1.64 0 2.5 1.77 2.5 3.5s-.86 3.5-2.5 3.5H30v-4.12c0-.49-.37-.88-.83-.88h-1.34c-.46 0-.83.4-.83.88v6.1c0 .56.43 1.02.96 1.02h4.9c3.4 0 5.14-2.91 5.14-6.5S36.25 21 32.87 21H18.86Z" fill="#0201FC"/><path d="M50 24c-.96-1.43-1.68-2.35-3.48-3H36c1.9 1.1 2.1 1.36 3.27 2.95 0 .02.02.03.03.05H42v10h3V24h5Z" fill="#0201FC"/></svg>