<!-- by TradingView --><svg width="56" height="56" viewBox="0 0 56 56" xmlns="http://www.w3.org/2000/svg"><path fill="#F0F3FA" d="M0 0h56v56H0z"/><path d="M28.5 22c2.77.01 9.1-.77 12.5-4-1.64.98-6.43 3-12.5 3S17.64 18.98 16 18c3.4 3.23 9.73 4.01 12.5 4Z" fill="url(#a)"/><path d="M28 40c4.87.02 16-1.35 22-7-2.89 1.72-11.32 5.52-22 5.53-10.68 0-19.11-3.81-22-5.53 6 5.65 17.13 7.02 22 7Z" fill="url(#b)"/><path d="M38.87 23.87c.28.03.54.11.8.2.3.08.58.17.87.17 1.05.01 2.24 0 3.58-.06.55-.03 1.09.16 1.6.57 2.44 1.93.87 5.86-.47 7.94a.63.63 0 0 1-.58.31H37.3a6.11 6.11 0 0 1-1.8-.8.1.1 0 0 0-.07.01.1.1 0 0 0-.03.03l-.14.26c-.19.35-.3.5-.73.5h-7.7a.55.55 0 0 0-.34.12 5.46 5.46 0 0 1-4.82 1.12 11.5 11.5 0 0 1-2.2-.82c-.16-.08-.2-.15-.21-.3a.06.06 0 0 0-.04-.05l-1.53-.61c-.1-.04-.19-.02-.26.07-.69.88-1.5 1.55-2.43 2.01-.63.32-1.26.47-1.9.46a6.33 6.33 0 0 1-1.95-.34 3.49 3.49 0 0 1-1.58-1.3c-.96-1.45-.59-3.52.27-4.93.02-.05.03-.1.01-.15a2.05 2.05 0 0 0-.23-.43c-.08-.12-.15-.24-.2-.36-.74-1.78-.2-3.4 1.3-4.6A8.95 8.95 0 0 1 16.72 21c1.72.06 3.08.96 3.43 2.7.01.04.03.08.06.1.03.02.07.04.1.04.74 0 1.4.2 2.01.6.09.06.18.1.27.14.05.02.1.01.15-.02 1-.6 2.11-.79 3.31-.57l.4.09c.26.07.54.14.85.14h2.95c.2 0 .39 0 .58-.02a3.58 3.58 0 0 1 1.79.2c.05.02.1.02.15.01l.34-.1c.2-.05.41-.12.6-.14a2.5 2.5 0 0 1 1.83.54.27.27 0 0 0 .33 0 4.1 4.1 0 0 1 3-.85Z" fill="url(#c)"/><path d="M39.18 24.65c1.47.29 3 .38 4.57.26.57-.05.96-.02 1.18.08 1.75.77 1.55 3.35 1 4.83a15.3 15.3 0 0 1-1.09 2.38.39.39 0 0 1-.34.2 85.59 85.59 0 0 0-6.02.06c-.18.01-.44-.02-.8-.08a3.68 3.68 0 0 1-2.36-1.24.05.05 0 0 0-.05 0l-.01.03-.62 1.09a.22.22 0 0 1-.19.1c-2.24.06-4.73.07-7.46.06-.35 0-.54-.01-.85.22a5.05 5.05 0 0 1-4.65.87c-.14-.03-.57-.2-1.3-.47a.12.12 0 0 1-.1-.11c0-.08.02-.14.06-.2a.18.18 0 0 0-.04-.24.17.17 0 0 0-.09-.04c-1-.08-1.86-.43-2.57-1.03-.07-.06-.12-.05-.16.03a5.08 5.08 0 0 1-3.19 2.65c-.48.15-.95.2-1.4.13a6.54 6.54 0 0 0-.67-.07c-.26 0-.47-.05-.61-.13a3.43 3.43 0 0 1-1.44-1.27 4.57 4.57 0 0 1 .11-3.4l.5-1.07a.13.13 0 0 0 0-.12 4.15 4.15 0 0 0-.29-.48 3 3 0 0 1-.53-2.17c.09-.6.42-1.19.99-1.77 1.43-1.46 3.52-2.04 5.49-2.1.74-.04 1.44.14 2.1.5.83.46 1.22 1.23 1.16 2.3a.12.12 0 0 0 .15.12c1.12-.2 2.08.1 2.89.89a.1.1 0 0 0 .14 0c.45-.4.9-.65 1.33-.73a4.8 4.8 0 0 1 2.3.02c.3.1.55.15.75.15l3.15.01.96-.05c.38-.02.76.02 1.13.12.16.05.41.24.62.13 1.09-.5 1.98-.3 2.7.6a.1.1 0 0 0 .08.03.1.1 0 0 0 .08-.03 3.26 3.26 0 0 1 3.39-1.06Z" fill="#060403"/><path d="M13.67 29.14c-.23-.4-1.2-1-1.85-1.46-1.04-.74-1.38-2.13-.36-3.07a6.63 6.63 0 0 1 3.91-1.74c.92-.12 1.79-.21 2.5.28 1.27.89-.07 2.64-.82 3.4a.3.3 0 0 1-.22.08h-2a.11.11 0 0 1-.1-.07.11.11 0 0 1 .02-.12c.38-.41.61-.89.68-1.43.02-.14-.04-.21-.19-.21-.3 0-.53.13-.7.37-.2.3-.27.93 0 1.24.07.08.11.18.14.31 0 .06.04.11.08.14.43.3.71.53.85.67 2.61 2.69-.6 6.32-3.59 5.5-1.73-.46-1.35-2.63-.64-3.74a.13.13 0 0 1 .1-.06h2.13a.06.06 0 0 0 .06-.03.06.06 0 0 0 0-.06Z" fill="#fff"/><path d="M20.05 27.36c-.49.1-.64.95-.64 1.4 0 .18.06.32.19.44.5.46 1.15.36 1.75.16a.06.06 0 0 1 .06.02.06.06 0 0 1 .02.07l-.67 1.42a.21.21 0 0 1-.17.13c-.97.13-2.1.04-2.72-.8-.59-.79-.35-2.12.05-2.96.37-.76.92-1.26 1.67-1.5.64-.2 1.8-.13 2.14.59.33.7.01 1.55-.38 2.16-.1.13-.25.2-.47.18h-1.07c-.29.02-.31-.06-.07-.23.25-.18.43-.45.55-.8a.21.21 0 0 0-.04-.21.2.2 0 0 0-.2-.07ZM37.61 28.7a.16.16 0 0 0-.12.1.16.16 0 0 0 0 .15c.4.6 1.06.74 2.02.4.07-.03.09-.01.06.06l-.68 1.43a.2.2 0 0 1-.12.12 1.1 1.1 0 0 1-.41.04c-1.42-.04-2.74-.5-2.7-2.1.04-1.44.81-2.92 2.28-3.2.84-.17 1.95.05 2.03 1.08.04.57-.12 1.13-.49 1.7-.09.14-.23.2-.43.2-.73-.02-1.21-.02-1.44.02ZM24.6 29.69h-1.64a.16.16 0 0 1-.15-.12c-.7-2.21.5-4.32 3.04-3.79 1.56.33 1.52 2.02 1.17 3.26-.74 2.61-2.62 4.2-5.4 3.34-.1-.03-.13-.1-.1-.2l.64-1.64.02-.03a.08.08 0 0 1 .06-.02h.03c.98.41 1.78.2 2.4-.65.08-.1.05-.15-.08-.15ZM30.22 26.5a.09.09 0 0 0 .06.08.08.08 0 0 0 .1-.02c.65-.74 1.68-.94 2.1.21l.03.04.04.01a.08.08 0 0 0 .07-.03c.56-.72 1.82-1.41 2.29-.07.46 1.34-.24 2.95-.96 4.2a.14.14 0 0 1-.12.08h-1.75c-.06 0-.08-.03-.04-.08.51-.83.88-1.53 1.09-2.61 0-.04 0-.09-.03-.14A.75.75 0 0 0 33 28a.14.14 0 0 0-.06-.05c-.15-.06-.24 0-.28.15a12 12 0 0 1-1.15 2.82.14.14 0 0 1-.13.08h-1.8l-.02-.03a.06.06 0 0 1 0-.05c.5-.83 1.09-1.79 1.04-2.77-.01-.22-.1-.3-.28-.21a.19.19 0 0 0-.1.12c-.3 1.1-.69 1.88-1.13 2.87a.12.12 0 0 1-.12.07h-1.78a.07.07 0 0 1-.06-.1c.48-1.05 1.7-3.74 1.08-4.8a.05.05 0 0 1 0-.06.05.05 0 0 1 .04-.02h1.88c.06 0 .1.03.1.1v.38ZM42.83 26.45a.12.12 0 0 0 .08.12.12.12 0 0 0 .13-.03c.36-.38 1.05-.81 1.54-.48.86.6.7 2.13.43 3.04-.23.73-.52 1.17-.9 1.86a.09.09 0 0 1-.08.04h-1.77c-.07 0-.09-.03-.06-.1.42-.8 1.21-1.91.98-2.88-.01-.06-.05-.1-.1-.1-.13-.01-.2.03-.24.14-.32 1.17-.7 1.93-1.13 2.83a.2.2 0 0 1-.17.11H39.8a.05.05 0 0 1-.04-.03.06.06 0 0 1 0-.05c.56-1.24 1.6-3.52 1.1-4.82-.01-.06 0-.08.06-.08h1.8c.08 0 .11.03.11.1v.33Z" fill="#fff"/><path d="M13.7 30.2c-.09.43-.01.8.17.84.18.04.4-.28.5-.7.08-.44 0-.82-.18-.86-.19-.03-.4.28-.5.71ZM37.42 27.78c-.21.32-.28.65-.16.74.13.08.4-.1.62-.43.21-.32.28-.65.15-.74-.12-.08-.4.1-.61.43ZM24.94 29.38a.13.13 0 0 1-.07.07.13.13 0 0 1-.11 0c-.08-.05-.16-.16-.22-.32-.22-.57-.3-1.43.3-1.8a.2.2 0 0 1 .26.05l.04.08c.15.53.08 1.17-.2 1.92Z" fill="#060403"/><defs><linearGradient id="a" x1="41" y1="20" x2="16" y2="20" gradientUnits="userSpaceOnUse"><stop stop-color="#E8C97F"/><stop offset=".12" stop-color="#EDDFAE"/><stop offset=".4" stop-color="#997A4D"/></linearGradient><linearGradient id="b" x1="50" y1="36.5" x2="6" y2="36.5" gradientUnits="userSpaceOnUse"><stop stop-color="#E8C97F"/><stop offset=".12" stop-color="#EDDFAE"/><stop offset=".4" stop-color="#997A4D"/></linearGradient><linearGradient id="c" x1="47" y1="28" x2="9" y2="28" gradientUnits="userSpaceOnUse"><stop stop-color="#E8C97F"/><stop offset=".12" stop-color="#EDDFAE"/><stop offset=".4" stop-color="#997A4D"/></linearGradient></defs></svg>