<!-- by TradingView --><svg xmlns="http://www.w3.org/2000/svg" width="56" height="56"><path fill="#00488F" d="M0 0h56v56H0z"/><circle cx="28" cy="28" r="6" fill="#fff"/><path d="M33.91 22.42l8.09-8.8C40.53 12.59 37.64 12 36.13 12c-11.35 0-15.56 9.48-15.83 13.94 1.22-3.74 4.37-5.86 7.66-5.86a8.86 8.86 0 015.95 2.34z" fill="url(#aa4fofzv5)"/><path d="M22.1 33.71L14 42.38c1.47 1.03 4.36 1.62 5.87 1.62 11.35 0 15.56-9.48 15.83-13.94-1.22 3.74-4.37 5.86-7.66 5.86a9.17 9.17 0 01-5.95-2.2z" fill="url(#ba4fofzv5)"/><defs><linearGradient id="aa4fofzv5" x1="20.3" y1="24.39" x2="41.13" y2="13.91" gradientUnits="userSpaceOnUse"><stop stop-color="#ACAEAD"/><stop offset="1" stop-color="#F3F3F5"/></linearGradient><linearGradient id="ba4fofzv5" x1="35.7" y1="31.68" x2="14.31" y2="42.44" gradientUnits="userSpaceOnUse"><stop stop-color="#ACAEAD"/><stop offset="1" stop-color="#F3F3F5"/></linearGradient></defs></svg>