<!-- by TradingView --><svg xmlns="http://www.w3.org/2000/svg" width="56" height="56" viewBox="0 0 56 56"><path fill="#F0F3FA" d="M0 0h56v56H0z"/><path d="M28.16 17.1c-8.76 0-16.2 2.22-18.82 3.33-.96 5.38 1.33 12.37 2.59 15.19 2.17.76 8.45 2.28 16.23 2.28 7.78 0 13.71-1.52 15.7-2.28 3.22-4.81 3.25-12.13 2.86-15.2-2.53-1.1-9.8-3.32-18.56-3.32z" fill="#AB895C"/><path d="M28.58 18a84.9 84.9 0 0 0-18.95 2.29c-.32 2.84-.23 9.8 2.7 14.9.16 0 5.65 1.81 16.25 1.81 8.48 0 13.54-1.2 15.02-1.8 2.93-4.87 3.09-11.97 2.8-14.91A76.41 76.41 0 0 0 28.58 18z" fill="url(#aug2okgtf)"/><path fill-rule="evenodd" d="M8.72 19.26a3.42 3.42 0 0 0-.5.22c-.44 3.47-.5 11.73 2.75 16.96 2.42.86 9.21 2.56 17.1 2.56 7.88 0 14.4-1.7 16.68-2.56 3.62-7.89 3.5-14.6 2.98-16.96C44.86 18.32 36.9 16 28.07 16a60.46 60.46 0 0 0-19.35 3.26zm38.53.62a58.7 58.7 0 0 0-19.18-3.33 61.12 61.12 0 0 0-18.2 2.88c-.48.16-.85.3-1.1.4l-.04.01c-.2 1.73-.28 4.47.03 7.4.33 3.05 1.09 6.26 2.59 8.75 2.5.85 9.1 2.46 16.72 2.46 7.57 0 13.87-1.59 16.27-2.44 3.34-7.4 3.34-13.68 2.9-16.13z" fill="#AB895C"/><path d="M32.99 32l.63-.5 3.94-9 1.64 3.87-1.06 1.2-.82-2-2.46 5.86V32h-1.87zm-9.9-9h-4.52l.43.62v7.86l-.35.52h4.92v-1.9l-1.04.9H20v-3h2.25l.75.47v-2.03l-.75.56H20v-3h2.25c.53 0 1.1.61 1.32.92v-2.41l-.47.49zm-5.03.1v1.87c-.32-.5-1.24-1.01-1.84-1.01-.61 0-1.45.46-1.45 1.11 0 .52 1.08 1.28 1.62 1.59.68.35 2.05 1.38 2.05 2.69 0 1.62-1.74 2.65-2.89 2.65-.92 0-1.8-.3-2.11-.44v-2.1c0 .38 1.19 1.41 1.87 1.41.67 0 1.77-.4 1.77-1.41 0-.81-1.18-1.6-1.77-1.9-.63-.3-1.87-1.22-1.87-2.49 0-1.58 1.78-2.07 2.48-2.07.43 0 .76.1 1.02.17.18.05.32.09.44.09.25 0 .56-.1.68-.16zm6.45-.1h2.29l-.8.49V31h3.03l.97-.71V32h-5.54l.54-.75v-7.76l-.49-.49zm5 0h-1.93l.44.48 3.6 8.52 3.4-8.38.56-.62h-1.56v.48l-2.3 5.5-2.22-5.5V23zm12.46 1.86c-3.72 1.07-4.81 5.07-4.9 6.94h.3c.16-2.49 2.9-4.31 4.24-4.91l.36-2.03zm-3.1 4.26l1.2-1.12 1.3 3.15.65.85h-2.13v-.63l-1.03-2.25z" fill="#F0F3FA"/><defs><linearGradient id="aug2okgtf" x1="28" y1="18" x2="28" y2="37" gradientUnits="userSpaceOnUse"><stop stop-color="#ED2A24"/><stop offset=".47" stop-color="#EB2121"/><stop offset="1" stop-color="#FFDB00"/></linearGradient></defs></svg>