<!-- by TradingView --><svg width="56" height="56" viewBox="0 0 56 56" xmlns="http://www.w3.org/2000/svg"><path fill="#F0F3FA" d="M0 0h56v56H0z"/><path d="M52 23.72V25h-4v-1.28h4ZM49 22h1.5v6.74c0 .48.25.83.77.83a1.46 1.46 0 0 0 .46-.06l.27 1.32a3.38 3.38 0 0 1-.94.17c-1.2.04-2.07-.74-2.06-1.98V22ZM45 31v-7l1.5-.01V31H45ZM45.22 22.28c.15.15.33.22.53.22s.38-.07.53-.22a.72.72 0 0 0 .22-.53c0-.2-.07-.38-.22-.53a.71.71 0 0 0-.53-.22c-.2 0-.38.07-.53.22a.72.72 0 0 0-.22.53c0 .2.07.38.22.53ZM38.5 26.95V31H37v-7h1.5v1.26c.32-.77 1.14-1.26 2.16-1.26 1.5 0 2.35 1.18 2.34 2.6V31h-1.5v-4.15c0-.81-.59-1.47-1.44-1.47-.9 0-1.56.7-1.56 1.57ZM36 28l-7 7-7-7 7-7 7 7Zm-6.83-4a4 4 0 0 0-1.33.21c-.4.14-.74.35-1.02.63-.27.27-.47.62-.6 1.03l1.54.21c.08-.23.24-.43.47-.6.23-.17.55-.26.95-.26.38 0 .68.1.88.28.2.18.3.44.3.77v.02c0 .16-.06.27-.18.34-.11.07-.3.13-.55.16l-.99.11c-.34.04-.67.1-.98.17-.32.08-.6.2-.85.34-.25.15-.45.35-.6.6-.14.25-.21.57-.21.95 0 .45.1.82.3 1.12.2.3.49.53.84.7.35.14.75.22 1.19.22.36 0 .68-.05.94-.15a2.03 2.03 0 0 0 1.1-.92h.05V31H32v-4.67c0-.45-.08-.83-.25-1.13-.17-.3-.39-.53-.66-.7-.28-.18-.58-.3-.92-.39a4.44 4.44 0 0 0-1-.11Zm1.2 4.43c0 .25-.07.48-.2.7-.13.2-.32.38-.56.5-.24.13-.53.2-.86.2-.34 0-.62-.08-.84-.23a.75.75 0 0 1-.33-.66c0-.21.06-.38.17-.5.11-.14.26-.24.46-.32.19-.07.4-.12.65-.15l.39-.06a13.03 13.03 0 0 0 .85-.16.78.78 0 0 0 .27-.12v.8ZM19 31v-7h1.5v1.25c.25-.76 1.1-1.25 1.9-1.25a3.87 3.87 0 0 1 .6.04v1.5a3.11 3.11 0 0 0-.77-.1c-.86 0-1.73.62-1.73 1.5V31H19ZM14.65 31C12.57 31 11 29.66 11 27.52A3.43 3.43 0 0 1 14.56 24C16.6 24 18 25.4 18 27.43V28h-6.17v-1h4.47c-.01-1.02-.67-1.76-1.71-1.76-.96 0-1.82.7-1.83 1.7v.94c0 1.13.8 1.88 1.92 1.88.64 0 1.33-.24 1.6-.88l1.65.17c-.38 1.43-1.94 1.95-3.28 1.95ZM9.85 25.88l-1.5.16a1.16 1.16 0 0 0-.65-.73c-.18-.08-.4-.12-.65-.12-.34 0-.63.07-.86.22-.24.14-.35.33-.35.56 0 .2.07.36.23.48.15.12.4.22.76.3l1.2.25c.66.14 1.15.36 1.48.66.32.3.49.7.49 1.18 0 .42-.13.8-.39 1.13-.25.32-.6.57-1.05.76A4.1 4.1 0 0 1 7 31c-.86 0-1.55-.17-2.07-.52A2.09 2.09 0 0 1 4 29.02l1.61-.15c.07.3.23.54.47.7.23.15.54.23.92.23.4 0 .71-.08.95-.24.24-.15.36-.35.36-.58a.6.6 0 0 0-.24-.48 1.65 1.65 0 0 0-.7-.29l-1.2-.24a2.88 2.88 0 0 1-1.5-.69 1.65 1.65 0 0 1-.47-1.22c0-.42.11-.78.35-1.09.24-.3.57-.55 1-.71.43-.17.92-.26 1.48-.26.82 0 1.47.17 1.94.5.47.35.77.8.88 1.38Z" fill="#861F41"/></svg>