<!-- by TradingView --><svg xmlns="http://www.w3.org/2000/svg" width="56" height="56"><path fill="#FD4F00" d="M0 0h56v56H0z"/><path d="M27.14 31c.17-2 .28-4 .28-6h3.03c.42 0 .74.04.93.08.75.15 1.08.9 1.08 1.6 0 .72-.35 1.38-1.02 1.67.25.88.47 1.78.76 2.65h-2.15a78.48 78.48 0 00-.65-3.36l.08-.11h.14l.17.02c.33 0 .68-.11.68-.5 0-.4-.35-.49-.7-.49-.16 0-.31.04-.47.06L29.17 31h-2.03zm13.4-.01c.18-2 .17-4 .3-5.99h2.42l1.36 3.06.14-3.06h1.85c-.11 1.84-.27 4.02-.27 6h-2.41c-.36-1.06-.87-2.07-1.32-3.09-.05 1.02-.11 2.05-.11 3.08h-1.97zM4 28.99c.14.06.29.12.44.16.3.1.63.21.96.21.17 0 .48-.02.48-.26 0-.55-1.32-1.24-1.61-1.7a1.5 1.5 0 01-.21-.76c0-.49.22-.88.63-1.18.44-.31.99-.46 1.67-.46.58 0 1.17.04 1.73.2l.13 1.63a7.22 7.22 0 00-.71-.18A3 3 0 007 26.6c-.18 0-.45.07-.45.28 0 .52 1.32 1.12 1.6 1.57.13.22.2.48.2.76 0 .6-.22 1.05-.65 1.35-.66.47-1.52.45-2.3.45-.41-.04-.86-.08-1.27-.2L4 29zM8.76 31c.25-1.97.3-4.01.3-6h2.15a43.68 43.68 0 00-.28 6H8.76zm29 0c.26-1.97.3-4.01.3-6h2.15a43.68 43.68 0 00-.28 6h-2.17zm-21.84 0l.1-1.66h-2.2c0-.64.07-1.28.07-1.92.05-.59.02-1.18.08-1.77l.1-.65h-2.19l-.03 1.13c-.02.74-.06 1.48-.06 2.22 0 .6-.04 1.21-.09 1.82-.03.29-.05.58-.09.83h4.3zm21.21 0l.11-1.66h-2.2c0-.64.07-1.28.07-1.92.05-.59.02-1.18.08-1.77l.09-.65H33.1l-.03 1.13c-.02.74-.06 1.48-.06 2.22 0 .6-.04 1.21-.1 1.82l-.08.83h4.3zm-15.27-6l-2.57 6H17l-1.69-6h2.04c0-.03.03.11 0 0l.96 4.05L19.8 25h2.05zm.23 4.25c.07-1.06.07-2.13.1-3.18l.03-1.07h4.6l-.06 1.59c-.85-.1-1.72-.08-2.57-.08l-.04.73c.72 0 1.44-.05 2.15-.05l-.05 1.58-2.15-.04-.05.73c.86 0 1.73.08 2.57-.07L26.57 31h-4.62c.07-.58.1-1.17.14-1.75zm25.17 0c.08-1.06.07-2.13.1-3.18L47.4 25H52l-.07 1.59c-.85-.1-1.71-.08-2.57-.08l-.03.73c.71 0 1.43-.05 2.15-.05l-.06 1.58-2.15-.04-.04.73c.85 0 1.72.08 2.57-.07L51.74 31h-4.61c.07-.58.1-1.17.13-1.75z" fill="#fff"/></svg>