<!-- by TradingView --><svg xmlns="http://www.w3.org/2000/svg" width="56" height="56"><path fill="#471A69" d="M0 0h56v56H0z"/><path fill-rule="evenodd" d="M18.22 18.3c.41-2.62 3-7.95 9.97-8.3 3.07 0 8.18 1.57 9.53 8.86A8.64 8.64 0 0146 27.84c0 2.5-1.04 8.26-7.97 9.85-.41 2.58-2.83 7.84-9.84 8.3a10.05 10.05 0 01-9.97-8.86c-2.68-.1-8.22-2.1-8.22-9.3 0-5.92 5.41-9.35 8.22-9.53zm-.04.9a8.8 8.8 0 00-6.87 8.74c0 3 1.23 8.41 6.87 8.5.02-1.59.75-4.8 3.55-4.85.75 0 1.6.45 1.5 1.68-.09 1.24-1.05 3.26-4.33 3.84a8.72 8.72 0 008.86 7.97c2.57.02 7.76-1.38 7.95-7.13.19-5.64-4.98-7.44-8.82-8.78l-.24-.09c-3.26-1.14-8.47-3.18-8.47-9.89zm26.62 8.9a8.8 8.8 0 01-6.87 8.74c0-6.7-3.31-9.23-7.92-10.84l-.3-.1c-3.85-1.35-9.32-3.26-9.32-7.81 0-5.76 5.39-7.15 7.96-7.13 6.6.19 8.65 5.39 8.86 7.97-3.28.57-4.25 2.6-4.34 3.83-.1 1.23.76 1.68 1.5 1.68 2.8-.05 3.54-3.26 3.56-4.86 5.64.1 6.87 5.52 6.87 8.51zm-26.05 8.42c.03-1.44.9-4.58 2.8-3.8.96.4.68 2.96-2.8 3.8zm18.6-17.01c-.02 1.45-.9 4.59-2.8 3.8-.95-.39-.68-2.96 2.8-3.8zm-18.02.07c-.22 1.7 1.04 5.64 7.78 7.66 8.49 2.54 9.77 6.97 9.77 9.11.59-2-.49-6.78-9.24-9.6-2.96-.94-7.73-3.2-8.31-7.17z" fill="#fff"/></svg>