<!-- by TradingView --><svg xmlns="http://www.w3.org/2000/svg" width="56" height="56"><path d="M0 28a28 28 0 1156 0 28 28 0 01-56 0z" fill="#F0F3FA"/><path d="M4 22.5h1.7V24H4v-1.5zm34.76 7.76h1.64c0 .7.42 1.18 1.07 1.35.7.18 2.15.13 2.15-.88 0-.42-.29-.66-.73-.84-.28-.1-.6-.16-.91-.22-.22-.04-.45-.08-.66-.14-1.14-.28-2.3-.88-2.3-2.2 0-1.1.83-1.91 1.85-2.19.75-.2 1.51-.17 2.2 0A2.38 2.38 0 0145 27.5h-1.64a1.31 1.31 0 00-.15-.57c-.24-.45-.73-.6-1.38-.6-.4 0-.82.11-1.06.47a.79.79 0 00-.02.77c.12.2.46.35 1.04.5.2.06.41.1.62.15.67.15 1.36.3 1.92.68 1.2.79 1.18 2.54.11 3.42-.53.43-1.33.69-2.39.69-1.18 0-2.46-.4-3.03-1.5a2.55 2.55 0 01-.26-1.24zM4 25v8h1.7v-8H4zm5 6.57v-5.14h1.1c.42 0 .77.06 1.05.18.93.37 1.18 1.67 1.18 2.56 0 .42-.05.78-.16 1.08-.1.3-.25.54-.43.72l-.04.04a1.7 1.7 0 01-.58.44c-.23.08-.47.12-.71.12H9zM7.2 25v8h3.33c.59 0 1.1-.1 1.53-.3a3.06 3.06 0 001.76-2.14 5.35 5.35 0 00-.8-4.6 2.96 2.96 0 00-1.11-.72 3.93 3.93 0 00-1.38-.24H7.19zm8.01 8v-8H21v1.43h-4v1.84h3.66v1.32H17v1.98h4V33h-5.79zm8.97-3l1-3.1h.03l.97 3.1h-2zm.16-5l-2.92 8h1.7l.62-1.81h2.89L27.2 33h1.76l-2.89-8h-1.74zm5.3 8v-8h1.7v6.57H35V33h-5.36zM36 25v8h1.75v-8H36zm12 1.43V33h1.68v-6.57H52V25h-6.33v1.43H48zM37.7 22.5H36V24h1.7v-1.5z" fill="#650C2C"/></svg>