<!-- by TradingView --><svg xmlns="http://www.w3.org/2000/svg" width="56" height="56" viewBox="0 0 56 56"><path fill="#F0F3FA" d="M0 0h56v56H0z"/><path d="M11.02 29.54a7.69 7.69 0 0 1 2.23-5.88c2.42-2.54 4.95-5 7.5-7.43a8.21 8.21 0 0 1 5.88-2.21 2.13 2.13 0 0 1 1.82 1.96c.05.47-.1.94-.4 1.3-.3.37-.74.6-1.21.64a8.74 8.74 0 0 0-5.29 2.81c-1.41 1.48-2.98 2.8-4.3 4.35a9.65 9.65 0 0 0-2 3.41c-1.22 4.17 2.24 7.62 6.45 6.43 1.28-.36 2.5-1.18 3.54-2.03 1.48-1.22 2.78-2.7 4.15-4.05 1.03-1.02 2.15-1.12 3.01-.3.86.83.82 2-.2 2.99-1.88 1.84-3.67 3.77-5.7 5.44a9.44 9.44 0 0 1-13.68-1.7 8.63 8.63 0 0 1-1.8-5.73z" fill="#002E63"/><path d="M44.99 26.46a7.69 7.69 0 0 1-2.24 5.88c-2.42 2.54-4.95 5-7.5 7.43a8.22 8.22 0 0 1-5.88 2.21 2.13 2.13 0 0 1-1.82-1.96c-.05-.47.1-.94.4-1.3.3-.37.74-.6 1.21-.64a8.7 8.7 0 0 0 5.29-2.83c1.41-1.46 2.98-2.8 4.3-4.32.85-1 1.65-2.18 2-3.41 1.22-4.17-2.24-7.61-6.45-6.43-1.29.36-2.5 1.18-3.54 2.04-1.48 1.23-2.78 2.68-4.16 4.04-1.02 1.02-2.15 1.12-3 .3-.86-.83-.81-2 .2-3 1.89-1.83 3.68-3.76 5.7-5.43a9.44 9.44 0 0 1 13.69 1.7 8.62 8.62 0 0 1 1.8 5.72z" fill="#FAA929"/></svg>