<!-- by TradingView --><svg width="56" height="56" viewBox="0 0 56 56" xmlns="http://www.w3.org/2000/svg"><path fill="#ED1C24" d="M0 0h56v56H0z"/><path fill-rule="evenodd" d="M23 46V22.04c0-.84-.67-1.53-1.41-1.87a8.8 8.8 0 0 1-3.1-2.55H23c.2.43 1.29 1.38 4.26 1.38 2.97 0 4.6-1.66 5.06-2.43H18c.1-3.23 3.44-6.57 9.26-6.57 4.65 0 7.4 2.72 8.1 4H32.5c-.4-.6-2.08-2-4.92-2-3.83 0-6.06 2.04-6.58 3h15c0 2.96-2.38 4.63-3.84 5.43-.65.35-1.16 1-1.16 1.77v15.62c4.41 1 6 4.67 6 6.4 0 1.38-.68 1.76-1.02 1.78H23Zm3-25h2v16h-2V21Zm8 23c0-2.76-3.58-5-8-5v5h8Z" fill="#fff"/></svg>