<!-- by TradingView --><svg width="56" height="56" viewBox="0 0 56 56" xmlns="http://www.w3.org/2000/svg"><path fill="#F0F3FA" d="M0 0h56v56H0z"/><path d="M4 31h48v1H4zM45.04 30H43l3.34-6h2.38L52 30h-2.05l-.6-1h-3.72l-.6 1Zm1.3-2.44h2.35l-1.19-2.12-1.16 2.12ZM15.04 30H13l3.34-6h2.38L22 30h-2.05l-.6-1h-3.72l-.6 1Zm1.3-2.44h2.35l-1.19-2.12-1.16 2.12ZM41 26.18v-.05c0-.47-.32-.63-1-.63h-1.53c-1.23 0-1.47.12-1.47 1.12v.81c0 .92.36 1.07 1.47 1.07h1.1c1.06 0 1.43-.07 1.43-.77v-.07h2v.43c0 .73-.18 1.2-.63 1.52-.47.33-1.21.39-2.3.39h-2.13c-.98 0-1.68-.04-2.22-.43-.52-.4-.72-.92-.72-1.72v-1.6c0-1.75.81-2.25 2.94-2.25h2.13c1.09 0 1.82.05 2.28.38.4.29.65.77.65 1.47v.33h-2ZM34 30h-2v-6h2v6ZM4.03 28H6v.08c0 .49.2.57.87.57h2.46c.47 0 .67-.13.67-.49 0-.42-.3-.49-.94-.5l-3.08-.1c-1.49-.03-1.96-.4-1.96-1.74 0-1.64 1.25-1.82 2.65-1.82h2.99c1.45 0 2.08.44 2.08 1.57l-.01.43H9.84v-.13c0-.39-.21-.58-.64-.58H6.94c-.6 0-.94.05-.94.46 0 .36.25.46.78.48l3.22.07c1.47.04 2 .53 2 1.9 0 1.65-1.35 1.8-2.7 1.8H6.69C4.7 30 4 29.73 4 28.45c0-.07 0-.2.03-.45ZM31 30h-2.64L25 25.63V30h-2v-6h2.68L29 28.4V24h2v6Z"/></svg>