<!-- by TradingView --><svg width="56" height="56" xmlns="http://www.w3.org/2000/svg"><path fill="#0091BA" d="M0 0h56v56H0z"/><path d="M32.984 15.183L34.149 14 48 28.065l-1.165 1.184-13.851-14.066zm-4.143 4.075l1.295-1.183 13.85 14.066-1.294 1.183-13.85-14.066zm3.496 11.962l1.165-1.182 6.213 6.31-1.165 1.182-6.213-6.31z" fill="#fff"/><path d="M24.7 23.596l1.164-1.314 7.638 7.756-1.165 1.183-7.638-7.625z" fill="#EE3342"/><path d="M28.065 35.69l1.165-1.315 6.213 6.31L34.278 42l-6.213-6.31z" fill="#fff"/><path d="M20.427 27.934l1.165-1.314 7.638 7.755-1.165 1.315-7.638-7.756z" fill="#EE3342"/><path d="M8 27.934l1.165-1.183 13.851 14.066L21.722 42 8 27.934zm4.013-4.207l1.294-1.183L27.03 36.61l-1.165 1.183-13.851-14.066zm4.142-4.206l1.295-1.315 6.213 6.31-1.294 1.315-6.214-6.31z" fill="#fff"/><path d="M22.369 25.83l1.294-1.314 7.638 7.756-1.295 1.315-7.637-7.756z" fill="#EE3342"/><path d="M20.427 15.315L21.722 14l6.084 6.31-1.165 1.183-6.214-6.178z" fill="#fff"/><path d="M26.64 21.493l1.166-1.183 7.637 7.755-1.164 1.315-7.638-7.887z" fill="#EE3342"/></svg>