<!-- by TradingView --><svg width="56" height="56" viewBox="0 0 56 56" xmlns="http://www.w3.org/2000/svg"><path fill="#F0F3FA" d="M0 0h56v56H0z"/><path d="M44.14 32.67a14.26 14.26 0 0 0-3.04-.17c-.74.04-1.53.52-2.28.87a.26.26 0 0 1-.19.01l-2.38-.71a.22.22 0 0 1-.16-.16c-.3-.99-.49-1.74-1.34-2.45a4.27 4.27 0 0 0-6.01.52 9.98 9.98 0 0 0-.84 1.36.27.27 0 0 1-.1.04c-1.77.5-3.2.8-4.72 1.63-.36.2-.89.46-1.53.76-.96.43-1.98.86-3.07 1.28-.41.16-.98.33-1.68.5-.58.14-1.14.3-1.7.48-.52.01-.96.12-1.32.32-.16.09-.28.06-.37-.1a17.15 17.15 0 0 1 5.12-22.93 17.07 17.07 0 0 1 9.6-2.92c.54 0 1.02.03 1.44.11.64.12 1.19.1 1.91.27A17 17 0 0 1 44.8 25.77c.07.66.2 1.27.2 1.87 0 1.58-.18 3.07-.5 4.47-.09.33-.2.52-.36.56Z" fill="#CF122C"/><path d="m30.32 34.62-.06.02c-.29-.41-1.02-.28-1.35-.06-.06.04-.1.1-.12.16l-.2.7a.1.1 0 0 1-.03.04.08.08 0 0 1-.03.02c-.05.01-.1 0-.13-.04a.21.21 0 0 1-.06-.13c-.02-.36-.25-.49-.33-.82-.12-.6-.33-1.54-.07-1.85.05-.05.09-.05.12 0l.17.3c.03.05.05.05.06-.02.05-.2.02-.35-.06-.45a.33.33 0 0 1-.06-.38l.18-.4c.07-.15.15-.16.24-.03.3.41.7.7 1.23.87.06.02.12.05.16.1l.28.37c.04.05.03.07-.04.07a.14.14 0 0 1-.1-.07.3.3 0 0 0-.23-.13c-.37-.04-.72-.2-1.04-.49-.1-.1-.16-.07-.16.08v1.71c0 .1.05.14.15.13.53-.1 1.21-.34 1.48.3Z" fill="#CF122C"/><path d="M30.07 38.17c.08-.05.19-.09.33-.11.89 1.08 1.99.49 2.9-.1.3-.2.33-.17.06.08-.52.48-1.12.78-1.8.89-.08 0-.12.05-.12.12l-.05.62c-.18.2-.33.41-.44.65a.28.28 0 0 1-.15.15l-.82.36-.3-1.53c-.01-.03-.03-.05-.07-.05h-.06c-.02 0-.03.01-.03.03l.05 1.7c-.07.06-.14.09-.2.08-.09 0-.14-.05-.14-.14l-.02-.28c0-.02-.01-.03-.03-.02-.02 0-.02.01-.02.03l-.04.41c-.01.1-.06.15-.16.17a.26.26 0 0 1-.23-.07c.07-.2.1-.4.09-.63 0-.07.01-.14.04-.21l.21-.44c.13-.09.2-.17.2-.25 0-.09-.05-.12-.14-.1-.8.16-.92.78-1.1 1.5-.04.2-.1.2-.2.01a3.6 3.6 0 0 1-.3-1.04c-.03-.4-.09-.78-.18-1.14l.46-1.84c.02-.06-.01-.1-.08-.1h-.08c-.07 0-.12.04-.14.1-.02.1-.06.15-.11.17-.08.04-.13.01-.14-.08-.05-.35 0-.71.12-1.08a.15.15 0 0 0 .01-.08.17.17 0 0 0-.03-.07c-.05-.07-.1-.07-.14 0-.24.42-.4.95-.46 1.6a3.05 3.05 0 0 1-.5-1.8.01.01 0 0 1 .02 0 .01.01 0 0 1 0 .02c-.14.32-.15.62-.05.9.09.26.13.42.12.49 0 .15-.1.3-.28.47-.07.07-.11.05-.11-.05v-.5c0-.05-.02-.07-.07-.06l-.1.02c-.02 0-.04.02-.04.05l-.08 3.15c0 .07 0 .14.03.2l.18.54c.04.13.02.14-.07.03a5.68 5.68 0 0 1-1.09-1.9 4.24 4.24 0 0 0-.45-1.03c-.3-.46-.5-1.27-1.23-1.5-.62-.2-.81-1.16-.92-1.77a6.48 6.48 0 0 1 2.02-1.2l-1.31 1.21a.44.44 0 0 0-.1.52l.42.9c.02.02.04.02.06 0 .03-.03.03-.04.02-.06a1.5 1.5 0 0 1-.33-1.16.27.27 0 0 1 .1-.19l1.8-1.3c.12-.1.34-.26.65-.46.17-.1.31-.11.44-.03.07.04.07.09.01.14l-2.26 2.14-.01.06-.01.03c-.01 0-.02 0 0-.01l3.16-2.58a.6.6 0 0 1 .4-.15.08.08 0 0 1 .06.14l-2.84 3.05v.03c.01.02.03.03.04.01l2.92-2.8c.13-.13.2-.1.2.08v.2c0 .14-.06.26-.15.37l-2.89 3.13v.04c.02.02.03.02.04 0l2.9-2.86c.07-.07.13-.06.17.02.15.25.22.5.2.77 0 .08.02.15.05.22.1.23.26.44.47.61.48.42.48.9.67 1.72.13.6.49.88 1.05.84ZM44.06 33.42a16.4 16.4 0 0 1-4.58 7.1.08.08 0 0 1-.08.02 17.54 17.54 0 0 0-2.07-1.02c-.36-.14-.6-.29-.7-.44-.29-.44-.53-1.22-1.09-1.27-.27-.02-.32-.13-.15-.32.12-.15.1-.32-.07-.51a.32.32 0 0 1-.01-.42l.4-.49c.05-.05.08-.1.09-.17l.18-.84a.29.29 0 0 1 .12-.2c.6-.38 1.62-1.15 2.07-1.15.2 0 .23.08.07.2l-2.2 1.76c-.04.04-.05.06-.01.08.03.02.05.02.06.01.9-.64 1.94-1.4 3.16-2.3.39-.27.74-.46 1.06-.55.37-.11.4-.04.11.2l-3.8 3.18c-.01.02-.02.04 0 .06v.06c-.05 0-.05 0-.02-.03l4.55-3.52a.85.85 0 0 1 .3-.14.55.55 0 0 1 .31 0c.13.04.15.1.05.2l-3.88 3.57v.06h.05l4.29-3.67a.6.6 0 0 1 .43-.14h.1c.16.02.2.1.08.22a810.88 810.88 0 0 1-3.34 3.69c0 .03 0 .04.02.01l3.66-3.63a.4.4 0 0 1 .44-.1l.07.02c.15.04.18.11.07.24l-2.42 2.9c-.01.01 0 .03.01.03l.06.02.05-.01 2.56-2.7Z" fill="#CF122C"/><path d="M22.06 34.77c.06.4.15.78.29 1.13.1.28.15.5.13.66-.05.33-.26.72-.06 1.14a.06.06 0 0 1-.02.08.06.06 0 0 1-.08-.02 2.83 2.83 0 0 1-.52-.89l-.03-.01a.06.06 0 0 0-.05.01l-.04.05c.2.46.45.9.73 1.33.03.05.12.4.28 1.02.01.08.06.14.12.2.16.13.27.29.32.47.07.23 0 .28-.21.18-.38-.2-.78-.36-1.2-.47-1.04-.3-1.97-.67-3.09-.68a1.7 1.7 0 0 0-1.18.01l-1.54.12c-.04 0-.06.03-.06.07v.08l.03.01h.96c.07 0 .12.03.15.1l.07.14a.4.4 0 0 0-.03.06.1.1 0 0 0 .03.12c.2.18.43.31.71.4-.01.28.17.4.55.32.73.12 1.43.31 2.1.58l.98.4c.33.15.63.4.9.75-.03 0-.07.05-.12.14a3.1 3.1 0 0 1-.84-.36 5 5 0 0 0-1.79-.45.26.26 0 0 0-.2.06.5.5 0 0 1-.26.1c-.09.01-.1.05-.05.1.01.02.04.03.1.03.2.02.24.1.1.24-.1.1-.23.13-.38.08a.24.24 0 0 1-.16-.13c-.13-.27-.36-.38-.69-.35a4.6 4.6 0 0 1-1.72-1.24c-.21-.25-.34-.4-.39-.41-.1-.05-.13-.1-.12-.16.02-.1-.06-.18-.23-.23a.37.37 0 0 1-.2-.13l-1.54-2-.02-.03c-.1-.32-.01-.46.25-.43.37.05.72.03 1.06-.05a3.44 3.44 0 0 1 1.52-.55c.19-.02.21.04.06.15l-.54.41c-.03.03-.03.05 0 .08l.05.04c.03.02.05.02.07 0 .85-.7 1.8-1.15 2.84-1.37.2-.04.2 0 .04.1-.35.23-.84.58-1.46 1.06-.24.19-.23.2.03.05.67-.4 1.49-.93 2.47-1.59.46-.31.91-.53 1.35-.65.3-.09.33-.03.09.17l-2.06 1.67v.02c0 .02.02.02.04.01l2.46-1.74ZM30.32 34.62c.25.5.32 1.04.2 1.62-.02.08 0 .14.07.18.06.04.13.06.2.06.17 0 .28-.15.42-.2.1-.02.16 0 .19.06.02.04.02.08 0 .11 0 .03-.02.05-.06.06-.33.18-.64.23-.92.17a.39.39 0 0 1-.3-.42c.03-.31.08-.62.16-.92.01-.07-.02-.13-.1-.2-.07-.06-.13-.05-.18.02a.64.64 0 0 1-.28.25.25.25 0 0 1-.26-.05l-.29-.23c-.04-.04-.07-.03-.08.02-.14.71.04 1.37.55 1.97.26.3.5.61.76.94-.14.02-.25.06-.33.1 0-.15-.12-.22-.36-.2a.2.2 0 0 1-.17-.08 1.5 1.5 0 0 1-.4-.7c-.1-.77-.34-1.3-.28-2.03a.24.24 0 0 1 .1-.18.23.23 0 0 1 .21-.02c.46.17.82.06 1.09-.3l.06-.03ZM27.35 38.86a2.83 2.83 0 0 0-.6-1.38 3.9 3.9 0 0 1 .47-1.6c.04-.07.1-.07.14 0 .02.02.03.04.03.07l-.01.08c-.12.37-.16.73-.12 1.08.01.1.06.12.14.08.05-.02.09-.07.11-.17.02-.06.07-.1.14-.1h.08c.07 0 .1.04.08.1l-.46 1.84Z" fill="#CF122C"/><path d="m17.45 38.98.52.11c.03 0 .05.03.06.07a.1.1 0 0 1-.01.07.07.07 0 0 1-.06.04.62.62 0 0 0-.26.12c-.07.06-.06.1.02.14l.37.15c.05.02.07 0 .06-.06-.03-.17-.01-.28.07-.33l.92-.06a.36.36 0 0 1 .4.33c0 .08 0 .13.02.14.24.25.19.3-.15.17-.1-.04-.24-.12-.41-.23-.06-.04-.09-.02-.09.04v.11c0 .03.02.05.04.06a3.07 3.07 0 0 0 1.41.24.1.1 0 0 1 .06.06.1.1 0 0 1 0 .04v.07c0 .1.06.14.16.12l.19-.05c.16-.04.17-.1 0-.16a.66.66 0 0 1-.3-.25c-.04-.06-.1-.07-.15-.03-.1.08-.24.07-.41 0a.3.3 0 0 1-.2-.24l-.02-.15c-.02-.12.03-.16.15-.13.36.12.67.2.94.28.16.04.25.29.26.74 0 .16.09.23.25.2l.3-.05c.07-.01.11.02.11.1.01.2.14.27.4.22.08-.02.15 0 .22.04.06.03.1.08.1.13.02.1-.02.14-.12.13-.05 0-.08 0-.1.02-.1.06-.08.1.03.1h.3c.08 0 .15.02.21.07.2.17.35.26.48.3.1.01.1.06.04.13a.29.29 0 0 1-.2.1c-.02 0-.03.02-.02.05l.02.07c0 .02.01.02.02.02.35.02.54-.14.56-.5a.3.3 0 0 1 .1-.2l.07-.06c.06-.06.1-.05.13.03.05.16.06.33.02.5-.02.07 0 .14.05.2l.28.32c.03.04.02.08-.02.13h-.03a2.5 2.5 0 0 0-.8-.2c-.33 0-.56-.14-.84-.3a.07.07 0 0 1 .03-.14h.06c.17-.04.17-.07 0-.1a3.93 3.93 0 0 1-1.33-.54.08.08 0 0 1-.02-.04c0-.01 0-.02.02-.03h.03a.2.2 0 0 0 .13 0c.13-.04.12-.08-.03-.1-.05 0-.1 0-.18.03a.29.29 0 0 1-.2-.02c-.3-.15-.66-.37-1.05-.45l-1.45-.3c-.07-.02-.1-.06-.1-.14 0-.09.04-.16.13-.2.08-.04.08-.08 0-.1a.22.22 0 0 0-.15 0c-.1.04-.2.08-.27.13s-.11.1-.12.13c0 .16.07.27.22.33-.38.07-.56-.04-.55-.32.08 0 .13 0 .15-.05a.12.12 0 0 0-.08-.18.92.92 0 0 1-.6-.36c-.04-.05-.09-.05-.14-.02l-.04.03-.07-.15a.14.14 0 0 0-.14-.09h-.99l-.01-.03v-.06c0-.04.02-.07.06-.07l1.54-.12ZM36.4 42.69a.83.83 0 0 1-.3.28c-.75.38-1.72.8-2.92 1.26l-.77-1.35c-.03-.05-.02-.1.02-.14l.13-.11c.09-.09.1-.18.03-.28a.18.18 0 0 0-.12-.08.18.18 0 0 0-.18.05l-.12.12c-.06.04-.1.04-.16 0a.58.58 0 0 0-.34-.14l-.16-.74c-.02-.08 0-.13.07-.17l.08-.02c.05 0 .1.02.12.07.02.05.04.08.06.09.1.05.15.03.18-.06.02-.05.02-.13-.02-.22a3.34 3.34 0 0 0 2.04-.9l.8-.72c.7-.59 2.22.02 2.88.4a.1.1 0 0 1 .02.17l-.73.56c-.1.08-.2.08-.29 0l-.38-.32c-.05-.04-.1-.04-.14 0l-.1.09a.04.04 0 0 0 0 .04v.02l.49.44.02.04v.04l-.03.1c-.03.1-.08.1-.15.03-.17-.2-.4-.34-.68-.4-.06-.02-.08 0-.07.06l.02.14.02.02c.64.2.71 1.06.67 1.63ZM28.47 40.3c.14.16.17.5.1 1.02-.01 1.14.17 2.25.55 3.33.03.07 0 .1-.07.1a.35.35 0 0 1-.2-.09.6.6 0 0 1-.2-.25 7.79 7.79 0 0 1-.18-4.11Z" fill="#CF122C"/><path d="m39.08 40.84-2.01 1.53c-.07.04-.1-.02-.1-.17.18-.26.22-.51.1-.77a.3.3 0 0 1 .07-.32c.24-.24.5-.42.77-.57.4-.2.96-.14 1.17.3ZM30.68 40.86c.5.24.94.37 1.32.39.04.1.04.17.02.22-.03.1-.09.11-.18.06-.02-.01-.04-.04-.06-.09-.03-.05-.07-.07-.12-.07a.31.31 0 0 0-.08.02c-.06.04-.09.1-.07.17l.16.74c-.1.02-.2.06-.29.11-.06.05-.1.1-.1.18v.95c0 .26.15.57.13.75-.04.29-.13.3-.27.06a1.1 1.1 0 0 1-.1-.39 31.52 31.52 0 0 1-.33-1.92 2.13 2.13 0 0 0-.28-.8.2.2 0 0 1 0-.2c.03-.07.12-.14.25-.18ZM31.05 44.7l-.78.1.06-.5c.01-.09-.02-.15-.1-.18a.71.71 0 0 0-.29-.07c-.16 0-.17.04-.03.12.16.1.24.2.24.29 0 .08-.04.12-.12.13-.16.01-.3-.01-.42-.08a.22.22 0 0 1-.08-.08.2.2 0 0 1-.03-.1v-.84a.1.1 0 0 1 .17-.06l.39.42c.04.05.08.04.1-.02.1-.21.1-.37 0-.46a.25.25 0 0 0-.18-.08h-.26a.16.16 0 0 1-.17-.12 1 1 0 0 1-.06-.25c0-.32.1-.34.29-.07l.23.34c.03.04.07.05.11 0l.05-.03c.02-.02.03-.05.01-.08a1.3 1.3 0 0 0-.55-.58.2.2 0 0 1-.1-.17.57.57 0 0 1 .13-.43.28.28 0 0 0 .07-.19v-.31c0-.04 0-.07.03-.1a.17.17 0 0 1 .08-.06l.12-.04a.08.08 0 0 1 .08.02.08.08 0 0 1 .03.08c-.06.23-.02.37.12.41.07.03.1.08.1.16-.02.1-.09.19-.2.24a.16.16 0 0 0-.11.16c0 .06 0 .1.03.14.03.06.06.07.1 0a.54.54 0 0 0 .04-.07c.04-.2.1-.21.2-.04.12.22.18.46.2.72a2.36 2.36 0 0 0 .5 1.67ZM24.77 44.54c0 .17-.16.17-.46.02.05-.2.04-.34-.04-.4-.06-.07-.13-.06-.19 0a.52.52 0 0 0-.1.35l-1.1-.37a.6.6 0 0 0-.2-.07.52.52 0 0 1-.2-.08 2.46 2.46 0 0 0-1.04-.43 1.27 1.27 0 0 0-.42-.43 1 1 0 0 0-.35-.14 1.5 1.5 0 0 1-.36-.13l-1.15-.35c-.02 0-.04-.05-.06-.13.1-.12.22-.23.37-.3.09-.06.1-.12.03-.19l-.06-.06c-.1-.1-.07-.16.06-.18.07 0 .14.01.2.06.06.04.13.07.2.08.7.05 1.33.25 1.9.59.1.05.14.13.1.24l-.07.25c-.03.1-.1.13-.18.07a.76.76 0 0 1-.35-.48c-.04-.13-.07-.14-.1-.04 0 .01 0 .06.03.15.02.06 0 .09-.07.08a.48.48 0 0 1-.32-.2c-.04-.06-.1-.08-.19-.06-.08.03-.17 0-.27-.07a.42.42 0 0 0-.18-.08l-.56-.1c-.02 0-.04 0-.05.03l-.02.1c-.01.02 0 .05.04.06.44.11.87.27 1.3.46.2.1.39.03.56.24a.23.23 0 0 0 .2.08h.1c.1-.01.16.01.2.08.2.25.47.38.79.39.08 0 .14.03.2.1.08.11.2.18.35.2.11 0 .18.06.22.17 0 .04.03.07.07.1.05.04.1.04.14 0 .06-.07.08-.15.08-.26-.02-.11-.06-.13-.13-.04a.21.21 0 0 1-.08.04c-.07.02-.13 0-.17-.06a.76.76 0 0 0-.51-.31c-.12-.02-.19-.05-.23-.09-.07-.07-.09-.18-.04-.3 0-.02 0-.04-.02-.06a.07.07 0 0 0-.06 0h-.01a.25.25 0 0 0-.04.15.1.1 0 0 1-.08.12.1.1 0 0 1-.06-.01c-.3-.15-.41-.4-.36-.73.02-.09.06-.11.14-.08.05.02.1.06.13.12.05.07.11.12.19.14l.32.1c.05.01.09.04.12.08.11.16.23.24.35.23a.24.24 0 0 1 .2.08c.06.08.1.16.13.24.03.08.08.13.15.15.41.17.75.46 1.01.88ZM27.1 44.84c-.25.06-.5.06-.73-.01-.18-.19-.37-.3-.6-.33l-.03-.01a.07.07 0 0 1-.02-.03l-.05-.1a.04.04 0 0 0-.02-.02l-.89-.35a.26.26 0 0 1-.16-.2c-.03-.12-.13-.16-.28-.14a.22.22 0 0 1-.21-.07l-.6-.65a.2.2 0 0 0-.17-.07.46.46 0 0 1-.34-.07 6.8 6.8 0 0 0-.82-.52c.05-.09.09-.14.12-.14.36.18.78.3 1.27.38.34.05.54.23.58.55.03.18.07.2.12.07a.44.44 0 0 0 .02-.08c.02-.09.08-.13.17-.13.4.02.63.24.67.66a.25.25 0 0 0 .1.18c.1.07.2.1.29.08.07-.02.08-.06.03-.11l-.39-.42a.12.12 0 0 1 .04-.2.12.12 0 0 1 .08 0c.58.1.43.53.6.96.04.08.1.1.17.06a.2.2 0 0 0 .07-.08.15.15 0 0 0-.02-.18c-.18-.18-.25-.35-.2-.52.05-.13.11-.14.2-.04l.2.22.07.04.09.02c.36 0 .6.18.7.52a.16.16 0 0 1-.17.22l-.56-.08c-.04 0-.07.01-.08.05l-.02.07c0 .03 0 .05.03.06l.53.1c.09.02.15.04.19.08.09.08.1.16.02.23Z" fill="#CF122C"/><path d="M36.96 42.2c0 .15.04.2.1.17-.06.14-.11.16-.16.07l.06-.24ZM32.72 44l-.09.12c-.1.06-.2.13-.26.23-.36.25-.6.3-.73.13l-.16-1.15a.2.2 0 0 1 .07-.19.18.18 0 0 1 .12-.04c.1 0 .12-.04.04-.1-.12-.1-.16-.24-.13-.43.02-.09.07-.11.15-.07.17.08.27.21.3.38a.3.3 0 0 0 .11.18c.31.24.5.55.58.94ZM28.49 44.75c-.08.28-.3.32-.64.14v-.2c0-.13-.04-.14-.12-.03-.07.11-.18.14-.33.09a.19.19 0 0 1-.12-.16l-.06-.34c0-.04 0-.08.03-.11a.17.17 0 0 1 .11-.06c.05 0 .1 0 .15.02.05.02.1.05.13.1l.17.2a.1.1 0 0 0 .07.04c.2 0 .4.1.6.3ZM25.76 44.69c-.02.17-.22.18-.6.01a.43.43 0 0 1-.08-.21c0-.09.04-.12.12-.1.28.07.47.17.56.3Z" fill="#CF122C"/><path d="M31.08 22.8c.04.01.07.02.09.01h.04l.02-.03a5.48 5.48 0 0 1 3.17-2.05c.33-.07.6.01.81.25l.19.2c.21.25.15.37-.2.38a4.22 4.22 0 0 0-2.95 1.26.44.44 0 0 0-.13.21.39.39 0 0 0 0 .24c.49 1.38 1.82 3.13 3.7 3.09.22 0 .24.04.06.14-1.88 1.08-3.94-.47-4.58-1.93-.15-.33-.31-.34-.48-.01a6.95 6.95 0 0 0-.7 2.18c-.06.28-.22.34-.5.19l-.21-.13c-.37-.2-.49-.5-.36-.86l3.1-8.99c.13-.39.42-.64.87-.76l.55-.15c.4-.1.53.01.37.35l-2.9 6.34c-.01.03 0 .06.04.07ZM16.3 28.6c-.23.76-.16 1.45.23 2.1.87 1.42 3.29.26 4.1-.65 1.19-1.33 1.36-3.69-.46-4.56l-1.58-.88c-2.6-1.45-2.51-4.33-.43-6.22 1.2-1.1 3.24-1.83 4.76-1.09.8.4 1.15 1.41 1.07 2.33-.12 1.3-1.52 2.6-2.75 2.43-.37-.05-.38-.15-.03-.3 1.06-.46 2.03-1.68 1.66-2.95-.24-.8-.8-1.17-1.7-1.1a4.2 4.2 0 0 0-2.23.92 3 3 0 0 0-.99 1.54 2.71 2.71 0 0 0 1.36 3.22c.38.21.92.48 1.6.81 1.95.94 2.41 3.07 1.34 4.97A5.39 5.39 0 0 1 17.38 32a2.4 2.4 0 0 1-2.3-1.8c-.5-1.92 1.2-3.58 2.9-3.56.12 0 .2.05.23.15.02.07 0 .12-.07.14a2.81 2.81 0 0 0-1.82 1.67v-.02c0-.03 0-.03-.02 0ZM28.2 19.69c-.33.52-.24 1.09.2 1.26.43.18 1.06-.1 1.4-.63.33-.52.24-1.09-.2-1.26-.43-.18-1.06.1-1.4.63ZM25.21 20.69c-.34.52-.26 1.09.18 1.26.43.18 1.06-.1 1.4-.62.34-.53.26-1.1-.18-1.27-.43-.18-1.06.1-1.4.63Z" fill="#fff"/><path d="M35.43 33.67c-.09-.15-.11-.14-.08.03.06.41.06.87-.02 1.4-.01.05-.03.1-.07.11-.05.03-.08.01-.07-.05.07-.48.02-.93-.16-1.37-.1-.23-.32-.64-.68-1.22-.28-.46-.58-.8-.9-1.04-.79-.6-1.69-.9-2.7-.93-.46 0-1.2.21-1.65.36-.45.15-.51.05-.2-.3a4.07 4.07 0 0 1 2.63-1.35c.88-.1 1.7.06 2.43.47 1.61.88 2.05 2.84 1.78 4.63 0 .02-.01.04-.03.05l-.08.05c-.04.02-.05 0-.05-.03.02-.31-.03-.58-.15-.8Z" fill="#CF122C"/><path d="m33.54 33.53-.38-.6c-.16-.37-.55-.55-1.16-.57-.48-.1-.99-.11-1.53-.04a1.4 1.4 0 0 0-.86-.17.32.32 0 0 1-.21-.04 1.54 1.54 0 0 1-.57-.6c-.04-.07-.03-.13.05-.18.27-.17.69-.31 1.25-.43.46-.1.85-.07 1.19.08l1.27.6c.09.06.13.04.13-.03 0-.04.02-.07.06-.09l.04-.01.05.01c.79.6 1.4 1.36 1.85 2.27.2.44.3.97.28 1.6 0 .07-.03.13-.08.18-.1.1-.1.2-.02.29.05.04.04.08 0 .12-.03.03-.05.04-.07.04-.03 0-.05-.02-.06-.05a.44.44 0 0 0-.24-.3.23.23 0 0 1-.09-.06.92.92 0 0 1-.05-.1c-.03-.06-.02-.11.04-.16a.24.24 0 0 0 .07-.1c.02-.05 0-.09-.04-.11-.27-.16-.38-.33-.44-.65a1.73 1.73 0 0 0-.48-.9Z" fill="#CF122C"/><path d="M32.09 32.93c.28.01.52-.04.52-.12 0-.08-.23-.16-.51-.17-.29 0-.52.05-.52.13s.22.15.5.16Z" fill="#CF122C"/><path d="m33.16 32.92.38.61c.06.77.2 1.38.42 1.83.22.44.14.5-.24.18-.15-.13-.22-.43-.2-.89a.37.37 0 0 0-.05-.2 2.02 2.02 0 0 1-.24-.86.28.28 0 0 0-.09-.2l-.53-.53c-.03-.03-.03-.05 0-.07l.12-.07c.03-.01.05 0 .07.03.1.22.22.28.36.17ZM36.16 34.15a2.25 2.25 0 0 1-.02-.98.18.18 0 0 1 .23-.14l1.26.38c.13.04.15.1.04.2-.1.07-.25.13-.46.19-.38.1-.62.17-.74.23s-.13.1 0 .11c.04 0 .1 0 .17-.04.08-.04.1-.01.04.08a448.42 448.42 0 0 1-.47.42.1.1 0 0 1-.12-.06c-.03-.06-.01-.13.04-.22a.2.2 0 0 0 .03-.17ZM31.71 33.98c-.17.05-.34.14-.53.28-.04.03-.09.03-.13 0a.1.1 0 0 1-.04-.07c0-.08.02-.14.08-.18a1.83 1.83 0 0 1 1.17-.32c.07 0 .13.04.16.11a.1.1 0 0 1 0 .08c-.02.05-.05.07-.1.07a1.67 1.67 0 0 0-.6.03ZM32.18 34.69l-.02-.01h-.02c.03.16-.02.27-.15.32a.56.56 0 0 1-.43 0 .6.6 0 0 1-.32-.3c-.02-.03 0-.06.07-.1a.31.31 0 0 1 .21-.02c.47.1.51-.17.88-.21.09-.01.13.03.1.12-.04.2-.14.32-.27.36-.03 0-.05 0-.05-.03a.2.2 0 0 1 0-.07c.02-.03.01-.05 0-.06ZM32.1 36.9l.07-.07a.1.1 0 0 1 .17.05.1.1 0 0 1-.02.07c-.32.52-.75.8-1.28.83a.22.22 0 0 1-.2-.09c-.12-.17-.26-.29-.42-.36-.1-.05-.1-.09 0-.13.44-.14.89-.2 1.34-.17a.44.44 0 0 0 .35-.13ZM35.09 37.92c.55.17.93.53 1.13 1.09.01.04 0 .07-.05.07h-.88a.2.2 0 0 1-.2-.12 2.26 2.26 0 0 1-.26-1.14c0-.06.03-.07.08-.04l.07.04a2.37 2.37 0 0 0 .1.1ZM25.05 41.6c-.07-.1-.03-.26.14-.47.04-.05.03-.13-.03-.25a.07.07 0 0 0-.07-.04.07.07 0 0 0-.06.06c-.03.11-.07.18-.13.2-.1.04-.13.01-.12-.08.01-.25-.05-.45-.19-.59a.23.23 0 0 1-.07-.2c.01-.12-.06-.2-.2-.25-.06-.03-.1-.08-.1-.15l.01-.17c0-.1-.04-.14-.13-.13-.08 0-.14-.02-.18-.05a.19.19 0 0 1-.06-.2l.09-.29c.03-.1 0-.15-.11-.14-.14 0-.22-.04-.27-.14.05-.05.1-.1.11-.16.03-.08.01-.14-.05-.19-.2-.16-.43-.29-.68-.36a.38.38 0 0 1-.18-.13c-.08-.08-.1-.15-.1-.18.15-.43.3-.44.48-.02l.1.26c.05.1.09.1.13 0l.03-.08a.16.16 0 0 0-.04-.17 1.28 1.28 0 0 1-.3-.42c-.04-.07-.08-.09-.15-.04a.16.16 0 0 1-.07.03c-.05 0-.08-.02-.1-.06-.07-.2-.07-.35 0-.47.04-.08.1-.09.16-.02.5.49.94 1.15 1.3 2 .23.54.43 1.05.58 1.54.03.07.07.12.13.17.28.2.45.47.51.83.02.13.05.2.08.23.05.02.1.03.15.02.1-.02.14.02.14.1 0 .21 0 .33-.02.36-.25.34-.37.3-.35-.13 0 0 0-.07-.03-.2-.02-.07-.07-.1-.15-.1a.67.67 0 0 0-.2.08ZM27.93 42.9c-.1.03-.17 0-.24-.09a.22.22 0 0 1-.04-.2c.07-.23 0-.36-.18-.42a.15.15 0 0 1-.11-.15c.02-.2-.1-.3-.33-.33-.2-.03-.4-.05-.6-.05-.18-.14-.22-.32-.11-.54.27.04.48.19.6.44.03.05.07.05.1.01l.08-.06c.05-.05.06-.1.03-.17a1.36 1.36 0 0 1-.17-.6.26.26 0 0 0-.08-.2c-.1-.1-.13-.25-.1-.44a.25.25 0 0 0-.07-.21c-.1-.1-.25-.2-.44-.25-.04-.01-.06 0-.07.03l-.02.09c-.02.04 0 .07.04.08.22.07.34.2.35.37 0 .1-.04.13-.12.11h-.1c-.12.02-.12.06-.03.12.11.08.2.17.28.27.05.06.04.12-.02.18a.38.38 0 0 1-.28.1 1.36 1.36 0 0 1-.1-.1.25.25 0 0 1-.06-.14 6.9 6.9 0 0 1-.02-2.3c0-.06.04-.1.1-.14l.05-.03c.07-.04.09-.09.06-.16-.06-.17-.08-.29-.05-.37.11-.3.21-.3.3.02.06.21.15.45.28.72.25.54.23 1.12.33 1.8a.5.5 0 0 0 .09.2c.06.09.08.2.06.33 0 .08 0 .15.03.22.25.59.68 1.2.56 1.86Z" fill="#CF122C"/><path d="m23.4 38.75.24.63c.02.07.06.13.12.18.1.08.13.2.1.37-.03.08 0 .13.06.18a.8.8 0 0 0 .13.06c.13.05.2.09.22.11.04.07.04.14 0 .21-.04.07-.03.13.05.17.18.1.27.27.26.49 0 .07.03.13.09.18l.34.3c0 .08-.04.12-.13.13-.41.04-.6-.13-.57-.51.01-.08-.02-.13-.1-.16-.2-.09-.3-.2-.27-.37.01-.07-.01-.13-.09-.17a.42.42 0 0 1-.25-.43.2.2 0 0 0-.09-.2c-.18-.13-.24-.25-.18-.38.04-.07.03-.13-.05-.17-.27-.15-.36-.32-.26-.5a.15.15 0 0 0 .01-.1.16.16 0 0 0-.05-.1.54.54 0 0 1-.17-.36c0-.09.03-.13.12-.11.38.06.54.25.48.55ZM21.2 40.17c.07.19.21.31.33.27.11-.04.15-.22.1-.41-.07-.2-.22-.32-.33-.28-.12.04-.16.23-.1.42ZM21.88 40.42c.1.2.27.34.39.28.11-.05.13-.26.03-.47-.1-.21-.27-.34-.38-.29-.12.06-.13.27-.04.48ZM22.5 40.75c.07.2.23.32.36.27.13-.04.17-.25.1-.45-.08-.2-.24-.32-.37-.27-.13.05-.17.25-.1.45ZM23.56 41.03c0 .13-.06.24-.19.33-.06.05-.12.04-.17-.04-.03-.04-.05-.13-.05-.29 0-.15.01-.25.04-.29.05-.07.1-.09.18-.04.12.08.19.2.2.33ZM29.07 41.53a.04.04 0 0 1 .04.05v.03a12.9 12.9 0 0 1-.06 1.22c-.01.06-.03.1-.04.1h-.04c-.03 0-.07-.14-.1-.39a10.5 10.5 0 0 1-.04-.92v-.07l.04-.01h.2ZM26.59 42.31c-.18-.15-.23-.28-.16-.39a.7.7 0 0 1 .6.18c.06.06.06.12 0 .18-.08.1-.23.1-.44.03ZM25.31 42.2c-.03.16-.15.2-.34.12-.13-.02-.22-.07-.26-.15-.05-.08-.03-.13.06-.16.24-.08.42-.02.54.19Z" fill="#CF122C"/><path d="M24.97 42.32c.2.08.3.04.34-.12 0 .2.04.33.15.41.07.05.11.03.14-.04a.98.98 0 0 1 .34-.44c.06-.04.09-.03.09.05v.7a.1.1 0 0 1-.06.1h-.05a.1.1 0 0 1-.05-.02.83.83 0 0 0-.6-.21c-.07 0-.12-.04-.15-.11-.04-.14-.1-.24-.15-.32ZM26.96 43c-.1-.01-.18-.07-.25-.18a.24.24 0 0 1-.05-.14c0-.09.04-.13.13-.15.18-.02.35.03.5.16.06.05.07.11.02.18-.06.1-.18.14-.35.13ZM27.43 43.58a.52.52 0 0 1-.37-.09c-.12-.08-.13-.18-.04-.3.21-.03.4-.02.58.04a.15.15 0 0 1 .07.22.32.32 0 0 1-.24.13ZM28.04 43.6c.16.12.2.25.15.39a.16.16 0 0 1-.17.1 1.22 1.22 0 0 1-.38-.12.6.6 0 0 1 .4-.37Z" fill="#CF122C"/><path fill-rule="evenodd" d="M37.02 25.07c-.56 0-.74-.42-.8-.85-.02-.08.02-.14.1-.17 1.2-.51 3.7-1.57 3.63-3.09-.08-1.6-2.14-.83-2.85-.27a5.2 5.2 0 0 0-2.07 3.23c-.2 1.56.72 2.5 2.35 1.92a4.31 4.31 0 0 0 2.33-1.8c.19-.3.29-.56.29-.77 0-.11-.03-.12-.1-.03-.6.78-1.82 1.83-2.88 1.83Zm1.47-3.05c.44-.57.52-.98.25-1.21-.26-.24-.66-.1-1.18.39a4.48 4.48 0 0 0-1.31 2.24c-.01.04 0 .07.02.1.03.02.06.02.1.01.86-.3 1.57-.82 2.12-1.53Z" fill="#fff"/><path d="M24.16 28.15c.13.28.31.5.55.64.24.15.52.23.82.22.31 0 .64-.08.97-.24.33-.15.66-.37.97-.65a4.93 4.93 0 0 0 1.35-2.13c.12-.4.18-.79.18-1.15 0-.36-.07-.7-.2-.97-.13-.28-.32-.5-.56-.64a1.5 1.5 0 0 0-.82-.22c-.3 0-.64.08-.97.24a3.8 3.8 0 0 0-.96.66 4.93 4.93 0 0 0-1.35 2.13c-.13.39-.19.78-.19 1.14 0 .37.08.7.2.97Zm1.62.14c-.62-.24-.71-1.45-.21-2.7.5-1.24 1.4-2.06 2-1.82.62.24.72 1.45.22 2.7-.5 1.25-1.4 2.06-2.01 1.82Z" fill="#fff"/></svg>