<!-- by TradingView --><svg xmlns="http://www.w3.org/2000/svg" width="56" height="56"><path fill="#212D64" d="M0 0h56v56H0z"/><path d="M26 10h4v2.12c.8.1 1.6.27 2.36.48l.72-1.85 3.43 1.33-.75 1.93c.8.44 1.56.95 2.27 1.52l1.44-1.37L42 16.8l-1.4 1.34a16 16 0 011.3 1.94l2.18-.75 1.2 3.46-1.94.67c.24.82.42 1.66.53 2.53H46v3.98h-2.12a16.6 16.6 0 01-.53 2.56l1.94.67-1.2 3.46-2.18-.75c-.4.68-.83 1.33-1.3 1.94l1.4 1.35-2.54 2.64-1.45-1.38a16 16 0 01-2.26 1.53l.75 1.93-3.43 1.33-.72-1.86c-.76.21-1.54.37-2.34.47V46H26v-2.12c-.83-.1-1.64-.27-2.43-.5l-.73 1.88-3.43-1.33.77-1.97c-.8-.44-1.54-.95-2.24-1.52l-1.48 1.41-2.55-2.64 1.46-1.4c-.48-.6-.9-1.24-1.29-1.91l-2.24.77-1.2-3.46 2-.7a15.9 15.9 0 01-.52-2.51H10v-4h2.12c.11-.86.29-1.7.52-2.5l-2-.7 1.2-3.46 2.24.77c.38-.67.8-1.31 1.28-1.92l-1.45-1.38 2.55-2.65 1.47 1.4c.7-.56 1.45-1.07 2.24-1.52l-.76-1.96 3.43-1.33.73 1.87c.79-.22 1.6-.4 2.43-.5V10zm2 32a14 14 0 10-13.98-14.66v1.32A14 14 0 0028 42zm0-2a12 12 0 0011.62-15H22.05a4.8 4.8 0 01-.05-.67c0-2.94 2.69-5.33 6-5.33 2.8 0 5.14 1.7 5.8 4h5.11a12 12 0 00-22.74 7h17.78c.03.22.05.44.05.67 0 2.94-2.69 5.33-6 5.33-2.8 0-5.15-1.7-5.82-4h-5.5A12 12 0 0028 40z" fill="#fff"/></svg>