<!-- by TradingView --><svg xmlns="http://www.w3.org/2000/svg" width="56" height="56"><path fill="#F0F3FA" d="M0 0h56v56H0z"/><path d="M35 25H5v7h30v-7z" fill="#A74230"/><path d="M4.5 24.5H39V24H4v9h48v-9h-4v.5h3.5v8h-47v-8z" fill="#A74230"/><path d="M6.17 29.44c.11.32.24.58.4.77.26.34.59.5.98.5.21 0 .4-.07.55-.21a.8.8 0 00.23-.61.9.9 0 00-.23-.61c-.1-.11-.32-.28-.65-.5l-.57-.39a2.2 2.2 0 01-.4-.35 1.16 1.16 0 01-.29-.76c0-.36.11-.66.34-.9.22-.25.52-.38.88-.38.16 0 .34.05.55.13.21.08.34.12.37.12.08 0 .14-.02.17-.06a.5.5 0 00.07-.19h.14l.14 1.55H8.7c-.1-.47-.28-.79-.52-.97a1.17 1.17 0 00-.7-.28.72.72 0 00-.49.18.61.61 0 00-.2.48c0 .19.06.35.16.48s.26.27.48.42l.59.4c.36.24.62.46.77.67.15.2.22.45.22.73 0 .38-.13.7-.4.95-.26.25-.6.39-1 .39-.21 0-.42-.05-.65-.14a2.27 2.27 0 00-.39-.12c-.07 0-.13.02-.15.07a.75.75 0 00-.06.19h-.14L6 29.44h.17m4.23 1.44c.25-.02.4-.07.47-.14.07-.07.13-.25.13-.54v-3.34c0-.27-.06-.45-.13-.53-.07-.08-.22-.13-.47-.15V26H14v1h-.16c-.06-.33-.15-.43-.26-.53-.11-.1-.41-.14-.8-.14h-.9c-.1 0-.17.01-.19.05-.02.03-.03.1-.03.2v1.68h1.03c.28 0 .46-.05.54-.15.08-.1.14-.28.19-.58h.15v1.74h-.15a1.24 1.24 0 00-.2-.57c-.07-.1-.25-.15-.53-.15h-1.03v1.87c0 .15.04.24.12.26.08.03.34.04.75.04.45 0 .78-.05 1-.16.22-.11.41-.39.58-.81h.19L14 31h-3.6v-.12zM21.78 26v.15c-.17 0-.29.02-.35.04a.24.24 0 00-.16.23c0 .06.02.15.06.26.04.1.1.29.21.54l1.04 2.6.95-2.8a4.25 4.25 0 00.13-.53c0-.14-.06-.24-.17-.29a.9.9 0 00-.32-.05V26h1.36v.14a.57.57 0 00-.31.13c-.1.1-.2.28-.3.57L22.44 31h-.1l-1.64-4.07a2.24 2.24 0 00-.33-.64.54.54 0 00-.37-.15V26h1.78zm3.62 4.88c.25-.03.44-.08.5-.15.08-.07.1-.25.1-.53v-3.37c0-.26-.02-.44-.09-.52-.07-.08-.26-.14-.51-.15V26H29v1h-.16c-.05-.33-.14-.45-.25-.55-.12-.1-.37-.15-.76-.15h-.9c-.1 0-.17.02-.19.06a.4.4 0 00-.04.2v1.68h1.04c.28 0 .47-.05.54-.14.08-.1.15-.3.2-.59h.15v1.75h-.16c-.05-.3-.11-.48-.19-.58-.08-.1-.26-.14-.54-.14H26.7v1.87c0 .15.05.24.13.27.09.02.34.04.76.04.45 0 .78-.06 1-.17.22-.11.41-.42.58-.85h.19L29 31h-3.6v-.12zM30 26h4v1.3h-.16c-.09-.4-.19-.68-.31-.8-.13-.12-.4-.18-.8-.18h-.43v3.86c0 .3.1.48.18.55.08.07.24.11.52.13V31h-2v-.14c.3-.02.48-.07.56-.15.07-.08.14-.29.14-.62v-3.77h-.42c-.39 0-.65.06-.79.18-.13.12-.24.4-.3.8H30V26zm-12.29 2.24c.35-.16.53-.47.53-.93 0-.43-.16-.73-.47-.9-.17-.08-.4-.12-.68-.12-.19 0-.3.01-.35.05-.04.02-.06.1-.06.2v1.87c.48-.02.82-.07 1.03-.17zm-2.31 2.62c.26-.02.44-.08.5-.17.07-.08.1-.28.1-.6v-3.27c0-.27-.04-.44-.1-.52-.08-.09-.26-.14-.5-.16V26h1.88c.38 0 .7.06.96.17.49.2.76.59.76 1.15 0 .38-.14.67-.36.87-.21.2-.5.33-.88.4l1.38 1.91a.9.9 0 00.25.26c.09.06.2.09.33.1V31h-1.08l-1.6-2.32-.37.01v1.5c0 .27.04.45.11.53.08.07.25.12.5.14V31H15.4l.02-.14h-.02z" fill="#F0F3FA"/><path d="M40.37 29.14v1.21c-.43.43-1.08.65-1.95.65a2.4 2.4 0 01-1.73-.65A2.43 2.43 0 0136 28.5a2.38 2.38 0 012.42-2.5c.82 0 1.5.2 2.04.62l-.22.64a.83.83 0 01-.08.19c-.02 0-.03-.05-.05-.14a1.28 1.28 0 00-.57-.86c-.28-.18-.6-.26-.95-.26-1.28 0-1.59 1.36-1.59 2.43 0 .93.32 2.2 1.42 2.2.4 0 .69-.07.87-.22.22-.18.32-.48.32-.9v-.55c0-.2-.04-.35-.15-.44a1.1 1.1 0 00-.4-.17c-.13-.03-.18-.05-.18-.07 0-.02.03-.06.09-.06h1.7c.08 0 .13.05.13.08l-.12.06c-.15.05-.23.12-.27.2a1.2 1.2 0 00-.04.39zm.71-3.14h1.58c.06 0 .08.02.08.05 0 .02-.03.05-.1.07-.15.07-.22.16-.22.27 0 .13.07.29.2.48l1.12 1.7.94-1.43c.21-.32.32-.55.32-.7 0-.15-.06-.26-.17-.31-.09-.05-.15-.06-.15-.1 0-.02.03-.03.1-.03h1.13c.06 0 .1.01.1.05 0 .03-.08.07-.18.16-.23.19-.46.45-.7.8L44 28.78v1.27c0 .3-.05.73.29.88.07.03.04.07.01.07h-1.56c-.07 0-.08-.03 0-.07.14-.06.23-.19.26-.37v-1.67l-1.28-2.05a3.32 3.32 0 00-.7-.78c-.04-.06.02-.06.06-.06zM50 28.5c0-.64-.1-1.17-.34-1.58-.3-.5-.62-.74-1.16-.74-.55 0-.82.25-1.1.74a3 3 0 00-.4 1.58c0 .65.15 1.17.4 1.59.28.49.56.73 1.1.73.55 0 .87-.24 1.16-.73.24-.42.34-.94.34-1.59zm1 0a2.46 2.46 0 01-2.5 2.5 2.45 2.45 0 01-2.5-2.5c0-.73.26-1.34.77-1.82A2.45 2.45 0 0148.5 26a2.46 2.46 0 012.5 2.5z" fill="#A74230"/></svg>