<!-- by TradingView --><svg width="56" height="56" viewBox="0 0 56 56" xmlns="http://www.w3.org/2000/svg"><path fill="#E0E3EB" d="M0 0h56v56H0z"/><path d="M17 28.7 42 22l-25-2v8.7ZM42 13l-23 6 23 2v-8ZM13 43V31.19L42 23v11.69L13 43Z" fill="#FF6418"/><path d="M36.91 32.06c-.13-.22-.2-.47-.2-.73l-.7.1a1.58 1.58 0 0 0 .53 1.33 1.68 1.68 0 0 0 1.34.26c.08.09.12.2.12.3 0 .28-.3.54-.82.54l.25.2s1.25-.08 1.27-.84a1 1 0 0 0-.06-.42c.74-.3 1.36-.87 1.36-1.97 0-.42-.15-.8-.47-1.03-.4-.21-.83-.2-1.26-.2h-.23c-.33 0-.87.01-1.06-.32a.53.53 0 0 1-.07-.32c.01-.64.48-1.02 1.03-1.18.39-.1.78-.07 1.08.25.13.19.2.4.22.63l.64-.14a1.3 1.3 0 0 0-.55-1.26c-.41-.2-.89-.25-1.33-.13a2.11 2.11 0 0 0-1.76 2.1c-.02.18.01.37.1.54.24.5.83.58 1.3.57h.68c.56 0 1 .13 1 .78 0 .24-.29.73-.65.9-.21.14-.44.23-.68.27-.36.07-.8.11-1.08-.23Zm-3.9-3.54.8-.22 1.92 5.34-.73.21-.56-1.53-2.02.54-.56 1.89-.86.23 2.01-6.46Zm1.2 3.2-.77-2.3-.77 2.72 1.53-.43Zm-7.9-1.28-1.01.3v5.88l.7-.2V31.6l1.54 4.37.68-.19 1.38-4.75v4.36l.7-.2v-5.9l-1.07.3-1.41 5.18-1.5-4.33Zm-5.61 1.6v3.5c0 .73.33 1.49 1.25 1.36.92-.13 1.35-1.01 1.35-1.9V31.3l.7-.2v3.42c.02.55-.06 1.1-.24 1.63a2.3 2.3 0 0 1-1.74 1.38c-.86.19-1.44 0-1.75-.62-.2-.49-.3-1-.27-1.53v-3.14l.7-.2Zm-4.79 6.02c-.13-.22-.2-.47-.2-.73l-.7.1a1.58 1.58 0 0 0 .53 1.33 1.68 1.68 0 0 0 1.45.23c1-.2 2.01-.75 2.01-2.16 0-.42-.15-.8-.47-1.03-.4-.21-.83-.2-1.26-.2h-.23c-.33 0-.87.01-1.06-.32a.53.53 0 0 1-.07-.32c.01-.64.48-1.02 1.03-1.18.39-.1.78-.07 1.08.25.13.19.2.4.22.63l.64-.14a1.3 1.3 0 0 0-.55-1.26c-.41-.2-.89-.25-1.33-.13a2.11 2.11 0 0 0-1.76 2.1c-.02.18.01.37.1.54.24.5.83.58 1.3.57h.68c.56 0 .98.13.98.78 0 .24-.27.73-.63.9-.21.14-.44.23-.68.27-.36.07-.8.11-1.08-.23Z" fill="#E0E3EB"/></svg>