<!-- by TradingView --><svg width="56" height="56" viewBox="0 0 56 56" xmlns="http://www.w3.org/2000/svg"><path fill="#F0F3FA" d="M0 0h56v56H0z"/><path d="M19.63 16.16 20 15h1v7h-1s-.03-2.5-.38-4.22C19.5 17.1 18.7 16 17.55 16c-1.16 0-1.54.89-1.54 1.78 0 2.06 1.22 4.1 2.36 6.03.5.84.98 1.65 1.34 2.42l.27.57c.75 1.58 1.03 2.18 1.03 4.01 0 2.04-1.42 4.19-3.46 4.19s-2.75-1.15-2.75-1.15L13.77 35H13v-8h1v1.34c0 2.2.15 5.66 2.47 5.66 1.2 0 1.53-1.4 1.53-2.94 0-.92-.21-1.86-.46-2.43a61.75 61.75 0 0 0-3.77-6.78S13 20.5 13 18.87c0-.68.14-1.4.52-2.1.5-.9 1.58-1.77 3.21-1.77 1.64 0 2.9 1.16 2.9 1.16ZM23 15h5v1h-1v15.81c0 1.04 0 2.19 1.24 2.19 1.25 0 1.76-.79 1.76-2.1V16.66c0-.37-.07-.66-.47-.66H29v-1h3v1h-.56c-.4 0-.44.29-.44.66V31.9c0 1.93-1.25 3.1-3.38 3.1C25.5 35 24 33.67 24 31.44V16h-1v-1Zm11 1h1v17.31c0 .38-.07.69-.5.69H34v1h3v-1h-.53c-.42 0-.47-.31-.47-.69V16.93L39.45 35H42V16.67c0-.38 0-.67 1-.67v-1h-3v1h.08c.7 0 .92.17.92.8v13.01L38.12 15H34v1Zm8 21H13v1h29v-1Zm-11.71 3.28-.24.42s-.33-.25-.75-.25c-.33 0-.66.08-.67.4 0 .25.33.29.61.32l.16.02c.69.1 1.16.25 1.16.88 0 .8-.81.93-1.38.93-.7 0-1.18-.38-1.18-.38l.25-.37s.47.3.93.3c.5 0 .87-.1.87-.4 0-.22-.07-.36-.75-.45-.9-.12-1.2-.37-1.2-.86 0-.75.83-.84 1.2-.84.45 0 .99.28.99.28Zm-8.79.22H23V40h-2v3h2v-.5h-1.5v-.8H23v-.48h-1.5v-.72Zm3 2.5v-3h.5v1.57L26.3 40h.56l-.98 1.2L27 43h-.55l-.89-1.43-.56.68V43h-.5Zm9.5-3v.5h-.99V43h-.5v-2.5H31.5V40H34Zm1 0h.5v3H35v-3Zm.25-.3a.35.35 0 1 0 0-.7.35.35 0 0 0 0 .7Zm2.25.3H37v3h2v-.5h-1.5V40Zm-18 0v.5h-.99V43h-.5v-2.5H17V40h2.5Z" fill="#20428E"/></svg>