<!-- by TradingView --><svg width="56" height="56" viewBox="0 0 56 56" xmlns="http://www.w3.org/2000/svg"><path fill="#F0F3FA" d="M0 0h56v56H0z"/><path d="M32.44 16.2a7.82 7.82 0 0 1 6.36 1.24c.01.01.03.02.05.01l5.15-.68v.04l-.25 1.96v.01h-.01l-4.07-.5h-.01v.01l-.02.14v.03a5.4 5.4 0 0 1 1.62 4.02 5.84 5.84 0 0 1-1.57 3.9 7.03 7.03 0 0 1-3.62 2.13c-1 .25-2.02.3-3.06.18a18.68 18.68 0 0 1-1.29-.19c-.68.17-1.26.45-1.74.85-.58.5-.85 1.07-.8 1.71.08.83.64 1.35 1.68 1.56.41.1.88.14 1.4.15.32.01.8 0 1.45-.02h.1c.83-.04 1.82-.07 2.95-.1 2.13-.06 3.8.38 5 1.32a4.43 4.43 0 0 1 1.64 3.2 6.86 6.86 0 0 1-.45 2.83H41.3v-.01c.07-.49.06-.97-.03-1.45-.25-1.34-1.14-2.23-2.68-2.68-.98-.29-2.3-.4-3.96-.33a149.55 149.55 0 0 0-3.2.2 5.83 5.83 0 0 0-2.5 2.18 4.1 4.1 0 0 0-.65 2.09h-2.27l-.01-.01c.26-.99.84-1.87 1.76-2.66a10.06 10.06 0 0 1 2.86-1.74v-.04l-.01-.03-.03-.01c-.62-.06-1.2-.2-1.78-.4a3.83 3.83 0 0 1-1.79-1.24 2.31 2.31 0 0 1-.38-2.11c.2-.73.64-1.39 1.34-1.97a7.72 7.72 0 0 1 3-1.57.05.05 0 0 0 0-.06l-.02-.02a5.96 5.96 0 0 1-3.8-5.43A6.48 6.48 0 0 1 30 17.28c.75-.5 1.56-.87 2.45-1.07ZM19.5 16a9.04 9.04 0 0 1 3.27.73l1.24-.42h.01l.24 5.21v.02a.02.02 0 0 1-.02 0h-.66v-.01l-1.6-3.62a4.31 4.31 0 0 0-3.8-1.08c-.74.14-1.34.48-1.78 1-.46.53-.7 1.21-.73 2.03a3.1 3.1 0 0 0 .89 2.45 6.8 6.8 0 0 0 1.95 1.23l1.96.8c.79.32 1.42.64 1.92.94.67.41 1.21.88 1.62 1.41.49.65.8 1.4.92 2.25a6.07 6.07 0 0 1-.74 4.07 5.72 5.72 0 0 1-2.44 2.25c-.94.47-2 .72-3.14.74a13 13 0 0 1-5.25-1.03L13 29.8v-.09h.67l.01.02.74 2.27.18.43a6.03 6.03 0 0 0 1.72 2.03 4.25 4.25 0 0 0 4.3.38 3.56 3.56 0 0 0 2.03-3.05 3.8 3.8 0 0 0-.25-1.77 3.92 3.92 0 0 0-1.59-1.81 9.83 9.83 0 0 0-1.3-.7l-1.42-.58-.21-.08a9.23 9.23 0 0 1-2.92-1.7 4.62 4.62 0 0 1-1.5-3.08c-.08-.83 0-1.61.25-2.35a5.15 5.15 0 0 1 2.74-3.12 5.84 5.84 0 0 1 2.46-.6h.58Zm15.59.74a3.42 3.42 0 0 0-2.93.6 4.8 4.8 0 0 0-1.65 2.58 8.79 8.79 0 0 0-.23 3.56 6.4 6.4 0 0 0 1.3 3.36c.34.4.72.71 1.17.93a3.59 3.59 0 0 0 3.82-.51 4.58 4.58 0 0 0 1.39-2.15 9.2 9.2 0 0 0 .29-3.84 6.88 6.88 0 0 0-.87-2.83 3.46 3.46 0 0 0-2.3-1.7Z" fill="#555150"/></svg>