<!-- by TradingView --><svg width="56" height="56" viewBox="0 0 56 56" xmlns="http://www.w3.org/2000/svg"><path fill="#F0F3FA" d="M0 0h56v56H0z"/><path d="M37 41c4.4-2.8 7-7.69 7-13.24C44 19.06 36.84 12 28 12s-16 7.05-16 15.76c0 5.27 2.96 10.38 7 13.24-2.34-2.36-4-6.06-4-9.65C15 24.13 20.71 18 27.9 18 35.1 18 41 24.13 41 31.35c0 3.82-1.4 7.26-4 9.65Z" fill="#F9862E"/><path d="M27.48 46.91c-.12-1.13-.48-2.4-.48-3.4 0-4.08 2.1-7.75 5.7-8.81.36-.11 1.51-.43 3.44-.95a5.46 5.46 0 0 0 1.51-.7c.12-.07.22-.07.3 0 .06.05.06.1.01.15a8.6 8.6 0 0 0-2.21 3.66c-.78 2.46-1.45 4.94-3.38 6.52-.18.15-.8.54-1.85 1.17-.87.52-1.22.86-1.87 1.69-.15.2-.24.16-.27-.1-.03-.35.15-.8.21-1.05.36-1.4.8-2.57 1.34-3.51a24.83 24.83 0 0 1 3.92-5.05c.02-.02.02-.04 0-.06 0-.03-.02-.03-.05-.01-3.14 2.38-5.81 6.12-6.05 10.44-.07.11-.26.15-.27.01Z" fill="#2F823F"/><path d="M28.99 25.3c.38 1.1.58 2.62.62 4.57.03 1.83-.3 3.55-.96 5.14-.11.26-.27.5-.47.74a.08.08 0 0 1-.05.03.08.08 0 0 1-.09-.04.08.08 0 0 1 0-.05c.16-.7.05-1.36-.33-1.98-1.16-1.9-2-3.63-1.62-5.83.16-.94.46-2.06.9-3.35.12-.33.26-1.02.44-2.08.1-.57-.01-1.34-.32-2.3-.02-.06 0-.1.07-.14.08-.03.16 0 .24.11.94 1.37 2.07 2.46 3.14 3.57.59.6 1.02 1.13 1.32 1.58 1.71 2.7 1.36 5.9-.37 8.6-.27.42-.79.96-1.54 1.6l-1.72 1.51c-.02.03-.05.03-.07 0l-.03-.05v-.01a7.8 7.8 0 0 0 1.72-3.41c.37-1.57.45-3.03.26-4.37a21.1 21.1 0 0 0-.84-3.51c-.07-.22-.15-.35-.23-.39-.07-.03-.1 0-.07.06Z" fill="#75AB6E"/><path d="M23.34 32.64c.03-.28 0-.28-.1-.02a6.5 6.5 0 0 0-.34 2.14c0 1.37.05 2.48.17 3.33.26 1.78.83 3.43 1.71 4.93.31.53.84 1.09 1.12 1.54.3.49.23.57-.2.25-.6-.44-.96-.8-1.57-1.21a9.69 9.69 0 0 1-3.51-11.28c.23-.58.69-1.4 1.38-2.46a34.22 34.22 0 0 0 2.07-3.67.48.48 0 0 1 .13-.18l.04-.01.04.01.02.03.01.04c-.24 3 1.31 5.12 2.2 7.83.7 2.12.65 4.28-.18 6.33a7.1 7.1 0 0 0-.54 2.1c-.02.34.15.76.18 1 .04.25-.01.31-.15.18a2.42 2.42 0 0 1-.46-.6 17.7 17.7 0 0 1-2.01-6.77 14.95 14.95 0 0 1-.01-3.5Z" fill="#4D934C"/></svg>