<!-- by TradingView --><svg width="56" height="56" viewBox="0 0 56 56" xmlns="http://www.w3.org/2000/svg"><path fill="#F0F3FA" d="M0 0h56v56H0z"/><path d="M31.56 17c.18-.05.17-.07 0-.06-1.18.05-2.26.25-3.25.6-3.47 1.22-4.98 4.77-3.37 7.94.03.06.08.07.14.04 2.98-1.5 6.57-2.4 9.87-1.59a8.6 8.6 0 0 1 3.39 1.77A6.22 6.22 0 0 1 40 27.88a12.21 12.21 0 0 1 1.02 6.2l-.15 1.64A7.62 7.62 0 0 0 43 41.79a.13.13 0 0 1-.03.13.15.15 0 0 1-.06.04.58.58 0 0 1-.33.03C36.65 40.9 30 37.5 30 31.09c0-.27.01-.53.03-.8.1-1.15.44-2.29.78-3.53.04-.18.16-.25.35-.2 2.08.46 3.8 2.25 4.76 4a16.61 16.61 0 0 1 1.5 3.72c0 .02.02.03.04.02h.04l.01-.02c-.07-.8-.17-1.57-.3-2.32a8.35 8.35 0 0 0-3.87-5.84 8.25 8.25 0 0 0-8.17-.18.25.25 0 0 0-.11.12.23.23 0 0 0-.02.15c.47 1.84.46 3.93-.45 5.61a5.63 5.63 0 0 1-3.68 2.8 12 12 0 0 1-2.65.38c-.75 0-1.49-.14-2.27-.28-.86-.16-1.4-.24-1.62-.26-1.5-.08-2.89.3-4.16 1.13a.13.13 0 0 1-.09.02.12.12 0 0 1-.08-.04.17.17 0 0 1-.03-.18c.36-1.23.88-2.4 1.55-3.52 1.63-2.7 4.02-4.86 7.3-4.87 1.48 0 2.74.56 4.12 1.06a.2.2 0 0 1 .11.1.18.18 0 0 1 0 .13c-.34.83-.88 1.5-1.61 2.05a9.12 9.12 0 0 1-3.32 1.5 25.6 25.6 0 0 1-1.65.36v.05c-.01.02 0 .03.02.03l1.29-.05c2.13-.07 4.04-.7 5.36-2.25a5.25 5.25 0 0 0 .83-5.75A9.78 9.78 0 0 1 23 20.5a6 6 0 0 1 3.85-5.46c1.56-.57 3.18-.78 4.88-.63l1.64.14c1.53 0 2.9-.47 4.12-1.42.29-.22.4-.16.33.18a14.54 14.54 0 0 1-2.04 5.13A7.42 7.42 0 0 1 29.12 22a15 15 0 0 1-3.45-.32.17.17 0 0 1-.1-.07.15.15 0 0 1-.02-.13c.19-.7.55-1.34 1.1-1.9C28 18.2 29.72 17.52 31.56 17Z" fill="#00AD6B"/></svg>