<!-- by TradingView --><svg width="56" height="56" viewBox="0 0 56 56" xmlns="http://www.w3.org/2000/svg"><path fill="#F0F3FA" d="M0 0h56v56H0z"/><path fill-rule="evenodd" d="M28.63 42C21.75 41.84 8 38.89 8 28.3 8.09 23.87 12.34 15 28.63 15c5.9 0 19.3 3.89 19.3 13.3.56 3.2-2.33 9.76-18.25 10.3-2.22 0-1.63 2.26-1.05 3.4ZM14 25v-.77A5.14 5.14 0 0 0 18.42 21H19v3h3v1h-3v6.37c0 .36.3 1.08 1.45 1.08.32 0 1.2-.15 1.55-.75v.75A4.58 4.58 0 0 1 18.66 34C16.59 34 16 32.36 16 31.37V25h-2Zm19 0v-.75c1-.03 3.53-.72 4.5-3.25h.5v3h3v1h-3v6.42c0 .36.4 1.09 1.58 1.09.33 0 1.07-.15 1.42-.75v.75c-.38.5-1.55 1.49-3.25 1.49-2.24 0-2.75-1.58-2.75-2.58V25h-2Zm-8.86 2.72c.47.03 1.6-.18 2.25-1.3.83-1.4 1.17-1.42 1.61-1.42.44 0 1 .13 1 1.02v1.4c-.6.42-1.6 1.02-2.88 1.55-2.24.93-2.77 1.91-2.77 3.15 0 1.25.93 1.88 2.22 1.88 1.43 0 2.62-.8 3.46-1.46.12.6.7 1.46 2.05 1.46 1.5 0 2.47-1.07 2.77-1.65v-.52c-.24.23-.83.7-1.25.7-.43 0-.58-.64-.6-.96v-5.55c-.02-.64-.95-2.02-4-2.02-3.82 0-4.65 2.73-4.65 3.16 0 .35.52.52.79.56ZM29 31.18v-2.44c-1.15.31-2.88 1.35-2.88 2.38 0 .97.72 1.22 1.08 1.23.77 0 1.4-.6 1.8-1.17Z" fill="#E30917"/></svg>