<!-- by TradingView --><svg width="56" height="56" viewBox="0 0 56 56" xmlns="http://www.w3.org/2000/svg"><path fill="#F0F3FA" d="M0 0h56v56H0z"/><path d="m22.32 41.8 5.56 3.05c.08.04.16.04.24 0l5.56-3.04a.14.14 0 0 0 .07-.08l8.07-22.29a1 1 0 0 0-.56-1.26l-6.58-2.7a6.83 6.83 0 0 0-2.5-.48h-8.36c-.86 0-1.7.16-2.5.47l-6.58 2.71a1 1 0 0 0-.56 1.26l8.07 22.29c.02.04.04.06.07.08Zm-1.4-28.33c.8-.3 1.64-.47 2.5-.47h9.16c.86 0 1.7.16 2.5.47l6.96 2.74a3.11 3.11 0 0 1 1.77 3.96l-8.07 22.28c-.19.52-.56.95-1.04 1.22l-5.56 3.04c-.71.39-1.57.39-2.28 0l-5.56-3.04c-.48-.27-.85-.7-1.04-1.22l-8.07-22.28a3.11 3.11 0 0 1 1.77-3.96l6.96-2.74Z" fill="#5B595E"/><path d="m23.98 29.96-2.62-11.4c-.1-.45-.62-.69-1.07-.5l-3.85 1.67c-.35.15-.52.52-.4.86l2.55 6.98c.13.35.37.67.7.9l3.2 2.34c.68.5 1.67-.06 1.49-.85Z" fill="#ED671E"/><path d="m32.02 29.96 2.62-11.4c.1-.45.62-.69 1.07-.5l3.85 1.67c.35.15.52.52.4.86l-2.55 6.98c-.13.35-.37.67-.7.9l-3.2 2.34c-.68.5-1.67-.06-1.49-.85Z" fill="#FB9C17"/><path d="M28.61 41a4.18 4.18 0 0 1-1.87-2.63l-3.72-20.32c-.13-.64.43-1.19 1.01-1.02 1.22.35 2.8.73 3.97.77 1.16-.04 2.75-.42 3.97-.77.58-.17 1.14.38 1.01 1.02L28.61 41Z" fill="#F6811E"/><path d="m30 41 1-5c1.4.63 2 1.03 2 1.86-.45 2.64-2.19 3.19-3 3.14Z" fill="#FB9C17"/></svg>