<!-- by TradingView --><svg xmlns="http://www.w3.org/2000/svg" width="56" height="56"><path fill="#F0F3FA" d="M0 0h56v56H0z"/><path fill-rule="evenodd" d="M5 23h5.45c1.1.04 3.57.83 3.55 3.7-.02 2.87-2.47 3.34-3.7 3.3H8v4H5V23zm3 2h1.65c.38 0 1.35.34 1.35 1.45S10.19 28 9.75 28H8v-3zm20-2h4.94c1.12.04 4.08.65 4.06 3.52-.01 1.75-1.18 2.56-2.17 2.99L38 34h-3.58l-2.59-4H31v4h-3V23zm3 2h1.65c.38 0 1.35.34 1.35 1.45S33.19 28 32.75 28H31v-3zm9 9l4.32-11h3.31L52 34h-3l-.78-2H43.8l-.8 2h-3zm4.32-4L46 26l1.72 4h-3.4z" fill="#999A9C"/><path fill="#EF1F53" d="M16 23h9v3h-9z"/><path fill="#2BBB59" d="M16 27h9v3h-9z"/><path fill="#009AE2" d="M16 31h9v3h-9z"/></svg>