<!-- by TradingView --><svg xmlns="http://www.w3.org/2000/svg" width="56" height="56"><path fill="#F0F3FA" d="M0 0h56v56H0z"/><path fill-rule="evenodd" d="M45 17.5L13 13v9h4.63l2.6 11h3.55l2.28-11H45v-4.5zM26.75 23h14.1l-2 10H24.62l1.58-7h8.17l.3-1h-8.31l.4-2zm4.44 5h2.7l-.4 2h-2.7l.4-2zM12 36h4.46v1.47H15V42h-1.4v-4.53H12V36zm32 0h-4.46v1.47h1.6V42h1.38v-4.53H44V36zm-27 0h4v1.32h-2.47v.95H21v1.27h-2.47v1.1H21V42h-4v-6zm6.44 6v-1.36l.8-1.07.96 2.43H27l-1.8-3.72L26.89 36H25l-1.57 2.23V36H22v6h1.44zM29 39h-2v1.34h2V39zm1.98-3h1.56l1.8 6h-1.56l-.24-1h-1.56l-.3 1h-1.46l1.76-6zm.28 3.76l.48-2.09.5 2.1h-.98zm5-3.76h-1.5v6h1.5v-2.52c.39.12.63.44.7.6l.89 1.92h1.57c-.53-1.64-1.07-2.4-1.39-2.66a1.74 1.74 0 00-.67-3.34h-1.1zm0 2.53v-1.36h.7a.68.68 0 110 1.36h-.7z" fill="#00309C"/></svg>