<!-- by TradingView --><svg width="56" height="56" viewBox="0 0 56 56" xmlns="http://www.w3.org/2000/svg"><path fill="#F0F3FA" d="M0 0h56v56H0z"/><path d="M14.82 22.68a10.63 10.63 0 0 1-.75-3.1c-.03-.06 0-.14-.02-.21-.03-.21-.01-.42-.05-.63v-.33c.04-.1 0-.2.02-.3l.02-.37c0-.49.1-.96.2-1.43.27-1.26.75-2.44 1.45-3.52a9.08 9.08 0 0 1 2.65-2.7c.06-.03.13-.05.19-.09h.04l.29.48c.06.03.1.07.13.13l.9 1.46c.12.2.1.25-.08.4A7.74 7.74 0 0 0 17.65 15a8.65 8.65 0 0 0-1 5.07v.2c-.02.09-.09.15-.15.2a8.08 8.08 0 0 0-1.59 2.1c-.02.04-.03.1-.09.1Z" fill="#DC0067"/><path d="M14.82 22.68a8.32 8.32 0 0 1 1.68-2.27l.11-.12c.1.02.1.1.11.18.13.93.4 1.81.83 2.64a6.76 6.76 0 0 0 4.83 3.66c.07.02.15.01.22.04-.06-.03-.12-.02-.18-.03l-.48-.1a5.41 5.41 0 0 1-2.26-1.28 6.9 6.9 0 0 1-2.09-3.81c-.03-.17-.04-.34-.08-.51-.06-.47.01-.94-.01-1.4-.01-.1.04-.16.11-.2a7.69 7.69 0 0 1 2.13-.97c.06-.02.12-.04.18 0 .05.1 0 .19-.02.27-.24.8-.36 1.62-.3 2.45.1 1.45.57 2.75 1.6 3.8.5.52 1.07.91 1.73 1.16.24.09.48.15.71.23a4.42 4.42 0 0 0 3.24-.7l.24-.16c.03-.01.05-.03.08 0 .03.04.02.07 0 .1l-.11.1c-.31.28-.65.53-.99.77-.03.08-.1.12-.17.16a7.51 7.51 0 0 1-3.29 1.14 5.3 5.3 0 0 1-1.58-.05c-.6-.1-1.18-.23-1.74-.46a7.9 7.9 0 0 1-3.47-2.78c-.39-.53-.7-1.1-.97-1.7l-.06-.16Z" fill="#8E0D4C"/><path d="M21.9 26.68a4.5 4.5 0 0 1-1.12-.36 6.72 6.72 0 0 1-3.08-2.84 8.31 8.31 0 0 1-1.01-2.88c-.02-.1 0-.22-.08-.31l-.06-.94a8.7 8.7 0 0 1 2.02-5.78c.38-.45.8-.85 1.27-1.2.13-.08.13-.08.04-.22l-1.02-1.67c.15-.04.26-.15.39-.23.13-.08.13-.08.2.04l1.23 1.97.06.1c.03.04.03.08-.02.12a8.03 8.03 0 0 0-2.35 2.77 8.9 8.9 0 0 0-1 4.61c.01.25.05.5.08.75.07.16.04.35.1.51.07.23.09.47.14.7.3 1.28.88 2.4 1.79 3.32.69.71 1.51 1.21 2.45 1.5 0 .04 0 .06-.04.04Z" fill="#B7B6B6"/><path d="M19.91 18.52a7.38 7.38 0 0 0-2.43 1.1c.05-.86.23-1.69.55-2.48a6.96 6.96 0 0 1 2.6-3.25c.05-.04.1-.09.17-.1l.3.47c.1.04.13.14.19.22l.65 1.06c.07.12.05.2-.06.29a5.99 5.99 0 0 0-1.87 2.55c-.02.05-.01.13-.1.14Z" fill="#DC0067"/><path d="M19.91 18.52c.4-1.08 1.02-2 1.91-2.7l.06-.05c.09-.05.09-.1.03-.2l-.76-1.23-.04-.08.38-.28c.08-.06.12-.04.17.04l.6.98.44.72c.07.11.08.13-.03.22a5.94 5.94 0 0 0-1.7 2.11 6.73 6.73 0 0 0 .37 6.46c.56.84 1.29 1.48 2.23 1.86.02 0 .05.03.07.05-.31-.03-.6-.13-.88-.25a4.94 4.94 0 0 1-2.47-2.29 6.14 6.14 0 0 1-.72-2.36c-.09-.94.01-1.85.28-2.75.03-.08.06-.16.06-.25ZM21.06 27.78c.14-.02.27.02.4.03 1.57.09 3.02-.3 4.36-1.1l.28-.18c.03.04.06.02.1.01.52-.12 1-.35 1.45-.64l.2-.13c.04-.02.1-.08.14-.02.04.06-.03.09-.06.12-.15.15-.32.28-.48.42-.71.56-1.49 1-2.34 1.3a7.22 7.22 0 0 1-4 .22c-.02 0-.03-.02-.05-.03ZM34.53 46c-.14-.28-.27-.56-.47-.81 0-.09.07-.1.12-.14a13.03 13.03 0 0 0 4.38-4.79 15.25 15.25 0 0 0 1.89-7.4c0-.27.01-.52-.04-.78a14.5 14.5 0 0 0-3.58-9.03 12.33 12.33 0 0 0-3.3-2.65c-.72-.39-1.48-.7-2.26-.92-.11-.04-.25-.02-.32-.15.23-.02.46.04.69.08a10.87 10.87 0 0 1 4.52 1.89 12.71 12.71 0 0 1 3.72 4.02 14.4 14.4 0 0 1 1.91 5.28c.07.44.12.88.15 1.32.03.45.07.9.06 1.35a15.86 15.86 0 0 1-1.35 6.19 14.11 14.11 0 0 1-2.54 3.85 12.83 12.83 0 0 1-3.37 2.6c-.05.03-.1.04-.14.09h-.07Z" fill="#B7B6B6"/><path d="M40.46 32.08c.06.53.04 1.06.01 1.59-.02.31-.04.63-.08.94a14.89 14.89 0 0 1-3.72 8.37c-.78.85-1.65 1.58-2.62 2.21-.28.17-.56.34-.86.49-.13.07-.14.07-.2-.05l-1.85-3.28c-.06-.1-.06-.1.05-.18a11.54 11.54 0 0 0 5.34-8.29c0-.16 0-.33.03-.49.06-.76.12-1.53.06-2.3a11.67 11.67 0 0 0-.75-3.66c-.03-.09-.07-.18-.08-.29.07-.13.15-.04.2 0a13.4 13.4 0 0 1 4.23 4.47c.1.14.2.3.24.47Z" fill="#0078B9"/><path d="M40.46 32.08c-.17-.24-.3-.5-.45-.75a14.34 14.34 0 0 0-2-2.52c-.5-.47-1.01-.91-1.57-1.31l-.53-.37a.18.18 0 0 0-.1-.04c-.08 0-.09-.07-.1-.12a12 12 0 0 0-1.87-3.06 10.47 10.47 0 0 0-1.95-1.8 9.7 9.7 0 0 0-3.42-1.56c-.04 0-.08-.03-.12-.04-.09-.03-.19-.01-.27-.06.06.04.14.03.2.05l.18.05c.16.03.32.09.47.13 1.11.4 2.1 1 2.97 1.77 1.11.98 1.95 2.15 2.55 3.5.06.13.18.25.11.42-.1.01-.16-.04-.24-.08-.9-.44-1.84-.77-2.82-1-.16-.3-.3-.61-.49-.9a7.82 7.82 0 0 0-3.05-2.92c-.4-.21-.82-.38-1.25-.5l-.17-.04c-.51-.07-1.03-.16-1.55-.19-.14 0-.29-.02-.42 0-.2.03-.38.04-.57 0-.75.09-1.46.3-2.13.64l-.7.35c-.05.02-.1.09-.15 0-.04-.06-.02-.11.04-.16.3-.23.6-.46.9-.66a11.42 11.42 0 0 1 6.86-1.9c.68.05 1.34.15 2 .3l.13.02.89.28c1.25.43 2.4 1.07 3.43 1.9a13.6 13.6 0 0 1 4.23 5.9 14.7 14.7 0 0 1 .96 4.67Z" fill="#00A5EE"/><path d="M31.5 25.3c.05-.05.1-.03.16-.02a14.89 14.89 0 0 1 2.9 1.08c.1 0 .1.1.13.16.31.8.5 1.63.62 2.48a11.6 11.6 0 0 1-.94 6.32 10.3 10.3 0 0 1-3.19 3.93c-.07.05-.13.1-.23.1-.3.2-.58.38-.9.54-.1.06-.11.06-.17-.05l-1.57-2.8-.03-.06.08-.06a8.5 8.5 0 0 0 3.36-4.25 9.73 9.73 0 0 0-.17-7.25l-.05-.12Z" fill="#0078B9"/><path d="M30.95 39.36a10.18 10.18 0 0 0 3-3.3 10.9 10.9 0 0 0 1.4-4.9 11.03 11.03 0 0 0-.76-4.77l-.02-.03a10.1 10.1 0 0 0-2.4-3.6 9.16 9.16 0 0 0-3.15-2l-.09-.04c0-.08.04-.05.08-.04.53.13 1.03.33 1.51.57a10.4 10.4 0 0 1 3.86 3.28c.55.75 1 1.56 1.36 2.42.02.05.03.1.07.14.11.35.25.69.35 1.04a12.97 12.97 0 0 1 .54 4.14l-.08 1.06-.02.07c-.06.11-.03.26-.12.36a10.07 10.07 0 0 1-4.37 6.04c-.18.12-.37.22-.55.33-.1.05-.11.05-.17-.06l-.34-.59c-.02-.04-.04-.1-.1-.12ZM24 20.74a7.2 7.2 0 0 1 2.33.13c.08.02.15.02.21.06h-.25a6.8 6.8 0 0 0-2.55.52c-.35.14-.68.33-1.01.49l-.18.08c-.08-.15-.08-.15.03-.23.45-.35.91-.67 1.4-.96.04-.02.12-.04.02-.09Z" fill="#B7B6B6"/><path d="M17.46 19.48h.03c-.02.5 0 1 .05 1.49h-.03c-.03-.17-.08-.33-.08-.5.05-.06.03-.12.03-.18v-.8Z" fill="#E4D1DA"/><path d="m14.04 19.23.03.01v.21c-.05-.06-.03-.14-.03-.21Z" fill="#F3A9CB"/></svg>