<!-- by TradingView --><svg xmlns="http://www.w3.org/2000/svg" width="56" height="56" viewBox="0 0 56 56"><path fill="#F0F3FA" d="M0 0h56v56H0z"/><path d="M29.54 23.96L18.4 26h12.74c.36 0 .66-.3.66-.66C31.81 21.3 28.83 15 21.28 15c-6.04 0-9.05 4.9-9.8 7.34.86-1.78 4.04-5.33 9.8-5.33 5.76 0 7.9 4.63 8.26 6.95z" fill="#3BAF2A"/><path d="M24.64 24H7.45c-.8 0-1.44.63-1.44 1.41 0 .88.8 1.54 1.67 1.4l3.1-.52c.25 3.49 2.43 9.15 9.9 9.71a11.07 11.07 0 0 1-7.88-10.04L24.65 24z" fill="#0F0E9F"/><path fill-rule="evenodd" d="M26 31c0 .13-.01.26-.04.38h-2.92a1 1 0 0 0 .99.74c.31 0 .76-.12 1.1-.4l.4.56A2 2 0 1 1 26 31zm-2.03-1.07a1 1 0 0 0-.91.69h1.83a1 1 0 0 0-.92-.69zm3.27-.93h-1v2.3a1.7 1.7 0 0 0 3.42 0V29h-.95v2.27c0 .4-.33.72-.74.72a.73.73 0 0 1-.73-.72V29zM30 29h1.02v.35a1.79 1.79 0 0 1 1.48-.3v.91l-.3-.03c-.49 0-1.06.3-1.18.71V33H30v-4zm4.5 4a2 2 0 1 0 0-4 2 2 0 0 0 0 4zm0-.99a1.01 1.01 0 1 0 0-2.02 1.01 1.01 0 0 0 0 2.02zM39 33a2 2 0 1 0-1-3.73V29h-1v4.5h1v-.77a2 2 0 0 0 1 .27zm-1-2.08v.16a1 1 0 1 0 0-.16zM49 31a2 2 0 0 1-3 1.73v.77h-1V29h1v.27A2 2 0 0 1 49 31zm-3 0a1 1 0 1 0 2 0 1 1 0 0 0-2 0zm-4.22-.56l-.55-.66s.65-.78 1.6-.78c1.3 0 1.67.86 1.7 1.28V33h-.94v-.43c-.25.27-.6.43-.96.43h-.38a1.12 1.12 0 0 1 0-2.24h1.28c0-.52-.2-.86-.7-.86-.4 0-.87.36-1.05.54zm.98 1.84c.45 0 .7-.53.77-.8h-.86c-.43 0-.53.25-.53.38s.06.42.62.42zM24 35v1.87c0 .62.48 1.13 1.07 1.13H26v-1h-.6c-.29 0-.4-.1-.4-.41V35h1.01v-.7H25v-.8h-1v.8h-.42v.7H24zm6.33 1a2 2 0 0 1-.04.38h-2.92a1 1 0 0 0 .98.74c.36 0 .77-.12 1.11-.4l.4.56a2 2 0 1 1 .47-1.28zm-2.02-1.07a1 1 0 0 0-.92.69h1.83a1 1 0 0 0-.91-.69zm6.03-.92H31V35h1.68l-1.9 2.65V38h3.57v-1H32.4l1.93-2.65V34zM38.5 36a2 2 0 1 1-4 0 2 2 0 0 1 4 0zm-.99 0a1.01 1.01 0 1 1-2.02 0 1.01 1.01 0 0 1 2.02 0zM40 33.5h-1V38h1v-4.5z" fill="#0F0E9F"/></svg>