<!-- by TradingView --><svg xmlns="http://www.w3.org/2000/svg" width="56" height="56"><path fill="#F0F3FA" d="M0 0h56v56H0z"/><path d="M50 28c0 6.07-6.1 11-13.61 11-3.17 0-6.08-.87-8.39-2.34A15.71 15.71 0 0119.61 39C12.1 39 6 34.08 6 28c0-6.07 6.1-11 13.61-11 3.17 0 6.08.87 8.39 2.34A15.71 15.71 0 0136.39 17C43.9 17 50 21.92 50 28zM18.7 38c3.25 0 6.21-1.05 8.4-2.76h1.85a13.67 13.67 0 008.4 2.76c6.74 0 12.2-4.48 12.2-10s-5.46-10-12.2-10c-3.15 0-6.02.98-8.18 2.6h-2.29A13.74 13.74 0 0018.7 18c-6.74 0-12.2 4.48-12.2 10s5.46 10 12.2 10z"/><path d="M29.5 19.87a11 11 0 012.49 1.49 17.35 17.35 0 012.47 2.34l-.24.17-.6-.67h-2.68l.2.38.07.15-.28.11-.07-.15-.25-.5h-2.57v.6h-.3v-.6h-2.66l-.24.5-.08.15-.27-.11a20.96 20.96 0 00.26-.53h-2.58c-.25.26-.45.49-.6.67l-.24-.17a17.36 17.36 0 012.47-2.35 11 11 0 012.49-1.48l.12.25c-.72.3-1.44.73-2.1 1.2h1.6a7.9 7.9 0 011-1.1l.2.2c-.3.28-.58.59-.84.9h1.47v-.8h.3v.8h1.38a7.34 7.34 0 00-.85-.9l.21-.2c.38.34.72.72 1 1.1h1.69c-.66-.47-1.37-.9-2.1-1.2l.13-.25zm2.34 1.73h-1.85c.33.47.6.94.8 1.32h2.55c-.42-.42-.94-.88-1.5-1.32zm-1.38 1.32c-.21-.4-.5-.86-.83-1.32h-1.59v1.32h2.42zm-2.72 0V21.6h-1.68c-.33.46-.61.92-.83 1.32h2.51zm-2.84 0c.2-.38.47-.85.8-1.32h-1.75c-.57.44-1.08.9-1.5 1.32h2.45zM29.5 36a11 11 0 002.49-1.49 17.35 17.35 0 002.47-2.34l-.24-.17-.6.67h-2.68l.2-.37.07-.16-.28-.11-.07.15-.25.5h-2.57v-.6h-.3v.6h-2.66l-.24-.5-.08-.15-.27.11.07.16.2.37h-2.59c-.25-.26-.45-.49-.6-.67l-.24.17a17.36 17.36 0 002.47 2.35A11 11 0 0026.29 36l.12-.25c-.72-.3-1.44-.73-2.1-1.2h1.6c.29.38.62.76 1 1.1l.2-.2c-.3-.28-.58-.59-.84-.9h1.47v.81h.3v-.81h1.38c-.25.31-.53.62-.85.9l.21.2c.38-.34.72-.72 1-1.1h1.69c-.66.47-1.37.9-2.1 1.2l.13.25zm2.34-1.73h-1.85c.33-.47.6-.93.8-1.32h2.55c-.42.42-.94.88-1.5 1.32zm-1.38-1.32c-.21.4-.5.86-.83 1.32h-1.59v-1.32h2.42zm-2.72 0v1.32h-1.68c-.33-.46-.61-.92-.83-1.32h2.51zm-2.84 0c.2.39.47.85.8 1.32h-1.75a15.8 15.8 0 01-1.5-1.32h2.45z"/><path d="M35.16 25c2-.01 2.66 1.19 2.66 1.69h-1.94c0-.44-.55-.69-.9-.69-.36 0-.86.2-.84.58.02.47.8.55 1.26.59h.03c2.03.19 2.55 1.25 2.56 1.75.07.64-.49 2.08-2.83 2.08-2.59 0-3.12-1.26-3.16-2h1.93c.08.77.78 1 1.23 1 .35 0 .87-.19.86-.69-.02-.5-.96-.73-1.43-.78-2.26-.48-2.34-1.4-2.34-1.84 0-.5.41-1.67 2.91-1.69zM23 25h-7v1.5h2.5V31h2v-4.5H23V25zm7.6 1.56c-.19-.54-.88-1.48-2.89-1.56-2.3-.08-3.71 1.1-3.71 2.94 0 1.99 1.57 3.13 3.71 3.06 1.72-.06 2.64-.7 2.89-1.02V27.6H28v1.18h1v.72c-.1.13-.55.49-1.43.49-.98 0-1.57-.89-1.57-2.06s.65-1.96 1.57-1.94c.93.02 1.19.61 1.3.85l1.73-.3z" fill="#2D3094"/></svg>