<!-- by TradingView --><svg xmlns="http://www.w3.org/2000/svg" width="56" height="56"><path fill="#F0F3FA" d="M0 0h56v56H0z"/><path d="M14 14h28v28h-8V23h5v-5H29v24h-2V18H17v5h5v19h-8V14z" fill="#1B4177"/><path d="M17.56 40.76A8.68 8.68 0 0114 41.78V44h.72c.57 0 1.81-.28 2.84-.77 1.03-.5 2.01-.97 3.28-.97 1.06 0 2.06.5 2.64.79 1.68.83 2.95.95 3.86.95.96 0 2.7-.5 3.56-.95.97-.51 2.16-.82 2.79-.82.63 0 1.8.18 2.98.77 1.46.74 3.2 1 3.88 1 .55 0 1.2-.1 1.45-.15v-2.3c-.16.04-.68.11-1.45.11-.96 0-1.4-.08-3.39-.9A9.45 9.45 0 0033.7 40c-.86 0-2.23.26-3.32.81-.82.4-2.35.85-3.03.85-.69 0-1.76-.05-3.15-.76-1.38-.7-2.8-.9-3.41-.9-.74 0-2.07.15-3.22.76z" fill="#A51E27"/></svg>