<!-- by TradingView --><svg xmlns="http://www.w3.org/2000/svg" width="56" height="56"><path fill="#F0F3FA" d="M0 0h56v56H0z"/><path d="M31 45V31l-4 4v8l3 3 1-1z" fill="url(#aq0dwo3xv)"/><path d="M24 34v6l-8.5-8.8L30 15.9l2.3 2.3-4.3 4.5V30l-4 4z" fill="#006DB0"/><path opacity=".9" d="M44.16 24.2c-1.7-2.4-3.9-4.75-6.55-6.84C28.47 10.1 17.21 9 13.5 13.68c-2.82 3.56-1.65 9.5 2.41 15.24-3.28-5.12-4.16-10.13-1.8-13.27 3.89-5.18 15.1-3.33 25.03 4.13a41.97 41.97 0 015.02 4.42z" fill="url(#bq0dwo3xv)"/><circle cx="32" cy="23" r="2" fill="#A7A8AB"/><circle cx="35" cy="26" r="2" fill="#646465"/><circle cx="38.5" cy="26.5" r="1.5" fill="#939497"/><circle cx="41" cy="30" r="2" fill="#717274"/><circle cx="37" cy="33" r="2" fill="#85878A"/><circle cx="34.5" cy="35.5" r="1.5" fill="#5C5C5E"/><circle cx="38" cy="37" r="2" fill="#8C8C90"/><circle cx="36" cy="41" r="2" fill="#747578"/><circle cx="36" cy="30" r="1" fill="#9A999B"/><defs><linearGradient id="aq0dwo3xv" x1="31" y1="38.5" x2="27" y2="38.5" gradientUnits="userSpaceOnUse"><stop stop-color="#333334"/><stop offset="1" stop-color="#8F8F92"/></linearGradient><linearGradient id="bq0dwo3xv" x1="44" y1="23.5" x2="8.5" y2="23.5" gradientUnits="userSpaceOnUse"><stop stop-color="#4F5154"/><stop offset="1" stop-color="#CBCDCE"/></linearGradient></defs></svg>