<!-- by TradingView --><svg xmlns="http://www.w3.org/2000/svg" width="56" height="56"><path fill="#BB0A20" d="M0 0h56v56H0z"/><path d="M37 22a9.01 9.01 0 00-9-9 9.02 9.02 0 00-9 9 9 9 0 0018 0zm-16.45-1.08c0-.86.14-1.69.4-2.45l5.78 2.89-3.07 5.63a7.48 7.48 0 01-3.11-6.07zm8.34-1.2l-.85-6.27a7.47 7.47 0 017 4.97l-6.15 1.3zm6.17-1.25a7.46 7.46 0 01-2.71 8.51l-3.07-5.64 5.78-2.87zm-14.1-.05a7.48 7.48 0 017.02-4.97l-.87 6.27-6.14-1.3zm11.34 8.6a7.38 7.38 0 01-8.6 0l4.3-4.86 4.3 4.86zM17.63 32a.56.56 0 00-.57-.55.56.56 0 00-.57.55c0 .31.26.56.57.56.31 0 .57-.25.57-.56zm-1.85 0a.56.56 0 00-.57-.55.56.56 0 00-.56.55c0 .31.25.56.56.56.31 0 .57-.25.57-.56zm-2.47 3.53v1.21c0 1.62 1.16 2.26 2.64 2.26 1.7 0 2.57-.83 2.57-2.81 0-1.49.06-2.69.12-3.19h-.88c.04.79.06 1.53.06 2.32 0 1.59-.1 3.07-1.5 3.07-1.13 0-1.74-.33-1.74-2.42 0-1 0-1.86.12-2.97h-1.42a23.7 23.7 0 01.03 2.53zM8 33.76c.54-.06 1.3-.12 1.64-.12l.04 2.94c0 .99-.02 1.66-.07 2.42h1.45c-.05-.77-.06-1.44-.06-2.42l.01-2.94c.36 0 1.1.06 1.59.12a1.86 1.86 0 010-.76H8a1.86 1.86 0 010 .76zm12.15 1.29c-.15 1.16-.23 2.33-.3 3.49l-.04.46H19c.35-2 .65-4 .89-6h.7a114 114 0 001.97 4.16c.67-1.3 1.38-2.78 1.98-4.16h.73l.14 1.28c.2 1.77.42 3.74.59 4.72h-1.4c-.07-1.2-.2-2.7-.35-4.04-.66 1.35-1.29 2.69-1.9 4.04h-.32a234.8 234.8 0 00-1.87-3.95zm7.5 1.02c0-1.45.69-2.6 1.86-2.6 1.1 0 1.87.9 1.86 2.33 0 1.84-.9 2.67-1.92 2.67-.96 0-1.8-.62-1.8-2.4zm5.12-.08c0-2.02-1.43-2.99-3.23-2.99-1.97 0-3.27 1.34-3.29 3 0 2.09 1.46 3 3.26 3 1.91 0 3.26-1.35 3.26-3zm3.19-1.75a1 1 0 00-1.03-.72c-.52 0-.89.35-.89.76 0 .55.52.8 1.09 1.07.7.33 1.5.7 1.5 1.76 0 1.12-.91 1.89-2.26 1.89-.61 0-1.12-.18-1.37-.37.11-.38.19-.68.25-1.06h.17c.08.48.49.91 1.17.91.66 0 .99-.38.99-.86 0-.56-.51-.81-1.07-1.08-.7-.33-1.46-.7-1.46-1.75 0-1.16.9-1.79 1.91-1.79.62 0 1.07.16 1.4.4l-.28.84h-.12zm3.8 2.24l.1.24h-1.59c.26-.7.52-1.38.82-2.05l.68 1.81zm.9 2.52h1.48a102 102 0 01-2.39-6h-.66c-.76 1.97-2.04 5.04-2.47 6h.85c.16-.6.35-1.18.58-1.77h.67c.45-.01.9-.02 1.34 0 .22.59.42 1.18.6 1.77zm2.1-6h.76l3.77 4.15c0-1.38 0-3.76-.06-4.15H48c-.14 2.53-.14 3.69-.14 6h-.7a102.1 102.1 0 00-3.8-4.23v2.02c0 1.4.02 1.88.05 2.21h-.81a55.06 55.06 0 00.16-5.47V33z" fill="#fff"/></svg>