<!-- by TradingView --><svg width="56" height="56" viewBox="0 0 56 56" xmlns="http://www.w3.org/2000/svg"><path fill="#F0F3FA" d="M0 0h56v56H0z"/><path d="M28.1 13 46 17.24v20.94L28.1 43V13Z" fill="#1A478F"/><path d="M28.1 13 10 17.94v20.93L28.1 43V13Z" fill="#035099"/><path d="M39.09 36.2a3.36 3.36 0 0 1-.62-.5.08.08 0 0 0-.05-.01l-.05.01-1.52 1.3h-.04v-.02a.02.02 0 0 1 0-.02l1.29-1.4a.14.14 0 0 0-.01-.2 32.86 32.86 0 0 1-6.74-8.23c-.4-.72-.76-1.58-1.07-2.57a7.25 7.25 0 0 1-.27-1.6 4.81 4.81 0 0 1 2.89-4.64c2.65-1.29 4.73 1.6 5.85 3.4l.16.21c.03.03.06.04.1.05.04 0 .08-.01.1-.03 1.22-.9 3.05-1.8 4.4-.55 2.97 2.75.9 7.07-.99 9.72a24.73 24.73 0 0 1-3.9 4.3.12.12 0 0 0-.01.17l.51.57a.03.03 0 0 1 0 .04h-.03Zm.46-12.42-.39-.66a.07.07 0 0 0-.05-.03c-.15-.03-.25 0-.3.07a15.74 15.74 0 0 0-.39.53.1.1 0 0 1-.1 0 .1.1 0 0 1-.03-.05c-.17-.39.04-.8.26-1.13a.14.14 0 0 0 0-.15c-.91-1.39-3.17-3.8-5.1-2.58-1.2.77-1.73 2.28-1.69 3.66.07 2.2 1.16 4.45 2.33 6.34a32.14 32.14 0 0 0 3.7 4.85 7.44 7.44 0 0 0 .55.52.14.14 0 0 0 .15-.03c.92-.97 1.81-2.01 2.66-3.12a18.19 18.19 0 0 0 2.42-4c.79-1.88.95-4.02-.7-5.55-1.04-.96-2.46-.46-3.4.32a.18.18 0 0 0-.04.23c.15.24.22.5.22.75l-.01.03-.03.02h-.03a.05.05 0 0 1-.03-.02ZM24.5 36c-.92-.02-1.5-1.06-1.5-1.92v-4.1a.1.1 0 0 0-.09-.09l-3.82-.23c-.05 0-.1.03-.09.08v3.65c0 .64-.25 1.6-1 1.6-1.2-.02-1-1.5-1-2.39v-4.86c0-.88.4-1.74 1.48-1.74h4.4c.07 0 .12-.04.12-.1v-4.1c0-.9.54-1.8 1.5-1.8 1.2 0 1.5 1.15 1.5 2.1v12.21c0 .8-.6 1.71-1.5 1.69Z" fill="#fff"/><path d="m13.87 24.56-1.64.06c-.46.02-.72-.02-.96-.4a2.02 2.02 0 0 1-.27-1c-.01-.6.22-1.21.77-1.47a815.57 815.57 0 0 1 6.98-.75c.36-.03.84.32 1 .64.17.35.25.69.25 1.02 0 .48-.19.94-.56 1.38a.97.97 0 0 1-.68.35c-.65.06-1.67.1-2.69.1-.04 0-.07.03-.07.07v7.4c0 .7.02 2.07-1 2.04-.79-.02-1-.98-1-1.61v-7.71c0-.07-.06-.12-.13-.12Z" fill="#fff"/></svg>