<!-- by TradingView --><svg xmlns="http://www.w3.org/2000/svg" width="56" height="56"><path fill="#F0F3FA" d="M0 0h56v56H0z"/><path d="M31.6 19.25c7.67-2.88 11.8-.64 15.74 5.31-3.06-3.52-6.67-5.26-12.25 3.4C31.57 33.42 26.77 39 19.78 39c-6.37 0-9.62-2.88-13.78-8.28 1.63 2.12 4.14 3.85 5.54 3.85 6.56 0 10.46-11.71 20.05-15.32z" fill="url(#akkf2e3ce)"/><path d="M28.75 19.68a9.17 9.17 0 00-12.03 3.18c2.15-2.34 5.2-4.63 9.4 4.04C29.66 34.16 32.03 39 39.03 39c4.38 0 8.31-3.61 8.97-4.67a7.69 7.69 0 01-4.38 1.7c-5.24 0-7.65-12.75-14.87-16.36z" fill="url(#bkkf2e3ce)"/><defs><linearGradient id="akkf2e3ce" x1="43.63" y1="20.52" x2="14.58" y2="38.92" gradientUnits="userSpaceOnUse"><stop stop-color="#EEB549"/><stop offset="1" stop-color="#F57B21"/></linearGradient><linearGradient id="bkkf2e3ce" x1="19.78" y1="19.68" x2="41.75" y2="38.79" gradientUnits="userSpaceOnUse"><stop stop-color="#0096D4"/><stop offset="1" stop-color="#9BCEF3"/></linearGradient></defs></svg>