<!-- by TradingView --><svg xmlns="http://www.w3.org/2000/svg" width="56" height="56"><path fill="#E2393E" d="M0 0h56v56H0z"/><path fill-rule="evenodd" d="M24.43 24h4.4s1.93-.18 1.8 1.83c-.13 2-1.42 2.4-1.42 2.4s1.5.35 1.2 2.35l-.48 2.02s-.2 1.19-2.31 1.4h-5.2l2-10zm2.4 1.56h1.26s.47.06.42.54c-.04.48-.21.84-.21.84s-.25.53-.86.58c-.6.04-1.08-.09-1.08-.09l.47-1.87zm-.77 3.47h1.2s.87-.05.82.71l-.34 1.78s-.1.76-1 .93h-1.5l.82-3.42zM4 26.34S4.17 24 5.41 24h12.93s.9-.04.6 1.37l-1.63 7.44s-.16.86.47 1.19h-2.57s-.85-.26-.68-1.01l-.17-.05s-.43.98-1.8 1.06H9.18s-.85-.1-.73-.93l.1-1.1c.07-.65.86-.62 1.02-.18 0 0 .22.62.47.62h1.46s1.2.04 1.33-.84c.12-.88-1.37-1.68-1.37-1.68-1.07-.64-2.09-1.1-1.8-2.61l.34-1.69h-.64l-1.63 6.86s-.2 1.1.38 1.55H5.63s-.99-.28-.77-1.33l1.58-7.03H5.6s-.72-.04-.98.7H4zm11.3 3.36s.18-.92-2-1.94c-1.8-.84-1.46-1.72-1.46-1.72s.13-.45.86-.45h1.93s.8 0 .94-.57c.13-.58.21-.75.21-.75s.56-.14.52.48c-.05.62-1 4.95-1 4.95z" fill="#fff"/><path d="M18.47 27.9l5.3-5.9h2.08l-4.65 5.18L23 34h-2.8l-1.73-6.1z" fill="#fff"/><path fill-rule="evenodd" d="M33.17 24H52l-2.23 10H31l2.17-10zm5.8 4.09c0-.71-.43-2.16-2.29-2.28-2.31-.16-3.58 2.01-3.75 3.13-.17 1.16-.16 3.22 2.34 3.35.4.02 1.25-.1 1.78-.63v.53h1.3l.62-3.44h-2.72L36 30.1h.81c-.12.2-.5.63-1.03.63-.67 0-1.08-.63-.79-1.9.23-.99.79-1.5 1.42-1.44.51.05.64.49.64.7h1.92zM41.09 26h-2.22l1.54 3.8-.4 2.2h2l.38-2.2 2.83-3.8h-2.19l-1.27 1.88L41.1 26zm8.58 4.44c-1.08 1.6-3.11 2.24-4.55 1.43-1.44-.82-1.73-2.77-.65-4.37 1.07-1.6 3.1-2.24 4.54-1.42 1.44.8 1.73 2.76.66 4.36zm-1.47-1.23c-.24.9-.94 1.52-1.55 1.38-.62-.13-.92-.98-.68-1.89.24-.9.94-1.52 1.56-1.38.61.14.91.98.67 1.89z" fill="#fff"/></svg>