<!-- by TradingView --><svg width="56" height="56" xmlns="http://www.w3.org/2000/svg"><path fill="url(#paint0_linear)" d="M0 0h56v56H0z"/><path d="M39.06 25.354l-.004 9.629c-.04 3.285-.194 4.887-3.39 7.653-2.05 1.56-4.745 2.421-7.354 2.354-3.559.127-7.211-.932-9.524-3.97-1.235-1.782-1.793-4.26-1.793-6.718V14.407c.887-.468 2.28-.898 3.477-1.141 1.673-.345 3.488-.513 5.205-.221.936.157 2.021.543 3.077 1.04.846.4 2.077 1.179 3.09 1.68 1.7.835 3.13 1.27 5.038.839.674-.15 1.407-.756 2.178-1.44v10.19z" fill="#A21A2F"/><path d="M16.996 22.638v5.016a8.103 8.103 0 013.744-2.81c2.3-.718 5.79-.36 6.863.692-4.13.18-7.31 2.593-8.752 6.403-.8 2.53-.68 4.666-.143 6.344 1.254 3.918 5.224 6.197 9.172 6.205 2.758.004 6.46-.692 8.367-3.684 1.24-2.01 2.006-5.69-.433-7.957-1.21-1.128-2.153-1.292-2.975-1.5-.821-.207-1.859-.446-2.365-1.159-.303-.42-.333-.981.087-1.332.207-.168.588-.268.86-.268.532 0 1.155.277 1.592.441l.384-1.197s-.631-.563-1.725-.891l.09-.186c3.637-.043 5.146-.238 7.3-1.393v-1.556c-1.25.795-2.698 1.314-4.16 1.314-2.27 0-3.907-1.244-5.734-2.365-2.06-1.24-3.869-2.416-6.374-2.551-2.205-.074-4.514 1.171-5.798 2.434zm13.054 4.255c-1.38.697-2.17 1.687-2.149 3.023.022 1.215 1.224 2.581 3.9 3.347 2.21.648 2.258 4.16.2 5.301-4.65 2.73-10.905-2.232-8.536-7.381 1.085-2.365 3.814-4.514 6.585-4.29z" fill="#00B9EB"/><path d="M25.734 19.491c-.359-.726-.354-1.505-.32-1.639 1.012-.878 2.136-1.457 3.222-1.474.112.622.069 1.197-.056 1.552-.493-.2-2.772 1.194-2.846 1.561zm-.22-2.205c.224-1.237 1.483-2.28 2.828-2.366.151.364.22.606.255 1.055-1.734.217-2.335.753-3.083 1.31zm5.785 2.412c-.453.705-1.189 1.22-1.353 1.207-1.224-.553-2.14-1.133-2.612-2.106.523-.41.96-.497 1.263-.523.787 1.02 2.33 1.513 2.702 1.422zM29.527 21.1c-1.263.397-2.937-.126-3.603-1.293.264-.299.666-.597 1.064-.826.939 1.487 1.726 1.686 2.539 2.119zm-.757-6.184c.808.056 1.487.471 1.591.575.26 1.315.16 2.512-.372 3.468-.584-.22-.947-.752-1.046-.787.346-1.08.064-2.668-.173-3.256zm1.985.895c.95.86 1.27 2.361.674 3.598-.428.017-.605-.06-1.011-.255.678-1.622.453-2.43.337-3.343z" fill="#fff"/><path d="M28.326 7l.618 1.901h2l-1.618 1.176.618 1.901-1.618-1.175-1.617 1.175.618-1.901L25.709 8.9h2l.617-1.9z" fill="#fff"/><defs><linearGradient id="paint0_linear" x1="10.418" y1="9.712" x2="68.147" y2="76.017" gradientUnits="userSpaceOnUse"><stop stop-color="#1A1E21"/><stop offset="1" stop-color="#06060A"/></linearGradient></defs></svg>