<!-- by TradingView --><svg xmlns="http://www.w3.org/2000/svg" width="56" height="56"><path fill="#1B75BC" d="M0 0h56v56H0z"/><path fill-rule="evenodd" d="M28 43c11.05 0 20-6.71 20-15s-8.95-15-20-15S8 19.72 8 28s8.95 15 20 15zm.08-28.37c-7.6 0-13.54 3.98-15.33 5.97l2.23 2.11A20.7 20.7 0 0127 17.23v1.8c-6.7.35-12 4.45-12 9.47 0 5.25 5.8 9.5 12.94 9.5 6.45 0 11.8-3.47 12.77-8H37.8c-.93 3.42-4.96 6-9.8 6-5.52 0-10-3.36-10-7.5 0-3.89 3.95-7.09 9-7.46V33h2V21.04c3.91.29 7.16 2.27 8.43 4.96h2.99c-1.4-3.8-5.93-6.64-11.42-6.97V17.2c5.66.26 10.2 3.66 11.83 5.52l2.27-2.1c-1.69-2-7.05-5.98-15.02-5.98zM29.78 40a1.78 1.78 0 11-3.56 0 1.78 1.78 0 013.56 0z" fill="#fff"/></svg>