<!-- by TradingView --><svg width="56" height="56" xmlns="http://www.w3.org/2000/svg"><path fill="url(#paint0_linear)" d="M0 0h56v56H0z"/><path d="M31.61 15c-1.177.795-2.158 1.849-2.493 3.357-.338 1.506.175 4.554.344 4.366 2.497-2.773 3.35-3.784 2.15-7.723zm6.394 5.228c-3.238-1.556-6.794.167-8.085 3.505 3.546.827 6.295-.213 8.085-3.505z" fill="#71BF44"/><path fill-rule="evenodd" d="M49.07 27.136c-1.138-.348-2.033-.666-2.959-.575-.58.058-1.737.792-.907 1.394.296.214.723.215 1.068.257 1.373.16 2.384.597 3.034 1.304 1.11 1.21.844 2.8-.475 3.798-.452.341-1.06.582-1.771.706l-.204.98h-2.341l.413-.968c-.911-.138-1.973-.431-2.44-.851-.494-.443-.335-1.13-.227-1.796a5.858 5.858 0 003.911.736c.503-.08.841-.267.854-.617.025-.656-1.323-.692-2.655-1.066-1.102-.31-2.184-.85-2.441-2.166-.158-2.254 1.61-3.683 4.315-3.594 2.706.09 3.117 1.137 2.824 2.458zM11 21.57V25h2.967a2.087 2.087 0 01-1.303 1.79c-.321.136-.534.209-.883.21H11v3.916c.258 1.394 1.22 1.085 2.482.532v1.79c-.894.455-2.971 1.267-4.41.313-.664-.442-.974-1.23-1.072-2.523V27H6c.059-.836.3-1.792 1.55-1.974.033-.006.417-.026.45-.026v-.272c.25-2.236 1.515-3.004 3-3.158zM17 25v4.898c0 .676.028 1.562.677 1.998.5.334 1.48.238 1.89-.187.443-.46.433-1.255.433-1.84v-2.94c.117-1.144 1.04-1.864 3-1.929v6.316c0 .765.118.972.497.972s.503-.323.503-1.071v-7.433c-.04-1.698 1.121-2.466 3-2.784v7.038L30.246 25h3.201l-3.475 4.026 2.02 3.113c.303.468.728.455 1.062-.03-.309-1.029-.104-2.218.77-3.067.954-.925 1.645-.94 2.922-.679.299.062.626.137.99.223.236.054.303-.47.264-.903-.101-.355-.28-.669-.667-.883-.748-.412-1.353-.329-2.147-.133-.613.15-1.143.376-1.666.634-.213-1.447.392-2.557 3.806-2.645 2.593.035 3.447 1.151 3.674 2.838v6.394c-1.01.279-2.24-.142-3-1.081-.106.175-.618.847-1.165 1.08-.548.234-2.515.232-3.287-.798-.205.285-.474.288-.838.504-.972.575-2.32.595-3.165-.209-1.31-1.245-1.793-1.819-2.545-3.13V34h-2.596v-1.036c-.215.29-.542.504-.824.664-.584.328-1.531.49-2.182.291-.495-.153-.936-.404-1.295-.955-.343.338-.536.433-.97.704-1.933.808-4.891.196-5.133-2.017v-4.392c.138-1.747 1.573-2.077 3-2.259zm21 4.812v1.753c0 .97-2.005 1.26-2-.596.002-.625.16-.993.449-1.2.55-.394.994-.257 1.551.043z" fill="#fff"/><defs><linearGradient id="paint0_linear" x1="10.418" y1="9.712" x2="68.147" y2="76.017" gradientUnits="userSpaceOnUse"><stop stop-color="#1A1E21"/><stop offset="1" stop-color="#06060A"/></linearGradient></defs></svg>