<!-- by TradingView --><svg xmlns="http://www.w3.org/2000/svg" width="56" height="56"><path fill="#F0F3FA" d="M0 0h56v56H0z"/><path d="M12 24H4.67L4 25.6c.12-.18.45-.23.6-.23h1.87l-1.5 6.1c-.07.23-.3.45-.37.53h3.59c-.18-.12-.18-.4-.15-.53l1.5-6.1h1.64c.3 0 .57.15.67.23L12 24zm4.42 0h-3.76c.25.12.26.5.23.68a98.13 98.13 0 00-1.45 5.81c-.19 1.09.74 1.46 1.22 1.51h5.07c.84 0 1.84-.75 2.07-1.43l1.6-5.97c.07-.24.39-.5.54-.6H19.8c.24.06.25.43.23.6l-1.38 5.29c-.19.42-.6.63-.77.68h-3c-.36 0-.35-.46-.3-.68a179.4 179.4 0 011.46-5.29c.12-.3.3-.52.38-.6z" fill="#DA0C15"/><path fill-rule="evenodd" d="M22.4 24h7.52c.38.03 1.1.27.92 1.07-.19.79-.49 2.26-.62 2.9-.07.22-.46.68-1.38.68L29.7 32h-3.53l-.61-3.35h-.92L24 31.16c-.05.23-.09.72.16.84h-3.68c.15-.23.47-.76.53-1.07.06-.3 1.05-3.93 1.54-5.71.05-.33.09-1.04-.16-1.22zm2.61 3.28l.61-1.9h1.69c.2.07.38.22.3.68l-.22.68c-.08.3-.34.54-.77.54h-1.61z" fill="#DA0C15"/><path d="M31.99 24h7.2l-.23 1.58c-.12-.1-.38-.3-.84-.3h-2.84l-.53 2.04h2.91c.2-.02.54-.07.7-.23l-.47 1.82c-.1-.1-.3-.3-.61-.3h-2.92l-.53 2.03h3.52c.16-.02.46-.09.53-.18l.01-.04-.01.04-.53 1.54h-7.28c.13-.2.4-.45.61-.98.13-.3 1.05-4.2 1.54-6.11.07-.3-.05-.73-.23-.91zm12.56 0H40c.25.18.63.74.78 1 .9 1.8 2.72 5.5 2.9 5.92.2.43.08.9 0 1.08H48c-1.05-2.15-3.2-6.57-3.45-7a.97.97 0 010-1z" fill="#DA0C15"/><path d="M34.98 35l6.69-5.69.62 1.17L37.47 35h-2.5zM52 22.5h-2.53l-3.58 3.36.6 1.14L52 22.5z" fill="#262A4E"/></svg>