<!-- by TradingView --><svg xmlns="http://www.w3.org/2000/svg" width="56" height="56"><path fill="#F0F3FA" d="M0 0h56v56H0z"/><path fill="#D71F26" d="M4 22h48v2H4zm0 11h48v2H4z"/><path fill="#163780" d="M15 30.6h7v.59h-7zm0 .8h7c-.28.38-.72.6-1.19.6H16.1c-.45 0-.86-.23-1.1-.6zm0-6.4h2v.59h-2zm5 0h2v.59h-2zm13 2.33h2v.59h-2zm0 1.64h2v.59h-2zm0-2.42h2v.59h-2zm0-.73h8v.59h-8zm0 5.36h8v-.59h-8zM41 25h-6.4c-.58 0-1.14.22-1.57.6H41V25zm0 7h-6.38c-.58 0-1.13-.2-1.56-.6H41v.6zm-2-2.23h2v.59h-2zm-3-1.61h5v.59h-5zm3 .84h2v.59h-2zm-3-1.62h5v.59h-5zm-3 .77h2v.59h-2zm0 1.64h2v.59h-2zm9-3.97h8v.59h-8zm0 5.36h8v-.59h-8zM50 25h-6.4c-.58 0-1.14.22-1.57.6H50V25zm0 7h-6.38c-.58 0-1.13-.2-1.56-.6H50v.6zm-8-4.67h2v.59h-2zm6 2.44h2v.59h-2zm-2.59-1.61H50v.59h-4.59zM42 29h2v.59h-2zm0-2.45h2v.59h-2zM48 29h2v.59h-2zm-2.62-1.62H50v.59h-4.62zm-3.38.77h2v.59h-2zm0 1.65h2v.59h-2zm-27-3.19h2v.59h-2zm5 0h2v.59h-2zm-5 1.6h2v.59h-2zm5 0h2v.59h-2zm-5-2.39h2v.59h-2zm5 0h2v.59h-2zm-5 1.61h2v.59h-2zm5 0h2v.59h-2zm-5 1.6h2v.59h-2zm5 0h2v.59h-2zm-5 .78h2v.59h-2zm5 0h2v.59h-2zM6 25h8v.59H6zm0 .82h8v.59H6zm3 .82h2v.59H9zm0 2.41h2v.59H9zm0-1.62h2v.59H9zm0 2.41h2v.59H9zm0-1.63h2v.59H9zm0 2.41h2v.59H9zm0 .78h2v.59H9zM28.55 29c.33.15.67.43.8.55h-2.37c-.43-.4-1-.46-1.27-.46h-.83v-.08h3.67zM23 25h5.4c.62 0 1.22.21 1.7.6H23V25zm0 3.8h5.4a2.7 2.7 0 001.7-.59H23v.6zm0-2.19h2v.59h-2zm0-.79h2v.59h-2zm0 1.61h2v.59h-2z"/><path fill="#163780" d="M23 29.01h2v.59h-2zm0 .8h2v.59h-2zm0 .79h2v.59h-2zm0 .8h2v.59h-2zm5.73 0h2.32l.5.6h-2.3l-.52-.6zm-.73-.8h2.35l.49.59h-2.3l-.53-.6zm-.74-.81h2.4l.53.6h-2.36l-.57-.6zm3.11-3.97h-5.5v.3h2.66c.43 0 .8.15.94.22h2.2c-.1-.26-.24-.45-.3-.52zm0 2.2h-5.5v-.09h2.92c.43 0 .76-.3.9-.5h1.98c-.1.3-.24.52-.3.6zm.37-.88a.67.67 0 000-.52h-2.01c.08.12.07.4.05.52h1.96z"/></svg>