<!-- by TradingView --><svg width="56" height="56" viewBox="0 0 56 56" xmlns="http://www.w3.org/2000/svg"><path fill="#F0F3FA" d="M0 0h56v56H0z"/><path d="m23.76 16 .56.05c.6.06 1.16.22 1.66.46.56.28 1.02.7 1.02 1.4a1839.07 1839.07 0 0 0-.01 5.08l-.03.01h-2.95l-.01-.03v-5.25a.18.18 0 0 0-.03-.1.17.17 0 0 0-.08-.07c-.34-.14-.52-.17-.84.04a.1.1 0 0 0-.05.09v13.76a.1.1 0 0 0 .04.07c.32.23.52.19.86.05a.16.16 0 0 0 .07-.06.17.17 0 0 0 .03-.1V26h2.97a.05.05 0 0 1 .02.03v5.35c0 .55-.52.98-1 1.21a4.63 4.63 0 0 1-1.4.45l-.01.02v.7a.05.05 0 0 1-.02.03.05.05 0 0 1-.03.01h-1.95l-.01-.03v-.7l-.02-.01c-.8-.1-2.55-.6-2.55-1.72V17.87c0-.36.12-.66.35-.88.29-.28.61-.48.99-.62.6-.21 1.2-.34 1.84-.37h.58ZM32.87 16c.98.1 2 .25 2.75.95.26.24.38.56.38.98v13.02a2 2 0 0 1-.07.64c-.22.55-.86.9-1.4 1.09a6.47 6.47 0 0 1-4.38-.12c-.44-.2-.96-.55-1.1-1.04-.03-.1-.05-.3-.05-.59v-5.26c0-.37.11-.68.34-.9.27-.26.58-.46.93-.6A5.53 5.53 0 0 1 33 23.8V17.68c0-.03 0-.05-.02-.08a.13.13 0 0 0-.06-.05c-.33-.15-.51-.19-.85.02a.14.14 0 0 0-.05.05.15.15 0 0 0-.02.07V22.84l-.01.01H29V17.8c0-.34.11-.6.37-.85.23-.21.46-.37.68-.47a5.7 5.7 0 0 1 2.16-.48h.65Zm.13 9.56c0-.09-.03-.18-.1-.24a.33.33 0 0 0-.23-.1h-.33a.33.33 0 0 0-.24.1.36.36 0 0 0-.1.24v5.63c0 .1.04.18.1.25.06.07.15.1.24.1h.33c.08 0 .17-.03.23-.1.07-.07.1-.15.1-.25v-5.63ZM11 20.23V16h2.97a.03.03 0 0 1 .02.01.03.03 0 0 1 .01.03v3.07l-.01.03-.03.02L11 20.23ZM18 16.03v1.53h-.02l-2.94 1.07a.03.03 0 0 1-.04-.02V16l.03-.01H18l.01.03ZM45 16v22.93L42.06 40a.03.03 0 0 1-.04 0l-.02-.02v-7.14a.03.03 0 0 0-.02 0c-1.04.09-2-.02-2.96-.48-.44-.2-.87-.55-1-1.05a17321.89 17321.89 0 0 0-.01-15.3h2.98a.03.03 0 0 1 .01.02v15.15l.02.08c.2.3.98.23.98-.18V16.02l.01-.01h.02L45 16ZM11 31.3V21.06l2.94-1.07a.05.05 0 0 1 .04 0l.02.02v11.27c0 .04.01.07.03.1.02.03.05.05.08.06.38.16.43.16.8 0a.15.15 0 0 0 .07-.06.16.16 0 0 0 .02-.09V19.51l.01-.04c.01-.02.02-.03.04-.03l2.9-1.06a.03.03 0 0 1 .04 0v.03L18 31.13c0 1.31-1.78 1.74-2.8 1.83-1.21.1-2.66-.02-3.66-.78-.3-.22-.48-.52-.54-.88Z" fill="#53575A"/><path d="M15.76 33.8h-.2c-.14 0-.25.12-.25.27v.3c0 .14.11.26.25.26h.2c.14 0 .25-.12.25-.26v-.3c0-.15-.11-.26-.25-.26ZM16.86 33.8h-.2a.26.26 0 0 0-.24.28v.29c0 .15.12.26.26.26h.2c.14 0 .25-.13.25-.28v-.28c-.01-.15-.13-.27-.27-.26ZM30.12 33.88h-.2c-.14 0-.26.1-.26.24v.27c0 .13.11.24.25.24h.2c.14 0 .25-.1.25-.23v-.28c0-.13-.1-.23-.24-.24ZM37 33.92h-.2c-.14 0-.25.1-.25.23v.27c0 .12.11.23.25.23h.2c.13 0 .25-.1.25-.23v-.27c0-.13-.11-.23-.25-.23ZM32.36 40h-.35c-.49-.03-.93-.24-.99-.8-.03-.3-.03-.6 0-.89a.2.2 0 0 1 .03-.1.18.18 0 0 1 .09-.06c.1-.03.25-.03.35-.03.6 0-.05 1.06.57 1.17.43.08.51-.21.5-.56 0-.28.04-.53-.21-.7a16.2 16.2 0 0 0-.79-.47c-.32-.19-.55-.5-.55-.88v-.79c0-.48.4-.8.83-.87.56-.08 1.3.04 1.43.72.04.19.05.44.04.77 0 .28-.19.3-.4.3a.63.63 0 0 1-.22-.04.18.18 0 0 1-.09-.06.2.2 0 0 1-.03-.1l-.02-.52c0-.15-.08-.32-.24-.37-.18-.06-.51 0-.53.24l-.02.5c0 .2.09.36.28.48.5.34 1.26.53 1.28 1.32v.78c-.03.59-.34.9-.96.96ZM19.22 37.1a5.26 5.26 0 0 0 .43-.03l.01-.04v-1.82a.2.2 0 0 1 .04-.1.17.17 0 0 1 .09-.07.96.96 0 0 1 .51 0c.04 0 .07.03.1.06.02.03.03.07.03.1v4.5c0 .16-.07.26-.2.28-.19.03-.56.06-.56-.23a114.08 114.08 0 0 1-.02-1.92 7.75 7.75 0 0 0-.87 0l-.01.04v1.88c0 .3-.38.26-.57.23-.13-.02-.2-.12-.2-.28v-4.5c0-.03.01-.07.04-.1a.17.17 0 0 1 .09-.07.95.95 0 0 1 .51 0l.1.07a.2.2 0 0 1 .03.11v1.82l.01.04.03.01.4.01ZM13.54 37.03a.01.01 0 0 0-.02 0l-.63 2.07c-.03.08-.1.13-.2.15-.18.02-.29-.05-.34-.22a674.35 674.35 0 0 1-.64-2.02v2.7c0 .33-.38.32-.58.25a.2.2 0 0 1-.1-.08.22.22 0 0 1-.03-.12v-4.5c0-.12.04-.2.13-.22.13-.05.34-.05.46-.02.19.04.2.18.27.4a228.14 228.14 0 0 1 .77 2.44h.01l.86-2.71a.2.2 0 0 1 .06-.1.18.18 0 0 1 .11-.04h.42c.04 0 .07.01.1.03a.2.2 0 0 1 .08.1c.02.06.04.16.04.3v4.26c0 .12-.05.21-.14.26a.88.88 0 0 1-.45.02c-.11-.04-.17-.13-.17-.27a334.16 334.16 0 0 1-.01-2.68ZM16.4 40h-.44c-.43-.09-.74-.16-.9-.64a1.95 1.95 0 0 1-.06-.58v-3.37c0-.1 0-.18.03-.25 0-.03.02-.06.05-.09a.17.17 0 0 1 .09-.05c.15-.02.3-.02.45 0l.08.04.05.08c.02.07.03.16.03.28v3.41c0 .35.17.5.5.44.2-.03.3-.16.3-.38v-3.61c0-.31.29-.29.51-.27.18 0 .27.1.27.3l-.01 3.7c0 .6-.33.93-.95.99ZM21.75 37.86v1.37a.04.04 0 0 0 0 .02l.02.01h1.01c.22.01.22.23.22.43 0 .2-.1.3-.28.3h-1.4c-.14 0-.23-.02-.27-.08a.2.2 0 0 1-.02-.06c-.02-.06-.03-.2-.03-.43a1009.62 1009.62 0 0 0 .02-4.29l.01-.03.03-.03a.38.38 0 0 1 .21-.07h1.39c.11 0 .2.02.24.06l.05.05c.02.04.03.13.03.3 0 .28-.13.32-.38.32h-.84l-.01.03v1.33l.03.01h.78a.2.2 0 0 1 .12.04l.08.1c.02.08.02.29.01.37-.02.14-.11.21-.28.21a77.2 77.2 0 0 0-.73.01l-.01.03ZM25.28 38.04h.01v-2.78c.01-.1.04-.2.15-.23a.77.77 0 0 1 .46.02.1.1 0 0 1 .04.02.1.1 0 0 1 .02.04.8.8 0 0 1 .04.31v4.25c0 .34-.23.33-.46.33-.18 0-.3-.1-.35-.27a264.72 264.72 0 0 1-.94-2.91V39.59c0 .36-.1.4-.42.4-.14.01-.3-.06-.3-.23V35.3c0-.18.04-.27.21-.3.14-.01.47-.05.58.1.04.08.1.21.16.42.12.39.38 1.23.8 2.5ZM26.63 35.25a.26.26 0 0 1 .07-.18.23.23 0 0 1 .16-.07h1.16a1 1 0 0 1 .98 1v3a1 1 0 0 1-.29.7.97.97 0 0 1-.69.3h-1.16a.22.22 0 0 1-.16-.07.26.26 0 0 1-.07-.17v-4.51Zm.77.52v3.45c0 .01 0 .02.02.03l.03.02h.4c.1 0 .2-.05.26-.13.07-.08.11-.18.11-.3v-2.7a.46.46 0 0 0-.1-.3.35.35 0 0 0-.27-.12h-.4c-.01 0-.02 0-.03.02l-.02.03ZM30.16 35h-.29c-.13 0-.24.12-.24.26v4.48c0 .14.1.26.24.26h.29c.13 0 .24-.12.24-.26v-4.48c0-.14-.1-.26-.24-.26ZM34.8 39.25h.92c.14 0 .22.07.25.2.03.25.03.55-.28.55h-1.4c-.26 0-.29-.17-.29-.41v-4.27c0-.1.01-.18.04-.21.07-.13.32-.11.47-.1.18 0 .27.1.27.3a1373.53 1373.53 0 0 1 .02 3.94ZM37.04 35h-.29c-.13 0-.24.11-.24.26v4.48c0 .15.11.26.24.26h.3c.13 0 .23-.11.23-.26v-4.48c0-.15-.1-.26-.24-.26ZM38.78 37.17v.01a.01.01 0 0 0 .02 0l.67-1.78c.09-.23.11-.38.37-.4.24 0 .65-.02.47.35a285.86 285.86 0 0 0-.72 1.52v.05l.87 2.8c.01.02.01.05 0 .07-.04.22-.22.2-.4.2-.2 0-.31-.08-.37-.26a738.27 738.27 0 0 0-.57-1.87h-.02v.02l-.27.57a.51.51 0 0 0-.05.2v1.05c0 .35-.4.32-.6.27-.18-.05-.18-.22-.18-.38v-4.3c0-.08.02-.15.06-.21a.09.09 0 0 1 .05-.04.95.95 0 0 1 .55 0c.02 0 .04.02.05.04.05.05.07.13.07.23v1.86Z" fill="#A63439"/></svg>