<!-- by TradingView --><svg xmlns="http://www.w3.org/2000/svg" width="56" height="56"><path fill="#E97C1D" d="M0 0h56v56H0z"/><path d="M16.19 10.6a.6.6 0 11-1.19 0 .6.6 0 011.19 0zm1.8 1.81a.66.66 0 100-1.31.66.66 0 000 1.31zm2.99.68a.75.75 0 11-1.5 0 .75.75 0 011.5 0zm-3.4.6a.46.46 0 11-.93 0 .46.46 0 01.93 0zm4.71 2.21a.9.9 0 100-1.8.9.9 0 000 1.8zm2.87 1.29a.98.98 0 11-1.97 0 .98.98 0 011.97 0zm.33 3.68a1.04 1.04 0 100-2.08 1.04 1.04 0 000 2.08zm1.98 1.38a1.1 1.1 0 11-2.2 0 1.1 1.1 0 012.2 0zm-.7 4.03a1.14 1.14 0 100-2.27 1.14 1.14 0 000 2.27zm.03 2.76a1.17 1.17 0 100-2.34 1.17 1.17 0 000 2.34zm-2.3.45a.96.96 0 11-1.92 0 .96.96 0 011.92 0zm-.58-1.4a.86.86 0 100-1.74.86.86 0 000 1.73zm.97-3.28a.8.8 0 11-1.6 0 .8.8 0 011.6 0zm-1.08-1.46a.76.76 0 100-1.52.76.76 0 000 1.52zm0-2.94a.76.76 0 11-1.52 0 .76.76 0 011.52 0zm-1.8-1.38a.69.69 0 100-1.37.69.69 0 000 1.37zm-1-2.59a.63.63 0 11-1.25 0 .63.63 0 011.25 0zm-1.95-1.12a.54.54 0 100-1.07.54.54 0 000 1.07zM16.6 16a.23.23 0 100-.47.23.23 0 000 .47zm1.99 1.15a.45.45 0 11-.9 0 .45.45 0 01.9 0zm.82 2.2a.65.65 0 100-1.3.65.65 0 000 1.3zm1.84 1.13a.7.7 0 11-1.4 0 .7.7 0 011.4 0zm.08 2.7a.75.75 0 100-1.5.75.75 0 000 1.5zm1.3 1.3a.81.81 0 11-1.63 0 .81.81 0 011.62 0zm-.75 2.83a.81.81 0 100-1.62.81.81 0 000 1.62zm.42 1.21a.81.81 0 11-1.62 0 .81.81 0 011.62 0zm-1.4 2.93a.81.81 0 100-1.62.81.81 0 000 1.62zm5.91-1.83a1.17 1.17 0 100 2.34 1.17 1.17 0 000-2.34zm-.63 3.86a1.14 1.14 0 112.27 0 1.14 1.14 0 01-2.27 0zm2 1.63a1.1 1.1 0 100 2.2 1.1 1.1 0 000-2.2zm.27 3.67a1.04 1.04 0 112.08 0 1.04 1.04 0 01-2.07 0zm2.9 1.26a.98.98 0 100 1.97.98.98 0 000-1.97zm1.13 2.87a.9.9 0 111.8 0 .9.9 0 01-1.8 0zM30 25.5a.96.96 0 100 1.92.96.96 0 000-1.92zm-1.24 3.23a.86.86 0 111.73 0 .86.86 0 01-1.73 0zm.69 1.61a.8.8 0 100 1.6.8.8 0 000-1.6zm-.48 3.02a.76.76 0 111.52 0 .76.76 0 01-1.52 0zm1.51 1.41a.76.76 0 100 1.52.76.76 0 000-1.52zm.36 2.83a.69.69 0 111.38 0 .69.69 0 01-1.38 0zm2.31 1.28a.63.63 0 100 1.25.63.63 0 000-1.25zm.79 2.28a.54.54 0 111.07 0 .54.54 0 01-1.07 0zm2.48.62a.46.46 0 100 .93.46.46 0 000-.93zm.41-1.76a.23.23 0 11.46 0 .23.23 0 01-.46 0zm-1.3-1.84a.45.45 0 100 .9.45.45 0 000-.9zm-1.92-1.1a.65.65 0 111.29 0 .65.65 0 01-1.3 0zm-.49-2.48a.7.7 0 100 1.4.7.7 0 000-1.4zm-1.53-1.24a.75.75 0 111.5 0 .75.75 0 01-1.5 0zm.27-2.86a.81.81 0 100 1.62.81.81 0 000-1.62zm-.89-1.22a.81.81 0 111.63 0 .81.81 0 01-1.63 0zm1.2-2.83a.81.81 0 100 1.62.81.81 0 000-1.62zm-.21-1.3a.81.81 0 111.62 0 .81.81 0 01-1.62 0zm3.87 18.15a.75.75 0 100 1.5.75.75 0 000-1.5zm1.83 1.86a.66.66 0 111.32 0 .66.66 0 01-1.32 0zm2.76-.36a.6.6 0 100 1.19.6.6 0 000-1.19z" fill="#fff"/></svg>