<!-- by TradingView --><svg width="56" height="56" viewBox="0 0 56 56" xmlns="http://www.w3.org/2000/svg"><path fill="#E0E3EB" d="M0 0h56v56H0z"/><path d="M39 19v2h-7v3h6v2h-6v6h-2v-6h-3v5.95c0 3.98-2.1 5.05-4.5 5.05S18 35.98 18 31.87V24h2v8.06c0 2.22 1.03 2.94 2.5 2.94 1.25 0 2.5-.65 2.5-2.9V24h5v-5h9Z" fill="#050273"/><path fill-rule="evenodd" d="M28 43c4.9 0 9.26-2.36 12-6H30v-2h11.27A15 15 0 0 0 16 19h12v2H14.73A15 15 0 0 0 28 43Zm0 2a17 17 0 1 0 0-34 17 17 0 0 0 0 34Z" fill="#EF0508"/></svg>