<!-- by TradingView --><svg xmlns="http://www.w3.org/2000/svg" width="56" height="56"><path fill="#0C70AE" d="M0 0h56v56H0z"/><path fill-rule="evenodd" d="M23 22h1v3a1 1 0 102 0v-3h1v3a2 2 0 11-4 0v-3zm9 0h1v3a1 1 0 102 0v-3h1v3a2 2 0 11-4 0v-3zm-3 0h-1v5h3v-1h-2v-4zm11.24.25a3.62 3.62 0 00-1.2-.25c-.67-.02-2.2.25-2.2 1.51 0 1.1 1.3 1.4 1.82 1.48.22.03.82.17.8.62 0 .32-.64.39-1 .39-.23.01-.83.03-1.43-.25l-.12 1.03c.2.07.79.2 1.6.22 1.02.02 1.99-.6 1.99-1.5 0-1-.9-1.28-1.66-1.47-.77-.18-1-.46-1-.63 0-.18.17-.42 1.14-.4.8.02.95.1 1.08.17l.07.04.1-.96zM43.5 22a2.5 2.5 0 100 5 2.5 2.5 0 000-5zm0 4c.69 0 1.25-.67 1.25-1.5S44.19 23 43.5 23s-1.25.67-1.25 1.5.56 1.5 1.25 1.5zm2.5-4l2 3.06V27h1v-1.94L51 22h-1.12l-1.38 2.1-1.35-2.1H46z" fill="#fff"/><path d="M21.88 25.76L17.62 30H4v-1h13.14l4.03-4 .71.76zM22 30v-1h30v1H22zm24 1.71a.43.43 0 100-.86.43.43 0 000 .86zM27.16 31h.6v4h-.6v-4zM23 33.32a1.32 1.32 0 012.65 0v.38h-1.97c.01.24.2.68.65.68.3 0 .4-.09.5-.18l.08-.06h.66a1.32 1.32 0 01-2.57-.46v-.36zm1.3-.74c-.4 0-.58.38-.6.56h1.2c-.03-.19-.17-.57-.6-.56zm6.47-.58c-.73 0-1.32.6-1.32 1.32v.36a1.32 1.32 0 002.56.46h-.66l-.07.06c-.1.1-.2.18-.5.18-.45 0-.64-.44-.66-.68h1.98v-.38c0-.73-.6-1.32-1.33-1.32zm-.63 1.14c.03-.18.2-.56.62-.56.41 0 .56.37.58.56h-1.2zm3.62.33a1.47 1.47 0 012.12-1.32v.56a.94.94 0 00-.52-.15h-.05a.94.94 0 100 1.88h.05c.19 0 .37-.06.52-.15v.56a1.47 1.47 0 01-2.12-1.32v-.06zM50.19 32c-.81 0-1.47.66-1.47 1.47v.06a1.47 1.47 0 002.11 1.32v-.56a.94.94 0 01-.51.15h-.05a.94.94 0 110-1.88h.05c.19 0 .37.05.51.15v-.56a1.4 1.4 0 00-.64-.15zm-4.5 0h.62v3h-.62v-3zM39 31.2v.8h.73v.6H39v1.43c.01.1.1.34.38.36.28.02.38-.04.4-.08v.57c-.1.05-.32.13-.52.12-.26-.02-.94-.12-.9-.97V32.6h-.6V32h.6v-.52l.64-.27zm2.9.8v3h.6v-1.72c.06-.75.79-.67 1.1-.56v-.56c0-.06-.1-.17-.38-.16-.28 0-.6.25-.71.37V32h-.62z" fill="#C8C8C8"/></svg>