<!-- by TradingView --><svg width="56" height="56" xmlns="http://www.w3.org/2000/svg"><path fill="#EC7D1E" d="M0 0h56v56H0z"/><circle cx="28.002" cy="28.002" r="17.998" fill="#fff"/><path d="M43 27.9c0 7.79-5.33 14.44-13 15.1v-2.047c3.217-.6 6-2.468 6-4.607v-3.245c0-.894.25-2.09 1.229-3.951-1.542.96-4.54.96-7.229 3.5v-2.54c3.367-1.453 6-3.247 6-4.827v-3.076c-.04-1.14.326-3.154 1.229-4.94-1.467 1.562-6.181 1.562-8.229 4.94v23.797h-2V22.207c-.722-2.4-5.81-3.076-7.885-4.94 1.194 2.597.885 4.94.885 4.94-.036-.615 0-.762 0 3.076 0 2.343 6 4.487 6 4.826v2.54c-1.457-2.053-5.226-2.54-6.885-3.5.853 1.496.885 3.274.885 3.952v3.245c0 3.048 6.144 4.607 6 4.607V43c-7.67-.66-13-7.31-13-15.1C13 19.67 19.716 13 28 13c8.284 0 15 6.67 15 14.9z" fill="#EC7D1E"/></svg>