<!-- by TradingView --><svg xmlns="http://www.w3.org/2000/svg" width="56" height="56"><path fill="#FDB813" d="M0 0h56v56H0z"/><path d="M39.29 27.24C46.62 30.44 46.62 40 30.9 40H11l2.6-14.37c1.06-5.35 2.1-9.63 7.87-9.63h15.72c8.87 0 11 9.63 2.1 11.24zm-15.41-8.11c-2.58-.52-5.88.04-7.42 6.26C15.37 29.81 14.1 37 14.1 37h.34c2.13.01 5.77-.1 8.31-3.78.2-.28 2.86-3.7 5.77-7.3l.1-.13c2.51-3.11 5.18-6.42 6.6-6.66-2.58-.52-6.39.94-9.27 4.7l-7.73 9.39 2.06-9.4c.52-2.6 1.55-4.17 3.6-4.69z" fill="#fff"/></svg>