<!-- by TradingView --><svg xmlns="http://www.w3.org/2000/svg" width="56" height="56"><path fill="url(#az4n2pupp)" d="M0 0h56v56H0z"/><path d="M27.48 24.82l-1.26 2.44 2.1 3.66 1.46-2.24-2.3-3.86zm-6.9-1.62h4.6v.6h-1.05l1.47 2.85 2.71-4.67 2.72 4.26s.84-1.62.63-4.26c-.2-2.65-2.72-5.29-6.27-5.08-3.56 0-8.18 3.25-8.39 11.99 0 8.53 4.41 15.23 14.03 14.42 5.65-.4 8.93-4.27 9.77-5.28a15.7 15.7 0 002.58-5.08H44a14.46 14.46 0 01-2.65 5.39c-1.4 1.63-4.28 5.11-10.32 5.58-5.23.4-9.47-.72-13.65-5.58a13.92 13.92 0 01-2-15.14c1.89-3.86 5.2-5.9 7.08-6.5 3.14-1.02 7.53-.82 9.41 3.24 1.25 2.65-.21 7.12-.21 7.12l2.93 5.08h.84l.2.6h-4.8v-.6h1.04L30.2 29.5l-2.72 4.47-2.51-4.27s-.63.81-.63 2.03c-.2 1.42-.63 4.47 1.88 6.1a6.92 6.92 0 006.28 1.01c1.25-.2 3.91-1.03 5.8-6.92 1.67-5.28.47-14.21-4.76-17.26a13.64 13.64 0 00-13.6-.6c-4.6 2.23-6.9 7.51-6.9 7.51l-.4 1.43H12s1.46-5.08 6.07-8.53c4.6-3.05 9.83-2.64 12.34-2.03 2.09.6 8.87 2.92 11.17 10.64 1.88 7.11-3.02 13.54-6.16 15.57-3.13 1.83-8.99 2.03-11.29-2.03-1.25-2.44-.63-5.29-.42-5.9l.63-1.82-2.72-5.08h-1.04v-.61z" fill="#fff"/><defs><linearGradient id="az4n2pupp" x1="10.42" y1="9.71" x2="68.15" y2="76.02" gradientUnits="userSpaceOnUse"><stop stop-color="#1A1E21"/><stop offset="1" stop-color="#06060A"/></linearGradient></defs></svg>