<!-- by TradingView --><svg xmlns="http://www.w3.org/2000/svg" width="56" height="56"><path fill="#F0F3FA" d="M0 0h56v56H0z"/><path d="M27.3 26.67c-.51-.24-1.19 0-1.55.17a.45.45 0 00-.25.41v.72c0 1.46-.96 4.68-1.47 6.38a.1.1 0 00.08.12c.4.05 1.81.18 2.09-.51.57-1.43 1.19-3.07 2.1-4.33 2.1-2.88 1.36-.15.83 2.6-.55 2.89 1.95 2.85 3.37.73v-1c-1.55 1.55-1.86.9-1-1.5.45-1.26.98-3.83-.5-3.99-1.33-.14-2.74 1.51-3.47 2.62-.01.02-.08 0-.07-.03.25-.68.62-2.02-.16-2.39zm-15.9-7.36l11.95-1.8.3 1.97-11.95 1.8a2 2 0 00-1.7 1.98v9.42a2 2 0 001.7 1.97l11.95 1.81-.3 1.98-11.95-1.81A4 4 0 018 32.68v-9.42a4 4 0 013.4-3.95z" fill="#D71921"/><path d="M10.97 18.7l12.45-1.9.16.99-12.46 1.9A2.5 2.5 0 009 22.16v11.62c0 1.23.9 2.28 2.12 2.47l12.46 1.9-.16.99-12.45-1.9A3.5 3.5 0 018 33.77V22.16a3.5 3.5 0 012.97-3.45z" fill="#D8AB63"/><path d="M44.6 19.31l-11.95-1.8-.3 1.97 11.95 1.8a2 2 0 011.7 1.98v9.42a2 2 0 01-1.7 1.97l-11.97 2.01.34 1.97 11.94-2A4 4 0 0048 32.67v-9.42a4 4 0 00-3.4-3.95z" fill="#D71921"/><path d="M45.03 18.7l-12.45-2-.16.99 12.46 2A2.5 2.5 0 0147 22.16v11.62a2.5 2.5 0 01-2.12 2.47h-.01l-12.46 2.2.18.99 12.45-2.2A3.5 3.5 0 0048 33.77V22.16a3.5 3.5 0 00-2.97-3.45z" fill="#D8AB63"/><path fill-rule="evenodd" d="M28 15c-1.7 1-4.5 1.5-4.5 1.5-.19 1.82.5 6.48 4.5 7.98 4-1.5 4.69-6.16 4.5-7.98 0 0-2.8-.5-4.5-1.5zm-2.9 3.99h.61l1.86 3.24a.5.5 0 00.86 0L30.3 19h.61a.1.1 0 00.1-.1v-.8a.1.1 0 00-.1-.1H30a.5.5 0 00-.43.25L28 20.98l-1.57-2.74A.5.5 0 0026 18h-.9a.1.1 0 00-.1.1v.8c0 .06.04.1.1.1zm2.7 16.51l-4 .79a1 1 0 00-.8.98v2.35a1 1 0 00.8.98l4 .8a1 1 0 00.4 0l4-.8a1 1 0 00.8-.98v-2.35a1 1 0 00-.8-.98l-4-.8a1 1 0 00-.4 0zm.35 1.25h1.32a.1.1 0 01.09.15l-.61 1c-.26.41-.48.79-.61 1.08-.2.41-.17.66.06.66.33 0-.22.59-.6.43-.17-.08-.3-.27-.3-.63 0-.58.85-1.69 1.2-2.1a.1.1 0 00-.08-.17h-.4c-.19 0-.31.1-.4.2-.06.04-.1.08-.14.08-.19 0-.1-.7.47-.7zm3.32.01h-1.32c-.56 0-.66.7-.47.7.03 0 .08-.04.13-.09.1-.08.22-.19.4-.19h.4c.1 0 .14.1.09.17-.35.42-1.2 1.52-1.2 2.1 0 .36.13.55.3.63.38.16.93-.42.6-.42-.23 0-.25-.26-.06-.67.13-.3.35-.67.61-1.09l.6-.99a.1.1 0 00-.08-.15zm-6.9 3.1a.1.1 0 01-.1.08h-.34a.1.1 0 01-.1-.12c.13-.45.55-1.98.62-2.28.02-.1-.03-.14-.1-.17a.62.62 0 00-.27-.06.08.08 0 01-.08-.08c0-.04.04-.08.08-.08.27-.02.63-.1.8-.25a.11.11 0 01.06-.03h.02a.1.1 0 01.1.13l-.69 2.87zm1.98-.6c.06-.1.15-.27.2-.42.14-.3.3-1.53-.14-1.65-.22-.06-.47.16-.56.49-.1.33.02.64.24.7.12.04.16-.04.2-.1.03-.05.05-.09.1-.1.08 0 .1.11.08.2-.06.4-.43.5-.67.42-.38-.13-.59-.62-.42-1.24.24-.88 1.38-1.14 1.72-.16.32.93-.16 2.6-1.3 2.6-.14 0-.4-.11-.48-.4-.06-.22.04-.31.22-.33.16-.03.16.02.16.15v.02c0 .4.42.2.65-.17z" fill="#008ED3"/><path d="M13.1 23.98c-.34-1.35-1.99-.56-2.55-.05a.1.1 0 00-.02.11c.47.94.53 1 1.07 3.93l.79 6a.5.5 0 00.55.43l.98-.11a.5.5 0 00.4-.29c.5-1.02 1.5-2.94 2.23-4.03.66-.99 2.34-3.27 3.03-5 .74-1.86.43-1.99-1.5-1.5a.1.1 0 00-.08.09c-.01.52-.2 1.59-2.1 4.9l-1.64 2.56c-.05.08-.18.05-.19-.04a70.78 70.78 0 00-.97-7z" fill="#D71921"/><path fill-rule="evenodd" d="M18 34.5c1.36.05 2.54-1.41 3.04-2.14.04-.05.16 0 .15.06-.15.87-.03 2.04 1.31 2.04 1.26 0 2.5-1.5 2.5-2v-1c-.5.83-2 2.5-1.7.5 0 0 .19-2.34 1.2-4.75.06-.15.03-.32-.1-.4a1.42 1.42 0 00-1.63-.04c-.16.1-.38.1-.54 0-2-1.27-4.47 1.58-5.14 3.2-.8 1.9-1.07 4.45.91 4.53zm1-1.54c1.17 0 2.9-4 2.9-4 .03-.07.06-.15.07-.22.25-.93-.57-1.24-1.32-.95-.63.24-.96.9-1.23 1.48-.7 1.5-1.22 3.69-.42 3.69z" fill="#D71921"/><path d="M34.6 31.49c3.01-1.1 5.47-2.96 3.9-4.52-1.5-1.5-5.5.3-6.3 4.3-.47 2.35.97 3.17 2.58 3.24a5.55 5.55 0 003.47-1.16c.26-.33.28-.86.26-1.12 0-.08-.09-.11-.15-.07-3.35 2.37-4.24.58-4.03-.4.03-.13.14-.22.27-.27zm1.1-3.63c.44-.52 1.11-.46 1.2.11.1.69-.36 1.44-2.2 2.39a.1.1 0 01-.13-.12c.11-.33.35-1 .65-1.6.15-.3.31-.58.49-.78z" fill="#D71921"/><path d="M40.9 24.48v.57a.1.1 0 01-.13.1c-2.55-.68-4.02-.76-5.04-.63-1.25.16-3.2.73-2.77 2.33.02.06.1.09.15.05a8.85 8.85 0 017.4-.56.1.1 0 01.05.13c-.22.58-1.37 3.64-1.62 5.22-.46 2.84 1.07 3.31 2.56 2.67 1.53-.67 3.3-3.2 2.5-3.2-.5 0-3 3.3-2.5.3l1.3-4.49c.26-.64 1.6-.17 2.32-.86.39-.38.78-.93.48-1.13-.13-.09-.55.08-1.03.2l-1.2.26a.1.1 0 01-.12-.12l.25-.84c.73-1.82-1.25-1.3-2.62-.68-.1.04-.08.3-.04.39.04.07.06.16.06.29z" fill="#D71921"/><path d="M28 14.42l.25.15c.8.46 1.87.82 2.77 1.07a21.46 21.46 0 001.54.36h.02l.38.07.04.37c.1 1-.04 2.7-.72 4.36a7.15 7.15 0 01-4.1 4.14l-.18.07-.18-.07a7.15 7.15 0 01-4.1-4.14 9.71 9.71 0 01-.72-4.36l.04-.37.37-.07h.03a8.85 8.85 0 00.42-.09c.28-.06.67-.15 1.12-.27.9-.25 1.97-.6 2.77-1.07l.25-.15zm-4.03 2.49c-.02.88.14 2.2.67 3.51A6.18 6.18 0 0028 23.94a6.18 6.18 0 003.36-3.52c.53-1.3.69-2.64.67-3.51a18.06 18.06 0 01-1.27-.3c-.84-.24-1.9-.58-2.76-1.04-.87.46-1.92.8-2.76 1.03a22.48 22.48 0 01-1.27.31z" fill="#D8AB63"/></svg>