<!-- by TradingView --><svg xmlns="http://www.w3.org/2000/svg" width="56" height="56" viewBox="0 0 56 56"><path fill="#F0F3FA" d="M0 0h56v56H0z"/><path d="M24.67 28.97l-.48-5.8a1.42 1.42 0 0 0-.32-.87.97.97 0 0 0-.75-.3c-.5 0-.93.13-1.28.4a1.6 1.6 0 0 0-.63 1.05 1.93 1.93 0 0 0 .02.7l1.05 7.63c.05.38.18.68.4.9.21.21.49.32.82.32h.98c.32 0 .62-.1.91-.32.29-.21.52-.51.7-.9l3.62-7.63a3.35 3.35 0 0 0 .23-.7c.07-.44-.02-.79-.28-1.05-.26-.27-.64-.4-1.15-.4-.31 0-.6.1-.84.3-.25.2-.45.5-.6.87l-2.4 5.8zM34.1 33c.94 0 1.62-.04 2.04-.11.41-.08.8-.2 1.13-.39.5-.26.93-.63 1.25-1.12.32-.48.53-1.06.64-1.72a3 3 0 0 0-.1-1.64 1.83 1.83 0 0 0-1.02-.95c.46-.24.82-.54 1.08-.9.27-.37.44-.8.52-1.3.1-.62.05-1.15-.15-1.58-.2-.44-.53-.76-1-.97-.27-.12-.58-.2-.94-.25-.36-.05-.95-.07-1.74-.07H33.4c-.74 0-1.28.15-1.62.46-.34.3-.57.85-.7 1.62l-1.11 6.9c-.12.75-.06 1.28.18 1.58.25.3.73.44 1.47.44h2.48zm-.52-4.62H35c.48 0 .8.08.98.23.18.16.24.43.18.8-.06.37-.2.63-.43.8-.22.16-.57.24-1.04.24h-1.45l.34-2.07zm.61-3.83h.87c.68 0 1.1.06 1.28.19.17.12.23.35.17.69-.05.32-.17.54-.37.67-.2.14-.51.3-.94.3h-1.3l.3-1.85zm8.17 6.8L43.44 25h-1.77c-.9 0-1.3-.68-1.16-1.6.08-.45.26-.8.54-1.04s.65-.36 1.1-.36h6.66c.46 0 .78.13.98.37.2.25.25.62.18 1.1-.15.86-.71 1.53-1.6 1.53H46.6l-1.1 6.4c-.08.53-.28.92-.6 1.2-.3.26-.72.4-1.22.4s-.87-.15-1.1-.43c-.23-.3-.3-.7-.22-1.22z" fill="#172531"/><path d="M4.23 32.43c.47.04 1 0 1.59-.04 4.13-.36 9.5-2.94 11.98-5.8 2.48-2.87 1.14-4.9-3-4.55-.87.07-1.79.25-2.73.5 2.86.25 3.54 2.1 1.41 4.56-1.96 2.27-5.72 4.37-9.25 5.33zM4 29.68c.24.03.51.02.82 0 2.12-.18 4.88-1.52 6.15-2.99 1.28-1.47.59-2.52-1.54-2.34-.45.04-.92.13-1.4.26 1.46.13 1.82 1.08.73 2.34C7.75 28.11 5.82 29.2 4 29.68z" fill="red"/></svg>