<!-- by TradingView --><svg xmlns="http://www.w3.org/2000/svg" width="56" height="56"><path fill="#FCB000" d="M0 0h56v56H0z"/><path d="M10 40l3.74-17.72c.38-2.22 2.3-6.28 7.94-6.28h16.9c2.51 0 7.34 1.13 7.42 5.85.03 1.62-.95 4.63-5.38 5.48 1.54.41 4.5 2.09 4.5 5.43 0 4.2-3.37 7.24-9.2 7.24H10zm14.08-21.74c-2.02-.59-7.31 0-8.5 5.45l-3.15 14.22c2.37.28 7.36-.13 10.29-3.92l9.13-11.23c1.02-1.28 3.46-3.91 5.56-4.74-1.78-.16-6.1 0-9.35 3.6l-10.42 11.8L20 22.78c.28-1.35 1-3.66 4.1-4.52z" fill="#fff"/></svg>