<!-- by TradingView --><svg width="56" height="56" xmlns="http://www.w3.org/2000/svg"><path fill="#037D36" d="M0 0h56v56H0z"/><path d="M14.707 21.588L11.002 38h25.091c3.704 0 8.031-2.087 8.073-6.18.033-3.274-2.844-4.693-4.286-4.993 1.734-.178 5.185-1.417 5.118-4.953-.067-3.536-4.078-4.72-6.075-4.87H21.822c-4.993 0-6.824 3.056-7.115 4.584z" fill="#fff"/><path d="M16.121 23.459L13.186 36c5.626.394 8.523-2.275 9.801-3.688l8.572-9.96c1.698-2.262 4.23-3.839 5.284-4.345-4.993-.163-8.239 2.391-9.237 3.69L18.16 31.861c.527-2.268 1.748-7.427 2.414-9.92.665-2.492 2.746-3.525 3.703-3.73-5.426-.983-7.698 3.088-8.156 5.247z" fill="#037D36"/></svg>