<!-- by TradingView --><svg xmlns="http://www.w3.org/2000/svg" width="56" height="56"><path fill="#2A448F" d="M0 0h56v56H0z"/><path fill-rule="evenodd" d="M11 28.08a17.07 17.07 0 0119.48-16.9c-.73 1.12-.86 1.12-1.14 1.12-2.26-.7-3.98-.29-4.26 0-.86.86-1.15.99-1.43.86-1.28-.42-2-.13-2.42.28-.99 1 0 1.56.28 1.28.45-.57.86-.99 1.43-.86 1.15.42 1.72.57 1.85.29.7-.7 2-1.12 2.42-1 1.87.42 2.57-.28 2.57-.28v.65l-3.85 5.23s-.57-.16-.85.13c-4.14 3.25-4.27 7.61-4.27 7.61s-2.99 3.1-3.12 2.81c-.28-1.12.86-2.26 1.43-2.68 1.12-.7.7-1.69.7-1.69l-1.14-1.69-2.57.42s-.55 2.68-.13 2.4c1.56-.87 1.56.7 1.56.7s-.86.28-1.28.4c-1.14.3-1.14 1.7-1.14 1.98-.7 3.67 1.28 6.02 2.22 7.14.4.47.6.73.35.77-2.09.29-3.06-.6-3.46-.95-.16-.16-.23-.21-.23-.04 0 .2-.22.55-.48.84A16.72 16.72 0 0111 28.08zm3.05 9.63a16.99 16.99 0 0015.7 7.2c-.2-.1-.36-.22-.36-.22s-4.13-5.23-4.42-5.64c-.41-.57-.7-.86-.86-.86-1.3.31-2.41-.25-3.13-.61a3.57 3.57 0 00-.56-.25c-.1-.06-.19-.15-.29-.23-.32-.26-.63-.52-.85-.18-1.14 1.69-3.85.98-3.85.98l-1.14-.57-.24.38zm16.55 7.08c.43-.07.86-.15 1.28-.25a2.38 2.38 0 01-.51-.24s-3.56-4.78-3.85-4.94c-.2-.09-.39 0-.53.07-.07.03-.13.06-.17.06-.29 0-.57-.29-.57-.29s4.41 5.07 4.41 5.36a.81.81 0 01-.06.23zm1.98-.43c.4-.11.79-.24 1.18-.38-.34-.41-3.68-4.5-3.95-4.62-.06 0-.11.05-.18.1-.1.08-.22.18-.4.18-.28 0-.57-.28-.57-.28s3.98 4.52 3.98 4.65c0 .15-.02.26-.06.35zm2.37-.87c.38-.17.76-.36 1.12-.55a303.75 303.75 0 01-3.72-3.45c-.08-.09-.3-.06-.53-.03l-.32.03c-.42 0-.7-.13-.7-.13s3.5 3.13 4.15 4.13zm1.9-1c.34-.22.68-.44 1-.67l-3.1-2.62s-.58.42-1.43 0l3.53 3.28zm1.5-1.04c.37-.28.72-.57 1.06-.88l-1.52-1.5s-1.36.67-2.22-.06l-.07-.07.07.07 2.69 2.44zm1.51-1.31c.26-.25.51-.5.75-.77l-.02-.01-.98-.7s-.42.41-1.15.28l1.4 1.2zm2.09-.8A17.74 17.74 0 0046 28.09 18.1 18.1 0 0027.94 10C18.1 10 10 18.1 10 28.08 10 37.89 18.1 46 27.94 46c5.42 0 10.3-2.41 13.62-6.2l.05.03.34-.48zm-.76-.64c-.7-.33-1.17-.98-1.17-.98s-.44.44-.86.57c-.41 0-.83-.15-.7-.28 4.15-3.47 1.97-6.3 1.36-7.09a6.08 6.08 0 01-.08-.11c-1.43-1.54-1.56.57-1.56.57.85 0 1.69.96 1.56 1.82-.13 1.84-2.14 1.97-2.14 1.97l-1.14-1.27s-2.83-9.3-2.7-9.6a30.16 30.16 0 017.11-7.35A17 17 0 0145 28.08c0 4-1.43 7.7-3.81 10.62zm-.55-22.01a17.05 17.05 0 00-10.1-5.5c.11.39.23 2.54.23 2.54l1.43 4.24 8.44-1.28zm-7.58 9.41l1.71 8.74s-3.4-.7-3.12-5.36c-.02-.41-.02-2.68 1.4-3.38zm-4.68 5.93l-.29 2.96c.42.13.7 0 .7 0 1.02-.86 1.43.13 1.43.13.29.13.57 0 .57 0 .81-.8 1.72-.38 2.03-.2l.1.07-.1-.07-4.44-2.9zm-1.02 2.26l.42-2.55c-1.43-.85-1.56 0-1.56 0l-.29 2.68s1.02-.99 1.43-.13zm-2.54-.16l.7-2.8s-1.15 0-1.4.57c-.42 1.25 0 2.8 0 2.8l.7-.57zm-1.3.58s-3.85-4.66-2.7-7.46c.12-.42-2.84 2.54-2.84 2.54s1.27 4.92 5.54 4.92zm10.1-7.9l1.72 8.18.29-.13-2-8.06zm.3-.42l2.25 8.03-.26.29-2-8.32z" fill="#fff"/></svg>