<!-- by TradingView --><svg width="56" height="56" viewBox="0 0 56 56" xmlns="http://www.w3.org/2000/svg"><path fill="#F0F3FA" d="M0 0h56v56H0z"/><path d="m50.75 22-1.25 2-1.25-2H47l1.24 2h1.26l.62 1L52 22h-1.25Z" fill="#B1B1B1"/><path d="M7.07 25 6 27.71 4.93 25H4l1.62 4h.76L8 25h-.93ZM11 26.6c0-.5-.48-.83-.94-.83-.5 0-1 .3-1.06.83h2ZM8 27c0-1.17.9-2 2.06-2A1.9 1.9 0 0 1 12 26.92c0 .11 0 .22-.02.31H9c.03.6.42 1 1.11 1 .4 0 .76-.14 1.06-.44l.56.53c-.44.45-.99.68-1.65.68C8.93 29 8 28.23 8 27.04V27Z" fill="#002E6D"/><path d="M21.82 26.77 24 29h-.53l-2.08-2.1V29H21v-6h.39v3.66l1.98-1.94h.55l-2.1 2.05Z" fill="#B1B1B1"/><path d="M13 29v-4h1v.66c.24-.41.45-.66 1.15-.66.13 0 .25 0 .35.02v.9a3.17 3.17 0 0 0-.5-.03c-.8 0-1 .4-1 1.05V29h-1ZM19 27c0-.64-.34-1.17-.99-1.17-.65 0-1.01.53-1.01 1.17 0 .64.36 1.17 1.01 1.17S19 27.64 19 27Zm0-1.36V25h1v4h-1v-.64c-.13.37-.49.64-1.1.64-1.11 0-1.9-.93-1.9-2 0-1.07.79-2 1.9-2 .61 0 .97.27 1.1.64Z" fill="#002E6D"/><path d="M26 29c-.56 0-1.03-.2-1.42-.58A1.94 1.94 0 0 1 24 27c0-.56.2-1.04.58-1.42.39-.39.86-.58 1.43-.58.55 0 1.02.2 1.4.58.4.39.59.86.59 1.42 0 .56-.2 1.03-.58 1.42-.4.39-.86.58-1.41.58Zm-1.15-.84c.32.31.7.47 1.16.47.44 0 .82-.16 1.14-.47.3-.32.46-.7.46-1.16 0-.46-.15-.84-.46-1.16-.32-.31-.7-.47-1.14-.47-.46 0-.84.16-1.16.47-.3.31-.46.7-.46 1.16 0 .46.15.85.46 1.16ZM30.62 25c.43 0 .76.14 1 .43.26.28.38.66.38 1.14V29h-.36v-2.43c0-.37-.1-.66-.28-.87a.97.97 0 0 0-.77-.32c-.37 0-.67.13-.9.4-.22.28-.34.66-.34 1.15V29H29v-4h.35v.83c.26-.55.68-.83 1.27-.83ZM33.54 26.09c0 .32.29.55.86.69.64.13 1.6.3 1.6 1.13 0 .77-.8 1.09-1.46 1.09-.76 0-1.33-.33-1.54-.85l.35-.2c.15.43.59.68 1.2.68.62 0 1.04-.27 1.04-.72 0-.35-.34-.59-.87-.7a7.21 7.21 0 0 0-.4-.09c-.54-.13-1.19-.38-1.19-1.03 0-.73.74-1.09 1.38-1.09.64 0 1.16.3 1.38.77l-.34.18c-.16-.36-.56-.58-1.04-.58-.43 0-.97.21-.97.72ZM39.05 25c.58 0 1.05.2 1.4.6a2.03 2.03 0 0 1 .54 1.6h-3.58c.05.43.23.77.53 1.04.3.26.7.39 1.15.39.31 0 .58-.06.82-.19.24-.12.42-.3.55-.5l.34.2c-.16.26-.4.47-.7.63-.3.15-.64.23-1.02.23-.6 0-1.1-.19-1.5-.56-.38-.38-.58-.86-.58-1.44 0-.57.19-1.05.57-1.42.39-.39.88-.58 1.48-.58Zm0 .37c-.45 0-.82.13-1.12.4-.3.28-.48.63-.52 1.05h3.18a1.52 1.52 0 0 0-1.54-1.45ZM44.02 25c1.18 0 1.98.89 1.98 2 0 1.12-.8 2-1.98 2-.72 0-1.33-.33-1.64-1v3H42v-6h.38v1c.31-.67.92-1 1.64-1ZM44 28.6c.96 0 1.62-.7 1.62-1.6 0-.9-.66-1.6-1.62-1.6-.97 0-1.62.69-1.62 1.6 0 .5.65 1.6 1.62 1.6ZM48 25v.38h-1v2.6c0 .44.17.63.46.65.14.01.32 0 .54-.02v.35c-.15.03-.28.04-.4.04-.61 0-.93-.31-.93-1.02v-2.6H46V25h.67v-.88L47 24v1h1ZM22 33h2v.15c0 1.1-.85 1.85-1.91 1.85A2.02 2.02 0 0 1 20 33c0-1.12.92-2 2.04-2 .67 0 1.34.31 1.7.9l-.66.37c-.19-.32-.6-.53-1.04-.53-.73 0-1.28.54-1.28 1.26 0 .76.6 1.26 1.33 1.26.6 0 1-.27 1.14-.73H22V33ZM27.5 31h1l-1.6 2.44V35h-.79v-1.56L24.5 31h1l1 1.67 1-1.67ZM32.42 34.42c-.4.39-.87.58-1.42.58-.56 0-1.03-.2-1.42-.58A1.95 1.95 0 0 1 29 33c0-.56.2-1.03.58-1.42.39-.39.86-.58 1.42-.58.55 0 1.03.2 1.42.58.39.38.58.86.58 1.42 0 .56-.2 1.04-.58 1.42Zm-2.31-.51c.23.23.53.35.89.35A1.2 1.2 0 0 0 32.24 33 1.23 1.23 0 0 0 31 31.74c-.36 0-.65.11-.89.35s-.36.54-.36.9c0 .38.12.68.36.92Z" fill="#B1B1B1"/></svg>