<!-- by TradingView --><svg width="56" height="56" viewBox="0 0 56 56" xmlns="http://www.w3.org/2000/svg"><path fill="#F0F3FA" d="M0 0h56v56H0z"/><path d="M23.35 32c.6.6 1.3.97 2.05 1h-6.63c-.88-.28-1.7-.62-2.44-1h7.02Zm11.32 0c-.74.38-1.56.72-2.44 1H25.6c.75-.03 1.45-.4 2.05-1h7.02ZM22.1 30c.14.36.3.7.49 1H14.7c-.43-.31-.8-.65-1.14-1h8.54Zm15.34 0c-.33.35-.71.69-1.14 1h-7.89c.18-.3.35-.64.49-1h8.54Zm-15.87-2c.05.34.12.68.2 1h-9c-.2-.32-.37-.66-.5-1h9.3Zm17.16 0c-.13.34-.3.68-.5 1h-9c.08-.32.15-.66.2-1h9.3Zm-17.25-2a10.72 10.72 0 0 0 0 1h-9.45a4.24 4.24 0 0 1 0-1h9.45Zm17.49 0a4.24 4.24 0 0 1 0 1h-9.45a10.46 10.46 0 0 0 0-1h9.45Zm-17.2-2a9.5 9.5 0 0 0-.2 1h-9.3c.13-.34.3-.68.5-1h9Zm16.46 0c.2.32.37.66.5 1h-9.3a9.47 9.47 0 0 0-.2-1h9Zm-15.65-2c-.18.3-.34.64-.49 1h-8.53c.33-.35.71-.69 1.14-1h7.88Zm13.72 0c.43.31.8.65 1.14 1H28.9c-.14-.36-.3-.7-.49-1h7.89Zm-10.9-2c-.76.03-1.46.4-2.06 1h-7.01c.74-.38 1.56-.72 2.44-1h6.63Zm6.83 0c.88.28 1.7.62 2.44 1h-7.02c-.6-.6-1.3-.97-2.05-1h6.63ZM24 19h2.5l3.5-3h-2.3L24 19ZM30 16h2.51L36 14h-2.3L30 16Z" fill="#01329C"/><path d="m33.17 32.68 5 2.22s1.95.75 1.88 1.56c-.06.79-.64 1.29-1.28 1.29s-12.42-.32-16.1 0c-3.69.3-6.99 1.56-6.99 1.56s5.45.72 6.21.69c.77 0 5.45-1.22 7.05-1.31 1.6-.1 2.82-.44 7.81-.38 5.03.06 4.65.1 6.38.12.5 0 1.7-1.22-.04-2-2.17-.97-9.31-3.85-9.31-3.85s-.52-.15-.61.1Z" fill="#01329C"/></svg>