<!-- by TradingView --><svg xmlns="http://www.w3.org/2000/svg" width="56" height="56"><path fill="#F0F3FA" d="M0 0h56v56H0z"/><path fill-rule="evenodd" d="M39 11H17v34h22V11zm-1.03 22.77c.13 1.26-.15 3.81-2.34 3.93-1.05.06-1.53.07-1.86.07-.54.01-.68.01-2.13.2l-1.2.18c-1.54.21-2.43.34-3.68.34-.4.37-1.32 1.08-1.74.98a1.63 1.63 0 011-1.77c.37-.17.77-.33 1.17-.49.94-.38 1.82-.73 2.09-1.16.35-.58.71-.58.98-.58h.05c.22 0 .3-.27.32-.4 1.57.15 5.12.07 6.72-1.42.2-.2.6-.47.62.12zm-5.34-10.72c2.92 4.15 4.8 4.83 5.37 4.65v-8.93l-4.22 1.61a34.59 34.59 0 01-4.94-.8c-2.5-.54-3.58-.45-6.71.17-2.5.49-2.78-1.63-2.6-2.75H18v15.5c1.7.38 3.46 1.16 4.13 1.5 3.79-.6 3.2-2.49 2.43-3.36-3.9-1.57-3.56-3.77-3.42-4.69l.03-.28c.02-.5.52-.54.76-.5 1.11-.09 1.5-.95 1.74-1.88.2-.75.57-.97.74-.98a7.14 7.14 0 013.35 0c1.68.56 3.95.73 4.87.74zM18 12h5.45c.23.79-.54 2.56-5.45 3.3V12zm1.18 29h-.96l1.21 1.79V44h.86v-1.21L21.47 41h-1.08l-.55.97-.66-.97zm3.1 0l-1.16 3h.97l.2-.45h.9l.22.45h.94l-1.16-3h-.9zm.13 1.83l.32-.9.33.9h-.65zm8.35 1.15L31.92 41h.9L34 44h-.94l-.22-.45h-.91l-.19.45h-2.01l-.75-1.18h-.27V44h-.92v-3h1.74c.22 0 .96.13.96.86 0 .58-.34.8-.63.83l.91 1.3zm1.61-2.06l-.32.91h.65l-.33-.9zM24.7 44v-3h1.73c.23 0 .84.19.85 1 .01.65-.56.88-.85.91h-.81V44h-.92zm1.63-2.06c0-.3-.48-.28-.71-.27v.6c.24 0 .71 0 .71-.33zm2.37-.27c.26-.01.8-.03.8.27 0 .34-.53.34-.8.34v-.61zm5.65-.67v3h.94v-.62l.44-.52.65 1.14h1.16l-1.16-1.82L37.54 41h-1.27l-.98 1.09V41h-.94z"/></svg>