<!-- by TradingView --><svg width="56" height="56" viewBox="0 0 56 56" xmlns="http://www.w3.org/2000/svg"><path fill="#E0E3EB" d="M0 0h56v56H0z"/><path d="M32.5 17h-9.06l-4.05 7.98A2.13 2.13 0 0 1 17.6 26h-.96l3.74 6.9c.39.75.84 1.1 1.6 1.1.71 0 1.42-.39 1.8-1.1L32.5 17Z" fill="url(#a2rgdoz5m)"/><path d="m23.31 33.47-4.46-7.9c-.37.32-.9.43-1.26.43h-.96l3.74 6.9c.38.72.86 1.1 1.7 1.1.48 0 .86-.23 1.24-.53Z" fill="url(#b2rgdoz5m)"/><path d="M44 17h-9.25L24.8 34.98c-.37.61-1.24 1.02-1.99 1.02H22s2.24 4.61 4.27 7.98A2 2 0 0 0 28 45c.56 0 1.38-.25 1.81-1.02C35.43 33.87 44 17 44 17Z" fill="url(#c2rgdoz5m)"/><path d="m29.44 44.27-5-8.88c-.5.44-1.25.61-1.63.61H22s2.24 4.54 4.27 7.96c.29.48.9 1.04 1.73 1.04.5 0 1-.2 1.44-.73Z" fill="url(#d2rgdoz5m)"/><path d="M21.4 17H12l2.92 5.75a2.04 2.04 0 0 0 1.9 1.25c.7 0 1.4-.4 1.77-1.17L21.4 17Z" fill="url(#e2rgdoz5m)"/><path d="M12 17h2.47l3.64 6.45c-.37.37-.85.55-1.33.55a2 2 0 0 1-1.85-1.23L12 17Z" fill="url(#f2rgdoz5m)"/><defs><linearGradient id="a2rgdoz5m" x1="29.54" y1="16.88" x2="23.1" y2="33.01" gradientUnits="userSpaceOnUse"><stop offset=".1" stop-color="#014D7C"/><stop offset=".47" stop-color="#008FC1"/><stop offset=".8" stop-color="#00A9D6"/></linearGradient><linearGradient id="b2rgdoz5m" x1="23.41" y1="28.21" x2="18.03" y2="31.09" gradientUnits="userSpaceOnUse"><stop offset=".43" stop-color="#014D7C" stop-opacity="0"/><stop offset=".7" stop-color="#015585"/></linearGradient><linearGradient id="c2rgdoz5m" x1="39.16" y1="17.06" x2="28.55" y2="46.35" gradientUnits="userSpaceOnUse"><stop offset=".1" stop-color="#004D7C"/><stop offset=".3" stop-color="#006291"/><stop offset=".59" stop-color="#0090C1"/><stop offset=".85" stop-color="#00B1DC"/><stop offset="1" stop-color="#3481AD"/></linearGradient><linearGradient id="d2rgdoz5m" x1="25.42" y1="43.38" x2="28.76" y2="41.57" gradientUnits="userSpaceOnUse"><stop offset=".28" stop-color="#015585"/><stop offset=".77" stop-color="#0570A4" stop-opacity="0"/></linearGradient><linearGradient id="e2rgdoz5m" x1="19.73" y1="16.47" x2="15.81" y2="23.03" gradientUnits="userSpaceOnUse"><stop offset=".08" stop-color="#014D7C"/><stop offset=".97" stop-color="#01AEDA"/></linearGradient><linearGradient id="f2rgdoz5m" x1="13.43" y1="23.15" x2="18.85" y2="20.77" gradientUnits="userSpaceOnUse"><stop offset=".36" stop-color="#014D7C" stop-opacity=".96"/><stop offset=".6" stop-color="#015585" stop-opacity="0"/></linearGradient></defs></svg>