<!-- by TradingView --><svg xmlns="http://www.w3.org/2000/svg" width="56" height="56" viewBox="0 0 56 56"><path fill="#F0F3FA" d="M0 0h56v56H0z"/><path fill-rule="evenodd" d="M41 35.49V20.5a15 15 0 0 0-26 0v2.73c.01-2.15 2-3.07 2-3.07v12.56c0 .56.52 2.27 2 2.27 1.08 0 1.73-.62 2-1.5V20h2v22.15a15 15 0 0 0 18-6.66zm-20 5.78v-4.9c-.47.35-1.12.66-1.93.66A4.82 4.82 0 0 1 15 35.2v.29a15.07 15.07 0 0 0 6 5.78zm12-17.22C33 21.8 34.8 20 37 20s4 1.81 4 4.05v8.9C41 35.2 39.2 37 37 37s-4-1.81-4-4.05v-8.9zm2-.05c0-1.05.9-2 2-2s2 .95 2 2v9c0 1.05-.9 2-2 2s-2-.95-2-2v-9zm-7-4c-2.2 0-4 1.84-4 4.11v8.78c0 2.27 1.8 4.11 4 4.11s4-1.84 4-4.11v-1.4l-2 .62v1.05c0 1.02-.9 1.84-2 1.84s-2-.82-2-1.84v-1.2c1.35-.6 3.04-1.49 4-2.34a5.78 5.78 0 0 0 2-3.77v-1.74c0-2.27-1.8-4.11-4-4.11zm0 2c-1.1 0-2 .98-2 2v5.3a6.07 6.07 0 0 0 2.4-1.48 5.15 5.15 0 0 0 1.44-3.4l.16.03V24c0-1.02-.9-2-2-2z" fill="#91ABBC"/><path d="M26 24v5.31l1-.45a4.9 4.9 0 0 0 3-4.4V24c0-.99-.9-2-2-2s-2 1.01-2 2z" fill="#E53528"/><path fill-rule="evenodd" d="M28 45.5a17.5 17.5 0 1 0 0-35 17.5 17.5 0 0 0 0 35zm0 .5a18 18 0 1 0 0-36 18 18 0 0 0 0 36z" fill="#91ABBC"/></svg>