<!-- by TradingView --><svg width="56" height="56" viewBox="0 0 56 56" xmlns="http://www.w3.org/2000/svg"><path fill="#F0F3FA" d="M0 0h56v56H0z"/><path d="m39 30-7 10 6.28-5.97L46 40l-7-10Z" fill="#565656"/><path d="M18.76 24.35 12 32l7.05-12.9-4.38-7.1 7.56 6.67L27 15l-6.2 6.95-.68-1.15-1.36 3.55ZM23.76 26.8 35 14l-9.68 7.53-1.56-1.43L12 40l9.63-10.83L23 25.65l.75 1.16ZM27.02 32.07 43 13 28.72 24.58l-1.53-1.34L15 46l9.6-11.25 1.51-4.14.91 1.46Z" fill="#DD002B"/><path d="M35.38 25 25 40l9.34-8.97 1.7 1.34L38 28.79 35.38 25Z" fill="#565656"/></svg>