<!-- by TradingView --><svg xmlns="http://www.w3.org/2000/svg" width="56" height="56" viewBox="0 0 56 56"><path fill="#2D5125" d="M0 0h56v56H0z"/><path d="M44 27.15c0 4.02-1.65 7.68-4.35 10.39A14.8 14.8 0 0 0 42 29.5c0-8-6.27-14.5-14-14.5s-14 6.5-14 14.5c0 2.97.86 5.74 2.35 8.04A14.68 14.68 0 0 1 12 27.15C12 18.8 19.16 12 28 12s16 6.79 16 15.15Zm-5.93 11.12a13.1 13.1 0 0 0 3.55-8.96C41.62 21.96 35.52 16 28 16s-13.62 5.96-13.62 13.3c0 3.39 1.3 6.48 3.42 8.83a12.83 12.83 0 0 1-1.82-6.63c0-6.9 5.37-12.5 12-12.5s12 5.6 12 12.5c0 2.5-.7 4.82-1.91 6.77Zm1.43-6.73c0 2.14-.59 4.16-1.62 5.88.33-1.08.51-2.23.51-3.42 0-6.08-4.65-11-10.39-11s-10.4 4.92-10.4 11c0 1.2.19 2.34.52 3.42a11.5 11.5 0 1 1 21.38-5.88ZM28 24v2.52c8.11 0 8.95 8.5 8.95 9.29 0 .63-.1 1.72-.16 2.19.8-1.38.8-3.24.8-4.36l.01-.44c0-6.56-6.4-9.2-9.6-9.2Zm0 5.88v-2.5c2.81 0 8 2.83 8 8.2-.03 1.27-.45 4.15-1.85 5.42.22-.5.65-1.92.65-3.66 0-2.17-1.79-7.07-6.8-7.46ZM28 43a6 6 0 1 0 0-12 6 6 0 0 0 0 12Z" fill="#FEFDFC"/></svg>