<!-- by TradingView --><svg width="56" height="56" viewBox="0 0 56 56" xmlns="http://www.w3.org/2000/svg"><path fill="#F0F3FA" d="M0 0h56v56H0z"/><path d="M13.6 37.66a2.25 2.25 0 0 0 .18.65l.02.02v.02l.03.04a1.15 1.15 0 0 0 .28.29l.09.05.02.01.07.03c.09.02.17.04.26.04h.15a.74.74 0 0 0 .07-.02 3.46 3.46 0 0 0 .36-.11l.02-.02a1.35 1.35 0 0 0 .07-.03l.16-.1.05-.02.06-.04.1-.06.1-.08.2-.15.05-.05.14-.12a15.41 15.41 0 0 0 1.12-1.1 10.79 10.79 0 0 0 1.38-1.9c.37-.64.69-1.32.94-2.02a11.78 11.78 0 0 0 .28-7.38l-.01-.03-.1.1-.18.18a30.46 30.46 0 0 0-1.29 1.41l-.11.14a27.84 27.84 0 0 0-2.64 3.83 26.37 26.37 0 0 0-.36.66A19.92 19.92 0 0 0 14 34.6c-.13.4-.23.8-.3 1.21-.14.67-.2 1.18-.1 1.85ZM20.68 24a35.32 35.32 0 0 1 6.99-4.95.43.43 0 0 1 .2-.06c.12 0 .16.11.08.3-.13.31-.43.63-.74.8a35.74 35.74 0 0 0-4.34 2.78c-.66.5-1.18.93-1.78 1.47l-.15.13-.07.06c.22.67.35 1.36.42 2.06.3 2.99-.51 6.05-2.15 8.6a15.22 15.22 0 0 1-3.69 4.02c-.5.37-1.12.77-1.77.78-1.14.02-1.28-1.37-1.24-2.16a13.5 13.5 0 0 1 1.66-5.39 28.82 28.82 0 0 1 5.5-7.42c-.18-.46-.4-.93-.72-1.29-.2-.2-.4-.34-.65-.35h-.12l-.02.01h-.02a1.73 1.73 0 0 0-.16.06h-.02l-.06.03a3.05 3.05 0 0 0-.1.05 7.4 7.4 0 0 0-.11.1l-.04.02a13.81 13.81 0 0 0-.2.18l-.03.03a11.07 11.07 0 0 0-.33.37l-.02.03-.03.04-.07.08a13.77 13.77 0 0 0-.58.78l-.56.83a23.1 23.1 0 0 1-1.19 1.68c-.54.67-1.12 1.3-1.8 1.85-.4.31-.87.63-1.39.75-2.11.48-1.95-2.74-1.76-3.89a10.65 10.65 0 0 1 .8-2.63c.19-.41.37-.83.47-1.26.07-.3.13-.88-.28-.9a.74.74 0 0 0-.44.12h-.02a1 1 0 0 0-.04.03l-.03.02-.01.01-.16.12-.03.03a2.64 2.64 0 0 0-.1.09l-.02.02h-.01c-.1.1-.54.57-.71.4-.18-.16.2-.61.32-.73a4.3 4.3 0 0 1 1.75-1.25c.43-.12.83-.02.93.44.13.66-.21 1.4-.5 2.02l-.09.2a8.98 8.98 0 0 0-.83 3.5c-.02.74.03 1.8.7 2.32a.88.88 0 0 0 .62.2c.11 0 .12-.01.18-.03h.02a2.18 2.18 0 0 0 .3-.11l.07-.03a3.2 3.2 0 0 0 .16-.1h.01l.02-.02c.02 0 .03-.02.05-.03l.03-.02.15-.12a3 3 0 0 0 .07-.05l.02-.02.07-.07.1-.08.06-.06.09-.09a11.66 11.66 0 0 0 .35-.38l.08-.1.03-.03.02-.02v-.01c.32-.39.62-.79.9-1.2l.42-.62c.45-.67.9-1.34 1.43-1.97.46-.55.98-1.08 1.6-1.47.32-.19.74-.37 1.12-.29.69.15 1 .9 1.25 1.45v.02l.14.32ZM26.94 26l-1.18 1.88L24.58 26H24l1.5 2.34L24.43 30h.51l2.58-4h-.58Zm3.94.35c-.1 0-.2-.08-.2-.17 0-.1.1-.18.2-.18.11 0 .2.08.2.18 0 .1-.09.17-.2.17Zm.71 0c-.1 0-.2-.08-.2-.17 0-.1.1-.18.2-.18.11 0 .2.08.2.18 0 .1-.09.17-.2.17Zm.89 2.05V26H33v2.37c0 .5-.16.9-.49 1.2-.32.29-.74.43-1.25.43-.52 0-.95-.14-1.27-.43a1.5 1.5 0 0 1-.49-1.2V26h.52v2.4c0 .77.5 1.17 1.24 1.17.72 0 1.22-.4 1.22-1.17ZM35.5 26v4h.5v-2.97L38.81 30H39v-4h-.52v2.98L35.68 26h-.18Zm5.78 1c0-.3.12-.54.38-.72.25-.19.56-.28.93-.28.57 0 1.07.26 1.36.66l-.38.25a1.18 1.18 0 0 0-1-.49c-.42 0-.76.2-.76.56 0 .17.05.3.2.4.15.1.22.14.43.23l.07.03.48.2c.68.29 1.01.59 1.01 1.08 0 .32-.13.58-.4.78-.26.2-.6.3-1 .3-.68 0-1.26-.32-1.6-.83l.38-.26c.32.44.73.67 1.21.67.52 0 .88-.25.88-.65 0-.33-.2-.46-.73-.68l-.48-.2c-.62-.27-.98-.55-.98-1.04Zm7.61 1.78-.87-1.93-.86 1.93h1.73ZM46.05 30l1.88-4h.2L50 30h-.55l-.37-.8h-2.11l-.38.8h-.54Z" fill="#202020"/></svg>