<!-- by TradingView --><svg width="56" height="56" viewBox="0 0 56 56" xmlns="http://www.w3.org/2000/svg"><path fill="#F0F3FA" d="M0 0h56v56H0z"/><path fill-rule="evenodd" d="M44.84 33.99V34h-4.43c-1.57 0-2.88-.5-3.95-1.27A18.7 18.7 0 0 1 33 35v-2.16a9.08 9.08 0 0 0 2.13-1.36 9.18 9.18 0 0 1-2.13-5.6C33 22.7 34.43 21 36.5 21c1.96 0 3.5 1.58 3.5 4.28a9.21 9.21 0 0 1-2.2 6.06A3.4 3.4 0 0 0 40 32h1.66a4.87 4.87 0 0 1-.66-2.5c0-2.56 1.78-4.5 4.17-4.5 1.16 0 2.15.58 2.83 1.54V25h2v6.26c0 .4.19.74.63.74H51v2h-1.15c-1 0-1.73-.53-1.85-1.43-.47.84-1.62 1.43-2.83 1.43l-.33-.01ZM35 25.79c0 1.92.81 3.27 1.5 4.15.75-1.16 1.5-2.5 1.5-4.14 0-1.51-.5-2.8-1.5-2.8-.77 0-1.5.88-1.5 2.8ZM11 34v-4.25s3.66-4.97 3.66-7.75h-2.07c-.4 2.88-2.47 5.5-2.47 5.5L7.1 22H4.5L9 29.75V34h2Zm19-4.24V25h2v8.82c0 2.27-1.67 4.24-4.02 4.18A4 4 0 0 1 24 35h2.13c.36.73 1.04 1.02 1.82 1 1.27.06 2.05-1.15 2.05-2.5v-.97a3.1 3.1 0 0 1-1.12 1.1c-.49.26-1.02.37-1.56.37-2 0-3.32-1.43-3.32-3.6V25h2v4.8c0 1.33.7 2.2 1.93 2.2 1.3 0 2.07-.9 2.07-2.24ZM22 25v6.18c0 1 1 1.39 1 1.39v2.18a4.21 4.21 0 0 1-3-2.18c-.47.84-1.62 1.43-2.83 1.43-2.4 0-4.17-1.94-4.17-4.5s1.78-4.5 4.17-4.5c1.16 0 2.15.58 2.83 1.54V25h2Zm-4.5 7a2.5 2.5 0 1 0 0-5 2.5 2.5 0 0 0 0 5ZM48 29.5a2.5 2.5 0 1 1-5 0 2.5 2.5 0 0 1 5 0Z" fill="#DB0032"/><path d="M37.81 31.34a6.48 6.48 0 0 1-1.31-1.41 9.85 9.85 0 0 0 1.3-2.65c.3.38 1.12.75 1.7 1.1a9.24 9.24 0 0 1-1.69 2.96Z" fill="url(#aqrdl1um3)" fill-opacity=".7" style="mix-blend-mode:multiply"/><path d="M36.47 32.73c-.93.8-2.56 1.84-3.47 2.27v-2.15c.78-.4 1.45-.76 2.13-1.37.36.49.94.93 1.34 1.25Z" fill="url(#bqrdl1um3)" fill-opacity=".5" style="mix-blend-mode:multiply"/><defs><linearGradient id="aqrdl1um3" x1="39.13" y1="27.66" x2="35.76" y2="29.91" gradientUnits="userSpaceOnUse"><stop offset=".19" stop-color="#DB0032" stop-opacity="0"/><stop offset=".28" stop-color="#B9052D" stop-opacity=".18"/><stop offset=".66" stop-color="#46161F" stop-opacity=".78"/><stop offset="1" stop-color="#1D1D1B"/></linearGradient><linearGradient id="bqrdl1um3" x1="33.12" y1="34.03" x2="35.6" y2="32.66" gradientUnits="userSpaceOnUse"><stop offset=".19" stop-color="#DB0032" stop-opacity="0"/><stop offset=".7" stop-color="#46161F" stop-opacity=".78"/><stop offset="1" stop-color="#1D1D1B"/></linearGradient></defs></svg>