<!-- by TradingView --><svg width="56" height="56" viewBox="0 0 56 56" xmlns="http://www.w3.org/2000/svg"><path fill="#F0F3FA" d="M0 0h56v56H0z"/><path d="M11.96 21.12c.04-.12 0-.12-.11-.12H6.13c-.13 0-.13.16-.13.16v.63c0 .16.05.21.2.21h3.6c.12 0 .15 0 .12.16-1.29 3.8-2.58 7.88-3.87 11.68-.04.12 0 .16.12.16h5.64c.15 0 .19-.04.19-.2v-.6c0-.16 0-.2-.19-.2H8.25c-.23 0-.23 0-.15-.25 1.25-3.8 2.54-7.85 3.86-11.63ZM19.86 24.21s-.12-.2-.24-.2h-2.76c-.12 0-.16-.05-.16-.17V22.2c0-.17 0-.2.2-.2h2.94c.12 0 .16 0 .16-.17v-.65c0-.13-.04-.18-.16-.18h-4.62c-.12 0-.22.01-.22.18v2.66c0 .16-.14.16-.14.16h-1.2c.16.37.32.62.44.95 0 0 .08.05.12.05h.64c.12 0 .14.04.14.2v8.63c0 .09.02.17.14.17h4.7c.08 0 .16-.01.16-.13v-.71c0-.13-.04-.16-.2-.16h-2.94c-.16 0-.2 0-.2-.2v-7.6c0-.16 0-.2.2-.2h3.35c.12 0 .16 0 .08-.13l-.43-.66ZM48.26 21c-.08 0-.12.04-.16.12-.72.83-1.44 1.7-2.17 2.53-.11.12-.15.08-.22 0l-1.83-2.11c-.15-.17-.32-.46-.51-.54h-1.85s2.32 2.73 3.43 4.01c.07.09.05.17.05.25v8.56c0 .13.02.21.17.17h1.18c.15 0 .2 0 .2-.2V25.3c0-.12 0-.25.1-.37C47.62 23.85 50 21 50 21h-1.74ZM40 22.65s-.05-.29-.2-.52c-.2-.33-.5-.53-.82-.69a4.2 4.2 0 0 0-1.2-.36 4.61 4.61 0 0 0-2.85.36c-.59.28-.97.77-.93 1.5v1.28c0 .12 0 .16-.12.16h-1.14c.12.2.24.4.28.61.12.4.35.56.78.48.23 0 .2-.04.2.25v8.1c0 .17.19.18.19.18h1.17c.23 0 .23-.01.23-.26V25.6c0-.16.04-.2.2-.2h2.5c.15 0 .19 0 .19.2v8.27c0 .09 0 .14.08.14h1.27c.16 0 .17-.14.17-.22V22.65Zm-1.68 1.77H35.71c-.12 0-.16-.04-.16-.16V22.9c0-.36.2-.56.55-.56h1.8c.3 0 .54.24.54.56v1.41c0 .12 0 .12-.12.12ZM29.63 28.86a3.64 3.64 0 0 0 .84-3.95 5.37 5.37 0 0 0-1.64-2.26 6.61 6.61 0 0 0-4.11-1.6c-.88-.05-1.72 0-2.6-.05-.12 0-.12.04-.12.16V33.8c0 .13.04.21.16.21h1.16c.16 0 .2-.08.2-.25v-2.14c0-.04 0-.12.04-.16.36-.08.68-.08 1.04.16 1 .79 2 1.53 3 2.27.07.08.2.12.31.12H30l-4.11-2.96c.47-.17.91-.33 1.31-.5a7.16 7.16 0 0 0 2.4-1.56l.04-.12ZM24.31 30h-.44c-.19 0-.31-.05-.31-.24V22.4c0-.12 0-.2.16-.2a5.57 5.57 0 0 1 4.11 1.27 3.62 3.62 0 0 1 .6 4.77c-.44.62-1 .99-1.68 1.32a5.5 5.5 0 0 1-2.44.44Z" fill="#781417"/></svg>