<!-- by TradingView --><svg width="56" height="56" viewBox="0 0 56 56" xmlns="http://www.w3.org/2000/svg"><path fill="#F0F3FA" d="M0 0h56v56H0z"/><path d="m42.98 14.02.01.01.01.01v.02h-.01L23.92 28.95l-.01.02a.04.04 0 0 0 .02.04H42.94l.04.03.02.04v1.87c0 .01 0 .03-.02.04a.07.07 0 0 1-.05.02H13.04a.04.04 0 0 1-.04-.03v-.02c0-.01 0-.02.02-.02l21.26-15.86.01-.02a.04.04 0 0 0-.01-.04H13.08c-.02 0-.04-.02-.05-.03-.02-.01-.03-.03-.03-.05v-.86c0-.02.01-.04.03-.05a21903.4 21903.4 0 0 0 29.96 0ZM38.6 15l-.02.01-18.1 13.94a.03.03 0 0 0-.02.04l.02.01h1.87L40 15.07a.03.03 0 0 0 0-.04V15h-1.42Z" fill="#C58059"/><path d="M42.92 34H13.08c-.04 0-.08.04-.08.1v.8c0 .06.04.1.08.1h29.84c.04 0 .08-.04.08-.1v-.8c0-.06-.04-.1-.08-.1Z" fill="#27ACE1"/><path d="M27.98 42c-.25 0-.22-.14-.22-.35l-.04-2.63a.25.25 0 0 0-.06-.16l-2.03-2.45a.21.21 0 0 1-.02-.25.22.22 0 0 1 .06-.06h.01a.25.25 0 0 1 .34.03l1.87 2.26c0 .02.03.02.05.02.02 0 .04 0 .05-.02.7-.89 1.3-1.66 1.82-2.3.04-.05.1-.08.16-.09.06 0 .12 0 .17.04h.01a.22.22 0 0 1 .1.15.2.2 0 0 1-.05.17l-1.97 2.5a.25.25 0 0 0-.06.15l.03 2.63c0 .21.03.36-.22.36ZM43 39a3 3 0 1 1-6 0 3 3 0 0 1 6 0Zm-.43 0a2.57 2.57 0 1 0-5.14 0 2.57 2.57 0 0 0 5.14 0ZM17.94 38.82l.04.02.02.05v2.37a.27.27 0 0 1-.12.23c-.74.52-1.83.6-2.68.43a2.66 2.66 0 0 1-2.2-2.64c-.07-1.88 1.08-3.36 3.1-3.28.73.03 1.33.3 1.81.82a.19.19 0 0 1 .05.14.19.19 0 0 1-.07.13l-.07.06a.22.22 0 0 1-.3-.04c-.62-.76-1.81-.79-2.64-.44-1.1.47-1.55 1.73-1.38 2.86.16 1.12.82 1.78 2 1.96.65.1 1.3.02 1.91-.25a.24.24 0 0 0 .14-.21v-1l-.01-.03-.04-.02h-1.69a.14.14 0 0 1-.1-.04.14.14 0 0 1-.04-.1v-.15a.14.14 0 0 1 .1-.13l.05-.01h1.61a.13.13 0 0 0 .1-.05.12.12 0 0 0 .03-.09.14.14 0 0 0-.14-.13h-1.58a.16.16 0 0 1-.11-.05.15.15 0 0 1-.05-.11v-.16c0-.04.02-.07.04-.1a.14.14 0 0 1 .1-.04h2.12Z" fill="#042C48"/></svg>